<svg width="21" height="25" viewBox="0 0 21 25" fill="none" xmlns="http://www.w3.org/2000/svg">
<path d="M20.0189 9.20545C20.0328 10.4275 19.0622 11.394 18.1567 11.4868C17.5542 11.5485 16.9372 11.5898 16.3606 11.759C15.5633 11.9929 14.8308 12.3884 14.2577 13.0409C13.5935 13.7975 13.2219 14.633 13.157 15.6847C13.0933 16.7205 12.7429 17.7345 11.6211 18.1066C9.89946 18.6781 7.97341 17.8555 7.9953 15.7756C8.0046 14.9166 8.60238 14.0016 9.55715 13.6417C10.0693 13.4484 10.5601 13.4726 11.0631 13.4007C12.5704 13.1865 13.7613 12.459 14.4938 11.0583C14.8447 10.3875 15.0458 9.67403 15.0145 8.90023C14.9861 8.18747 14.6756 7.35513 14.2609 6.80258C13.561 5.86981 12.861 5.35097 11.8029 5.05022C10.9165 4.7978 9.99165 4.81431 9.0648 5.12144C8.27994 5.38148 7.69412 5.85644 7.14283 6.43063C6.55765 7.04105 6.24449 7.76909 6.19607 8.6192C6.14962 9.43495 5.96319 10.2196 5.38666 10.8084C4.79619 11.4118 4.07635 11.6375 3.19994 11.5198C2.42704 11.4163 1.89494 11.0665 1.43783 10.4638C0.751178 9.55838 0.836756 8.28986 1.6853 7.51094C2.2771 6.9673 2.91599 6.73898 3.77516 6.66523C5.41319 6.52409 7.39291 5.31536 7.77308 3.61577C7.85597 3.2438 7.9449 2.86673 7.96946 2.48841C8.03649 1.43992 8.64752 0.461356 9.71494 0.151065C11.3192 -0.315005 12.5452 0.300489 13.0116 1.95431C13.0906 2.23472 13.1603 2.52466 13.1815 2.81459C13.2836 4.23317 13.9724 5.24859 15.1559 5.97155C15.9149 6.43508 16.7091 6.59214 17.5947 6.68306C18.7723 6.80323 19.9666 7.69339 20.0189 9.20545Z" fill="#005BAA"/>
<path d="M0.983673 15.6955C0.983673 14.4735 1.96556 13.5171 2.8725 13.4338C3.47556 13.3785 4.09324 13.3442 4.67175 13.1808C5.47188 12.955 6.20895 12.5678 6.78945 11.9211C7.4622 11.1721 7.84367 10.3405 7.92066 9.28939C7.99627 8.25424 8.35852 7.24392 9.48433 6.88403C11.2127 6.33083 13.1293 7.17456 13.083 9.2538C13.0637 10.1128 12.4553 11.0215 11.4966 11.3711C10.9825 11.5587 10.4915 11.5294 9.98792 11.5956C8.47797 11.794 7.27844 12.5087 6.53008 13.9012C6.17114 14.5682 5.96216 15.279 5.98405 16.0534C6.00461 16.7663 6.28924 17.3823 6.61233 17.9877C7.16763 19.0292 8.09578 19.625 9.15064 19.9378C10.0344 20.1998 10.9593 20.1928 11.8894 19.8958C12.6776 19.6441 13.2687 19.1761 13.8267 18.607C14.4191 18.003 14.7409 17.2788 14.7986 16.4286C14.8544 15.6134 15.05 14.8313 15.6331 14.2483C16.2309 13.6513 16.9528 13.4332 17.8284 13.5604C18.6002 13.6723 19.1283 14.0277 19.578 14.6355C20.2542 15.548 20.1533 16.8158 19.2961 17.5852C18.6977 18.1225 18.0567 18.3438 17.1963 18.4086C15.5569 18.532 13.5633 19.7197 13.1633 21.4148C13.0756 21.7863 12.9827 22.162 12.9542 22.5403C12.8746 23.5883 12.253 24.5605 11.1815 24.8592C9.57195 25.3081 8.35319 24.6794 7.90603 23.0209C7.83042 22.74 7.76405 22.4488 7.74617 22.1588C7.65992 20.7397 6.98386 19.7166 5.80889 18.9809C5.05524 18.5091 4.26308 18.3438 3.37805 18.2433C2.20175 18.1111 1.01817 17.2081 0.983673 15.6955Z" fill="#005BAA"/>
</svg>
