<svg width="56" height="55" viewBox="0 0 56 55" fill="none" xmlns="http://www.w3.org/2000/svg">
<path fill-rule="evenodd" clip-rule="evenodd" d="M9.80386 0.50684H45.3525C46.6329 0.505634 47.9009 0.756929 49.084 1.24634C50.2672 1.73576 51.3422 2.45369 52.2475 3.35904C53.1529 4.26439 53.8708 5.3394 54.3602 6.52253C54.8496 7.70566 55.1009 8.97369 55.0997 10.2541V44.4266C55.1009 45.707 54.8496 46.975 54.3602 48.1581C53.8708 49.3413 53.1529 50.4163 52.2475 51.3216C51.3422 52.227 50.2672 52.9449 49.084 53.4343C47.9009 53.9237 46.6329 54.175 45.3525 54.1738H9.80386C8.5235 54.175 7.25546 53.9237 6.07233 53.4343C4.8892 52.9449 3.8142 52.227 2.90885 51.3216C2.00349 50.4163 1.28557 49.3413 0.79615 48.1581C0.306735 46.975 0.0554393 45.707 0.0566449 44.4266V10.2541C0.0554393 8.97369 0.306735 7.70566 0.79615 6.52253C1.28557 5.3394 2.00349 4.26439 2.90885 3.35904C3.8142 2.45369 4.8892 1.73576 6.07233 1.24634C7.25546 0.756929 8.5235 0.505634 9.80386 0.50684ZM26.7316 32.7075H18.1999L16.4569 38.0972C16.4374 38.1954 16.3819 38.2828 16.3013 38.3422C16.2206 38.4016 16.1207 38.4287 16.0211 38.4182H11.7094C11.4571 38.4182 11.3883 38.2806 11.4571 38.0054L18.8421 16.745C18.8621 16.6782 18.8822 16.6094 18.9028 16.5387L18.9028 16.5386L18.9028 16.5386C18.9529 16.3666 19.0064 16.1832 19.0714 15.9882C19.1637 15.4967 19.2098 14.9976 19.209 14.4974C19.2021 14.44 19.2172 14.3821 19.2513 14.3353C19.2853 14.2885 19.3357 14.2563 19.3925 14.2452H25.3326C25.516 14.2452 25.6078 14.314 25.6307 14.4286L34.0018 38.0513C34.0706 38.3036 34.0018 38.4182 33.7725 38.4182H28.9792C28.8981 38.4261 28.8169 38.405 28.7498 38.3589C28.6826 38.3128 28.6339 38.2444 28.6122 38.166L26.7316 32.7075ZM19.5301 28.0518H25.3555C25.2179 27.5702 25.0344 26.9968 24.828 26.4005C24.6216 25.8042 24.4152 25.1162 24.2088 24.4281C24.0024 23.7402 23.7731 23.0293 23.5437 22.3184L23.5437 22.3181C23.3143 21.6072 23.1079 20.9421 22.9244 20.277C22.7409 19.6119 22.5804 19.0385 22.4199 18.4881H22.374C22.1679 19.4877 21.9076 20.4753 21.5942 21.4466C21.4633 21.8657 21.3323 22.2915 21.2001 22.7213L21.1999 22.722C20.9848 23.421 20.7664 24.131 20.5392 24.841C20.2181 26.0106 19.8741 27.0885 19.5301 28.0518ZM37.9016 17.9707C38.2521 18.1085 38.6264 18.1752 39.0029 18.167C39.3879 18.1902 39.7735 18.1306 40.1335 17.9921C40.4935 17.8537 40.8197 17.6396 41.0899 17.3643C41.3579 17.0841 41.567 16.753 41.7049 16.3906C41.8428 16.0282 41.9066 15.6418 41.8926 15.2543C41.9156 14.5014 41.6441 13.7691 41.1358 13.2131C40.6312 12.6856 39.9432 12.4104 39.0487 12.4104C38.2902 12.4045 37.5588 12.6921 37.0076 13.2131C36.7342 13.4762 36.5194 13.794 36.3772 14.1457C36.2349 14.4974 36.1684 14.8752 36.1819 15.2543C36.1564 16.0325 36.4362 16.7898 36.9617 17.3643C37.2317 17.6268 37.5512 17.8329 37.9016 17.9707ZM36.4342 20.4146V38.0742C36.4271 38.1221 36.4309 38.1709 36.4454 38.2171C36.4598 38.2632 36.4845 38.3055 36.5176 38.3408C36.5507 38.3761 36.5913 38.4034 36.6364 38.4208C36.6815 38.4382 36.73 38.4452 36.7782 38.4412H41.2734C41.4798 38.4412 41.5715 38.3265 41.5715 38.0742V20.4146C41.5715 20.2082 41.4798 20.0935 41.2734 20.0935H36.7323C36.5259 20.0935 36.4342 20.1853 36.4342 20.4146Z" fill="#B0D0E7"/>
</svg>
