<svg width="231" height="75" viewBox="0 0 231 75" fill="none" xmlns="http://www.w3.org/2000/svg">
<g clip-path="url(#clip0_4588_77732)">
<path d="M80.8885 54.6832L70.383 54.7115L68.4593 59.669H61.756L71.835 36.127H79.332L89.8856 59.669H83.058L80.8885 54.6832ZM78.9394 50.7765L75.801 42.2822L72.6937 50.7878L78.9394 50.7765Z" fill="#B0D0E7"/>
<path d="M132.111 54.6832L121.605 54.7115L119.682 59.669H112.976L123.057 36.127H130.555L141.108 59.669H134.28L132.111 54.6832ZM130.156 50.7878L127.021 42.2822L123.913 50.7878H130.156Z" fill="#B0D0E7"/>
<path d="M161.43 59.6811L155.967 51.749L150.537 59.6811H142.252L152.167 47.588L143.085 36.0797H151.074L155.769 43.6671L160.998 36.0684H168.452L159.478 47.6219L169.006 59.6782L161.43 59.6811Z" fill="#B0D0E7"/>
<path d="M118.945 35.2743L109.682 26.0117L100.674 35.2743L103.642 37.989L106.662 35.1218H107.021V53.1272C107.021 53.6126 106.925 54.0933 106.738 54.5416C106.552 54.9899 106.279 55.3972 105.936 55.74C105.592 56.0829 105.184 56.3547 104.735 56.5399C104.287 56.725 103.806 56.82 103.32 56.8192H99.7046C98.7254 56.8192 97.7864 56.4303 97.094 55.7379C96.4016 55.0455 96.0126 54.1064 96.0126 53.1272V50.7882H89.62V53.4012C89.62 55.2877 90.3694 57.0969 91.7033 58.4308C93.0373 59.7647 94.8465 60.5141 96.7329 60.5141H105.1C107.008 60.5141 108.837 59.7564 110.186 58.4076C111.534 57.0589 112.292 55.2295 112.292 53.3221V35.1218L112.597 35.0709L116.179 38.0907L118.945 35.2743Z" fill="#B0D0E7"/>
<path d="M83.654 39.7261L92.9166 48.9887L101.922 39.7261L98.9561 37.0115L95.9363 39.8787H95.5776V21.8732C95.5776 20.894 95.9666 19.955 96.659 19.2626C97.3514 18.5702 98.2905 18.1812 99.2697 18.1812H102.888C103.867 18.1812 104.807 18.5702 105.499 19.2626C106.191 19.955 106.58 20.894 106.58 21.8732V24.2122H112.976V21.5992C112.976 20.6652 112.792 19.7402 112.434 18.8772C112.077 18.0143 111.553 17.2301 110.892 16.5697C110.232 15.9092 109.448 15.3852 108.585 15.0278C107.722 14.6703 106.797 14.4863 105.863 14.4863H97.4985C95.591 14.4863 93.7617 15.2441 92.413 16.5928C91.0642 17.9416 90.3065 19.7709 90.3065 21.6783V39.8787L89.9986 39.9295L86.4167 36.9098L83.654 39.7261Z" fill="#B0D0E7"/>
</g>
<defs>
<clipPath id="clip0_4588_77732">
<rect width="107.25" height="46.0277" fill="white" transform="translate(61.756 14.4863)"/>
</clipPath>
</defs>
</svg>
