<svg width="231" height="75" viewBox="0 0 231 75" fill="none" xmlns="http://www.w3.org/2000/svg">
<g clip-path="url(#clip0_4730_186385)">
<path d="M139.385 43.5346C139.384 44.3983 139.04 45.2262 138.429 45.8365C137.818 46.4468 136.989 46.7896 136.125 46.7896C135.261 46.7896 134.432 46.4462 133.82 45.8349C133.209 45.2236 132.866 44.3945 132.866 43.53V28.8798C132.866 28.0153 133.209 27.1862 133.82 26.5749C134.432 25.9635 135.261 25.6201 136.125 25.6201C136.99 25.6201 137.819 25.9635 138.43 26.5749C139.042 27.1862 139.385 28.0153 139.385 28.8798V43.5346Z" fill="#B0D0E7"/>
<path d="M98.9507 43.5338C98.9501 43.963 98.8648 44.3879 98.6995 44.7841C98.5343 45.1802 98.2925 45.5398 97.9879 45.8423C97.6833 46.1447 97.322 46.384 96.9247 46.5465C96.5274 46.7089 96.102 46.7913 95.6728 46.7889C94.8082 46.7889 93.9791 46.4455 93.3678 45.8342C92.7565 45.2229 92.4131 44.3938 92.4131 43.5292V28.8791C92.4155 28.0161 92.76 27.1894 93.3711 26.58C93.9821 25.9707 94.8098 25.6285 95.6728 25.6285C96.5373 25.6285 97.3664 25.972 97.9777 26.5833C98.589 27.1946 98.9324 28.0237 98.9324 28.8882L98.9507 43.5338Z" fill="#B0D0E7"/>
<path d="M123.302 13.3685L125.921 9.67848C125.927 9.65919 125.927 9.63825 125.921 9.61896C125.91 9.56214 125.887 9.50842 125.853 9.46169C125.819 9.41497 125.775 9.37642 125.724 9.34885C125.577 9.24355 125.408 9.21608 125.358 9.29391L122.684 13.1075C118.299 11.5636 113.521 11.5507 109.128 13.0709L106.441 9.29391C106.386 9.21608 106.221 9.24355 106.07 9.34885C106.02 9.37742 105.977 9.41633 105.944 9.46295C105.911 9.50956 105.888 9.56277 105.877 9.61896C105.871 9.63825 105.871 9.65919 105.877 9.67848L108.464 13.341C100.905 16.6785 100.681 24.8826 100.681 24.8826H131.076C131.076 24.8826 130.801 16.7426 123.302 13.3685ZM109.238 20.0755C108.876 20.0755 108.522 19.9681 108.22 19.7669C107.919 19.5657 107.685 19.2797 107.546 18.9451C107.407 18.6104 107.371 18.2422 107.442 17.887C107.512 17.5318 107.687 17.2055 107.943 16.9494C108.199 16.6932 108.525 16.5188 108.881 16.4482C109.236 16.3775 109.604 16.4138 109.939 16.5524C110.273 16.691 110.559 16.9257 110.76 17.2269C110.962 17.528 111.069 17.8821 111.069 18.2443C111.069 18.7299 110.876 19.1957 110.533 19.5392C110.189 19.8826 109.723 20.0755 109.238 20.0755ZM122.579 20.0755C122.216 20.0755 121.862 19.9681 121.561 19.7669C121.26 19.5657 121.025 19.2797 120.887 18.9451C120.748 18.6104 120.712 18.2422 120.783 17.887C120.853 17.5318 121.028 17.2055 121.284 16.9494C121.54 16.6932 121.866 16.5188 122.221 16.4482C122.577 16.3775 122.945 16.4138 123.279 16.5524C123.614 16.691 123.9 16.9257 124.101 17.2269C124.302 17.528 124.41 17.8821 124.41 18.2443C124.41 18.7299 124.217 19.1957 123.874 19.5392C123.53 19.8826 123.064 20.0755 122.579 20.0755Z" fill="#B0D0E7"/>
<path d="M131.231 26.6722V39.2851H131.204V52.5207C131.204 53.0064 131.011 53.4721 130.667 53.8156C130.324 54.159 129.858 54.3519 129.373 54.3519H125.458V62.492C125.458 63.3565 125.115 64.1856 124.503 64.7969C123.892 65.4082 123.063 65.7516 122.199 65.7516C121.334 65.7516 120.505 65.4082 119.894 64.7969C119.282 64.1856 118.939 63.3565 118.939 62.492V54.3519H112.877V62.492C112.877 63.3565 112.534 64.1856 111.923 64.7969C111.311 65.4082 110.482 65.7516 109.618 65.7516C108.753 65.7516 107.924 65.4082 107.313 64.7969C106.701 64.1856 106.358 63.3565 106.358 62.492V54.3519H102.444C101.958 54.3519 101.492 54.159 101.149 53.8156C100.805 53.4721 100.612 53.0064 100.612 52.5207V39.2851H100.585V26.6722H131.231Z" fill="#B0D0E7"/>
</g>
<defs>
<clipPath id="clip0_4730_186385">
<rect width="46.9539" height="56.504" fill="white" transform="translate(92.4312 9.24805)"/>
</clipPath>
</defs>
</svg>
