<svg width="231" height="76" viewBox="0 0 231 76" fill="none" xmlns="http://www.w3.org/2000/svg">
<g clip-path="url(#clip0_1002_45932)">
<path d="M65.4604 48.9611V27.6104H68.2228L81.2866 44.7995V27.6104H83.9011V48.9611H81.1418L68.075 31.6121V48.9611H65.4604Z" fill="#B0D0E7"/>
<path d="M105.104 48.1257C103.325 48.7934 101.438 49.1277 99.5375 49.1118C91.8054 49.1118 87.9383 45.4036 87.9363 37.9871C87.9363 30.9707 91.6697 27.4615 99.1364 27.4595C101.162 27.445 103.177 27.7503 105.107 28.3642V30.7526C103.296 30.0609 101.374 29.7063 99.4349 29.7061C93.6047 29.7061 90.6896 32.4685 90.6896 37.9931C90.6896 43.9159 93.5554 46.8772 99.2872 46.8772C100.313 46.8657 101.335 46.7454 102.336 46.5184V39.2567H105.095V48.1257H105.104Z" fill="#B0D0E7"/>
<path d="M109.51 40.734V27.625H112.27V40.734C112.27 44.8353 114.31 46.8859 118.391 46.8859C122.473 46.8859 124.513 44.8353 124.513 40.734V27.625H127.281V40.734C127.281 46.3311 124.32 49.1286 118.397 49.1266C112.475 49.1246 109.512 46.327 109.51 40.734Z" fill="#B0D0E7"/>
<path d="M134.965 27.6104V46.7205H146.123V48.9611H132.206V27.6104H134.965Z" fill="#B0D0E7"/>
<path d="M150.122 48.9613H147.254L157.869 24.7939L168.484 48.9613H165.423L162.661 42.2425H155.601L156.361 40.0049H161.735L157.739 30.3277L150.122 48.9613Z" fill="#B0D0E7"/>
<path d="M171.397 48.9611V27.6104H180.504C184.568 27.6104 186.598 29.3192 186.596 32.737C186.596 35.5154 184.611 37.571 180.64 38.9039L187.971 48.9672H184.325L177.534 39.3684V37.559C181.613 36.9116 183.654 35.3435 183.656 32.8546C183.656 30.8843 182.521 29.8992 180.251 29.8992H174.16V48.9641L171.397 48.9611Z" fill="#B0D0E7"/>
<path d="M198.318 27.6106V42.8095C198.318 46.9148 195.905 48.9654 191.08 48.9614V46.7208C194.07 46.7208 195.564 45.414 195.562 42.8004V27.6016L198.318 27.6106Z" fill="#B0D0E7"/>
<path d="M203.245 48.2129V45.6767C205.577 46.4913 208.031 46.8993 210.501 46.883C214.174 46.883 216.011 45.539 216.011 42.851C216.011 40.5612 214.657 39.4162 211.949 39.4162H209.201C204.732 39.4162 202.498 37.4751 202.498 33.593C202.498 29.5138 205.359 27.4732 211.083 27.4712C213.425 27.4562 215.759 27.7606 218.019 28.3759V30.9121C215.798 30.0984 213.449 29.6899 211.083 29.7058C207.203 29.7058 205.262 30.9995 205.26 33.587C205.26 35.8768 206.574 37.0218 209.201 37.0218H211.949C216.496 37.0218 218.771 38.9629 218.773 42.845C218.773 47.0247 216.016 49.1155 210.501 49.1176C208.054 49.1322 205.614 48.8281 203.245 48.2129Z" fill="#B0D0E7"/>
<path d="M36.4169 11.1807L11.4805 19.9411L15.4219 52.6126L36.444 64.1656L57.5746 52.4558L61.5131 19.7873L36.4169 11.1807Z" fill="#B0D0E7"/>
<path d="M59.0252 21.6754L36.3596 13.9463V61.4065L55.3582 50.894L59.0252 21.6754Z" fill="#B0D0E7"/>
<path d="M14.2791 21.8141L17.6566 51.0327L36.3536 61.4065V13.9463L14.2791 21.8141Z" fill="#B0D0E7"/>
<path d="M41.6129 37.5525L36.3989 26.666L31.8121 37.5525H41.6129ZM43.6002 42.1303H29.7826L26.6915 49.8624L20.9407 49.9679L36.3597 15.668L52.3124 49.9679H46.9838L43.6002 42.1303Z" fill="#012842"/>
<path d="M36.3596 15.668L36.3988 26.666L41.6068 37.5616H36.3687V42.1212H43.6062L46.9898 49.9619L52.4933 50.0825L36.3596 15.668Z" fill="#012842"/>
</g>
<defs>
<clipPath id="clip0_1002_45932">
<rect width="207.293" height="53" fill="white" transform="translate(11.4805 11.166)"/>
</clipPath>
</defs>
</svg>
