<svg width="230" height="76" viewBox="0 0 230 76" fill="none" xmlns="http://www.w3.org/2000/svg">
<path d="M170.28 48.6241C169.929 48.6241 169.695 48.3783 169.695 48.042V30.9014H163.847C163.496 30.9014 163.262 30.6685 163.262 30.3192V27.9519C163.262 27.6026 163.496 27.3698 163.847 27.3698H179.416C179.767 27.3698 180.001 27.6155 180.001 27.9519V30.3192C180.001 30.6685 179.767 30.9014 179.416 30.9014H173.568V48.042C173.568 48.3913 173.321 48.6241 172.983 48.6241H170.28ZM125.457 40.0732L122.39 31.3024L119.297 40.0732H125.457ZM132.267 47.9385C132.397 48.2878 132.189 48.637 131.812 48.637H129.031C128.628 48.637 128.394 48.4559 128.251 48.0808L126.679 43.5531H118.049L116.477 48.0679C116.347 48.443 116.1 48.6241 115.697 48.6241H113.085C112.734 48.6241 112.5 48.2748 112.63 47.9256L119.869 27.8872C119.999 27.5121 120.246 27.3568 120.649 27.3568H124.222C124.625 27.3568 124.885 27.5121 125.028 27.8872L132.267 47.9385ZM153.022 45.7523C154.724 45.7523 155.881 44.9243 156.816 43.5143L152.489 38.8831C150.825 39.8145 149.76 40.7459 149.76 42.6087C149.76 44.4586 151.254 45.7523 153.022 45.7523ZM154.217 30.1769C152.827 30.1769 152.021 31.0566 152.021 32.2209C152.021 33.1264 152.502 33.9155 153.593 35.0927C155.491 34.0061 156.296 33.3334 156.296 32.1691C156.296 31.0825 155.608 30.1769 154.217 30.1769ZM166.056 47.8867C166.407 48.2619 166.186 48.637 165.758 48.637H162.366C161.911 48.637 161.677 48.5336 161.378 48.1843L159.351 45.9463C157.986 47.7574 156.089 49.1028 152.944 49.1028C149.045 49.1028 145.965 46.7613 145.965 42.751C145.965 39.6722 147.628 38.0163 150.136 36.6322C148.902 35.2221 148.343 33.7344 148.343 32.4279C148.343 29.1291 150.669 26.8782 154.165 26.8782C157.739 26.8782 159.935 28.9739 159.935 32.0915C159.935 34.7435 158.012 36.2311 155.985 37.3566L158.974 40.5777L160.65 37.6541C160.858 37.3048 161.105 37.1755 161.534 37.1755H164.12C164.549 37.1755 164.783 37.473 164.523 37.9258L161.534 43.0227L166.056 47.8867ZM139.389 48.6241C139.74 48.6241 139.974 48.3783 139.974 48.042V30.9014H145.822C146.173 30.9014 146.407 30.6685 146.407 30.3192V27.9519C146.407 27.6026 146.173 27.3698 145.822 27.3698H130.253C129.902 27.3698 129.668 27.6155 129.668 27.9519V30.3192C129.668 30.6685 129.902 30.9014 130.253 30.9014H136.101V48.042C136.101 48.3913 136.348 48.6241 136.686 48.6241H139.389Z" fill="#B0D0E7"/>
<path d="M60.3318 58.9726C64.8674 62.4654 70.5466 64.5611 76.7197 64.5611C83.4646 64.5611 89.6246 62.0644 94.3292 57.9765C94.3811 57.9247 94.3552 57.8989 94.3032 57.9247C92.1978 59.3218 86.1937 62.3878 76.7327 62.3878C68.5062 62.3878 63.3208 60.5637 60.3838 58.9338C60.3188 58.895 60.2928 58.9338 60.3318 58.9726ZM78.5391 60.3309C85.115 60.3309 92.3408 58.5457 96.6684 55.0141C97.8511 54.0568 98.9817 52.7761 99.9824 51.0555C100.567 50.0595 101.126 48.8822 101.594 47.7309C101.62 47.6792 101.581 47.6533 101.542 47.705C97.5262 53.5911 85.8818 57.265 73.8735 57.265C65.3742 57.265 56.2381 54.5613 52.6642 49.3997C52.6252 49.348 52.5992 49.3738 52.6122 49.4256C55.9262 56.4759 66.037 60.3309 78.5391 60.3309ZM71.3523 48.6235C57.6806 48.6235 51.2216 42.2847 50.052 37.9511C50.039 37.8993 50 37.9123 50 37.964C50 39.4258 50.143 41.3016 50.4029 42.5435C50.5198 43.1515 51.0137 44.1087 51.7415 44.8591C55.0554 48.3001 63.3078 53.1124 77.6034 53.1124C97.0843 53.1124 101.542 46.6572 102.452 44.5227C103.101 43.0092 103.439 40.2537 103.439 37.9511C103.439 37.3948 103.426 36.942 103.4 36.5151C103.4 36.4505 103.361 36.4375 103.348 36.5022C102.374 41.7155 85.7388 48.6235 71.3523 48.6235ZM52.5732 26.5671C51.7934 28.1195 50.9227 30.7326 50.6628 32.078C50.5458 32.6601 50.5978 32.9318 50.8057 33.3716C52.4432 36.8385 60.7346 42.3753 80.0726 42.3753C91.8729 42.3753 101.035 39.4905 102.517 34.2254C102.79 33.2552 102.803 32.2332 102.452 30.849C102.062 29.3096 101.321 27.5115 100.697 26.2437C100.671 26.2049 100.645 26.2049 100.645 26.2566C100.879 33.1646 81.5282 37.6147 71.7682 37.6147C61.1895 37.6147 52.3783 33.4234 52.3783 28.1195C52.3783 27.615 52.4822 27.0975 52.6122 26.5671C52.6382 26.5283 52.5992 26.5154 52.5732 26.5671ZM94.3681 18.0809C94.4851 18.262 94.5371 18.4431 94.5371 18.6889C94.5371 21.6384 85.4529 26.8646 71.0014 26.8646C60.3838 26.8646 58.3824 22.9449 58.3824 20.4482C58.3824 19.5556 58.7203 18.6501 59.487 17.7187C59.526 17.6669 59.487 17.6411 59.4481 17.6799C58.0705 18.8441 56.7969 20.1507 55.6922 21.5737C55.1594 22.2464 54.8345 22.8415 54.8345 23.1907C54.8345 28.3653 67.8564 32.1039 80.0336 32.1039C93.0036 32.1039 98.7998 27.8866 98.7998 24.1868C98.7998 22.8673 98.2799 22.0911 96.9543 20.5905C96.0966 19.6203 95.2779 18.8183 94.4201 18.0421C94.3681 18.0162 94.3422 18.0421 94.3681 18.0809ZM90.3914 15.1314C86.3886 12.7382 81.7361 11.3799 76.7197 11.3799C71.6772 11.3799 66.8817 12.7899 62.866 15.2349C61.6574 15.9723 60.9816 16.5673 60.9816 17.3306C60.9816 19.5686 66.2449 21.9877 75.589 21.9877C84.8291 21.9877 92.0029 19.3487 92.0029 16.8002C92.0029 16.1922 91.4701 15.7653 90.3914 15.1314Z" fill="#B0D0E7"/>
</svg>
