<svg width="19" height="19" viewBox="0 0 19 19" fill="none" xmlns="http://www.w3.org/2000/svg">
<path d="M4.96518 8.11456C5.04079 8.11456 5.12513 8.12619 5.21819 8.14946C5.31124 8.17272 5.4043 8.20471 5.49736 8.24543C5.59042 8.28614 5.68348 8.32395 5.77654 8.35884C5.8696 8.39374 5.95394 8.42864 6.02955 8.46353L5.88996 8.48098C5.84343 8.4868 5.79399 8.48971 5.74164 8.48971C5.64277 8.48971 5.55262 8.47517 5.47119 8.44609C5.38976 8.417 5.31415 8.3792 5.24436 8.33267C5.17456 8.28614 5.10477 8.25124 5.03497 8.22798C4.96518 8.20471 4.9012 8.18726 4.84304 8.17563C4.78488 8.17563 4.73253 8.18726 4.686 8.21053C4.63947 8.23379 4.59294 8.25997 4.54641 8.28905C4.54641 8.26578 4.52606 8.25415 4.48534 8.25415C4.52606 8.21344 4.60167 8.18145 4.71217 8.15818C4.82268 8.13492 4.90702 8.12038 4.96518 8.11456ZM6.14296 8.50716C6.38143 8.50716 6.59954 8.54787 6.79729 8.6293C6.71586 8.65838 6.63443 8.68164 6.55301 8.69909C6.47158 8.71654 6.38724 8.72817 6.3 8.73399C6.18368 8.73399 6.07898 8.72236 5.98593 8.69909C6.01501 8.65256 6.04409 8.62348 6.07317 8.61185C6.10225 8.60022 6.12551 8.56532 6.14296 8.50716ZM9.57162 0.41099C10.3917 0.41099 11.1798 0.51859 11.9359 0.73379C12.692 0.94899 13.4016 1.24852 14.0646 1.63239C14.7277 2.01626 15.3326 2.48447 15.8793 3.03701C16.426 3.58955 16.8913 4.19153 17.2752 4.84294C17.6591 5.49436 17.9615 6.20394 18.1825 6.97168C18.4035 7.73942 18.5111 8.53042 18.5053 9.34469C18.5053 10.1648 18.3977 10.9529 18.1825 11.709C17.9673 12.4651 17.6678 13.1747 17.2839 13.8377C16.9 14.5008 16.4318 15.1056 15.8793 15.6524C15.3268 16.1991 14.7248 16.6644 14.0734 17.0483C13.422 17.4321 12.7124 17.7346 11.9446 17.9556C11.1769 18.1766 10.3859 18.2842 9.57162 18.2784C8.75153 18.2784 7.96344 18.1708 7.20733 17.9556C6.45122 17.7404 5.74164 17.4409 5.0786 17.057C4.41555 16.6731 3.81066 16.2049 3.26394 15.6524C2.71721 15.0998 2.25192 14.4979 1.86805 13.8464C1.48418 13.195 1.18173 12.4854 0.960719 11.7177C0.739703 10.95 0.632103 10.159 0.637919 9.34469C0.637919 8.52461 0.745519 7.73651 0.960719 6.9804C1.17592 6.22429 1.47545 5.51472 1.85932 4.85167C2.24319 4.18862 2.7114 3.58373 3.26394 3.03701C3.81648 2.49029 4.41846 2.02499 5.06987 1.64112C5.72129 1.25725 6.43087 0.954806 7.19861 0.73379C7.96635 0.512774 8.75735 0.405174 9.57162 0.41099ZM16.2195 5.25299C16.1381 5.12503 16.0567 5.00289 15.9753 4.88656C15.8938 4.77024 15.8095 4.65101 15.7223 4.52887C15.7106 4.58121 15.6961 4.61902 15.6786 4.64228C15.6612 4.66555 15.6496 4.71789 15.6437 4.79932C15.6437 4.85167 15.6641 4.90111 15.7048 4.94764C15.7455 4.99416 15.7979 5.04069 15.8619 5.08722C15.9258 5.13375 15.9898 5.16865 16.0538 5.19192C16.1178 5.21518 16.173 5.23554 16.2195 5.25299ZM15.6176 4.398C15.6176 4.44453 15.6088 4.47652 15.5914 4.49397H15.6437C15.667 4.49397 15.6845 4.49688 15.6961 4.5027L15.6176 4.398ZM9.57162 17.1617C10.2347 17.1617 10.8832 17.0773 11.5171 16.9087C12.1511 16.74 12.7502 16.5015 13.3144 16.1933C13.8785 15.885 14.402 15.507 14.8847 15.0591C15.3675 14.6113 15.7891 14.1111 16.1498 13.5585C16.0741 13.384 16.0014 13.2067 15.9316 13.0264C15.8619 12.8461 15.827 12.6599 15.827 12.468C15.827 12.2586 15.8357 12.0899 15.8531 11.962C15.8706 11.834 15.8909 11.7206 15.9142 11.6217C15.9375 11.5229 15.9491 11.4385 15.9491 11.3687C15.9491 11.2989 15.9404 11.2088 15.9229 11.0983C15.9055 10.9878 15.856 10.8685 15.7746 10.7406C15.6932 10.6126 15.5856 10.4323 15.4518 10.1997C15.4576 10.159 15.4664 10.1037 15.478 10.0339C15.4896 9.96412 15.5012 9.89141 15.5129 9.8158C15.5245 9.74019 15.5274 9.6704 15.5216 9.60642C15.5158 9.54244 15.5012 9.48719 15.478 9.44066C15.3268 9.42321 15.1697 9.39122 15.0069 9.34469C14.844 9.29816 14.6986 9.22837 14.5707 9.13531L14.623 9.09169C14.5474 9.10913 14.4718 9.1324 14.3962 9.16148C14.3206 9.19056 14.2479 9.22255 14.1781 9.25745C14.1083 9.29234 14.0327 9.31561 13.9512 9.32724C13.8698 9.33887 13.7913 9.35051 13.7157 9.36214L13.5761 9.34469L13.6023 9.28362C13.5208 9.30689 13.4336 9.33597 13.3405 9.37086C13.2475 9.40576 13.1573 9.42321 13.0701 9.42321C13.0119 9.42321 12.9276 9.40285 12.8171 9.36214C12.7066 9.32143 12.596 9.27199 12.4855 9.21383C12.375 9.15566 12.2762 9.09169 12.1889 9.02189C12.1017 8.9521 12.0581 8.88521 12.0581 8.82123L12.0755 8.79506C12.0464 8.76016 12.0086 8.72817 11.9621 8.69909C11.9156 8.67001 11.8719 8.64093 11.8312 8.61185C11.7905 8.58277 11.7527 8.55078 11.7178 8.51588C11.6829 8.48098 11.6684 8.44027 11.6742 8.39374L11.7701 8.31522L11.5695 8.28905L11.4997 8.02732C11.5113 8.0564 11.5375 8.06803 11.5782 8.06222C11.6189 8.0564 11.6509 8.04477 11.6742 8.02732L11.3601 7.86156L11.5782 7.3032C11.4968 7.00076 11.4764 6.76811 11.5171 6.60526C11.5579 6.4424 11.6364 6.30863 11.7527 6.20394C11.869 6.09924 11.997 5.99455 12.1366 5.88986C12.2762 5.78517 12.4187 5.64267 12.5641 5.46237L12.5379 5.35768L13.1137 4.65973L13.2446 4.64228C13.4074 4.64228 13.5906 4.63647 13.7942 4.62484C13.9978 4.6132 14.2042 4.59285 14.4136 4.56377C14.623 4.53468 14.8295 4.5056 15.033 4.47652C15.2366 4.44744 15.4227 4.40964 15.5914 4.36311C15.4053 4.14209 15.2104 3.93271 15.0069 3.73496C14.8033 3.5372 14.5852 3.34818 14.3525 3.16787C14.2886 3.19114 14.21 3.22313 14.117 3.26384C14.0239 3.30456 13.9309 3.3569 13.8378 3.42088C13.7448 3.48486 13.672 3.55465 13.6197 3.63026C13.5674 3.70587 13.5354 3.78439 13.5237 3.86582L13.5761 4.03158C13.4714 4.20025 13.3551 4.30494 13.2271 4.34566C13.0992 4.38637 12.9683 4.40964 12.8345 4.41545C12.7007 4.42127 12.5612 4.42127 12.4157 4.41545C12.2703 4.40964 12.1308 4.43581 11.997 4.49397L11.8574 4.19734L11.9883 3.69133L11.8399 3.47323L13.3492 3.00211C13.2853 2.83926 13.1806 2.71712 13.0352 2.63569C12.8898 2.55426 12.7298 2.51355 12.5553 2.51355V2.42631L13.0439 2.34779C12.503 2.08024 11.9417 1.87668 11.3601 1.73709C10.7785 1.5975 10.1823 1.5277 9.57162 1.5277C9.06561 1.5277 8.56541 1.57714 8.07104 1.67602C7.57666 1.77489 7.09973 1.91739 6.64025 2.10351C6.18077 2.28963 5.73583 2.52227 5.30543 2.80145C4.87503 3.08063 4.48243 3.39471 4.12765 3.74368C4.27887 3.74368 4.39519 3.78148 4.47662 3.8571C4.55805 3.93271 4.63366 4.01704 4.70345 4.1101C4.77325 4.20316 4.84595 4.2875 4.92156 4.36311C4.99717 4.43872 5.09895 4.47943 5.22691 4.48525L5.3665 4.38055L5.34905 4.18862L5.63695 3.77858L5.41012 3.13298C5.4392 3.11553 5.48282 3.08645 5.54099 3.04573C5.59915 3.00502 5.64859 2.98466 5.6893 2.98466C5.86378 2.98466 5.99756 2.99339 6.09062 3.01084C6.18368 3.02829 6.2651 3.06027 6.3349 3.1068C6.40469 3.15333 6.46576 3.22022 6.51811 3.30746C6.57045 3.39471 6.65188 3.50521 6.76239 3.63899L7.07646 3.39471C7.13463 3.41797 7.22769 3.45578 7.35564 3.50812C7.4836 3.56047 7.61446 3.62445 7.74824 3.70006C7.88201 3.77567 7.99543 3.85419 8.08849 3.93561C8.18155 4.01704 8.23098 4.09265 8.2368 4.16245C8.2368 4.24969 8.20481 4.31948 8.14083 4.37183C8.07685 4.42418 7.99252 4.4678 7.88783 4.5027C7.78313 4.53759 7.67553 4.56377 7.56503 4.58121C7.45452 4.59866 7.34401 4.62193 7.2335 4.65101C7.12299 4.68009 7.03866 4.70917 6.9805 4.73825C6.92234 4.76733 6.88744 4.81677 6.87581 4.88656L7.38182 5.05233C7.26549 5.1512 7.14044 5.24135 7.00667 5.32278C6.8729 5.40421 6.73331 5.47982 6.5879 5.54961L6.6228 5.69793L5.82016 6.012V6.25628L5.75909 6.28246L5.80271 5.9771L5.76782 5.96838C5.7271 5.96838 5.70384 5.9771 5.69802 5.99455C5.69221 6.012 5.6893 6.03236 5.6893 6.05562C5.6893 6.07889 5.69511 6.10215 5.70675 6.12542C5.71838 6.14868 5.72129 6.16613 5.71547 6.17776L5.60206 6.11669L5.6195 6.15159C5.6195 6.16904 5.62823 6.19521 5.64568 6.23011C5.66313 6.26501 5.68639 6.297 5.71547 6.32608C5.74455 6.35516 5.76782 6.38424 5.78527 6.41332C5.80271 6.4424 5.81435 6.45694 5.82016 6.45694C5.82016 6.47439 5.80853 6.49184 5.78527 6.50929C5.762 6.52674 5.73292 6.53837 5.69802 6.54419C5.66313 6.55 5.63986 6.55873 5.62823 6.57036C5.6166 6.58199 5.6166 6.5849 5.62823 6.57908C5.70966 6.57908 5.7271 6.5849 5.68057 6.59653C5.63404 6.60816 5.56134 6.63724 5.46247 6.68377C5.36359 6.7303 5.27344 6.79719 5.19201 6.88443C5.11059 6.97168 5.06406 7.09963 5.05242 7.2683C5.05242 7.36718 5.05533 7.46315 5.06115 7.55621C5.06696 7.64927 5.06406 7.74523 5.05242 7.84411C4.971 7.62309 4.84886 7.45442 4.686 7.3381C4.52315 7.22177 4.3254 7.16361 4.09275 7.16361L3.7176 7.19851L3.90081 7.32065C3.80194 7.30902 3.70015 7.29738 3.59546 7.28575C3.49077 7.27412 3.38317 7.27121 3.27266 7.27703C3.16215 7.28284 3.06328 7.30611 2.97604 7.34682C2.88879 7.38754 2.80155 7.44861 2.71431 7.53003L2.66196 7.92263C2.66196 8.10875 2.70267 8.25997 2.7841 8.37629C2.86553 8.49262 3.00802 8.55369 3.21159 8.5595C3.38608 8.5595 3.55766 8.53333 3.72633 8.48098C3.895 8.42864 4.06076 8.36757 4.22361 8.29777C4.17127 8.42573 4.11311 8.54787 4.04913 8.66419C3.98515 8.78052 3.93862 8.90847 3.90954 9.04806L4.02295 9.10041C4.16254 9.00735 4.2905 8.99281 4.40682 9.05679C4.52315 9.12077 4.63656 9.21383 4.74707 9.33597C4.85758 9.45811 4.971 9.58316 5.08732 9.71111C5.20365 9.83907 5.32869 9.93213 5.46247 9.99029L5.16584 10.1473L4.46789 9.75473C4.47371 9.76637 4.47953 9.79254 4.48534 9.83325C4.49116 9.87397 4.48825 9.88269 4.47662 9.85943L4.16254 9.32724C3.97642 9.32143 3.77867 9.29235 3.56929 9.24C3.35991 9.18765 3.14761 9.11786 2.93241 9.03062C2.71721 8.94337 2.51656 8.8474 2.33044 8.74271C2.14432 8.63802 1.97274 8.52751 1.8157 8.41119L1.75463 9.34469C1.75463 10.0543 1.8506 10.7464 2.04253 11.4211C2.23447 12.0958 2.50492 12.7297 2.8539 13.323C3.20287 13.9162 3.63036 14.4571 4.13637 14.9457C4.64238 15.4343 5.20364 15.8501 5.82016 16.1933C5.79108 16.0711 5.78817 15.949 5.81144 15.8269C5.8347 15.7047 5.86378 15.5826 5.89868 15.4604C5.93358 15.3383 5.97139 15.2162 6.0121 15.094C6.05281 14.9719 6.07317 14.8468 6.07317 14.7189C6.07317 14.5328 6.04409 14.3379 5.98593 14.1343C5.92776 13.9308 5.85797 13.7243 5.77654 13.5149C5.69511 13.3055 5.60496 13.0991 5.50609 12.8955C5.40721 12.6919 5.32869 12.5 5.27053 12.3197C5.21237 12.1394 5.16584 11.9707 5.13094 11.8137C5.09605 11.6566 5.11349 11.52 5.18329 11.4036L5.05242 11.3426C5.08732 11.2611 5.13385 11.1826 5.19201 11.107C5.25017 11.0314 5.31124 10.9558 5.37522 10.8802C5.4392 10.8046 5.48864 10.7231 5.52354 10.6359C5.55843 10.5486 5.57879 10.4614 5.58461 10.3742C5.58461 10.316 5.57297 10.2549 5.54971 10.1909C5.52644 10.127 5.50609 10.0659 5.48864 10.0077L5.67185 10.0514C5.77073 9.82453 5.9045 9.6704 6.07317 9.58897C6.24184 9.50755 6.45413 9.46392 6.71004 9.45811C6.73912 9.45811 6.80019 9.46974 6.89325 9.493C6.98631 9.51627 7.08519 9.54826 7.18988 9.58897C7.29457 9.62969 7.39345 9.66167 7.48651 9.68494C7.57957 9.7082 7.64936 9.73147 7.69589 9.75473C7.69589 9.79545 7.71916 9.82162 7.76569 9.83325C7.81222 9.84488 7.83839 9.86524 7.8442 9.89432L7.82676 9.96412C7.8442 9.96993 7.88492 9.99029 7.9489 10.0252C8.01287 10.0601 8.08267 10.1037 8.15828 10.1561C8.23389 10.2084 8.30078 10.2549 8.35894 10.2956C8.4171 10.3364 8.45782 10.3683 8.48108 10.3916C8.58577 10.3916 8.72827 10.4265 8.90857 10.4963C9.08887 10.5661 9.28663 10.6533 9.50183 10.758C9.71702 10.8627 9.92932 10.9878 10.1387 11.1332C10.3481 11.2786 10.5458 11.424 10.732 11.5694C10.9181 11.7148 11.0606 11.8602 11.1594 12.0056C11.2583 12.151 11.3165 12.279 11.3339 12.3895L11.0373 12.7036C11.0606 13.0002 11.0402 13.227 10.9762 13.384C10.9123 13.5411 10.8134 13.672 10.6796 13.7766C10.5458 13.8813 10.3917 13.9686 10.2172 14.0384C10.0427 14.1082 9.85371 14.207 9.65014 14.335C9.65014 14.4513 9.62106 14.5764 9.56289 14.7101C9.50473 14.8439 9.43203 14.9719 9.34479 15.094C9.25754 15.2162 9.15285 15.3179 9.03071 15.3994C8.90857 15.4808 8.78643 15.5215 8.66429 15.5215L8.29787 15.2423C8.3095 15.254 8.3095 15.2743 8.29787 15.3034C8.28624 15.3325 8.2717 15.3383 8.25425 15.3208C8.31241 15.4314 8.32695 15.5593 8.29787 15.7047C8.26879 15.8501 8.21935 15.9984 8.14956 16.1497C8.07976 16.3009 8.00124 16.4434 7.914 16.5772C7.82676 16.7109 7.74824 16.8243 7.67844 16.9174C7.99252 16.9988 8.30659 17.0599 8.62067 17.1006C8.93474 17.1413 9.25173 17.1617 9.57162 17.1617Z" fill="#005BAA"/>
</svg>
