<svg width="55" height="55" viewBox="0 0 55 55" fill="none" xmlns="http://www.w3.org/2000/svg">
<path fill-rule="evenodd" clip-rule="evenodd" d="M11.4833 0.51709C5.55762 0.51709 0.753906 5.3208 0.753906 11.2465V43.4347C0.753906 49.3604 5.55762 54.1641 11.4833 54.1641H43.6715C49.5972 54.1641 54.4009 49.3604 54.4009 43.4347V11.2465C54.4009 5.3208 49.5972 0.51709 43.6715 0.51709H11.4833ZM31.5831 7.67002H37.3098L48.142 13.6886L37.3098 47.0113H31.5831L36.6671 16.6756L25.9188 47.0113H20.1919L25.2762 19.1204L14.5277 47.0113H8.80095L13.8008 20.9991L8.80095 7.67002H14.5279L25.2762 17.9949L20.1919 7.67002H25.9188L36.6671 15.5495L31.5831 7.67002Z" fill="#B0D0E7"/>
</svg>
