<svg width="231" height="75" viewBox="0 0 231 75" fill="none" xmlns="http://www.w3.org/2000/svg">
<g clip-path="url(#clip0_4588_77706)">
<path d="M70.1154 52.9817C70.109 55.0322 69.2916 56.9969 67.8417 58.4468C66.3917 59.8967 64.4271 60.7141 62.3766 60.7206H31.419C29.3682 60.7147 27.4029 59.8975 25.9526 58.4475C24.5022 56.9975 23.6845 55.0325 23.6781 52.9817V22.0241C23.6845 19.9731 24.5021 18.0079 25.9525 16.5576C27.4028 15.1072 29.368 14.2896 31.419 14.2832H62.3766C64.4274 14.2896 66.3924 15.1073 67.8424 16.5577C69.2924 18.008 70.1096 19.9733 70.1154 22.0241V52.9817Z" fill="#B0D0E7"/>
<path d="M36.2969 24.376H49.4615C51.8964 24.376 53.8436 24.9326 55.3032 26.0459C56.7628 27.1592 57.4966 28.8406 57.5048 31.0902C57.5397 32.3343 57.1896 33.5588 56.5024 34.5964C55.785 35.6109 54.7892 36.396 53.6353 36.8568V36.9339C55.3032 37.289 56.5714 38.0783 57.4276 39.2998C58.2839 40.5213 58.7182 42.0634 58.7182 43.9139C58.7273 44.9333 58.5342 45.9443 58.15 46.8885C57.7655 47.8224 57.1522 48.6444 56.3664 49.2788C55.4425 50.0061 54.3861 50.5471 53.2559 50.8716C51.789 51.2933 50.2672 51.493 48.7412 51.4641H36.2969V24.376ZM41.0388 35.7185H48.7777C49.916 35.7185 50.8656 35.3999 51.6184 34.7486C52.3712 34.0973 52.7567 33.17 52.7567 31.9566C52.7567 30.591 52.4138 29.6272 51.7422 29.0733C51.0706 28.5193 50.0723 28.2373 48.7818 28.2373H41.0429V35.7185H41.0388ZM41.0388 47.5947H49.423C50.8656 47.5947 51.9877 47.2213 52.777 46.4706C53.5663 45.7198 53.9762 44.6647 53.9762 43.2991C53.9762 41.9335 53.5826 40.9312 52.777 40.2027C51.9715 39.4743 50.8656 39.1253 49.423 39.1253H41.0388V47.5947Z" fill="#012842"/>
<path d="M80.2567 47.75V25.9639H88.4319C90.0957 25.9639 91.4309 26.1843 92.4373 26.6253C93.4152 27.0415 94.2403 27.7504 94.7991 28.6544C95.3515 29.512 95.6479 30.5095 95.6533 31.5296C95.6549 32.4627 95.3925 33.3771 94.8965 34.1674C94.3388 35.0355 93.5447 35.7261 92.6077 36.1579C93.9239 36.5434 94.9384 37.2022 95.6513 38.1342C96.3652 39.0838 96.739 40.2458 96.7125 41.4335C96.7196 42.4175 96.4987 43.3898 96.0673 44.2742C95.702 45.0673 95.1541 45.7627 94.4684 46.3033C93.7527 46.8161 92.9423 47.1817 92.0842 47.3787C90.9321 47.6436 89.7518 47.7662 88.5699 47.7439L80.2567 47.75ZM83.1401 35.117H87.8516C89.1299 35.117 90.0464 35.0331 90.601 34.8654C91.2588 34.6977 91.842 34.3158 92.2587 33.7798C92.6455 33.2232 92.8406 32.5559 92.8147 31.8786C92.8289 31.2048 92.6486 30.5411 92.2952 29.9672C91.9541 29.4228 91.4259 29.0217 90.81 28.8391C90.1647 28.6362 89.0595 28.5347 87.4945 28.5347H83.1401V35.117ZM83.1401 45.1792H88.5658C89.2209 45.196 89.8762 45.1615 90.5259 45.0757C91.1134 44.9833 91.6785 44.7817 92.1918 44.4812C92.6585 44.1785 93.0377 43.7587 93.2915 43.2637C93.585 42.7004 93.7329 42.0726 93.7217 41.4376C93.7393 40.6839 93.5216 39.9434 93.0988 39.3192C92.6773 38.7178 92.0676 38.2738 91.3659 38.0571C90.6273 37.8136 89.5648 37.6919 88.1783 37.6919H83.1401V45.1792Z" fill="#B0D0E7"/>
<path d="M99.3402 39.8594C99.3402 36.9349 100.152 34.7705 101.775 33.3664C103.128 32.1977 104.782 31.6133 106.738 31.6133C108.903 31.6133 110.676 32.3241 112.058 33.7458C113.441 35.1675 114.129 37.129 114.124 39.6301C114.124 41.6592 113.82 43.2568 113.211 44.4228C112.615 45.5726 111.689 46.5175 110.551 47.1357C109.384 47.7799 108.071 48.1126 106.738 48.1015C104.529 48.1015 102.744 47.3927 101.381 45.9751C100.019 44.5574 99.3388 42.5189 99.3402 39.8594ZM102.09 39.8594C102.09 41.8804 102.531 43.3934 103.413 44.3985C103.826 44.8734 104.336 45.2542 104.909 45.5151C105.481 45.7761 106.104 45.9111 106.733 45.9111C107.363 45.9111 107.985 45.7761 108.558 45.5151C109.13 45.2542 109.641 44.8734 110.054 44.3985C110.936 43.388 111.377 41.8472 111.377 39.7762C111.377 37.8243 110.934 36.3458 110.048 35.3407C109.634 34.8677 109.124 34.4886 108.552 34.2288C107.98 33.9691 107.358 33.8347 106.73 33.8347C106.102 33.8347 105.481 33.9691 104.908 34.2288C104.336 34.4886 103.826 34.8677 103.413 35.3407C102.529 36.3322 102.088 37.8385 102.09 39.8594Z" fill="#B0D0E7"/>
<path d="M116.267 39.8594C116.267 36.9349 117.078 34.7705 118.702 33.3664C120.054 32.1977 121.709 31.6133 123.665 31.6133C125.836 31.6133 127.609 32.3241 128.985 33.7458C130.361 35.1675 131.05 37.129 131.053 39.6301C131.053 41.6592 130.748 43.2568 130.137 44.4228C129.542 45.573 128.616 46.5181 127.477 47.1357C126.311 47.7799 124.997 48.1126 123.665 48.1015C121.457 48.1015 119.671 47.3927 118.308 45.9751C116.944 44.5574 116.264 42.5189 116.267 39.8594ZM119.016 39.8594C119.016 41.8804 119.457 43.3934 120.339 44.3985C120.752 44.8734 121.263 45.2542 121.836 45.5152C122.409 45.7762 123.031 45.9112 123.661 45.9112C124.29 45.9112 124.913 45.7762 125.486 45.5152C126.059 45.2542 126.569 44.8734 126.982 44.3985C127.863 43.388 128.304 41.8472 128.305 39.7762C128.305 37.8243 127.861 36.3458 126.974 35.3407C126.56 34.8677 126.05 34.4886 125.478 34.2288C124.906 33.9691 124.285 33.8347 123.657 33.8347C123.028 33.8347 122.407 33.9691 121.835 34.2288C121.263 34.4886 120.753 34.8677 120.339 35.3407C119.457 36.3322 119.016 37.8385 119.016 39.8594Z" fill="#B0D0E7"/>
<path d="M140.029 45.358L140.417 47.7198C139.75 47.8684 139.07 47.948 138.388 47.9572C137.416 47.9572 136.663 47.8037 136.127 47.4966C135.627 47.2266 135.23 46.7985 134.999 46.2792C134.78 45.78 134.671 44.7276 134.672 43.122V34.0479H132.71V31.9681H134.672V28.0581L137.333 26.4531V31.9681H140.021V34.0479H137.333V43.2762C137.333 44.0391 137.379 44.5294 137.473 44.7472C137.567 44.9655 137.728 45.1481 137.933 45.2687C138.216 45.4128 138.532 45.4794 138.848 45.4615C139.244 45.4538 139.638 45.4192 140.029 45.358Z" fill="#B0D0E7"/>
<path d="M141.575 43.0383L144.213 42.6325C144.362 43.693 144.775 44.5046 145.453 45.0674C146.131 45.6301 147.077 45.9128 148.294 45.9155C149.521 45.9155 150.432 45.6653 151.029 45.1648C151.302 44.9585 151.524 44.6926 151.678 44.3873C151.833 44.0821 151.915 43.7456 151.92 43.4035C151.925 43.1185 151.854 42.8372 151.716 42.5878C151.578 42.3385 151.377 42.1299 151.132 41.9832C150.764 41.7451 149.853 41.4428 148.397 41.0762C146.434 40.5811 145.075 40.1523 144.319 39.7898C143.621 39.4803 143.029 38.9721 142.618 38.3288C142.207 37.6854 141.995 36.9353 142.008 36.1719C142.002 35.4904 142.168 34.8184 142.49 34.2179C142.806 33.6243 143.256 33.1128 143.805 32.7245C144.324 32.3693 144.9 32.1051 145.508 31.9433C146.259 31.726 147.037 31.6186 147.819 31.6248C148.929 31.6032 150.034 31.7847 151.08 32.1604C152.017 32.5162 152.708 32.9991 153.153 33.6092C153.598 34.2193 153.905 35.0309 154.074 36.0441L151.459 36.4012C151.377 35.6566 151.006 34.9739 150.426 34.5C149.857 34.0441 149.052 33.8162 148.012 33.8162C146.782 33.8162 145.903 34.0191 145.374 34.4249C144.85 34.8307 144.586 35.3075 144.586 35.8452C144.585 36.1859 144.7 36.5169 144.913 36.7827C145.185 37.108 145.54 37.354 145.94 37.4949C146.21 37.595 146.998 37.8229 148.302 38.1787C150.196 38.6846 151.516 39.0985 152.262 39.4205C152.972 39.7102 153.583 40.1976 154.024 40.8246C154.468 41.5031 154.692 42.3027 154.663 43.1134C154.661 44.0117 154.389 44.8888 153.884 45.6315C153.327 46.4471 152.544 47.0819 151.631 47.4576C150.579 47.9028 149.445 48.1232 148.302 48.1049C146.252 48.1049 144.689 47.6788 143.613 46.8266C142.536 45.9744 141.857 44.7116 141.575 43.0383Z" fill="#B0D0E7"/>
<path d="M163.704 45.358L164.09 47.7198C163.423 47.8684 162.744 47.948 162.061 47.9572C161.091 47.9572 160.338 47.8037 159.802 47.4966C159.302 47.2267 158.904 46.7986 158.672 46.2792C158.456 45.78 158.347 44.7276 158.346 43.122V34.0479H156.383V31.9681H158.346V28.0581L161.006 26.4531V31.9681H163.696V34.0479H161.006V43.2762C161.006 44.0391 161.053 44.5294 161.148 44.7472C161.242 44.9659 161.403 45.1486 161.608 45.2687C161.89 45.4127 162.205 45.4792 162.521 45.4615C162.918 45.4539 163.313 45.4193 163.704 45.358Z" fill="#B0D0E7"/>
<path d="M166.289 47.7496V31.9675H168.698V34.3598C169.313 33.2397 169.88 32.5018 170.398 32.1461C170.902 31.7947 171.501 31.6076 172.115 31.6104C173.094 31.6341 174.047 31.933 174.864 32.4727L173.943 34.9543C173.354 34.5857 172.676 34.385 171.981 34.374C171.412 34.3694 170.858 34.5551 170.406 34.9015C169.928 35.2723 169.579 35.7851 169.41 36.3665C169.105 37.3783 168.955 38.4305 168.966 39.4872V47.7496H166.289Z" fill="#B0D0E7"/>
<path d="M186.755 45.8026C185.909 46.5553 184.942 47.1585 183.894 47.5861C182.95 47.9381 181.95 48.1148 180.943 48.1076C179.208 48.1076 177.875 47.6842 176.946 46.8374C176.491 46.4305 176.13 45.9291 175.889 45.3684C175.647 44.8077 175.531 44.2011 175.548 43.5909C175.54 42.8513 175.722 42.122 176.076 41.4725C176.408 40.8574 176.881 40.3302 177.457 39.9345C178.048 39.5397 178.698 39.2437 179.383 39.0579C180.166 38.8727 180.961 38.7372 181.761 38.6521C183.925 38.3951 185.516 38.0874 186.531 37.7289C186.531 37.3637 186.546 37.1202 186.546 37.0309C186.546 35.942 186.293 35.1743 185.789 34.7279C185.106 34.1232 184.091 33.8209 182.745 33.8209C181.487 33.8209 180.559 34.0414 179.959 34.4824C179.36 34.9234 178.916 35.7039 178.628 36.8239L176.013 36.4668C176.188 35.4861 176.587 34.5591 177.179 33.758C177.721 33.0695 178.508 32.5392 179.541 32.1672C180.695 31.7765 181.907 31.5884 183.125 31.6112C184.477 31.6112 185.572 31.7695 186.408 32.086C187.244 32.4026 187.863 32.8016 188.266 33.2832C188.687 33.8161 188.972 34.4426 189.098 35.1094C189.21 35.9267 189.255 36.752 189.232 37.5767V41.1438C189.232 43.6301 189.289 45.2026 189.403 45.8614C189.519 46.5269 189.747 47.1678 190.078 47.7566H187.284C186.992 47.1421 186.813 46.4803 186.755 45.8026ZM186.531 39.829C185.56 40.2253 184.104 40.5635 182.163 40.8435C181.063 41.0018 180.285 41.1803 179.829 41.3792C179.399 41.5564 179.031 41.8589 178.774 42.2476C178.471 42.7235 178.349 43.2923 178.429 43.8507C178.509 44.4092 178.787 44.9203 179.213 45.2913C179.754 45.7674 180.544 46.0055 181.583 46.0055C182.542 46.0231 183.49 45.7902 184.332 45.3298C185.101 44.9141 185.719 44.2666 186.099 43.4793C186.387 42.8746 186.531 41.9832 186.531 40.805V39.829Z" fill="#B0D0E7"/>
<path d="M193.382 53.7988V31.968H195.817V34.0174C196.324 33.2786 196.989 32.6618 197.764 32.2115C198.577 31.7862 199.485 31.5766 200.402 31.6028C201.669 31.5791 202.914 31.9422 203.969 32.6437C205.024 33.3655 205.837 34.3878 206.303 35.5777C206.838 36.8962 207.106 38.3082 207.09 39.7312C207.113 41.2305 206.817 42.7176 206.222 44.0937C205.7 45.3174 204.819 46.354 203.695 47.0663C202.655 47.7355 201.446 48.0938 200.209 48.0991C199.375 48.1126 198.55 47.9181 197.809 47.533C197.135 47.1863 196.54 46.7026 196.064 46.1127V53.7968L193.382 53.7988ZM195.804 39.9463C195.804 41.9754 196.216 43.4762 197.038 44.4488C197.86 45.4214 198.856 45.9071 200.025 45.9057C201.214 45.9057 202.228 45.4025 203.068 44.3961C203.908 43.3897 204.333 41.834 204.341 39.7292C204.341 37.7191 203.927 36.2128 203.099 35.2105C202.271 34.2081 201.283 33.7083 200.134 33.711C198.994 33.711 197.986 34.2433 197.109 35.3079C196.232 36.3724 195.798 37.9186 195.804 39.9463Z" fill="#B0D0E7"/>
</g>
<defs>
<clipPath id="clip0_4588_77706">
<rect width="183.406" height="46.4353" fill="white" transform="translate(23.6781 14.2822)"/>
</clipPath>
</defs>
</svg>
