<svg width="14" height="9" viewBox="0 0 14 9" fill="none" xmlns="http://www.w3.org/2000/svg">
<path d="M7.00004 8.53654C6.8465 8.53654 6.69756 8.50775 6.55323 8.45017C6.4089 8.39259 6.28913 8.31581 6.19393 8.21985L0.896642 2.92256C0.685518 2.71143 0.579956 2.44273 0.579956 2.11645C0.579956 1.79016 0.685518 1.52146 0.896642 1.31034C1.10777 1.09921 1.37647 0.993652 1.70275 0.993652C2.02903 0.993652 2.29774 1.09921 2.50886 1.31034L7.00004 5.80152L11.4912 1.31034C11.7023 1.09921 11.9711 0.993652 12.2973 0.993652C12.6236 0.993652 12.8923 1.09921 13.1034 1.31034C13.3146 1.52146 13.4201 1.79016 13.4201 2.11645C13.4201 2.44273 13.3146 2.71143 13.1034 2.92256L7.80615 8.21985C7.69099 8.33501 7.56624 8.41677 7.43189 8.46514C7.29754 8.5135 7.15359 8.5373 7.00004 8.53654Z" fill="white"/>
</svg>
