<svg width="122" height="40" viewBox="0 0 122 40" fill="none" xmlns="http://www.w3.org/2000/svg">
<g clip-path="url(#clip0_5843_72070)">
<path d="M51.1763 8H51.4669C51.9155 8.20444 52.1398 8.47345 52.1398 8.80702C52.1478 12.2691 52.1478 15.7016 52.1398 19.1046C52.1403 19.3235 52.0583 19.5344 51.9105 19.6947C51.7626 19.855 51.56 19.9527 51.3435 19.9681C50.4317 20.0286 50.2566 19.2942 50.2566 18.5114C50.2513 15.4098 50.2539 12.3095 50.2645 9.21053C50.2645 8.53532 50.5684 8.13181 51.1763 8Z" fill="#00BCEB"/>
<path d="M71.6808 8H71.8639C72.4426 8.08877 72.7332 8.42503 72.7359 9.00877C72.7465 12.2422 72.7491 15.477 72.7438 18.7132C72.7438 19.5968 72.3974 20.2142 71.4061 19.8309C71.2469 19.7702 71.1097 19.6619 71.013 19.5206C70.9162 19.3793 70.8645 19.2116 70.8646 19.04C70.8513 15.6963 70.85 12.3525 70.8606 9.00877C70.8606 8.54608 71.134 8.20982 71.6808 8Z" fill="#00BCEB"/>
<path d="M46.1373 11.5549L46.0736 11.5551C45.5788 11.5559 45.1784 11.9631 45.1793 12.4645L45.1874 17.1452C45.1882 17.6466 45.59 18.0524 46.0848 18.0515L46.1485 18.0514C46.6432 18.0505 47.0436 17.6434 47.0427 17.1419L47.0347 12.4613C47.0338 11.9598 46.632 11.5541 46.1373 11.5549Z" fill="#00BCEB"/>
<path d="M56.407 11.5508H56.3432C55.8441 11.5508 55.4395 11.9609 55.4395 12.4667V17.1474C55.4395 17.6533 55.8441 18.0634 56.3432 18.0634H56.407C56.9061 18.0634 57.3107 17.6533 57.3107 17.1474V12.4667C57.3107 11.9609 56.9061 11.5508 56.407 11.5508Z" fill="#00BCEB"/>
<path d="M66.884 11.6435L66.5097 11.6429C66.1117 11.6422 65.7885 11.9686 65.7878 12.372L65.7794 17.2463C65.7787 17.6497 66.1008 17.9773 66.4988 17.978L66.8731 17.9786C67.2711 17.9793 67.5943 17.6529 67.595 17.2495L67.6034 12.3752C67.6041 11.9718 67.282 11.6442 66.884 11.6435Z" fill="#00BCEB"/>
<path d="M77.0902 11.6231L76.8672 11.6235C76.4098 11.6243 76.0397 12.0008 76.0405 12.4643L76.0486 17.1531C76.0494 17.6166 76.4208 17.9917 76.8782 17.9909L77.1011 17.9905C77.5585 17.9897 77.9286 17.6133 77.9278 17.1497L77.9198 12.461C77.919 11.9974 77.5475 11.6223 77.0902 11.6231Z" fill="#00BCEB"/>
<path d="M40 17.2486V14.9446C40.1964 14.2801 40.6755 14.0676 41.4373 14.307C41.4987 14.327 41.5544 14.3617 41.5995 14.4081C41.6446 14.4545 41.6777 14.5112 41.6961 14.5734C41.9151 15.3037 42.2217 17.4867 41.282 17.9709C40.7047 18.2655 40.1911 17.7812 40 17.2486Z" fill="#00BCEB"/>
<path d="M61.5792 14.2335L61.4677 14.2344C60.9839 14.2387 60.5952 14.6396 60.5994 15.1299L60.6169 17.1554C60.6211 17.6457 61.0167 18.0396 61.5004 18.0353L61.6119 18.0344C62.0956 18.0301 62.4844 17.6292 62.4801 17.1389L62.4627 15.1134C62.4585 14.6231 62.0629 14.2292 61.5792 14.2335Z" fill="#00BCEB"/>
<path d="M83.0007 14.7835V17.3901C82.3769 18.3289 81.8062 18.2482 81.2886 17.148C81.2362 17.0392 81.2089 16.9191 81.209 16.797V14.8682C81.209 14.7386 81.2511 14.6127 81.3288 14.5098C81.4065 14.407 81.5156 14.333 81.639 14.2992C82.2707 14.1217 82.7246 14.2831 83.0007 14.7835Z" fill="#00BCEB"/>
<path d="M48.7987 30.9997H47.6799C41.7594 30.0999 43.133 21.9288 49.3282 23.3451C49.4795 23.3774 49.5552 23.4729 49.5552 23.6316V25.2457C49.5556 25.2748 49.5485 25.3036 49.5347 25.3292C49.5209 25.3548 49.5008 25.3763 49.4764 25.3917C49.452 25.4071 49.424 25.4159 49.3953 25.4172C49.3665 25.4185 49.338 25.4122 49.3123 25.399C45.2154 23.325 44.4748 30.4469 49.2924 28.7764C49.4065 28.7387 49.4756 28.7791 49.4994 28.8974C49.7596 30.2613 49.526 30.962 48.7987 30.9997Z" fill="#00BCEB"/>
<path d="M59.0747 31.0003H58.2027L56.8689 30.8752C56.8011 30.8683 56.7383 30.8367 56.6927 30.7868C56.6471 30.7368 56.6219 30.672 56.6221 30.6049V29.3581C56.6221 29.2585 56.6725 29.2101 56.7734 29.2128L59.1543 29.2854C59.2758 29.2893 59.3954 29.2546 59.4964 29.186C59.5973 29.1175 59.6745 29.0186 59.7172 28.9032C59.7598 28.7879 59.7657 28.6619 59.734 28.543C59.7023 28.4241 59.6346 28.3182 59.5405 28.2403C58.8796 27.6956 57.4423 27.4938 56.9486 26.711C56.0926 25.3674 56.8013 23.717 58.2426 23.2651C59.0362 23.0176 59.9519 23.0445 60.9898 23.3458C61.1305 23.3888 61.2008 23.4843 61.2008 23.6323V24.7217C61.2008 24.8805 61.1251 24.9383 60.9738 24.8952C60.3421 24.7177 59.6865 24.6935 59.007 24.8226C58.8652 24.8519 58.7382 24.9308 58.6479 25.0454C58.5577 25.1601 58.5101 25.3032 58.5134 25.4498C58.5168 25.5964 58.5708 25.7371 58.6661 25.8474C58.7614 25.9577 58.8919 26.0306 59.0349 26.0533C62.6819 26.59 62.5426 30.3789 59.0747 31.0003Z" fill="#00BCEB"/>
<path d="M68.6154 31H67.3851C61.4845 30.1567 62.8143 21.8888 69.0493 23.3657C69.1927 23.4006 69.2643 23.4921 69.2643 23.64V25.2541C69.2648 25.2828 69.2579 25.3111 69.2443 25.3362C69.2307 25.3614 69.2109 25.3825 69.1868 25.3976C69.1627 25.4127 69.1352 25.4211 69.1069 25.4221C69.0786 25.4231 69.0505 25.4167 69.0254 25.4034C65.1475 23.4423 63.9092 30.1164 68.9976 28.7928C69.1197 28.7606 69.1927 28.8076 69.2166 28.9341C69.4369 30.2092 69.2365 30.8978 68.6154 31Z" fill="#00BCEB"/>
<path d="M75.6937 31.0005H74.5351C68.5151 29.2573 71.744 21.0177 77.0474 23.7172C80.6267 25.537 79.3765 30.0724 75.6937 31.0005ZM77.119 27.034C77.119 26.7791 77.0695 26.5267 76.9733 26.2913C76.877 26.0558 76.736 25.8418 76.5581 25.6616C76.3803 25.4814 76.1692 25.3384 75.9368 25.2409C75.7045 25.1433 75.4554 25.0931 75.204 25.0931C74.9525 25.0931 74.7034 25.1433 74.4711 25.2409C74.2387 25.3384 74.0276 25.4814 73.8498 25.6616C73.6719 25.8418 73.5309 26.0558 73.4346 26.2913C73.3384 26.5267 73.2889 26.7791 73.2889 27.034C73.2889 27.5487 73.4906 28.0424 73.8498 28.4064C74.2089 28.7704 74.696 28.9749 75.204 28.9749C75.7119 28.9749 76.199 28.7704 76.5581 28.4064C76.9173 28.0424 77.119 27.5487 77.119 27.034Z" fill="#00BCEB"/>
<path d="M53.9122 23.2324H52.2719C52.2037 23.2324 52.1484 23.2884 52.1484 23.3575V30.6691C52.1484 30.7382 52.2037 30.7942 52.2719 30.7942H53.9122C53.9804 30.7942 54.0357 30.7382 54.0357 30.6691V23.3575C54.0357 23.2884 53.9804 23.2324 53.9122 23.2324Z" fill="#00BCEB"/>
</g>
<defs>
<clipPath id="clip0_5843_72070">
<rect width="43" height="23" fill="white" transform="translate(40 8)"/>
</clipPath>
</defs>
</svg>
