<svg width="25" height="25" viewBox="0 0 25 25" fill="none" xmlns="http://www.w3.org/2000/svg">
<g clip-path="url(#clip0_1303_23526)">
<path d="M12.5713 2.71875C18.0943 2.71875 22.143 6.82148 22.143 12.3445C22.143 17.8675 18.0943 22.165 12.5713 22.165C7.04832 22.165 2.94128 17.8675 2.94128 12.3445C2.94128 6.82148 7.04832 2.71875 12.5713 2.71875ZM12.5713 4.34448C10.4496 4.34448 8.41475 5.18734 6.91446 6.68763C5.41417 8.18792 4.57132 10.2228 4.57132 12.3445C4.57132 14.4662 5.41417 16.501 6.91446 18.0013C8.41475 19.5016 10.4496 20.3445 12.5713 20.3445C14.693 20.3445 16.7279 19.5016 18.2282 18.0013C19.7285 16.501 20.5713 14.4662 20.5713 12.3445C20.5713 10.2228 19.7285 8.18792 18.2282 6.68763C16.7279 5.18734 14.693 4.34448 12.5713 4.34448ZM12.5713 6.34448C12.8162 6.34451 13.0527 6.43444 13.2357 6.5972C13.4187 6.75996 13.5357 6.98423 13.5643 7.22748L13.5713 7.34448V11.9305L16.2783 14.6375C16.4577 14.8174 16.5618 15.0589 16.5695 15.3129C16.5773 15.5668 16.4881 15.8142 16.3201 16.0048C16.152 16.1953 15.9178 16.3148 15.6648 16.3389C15.4119 16.363 15.1593 16.2899 14.9583 16.1345L14.8643 16.0515L11.8643 13.0515C11.7089 12.8959 11.6091 12.6935 11.5803 12.4755L11.5713 12.3445V7.34448C11.5713 7.07927 11.6767 6.82491 11.8642 6.63738C12.0517 6.44984 12.3061 6.34448 12.5713 6.34448Z" fill="#005BAA"/>
</g>
<defs>
<clipPath id="clip0_1303_23526">
<rect width="24" height="24" fill="white" transform="translate(0.571655 0.344727)"/>
</clipPath>
</defs>
</svg>
