<svg width="60" height="60" viewBox="0 0 60 60" fill="none" xmlns="http://www.w3.org/2000/svg">
<g clip-path="url(#clip0_4901_8139)">
<path d="M47.3734 36.9605C46.196 34.5057 41.9837 31.0984 37.9141 27.8061C35.6442 25.9712 33.4993 24.2363 32.132 22.869C31.7894 22.524 31.277 22.4139 30.8246 22.5765C29.9822 22.8815 29.4621 23.1164 29.0522 23.2989C28.4273 23.5788 28.2173 23.6739 27.3748 23.7588C27.1914 23.7769 27.0142 23.8354 26.856 23.9301C26.6978 24.0247 26.5625 24.1532 26.4599 24.3063C24.6924 26.9486 22.8626 26.7236 21.6401 26.3137C21.2502 26.1837 21.1802 26.0162 21.1427 25.8562C20.8802 24.7588 22.1977 22.204 23.905 20.4965C27.9673 16.4318 30.0621 15.4143 34.4868 17.3917C39.5064 19.6366 44.5361 21.394 44.5862 21.4115C44.7413 21.4658 44.9056 21.4889 45.0696 21.4796C45.2337 21.4703 45.3943 21.4287 45.5422 21.3571C45.6902 21.2856 45.8225 21.1855 45.9317 21.0627C46.0409 20.9399 46.1248 20.7968 46.1785 20.6415C46.4035 19.989 46.061 19.2766 45.4086 19.0491C45.3585 19.0317 40.4289 17.3092 35.5092 15.1068C29.7771 12.5445 26.6322 14.2319 22.14 18.7266C20.4301 20.4365 18.1078 23.8963 18.7077 26.4337C18.9652 27.5136 19.7252 28.3136 20.855 28.686C23.6874 29.621 26.2721 28.726 28.1971 26.1712C28.992 26.0488 29.4245 25.8688 30.0744 25.5763C30.3636 25.4457 30.6553 25.3206 30.9494 25.2013C32.3793 26.5437 34.3092 28.1061 36.3415 29.7485C40.0163 32.7207 44.1836 36.0906 45.121 38.0405C45.5835 39.0029 45.086 39.6304 44.7485 39.9178C44.2535 40.3428 43.5761 40.4778 43.2086 40.2202C42.8036 39.9428 42.2762 39.9253 41.8587 40.1753C41.6532 40.2977 41.4872 40.4766 41.3804 40.6906C41.2736 40.9047 41.2305 41.1449 41.2563 41.3827C41.3412 42.1776 40.6138 42.6326 40.2988 42.7901C39.4988 43.1951 38.6639 43.1251 38.3514 42.8351C38.0014 42.5102 37.4989 42.4151 37.054 42.5801C36.609 42.7476 36.299 43.1576 36.254 43.6325C36.179 44.4524 35.5715 45.2399 34.779 45.5474C34.3966 45.6923 33.8416 45.7799 33.3442 45.3248C33.1916 45.1874 33.0079 45.0891 32.8088 45.0386C32.6098 44.9881 32.4014 44.9868 32.2018 45.0348C32.002 45.0836 31.8173 45.181 31.6642 45.3184C31.5111 45.4558 31.3944 45.6289 31.3244 45.8223C31.2769 45.9473 31.1693 46.2473 29.9994 46.2473C29.167 46.2473 27.6695 45.6848 26.9371 45.1998C26.0597 44.6223 20.5575 40.5177 15.8054 36.5379C15.1379 35.9754 13.983 34.7704 12.9631 33.7055C12.0581 32.7606 11.2307 31.9032 10.8057 31.5432C10.2732 31.0932 9.48578 31.1607 9.0433 31.6907C8.59837 32.2182 8.66329 33.0082 9.19083 33.4531C9.57835 33.7806 10.3283 34.573 11.1557 35.4354C12.2707 36.6003 13.423 37.8053 14.198 38.4553C18.8528 42.3526 24.4474 46.5598 25.5623 47.2922C26.4822 47.8972 28.4646 48.7471 29.9995 48.7471C31.2319 48.7471 32.1794 48.4646 32.8368 47.9122C33.7167 48.2547 34.7167 48.2572 35.6791 47.8822C36.8166 47.4422 37.7514 46.5548 38.2814 45.4799C39.2663 45.6899 40.3938 45.5423 41.4187 45.0274C42.4212 44.5225 43.146 43.7501 43.506 42.8475C44.501 42.9 45.5258 42.5476 46.3733 41.8201C47.8084 40.5928 48.2033 38.683 47.3734 36.9605Z" fill="white"/>
<path d="M25.0031 16.2495H13.7539C13.0639 16.2495 12.5039 16.8095 12.5039 17.4994C12.5039 18.1894 13.0639 18.7494 13.7539 18.7494H25.0031C25.6931 18.7494 26.2531 18.1894 26.2531 17.4994C26.2531 16.8095 25.6931 16.2495 25.0031 16.2495ZM51.039 34.3008C50.6515 33.7284 49.8766 33.5709 49.3041 33.9608L45.6494 36.4156C45.077 36.8006 44.9244 37.5781 45.3095 38.1505C45.4244 38.3206 45.5794 38.4599 45.7607 38.5562C45.942 38.6525 46.1441 38.7029 46.3494 38.703C46.587 38.703 46.8294 38.6355 47.0444 38.4905L50.6992 36.0357C51.2715 35.6507 51.4239 34.8733 51.039 34.3008ZM43.2794 40.2655C42.3845 39.5605 38.3823 35.4633 35.9074 32.8835C35.4299 32.3835 34.6375 32.366 34.14 32.846C33.64 33.3235 33.625 34.1159 34.1025 34.6134C34.745 35.2833 40.4121 41.1905 41.7295 42.2305C41.9495 42.404 42.2217 42.4983 42.502 42.498C42.8694 42.498 43.2369 42.333 43.4869 42.0205C43.9144 41.4804 43.822 40.6929 43.2794 40.2655ZM38.2848 42.7728C36.7873 41.5753 33.0251 37.5781 32.1751 36.6532C31.7051 36.1432 30.9177 36.1132 30.4077 36.5782C29.9002 37.0456 29.8653 37.8381 30.3327 38.3456C30.3777 38.3931 34.8674 43.2403 36.7223 44.7252C36.9441 44.9014 37.219 44.9974 37.5022 44.9977C37.8673 44.9977 38.2322 44.8351 38.4796 44.5302C38.9098 43.9901 38.8223 43.2027 38.2848 42.7728ZM33.3101 45.2901C31.5277 43.7878 27.8805 39.9055 27.168 39.143C26.6956 38.6381 25.9031 38.6105 25.4006 39.083C24.8957 39.5555 24.8706 40.3454 25.3406 40.8504C26.3656 41.9478 29.8553 45.6477 31.6977 47.2025C31.9227 47.3929 32.2079 47.4974 32.5026 47.4975C32.8576 47.4975 33.2126 47.345 33.4601 47.0525C33.9051 46.5225 33.8376 45.7351 33.3101 45.2901Z" fill="white"/>
<path d="M14.609 14.0922C12.4666 12.0623 3.89975 11.4048 1.32495 11.2524C0.970015 11.2349 0.642497 11.3523 0.392553 11.5898C0.268523 11.7067 0.169714 11.8477 0.102206 12.0042C0.034697 12.1607 -8.45857e-05 12.3293 1.5447e-07 12.4998V34.9983C1.5447e-07 35.6882 0.560003 36.2482 1.24996 36.2482H8.74947C9.28943 36.2482 9.7694 35.9008 9.93685 35.3858C10.1193 34.8258 14.4266 21.6067 14.994 15.1071C15.0266 14.7271 14.8865 14.3521 14.609 14.0922ZM7.83699 33.7484H2.4998V13.8397C6.51708 14.1571 10.8518 14.8471 12.4267 15.612C11.7643 21.0867 8.76693 30.8136 7.83699 33.7484ZM58.7461 13.7497C48.9317 13.7497 43.4871 16.262 43.2596 16.367C42.9347 16.5195 42.6921 16.802 42.5922 17.1445C42.4922 17.487 42.5422 17.8545 42.7296 18.1594C44.2745 20.6468 49.1117 34.4609 50.0417 37.8306C50.1144 38.0944 50.2717 38.3269 50.4893 38.4927C50.707 38.6584 50.9731 38.7481 51.2466 38.748H58.7461C59.4361 38.748 59.9961 38.188 59.9961 37.4981V14.9995C59.9962 14.8354 59.964 14.6728 59.9012 14.5211C59.8385 14.3694 59.7464 14.2315 59.6303 14.1154C59.5142 13.9993 59.3763 13.9073 59.2246 13.8445C59.0729 13.7818 58.9103 13.7496 58.7461 13.7497ZM57.4963 36.2482H52.1816C50.9967 32.3885 47.4969 22.3241 45.5445 18.1645C47.4519 17.517 51.5492 16.4045 57.4963 16.2646V36.2482Z" fill="white"/>
</g>
<defs>
<clipPath id="clip0_4901_8139">
<rect width="59.9961" height="59.9961" fill="white" transform="translate(0 0.000976562)"/>
</clipPath>
</defs>
</svg>
