<svg width="60" height="60" viewBox="0 0 60 60" fill="none" xmlns="http://www.w3.org/2000/svg">
<g clip-path="url(#clip0_4801_16258)">
<path d="M56.7563 4.21777H3.24374C2.81211 4.22019 2.38526 4.30823 1.98789 4.4768C1.59053 4.64537 1.23056 4.89112 0.928857 5.1998C0.627151 5.50848 0.389697 5.87397 0.230253 6.27508C0.0708083 6.67619 -0.00745119 7.10495 -2.3843e-06 7.53652V52.5365C0.0049191 53.3953 0.348265 54.2175 0.955522 54.8248C1.56278 55.432 2.38496 55.7754 3.24374 55.7803H56.7563C57.615 55.7754 58.4372 55.432 59.0445 54.8248C59.6517 54.2175 59.9951 53.3953 60 52.5365V7.53652C60.0074 7.10495 59.9292 6.67619 59.7697 6.27508C59.6103 5.87397 59.3728 5.50848 59.0711 5.1998C58.7694 4.89112 58.4095 4.64537 58.0121 4.4768C57.6147 4.30823 57.1879 4.22019 56.7563 4.21777ZM58.125 52.5365C58.125 52.7163 58.0896 52.8943 58.0208 53.0603C57.952 53.2264 57.8512 53.3773 57.7241 53.5044C57.597 53.6315 57.4461 53.7323 57.2801 53.8011C57.114 53.8699 56.936 53.9053 56.7563 53.9053H3.24374C3.06399 53.9053 2.88601 53.8699 2.71994 53.8011C2.55388 53.7323 2.40298 53.6315 2.27588 53.5044C2.14878 53.3773 2.04798 53.2264 1.9792 53.0603C1.91041 52.8943 1.875 52.7163 1.875 52.5365V7.53652C1.875 7.17351 2.01919 6.82536 2.27588 6.56867C2.53257 6.31198 2.88072 6.16778 3.24374 6.16778H56.7563C57.1193 6.16778 57.4674 6.31198 57.7241 6.56867C57.9808 6.82536 58.125 7.17351 58.125 7.53652V52.5365Z" fill="white"/>
<path d="M5.2124 11.1364C5.8855 11.1364 6.43115 10.5907 6.43115 9.9176C6.43115 9.24451 5.8855 8.69885 5.2124 8.69885C4.53931 8.69885 3.99365 9.24451 3.99365 9.9176C3.99365 10.5907 4.53931 11.1364 5.2124 11.1364Z" fill="white"/>
<path d="M8.9624 11.1364C9.6355 11.1364 10.1812 10.5907 10.1812 9.9176C10.1812 9.24451 9.6355 8.69885 8.9624 8.69885C8.28931 8.69885 7.74365 9.24451 7.74365 9.9176C7.74365 10.5907 8.28931 11.1364 8.9624 11.1364Z" fill="white"/>
<path d="M12.7124 11.1364C13.3855 11.1364 13.9312 10.5907 13.9312 9.9176C13.9312 9.24451 13.3855 8.69885 12.7124 8.69885C12.0393 8.69885 11.4937 9.24451 11.4937 9.9176C11.4937 10.5907 12.0393 11.1364 12.7124 11.1364Z" fill="white"/>
<path d="M59.0625 12.5239H0.9375V14.3989H59.0625V12.5239Z" fill="white"/>
<path d="M40.369 31.7713C40.3698 31.887 40.3449 32.0014 40.2963 32.1064C40.2476 32.2114 40.1763 32.3044 40.0876 32.3786L34.1621 37.193C34.0257 37.2967 33.8595 37.3538 33.6881 37.356C33.5785 37.3543 33.4705 37.3297 33.371 37.2838C33.2715 37.2379 33.1827 37.1716 33.1104 37.0893C32.9928 36.9317 32.9351 36.7375 32.9474 36.5412C32.9753 36.3475 33.0695 36.1695 33.2141 36.0376L38.4136 31.8157L33.2585 27.9346C33.1046 27.8144 33.0032 27.6392 32.9756 27.4459C32.9479 27.2526 32.9963 27.0561 33.1104 26.8976C33.2306 26.7437 33.4057 26.6423 33.599 26.6147C33.7923 26.587 33.9889 26.6354 34.1473 26.7495L40.0728 31.1935C40.1636 31.2602 40.2376 31.3471 40.2891 31.4474C40.3405 31.5477 40.3679 31.6586 40.369 31.7713Z" fill="white"/>
<g clip-path="url(#clip1_4801_16258)">
<path d="M27.0372 36.5409C27.0495 36.7372 26.9918 36.9314 26.8742 37.089C26.8019 37.1714 26.7131 37.2376 26.6136 37.2835C26.5141 37.3294 26.4061 37.354 26.2965 37.3557C26.1292 37.3559 25.967 37.2984 25.8373 37.1927L19.9118 32.3783C19.8231 32.3041 19.7518 32.2112 19.7031 32.1062C19.6545 32.0012 19.6296 31.8867 19.6304 31.771C19.6352 31.6533 19.6656 31.538 19.7193 31.4332C19.773 31.3283 19.8488 31.2364 19.9415 31.1636L25.8669 26.7196C26.0259 26.6061 26.2204 26.5535 26.415 26.5714C26.512 26.586 26.6052 26.6197 26.6892 26.6705C26.7731 26.7214 26.846 26.7884 26.9038 26.8677C27.018 27.0262 27.0663 27.2227 27.0386 27.416C27.011 27.6093 26.9096 27.7845 26.7557 27.9047L21.5858 31.7858L26.7853 36.0077C26.9306 36.1494 27.02 36.3387 27.0372 36.5409Z" fill="white"/>
</g>
<g clip-path="url(#clip2_4801_16258)">
<path d="M32.9623 24.5867L28.5183 40.2149C28.4734 40.3688 28.3799 40.5039 28.2516 40.6001C28.1234 40.6962 27.9675 40.7482 27.8072 40.7482C27.7389 40.7626 27.6682 40.7626 27.5998 40.7482C27.4118 40.6962 27.252 40.5722 27.1549 40.403C27.0578 40.2338 27.0314 40.0331 27.0814 39.8446L31.5254 24.2015C31.5525 24.1076 31.5978 24.0201 31.6588 23.9438C31.7198 23.8675 31.7953 23.8041 31.881 23.7571C32.0613 23.683 32.2635 23.683 32.4439 23.7571C32.6163 23.8087 32.7641 23.9214 32.8595 24.0741C32.955 24.2268 32.9915 24.409 32.9623 24.5867Z" fill="white"/>
</g>
</g>
<defs>
<clipPath id="clip0_4801_16258">
<rect width="60" height="60" fill="white" transform="translate(0 -0.000976562)"/>
</clipPath>
<clipPath id="clip1_4801_16258">
<rect width="7.41587" height="10.7877" fill="white" transform="translate(19.6304 26.568)"/>
</clipPath>
<clipPath id="clip2_4801_16258">
<rect width="5.91548" height="17.0575" fill="white" transform="translate(27.0566 23.7015)"/>
</clipPath>
</defs>
</svg>
