<svg width="61" height="54" viewBox="0 0 61 54" fill="none" xmlns="http://www.w3.org/2000/svg">
<path d="M12.9551 19.4341L13.8814 2.07064L30.5896 0.303711L48.224 19.4341L30.5896 53.9505L12.9551 19.4341Z" fill="white"/>
<path d="M30.5896 53.9505L0.947266 19.4341H12.9551L30.5896 53.9505Z" fill="white"/>
<path d="M30.5896 53.9505L48.224 19.4341L30.5896 0.303711L47.2981 2.07064L48.224 19.4341H60.2316L30.5896 53.9505Z" fill="white"/>
<path d="M60.2316 19.4341L48.2251 19.4339L47.2981 2.07064L60.2316 19.4341Z" fill="white"/>
<path d="M0.947266 19.4341H12.9551L13.8814 2.07064L0.947266 19.4341Z" fill="white"/>
<path d="M0.947266 19.4341L30.589 53.9505L12.9545 19.4341H0.947266Z" fill="#B0D0E7"/>
<path d="M48.2244 19.4341L30.5898 53.9505L60.2316 19.4341H48.2244Z" fill="#B0D0E7"/>
<path d="M12.9551 19.4341L30.5896 53.9505L48.2241 19.4341H12.9551Z" fill="#D9E8F4"/>
<path d="M13.8814 2.07064L12.9551 19.4342L30.5896 0.303711L13.8814 2.07064Z" fill="#D9E8F4"/>
<path d="M48.2244 19.4342L47.2981 2.07064L30.5898 0.303711L48.2244 19.4342Z" fill="#D9E8F4"/>
<path d="M48.2251 19.4339H60.2324L47.2988 2.07031L48.2251 19.4339Z" fill="#B0D0E7"/>
<path d="M0.947266 19.4339H12.9545L13.8808 2.07031L0.947266 19.4339Z" fill="#B0D0E7"/>
<path d="M30.5896 0.303711L12.9551 19.4342H48.2241L30.5896 0.303711Z" fill="white"/>
</svg>
