<svg width="60" height="60" viewBox="0 0 60 60" fill="none" xmlns="http://www.w3.org/2000/svg">
<g clip-path="url(#clip0_1309_37422)">
<g clip-path="url(#clip1_1309_37422)">
<path d="M41.9008 8.11272H21.009C20.7497 8.10768 20.5025 8.00241 20.3191 7.81903C20.1357 7.63565 20.0304 7.38841 20.0254 7.12911C20.0254 6.86825 20.129 6.61805 20.3134 6.43358C20.4979 6.24912 20.7481 6.14551 21.009 6.14551H41.9008C42.1617 6.14551 42.4119 6.24912 42.5963 6.43358C42.7808 6.61805 42.8844 6.86825 42.8844 7.12911C42.8844 7.38998 42.7808 7.64015 42.5963 7.82462C42.4119 8.00908 42.1617 8.11272 41.9008 8.11272Z" fill="white"/>
<path d="M50.4391 16.3552H20.9309C20.6716 16.3501 20.4242 16.2449 20.2408 16.0615C20.0575 15.8781 19.9523 15.6308 19.9473 15.3715C19.9473 15.1107 20.0508 14.8605 20.2353 14.676C20.4198 14.4916 20.67 14.3879 20.9309 14.3879H50.4391C50.6999 14.3879 50.9501 14.4916 51.1345 14.676C51.319 14.8605 51.4227 15.1107 51.4227 15.3715C51.4176 15.6308 51.3124 15.8781 51.129 16.0615C50.9456 16.2449 50.6984 16.3501 50.4391 16.3552Z" fill="white"/>
<path d="M50.4377 24.5781H36.6672C36.4063 24.5781 36.1561 24.4744 35.9716 24.2899C35.7872 24.1055 35.6836 23.8553 35.6836 23.5944C35.6836 23.3336 35.7872 23.0834 35.9716 22.8989C36.1561 22.7145 36.4063 22.6108 36.6672 22.6108H50.4377C50.697 22.6159 50.9442 22.7211 51.1276 22.9045C51.311 23.0879 51.4163 23.3352 51.4213 23.5944C51.4213 23.8553 51.3176 24.1055 51.1331 24.2899C50.9487 24.4744 50.6986 24.5781 50.4377 24.5781Z" fill="white"/>
<path d="M50.4388 32.8207H40.6027C40.3419 32.8207 40.0916 32.7171 39.9072 32.5326C39.7227 32.3482 39.6191 32.098 39.6191 31.8371C39.6242 31.5778 39.7293 31.3306 39.9127 31.1472C40.0961 30.9638 40.3435 30.8586 40.6027 30.8535H50.4388C50.6981 30.8586 50.9453 30.9638 51.1287 31.1472C51.3121 31.3306 51.4174 31.5778 51.4224 31.8371C51.4224 32.098 51.3187 32.3482 51.1343 32.5326C50.9498 32.7171 50.6997 32.8207 50.4388 32.8207Z" fill="white"/>
<path d="M50.4406 40.7682H41.2143C40.9535 40.7682 40.7032 40.6646 40.5188 40.4802C40.3343 40.2957 40.2307 40.0455 40.2307 39.7846C40.2307 39.5238 40.3343 39.2736 40.5188 39.0891C40.7032 38.9047 40.9535 38.801 41.2143 38.801H50.4406C50.7014 38.801 50.9515 38.9047 51.136 39.0891C51.3205 39.2736 51.4242 39.5238 51.4242 39.7846C51.4242 40.0455 51.3205 40.2957 51.136 40.4802C50.9515 40.6646 50.7014 40.7682 50.4406 40.7682Z" fill="white"/>
<path d="M50.4411 48.7157H38.382C38.1212 48.7157 37.8709 48.6121 37.6865 48.4276C37.502 48.2432 37.3984 47.993 37.3984 47.7321C37.3984 47.4713 37.502 47.2211 37.6865 47.0366C37.8709 46.8521 38.1212 46.7485 38.382 46.7485H50.4411C50.7019 46.7485 50.952 46.8521 51.1365 47.0366C51.321 47.2211 51.4247 47.4713 51.4247 47.7321C51.4196 47.9914 51.3144 48.2387 51.131 48.4221C50.9476 48.6054 50.7004 48.7107 50.4411 48.7157Z" fill="white"/>
<path d="M55.0623 12.5191L44.0262 1.46335C43.1473 0.59182 41.9591 0.103781 40.7213 0.105964H18.9049C17.6684 0.105964 16.4825 0.597161 15.6082 1.47151C14.7338 2.34586 14.2426 3.53173 14.2426 4.76825V24.6961C12.7014 25.9885 11.4344 27.5762 10.5165 29.3659C9.59857 31.1556 9.0483 33.1109 8.89797 35.1166C8.74763 37.1223 9.00031 39.1379 9.64119 41.0444C10.2821 42.9509 11.2981 44.7098 12.6295 46.2174L11.6853 47.1617L11.5672 47.0437C11.1986 46.6773 10.7 46.4716 10.1803 46.4716C9.66059 46.4716 9.16197 46.6773 8.79339 47.0437L0.59014 55.2469C0.404262 55.4291 0.256434 55.6464 0.155129 55.8862C0.0538245 56.1259 0.00108049 56.3834 0 56.6437C0.00108049 56.904 0.0538245 57.1614 0.155129 57.4012C0.256434 57.6409 0.404262 57.8582 0.59014 58.0404L2.18358 59.6338C2.55216 60.0002 3.05079 60.2059 3.5705 60.2059C4.09021 60.2059 4.58883 60.0002 4.95742 59.6338L13.1607 51.4305C13.343 51.2467 13.4872 51.0287 13.5851 50.789C13.683 50.5494 13.7326 50.2927 13.7311 50.0338C13.7326 49.7749 13.683 49.5183 13.5851 49.2786C13.4872 49.0389 13.343 48.8209 13.1607 48.6371L14.1049 47.6929C14.1672 47.7685 14.2401 47.8347 14.3212 47.8896V50.7027C14.3212 51.9392 14.8124 53.1251 15.6868 53.9994C16.5611 54.8738 17.747 55.365 18.9835 55.365H51.8557C53.0906 55.3598 54.2735 54.8669 55.1467 53.9937C56.0199 53.1205 56.5128 51.9376 56.518 50.7027V15.8043C56.4869 14.5597 55.9634 13.3782 55.0623 12.5191ZM3.56065 58.1388L1.96721 56.5453L10.1705 48.342L11.7639 49.9355L3.56065 58.1388ZM14.2426 44.9584C12.011 42.5506 10.7712 39.3889 10.7712 36.106C10.7712 32.8231 12.011 29.6613 14.2426 27.2535C14.8209 26.5769 15.4818 25.9755 16.2098 25.4633C18.1679 24.0261 20.4859 23.1596 22.9067 22.9602C25.3274 22.7607 27.7561 23.2361 29.923 24.3335C32.0899 25.431 33.9102 27.1075 35.1818 29.177C36.4535 31.2464 37.1267 33.6278 37.1267 36.0568C37.1267 38.4857 36.4535 40.8671 35.1818 42.9366C33.9102 45.006 32.0899 46.6826 29.923 47.78C27.7561 48.8775 25.3274 49.3528 22.9067 49.1534C20.4859 48.954 18.1679 48.0875 16.2098 46.6502C15.4875 46.1686 14.8269 45.6005 14.2426 44.9584ZM54.4721 50.5256C54.467 51.2388 54.1814 51.9213 53.677 52.4257C53.1727 52.93 52.4903 53.2156 51.7771 53.2207H18.9049C18.1901 53.2207 17.5046 52.9368 16.9992 52.4314C16.4937 51.9259 16.2098 51.2404 16.2098 50.5256V49.1093C18.5024 50.4852 21.119 51.2281 23.7925 51.2621C26.4661 51.2961 29.1008 50.62 31.4276 49.3028C33.7544 47.9856 35.69 46.0745 37.0367 43.7646C38.3833 41.4548 39.093 38.8289 39.093 36.1551C39.093 33.4814 38.3833 30.8555 37.0367 28.5456C35.69 26.2358 33.7544 24.3247 31.4276 23.0075C29.1008 21.6903 26.4661 21.0142 23.7925 21.0482C21.119 21.0822 18.5024 21.8251 16.2098 23.2011V4.76825C16.2098 4.05347 16.4937 3.36797 16.9992 2.86254C17.5046 2.35712 18.1901 2.07318 18.9049 2.07318H40.7213C41.0857 2.06231 41.4483 2.12658 41.7867 2.26196C42.1252 2.39733 42.4322 2.60091 42.6885 2.86005L53.7246 13.8961C53.9845 14.1529 54.1898 14.4595 54.3284 14.7975C54.467 15.1355 54.5359 15.498 54.5311 15.8633L54.4721 50.5256Z" fill="white"/>
<path d="M21.2432 40.7681C21.1106 40.7572 20.9822 40.7164 20.8676 40.6488C20.753 40.5812 20.6552 40.4886 20.5814 40.3779L16.4243 36.0116C16.3015 35.8246 16.2576 35.5966 16.3021 35.3773C16.3466 35.158 16.4759 34.9652 16.6619 34.8408C16.8516 34.7171 17.0821 34.6727 17.3042 34.7171C17.5262 34.7616 17.7221 34.8912 17.8496 35.0784L21.3619 38.5114L29.5233 31.0231C29.677 30.8844 29.8762 30.8068 30.0832 30.8047C30.2902 30.8027 30.4909 30.8764 30.6473 31.012C30.8037 31.1475 30.9051 31.3356 30.9325 31.5408C30.9599 31.746 30.9113 31.9541 30.7959 32.126L21.8879 40.3948C21.815 40.5012 21.7193 40.5898 21.6077 40.6544C21.4962 40.719 21.3717 40.7579 21.2432 40.7681Z" fill="white"/>
</g>
</g>
<defs>
<clipPath id="clip0_1309_37422">
<rect width="60" height="60" fill="white"/>
</clipPath>
<clipPath id="clip1_1309_37422">
<rect width="56.4393" height="60" fill="white" transform="translate(0 0.105957)"/>
</clipPath>
</defs>
</svg>
