<svg width="38" height="50" viewBox="0 0 38 50" fill="none" xmlns="http://www.w3.org/2000/svg">
<g clip-path="url(#clip0_2901_674)">
<path d="M0.939453 1.74707H37.0851" stroke="#232323" stroke-width="1.5" stroke-linecap="round" stroke-linejoin="round"/>
<path d="M0.939453 48.9951H37.0851" stroke="#232323" stroke-width="1.5" stroke-linecap="round" stroke-linejoin="round"/>
<path d="M31.1779 1.74707C31.1779 1.74707 34.743 12.4855 23.618 20.5394C22.894 21.036 22.304 21.704 21.9005 22.4838C21.497 23.2636 21.2925 24.131 21.3052 25.0089C21.318 25.8868 21.5475 26.7479 21.9735 27.5157C22.3995 28.2834 23.0087 28.9339 23.7468 29.4093L23.8972 29.5167C29.1161 32.5664 31.1779 38.7303 31.1779 48.9963" stroke="#232323" stroke-width="1.5" stroke-linecap="round" stroke-linejoin="round"/>
<path d="M6.82056 1.74707C6.82056 1.74707 3.25542 12.4855 14.359 20.5394C15.0899 21.0255 15.6893 21.6848 16.104 22.4585C16.5186 23.2323 16.7357 24.0965 16.7357 24.9744C16.7357 25.8522 16.5186 26.7164 16.104 27.4902C15.6893 28.2639 15.0899 28.9232 14.359 29.4093L14.1871 29.5167C8.96824 32.5664 6.92792 38.7303 6.92792 48.9963" stroke="#232323" stroke-width="1.5" stroke-linecap="round" stroke-linejoin="round"/>
<path d="M27.3746 43.0896L27.3746 43.0927C27.3789 44.1224 27.1878 45.1421 26.8131 46.0981H11.1807C10.806 45.1421 10.6149 44.1224 10.6192 43.0927V43.0896C10.6192 40.8677 11.5019 38.7368 13.073 37.1657C14.6441 35.5946 16.775 34.7119 18.9969 34.7119C21.2188 34.7119 23.3498 35.5946 24.9209 37.1657C26.492 38.7368 27.3746 40.8677 27.3746 43.0896Z" stroke="#005BAA" stroke-width="1.5"/>
<path d="M12.0371 10.7032L12.0371 10.7024C12.0365 10.0921 12.1698 9.49083 12.4258 8.94043H25.5473C25.8033 9.49083 25.9367 10.0921 25.936 10.7024V10.7032C25.936 13.4854 23.0084 16.0312 18.9973 16.0312C14.9831 16.0312 12.0371 13.4831 12.0371 10.7032Z" stroke="#005BAA" stroke-width="1.5"/>
</g>
<defs>
<clipPath id="clip0_2901_674">
<rect width="37.7564" height="48.86" fill="white" transform="translate(0.121094 0.930664)"/>
</clipPath>
</defs>
</svg>
