<svg width="25" height="26" viewBox="0 0 25 26" fill="none" xmlns="http://www.w3.org/2000/svg">
<g clip-path="url(#clip0_3046_18760)">
<path d="M22.2057 4.98884C22.1131 4.97931 22.0199 4.97931 21.9274 4.98884H2.92224C2.80043 4.99072 2.67943 5.00898 2.5625 5.04314L12.3705 14.8104L22.2057 4.98884Z" fill="#005BAA"/>
<path d="M23.211 5.93188L13.3283 15.7738C13.0739 16.0267 12.7299 16.1686 12.3712 16.1686C12.0126 16.1686 11.6686 16.0267 11.4142 15.7738L1.61978 6.00655C1.58967 6.11721 1.5737 6.23125 1.57227 6.34593V19.921C1.57227 20.281 1.71529 20.6263 1.96987 20.8809C2.22445 21.1355 2.56974 21.2785 2.92977 21.2785H21.9349C22.2949 21.2785 22.6402 21.1355 22.8948 20.8809C23.1494 20.6263 23.2924 20.281 23.2924 19.921V6.34593C23.287 6.20451 23.2595 6.06481 23.211 5.93188ZM3.85967 19.921H2.9162V18.9504L7.85074 14.0566L8.80779 15.0136L3.85967 19.921ZM21.9213 19.921H20.9711L16.0229 15.0136L16.98 14.0566L21.9145 18.9504L21.9213 19.921Z" fill="#005BAA"/>
</g>
<defs>
<clipPath id="clip0_3046_18760">
<rect width="24.4352" height="24.4352" fill="white" transform="translate(0.261719 0.91626)"/>
</clipPath>
</defs>
</svg>
