<svg width="37" height="55" viewBox="0 0 37 55" fill="none" xmlns="http://www.w3.org/2000/svg">
<g clip-path="url(#clip0_5536_49393)">
<path d="M18.5684 27.3508C18.5682 25.5809 19.0929 23.8507 20.0761 22.3791C21.0593 20.9074 22.4568 19.7603 24.0919 19.0829C25.727 18.4055 27.5263 18.2281 29.2622 18.5733C30.9981 18.9185 32.5926 19.7707 33.8442 21.0222C35.0957 22.2736 35.9481 23.8681 36.2934 25.604C36.6388 27.3398 36.4616 29.1391 35.7843 30.7743C35.1071 32.4095 33.9601 33.8071 32.4885 34.7904C31.0169 35.7737 29.2868 36.2985 27.5169 36.2985C22.5858 36.2985 18.5684 32.2811 18.5684 27.3508Z" fill="#B0D0E7"/>
<path d="M0.693359 45.2261C0.693773 42.8531 1.63661 40.5774 3.31455 38.8995C4.99249 37.2216 7.26814 36.2787 9.64111 36.2783H18.5889V45.2261C18.5889 47.5992 17.6461 49.875 15.9681 51.5531C14.2901 53.2311 12.0142 54.1738 9.64111 54.1738C7.26802 54.1738 4.99212 53.2311 3.31409 51.5531C1.63607 49.875 0.693359 47.5992 0.693359 45.2261Z" fill="#B0D0E7"/>
<path d="M18.5684 0.527106V18.4031H27.5169C29.8756 18.3811 32.1302 17.4286 33.7904 15.7529C35.4505 14.0772 36.3819 11.8138 36.3819 9.45497C36.3819 7.09614 35.4505 4.83272 33.7904 3.15701C32.1302 1.4813 29.8756 0.528853 27.5169 0.506836H18.5684V0.527106Z" fill="#B0D0E7"/>
<path d="M0.693367 9.47563C0.69378 11.8486 1.63662 14.1243 3.31456 15.8022C4.9925 17.4801 7.26815 18.423 9.64111 18.4234H18.5889V0.527106H9.64111C8.46561 0.52567 7.30137 0.756155 6.21508 1.20536C5.12879 1.65457 4.14179 2.31367 3.31062 3.14491C2.47945 3.97616 1.82044 4.96321 1.37132 6.04954C0.922212 7.13587 0.691828 8.30013 0.693367 9.47563Z" fill="#B0D0E7"/>
<path d="M0.693359 27.3509C0.693773 29.7239 1.63661 31.9996 3.31455 33.6775C4.99249 35.3554 7.26814 36.2983 9.64111 36.2987H18.5889V18.4032H9.64111C7.26814 18.4036 4.99249 19.3465 3.31455 21.0244C1.63661 22.7023 0.693773 24.978 0.693359 27.3509Z" fill="#B0D0E7"/>
</g>
<defs>
<clipPath id="clip0_5536_49393">
<rect width="35.7715" height="53.667" fill="white" transform="translate(0.693359 0.506836)"/>
</clipPath>
</defs>
</svg>
