<svg width="230" height="76" viewBox="0 0 230 76" fill="none" xmlns="http://www.w3.org/2000/svg">
<path d="M52.8786 30.033V35.8011H66.3601C66.0022 38.992 64.9285 41.4466 63.2582 43.042C61.3493 45.0057 58.2473 47.2148 52.8786 47.2148C44.6464 47.2148 38.2039 40.3421 38.2039 31.8739C38.2039 23.4057 44.5271 16.533 52.8786 16.533C57.2929 16.533 60.6334 18.3739 63.0196 20.7057L66.9567 16.6557C63.6161 13.342 59.0825 10.7648 52.8786 10.7648C41.5445 10.7648 32 20.2148 32 31.8739C32 43.533 41.5445 52.983 52.8786 52.983C58.9632 52.983 63.6161 50.8966 67.1953 47.0921C70.8938 43.2875 72.0868 37.8875 72.0868 33.592C72.0868 32.242 71.9675 31.0148 71.8482 30.033H52.8786Z" fill="#B0D0E7"/>
<path d="M88.791 25.2465C81.5133 25.2465 75.4287 31.0146 75.4287 38.8692C75.4287 46.7237 81.394 52.4919 88.791 52.4919C96.188 52.4919 102.153 46.8465 102.153 38.9919C102.153 31.0146 96.188 25.2465 88.791 25.2465ZM88.791 47.2146C84.7346 47.2146 81.2747 43.7783 81.2747 38.9919C81.2747 34.0828 84.7346 30.7692 88.791 30.7692C92.8474 30.7692 96.3073 34.0828 96.3073 38.9919C96.3073 43.7783 92.8474 47.2146 88.791 47.2146Z" fill="#B0D0E7"/>
<path d="M154.049 28.3146H153.81C152.498 26.7192 149.992 25.2465 146.771 25.2465C140.09 25.2465 134.363 31.1374 134.363 38.8692C134.363 46.4783 140.09 52.4919 146.771 52.4919C149.992 52.4919 152.498 51.0192 153.81 49.4237H154.049V51.3874C154.049 56.5419 151.305 59.3647 147.01 59.3647C143.431 59.3647 141.283 56.7874 140.329 54.4556L135.318 56.6647C136.749 60.2237 140.686 64.7647 147.129 64.7647C153.929 64.7647 159.775 60.5919 159.775 50.5283V25.9828H154.287V28.3146H154.049ZM147.368 47.2147C143.311 47.2147 140.329 43.6556 140.329 38.9919C140.329 34.2056 143.431 30.7692 147.368 30.7692C151.305 30.7692 154.407 34.3283 154.407 39.1146C154.526 43.7783 151.424 47.2147 147.368 47.2147Z" fill="#B0D0E7"/>
<path d="M118.497 25.2465C111.219 25.2465 105.135 31.0146 105.135 38.8692C105.135 46.7237 111.1 52.4919 118.497 52.4919C125.894 52.4919 131.859 46.8465 131.859 38.9919C131.859 31.0146 125.894 25.2465 118.497 25.2465ZM118.497 47.2146C114.441 47.2146 110.981 43.7783 110.981 38.9919C110.981 34.0828 114.441 30.7692 118.497 30.7692C122.553 30.7692 126.013 34.0828 126.013 38.9919C126.013 43.7783 122.553 47.2146 118.497 47.2146Z" fill="#B0D0E7"/>
<path d="M164.192 11.3781H169.919V52.6144H164.192V11.3781Z" fill="#B0D0E7"/>
<path d="M187.574 47.2146C184.591 47.2146 182.563 45.8646 181.131 43.0419L198.908 35.5556L198.311 33.9601C197.238 30.8919 193.778 25.2465 186.977 25.2465C180.177 25.2465 174.45 30.7692 174.45 38.8692C174.45 46.4783 180.058 52.4919 187.574 52.4919C193.658 52.4919 197.118 48.6874 198.669 46.4783L194.136 43.4101C192.585 45.7419 190.556 47.2146 187.574 47.2146ZM187.216 30.401C189.602 30.401 191.63 31.6283 192.227 33.3465L180.296 38.501C180.177 32.8556 184.233 30.401 187.216 30.401Z" fill="#B0D0E7"/>
</svg>
