<svg width="40" height="41" viewBox="0 0 40 41" fill="none" xmlns="http://www.w3.org/2000/svg">
<g clip-path="url(#clip0_5710_64894)">
<path fill-rule="evenodd" clip-rule="evenodd" d="M31.6392 14.6406C32.2264 14.2264 32.9392 13.9826 33.7077 13.9826C35.7081 13.9826 37.3356 15.6302 37.3356 17.6555V28.3037C37.3356 35.0261 31.9472 40.4951 25.3239 40.4951C21.9759 40.4951 18.7578 39.062 16.4884 36.5622L4.1216 24.0627C3.25738 23.1889 3.25374 21.7638 4.11364 20.8858C5.06098 19.9183 6.32341 19.3836 7.66827 19.3803H7.68097C9.01576 19.3803 10.271 19.9041 11.2187 20.8566L13.3122 22.826V4.16774C13.3122 2.14249 14.9396 0.494873 16.9402 0.494873C18.9405 0.494873 20.568 2.14249 20.568 4.16774V11.0187C21.134 10.6489 21.807 10.4333 22.5293 10.4333C24.0203 10.4333 25.3037 11.349 25.8609 12.6539C26.4809 12.1533 27.2655 11.853 28.1184 11.853C29.8174 11.853 31.2468 13.0417 31.6392 14.6406Z" fill="white"/>
</g>
<defs>
<clipPath id="clip0_5710_64894">
<rect width="40" height="40" fill="white" transform="translate(0 0.494873)"/>
</clipPath>
</defs>
</svg>
