<svg width="41" height="40" viewBox="0 0 41 40" fill="none" xmlns="http://www.w3.org/2000/svg">
<g clip-path="url(#clip0_5710_64888)">
<path d="M7.22949 26.5123C7.9979 26.5123 8.7107 26.2685 9.29799 25.8543C9.69037 27.4532 11.1198 28.6419 12.8188 28.6419C13.6716 28.6419 14.4562 28.3416 15.0763 27.841C15.6334 29.1459 16.9168 30.0616 18.4079 30.0616C19.1302 30.0616 19.8032 29.846 20.3691 29.4762L20.3691 36.3271C20.3691 38.3524 21.9966 40 23.997 40C25.9975 40 27.6249 38.3524 27.6249 36.3271L27.6249 17.6689L29.7185 19.6383C30.6661 20.5908 31.9214 21.1146 33.2562 21.1146L33.2689 21.1146C34.6137 21.1113 35.8762 20.5766 36.8235 19.6092C37.6834 18.7311 37.6798 17.306 36.8155 16.4322L24.4487 3.9327C22.1793 1.43297 18.9612 -0.000173156 15.6132 -0.000173449C8.98992 -0.000174028 3.60157 5.46884 3.60157 12.1912L3.60157 22.8395C3.60157 24.8647 5.22903 26.5123 7.22949 26.5123ZM5.2683 19.2902L5.2683 12.1913C5.26831 6.38799 9.90907 1.66657 15.6133 1.66657C18.5024 1.66657 21.2808 2.90919 23.2359 5.07571C23.2414 5.0818 23.2474 5.08696 23.253 5.09289C23.2563 5.09636 23.259 5.1 23.2623 5.10338L35.6307 17.6044C35.8588 17.835 35.8597 18.2113 35.6327 18.4431C35.0004 19.0889 34.1594 19.4457 33.2647 19.4479L33.2563 19.4479C32.365 19.4479 31.5257 19.0956 30.8924 18.4552C30.8853 18.4481 30.8782 18.4412 30.871 18.4343L27.3626 15.1338C27.2441 15.0224 27.0956 14.9481 26.9354 14.9201C26.7752 14.892 26.6103 14.9115 26.4611 14.976C26.3118 15.0405 26.1846 15.1473 26.0953 15.2832C26.006 15.4191 25.9583 15.5781 25.9583 15.7408L25.9583 36.3271C25.9583 37.4333 25.0785 38.3333 23.997 38.3333C22.9156 38.3333 22.0358 37.4333 22.0358 36.3271L22.0358 23.5494C22.0358 23.0891 21.6626 22.7161 21.2025 22.7161C20.7423 22.7161 20.3691 23.0892 20.3691 23.5494L20.3691 26.3889C20.3691 27.4951 19.4894 28.395 18.4079 28.395C17.3264 28.395 16.4466 27.4951 16.4466 26.3889L16.4466 22.1296C16.4466 21.6694 16.0734 21.2963 15.6133 21.2963C15.1531 21.2963 14.78 21.6694 14.78 22.1296L14.78 24.9691C14.78 26.0753 13.9002 26.9754 12.8188 26.9754C11.7373 26.9754 10.8575 26.0753 10.8575 24.9691L10.8575 20.7099C10.8575 20.2497 10.4843 19.8766 10.0242 19.8766C9.56401 19.8766 9.19085 20.2498 9.19085 20.7099L9.19085 22.8395C9.19085 23.9457 8.31105 24.8457 7.22957 24.8457C6.14818 24.8457 5.26839 23.9457 5.26839 22.8395L5.26839 19.2902L5.2683 19.2902Z" fill="white"/>
</g>
<defs>
<clipPath id="clip0_5710_64888">
<rect width="40" height="40" fill="white" transform="translate(40.5339 40) rotate(-180)"/>
</clipPath>
</defs>
</svg>
