<svg width="40" height="40" viewBox="0 0 40 40" fill="none" xmlns="http://www.w3.org/2000/svg">
<g clip-path="url(#clip0_5710_64907)">
<path fill-rule="evenodd" clip-rule="evenodd" d="M8.36085 25.8542C7.77356 26.2685 7.06075 26.5123 6.29234 26.5123C4.29189 26.5123 2.66442 24.8647 2.66442 22.8394L2.66442 12.1912C2.66442 5.46878 8.05278 -0.000245677 14.6761 -0.000245098C18.0241 -0.000244805 21.2422 1.4329 23.5116 3.93263L35.8784 16.4321C36.7426 17.306 36.7463 18.7311 35.8864 19.6091C34.939 20.5766 33.6766 21.1112 32.3317 21.1145L32.319 21.1145C30.9842 21.1145 29.729 20.5907 28.7813 19.6383L26.6878 17.6688L26.6878 36.3271C26.6878 38.3524 25.0604 40 23.0598 40C21.0595 40 19.432 38.3524 19.432 36.3271L19.432 29.4762C18.866 29.8459 18.193 30.0616 17.4707 30.0616C15.9797 30.0616 14.6963 29.1458 14.1391 27.841C13.5191 28.3416 12.7345 28.6419 11.8816 28.6419C10.1826 28.6419 8.75322 27.4532 8.36085 25.8542Z" fill="white"/>
</g>
<defs>
<clipPath id="clip0_5710_64907">
<rect width="40" height="40" fill="white" transform="translate(40 40) rotate(-180)"/>
</clipPath>
</defs>
</svg>
