<svg width="41" height="41" viewBox="0 0 41 41" fill="none" xmlns="http://www.w3.org/2000/svg">
<g clip-path="url(#clip0_5710_64885)">
<path d="M33.8383 13.9826C33.0699 13.9826 32.357 14.2264 31.7698 14.6406C31.3774 13.0417 29.948 11.8529 28.249 11.8529C27.3961 11.8529 26.6115 12.1532 25.9915 12.6539C25.4343 11.349 24.1509 10.4333 22.6599 10.4333C21.9376 10.4333 21.2646 10.6489 20.6986 11.0187V4.16774C20.6986 2.14248 19.0711 0.494873 17.0708 0.494873C15.0702 0.494873 13.4428 2.14248 13.4428 4.16774V22.826L11.3493 20.8565C10.4016 19.9041 9.14638 19.3803 7.81158 19.3803H7.79889C6.45402 19.3836 5.19159 19.9182 4.24426 20.8857C3.38436 21.7637 3.388 23.1888 4.25221 24.0627L16.6191 36.5622C18.8884 39.0619 22.1065 40.495 25.4546 40.495C32.0778 40.495 37.4662 35.026 37.4662 28.3036V17.6554C37.4662 15.6302 35.8387 13.9826 33.8383 13.9826ZM35.7994 21.2047V28.3036C35.7994 34.1069 31.1587 38.8283 25.4545 38.8283C22.5653 38.8283 19.787 37.5857 17.8319 35.4192C17.8264 35.4131 17.8204 35.4079 17.8148 35.402C17.8115 35.3985 17.8087 35.3949 17.8054 35.3915L5.43703 22.8905C5.20894 22.6599 5.20801 22.2836 5.435 22.0518C6.06732 21.406 6.90835 21.0492 7.80303 21.047H7.81141C8.70272 21.047 9.54205 21.3993 10.1754 22.0397C10.1824 22.0468 10.1895 22.0537 10.1968 22.0606L13.7051 25.3611C13.8236 25.4725 13.9721 25.5468 14.1323 25.5748C14.2925 25.6029 14.4574 25.5834 14.6067 25.5189C14.756 25.4544 14.8831 25.3476 14.9725 25.2117C15.0618 25.0758 15.1094 24.9167 15.1095 24.7541V4.16774C15.1095 3.06155 15.9893 2.16153 17.0708 2.16153C18.1522 2.16153 19.0319 3.06155 19.0319 4.16774V16.9455C19.0319 17.4057 19.4051 17.7788 19.8653 17.7788C20.3254 17.7788 20.6986 17.4057 20.6986 16.9455V14.106C20.6986 12.9998 21.5784 12.0998 22.6599 12.0998C23.7414 12.0998 24.6211 12.9998 24.6211 14.106V18.3653C24.6211 18.8255 24.9943 19.1986 25.4545 19.1986C25.9146 19.1986 26.2878 18.8254 26.2878 18.3653V15.5257C26.2878 14.4195 27.1676 13.5195 28.249 13.5195C29.3305 13.5195 30.2103 14.4195 30.2103 15.5257V19.7849C30.2103 20.2452 30.5834 20.6183 31.0436 20.6183C31.5037 20.6183 31.8769 20.2451 31.8769 19.7849V17.6553C31.8769 16.5491 32.7567 15.6491 33.8382 15.6491C34.9196 15.6491 35.7994 16.5491 35.7994 17.6553V21.2047H35.7994Z" fill="white"/>
</g>
<defs>
<clipPath id="clip0_5710_64885">
<rect width="40" height="40" fill="white" transform="translate(0.533875 0.494873)"/>
</clipPath>
</defs>
</svg>
