<svg width="60" height="60" viewBox="0 0 60 60" fill="none" xmlns="http://www.w3.org/2000/svg">
<g clip-path="url(#clip0_4801_52195)">
<path d="M51.6866 24.8021H51.5381V21.1635C51.5381 9.47559 42.0633 0.000610352 30.3752 0.000610352C18.6871 0.000610352 9.21225 9.47559 9.21225 21.1635V24.8021H8.32123C5.05394 24.8021 2.52927 27.698 2.52927 31.0396V40.3216C2.44698 43.5603 5.0059 46.2525 8.24462 46.3348C8.27021 46.3355 8.29565 46.336 8.32123 46.3363H13.8161C14.5944 46.2997 15.1958 45.639 15.1591 44.8607C15.1578 44.8326 15.1557 44.8047 15.1527 44.7768V26.5841C15.1527 25.6931 14.633 24.8019 13.8161 24.8019H12.1825V21.1634C12.1825 11.1159 20.3277 2.97071 30.3752 2.97071C40.4227 2.97071 48.5679 11.1159 48.5679 21.1634V24.8019H46.9342C46.1174 24.8019 45.5976 25.693 45.5976 26.5841V44.7768C45.5148 45.5516 46.0756 46.2469 46.8504 46.3297C46.8782 46.3327 46.9062 46.3348 46.9342 46.3361H48.6421L48.4935 46.5588C47.3946 48.0193 45.9697 49.2028 44.3324 50.015C42.6951 50.8272 40.8907 51.2456 39.063 51.2369C38.2518 47.2588 34.369 44.6915 30.391 45.5029C26.9891 46.1967 24.5363 49.176 24.5089 52.6478C24.5495 56.7199 27.8623 59.9994 31.9345 59.9991C33.9504 59.9664 35.8718 59.1392 37.2809 57.6972C38.2315 56.7236 38.8546 55.4775 39.063 54.1328C41.3518 54.1415 43.611 53.6157 45.6607 52.5973C47.7105 51.5789 49.4941 50.096 50.8697 48.2667L52.2806 46.1874C55.4736 45.9647 57.4785 43.9598 57.4785 41.0638V31.7818C57.4786 28.5891 55.1025 24.8021 51.6866 24.8021ZM12.1825 43.366H8.32123C6.72226 43.3271 5.45759 41.9994 5.49653 40.4005C5.49724 40.3742 5.49824 40.3479 5.49951 40.3214V31.0395C5.49951 29.3316 6.68758 27.7722 8.32123 27.7722H12.1825V43.366ZM35.1276 55.6182C34.7205 56.0597 34.227 56.4127 33.6777 56.6554C33.1284 56.8981 32.5351 57.0253 31.9346 57.0291C29.5187 56.9908 27.5582 55.0629 27.4793 52.648C27.4783 50.2284 29.439 48.2661 31.8586 48.2651C34.2782 48.2641 36.2405 50.2248 36.2415 52.6444V52.648C36.272 53.1933 36.1888 53.7389 35.997 54.2503C35.8053 54.7617 35.5092 55.2275 35.1276 55.6182ZM54.5084 41.0641C54.5084 43.069 52.5777 43.366 51.6866 43.366H48.5679V27.7723H51.6866C53.3203 27.7723 54.5084 30.0743 54.5084 31.7821V41.0641Z" fill="white"/>
</g>
<defs>
<clipPath id="clip0_4801_52195">
<rect width="59.9988" height="59.9988" fill="white" transform="translate(0 0.000610352)"/>
</clipPath>
</defs>
</svg>
