<svg width="231" height="75" viewBox="0 0 231 75" fill="none" xmlns="http://www.w3.org/2000/svg">
<path d="M38.9762 26.7471H46.2453V33.9292H52.8976V26.7471H60.1799V48.4989H52.8976V41.2141H46.2479V48.4989H38.9762V26.7471Z" fill="#B0D0E7"/>
<path d="M69.7288 33.9608H63.3269V26.7471H83.4025V33.9608H76.9979V48.4989H69.7288V33.9608Z" fill="#B0D0E7"/>
<path d="M86.5889 26.7471H94.1795L98.8419 34.3904L103.502 26.7471H111.084V48.4989H103.844V37.7166L98.8367 45.4521H98.7128L93.7051 37.7166V48.4989H86.5889V26.7471Z" fill="#B0D0E7"/>
<path d="M114.693 26.7471H121.964V41.3089H132.188V48.4989H114.693V26.7471Z" fill="#B0D0E7"/>
<path d="M148.19 59.6533L143.771 10.0928H192.324L187.9 59.6444L168.017 65.1572L148.19 59.6533Z" fill="#B0D0E7"/>
<path d="M168.047 60.9456L184.113 56.491L187.894 14.1465H168.047V60.9456Z" fill="#D9E8F4"/>
<path d="M168.047 32.5259H160.004L159.448 26.302H168.047V20.2236H168.026H152.806L152.951 21.8541L154.445 38.6042H168.047V32.5259Z" fill="white"/>
<path d="M168.047 48.312L168.021 48.3199L161.251 46.4912L160.819 41.6436H157.529H154.717L155.568 51.1877L168.019 54.6446L168.047 54.6367V48.312Z" fill="white"/>
<path d="M168.026 32.5254V38.6037H175.511L174.805 46.4872L168.026 48.317V54.6405L180.487 51.187L180.578 50.1602L182.007 34.1581L182.155 32.5254H180.518H168.026Z" fill="white"/>
<path d="M168.026 20.2236V23.9985V26.2874V26.302H182.689H182.708L182.83 24.9358L183.107 21.8541L183.252 20.2236H168.026Z" fill="white"/>
</svg>
