<svg width="83" height="89" viewBox="0 0 83 89" fill="none" xmlns="http://www.w3.org/2000/svg">
<rect x="0.606323" y="0.10498" width="81.6146" height="88.3459" rx="4" fill="#012842"/>
<g opacity="0.5">
<mask id="path-2-inside-1_2701_32996" fill="white">
<path d="M73.8369 35.2987C73.8369 33.6088 73.504 31.9355 72.8574 30.3743C72.2107 28.813 71.2628 27.3945 70.0679 26.1995C68.873 25.0046 67.4544 24.0568 65.8932 23.4101C64.3319 22.7634 62.6586 22.4305 60.9687 22.4305L60.9687 35.2987H73.8369Z"/>
</mask>
<path d="M73.8369 35.2987C73.8369 33.6088 73.504 31.9355 72.8574 30.3743C72.2107 28.813 71.2628 27.3945 70.0679 26.1995C68.873 25.0046 67.4544 24.0568 65.8932 23.4101C64.3319 22.7634 62.6586 22.4305 60.9687 22.4305L60.9687 35.2987H73.8369Z" stroke="white" stroke-width="2.46223" mask="url(#path-2-inside-1_2701_32996)"/>
<mask id="path-3-inside-2_2701_32996" fill="white">
<path d="M71.2897 37.0355C71.2897 39.462 70.5701 41.8341 69.222 43.8517C67.8739 45.8693 65.9577 47.4418 63.7159 48.3705C61.474 49.2991 59.0072 49.542 56.6272 49.0686C54.2473 48.5952 52.0612 47.4267 50.3454 45.7109C48.6295 43.9951 47.461 41.809 46.9876 39.429C46.5142 37.0491 46.7572 34.5822 47.6858 32.3404C48.6144 30.0985 50.1869 28.1824 52.2045 26.8343C54.2222 25.4862 56.5942 24.7666 59.0208 24.7666V37.0355H71.2897Z"/>
</mask>
<path d="M71.2897 37.0355C71.2897 39.462 70.5701 41.8341 69.222 43.8517C67.8739 45.8693 65.9577 47.4418 63.7159 48.3705C61.474 49.2991 59.0072 49.542 56.6272 49.0686C54.2473 48.5952 52.0612 47.4267 50.3454 45.7109C48.6295 43.9951 47.461 41.809 46.9876 39.429C46.5142 37.0491 46.7572 34.5822 47.6858 32.3404C48.6144 30.0985 50.1869 28.1824 52.2045 26.8343C54.2222 25.4862 56.5942 24.7666 59.0208 24.7666V37.0355H71.2897Z" stroke="white" stroke-width="2.34757" mask="url(#path-3-inside-2_2701_32996)"/>
<path fill-rule="evenodd" clip-rule="evenodd" d="M57.8133 37.5302V24.8716H58.987V38.1689L49.2856 44.4432L48.6481 43.4576L57.8133 37.5302Z" fill="white"/>
</g>
<rect opacity="0.5" x="1.60632" y="1.10498" width="79.6146" height="86.3459" rx="3" stroke="white" stroke-width="2"/>
<g opacity="0.5">
<path d="M76.8082 9.72628C76.8146 10.2885 76.3681 10.7332 75.9514 10.7759C75.6743 10.8042 75.3904 10.8232 75.1252 10.9011C74.7583 11.0087 74.4213 11.1906 74.1576 11.4908C73.8521 11.8389 73.6812 12.2233 73.6513 12.7071C73.622 13.1836 73.4608 13.6502 72.9447 13.8214C72.1526 14.0843 71.2665 13.7058 71.2766 12.7489C71.2809 12.3538 71.5559 11.9328 71.9951 11.7672C72.2307 11.6783 72.4566 11.6894 72.688 11.6564C73.3814 11.5578 73.9293 11.2231 74.2663 10.5787C74.4277 10.2701 74.5203 9.94186 74.5059 9.58586C74.4928 9.25794 74.3499 8.87502 74.1591 8.62081C73.8371 8.19168 73.5151 7.95299 73.0283 7.81462C72.6205 7.69849 72.195 7.70609 71.7686 7.84738C71.4075 7.96703 71.138 8.18553 70.8844 8.44969C70.6152 8.73053 70.4711 9.06547 70.4488 9.45657C70.4275 9.83187 70.3417 10.1929 70.0765 10.4637C69.8048 10.7413 69.4736 10.8452 69.0704 10.791C68.7148 10.7434 68.4701 10.5825 68.2598 10.3052C67.9438 9.88865 67.9832 9.30505 68.3736 8.9467C68.6459 8.6966 68.9398 8.59156 69.3351 8.55763C70.0887 8.4927 70.9995 7.9366 71.1744 7.15468C71.2125 6.98355 71.2534 6.81009 71.2647 6.63603C71.2955 6.15366 71.5767 5.70346 72.0677 5.56071C72.8058 5.34629 73.3698 5.62945 73.5844 6.39031C73.6207 6.51932 73.6528 6.65271 73.6625 6.7861C73.7096 7.43873 74.0264 7.90589 74.5709 8.23849C74.9201 8.45174 75.2854 8.524 75.6929 8.56583C76.2347 8.62111 76.7841 9.03064 76.8082 9.72628Z" fill="white"/>
<path d="M68.0509 12.7122C68.0509 12.1499 68.5026 11.7099 68.9199 11.6716C69.1973 11.6462 69.4815 11.6304 69.7476 11.5552C70.1158 11.4514 70.4549 11.2732 70.7219 10.9757C71.0314 10.6311 71.2069 10.2485 71.2423 9.76495C71.2771 9.28871 71.4438 8.8239 71.9617 8.65833C72.7569 8.40382 73.6387 8.792 73.6173 9.74857C73.6084 10.1437 73.3285 10.5618 72.8875 10.7227C72.651 10.809 72.4251 10.7955 72.1934 10.826C71.4987 10.9172 70.9469 11.246 70.6026 11.8866C70.4375 12.1935 70.3413 12.5205 70.3514 12.8768C70.3608 13.2048 70.4918 13.4882 70.6404 13.7667C70.8959 14.2459 71.3229 14.52 71.8082 14.6639C72.2148 14.7844 72.6403 14.7812 73.0682 14.6445C73.4308 14.5287 73.7028 14.3134 73.9595 14.0516C74.232 13.7737 74.3801 13.4405 74.4066 13.0494C74.4322 12.6744 74.5223 12.3146 74.7906 12.0464C75.0656 11.7717 75.3977 11.6713 75.8005 11.7298C76.1555 11.7813 76.3985 11.9449 76.6055 12.2245C76.9165 12.6443 76.8701 13.2276 76.4757 13.5815C76.2004 13.8287 75.9056 13.9305 75.5097 13.9603C74.7555 14.0171 73.8383 14.5635 73.6543 15.3434C73.6139 15.5143 73.5712 15.6871 73.5581 15.8612C73.5215 16.3433 73.2355 16.7905 72.7425 16.928C72.002 17.1345 71.4413 16.8453 71.2356 16.0823C71.2008 15.953 71.1703 15.819 71.1621 15.6857C71.1224 15.0328 70.8114 14.5621 70.2708 14.2236C69.9241 14.0066 69.5596 13.9305 69.1525 13.8843C68.6113 13.8235 68.0668 13.4081 68.0509 12.7122Z" fill="white"/>
</g>
<rect opacity="0.5" x="6.0072" y="15.5502" width="33.4142" height="1.08325" rx="0.541626" fill="white"/>
<rect opacity="0.5" x="6.0072" y="20.2466" width="30.8896" height="1.08325" rx="0.541626" fill="white"/>
<rect opacity="0.5" x="6.0072" y="36.7012" width="18.3113" height="1.08325" rx="0.541626" fill="white"/>
<rect opacity="0.5" x="6.0072" y="24.9434" width="27.4439" height="1.08325" rx="0.541626" fill="white"/>
<rect opacity="0.5" x="6.0072" y="41.3979" width="16.2687" height="1.08325" rx="0.541626" fill="white"/>
<rect opacity="0.5" x="45.7845" y="57.1877" width="29.0197" height="1.08325" rx="0.541626" fill="white"/>
<rect opacity="0.5" x="6.0072" y="56.1045" width="26.3685" height="1.08325" rx="0.541626" fill="white"/>
<rect opacity="0.5" x="45.7845" y="61.8842" width="26.3685" height="1.08325" rx="0.541626" fill="white"/>
<rect opacity="0.5" x="6.0072" y="60.8008" width="21.1196" height="1.08325" rx="0.541626" fill="white"/>
<rect opacity="0.5" x="45.7845" y="66.5807" width="21.1196" height="1.08325" rx="0.541626" fill="white"/>
</svg>
