<svg width="82" height="89" viewBox="0 0 82 89" fill="none" xmlns="http://www.w3.org/2000/svg">
<rect x="0.21875" y="0.398438" width="81.6146" height="88.3459" rx="4" fill="#012842"/>
<path opacity="0.5" d="M9.27344 32.7031V52.8511C9.27344 52.9708 9.37043 53.0678 9.49007 53.0678H33.4324" stroke="white" stroke-width="0.768173" stroke-linecap="round"/>
<path opacity="0.5" d="M12.5625 49.7289L16.8455 45.0102C16.9349 44.9116 17.0912 44.9162 17.1746 45.0198L19.0304 47.3234C19.119 47.4333 19.2872 47.4306 19.3722 47.3179L23.2084 42.2261C23.2869 42.1219 23.4391 42.1102 23.5326 42.2013L26.0368 44.6396C26.1343 44.7345 26.2941 44.7171 26.3689 44.6035L29.9988 39.0859" stroke="white" stroke-width="1.08317" stroke-linecap="round"/>
<rect opacity="0.5" x="9.39844" y="69.582" width="25.0557" height="1.08325" rx="0.541626" fill="white"/>
<rect opacity="0.5" x="46.0625" y="69.582" width="25.0557" height="1.08325" rx="0.541626" fill="white"/>
<rect opacity="0.5" x="9.39844" y="74.2773" width="17.2031" height="1.08325" rx="0.541626" fill="white"/>
<rect opacity="0.5" x="46.0625" y="74.2773" width="17.2031" height="1.08325" rx="0.541626" fill="white"/>
<rect opacity="0.5" x="1.21875" y="1.39844" width="79.6146" height="86.3459" rx="3" stroke="white" stroke-width="2"/>
<g opacity="0.5">
<path d="M76.4197 10.0202C76.4261 10.5824 75.9795 11.0271 75.5629 11.0698C75.2857 11.0982 75.0019 11.1172 74.7366 11.195C74.3698 11.3026 74.0328 11.4846 73.7691 11.7848C73.4635 12.1328 73.2926 12.5172 73.2627 13.0011C73.2334 13.4776 73.0722 13.9442 72.5561 14.1153C71.7641 14.3783 70.878 13.9997 70.888 13.0429C70.8923 12.6477 71.1673 12.2268 71.6066 12.0612C71.8422 11.9723 72.068 11.9834 72.2994 11.9503C72.9929 11.8517 73.5408 11.5171 73.8777 10.8726C74.0392 10.564 74.1317 10.2358 74.1173 9.87981C74.1042 9.55189 73.9614 9.16897 73.7706 8.91476C73.4486 8.48563 73.1266 8.24693 72.6397 8.10856C72.232 7.99243 71.8065 8.00004 71.3801 8.14133C71.019 8.26097 70.7495 8.47948 70.4959 8.74364C70.2266 9.02447 70.0826 9.35942 70.0603 9.75052C70.0389 10.1258 69.9531 10.4868 69.6879 10.7577C69.4163 11.0353 69.0851 11.1391 68.6819 11.085C68.3263 11.0373 68.0815 10.8764 67.8712 10.5991C67.5553 10.1826 67.5947 9.599 67.9851 9.24065C68.2573 8.99054 68.5512 8.8855 68.9465 8.85157C69.7001 8.78664 70.6109 8.23055 70.7858 7.44863C70.8239 7.2775 70.8649 7.10403 70.8761 6.92998C70.907 6.44761 71.1881 5.99741 71.6792 5.85466C72.4172 5.64023 72.9813 5.9234 73.1959 6.68426C73.2322 6.81326 73.2642 6.94666 73.274 7.08004C73.321 7.73267 73.6378 8.19983 74.1824 8.53243C74.5315 8.74569 74.8969 8.81795 75.3043 8.85978C75.8461 8.91506 76.3955 9.32459 76.4197 10.0202Z" fill="white"/>
<path d="M67.6641 13.005C67.6641 12.4428 68.1158 12.0028 68.533 11.9645C68.8105 11.939 69.0947 11.9233 69.3608 11.8481C69.7289 11.7442 70.068 11.566 70.3351 11.2685C70.6446 10.924 70.8201 10.5414 70.8555 10.0578C70.8903 9.58156 71.0569 9.11675 71.5749 8.95118C72.37 8.69667 73.2518 9.08484 73.2305 10.0414C73.2216 10.4366 72.9417 10.8546 72.5007 11.0155C72.2641 11.1018 72.0382 11.0884 71.8066 11.1188C71.1119 11.21 70.56 11.5389 70.2158 12.1795C70.0506 12.4864 69.9545 12.8134 69.9645 13.1697C69.974 13.4976 70.1049 13.781 70.2536 14.0595C70.5091 14.5387 70.9361 14.8128 71.4214 14.9567C71.8279 15.0773 72.2534 15.074 72.6814 14.9374C73.044 14.8216 73.3159 14.6063 73.5726 14.3445C73.8452 14.0666 73.9932 13.7334 74.0198 13.3423C74.0454 12.9672 74.1355 12.6074 74.4037 12.3392C74.6787 12.0645 75.0108 11.9642 75.4137 12.0227C75.7687 12.0742 76.0117 12.2377 76.2186 12.5173C76.5297 12.9371 76.4833 13.5204 76.0889 13.8744C75.8136 14.1216 75.5187 14.2234 75.1228 14.2532C74.3686 14.31 73.4514 14.8564 73.2674 15.6363C73.2271 15.8071 73.1844 15.98 73.1712 16.154C73.1346 16.6361 72.8486 17.0834 72.3557 17.2209C71.6152 17.4274 71.0545 17.1381 70.8488 16.3752C70.814 16.2459 70.7835 16.1119 70.7752 15.9785C70.7355 15.3256 70.4245 14.8549 69.884 14.5165C69.5372 14.2994 69.1728 14.2234 68.7656 14.1771C68.2245 14.1163 67.6799 13.7009 67.6641 13.005Z" fill="white"/>
</g>
<circle opacity="0.5" cx="7.3009" cy="7.3634" r="1" stroke="white" stroke-width="1.80493"/>
<circle opacity="0.5" cx="13.1642" cy="7.3634" r="1" stroke="white" stroke-width="1.80493"/>
<circle opacity="0.5" cx="19.0275" cy="7.3634" r="1" stroke="white" stroke-width="1.80493"/>
<rect opacity="0.5" x="5.39844" y="15.3438" width="47.9111" height="3.02734" rx="1.51367" fill="white"/>
<path opacity="0.5" d="M58.079 28.8086C60.2182 28.8086 62.3294 29.2949 64.2531 30.2307C66.1768 31.1664 67.8626 32.5273 69.1831 34.2103C70.5036 35.8933 71.4243 37.8544 71.8755 39.9455C72.3267 42.0366 72.2967 44.2029 71.7878 46.2807C71.2788 48.3585 70.3042 50.2934 68.9376 51.9392C67.571 53.585 65.8482 54.8987 63.8993 55.7808C61.9505 56.663 59.8266 57.0906 57.6882 57.0314C55.5498 56.9722 53.4528 56.4276 51.5558 55.4389L58.079 42.9227V28.8086Z" fill="white"/>
<path opacity="0.4" d="M51.5822 55.4527C49.0027 54.1152 46.8989 52.0143 45.5579 49.4366C44.2169 46.859 43.7041 43.9303 44.0896 41.0504L58.079 42.9227L51.5822 55.4527Z" fill="white"/>
<path opacity="0.3" d="M44.088 41.0624C44.539 37.67 46.2073 34.5571 48.7823 32.3029C51.3572 30.0488 54.6635 28.8069 58.0858 28.8086L58.079 42.9227L44.088 41.0624Z" fill="white"/>
</svg>
