<svg width="82" height="89" viewBox="0 0 82 89" fill="none" xmlns="http://www.w3.org/2000/svg">
<rect x="0.218018" y="0.398438" width="81.6146" height="88.3459" rx="4" fill="#012842"/>
<rect opacity="0.5" x="5.39771" y="29.9336" width="25.0557" height="1.08325" rx="0.541626" fill="white"/>
<rect opacity="0.5" x="50.4954" y="29.9336" width="25.0557" height="1.08325" rx="0.541626" fill="white"/>
<rect opacity="0.5" x="5.39771" y="34.6289" width="17.2031" height="1.08325" rx="0.541626" fill="white"/>
<rect opacity="0.5" x="50.4954" y="34.6289" width="25.0557" height="1.08325" rx="0.541626" fill="white"/>
<rect opacity="0.5" x="5.39771" y="39.3281" width="25.0557" height="1.08325" rx="0.541626" fill="white"/>
<rect opacity="0.5" x="50.4954" y="39.3281" width="25.0557" height="1.08325" rx="0.541626" fill="white"/>
<rect opacity="0.5" x="5.39771" y="44.0234" width="20.981" height="1.08325" rx="0.541626" fill="white"/>
<rect opacity="0.5" x="62.4172" y="44.0234" width="13.1358" height="1.08325" rx="0.541626" fill="white"/>
<rect opacity="0.5" x="5.39771" y="48.7188" width="13.1968" height="1.08325" rx="0.541626" fill="white"/>
<rect opacity="0.5" x="62.4172" y="48.7188" width="13.1358" height="1.08325" rx="0.541626" fill="white"/>
<rect opacity="0.5" x="5.39771" y="53.4141" width="13.1968" height="1.08325" rx="0.541626" fill="white"/>
<rect opacity="0.5" x="50.4954" y="53.4141" width="25.0557" height="1.08325" rx="0.541626" fill="white"/>
<rect opacity="0.5" x="5.39771" y="58.1133" width="25.0557" height="1.08325" rx="0.541626" fill="white"/>
<rect opacity="0.5" x="50.4954" y="58.1133" width="25.0557" height="1.08325" rx="0.541626" fill="white"/>
<rect opacity="0.5" x="5.39771" y="62.8086" width="15.3819" height="1.08325" rx="0.541626" fill="white"/>
<rect opacity="0.5" x="50.4954" y="62.8086" width="25.0557" height="1.08325" rx="0.541626" fill="white"/>
<rect opacity="0.5" x="5.39771" y="67.5039" width="25.0557" height="1.08325" rx="0.541626" fill="white"/>
<rect opacity="0.5" x="58.0461" y="67.5039" width="17.5059" height="1.08325" rx="0.541626" fill="white"/>
<rect opacity="0.5" x="5.39771" y="72.1992" width="15.3819" height="1.08325" rx="0.541626" fill="white"/>
<rect opacity="0.5" x="58.0461" y="72.1992" width="17.5059" height="1.08325" rx="0.541626" fill="white"/>
<rect opacity="0.5" x="5.39771" y="76.8984" width="25.0557" height="1.08325" rx="0.541626" fill="white"/>
<rect opacity="0.5" x="50.4954" y="76.8984" width="25.0557" height="1.08325" rx="0.541626" fill="white"/>
<rect opacity="0.5" x="5.39771" y="81.5938" width="25.0557" height="1.08325" rx="0.541626" fill="white"/>
<rect opacity="0.5" x="50.4954" y="81.5938" width="25.0557" height="1.08325" rx="0.541626" fill="white"/>
<rect opacity="0.5" x="1.21802" y="1.39844" width="79.6146" height="86.3459" rx="3" stroke="white" stroke-width="2"/>
<g opacity="0.5">
<path d="M76.4189 10.0202C76.4253 10.5824 75.9788 11.0271 75.5622 11.0698C75.285 11.0982 75.0011 11.1172 74.7359 11.195C74.369 11.3026 74.0321 11.4846 73.7684 11.7848C73.4628 12.1328 73.2919 12.5172 73.262 13.0011C73.2327 13.4776 73.0715 13.9442 72.5554 14.1153C71.7633 14.3783 70.8772 13.9997 70.8873 13.0429C70.8916 12.6477 71.1666 12.2268 71.6059 12.0612C71.8415 11.9723 72.0673 11.9834 72.2987 11.9503C72.9921 11.8517 73.54 11.5171 73.877 10.8726C74.0385 10.564 74.131 10.2358 74.1166 9.87981C74.1035 9.55189 73.9606 9.16897 73.7699 8.91476C73.4479 8.48563 73.1258 8.24693 72.639 8.10856C72.2312 7.99243 71.8057 8.00004 71.3793 8.14133C71.0183 8.26097 70.7487 8.47948 70.4951 8.74364C70.2259 9.02447 70.0818 9.35942 70.0595 9.75052C70.0382 10.1258 69.9524 10.4868 69.6872 10.7577C69.4155 11.0353 69.0844 11.1391 68.6812 11.085C68.3256 11.0373 68.0808 10.8764 67.8705 10.5991C67.5546 10.1826 67.5939 9.599 67.9843 9.24065C68.2566 8.99054 68.5505 8.8855 68.9458 8.85157C69.6994 8.78664 70.6102 8.23055 70.7851 7.44863C70.8232 7.2775 70.8641 7.10403 70.8754 6.92998C70.9063 6.44761 71.1874 5.99741 71.6784 5.85466C72.4165 5.64023 72.9805 5.9234 73.1951 6.68426C73.2315 6.81326 73.2635 6.94666 73.2733 7.08004C73.3203 7.73267 73.6371 8.19983 74.1816 8.53243C74.5308 8.74569 74.8961 8.81795 75.3036 8.85978C75.8454 8.91506 76.3948 9.32459 76.4189 10.0202Z" fill="white"/>
<path d="M67.6633 13.005C67.6633 12.4428 68.1151 12.0028 68.5323 11.9645C68.8098 11.939 69.0939 11.9233 69.3601 11.8481C69.7282 11.7442 70.0673 11.566 70.3343 11.2685C70.6439 10.924 70.8194 10.5414 70.8548 10.0578C70.8896 9.58156 71.0562 9.11675 71.5742 8.95118C72.3693 8.69667 73.2511 9.08484 73.2297 10.0414C73.2209 10.4366 72.941 10.8546 72.4999 11.0155C72.2634 11.1018 72.0375 11.0884 71.8058 11.1188C71.1112 11.21 70.5593 11.5389 70.215 12.1795C70.0499 12.4864 69.9537 12.8134 69.9638 13.1697C69.9733 13.4976 70.1042 13.781 70.2529 14.0595C70.5083 14.5387 70.9353 14.8128 71.4206 14.9567C71.8272 15.0773 72.2527 15.074 72.6806 14.9374C73.0432 14.8216 73.3152 14.6063 73.5719 14.3445C73.8444 14.0666 73.9925 13.7334 74.0191 13.3423C74.0447 12.9672 74.1347 12.6074 74.403 12.3392C74.678 12.0645 75.0101 11.9642 75.413 12.0227C75.768 12.0742 76.0109 12.2377 76.2179 12.5173C76.5289 12.9371 76.4825 13.5204 76.0882 13.8744C75.8128 14.1216 75.518 14.2234 75.1221 14.2532C74.3679 14.31 73.4507 14.8564 73.2667 15.6363C73.2264 15.8071 73.1836 15.98 73.1705 16.154C73.1339 16.6361 72.8479 17.0834 72.3549 17.2209C71.6145 17.4274 71.0538 17.1381 70.848 16.3752C70.8133 16.2459 70.7827 16.1119 70.7745 15.9785C70.7348 15.3256 70.4238 14.8549 69.8832 14.5165C69.5365 14.2994 69.1721 14.2234 68.7649 14.1771C68.2237 14.1163 67.6792 13.7009 67.6633 13.005Z" fill="white"/>
</g>
<circle opacity="0.5" cx="7.30017" cy="7.3634" r="1" stroke="white" stroke-width="1.80493"/>
<circle opacity="0.5" cx="13.1635" cy="7.3634" r="1" stroke="white" stroke-width="1.80493"/>
<circle opacity="0.5" cx="19.0267" cy="7.3634" r="1" stroke="white" stroke-width="1.80493"/>
<g opacity="0.5">
<path d="M10.0372 24.2643V23.2599L6.41808 20.3741L10.0372 17.4565V16.452L5.39771 19.9436V20.7886L10.0372 24.2643Z" fill="white"/>
<path d="M12.2378 26.0181L16.0164 14.7461H15.0757L11.2971 26.0181H12.2378Z" fill="white"/>
<path d="M21.9138 20.7886V19.9436L17.2743 16.452V17.4565L20.8934 20.3741L17.2743 23.2599V24.2643L21.9138 20.7886Z" fill="white"/>
</g>
</svg>
