<svg width="82" height="90" viewBox="0 0 82 90" fill="none" xmlns="http://www.w3.org/2000/svg">
<rect x="0.0744629" y="0.957031" width="81.6146" height="88.3459" rx="4" fill="#012842"/>
<rect opacity="0.5" x="19.5276" y="44.1211" width="20.4092" height="1.08325" rx="0.541626" fill="white"/>
<rect opacity="0.5" x="5.25024" y="58.1406" width="25.0557" height="1.08325" rx="0.541626" fill="white"/>
<rect opacity="0.5" x="19.5276" y="74.0391" width="19.7817" height="1.08325" rx="0.541626" fill="white"/>
<rect opacity="0.5" x="58.7815" y="44.1211" width="16.1968" height="1.08325" rx="0.541626" fill="white"/>
<rect opacity="0.5" x="49.9221" y="58.1406" width="25.0557" height="1.08325" rx="0.541626" fill="white"/>
<rect opacity="0.5" x="58.7815" y="74.0391" width="16.1968" height="1.08325" rx="0.541626" fill="white"/>
<rect opacity="0.5" x="19.5276" y="48.8164" width="14.0129" height="1.08325" rx="0.541626" fill="white"/>
<rect opacity="0.5" x="5.25024" y="62.8359" width="17.2031" height="1.08325" rx="0.541626" fill="white"/>
<rect opacity="0.5" x="19.5276" y="78.7344" width="13.5821" height="1.08325" rx="0.541626" fill="white"/>
<rect opacity="0.5" x="58.7815" y="48.8164" width="11.1206" height="1.08325" rx="0.541626" fill="white"/>
<rect opacity="0.5" x="49.9221" y="62.8359" width="17.2031" height="1.08325" rx="0.541626" fill="white"/>
<rect opacity="0.5" x="58.7815" y="78.7344" width="11.1206" height="1.08325" rx="0.541626" fill="white"/>
<rect opacity="0.5" x="1.07446" y="1.95703" width="79.6146" height="86.3459" rx="3" stroke="white" stroke-width="2"/>
<g opacity="0.5">
<path d="M76.2754 10.5788C76.2818 11.141 75.8352 11.5857 75.4186 11.6284C75.1414 11.6568 74.8576 11.6758 74.5923 11.7536C74.2255 11.8612 73.8885 12.0432 73.6248 12.3433C73.3193 12.6914 73.1483 13.0758 73.1184 13.5597C73.0891 14.0362 72.928 14.5027 72.4118 14.6739C71.6198 14.9369 70.7337 14.5583 70.7438 13.6015C70.748 13.2063 71.023 12.7854 71.4623 12.6198C71.6979 12.5308 71.9237 12.542 72.1551 12.5089C72.8486 12.4103 73.3965 12.0757 73.7334 11.4312C73.8949 11.1226 73.9874 10.7944 73.973 10.4384C73.9599 10.1105 73.8171 9.72756 73.6263 9.47335C73.3043 9.04422 72.9823 8.80553 72.4955 8.66716C72.0877 8.55103 71.6622 8.55863 71.2358 8.69992C70.8747 8.81957 70.6052 9.03807 70.3516 9.30223C70.0823 9.58307 69.9383 9.91801 69.916 10.3091C69.8946 10.6844 69.8089 11.0454 69.5436 11.3163C69.272 11.5939 68.9408 11.6977 68.5376 11.6436C68.182 11.5959 67.9372 11.435 67.7269 11.1577C67.411 10.7412 67.4504 10.1576 67.8408 9.79924C68.113 9.54914 68.407 9.4441 68.8022 9.41017C69.5558 9.34524 70.4666 8.78914 70.6415 8.00722C70.6797 7.83609 70.7206 7.66263 70.7319 7.48857C70.7627 7.0062 71.0438 6.556 71.5349 6.41325C72.2729 6.19883 72.837 6.48199 73.0516 7.24285C73.0879 7.37185 73.12 7.50525 73.1297 7.63864C73.1767 8.29127 73.4935 8.75843 74.0381 9.09103C74.3873 9.30428 74.7526 9.37654 75.16 9.41837C75.7018 9.47365 76.2512 9.88318 76.2754 10.5788Z" fill="white"/>
<path d="M67.5198 13.5636C67.5198 13.0014 67.9715 12.5614 68.3888 12.5231C68.6662 12.4976 68.9504 12.4819 69.2165 12.4067C69.5846 12.3028 69.9237 12.1246 70.1908 11.8271C70.5003 11.4825 70.6758 11.0999 70.7112 10.6164C70.746 10.1402 70.9127 9.67534 71.4306 9.50977C72.2258 9.25526 73.1075 9.64344 73.0862 10.6C73.0773 10.9952 72.7974 11.4132 72.3564 11.5741C72.1198 11.6604 71.8939 11.6469 71.6623 11.6774C70.9676 11.7686 70.4158 12.0975 70.0715 12.7381C69.9063 13.0449 69.8102 13.372 69.8203 13.7283C69.8297 14.0562 69.9607 14.3396 70.1093 14.6181C70.3648 15.0973 70.7918 15.3714 71.2771 15.5153C71.6836 15.6359 72.1092 15.6326 72.5371 15.496C72.8997 15.3802 73.1716 15.1649 73.4283 14.9031C73.7009 14.6252 73.8489 14.292 73.8755 13.9009C73.9011 13.5258 73.9912 13.166 74.2594 12.8978C74.5344 12.6231 74.8666 12.5228 75.2694 12.5813C75.6244 12.6328 75.8674 12.7963 76.0743 13.0759C76.3854 13.4957 76.339 14.079 75.9446 14.433C75.6693 14.6802 75.3745 14.7819 74.9786 14.8118C74.2243 14.8686 73.3072 15.415 73.1231 16.1949C73.0828 16.3657 73.0401 16.5386 73.0269 16.7126C72.9904 17.1947 72.7043 17.642 72.2114 17.7795C71.4709 17.986 70.9102 17.6967 70.7045 16.9337C70.6697 16.8045 70.6392 16.6705 70.6309 16.5371C70.5913 15.8842 70.2802 15.4135 69.7397 15.0751C69.3929 14.858 69.0285 14.7819 68.6213 14.7357C68.0802 14.6749 67.5356 14.2595 67.5198 13.5636Z" fill="white"/>
</g>
<circle opacity="0.5" cx="7.15271" cy="7.922" r="1" stroke="white" stroke-width="1.80493"/>
<circle opacity="0.5" cx="13.016" cy="7.922" r="1" stroke="white" stroke-width="1.80493"/>
<circle opacity="0.5" cx="18.8793" cy="7.922" r="1" stroke="white" stroke-width="1.80493"/>
<g opacity="0.5">
<path d="M13.8261 15.5175C13.8817 15.5168 13.9368 15.5283 13.9876 15.5511C14.0383 15.5739 14.0834 15.6076 14.1198 15.6497L14.4135 15.9948C14.5903 16.1945 14.8072 16.3546 15.0502 16.4647C15.2931 16.5748 15.5565 16.6323 15.8233 16.6336C16.0765 16.6305 16.3264 16.5756 16.5575 16.472L16.9173 16.2958C16.971 16.2739 17.0282 16.2614 17.0862 16.2591C17.1784 16.2586 17.268 16.2896 17.3401 16.347C17.4122 16.4045 17.4625 16.4848 17.4826 16.5748L17.6148 17.0007C17.7288 17.3739 17.9547 17.703 18.2621 17.9433C18.5695 18.1837 18.9433 18.3237 19.3329 18.3444H19.7808C19.846 18.3462 19.91 18.3623 19.9684 18.3915C20.0267 18.4206 20.078 18.4622 20.1186 18.5132C20.155 18.5607 20.181 18.6153 20.195 18.6735C20.2089 18.7317 20.2104 18.7922 20.1994 18.851L20.1259 19.3136C20.0657 19.7012 20.1272 20.098 20.3022 20.4492C20.4771 20.8004 20.7567 21.0886 21.1025 21.274L21.4916 21.4796C21.5396 21.5049 21.5816 21.5403 21.6145 21.5834C21.6475 21.6265 21.6707 21.6763 21.6825 21.7292C21.6964 21.7894 21.6977 21.8517 21.6863 21.9124C21.6749 21.973 21.6511 22.0306 21.6164 22.0817L21.3815 22.4341C21.1454 22.7528 21.018 23.1389 21.018 23.5355C21.018 23.9321 21.1454 24.3182 21.3815 24.6368L21.6311 25.004C21.6651 25.0526 21.6891 25.1075 21.7017 25.1655C21.7143 25.2235 21.7153 25.2834 21.7046 25.3417C21.6907 25.4035 21.6639 25.4616 21.6259 25.5122C21.5879 25.5628 21.5397 25.6048 21.4843 25.6354L21.1319 25.841C20.7811 26.0292 20.4995 26.3243 20.3279 26.6834C20.1562 27.0425 20.1035 27.447 20.1773 27.8382V27.8822V27.9263L20.2948 28.3007C20.3018 28.4038 20.2704 28.5058 20.2067 28.5871C20.1704 28.6333 20.1249 28.6716 20.0731 28.6994C20.0213 28.7272 19.9643 28.7439 19.9057 28.7486H19.4504C19.0537 28.7833 18.678 28.9426 18.3773 29.2037C18.0766 29.4649 17.8663 29.8144 17.7763 30.2024L17.6662 30.6283C17.639 30.7151 17.5855 30.7914 17.5132 30.8466C17.4409 30.9018 17.3533 30.9333 17.2624 30.9367C17.2137 30.9442 17.1642 30.9442 17.1155 30.9367L16.6823 30.7458C16.4506 30.6466 16.2 30.599 15.9481 30.6063C15.6706 30.6024 15.3956 30.6588 15.142 30.7716C14.8885 30.8844 14.6624 31.051 14.4796 31.2597L14.1712 31.6195C14.1344 31.6635 14.0883 31.6989 14.0363 31.723C13.9842 31.7471 13.9275 31.7594 13.8702 31.759C13.8148 31.7579 13.7603 31.7456 13.7098 31.7229C13.6594 31.7002 13.614 31.6675 13.5765 31.6269L13.2754 31.2818C13.0143 30.9837 12.6653 30.7762 12.2787 30.6891C11.8921 30.6021 11.4878 30.6399 11.1241 30.7972L10.7276 30.9807C10.6693 30.9913 10.6096 30.9913 10.5514 30.9807C10.4614 30.98 10.3743 30.9493 10.3038 30.8934C10.2333 30.8375 10.1835 30.7597 10.1622 30.6723L10.1035 30.2024C9.99048 29.8287 9.76475 29.499 9.4572 29.2585C9.14965 29.018 8.77529 28.8784 8.38535 28.8588H7.93746C7.87226 28.8569 7.80825 28.8408 7.74992 28.8117C7.69158 28.7825 7.64031 28.7409 7.59971 28.6899C7.56242 28.6429 7.53587 28.5883 7.52191 28.5299C7.50796 28.4716 7.50695 28.4109 7.51894 28.3521L7.59236 27.8896C7.65374 27.5018 7.59265 27.1046 7.41761 26.7532C7.24257 26.4018 6.96229 26.1137 6.61582 25.9291L6.22667 25.7235C6.17844 25.6967 6.13648 25.6599 6.10357 25.6156C6.07065 25.5713 6.04754 25.5205 6.03576 25.4665C6.01903 25.4083 6.01563 25.347 6.0258 25.2873C6.03596 25.2276 6.05945 25.1709 6.0945 25.1214L6.3368 24.769C6.5696 24.449 6.695 24.0634 6.695 23.6676C6.695 23.2719 6.5696 22.8863 6.3368 22.5663L6.07248 22.2138C6.03671 22.1647 6.01169 22.1086 5.99904 22.0491C5.98639 21.9896 5.98639 21.9282 5.99905 21.8687C6.01382 21.8093 6.04024 21.7534 6.07679 21.7042C6.11334 21.655 6.1593 21.6136 6.21198 21.5824L6.57176 21.3695C6.92312 21.1785 7.20441 20.8804 7.37475 20.5186C7.54509 20.1568 7.5956 19.7501 7.51894 19.3576L7.43083 18.9538C7.42292 18.8968 7.42665 18.8388 7.4418 18.7832C7.45694 18.7277 7.48318 18.6758 7.51894 18.6307C7.55591 18.5822 7.60226 18.5416 7.65523 18.5113C7.70821 18.481 7.76673 18.4617 7.82732 18.4545H8.28256C8.68641 18.4377 9.07419 18.2916 9.38879 18.0378C9.70338 17.784 9.92818 17.4359 10.0301 17.0447L10.1402 16.6189C10.1654 16.5309 10.2183 16.4534 10.2911 16.3979C10.3638 16.3423 10.4525 16.3117 10.544 16.3105C10.5927 16.3029 10.6422 16.3029 10.6909 16.3105L11.1241 16.5014C11.3575 16.5943 11.6072 16.6392 11.8583 16.6336C12.136 16.639 12.4115 16.5832 12.6653 16.4703C12.9191 16.3574 13.1449 16.19 13.3268 15.9801L13.6352 15.6276C13.672 15.5836 13.7181 15.5483 13.7701 15.5242C13.8222 15.5001 13.8789 15.4878 13.9362 15.4882M13.9362 14.7539C13.7711 14.7539 13.6079 14.79 13.4583 14.8598C13.3086 14.9295 13.176 15.0312 13.0698 15.1577L12.7761 15.5028C12.6658 15.6276 12.5301 15.7275 12.3782 15.7958C12.2263 15.8642 12.0616 15.8995 11.895 15.8993C11.7491 15.9017 11.6042 15.8742 11.4692 15.8186L11.058 15.6423C10.9197 15.5792 10.7695 15.5467 10.6175 15.5469C10.3661 15.5485 10.1221 15.6318 9.92218 15.784C9.72223 15.9363 9.57714 16.1494 9.50874 16.3913L9.39126 16.8245C9.33576 17.0872 9.18856 17.3217 8.976 17.4858C8.76344 17.6499 8.49941 17.733 8.23116 17.7203H7.77592C7.61443 17.7325 7.45723 17.778 7.31417 17.854C7.17111 17.9299 7.0453 18.0346 6.94463 18.1615C6.84397 18.2883 6.77061 18.4346 6.72919 18.5912C6.68777 18.7478 6.67917 18.9112 6.70393 19.0713L6.79203 19.5045C6.83883 19.7403 6.80925 19.9849 6.70758 20.2027C6.60591 20.4206 6.43746 20.6004 6.22667 20.716L5.83752 20.9436C5.69571 21.0241 5.57247 21.1336 5.47584 21.265C5.37921 21.3964 5.31136 21.5466 5.27672 21.706C5.24208 21.8653 5.24142 22.0302 5.27479 22.1898C5.30817 22.3494 5.37482 22.5002 5.47039 22.6324L5.74207 22.9995C5.88915 23.1926 5.9688 23.4286 5.9688 23.6713C5.9688 23.914 5.88915 24.1501 5.74207 24.3431L5.49242 24.7103C5.40037 24.8428 5.33715 24.9931 5.30685 25.1515C5.27656 25.31 5.27985 25.473 5.31653 25.6301C5.35321 25.7872 5.42245 25.9349 5.51979 26.0635C5.61712 26.1922 5.74037 26.299 5.88157 26.377L6.27072 26.5826C6.48235 26.6989 6.653 26.8776 6.75942 27.0944C6.86584 27.3112 6.90287 27.5555 6.86546 27.7941L6.79203 28.2493C6.76599 28.4119 6.77462 28.5781 6.81734 28.737C6.86006 28.896 6.93591 29.0441 7.03991 29.1717C7.14392 29.2993 7.27373 29.4034 7.42082 29.4773C7.56791 29.5512 7.72896 29.5931 7.8934 29.6003H8.34863C8.58698 29.6128 8.8157 29.6984 9.0036 29.8456C9.1915 29.9927 9.32944 30.1943 9.39861 30.4227L9.53077 30.8559C9.59952 31.0923 9.74357 31.2999 9.94103 31.447C10.1385 31.5941 10.3786 31.6727 10.6248 31.6709C10.7839 31.6712 10.9414 31.6387 11.0874 31.5755L11.4985 31.3992C11.6392 31.3355 11.792 31.303 11.9464 31.3038C12.108 31.3041 12.2676 31.3389 12.4145 31.4061C12.5614 31.4732 12.6922 31.571 12.7982 31.6929L13.0992 32.038C13.2038 32.1592 13.3335 32.2561 13.4793 32.3221C13.6251 32.388 13.7836 32.4214 13.9436 32.4198C14.1087 32.4199 14.2719 32.3838 14.4216 32.314C14.5712 32.2442 14.7038 32.1425 14.81 32.016L15.1037 31.6709C15.2137 31.5452 15.3491 31.4442 15.501 31.3745C15.6528 31.3049 15.8177 31.2683 15.9848 31.2671C16.1304 31.2683 16.2747 31.2957 16.4107 31.3478L16.8218 31.5314C16.9599 31.5952 17.1103 31.6278 17.2624 31.6269C17.5137 31.6252 17.7577 31.542 17.9577 31.3897C18.1576 31.2374 18.3027 31.0243 18.3711 30.7825L18.4886 30.3493C18.5577 30.1139 18.7007 29.9069 18.8963 29.7589C19.0919 29.6109 19.3299 29.5295 19.5752 29.5269H20.0305C20.1887 29.5084 20.3414 29.4577 20.4793 29.3779C20.6172 29.2981 20.7373 29.191 20.8322 29.063C20.9271 28.9351 20.9949 28.7891 21.0312 28.634C21.0676 28.4789 21.0719 28.318 21.0437 28.1612L20.9042 27.728C20.8593 27.4915 20.8905 27.2467 20.9934 27.029C21.0963 26.8113 21.2656 26.6319 21.4769 26.5165L21.8661 26.2889C22.0079 26.2084 22.1311 26.0989 22.2278 25.9675C22.3244 25.8361 22.3922 25.6859 22.4269 25.5265C22.4615 25.3672 22.4622 25.2023 22.4288 25.0427C22.3954 24.8831 22.3288 24.7323 22.2332 24.6001L21.9836 24.233C21.837 24.0383 21.7578 23.8012 21.7578 23.5575C21.7578 23.3138 21.837 23.0767 21.9836 22.882L22.2332 22.5222C22.3253 22.3897 22.3885 22.2394 22.4188 22.081C22.4491 21.9225 22.4458 21.7595 22.4091 21.6024C22.3724 21.4453 22.3032 21.2976 22.2058 21.169C22.1085 21.0403 21.9853 20.9335 21.8441 20.8555L21.4549 20.6499C21.244 20.5328 21.074 20.3539 20.9677 20.1373C20.8614 19.9208 20.8238 19.6769 20.8602 19.4384L20.9336 18.9758C20.9597 18.8137 20.9511 18.6478 20.9083 18.4893C20.8655 18.3307 20.7896 18.183 20.6855 18.056C20.5813 17.929 20.4514 17.8255 20.3044 17.7524C20.1573 17.6794 19.9964 17.6384 19.8322 17.6321H19.377C19.1387 17.6197 18.9099 17.5341 18.722 17.3869C18.5341 17.2398 18.3962 17.0382 18.327 16.8098L18.1875 16.3766C18.1279 16.1356 17.9907 15.9209 17.7969 15.7656C17.6032 15.6103 17.3637 15.5232 17.1155 15.5175C16.9592 15.5209 16.8048 15.5532 16.6603 15.613L16.2711 15.7965C16.1305 15.8602 15.9777 15.8928 15.8233 15.892C15.6616 15.8922 15.5019 15.8575 15.3549 15.7904C15.2079 15.7232 15.0772 15.6251 14.9715 15.5028L14.6705 15.1577C14.5659 15.0366 14.4362 14.9396 14.2904 14.8737C14.1446 14.8078 13.9861 14.7744 13.8261 14.7759L13.9362 14.7539Z" fill="white"/>
<path d="M13.8634 18.453C14.8905 18.453 15.8945 18.7582 16.7479 19.3298C17.6013 19.9013 18.2656 20.7136 18.6567 21.6633C19.0477 22.6131 19.1477 23.6576 18.9441 24.6644C18.7405 25.6711 18.2424 26.5947 17.513 27.3179C16.7837 28.041 15.8559 28.5312 14.8474 28.7262C13.839 28.9213 12.7954 28.8123 11.849 28.4132C10.9025 28.0141 10.096 27.3428 9.53177 26.4846C8.9675 25.6263 8.67091 24.6198 8.67964 23.5927C8.69317 22.2261 9.24505 20.92 10.2155 19.9578C11.186 18.9956 12.4968 18.4549 13.8634 18.453ZM13.8634 17.7188C12.6911 17.7188 11.5452 18.067 10.571 18.7193C9.59686 19.3715 8.83838 20.2984 8.39179 21.3823C7.94519 22.4663 7.8306 23.6585 8.06254 24.8076C8.29448 25.9568 8.86251 27.0112 9.69457 27.837C10.5266 28.6629 11.5852 29.223 12.7361 29.4464C13.887 29.6697 15.0783 29.5462 16.1588 29.0916C17.2394 28.6369 18.1606 27.8715 18.8056 26.8925C19.4505 25.9135 19.7902 24.765 19.7814 23.5927C19.7698 22.0308 19.1412 20.5368 18.0326 19.4365C16.924 18.3362 15.4254 17.7187 13.8634 17.7188Z" fill="white"/>
<path d="M20.9708 37.1761H20.9194L18.3055 36.809C18.2502 36.801 18.1975 36.7803 18.1516 36.7484C18.1057 36.7165 18.0679 36.6744 18.0411 36.6254L16.1615 33.3874C16.1187 33.3156 16.1016 33.2315 16.1131 33.1487C16.1246 33.066 16.164 32.9896 16.2248 32.9323C16.2855 32.875 16.364 32.8401 16.4473 32.8334C16.5306 32.8267 16.6136 32.8486 16.6828 32.8954C17.1715 33.171 17.7485 33.2448 18.2908 33.101C18.7241 32.9219 19.1138 32.6515 19.4331 32.3081C19.7524 31.9647 19.9939 31.5565 20.1411 31.1112C20.1701 31.0488 20.2154 30.9954 20.2723 30.9566C20.3291 30.9178 20.3954 30.8951 20.4641 30.891C20.5326 30.8881 20.6006 30.9044 20.6603 30.9381C20.72 30.9719 20.769 31.0217 20.8019 31.0819L22.3291 33.872C22.3509 33.9192 22.3621 33.9705 22.3621 34.0225C22.3621 34.0745 22.3509 34.1258 22.3291 34.173L21.2938 36.9632C21.2651 37.0252 21.2197 37.078 21.1626 37.1156C21.1056 37.1533 21.0391 37.1742 20.9708 37.1761ZM18.5918 36.0747L20.7285 36.3978L21.6022 34.0482L20.4862 32.0143C20.0772 32.8408 19.36 33.4737 18.489 33.7765C18.1032 33.8914 17.6957 33.9141 17.2995 33.8426L18.5918 36.0747Z" fill="white"/>
<path d="M7.15972 37.178C7.08427 37.1779 7.01066 37.1547 6.94891 37.1113C6.88717 37.0679 6.84028 37.0066 6.81463 36.9357L5.77934 34.1455C5.7576 34.0983 5.74634 34.047 5.74634 33.995C5.74634 33.943 5.7576 33.8917 5.77934 33.8445L7.30657 31.0544C7.34007 30.9947 7.38925 30.9454 7.4488 30.9118C7.50834 30.8781 7.57596 30.8614 7.64432 30.8635C7.71303 30.8676 7.77933 30.8903 7.8362 30.9291C7.89307 30.9679 7.9384 31.0213 7.96739 31.0837C8.11456 31.529 8.35603 31.9372 8.67535 32.2806C8.99467 32.624 9.38431 32.8945 9.81769 33.0735C10.3626 33.2139 10.9406 33.1403 11.433 32.8679C11.5011 32.8219 11.5831 32.8011 11.6649 32.8092C11.7467 32.8172 11.8231 32.8536 11.8809 32.912C11.9404 32.9685 11.9792 33.0434 11.9912 33.1245C12.0032 33.2057 11.9876 33.2886 11.947 33.3599L10.0673 36.5979C10.0405 36.6469 10.0027 36.689 9.95684 36.7209C9.91096 36.7527 9.85829 36.7735 9.80301 36.7815L7.18909 37.1706L7.15972 37.178ZM6.52827 34.0501L7.40202 36.3997L9.53868 36.0766L10.8383 33.8739C10.4396 33.9454 10.0298 33.9228 9.64147 33.8078C8.77169 33.5029 8.05518 32.8706 7.64432 32.0456L6.52827 34.0501Z" fill="white"/>
<path d="M11.713 24.2347C11.723 24.5623 11.7574 24.8887 11.8158 25.2113V25.9455H11.5001V24.2421H11.691M12.1022 23.5078H11.2945C11.1543 23.5078 11.0199 23.5635 10.9207 23.6626C10.8216 23.7618 10.7659 23.8963 10.7659 24.0365V26.1584C10.7659 26.2275 10.7796 26.2959 10.8062 26.3596C10.8329 26.4234 10.872 26.4812 10.9211 26.5297C10.9703 26.5782 11.0287 26.6164 11.0928 26.6422C11.1569 26.668 11.2255 26.6807 11.2945 26.6797H12.1022C12.1669 26.6855 12.232 26.6756 12.2921 26.6508C12.3521 26.626 12.4053 26.5871 12.4471 26.5373C12.4889 26.4876 12.5181 26.4286 12.5322 26.3651C12.5463 26.3017 12.5448 26.2359 12.5281 26.1731V25.1525C12.4263 24.6552 12.3966 24.1458 12.4399 23.64C12.3455 23.559 12.2265 23.5125 12.1022 23.5078Z" fill="white"/>
<path d="M13.8328 23.0862C13.8611 23.1918 13.9084 23.2913 13.9723 23.3799C14.0512 23.4891 14.155 23.5779 14.275 23.6392C14.3949 23.7005 14.5277 23.7324 14.6625 23.7324C14.7422 23.733 14.8216 23.7206 14.8974 23.6957H14.9708L15.1397 23.659C15.3501 23.6172 15.564 23.595 15.7785 23.5929H15.9621C15.9079 23.7019 15.8899 23.8254 15.9107 23.9453C15.9206 24.0231 15.9458 24.0983 15.9849 24.1663C16.0239 24.2343 16.0761 24.294 16.1383 24.3418C16.0345 24.4419 15.9717 24.5771 15.9622 24.721C15.9527 24.8649 15.9972 25.0072 16.0869 25.1201C16.0745 25.1369 16.0597 25.1518 16.0428 25.1642C15.9316 25.2476 15.8463 25.3609 15.7969 25.4908C15.7475 25.6208 15.736 25.7622 15.7638 25.8984C15.6864 25.9346 15.6051 25.9617 15.5215 25.9792C15.3836 26.0054 15.2434 26.0177 15.103 26.0159H14.6551H14.6111C14.266 26.0159 13.8768 26.0159 13.5611 26.0159C13.5516 25.9947 13.5392 25.975 13.5244 25.9571C13.4447 25.8086 13.3925 25.6469 13.3702 25.4799C13.3744 25.4531 13.3744 25.4259 13.3702 25.3991C13.3743 25.3748 13.3743 25.35 13.3702 25.3257C13.3722 25.3013 13.3722 25.2767 13.3702 25.2523C13.3737 25.2304 13.3737 25.2081 13.3702 25.1862C13.2938 24.7872 13.2642 24.3806 13.2821 23.9747C13.2821 23.9747 13.3261 23.9086 13.3555 23.8645C13.5836 23.6494 13.779 23.402 13.9355 23.1303M14.2513 20.5164C13.9649 20.5164 14.0604 21.1405 14.0604 21.1405C14.0604 21.1405 13.4436 22.8586 12.8415 23.3432C12.7131 23.4816 12.6177 23.6473 12.5625 23.8278C12.5192 24.3336 12.5489 24.843 12.6506 25.3404C12.6624 25.415 12.6795 25.4886 12.702 25.5606C12.7415 25.8203 12.8313 26.0697 12.9663 26.2949C13.0243 26.3952 13.1037 26.4814 13.1989 26.5475C13.2941 26.6135 13.4028 26.6576 13.517 26.6767H13.5611C13.8915 26.6767 14.2953 26.7134 14.6992 26.7134H15.1911C15.3861 26.7172 15.5809 26.6975 15.7712 26.6547C16.8211 26.4344 16.5641 25.7002 16.5641 25.7002C16.7175 25.5992 16.8274 25.4444 16.8723 25.2663C16.9171 25.0883 16.8936 24.8999 16.8065 24.7383C16.8774 24.679 16.9345 24.6049 16.9736 24.5212C17.0128 24.4374 17.0331 24.3461 17.0331 24.2537C17.0331 24.1613 17.0128 24.0699 16.9736 23.9862C16.9345 23.9025 16.8774 23.8284 16.8065 23.7691C16.8804 23.6564 16.9128 23.5214 16.8981 23.3875C16.8833 23.2535 16.8224 23.1288 16.7257 23.0348C16.4851 22.869 16.1946 22.7912 15.9033 22.8146C15.6346 22.817 15.3668 22.8441 15.103 22.8953L14.8313 22.9614H14.7873C14.6845 22.9614 14.5156 22.8513 14.8313 21.8747C15.2498 20.6192 14.5523 20.4062 14.2733 20.4062L14.2513 20.5164Z" fill="white"/>
</g>
<path opacity="0.5" d="M9.70337 47.4465L10.602 48.682C10.7146 48.8368 10.9329 48.8681 11.0844 48.751L14.2924 46.2734" stroke="white" stroke-linecap="round"/>
<rect opacity="0.5" x="7.02368" y="43.6211" width="9.95196" height="7.99268" rx="1" stroke="white"/>
<path opacity="0.5" d="M48.7034 47.4465L49.602 48.682C49.7146 48.8368 49.9329 48.8681 50.0844 48.751L53.2924 46.2734" stroke="white" stroke-linecap="round"/>
<rect opacity="0.5" x="46.0237" y="43.6211" width="9.95196" height="7.99268" rx="1" stroke="white"/>
<path opacity="0.5" d="M9.70337 77.3645L10.602 78.6C10.7146 78.7548 10.9329 78.786 11.0844 78.669L14.2924 76.1914" stroke="white" stroke-linecap="round"/>
<rect opacity="0.5" x="7.02368" y="73.5391" width="9.95196" height="7.99268" rx="1" stroke="white"/>
<path opacity="0.5" d="M48.7034 77.3645L49.602 78.6C49.7146 78.7548 49.9329 78.786 50.0844 78.669L53.2924 76.1914" stroke="white" stroke-linecap="round"/>
<rect opacity="0.5" x="46.0237" y="73.5391" width="9.95196" height="7.99268" rx="1" stroke="white"/>
</svg>
