<svg width="82" height="90" viewBox="0 0 82 90" fill="none" xmlns="http://www.w3.org/2000/svg">
<rect x="0.0742188" y="0.957031" width="81.6146" height="88.3459" rx="4" fill="#012842"/>
<g opacity="0.5" clip-path="url(#clip0_734_44550)">
<path d="M62.9387 69.7607C62.79 69.5186 62.5574 69.3397 62.2853 69.2581L61.0957 68.9566C61.042 68.2659 60.9013 67.5848 60.6769 66.9294L61.6654 66.1923C61.78 66.1108 61.8771 66.0073 61.9511 65.8877C62.0251 65.7682 62.0745 65.635 62.0964 65.4961C62.1182 65.3572 62.1121 65.2154 62.0784 65.0789C62.0447 64.9424 61.984 64.814 61.9 64.7012L60.2246 62.3893C60.0483 62.1611 59.7897 62.0108 59.5042 61.9705C59.3661 61.9483 59.2251 61.9548 59.0896 61.9894C58.9542 62.0239 58.8273 62.0859 58.7168 62.1715L57.7117 62.9254C57.0789 62.4708 56.3775 62.1202 55.6342 61.8867V60.647C55.6365 60.5041 55.6099 60.3622 55.5557 60.23C55.5016 60.0977 55.4213 59.9778 55.3194 59.8776C55.2176 59.7773 55.0965 59.6988 54.9634 59.6467C54.8303 59.5947 54.6881 59.5702 54.5453 59.5748H51.6804C51.3961 59.5748 51.1234 59.6877 50.9223 59.8888C50.7212 60.0899 50.6082 60.3626 50.6082 60.647V61.8867C49.95 62.089 49.328 62.3944 48.7654 62.7914L47.7769 61.9872C47.6702 61.9 47.5468 61.8357 47.4142 61.7983C47.2816 61.7608 47.1428 61.751 47.0063 61.7694C46.862 61.7804 46.7216 61.8219 46.5945 61.8913C46.4675 61.9606 46.3565 62.0561 46.2692 62.1715L44.4096 64.3997C44.3172 64.507 44.2486 64.6326 44.2081 64.7683C44.1677 64.904 44.1564 65.0467 44.175 65.1871C44.1827 65.3276 44.223 65.4643 44.2928 65.5865C44.3626 65.7086 44.46 65.8128 44.5771 65.8907L45.5656 66.6781C45.3155 67.3239 45.1521 67.9999 45.0796 68.6885L43.8231 68.9398C43.5531 69.0112 43.3201 69.1822 43.1709 69.4184C43.0217 69.6546 42.9674 69.9385 43.019 70.2131L43.6557 73.0444C43.6733 73.1816 43.7216 73.3131 43.797 73.4291C43.8724 73.5451 43.973 73.6427 44.0913 73.7145C44.2713 73.8306 44.4801 73.8944 44.6944 73.8988H44.9122L46.1686 73.6307C46.494 74.2491 46.9121 74.8141 47.4084 75.3061L46.822 76.4285C46.7211 76.6871 46.7211 76.9741 46.822 77.2327C46.8619 77.3683 46.9303 77.4939 47.0228 77.6008C47.1153 77.7077 47.2296 77.7936 47.3581 77.8525L49.9549 79.1425C50.087 79.22 50.2373 79.2605 50.3904 79.2598C50.5931 79.2621 50.7925 79.2086 50.9668 79.1051C51.1411 79.0017 51.2837 78.8524 51.3789 78.6735L51.9318 77.5342C52.318 77.6093 52.7111 77.643 53.1045 77.6348H53.9924L54.5117 78.7572C54.6432 79.0154 54.8633 79.2176 55.1316 79.3268C55.2538 79.3442 55.378 79.3442 55.5002 79.3268C55.651 79.3253 55.7995 79.291 55.9357 79.2263L58.5493 78.0201C58.8057 77.903 59.0057 77.6898 59.106 77.4264C59.2063 77.163 59.1989 76.8708 59.0853 76.6128L58.566 75.4736C59.074 75.0041 59.5241 74.4754 59.9063 73.8988L61.079 74.2003H61.3303C61.5731 74.205 61.8105 74.1285 62.0048 73.9828C62.1991 73.837 62.3391 73.6306 62.4025 73.3962L63.0894 70.5984C63.138 70.4575 63.1496 70.3066 63.1232 70.1599C63.0968 70.0132 63.0333 69.8758 62.9387 69.7607ZM61.1628 72.9103L59.4875 72.458C59.441 72.4494 59.3929 72.4562 59.3506 72.4774C59.3083 72.4985 59.274 72.5329 59.2529 72.5753C58.8936 73.1759 58.4725 73.7374 57.9964 74.2506C57.7701 74.4973 57.5107 74.7115 57.2257 74.8872C57.1959 74.9255 57.1796 74.9727 57.1796 75.0212C57.1796 75.0698 57.1959 75.117 57.2257 75.1553L57.9629 76.8306L55.6342 77.8358L54.897 76.1605C54.8766 76.1251 54.8474 76.0957 54.8122 76.0751C54.7769 76.0546 54.7368 76.0436 54.696 76.0432C54.3549 76.1212 54.007 76.1661 53.6573 76.1772C53.535 76.1938 53.4111 76.1938 53.2888 76.1772H52.6521H52.5516C52.1604 76.2189 51.7651 76.202 51.3789 76.127C51.3318 76.1129 51.2813 76.1152 51.2357 76.1334C51.1901 76.1517 51.1519 76.1848 51.1275 76.2275L50.2229 77.9028L48.0282 76.7133L48.8659 75.038C48.8958 74.9997 48.912 74.9525 48.912 74.904C48.912 74.8554 48.8958 74.8082 48.8659 74.7699C48.5915 74.5857 48.3531 74.353 48.1623 74.0831C47.9029 73.8242 47.6725 73.5377 47.4753 73.2287C47.2766 72.9515 47.1081 72.6538 46.9728 72.3407C46.9547 72.2997 46.9235 72.2659 46.884 72.2446C46.8446 72.2234 46.7991 72.2159 46.755 72.2235L44.8954 72.5585L44.4096 70.079L45.1969 69.9115L46.1183 69.7272C46.1657 69.7192 46.2086 69.6946 46.2393 69.6577C46.27 69.6208 46.2866 69.5742 46.2859 69.5262C46.2684 69.1913 46.2684 68.8558 46.2859 68.521C46.2859 68.1692 46.4534 67.8006 46.5539 67.432C46.6448 67.1025 46.7801 66.7869 46.956 66.4938C46.9834 66.4545 46.9981 66.4077 46.9981 66.3598C46.9981 66.3119 46.9834 66.2651 46.956 66.2258L45.5152 65.0196L47.1906 63.0594L48.6313 64.2154C48.6682 64.2484 48.7159 64.2666 48.7654 64.2666C48.8148 64.2666 48.8626 64.2484 48.8994 64.2154C49.1448 64.003 49.4082 63.8124 49.6868 63.6458C50.0134 63.4447 50.3618 63.2817 50.7255 63.1599C51.035 63.0178 51.3616 62.9165 51.6972 62.8584C51.7431 62.8476 51.7843 62.8221 51.8145 62.7858C51.8447 62.7496 51.8623 62.7045 51.8647 62.6574V60.7977H54.4112V62.7244C54.4105 62.7724 54.4271 62.819 54.4578 62.8559C54.4886 62.8927 54.5314 62.9174 54.5787 62.9254C54.9107 62.9902 55.236 63.0856 55.5504 63.2102C55.9683 63.373 56.3672 63.5808 56.7399 63.8301C57.0347 64.0007 57.3099 64.203 57.5608 64.4332C57.5984 64.457 57.642 64.4697 57.6865 64.4697C57.731 64.4697 57.7746 64.457 57.8122 64.4332L59.3534 63.3442L60.8277 65.4049L59.387 66.4938C59.3584 66.5295 59.3428 66.5738 59.3428 66.6195C59.3428 66.6652 59.3584 66.7095 59.387 66.7451C59.5286 67.0579 59.6407 67.3832 59.722 67.7168C59.8387 68.0689 59.9063 68.4353 59.923 68.8058V69.0906C59.9155 69.1063 59.9117 69.1235 59.9117 69.1409C59.9117 69.1582 59.9155 69.1754 59.923 69.1911V69.3922C59.9322 69.4532 59.9322 69.5154 59.923 69.5764C59.9125 69.6028 59.9083 69.6312 59.9106 69.6595C59.9129 69.6877 59.9216 69.7151 59.9362 69.7394C59.9508 69.7637 59.9708 69.7843 59.9947 69.7997C60.0185 69.815 60.0456 69.8246 60.0738 69.8277L61.8832 70.3471L61.1628 72.9103Z" fill="white"/>
<path d="M53.0534 65.5053C52.2589 65.5087 51.4832 65.7473 50.8242 66.1911C50.1652 66.6349 49.6525 67.264 49.3507 67.999C49.049 68.734 48.9717 69.5419 49.1287 70.3208C49.2858 71.0996 49.67 71.8145 50.233 72.3751C50.796 72.9358 51.5125 73.317 52.292 73.4708C53.0715 73.6246 53.879 73.544 54.6127 73.2392C55.3464 72.9344 55.9735 72.419 56.4145 71.7582C56.8556 71.0974 57.0909 70.3206 57.0909 69.5261C57.0909 68.9967 56.9865 68.4725 56.7834 67.9836C56.5802 67.4946 56.2826 67.0506 55.9074 66.6771C55.5323 66.3035 55.087 66.0077 54.5973 65.8066C54.1075 65.6055 53.5829 65.5031 53.0534 65.5053ZM53.0534 72.3407C52.307 72.3407 51.5911 72.0441 51.0633 71.5163C50.5355 70.9885 50.2389 70.2726 50.2389 69.5261C50.2389 68.7797 50.5355 68.0638 51.0633 67.5359C51.5911 67.0081 52.307 66.7116 53.0534 66.7116C53.4231 66.7116 53.789 66.7844 54.1305 66.9258C54.472 67.0673 54.7823 67.2746 55.0436 67.5359C55.305 67.7973 55.5123 68.1076 55.6538 68.449C55.7952 68.7905 55.868 69.1565 55.868 69.5261C55.868 69.8957 55.7952 70.2617 55.6538 70.6032C55.5123 70.9447 55.305 71.255 55.0436 71.5163C54.7823 71.7777 54.472 71.985 54.1305 72.1264C53.789 72.2679 53.4231 72.3407 53.0534 72.3407Z" fill="white"/>
</g>
<g opacity="0.5" clip-path="url(#clip1_734_44550)">
<path d="M75.0941 74.0895C75.0127 73.9568 74.8852 73.8588 74.7361 73.8141L74.0843 73.6489C74.0549 73.2704 73.9777 72.8972 73.8548 72.5381L74.3964 72.1342C74.4592 72.0895 74.5124 72.0328 74.553 71.9673C74.5935 71.9018 74.6206 71.8288 74.6326 71.7527C74.6446 71.6766 74.6412 71.5989 74.6227 71.5241C74.6042 71.4493 74.571 71.3789 74.525 71.3172L73.607 70.0503C73.5103 69.9253 73.3686 69.8429 73.2122 69.8208C73.1365 69.8087 73.0592 69.8122 72.985 69.8312C72.9108 69.8501 72.8413 69.8841 72.7807 69.931L72.23 70.3441C71.8832 70.095 71.4989 69.9029 71.0916 69.7749V69.0956C71.0929 69.0173 71.0783 68.9396 71.0486 68.8671C71.019 68.7947 70.9749 68.729 70.9191 68.674C70.8633 68.6191 70.797 68.5761 70.724 68.5476C70.6511 68.519 70.5732 68.5056 70.4949 68.5081H68.9251C68.7693 68.5081 68.6199 68.57 68.5097 68.6802C68.3996 68.7904 68.3376 68.9398 68.3376 69.0956V69.7749C67.9769 69.8858 67.6361 70.0531 67.3278 70.2707L66.7862 69.83C66.7277 69.7823 66.6601 69.747 66.5875 69.7265C66.5148 69.706 66.4388 69.7006 66.364 69.7107C66.2849 69.7167 66.208 69.7395 66.1383 69.7774C66.0687 69.8154 66.0079 69.8678 65.96 69.931L64.9411 71.1519C64.8905 71.2107 64.8528 71.2796 64.8307 71.3539C64.8086 71.4283 64.8024 71.5065 64.8125 71.5834C64.8168 71.6604 64.8388 71.7353 64.8771 71.8022C64.9153 71.8692 64.9687 71.9262 65.0329 71.9689L65.5745 72.4004C65.4375 72.7542 65.3479 73.1247 65.3082 73.502L64.6197 73.6397C64.4717 73.6788 64.3441 73.7725 64.2623 73.9019C64.1806 74.0314 64.1509 74.1869 64.1791 74.3374L64.528 75.8888C64.5376 75.964 64.5641 76.036 64.6054 76.0996C64.6467 76.1632 64.7019 76.2166 64.7667 76.256C64.8653 76.3196 64.9797 76.3546 65.0971 76.357H65.2165L65.905 76.2101C66.0833 76.5489 66.3123 76.8585 66.5843 77.1281L66.263 77.7431C66.2077 77.8848 66.2077 78.0421 66.263 78.1838C66.2848 78.2581 66.3223 78.3269 66.373 78.3855C66.4237 78.4441 66.4863 78.4911 66.5567 78.5234L67.9796 79.2303C68.052 79.2727 68.1344 79.2949 68.2183 79.2946C68.3293 79.2958 68.4386 79.2665 68.5341 79.2098C68.6296 79.1531 68.7078 79.0713 68.7599 78.9733L69.0629 78.349C69.2745 78.3901 69.4899 78.4086 69.7055 78.4041H70.192L70.4766 79.0192C70.5486 79.1606 70.6692 79.2714 70.8162 79.3313C70.8832 79.3408 70.9512 79.3408 71.0182 79.3313C71.1008 79.3305 71.1822 79.3117 71.2568 79.2762L72.689 78.6152C72.8294 78.5511 72.939 78.4342 72.994 78.2899C73.049 78.1456 73.0449 77.9855 72.9827 77.8441L72.6981 77.2199C72.9765 76.9626 73.2231 76.6729 73.4325 76.357L74.0751 76.5222H74.2128C74.3458 76.5248 74.4759 76.4828 74.5824 76.403C74.6888 76.3231 74.7656 76.21 74.8003 76.0816L75.1767 74.5485C75.2033 74.4713 75.2097 74.3886 75.1952 74.3082C75.1808 74.2279 75.146 74.1526 75.0941 74.0895ZM74.121 75.8154L73.203 75.5675C73.1775 75.5628 73.1512 75.5665 73.128 75.5781C73.1048 75.5897 73.086 75.6085 73.0745 75.6317C72.8776 75.9609 72.6468 76.2686 72.386 76.5497C72.262 76.6849 72.1199 76.8023 71.9637 76.8986C71.9473 76.9196 71.9384 76.9454 71.9384 76.972C71.9384 76.9986 71.9473 77.0245 71.9637 77.0455L72.3676 77.9635L71.0916 78.5143L70.6877 77.5963C70.6765 77.5769 70.6605 77.5608 70.6412 77.5495C70.6219 77.5382 70.5999 77.5322 70.5775 77.532C70.3906 77.5748 70.2 77.5994 70.0084 77.6054C69.9414 77.6145 69.8735 77.6145 69.8064 77.6054H69.4576H69.4025C69.1881 77.6283 68.9715 77.619 68.7599 77.5779C68.7341 77.5702 68.7065 77.5715 68.6815 77.5815C68.6565 77.5915 68.6356 77.6096 68.6222 77.633L68.1265 78.551L66.9239 77.8992L67.3829 76.9812C67.3993 76.9602 67.4082 76.9344 67.4082 76.9078C67.4082 76.8812 67.3993 76.8553 67.3829 76.8343C67.2326 76.7334 67.1019 76.6058 66.9974 76.4579C66.8552 76.3161 66.729 76.1591 66.621 75.9898C66.5121 75.8379 66.4197 75.6748 66.3456 75.5032C66.3357 75.4808 66.3186 75.4622 66.2969 75.4506C66.2753 75.4389 66.2504 75.4348 66.2262 75.439L65.2073 75.6226L64.9411 74.2639L65.3725 74.1721L65.8774 74.0712C65.9033 74.0668 65.9268 74.0533 65.9437 74.0331C65.9605 74.0129 65.9696 73.9873 65.9692 73.961C65.9596 73.7775 65.9596 73.5937 65.9692 73.4102C65.9692 73.2174 66.061 73.0155 66.1161 72.8135C66.1659 72.6329 66.24 72.46 66.3364 72.2994C66.3514 72.2779 66.3595 72.2522 66.3595 72.226C66.3595 72.1997 66.3514 72.1741 66.3364 72.1525L65.5469 71.4916L66.4649 70.4175L67.2544 71.051C67.2746 71.069 67.3007 71.079 67.3278 71.079C67.3549 71.079 67.3811 71.069 67.4013 71.051C67.5358 70.9346 67.6801 70.8301 67.8327 70.7388C68.0117 70.6287 68.2026 70.5394 68.4019 70.4726C68.5715 70.3947 68.7505 70.3392 68.9343 70.3074C68.9595 70.3014 68.982 70.2875 68.9986 70.2676C69.0152 70.2478 69.0248 70.223 69.0261 70.1972V69.1782H70.4215V70.2339C70.4211 70.2602 70.4302 70.2858 70.447 70.306C70.4639 70.3262 70.4873 70.3397 70.5133 70.3441C70.6952 70.3796 70.8734 70.4319 71.0457 70.5002C71.2747 70.5893 71.4933 70.7032 71.6975 70.8398C71.859 70.9333 72.0098 71.0441 72.1473 71.1703C72.1679 71.1834 72.1918 71.1903 72.2162 71.1903C72.2406 71.1903 72.2645 71.1834 72.285 71.1703L73.1296 70.5736L73.9374 71.7027L73.148 72.2994C73.1323 72.319 73.1238 72.3432 73.1238 72.3683C73.1238 72.3933 73.1323 72.4176 73.148 72.4371C73.2256 72.6085 73.287 72.7868 73.3315 72.9696C73.3955 73.1625 73.4325 73.3632 73.4417 73.5663V73.7223C73.4376 73.7309 73.4355 73.7403 73.4355 73.7499C73.4355 73.7594 73.4376 73.7688 73.4417 73.7774V73.8876C73.4467 73.921 73.4467 73.9551 73.4417 73.9885C73.4359 74.003 73.4336 74.0185 73.4349 74.034C73.4361 74.0495 73.4409 74.0645 73.4489 74.0778C73.4569 74.0912 73.4679 74.1025 73.4809 74.1109C73.494 74.1192 73.5089 74.1245 73.5243 74.1262L74.5158 74.4108L74.121 75.8154Z" fill="white"/>
<path d="M69.6776 71.7578C69.2423 71.7596 68.8172 71.8904 68.4561 72.1336C68.095 72.3768 67.8141 72.7215 67.6487 73.1242C67.4834 73.527 67.4411 73.9697 67.5271 74.3964C67.6131 74.8232 67.8237 75.2149 68.1322 75.5221C68.4407 75.8293 68.8333 76.0383 69.2604 76.1225C69.6875 76.2068 70.13 76.1626 70.532 75.9956C70.9341 75.8286 71.2777 75.5462 71.5193 75.1841C71.761 74.822 71.89 74.3964 71.89 73.961C71.89 73.6709 71.8327 73.3837 71.7214 73.1158C71.6102 72.8479 71.4471 72.6046 71.2415 72.3999C71.0359 72.1952 70.7919 72.0331 70.5236 71.9229C70.2552 71.8127 69.9677 71.7566 69.6776 71.7578ZM69.6776 75.5033C69.2686 75.5033 68.8764 75.3408 68.5871 75.0515C68.2979 74.7623 68.1354 74.37 68.1354 73.961C68.1354 73.552 68.2979 73.1597 68.5871 72.8705C68.8764 72.5813 69.2686 72.4188 69.6776 72.4188C69.8802 72.4188 70.0807 72.4587 70.2678 72.5362C70.4549 72.6137 70.6249 72.7273 70.7682 72.8705C70.9114 73.0137 71.025 73.1837 71.1025 73.3708C71.18 73.5579 71.2199 73.7585 71.2199 73.961C71.2199 74.1635 71.18 74.3641 71.1025 74.5512C71.025 74.7383 70.9114 74.9083 70.7682 75.0515C70.6249 75.1948 70.4549 75.3084 70.2678 75.3859C70.0807 75.4634 69.8802 75.5033 69.6776 75.5033Z" fill="white"/>
</g>
<path opacity="0.5" d="M11.2344 36.3293L12.133 37.5648C12.2456 37.7196 12.4639 37.7509 12.6154 37.6339L15.8235 35.1562" stroke="white" stroke-linecap="round"/>
<rect opacity="0.5" x="8.55469" y="32.5039" width="9.95196" height="7.99268" rx="1" stroke="white"/>
<path opacity="0.5" d="M11.2344 49.2395L12.133 50.475C12.2456 50.6298 12.4639 50.661 12.6154 50.544L15.8235 48.0664" stroke="white" stroke-linecap="round"/>
<rect opacity="0.5" x="8.55469" y="45.4141" width="9.95196" height="7.99268" rx="1" stroke="white"/>
<path opacity="0.5" d="M11.2344 62.1536L12.133 63.389C12.2456 63.5439 12.4639 63.5751 12.6154 63.4581L15.8235 60.9805" stroke="white" stroke-linecap="round"/>
<rect opacity="0.5" x="8.55469" y="58.3281" width="9.95196" height="7.99268" rx="1" stroke="white"/>
<rect opacity="0.5" x="9.05469" y="73.5625" width="25.0557" height="1.08325" rx="0.541626" fill="white"/>
<rect opacity="0.5" x="9.05469" y="78.2578" width="17.2031" height="1.08325" rx="0.541626" fill="white"/>
<rect opacity="0.5" x="48.3672" y="44.7812" width="25.0557" height="1.08325" rx="0.541626" fill="white"/>
<rect opacity="0.5" x="48.3672" y="33.0039" width="18.1191" height="1.08325" rx="0.541626" fill="white"/>
<rect opacity="0.5" x="48.3672" y="49.4805" width="17.2031" height="1.08325" rx="0.541626" fill="white"/>
<rect opacity="0.5" x="48.3672" y="37.6992" width="12.4405" height="1.08325" rx="0.541626" fill="white"/>
<rect opacity="0.5" x="1.07422" y="1.95703" width="79.6146" height="86.3459" rx="3" stroke="white" stroke-width="2"/>
<g opacity="0.5">
<path d="M76.2751 10.5788C76.2815 11.141 75.835 11.5857 75.4184 11.6284C75.1412 11.6568 74.8573 11.6758 74.5921 11.7536C74.2252 11.8612 73.8883 12.0432 73.6246 12.3433C73.319 12.6914 73.1481 13.0758 73.1182 13.5597C73.0889 14.0362 72.9277 14.5027 72.4116 14.6739C71.6195 14.9369 70.7334 14.5583 70.7435 13.6015C70.7478 13.2063 71.0228 12.7854 71.4621 12.6198C71.6977 12.5308 71.9235 12.542 72.1549 12.5089C72.8484 12.4103 73.3962 12.0757 73.7332 11.4312C73.8947 11.1226 73.9872 10.7944 73.9728 10.4384C73.9597 10.1105 73.8168 9.72756 73.6261 9.47335C73.3041 9.04422 72.982 8.80553 72.4952 8.66716C72.0874 8.55103 71.6619 8.55863 71.2355 8.69992C70.8745 8.81957 70.6049 9.03807 70.3513 9.30223C70.0821 9.58307 69.938 9.91801 69.9158 10.3091C69.8944 10.6844 69.8086 11.0454 69.5434 11.3163C69.2717 11.5939 68.9406 11.6977 68.5374 11.6436C68.1818 11.5959 67.937 11.435 67.7267 11.1577C67.4108 10.7412 67.4501 10.1576 67.8405 9.79924C68.1128 9.54914 68.4067 9.4441 68.802 9.41017C69.5556 9.34524 70.4664 8.78914 70.6413 8.00722C70.6794 7.83609 70.7203 7.66263 70.7316 7.48857C70.7625 7.0062 71.0436 6.556 71.5346 6.41325C72.2727 6.19883 72.8367 6.48199 73.0513 7.24285C73.0877 7.37185 73.1197 7.50525 73.1295 7.63864C73.1765 8.29127 73.4933 8.75843 74.0378 9.09103C74.387 9.30428 74.7523 9.37654 75.1598 9.41837C75.7016 9.47365 76.251 9.88318 76.2751 10.5788Z" fill="white"/>
<path d="M67.5195 13.5636C67.5195 13.0014 67.9713 12.5614 68.3885 12.5231C68.666 12.4976 68.9501 12.4819 69.2163 12.4067C69.5844 12.3028 69.9235 12.1246 70.1906 11.8271C70.5001 11.4825 70.6756 11.0999 70.711 10.6164C70.7458 10.1402 70.9124 9.67534 71.4304 9.50977C72.2255 9.25526 73.1073 9.64344 73.0859 10.6C73.0771 10.9952 72.7972 11.4132 72.3561 11.5741C72.1196 11.6604 71.8937 11.6469 71.662 11.6774C70.9674 11.7686 70.4155 12.0975 70.0712 12.7381C69.9061 13.0449 69.8099 13.372 69.82 13.7283C69.8295 14.0562 69.9604 14.3396 70.1091 14.6181C70.3645 15.0973 70.7915 15.3714 71.2768 15.5153C71.6834 15.6359 72.1089 15.6326 72.5368 15.496C72.8994 15.3802 73.1714 15.1649 73.4281 14.9031C73.7006 14.6252 73.8487 14.292 73.8753 13.9009C73.9009 13.5258 73.9909 13.166 74.2592 12.8978C74.5342 12.6231 74.8663 12.5228 75.2692 12.5813C75.6242 12.6328 75.8671 12.7963 76.0741 13.0759C76.3851 13.4957 76.3387 14.079 75.9444 14.433C75.669 14.6802 75.3742 14.7819 74.9783 14.8118C74.2241 14.8686 73.3069 15.415 73.1229 16.1949C73.0826 16.3657 73.0398 16.5386 73.0267 16.7126C72.9901 17.1947 72.7041 17.642 72.2111 17.7795C71.4707 17.986 70.91 17.6967 70.7042 16.9337C70.6695 16.8045 70.6389 16.6705 70.6307 16.5371C70.591 15.8842 70.28 15.4135 69.7394 15.0751C69.3927 14.858 69.0283 14.7819 68.6211 14.7357C68.0799 14.6749 67.5354 14.2595 67.5195 13.5636Z" fill="white"/>
</g>
<circle opacity="0.5" cx="7.15247" cy="7.922" r="1" stroke="white" stroke-width="1.80493"/>
<circle opacity="0.5" cx="13.0157" cy="7.922" r="1" stroke="white" stroke-width="1.80493"/>
<circle opacity="0.5" cx="18.879" cy="7.922" r="1" stroke="white" stroke-width="1.80493"/>
<rect opacity="0.5" x="5.75" y="16.4023" width="46.9111" height="4.05322" rx="2.02661" stroke="white"/>
<g opacity="0.5">
<path d="M64.7047 24.8446L61.614 21.7539C61.338 21.9746 61.0207 22.1494 60.6619 22.2782C60.3032 22.407 59.9214 22.4714 59.5167 22.4714C58.514 22.4714 57.6655 22.124 56.9712 21.4293C56.2769 20.7346 55.9296 19.8862 55.9292 18.8839C55.9292 17.8812 56.2765 17.0327 56.9712 16.3384C57.6659 15.6441 58.5144 15.2968 59.5167 15.2964C60.5193 15.2964 61.3678 15.6437 62.0621 16.3384C62.7565 17.0331 63.1038 17.8816 63.1042 18.8839C63.1042 19.2886 63.0398 19.6704 62.911 20.0291C62.7822 20.3879 62.6074 20.7052 62.3867 20.9812L65.4912 24.0857C65.5924 24.1869 65.643 24.3111 65.643 24.4583C65.643 24.6054 65.5878 24.7342 65.4774 24.8446C65.3762 24.9458 65.2475 24.9964 65.0911 24.9964C64.9347 24.9964 64.8059 24.9458 64.7047 24.8446ZM59.5167 21.3675C60.2066 21.3675 60.7931 21.126 61.2762 20.6428C61.7593 20.1597 62.0007 19.5734 62.0003 18.8839C62.0003 18.194 61.7588 17.6075 61.2757 17.1243C60.7925 16.6412 60.2062 16.3999 59.5167 16.4002C58.8268 16.4002 58.2403 16.6418 57.7572 17.1249C57.274 17.608 57.0327 18.1943 57.033 18.8839C57.033 19.5738 57.2746 20.1603 57.7577 20.6434C58.2408 21.1265 58.8272 21.3679 59.5167 21.3675Z" fill="white"/>
</g>
<defs>
<clipPath id="clip0_734_44550">
<rect width="20.137" height="19.7657" fill="white" transform="translate(43 59.5742)"/>
</clipPath>
<clipPath id="clip1_734_44550">
<rect width="11.0341" height="10.8306" fill="white" transform="translate(64.168 68.5078)"/>
</clipPath>
</defs>
</svg>
