<svg width="82" height="90" viewBox="0 0 82 90" fill="none" xmlns="http://www.w3.org/2000/svg">
<rect x="0.21875" y="0.804688" width="81.6146" height="88.3459" rx="4" fill="#012842"/>
<path opacity="0.5" d="M38.8008 42.9241C38.8008 41.6986 39.7762 40.7842 41.1713 40.7842C42.5664 40.7842 43.5196 41.6986 43.5196 42.9241C43.5196 44.1497 42.5636 45.1057 41.1713 45.1057C39.779 45.1057 38.8008 44.1302 38.8008 42.9241ZM38.8202 30.3711H43.5196L42.7276 39.6226H39.59L38.8202 30.3711Z" fill="white"/>
<path opacity="0.5" d="M41.0376 48.1841H27.4202C27.0666 48.1834 26.7194 48.0899 26.4134 47.9128C26.1073 47.7357 25.8532 47.4813 25.6765 47.1751C25.4997 46.8688 25.4065 46.5215 25.4063 46.168C25.406 45.8144 25.4987 45.4669 25.675 45.1604L32.4781 33.3772L39.2813 21.594C39.4581 21.2875 39.7124 21.033 40.0188 20.8561C40.3252 20.6791 40.6727 20.5859 41.0265 20.5859C41.3803 20.5859 41.7279 20.6791 42.0342 20.8561C42.3406 21.033 42.595 21.2875 42.7718 21.594L49.5749 33.3772L56.3781 45.1604C56.5553 45.4668 56.6486 45.8144 56.6488 46.1683C56.649 46.5222 56.5559 46.87 56.379 47.1765C56.202 47.483 55.9475 47.7375 55.641 47.9144C55.3344 48.0912 54.9867 48.1843 54.6328 48.1841H41.0376Z" stroke="white" stroke-width="1.5" stroke-miterlimit="10"/>
<g opacity="0.5" clip-path="url(#clip0_734_44627)">
<path d="M44.8644 68.6084C44.7158 68.3663 44.4832 68.1873 44.211 68.1058L43.0215 67.8042C42.9678 67.1136 42.8271 66.4325 42.6027 65.7771L43.5912 65.0399C43.7058 64.9585 43.8029 64.8549 43.8769 64.7354C43.9509 64.6158 44.0003 64.4827 44.0222 64.3438C44.044 64.2049 44.0379 64.063 44.0042 63.9265C43.9704 63.79 43.9098 63.6616 43.8258 63.5489L42.1504 61.237C41.9741 61.0087 41.7155 60.8584 41.4299 60.8181C41.2919 60.796 41.1508 60.8024 41.0154 60.837C40.88 60.8716 40.7531 60.9336 40.6426 61.0192L39.6374 61.7731C39.0047 61.3185 38.3033 60.9678 37.5599 60.7344V59.4946C37.5623 59.3517 37.5356 59.2099 37.4815 59.0776C37.4274 58.9454 37.347 58.8255 37.2452 58.7252C37.1434 58.625 37.0222 58.5465 36.8892 58.4944C36.7561 58.4423 36.6139 58.4179 36.471 58.4224H33.6062C33.3218 58.4224 33.0492 58.5354 32.8481 58.7365C32.647 58.9375 32.534 59.2103 32.534 59.4946V60.7344C31.8758 60.9367 31.2538 61.242 30.6912 61.639L29.7027 60.8349C29.596 60.7477 29.4725 60.6834 29.34 60.6459C29.2074 60.6085 29.0686 60.5986 28.9321 60.6171C28.7878 60.6281 28.6474 60.6696 28.5203 60.7389C28.3932 60.8082 28.2823 60.9038 28.1949 61.0192L26.3354 63.2473C26.243 63.3547 26.1743 63.4803 26.1339 63.616C26.0935 63.7517 26.0822 63.8944 26.1008 64.0347C26.1085 64.1752 26.1488 64.312 26.2186 64.4341C26.2884 64.5563 26.3857 64.6604 26.5028 64.7384L27.4913 65.5258C27.2413 66.1715 27.0779 66.8475 27.0054 67.5362L25.7489 67.7875C25.4788 67.8589 25.2458 68.0298 25.0967 68.266C24.9475 68.5022 24.8932 68.7862 24.9448 69.0607L25.5814 71.892C25.5991 72.0293 25.6473 72.1608 25.7228 72.2768C25.7982 72.3928 25.8988 72.4903 26.017 72.5622C26.1971 72.6783 26.4059 72.7421 26.6201 72.7464H26.8379L28.0944 72.4784C28.4198 73.0968 28.8379 73.6617 29.3341 74.1537L28.7478 75.2762C28.6469 75.5347 28.6469 75.8218 28.7478 76.0803C28.7877 76.216 28.8561 76.3415 28.9486 76.4484C29.041 76.5554 29.1553 76.6412 29.2838 76.7002L31.8807 77.9902C32.0127 78.0676 32.1631 78.1081 32.3162 78.1075C32.5188 78.1097 32.7183 78.0562 32.8926 77.9528C33.0669 77.8494 33.2095 77.7001 33.3047 77.5211L33.8575 76.3819C34.2438 76.4569 34.6369 76.4906 35.0303 76.4824H35.9182L36.4375 77.6049C36.569 77.863 36.789 78.0652 37.0574 78.1745C37.1796 78.1919 37.3038 78.1919 37.426 78.1745C37.5768 78.173 37.7253 78.1387 37.8615 78.074L40.4751 76.8677C40.7315 76.7507 40.9314 76.5374 41.0318 76.2741C41.1321 76.0107 41.1246 75.7184 41.0111 75.4605L40.4918 74.3212C40.9998 73.8517 41.4498 73.323 41.8321 72.7464L43.0048 73.048H43.2561C43.4989 73.0527 43.7363 72.9761 43.9306 72.8304C44.1248 72.6847 44.2649 72.4782 44.3283 72.2438L45.0152 69.446C45.0638 69.3052 45.0754 69.1542 45.049 69.0076C45.0226 68.8609 44.9591 68.7235 44.8644 68.6084ZM43.0886 71.758L41.4133 71.3057C41.3668 71.2971 41.3187 71.3039 41.2764 71.325C41.234 71.3462 41.1998 71.3806 41.1787 71.4229C40.8193 72.0236 40.3982 72.5851 39.9222 73.0983C39.6959 73.3449 39.4365 73.5592 39.1515 73.7349C39.1216 73.7732 39.1054 73.8203 39.1054 73.8689C39.1054 73.9175 39.1216 73.9646 39.1515 74.0029L39.8887 75.6783L37.5599 76.6835L36.8228 75.0081C36.8024 74.9728 36.7732 74.9434 36.7379 74.9228C36.7027 74.9022 36.6626 74.8912 36.6218 74.8909C36.2807 74.9689 35.9328 75.0138 35.5831 75.0249C35.4608 75.0414 35.3369 75.0414 35.2146 75.0249H34.5779H34.4774C34.0862 75.0666 33.6909 75.0496 33.3047 74.9746C33.2576 74.9606 33.2071 74.9629 33.1615 74.9811C33.1159 74.9994 33.0777 75.0325 33.0533 75.0751L32.1487 76.7505L29.954 75.561L30.7917 73.8857C30.8216 73.8474 30.8378 73.8002 30.8378 73.7516C30.8378 73.7031 30.8216 73.6559 30.7917 73.6176C30.5173 73.4334 30.2788 73.2006 30.0881 72.9307C29.8286 72.6718 29.5982 72.3853 29.4011 72.0763C29.2024 71.7991 29.0339 71.5015 28.8985 71.1884C28.8805 71.1474 28.8493 71.1135 28.8098 71.0923C28.7703 71.071 28.7249 71.0636 28.6807 71.0711L26.8212 71.4062L26.3354 68.9267L27.1227 68.7592L28.0441 68.5749C28.0914 68.5669 28.1344 68.5422 28.1651 68.5054C28.1958 68.4685 28.2124 68.4218 28.2117 68.3738C28.1942 68.039 28.1942 67.7035 28.2117 67.3686C28.2117 67.0168 28.3792 66.6483 28.4797 66.2797C28.5706 65.9502 28.7058 65.6346 28.8818 65.3415C28.9092 65.3022 28.9239 65.2554 28.9239 65.2075C28.9239 65.1596 28.9092 65.1128 28.8818 65.0734L27.441 63.8672L29.1163 61.9071L30.5571 63.0631C30.594 63.096 30.6417 63.1143 30.6912 63.1143C30.7406 63.1143 30.7884 63.096 30.8252 63.0631C31.0706 62.8506 31.334 62.6601 31.6126 62.4934C31.9391 62.2924 32.2876 62.1294 32.6513 62.0076C32.9607 61.8655 33.2874 61.7641 33.623 61.706C33.6689 61.6952 33.71 61.6698 33.7403 61.6335C33.7705 61.5972 33.7881 61.5521 33.7905 61.505V59.6454H36.337V61.572C36.3363 61.62 36.3529 61.6667 36.3836 61.7035C36.4143 61.7404 36.4572 61.7651 36.5045 61.7731C36.8365 61.8379 37.1618 61.9332 37.4762 62.0579C37.8941 62.2206 38.293 62.4285 38.6657 62.6777C38.9604 62.8484 39.2357 63.0506 39.4866 63.2809C39.5242 63.3047 39.5678 63.3173 39.6123 63.3173C39.6568 63.3173 39.7004 63.3047 39.738 63.2809L41.2792 62.1919L42.7535 64.2525L41.3128 65.3415C41.2842 65.3772 41.2686 65.4215 41.2686 65.4672C41.2686 65.5128 41.2842 65.5571 41.3128 65.5928C41.4544 65.9056 41.5665 66.2309 41.6477 66.5645C41.7645 66.9165 41.8321 67.283 41.8488 67.6534V67.9383C41.8413 67.954 41.8375 67.9711 41.8375 67.9885C41.8375 68.0059 41.8413 68.0231 41.8488 68.0388V68.2398C41.858 68.3009 41.858 68.363 41.8488 68.4241C41.8383 68.4504 41.8341 68.4789 41.8364 68.5071C41.8387 68.5354 41.8474 68.5627 41.862 68.5871C41.8766 68.6114 41.8966 68.632 41.9205 68.6473C41.9443 68.6626 41.9714 68.6723 41.9996 68.6754L43.809 69.1947L43.0886 71.758Z" fill="white"/>
<path d="M34.9793 64.353C34.1848 64.3563 33.4091 64.5949 32.7501 65.0388C32.091 65.4826 31.5783 66.1117 31.2766 66.8467C30.9748 67.5817 30.8976 68.3896 31.0546 69.1684C31.2116 69.9473 31.5958 70.6621 32.1588 71.2228C32.7218 71.7834 33.4383 72.1647 34.2178 72.3185C34.9973 72.4723 35.8048 72.3917 36.5386 72.0869C37.2723 71.7821 37.8993 71.2667 38.3404 70.6059C38.7814 69.945 39.0168 69.1683 39.0168 68.3738C39.0168 67.8444 38.9123 67.3201 38.7092 66.8312C38.5061 66.3423 38.2084 65.8983 37.8333 65.5247C37.4582 65.1511 37.0129 64.8553 36.5231 64.6542C36.0334 64.4532 35.5087 64.3508 34.9793 64.353ZM34.9793 71.1883C34.2328 71.1883 33.517 70.8918 32.9891 70.364C32.4613 69.8361 32.1648 69.1202 32.1648 68.3738C32.1648 67.6273 32.4613 66.9114 32.9891 66.3836C33.517 65.8558 34.2328 65.5592 34.9793 65.5592C35.3489 65.5592 35.7149 65.632 36.0563 65.7735C36.3978 65.9149 36.7081 66.1222 36.9695 66.3836C37.2308 66.645 37.4382 66.9552 37.5796 67.2967C37.721 67.6382 37.7938 68.0042 37.7938 68.3738C37.7938 68.7434 37.721 69.1094 37.5796 69.4509C37.4382 69.7923 37.2308 70.1026 36.9695 70.364C36.7081 70.6253 36.3978 70.8326 36.0563 70.9741C35.7149 71.1155 35.3489 71.1883 34.9793 71.1883Z" fill="white"/>
</g>
<g opacity="0.5" clip-path="url(#clip1_734_44627)">
<path d="M57.0199 72.9372C56.9385 72.8045 56.811 72.7065 56.6619 72.6618L56.0101 72.4965C55.9807 72.1181 55.9036 71.7449 55.7806 71.3858L56.3223 70.9818C56.3851 70.9372 56.4383 70.8805 56.4788 70.8149C56.5194 70.7494 56.5465 70.6765 56.5584 70.6004C56.5704 70.5243 56.5671 70.4465 56.5486 70.3717C56.5301 70.2969 56.4968 70.2266 56.4508 70.1648L55.5328 68.898C55.4362 68.7729 55.2945 68.6906 55.138 68.6685C55.0624 68.6564 54.9851 68.6599 54.9109 68.6788C54.8367 68.6978 54.7671 68.7318 54.7066 68.7787L54.1558 69.1918C53.8091 68.9427 53.4248 68.7505 53.0174 68.6226V67.9433C53.0187 67.865 53.0041 67.7873 52.9745 67.7148C52.9448 67.6423 52.9008 67.5766 52.845 67.5217C52.7892 67.4668 52.7228 67.4237 52.6499 67.3952C52.577 67.3667 52.499 67.3533 52.4208 67.3558H50.851C50.6952 67.3558 50.5458 67.4177 50.4356 67.5278C50.3254 67.638 50.2635 67.7875 50.2635 67.9433V68.6226C49.9028 68.7334 49.562 68.9008 49.2537 69.1183L48.712 68.6777C48.6536 68.6299 48.5859 68.5947 48.5133 68.5741C48.4407 68.5536 48.3646 68.5482 48.2898 68.5583C48.2107 68.5644 48.1338 68.5871 48.0642 68.6251C47.9945 68.6631 47.9338 68.7154 47.8859 68.7787L46.8669 69.9996C46.8163 70.0584 46.7787 70.1272 46.7565 70.2016C46.7344 70.2759 46.7282 70.3541 46.7384 70.431C46.7426 70.508 46.7647 70.5829 46.8029 70.6499C46.8412 70.7168 46.8945 70.7739 46.9587 70.8166L47.5003 71.2481C47.3633 71.6019 47.2738 71.9723 47.2341 72.3497L46.5456 72.4874C46.3976 72.5265 46.2699 72.6202 46.1882 72.7496C46.1064 72.879 46.0767 73.0346 46.105 73.185L46.4538 74.7364C46.4635 74.8116 46.4899 74.8837 46.5312 74.9473C46.5726 75.0108 46.6277 75.0643 46.6925 75.1036C46.7912 75.1673 46.9056 75.2022 47.023 75.2046H47.1423L47.8308 75.0577C48.0091 75.3966 48.2382 75.7062 48.5101 75.9757L48.1888 76.5908C48.1335 76.7325 48.1335 76.8898 48.1888 77.0314C48.2107 77.1058 48.2481 77.1745 48.2988 77.2331C48.3495 77.2917 48.4121 77.3388 48.4825 77.3711L49.9055 78.0779C49.9778 78.1204 50.0602 78.1426 50.1441 78.1422C50.2552 78.1434 50.3644 78.1141 50.46 78.0575C50.5555 78.0008 50.6336 77.919 50.6858 77.8209L50.9887 77.1967C51.2003 77.2378 51.4158 77.2562 51.6313 77.2518H52.1178L52.4024 77.8668C52.4745 78.0083 52.595 78.1191 52.7421 78.1789C52.809 78.1885 52.8771 78.1885 52.944 78.1789C53.0267 78.1781 53.1081 78.1593 53.1827 78.1238L54.6148 77.4629C54.7553 77.3988 54.8649 77.2819 54.9198 77.1376C54.9748 76.9933 54.9707 76.8331 54.9085 76.6918L54.6239 76.0675C54.9023 75.8103 55.1489 75.5206 55.3584 75.2046L56.0009 75.3699H56.1387C56.2717 75.3724 56.4018 75.3305 56.5082 75.2506C56.6147 75.1708 56.6914 75.0577 56.7262 74.9292L57.1025 73.3962C57.1292 73.319 57.1355 73.2363 57.1211 73.1559C57.1066 73.0755 57.0718 73.0002 57.0199 72.9372ZM56.0469 74.663L55.1289 74.4151C55.1034 74.4104 55.077 74.4142 55.0539 74.4258C55.0307 74.4374 55.0119 74.4562 55.0003 74.4794C54.8034 74.8085 54.5727 75.1162 54.3119 75.3974C54.1878 75.5326 54.0457 75.65 53.8896 75.7462C53.8732 75.7672 53.8643 75.7931 53.8643 75.8197C53.8643 75.8463 53.8732 75.8721 53.8896 75.8931L54.2935 76.8111L53.0174 77.3619L52.6135 76.4439C52.6023 76.4245 52.5863 76.4084 52.567 76.3972C52.5477 76.3859 52.5257 76.3799 52.5034 76.3797C52.3165 76.4224 52.1259 76.447 51.9342 76.4531C51.8672 76.4622 51.7993 76.4622 51.7323 76.4531H51.3834H51.3284C51.114 76.4759 50.8974 76.4667 50.6858 76.4256C50.66 76.4179 50.6323 76.4191 50.6073 76.4291C50.5823 76.4391 50.5614 76.4573 50.548 76.4806L50.0523 77.3986L48.8498 76.7469L49.3088 75.8289C49.3251 75.8079 49.334 75.782 49.334 75.7554C49.334 75.7288 49.3251 75.703 49.3088 75.682C49.1584 75.581 49.0278 75.4535 48.9232 75.3056C48.7811 75.1637 48.6548 75.0067 48.5468 74.8374C48.4379 74.6855 48.3456 74.5224 48.2714 74.3509C48.2615 74.3284 48.2444 74.3099 48.2228 74.2982C48.2012 74.2866 48.1763 74.2825 48.1521 74.2866L47.1331 74.4702L46.8669 73.1116L47.2984 73.0198L47.8032 72.9188C47.8292 72.9144 47.8527 72.9009 47.8695 72.8807C47.8864 72.8605 47.8954 72.835 47.8951 72.8087C47.8855 72.6252 47.8855 72.4413 47.8951 72.2579C47.8951 72.0651 47.9868 71.8631 48.0419 71.6612C48.0917 71.4806 48.1658 71.3077 48.2622 71.1471C48.2772 71.1255 48.2853 71.0999 48.2853 71.0736C48.2853 71.0474 48.2772 71.0218 48.2622 71.0002L47.4728 70.3392L48.3908 69.2652L49.1802 69.8986C49.2004 69.9167 49.2266 69.9267 49.2537 69.9267C49.2808 69.9267 49.3069 69.9167 49.3271 69.8986C49.4616 69.7822 49.6059 69.6778 49.7586 69.5865C49.9375 69.4763 50.1285 69.387 50.3277 69.3203C50.4973 69.2424 50.6763 69.1869 50.8602 69.155C50.8853 69.1491 50.9079 69.1351 50.9244 69.1153C50.941 69.0954 50.9507 69.0707 50.952 69.0449V68.0259H52.3473V69.0816C52.347 69.1079 52.356 69.1335 52.3729 69.1537C52.3897 69.1739 52.4132 69.1874 52.4391 69.1918C52.621 69.2273 52.7993 69.2795 52.9716 69.3478C53.2005 69.437 53.4191 69.5509 53.6234 69.6875C53.7848 69.781 53.9357 69.8918 54.0732 70.0179C54.0938 70.031 54.1176 70.0379 54.142 70.0379C54.1664 70.0379 54.1903 70.031 54.2109 70.0179L55.0554 69.4213L55.8633 70.5504L55.0738 71.1471C55.0582 71.1666 55.0496 71.1909 55.0496 71.2159C55.0496 71.241 55.0582 71.2652 55.0738 71.2848C55.1514 71.4562 55.2128 71.6344 55.2574 71.8172C55.3213 72.0101 55.3584 72.2109 55.3675 72.4139V72.57C55.3634 72.5786 55.3613 72.588 55.3613 72.5975C55.3613 72.607 55.3634 72.6164 55.3675 72.6251V72.7352C55.3725 72.7687 55.3725 72.8027 55.3675 72.8362C55.3618 72.8506 55.3595 72.8662 55.3607 72.8817C55.362 72.8972 55.3667 72.9122 55.3747 72.9255C55.3827 72.9388 55.3937 72.9501 55.4068 72.9585C55.4199 72.9669 55.4347 72.9722 55.4502 72.9739L56.4416 73.2585L56.0469 74.663Z" fill="white"/>
<path d="M51.6035 70.6055C51.1682 70.6073 50.7431 70.7381 50.382 70.9812C50.0209 71.2244 49.74 71.5692 49.5746 71.9719C49.4093 72.3746 49.367 72.8173 49.453 73.2441C49.539 73.6709 49.7496 74.0626 50.0581 74.3698C50.3666 74.677 50.7592 74.8859 51.1863 74.9702C51.6134 75.0544 52.0559 75.0103 52.4579 74.8433C52.86 74.6762 53.2036 74.3939 53.4453 74.0317C53.6869 73.6696 53.8159 73.244 53.8159 72.8087C53.8159 72.5186 53.7586 72.2313 53.6474 71.9634C53.5361 71.6955 53.373 71.4522 53.1674 71.2475C52.9618 71.0428 52.7178 70.8807 52.4495 70.7706C52.1811 70.6604 51.8936 70.6043 51.6035 70.6055ZM51.6035 74.3509C51.1945 74.3509 50.8023 74.1884 50.513 73.8992C50.2238 73.61 50.0613 73.2177 50.0613 72.8087C50.0613 72.3997 50.2238 72.0074 50.513 71.7182C50.8023 71.4289 51.1945 71.2664 51.6035 71.2664C51.8061 71.2664 52.0066 71.3063 52.1937 71.3838C52.3808 71.4613 52.5508 71.5749 52.6941 71.7182C52.8373 71.8614 52.9509 72.0314 53.0284 72.2185C53.1059 72.4056 53.1458 72.6061 53.1458 72.8087C53.1458 73.0112 53.1059 73.2118 53.0284 73.3989C52.9509 73.586 52.8373 73.756 52.6941 73.8992C52.5508 74.0424 52.3808 74.156 52.1937 74.2335C52.0066 74.311 51.8061 74.3509 51.6035 74.3509Z" fill="white"/>
</g>
<rect opacity="0.5" x="1.21875" y="1.80469" width="79.6146" height="86.3459" rx="3" stroke="white" stroke-width="2"/>
<g opacity="0.5">
<path d="M76.4197 10.4265C76.4261 10.9887 75.9795 11.4334 75.5629 11.4761C75.2857 11.5044 75.0019 11.5234 74.7366 11.6013C74.3698 11.7089 74.0328 11.8908 73.7691 12.191C73.4635 12.5391 73.2926 12.9235 73.2627 13.4073C73.2334 13.8838 73.0722 14.3504 72.5561 14.5216C71.7641 14.7845 70.878 14.406 70.888 13.4491C70.8923 13.054 71.1673 12.633 71.6066 12.4674C71.8422 12.3785 72.068 12.3896 72.2994 12.3565C72.9929 12.258 73.5408 11.9233 73.8777 11.2789C74.0392 10.9703 74.1317 10.6421 74.1173 10.2861C74.1042 9.95814 73.9614 9.57522 73.7706 9.32101C73.4486 8.89188 73.1266 8.65318 72.6397 8.51481C72.232 8.39868 71.8065 8.40629 71.3801 8.54758C71.019 8.66722 70.7495 8.88573 70.4959 9.14989C70.2266 9.43072 70.0826 9.76567 70.0603 10.1568C70.0389 10.5321 69.9531 10.8931 69.6879 11.1639C69.4163 11.4415 69.0851 11.5454 68.6819 11.4912C68.3263 11.4436 68.0815 11.2827 67.8712 11.0054C67.5553 10.5888 67.5947 10.0052 67.9851 9.6469C68.2573 9.39679 68.5512 9.29175 68.9465 9.25782C69.7001 9.19289 70.6109 8.6368 70.7858 7.85488C70.8239 7.68375 70.8649 7.51028 70.8761 7.33623C70.907 6.85386 71.1881 6.40366 71.6792 6.26091C72.4172 6.04648 72.9813 6.32965 73.1959 7.09051C73.2322 7.21951 73.2642 7.35291 73.274 7.48629C73.321 8.13892 73.6378 8.60608 74.1824 8.93868C74.5315 9.15194 74.8969 9.2242 75.3043 9.26603C75.8461 9.32131 76.3955 9.73084 76.4197 10.4265Z" fill="white"/>
<path d="M67.6641 13.4112C67.6641 12.849 68.1158 12.409 68.533 12.3707C68.8105 12.3453 69.0947 12.3295 69.3608 12.2543C69.7289 12.1505 70.068 11.9723 70.3351 11.6748C70.6446 11.3302 70.8201 10.9476 70.8555 10.464C70.8903 9.98781 71.0569 9.523 71.5749 9.35743C72.37 9.10292 73.2518 9.49109 73.2305 10.4477C73.2216 10.8428 72.9417 11.2609 72.5007 11.4218C72.2641 11.5081 72.0382 11.4946 71.8066 11.5251C71.1119 11.6163 70.56 11.9451 70.2158 12.5857C70.0506 12.8926 69.9545 13.2196 69.9645 13.5759C69.974 13.9039 70.1049 14.1873 70.2536 14.4658C70.5091 14.945 70.9361 15.2191 71.4214 15.363C71.8279 15.4835 72.2534 15.4803 72.6814 15.3436C73.044 15.2278 73.3159 15.0125 73.5726 14.7507C73.8452 14.4728 73.9932 14.1396 74.0198 13.7485C74.0454 13.3735 74.1355 13.0137 74.4037 12.7455C74.6787 12.4708 75.0108 12.3704 75.4137 12.4289C75.7687 12.4804 76.0117 12.6439 76.2186 12.9236C76.5297 13.3434 76.4833 13.9267 76.0889 14.2806C75.8136 14.5278 75.5187 14.6296 75.1228 14.6594C74.3686 14.7162 73.4514 15.2626 73.2674 16.0425C73.2271 16.2134 73.1844 16.3862 73.1712 16.5603C73.1346 17.0424 72.8486 17.4896 72.3557 17.6271C71.6152 17.8336 71.0545 17.5444 70.8488 16.7814C70.814 16.6521 70.7835 16.5181 70.7752 16.3848C70.7355 15.7319 70.4245 15.2612 69.884 14.9227C69.5372 14.7057 69.1728 14.6296 68.7656 14.5834C68.2245 14.5226 67.6799 14.1072 67.6641 13.4112Z" fill="white"/>
</g>
<circle opacity="0.5" cx="7.3009" cy="7.76965" r="1" stroke="white" stroke-width="1.80493"/>
<circle opacity="0.5" cx="13.1642" cy="7.76965" r="1" stroke="white" stroke-width="1.80493"/>
<circle opacity="0.5" cx="19.0275" cy="7.76965" r="1" stroke="white" stroke-width="1.80493"/>
<defs>
<clipPath id="clip0_734_44627">
<rect width="20.137" height="19.7657" fill="white" transform="translate(24.9258 58.4219)"/>
</clipPath>
<clipPath id="clip1_734_44627">
<rect width="11.0341" height="10.8306" fill="white" transform="translate(46.0938 67.3555)"/>
</clipPath>
</defs>
</svg>
