<svg width="83" height="89" viewBox="0 0 83 89" fill="none" xmlns="http://www.w3.org/2000/svg">
<path d="M0.58313 4.07813C0.58313 1.86899 2.37399 0.078125 4.58313 0.078125H78.1977C80.4068 0.078125 82.1977 1.86899 82.1977 4.07812V84.4241C82.1977 86.6332 80.4068 88.4241 78.1977 88.4241H4.58313C2.37399 88.4241 0.58313 86.6332 0.58313 84.4241V4.07813Z" fill="#012842"/>
<g clip-path="url(#clip0_2701_32925)">
<rect opacity="0.5" x="7.52844" y="21.7812" width="29.0197" height="1.08325" rx="0.541626" fill="white"/>
</g>
<g clip-path="url(#clip1_2701_32925)">
<rect opacity="0.5" x="7.52844" y="46.5547" width="13.6276" height="1.08325" rx="0.541626" fill="white"/>
</g>
<g clip-path="url(#clip2_2701_32925)">
<rect opacity="0.5" x="7.52844" y="26.4766" width="26.3685" height="1.08325" rx="0.541626" fill="white"/>
</g>
<g clip-path="url(#clip3_2701_32925)">
<rect opacity="0.5" x="7.52844" y="51.25" width="12.3826" height="1.08325" rx="0.541626" fill="white"/>
</g>
<g clip-path="url(#clip4_2701_32925)">
<rect opacity="0.5" x="7.52844" y="74.9727" width="12.3826" height="1.08325" rx="0.541626" fill="white"/>
</g>
<g clip-path="url(#clip5_2701_32925)">
<rect opacity="0.5" x="7.52844" y="31.1758" width="21.1196" height="1.08325" rx="0.541626" fill="white"/>
</g>
<g clip-path="url(#clip6_2701_32925)">
<rect opacity="0.5" x="7.52844" y="55.9453" width="9.91773" height="1.08325" rx="0.541626" fill="white"/>
</g>
<g clip-path="url(#clip7_2701_32925)">
<rect opacity="0.5" x="7.52844" y="79.668" width="9.91773" height="1.08325" rx="0.541626" fill="white"/>
</g>
<g clip-path="url(#clip8_2701_32925)">
<rect opacity="0.5" x="46.9113" y="27.9375" width="26.2397" height="8.64185" rx="2" stroke="white" stroke-width="2"/>
</g>
<rect opacity="0.5" x="1.58313" y="1.07812" width="79.6146" height="86.3459" rx="3" stroke="white" stroke-width="2"/>
<g clip-path="url(#clip9_2701_32925)">
<rect opacity="0.5" x="45.2902" y="60.6055" width="7.32219" height="20.2258" rx="1.75" stroke="white" stroke-width="1.5"/>
</g>
<g clip-path="url(#clip10_2701_32925)">
<rect opacity="0.5" x="56.2355" y="51.3516" width="7.32219" height="29.4791" rx="1.75" stroke="white" stroke-width="1.5"/>
</g>
<g clip-path="url(#clip11_2701_32925)">
<rect opacity="0.5" x="67.1808" y="69.5234" width="7.32219" height="11.3063" rx="1.75" stroke="white" stroke-width="1.5"/>
</g>
<circle opacity="0.5" cx="7.52856" cy="7.04309" r="1" stroke="white" stroke-width="1.80493"/>
<circle opacity="0.5" cx="13.3918" cy="7.04309" r="1" stroke="white" stroke-width="1.80493"/>
<circle opacity="0.5" cx="19.2551" cy="7.04309" r="1" stroke="white" stroke-width="1.80493"/>
<g opacity="0.5">
<path d="M76.5262 9.69991C76.5326 10.2621 76.0861 10.7068 75.6694 10.7495C75.3923 10.7779 75.1084 10.7969 74.8432 10.8747C74.4763 10.9823 74.1394 11.1643 73.8757 11.4644C73.5701 11.8125 73.3992 12.1969 73.3693 12.6807C73.34 13.1573 73.1788 13.6238 72.6627 13.795C71.8706 14.0579 70.9845 13.6794 70.9946 12.7226C70.9989 12.3274 71.2739 11.9064 71.7132 11.7408C71.9488 11.6519 72.1746 11.6631 72.406 11.63C73.0994 11.5314 73.6473 11.1968 73.9843 10.5523C74.1458 10.2437 74.2383 9.91549 74.2239 9.55949C74.2108 9.23158 74.0679 8.84865 73.8772 8.59445C73.5552 8.16532 73.2331 7.92662 72.7463 7.78825C72.3385 7.67212 71.913 7.67973 71.4866 7.82102C71.1256 7.94066 70.856 8.15916 70.6024 8.42332C70.3332 8.70416 70.1891 9.0391 70.1668 9.4302C70.1455 9.8055 70.0597 10.1665 69.7945 10.4374C69.5228 10.715 69.1917 10.8188 68.7885 10.7647C68.4329 10.717 68.1881 10.5561 67.9778 10.2788C67.6619 9.86228 67.7012 9.27868 68.0916 8.92034C68.3639 8.67023 68.6578 8.56519 69.0531 8.53126C69.8067 8.46633 70.7175 7.91024 70.8924 7.12832C70.9305 6.95719 70.9714 6.78372 70.9827 6.60967C71.0136 6.12729 71.2947 5.6771 71.7857 5.53434C72.5238 5.31992 73.0878 5.60309 73.3024 6.36394C73.3388 6.49295 73.3708 6.62634 73.3806 6.75973C73.4276 7.41236 73.7444 7.87952 74.2889 8.21212C74.6381 8.42537 75.0034 8.49763 75.4109 8.53946C75.9527 8.59475 76.5021 9.00427 76.5262 9.69991Z" fill="white"/>
<path d="M67.7706 12.6847C67.7706 12.1225 68.2224 11.6825 68.6396 11.6442C68.9171 11.6187 69.2012 11.6029 69.4674 11.5278C69.8355 11.4239 70.1746 11.2457 70.4416 10.9482C70.7512 10.6036 70.9267 10.221 70.9621 9.73748C70.9969 9.26125 71.1635 8.79644 71.6815 8.63086C72.4766 8.37636 73.3584 8.76453 73.337 9.7211C73.3282 10.1163 73.0483 10.5343 72.6072 10.6952C72.3707 10.7815 72.1448 10.768 71.9131 10.7985C71.2185 10.8897 70.6666 11.2185 70.3223 11.8592C70.1572 12.166 70.061 12.4931 70.0711 12.8494C70.0806 13.1773 70.2115 13.4607 70.3602 13.7392C70.6156 14.2184 71.0426 14.4925 71.5279 14.6364C71.9345 14.7569 72.36 14.7537 72.7879 14.6171C73.1505 14.5013 73.4225 14.286 73.6792 14.0242C73.9517 13.7462 74.0998 13.4131 74.1264 13.022C74.152 12.6469 74.242 12.2871 74.5103 12.0189C74.7853 11.7442 75.1174 11.6439 75.5203 11.7024C75.8753 11.7539 76.1182 11.9174 76.3252 12.197C76.6362 12.6168 76.5898 13.2001 76.1955 13.554C75.9201 13.8013 75.6253 13.903 75.2294 13.9329C74.4752 13.9897 73.558 14.5361 73.374 15.3159C73.3337 15.4868 73.2909 15.6597 73.2778 15.8337C73.2412 16.3158 72.9552 16.7631 72.4622 16.9005C71.7218 17.1071 71.1611 16.8178 70.9553 16.0548C70.9206 15.9256 70.89 15.7916 70.8818 15.6582C70.8421 15.0053 70.5311 14.5346 69.9905 14.1962C69.6438 13.9791 69.2794 13.903 68.8722 13.8568C68.331 13.796 67.7865 13.3806 67.7706 12.6847Z" fill="white"/>
</g>
<defs>
<clipPath id="clip0_2701_32925">
<rect x="7.52844" y="21.7812" width="29.0197" height="1.08325" rx="0.541626" fill="white"/>
</clipPath>
<clipPath id="clip1_2701_32925">
<rect x="7.52844" y="46.5547" width="13.6276" height="1.08325" rx="0.541626" fill="white"/>
</clipPath>
<clipPath id="clip2_2701_32925">
<rect x="7.52844" y="26.4766" width="26.3685" height="1.08325" rx="0.541626" fill="white"/>
</clipPath>
<clipPath id="clip3_2701_32925">
<rect x="7.52844" y="51.25" width="12.3826" height="1.08325" rx="0.541626" fill="white"/>
</clipPath>
<clipPath id="clip4_2701_32925">
<rect x="7.52844" y="74.9727" width="12.3826" height="1.08325" rx="0.541626" fill="white"/>
</clipPath>
<clipPath id="clip5_2701_32925">
<rect x="7.52844" y="31.1758" width="21.1196" height="1.08325" rx="0.541626" fill="white"/>
</clipPath>
<clipPath id="clip6_2701_32925">
<rect x="7.52844" y="55.9453" width="9.91773" height="1.08325" rx="0.541626" fill="white"/>
</clipPath>
<clipPath id="clip7_2701_32925">
<rect x="7.52844" y="79.668" width="9.91773" height="1.08325" rx="0.541626" fill="white"/>
</clipPath>
<clipPath id="clip8_2701_32925">
<rect width="29" height="12" fill="white" transform="translate(45.5831 26.0781)"/>
</clipPath>
<clipPath id="clip9_2701_32925">
<rect width="10" height="23" fill="white" transform="translate(43.5831 59.0781)"/>
</clipPath>
<clipPath id="clip10_2701_32925">
<rect width="10" height="32" fill="white" transform="translate(54.5831 50.0781)"/>
</clipPath>
<clipPath id="clip11_2701_32925">
<rect width="10" height="14" fill="white" transform="translate(65.5831 68.0781)"/>
</clipPath>
</defs>
</svg>
