<svg width="18" height="19" viewBox="0 0 18 19" fill="none" xmlns="http://www.w3.org/2000/svg">
<path d="M8.67097 6.38428C7.86107 6.38428 7.08435 6.70601 6.51166 7.27869C5.93898 7.85137 5.61725 8.6281 5.61725 9.43799C5.61725 10.2479 5.93898 11.0246 6.51166 11.5973C7.08435 12.17 7.86107 12.4917 8.67097 12.4917C9.48086 12.4917 10.2576 12.17 10.8303 11.5973C11.403 11.0246 11.7247 10.2479 11.7247 9.43799C11.7247 8.6281 11.403 7.85137 10.8303 7.27869C10.2576 6.70601 9.48086 6.38428 8.67097 6.38428Z" fill="#005BAA"/>
<path fill-rule="evenodd" clip-rule="evenodd" d="M3.75684 1.05863C7.02293 0.696602 10.319 0.696602 13.5851 1.05863C15.3694 1.25783 16.808 2.66254 17.0175 4.45343C17.4048 7.76521 17.4048 11.1109 17.0175 14.4226C16.808 16.2135 15.3694 17.6182 13.5861 17.8184C10.3197 18.1805 7.02324 18.1805 3.75684 17.8184C1.97253 17.6182 0.533997 16.2135 0.324465 14.4236C-0.0629077 11.1115 -0.0629077 7.76552 0.324465 4.45343C0.533997 2.66254 1.97253 1.25783 3.75684 1.05863ZM13.369 3.8004C13.1198 3.8004 12.8808 3.89939 12.7046 4.0756C12.5284 4.25181 12.4294 4.49081 12.4294 4.74001C12.4294 4.9892 12.5284 5.2282 12.7046 5.40441C12.8808 5.58062 13.1198 5.67961 13.369 5.67961C13.6182 5.67961 13.8572 5.58062 14.0334 5.40441C14.2096 5.2282 14.3086 4.9892 14.3086 4.74001C14.3086 4.49081 14.2096 4.25181 14.0334 4.0756C13.8572 3.89939 13.6182 3.8004 13.369 3.8004ZM4.20785 9.43803C4.20785 8.25434 4.67808 7.11912 5.51507 6.28213C6.35207 5.44513 7.48729 4.97491 8.67098 4.97491C9.85468 4.97491 10.9899 5.44513 11.8269 6.28213C12.6639 7.11912 13.1341 8.25434 13.1341 9.43803C13.1341 10.6217 12.6639 11.7569 11.8269 12.5939C10.9899 13.4309 9.85468 13.9012 8.67098 13.9012C7.48729 13.9012 6.35207 13.4309 5.51507 12.5939C4.67808 11.7569 4.20785 10.6217 4.20785 9.43803Z" fill="#005BAA"/>
</svg>
