<svg width="231" height="75" viewBox="0 0 231 75" fill="none" xmlns="http://www.w3.org/2000/svg">
<g clip-path="url(#clip0_4730_186386)">
<path fill-rule="evenodd" clip-rule="evenodd" d="M118.29 14.1543C122.004 9.25867 127.167 9.23267 127.167 9.23267C127.167 9.23267 127.935 13.8358 124.246 18.2689C120.306 23.0048 115.828 22.2285 115.828 22.2285C115.828 22.2285 114.992 18.5066 118.29 14.1543Z" fill="#B0D0E7"/>
<path fill-rule="evenodd" clip-rule="evenodd" d="M116.304 25.4543C118.215 25.4543 121.761 22.8273 126.377 22.8273C134.322 22.8273 137.448 28.4815 137.448 28.4815C137.448 28.4815 131.335 31.6063 131.335 39.1912C131.335 47.7464 138.949 50.6947 138.949 50.6947C138.949 50.6947 133.626 65.6787 126.435 65.6787C123.132 65.6787 120.565 63.45 117.085 63.45C113.539 63.45 110.02 65.7585 107.728 65.7585C101.162 65.7585 92.8701 51.5453 92.8701 40.1198C92.8701 28.8836 99.8913 22.9823 106.478 22.9823C110.756 22.9851 114.079 25.4543 116.304 25.4543Z" fill="#B0D0E7"/>
</g>
<defs>
<clipPath id="clip0_4730_186386">
<rect width="46.082" height="56.527" fill="white" transform="translate(92.8672 9.23608)"/>
</clipPath>
</defs>
</svg>
