<svg width="231" height="76" viewBox="0 0 231 76" fill="none" xmlns="http://www.w3.org/2000/svg">
<g clip-path="url(#clip0_1002_45992)">
<path fill-rule="evenodd" clip-rule="evenodd" d="M209.635 17.6855L218.299 17.73L200.874 41.3391C200.45 41.9135 199.798 42.5525 199.471 43.3048C198.637 45.2423 197.784 49.4892 197.784 49.4892L189.856 49.5256C189.856 49.5256 191.09 45.1007 191.037 42.7426C190.993 40.6839 189.941 38.6251 189.355 36.5582C188.768 34.4914 187.947 30.3658 187.947 30.3658H196.097L197.21 34.8756L209.623 17.6855" fill="#B0D0E7"/>
<path fill-rule="evenodd" clip-rule="evenodd" d="M193.23 22.2762C194.828 23.2388 195.811 28.5576 195.811 28.5576C195.811 28.5576 187.442 28.679 182.892 28.679H178.957L174.18 49.4769H166.875C166.875 49.4769 171.421 26.875 172.497 22.7817C172.845 21.4551 174.88 21.6816 178.318 21.6816H183.806C187.349 21.6816 191.491 21.2326 193.234 22.2802" fill="#B0D0E7"/>
<path fill-rule="evenodd" clip-rule="evenodd" d="M159.214 32.4159C159.301 31.3939 159.027 30.3737 158.441 29.532C157.588 28.2174 156.799 27.9141 154.55 27.8413C148.2 27.639 148.326 32.3431 148.326 32.3431L159.214 32.4159ZM166.09 27.0283C167.02 30.3814 165.249 38.2686 165.249 38.2686C165.249 38.2686 155.986 38.1149 150.914 38.2686C149.341 38.3171 147.452 38.0987 146.983 38.8308C146.319 39.8582 147.221 41.4396 147.986 42.1111C148.868 42.8796 150.582 42.9686 151.197 43.0454C155.315 43.5672 163.93 43.1789 163.93 43.1789L162.446 49.7799C162.446 49.7799 150.271 50.3906 144.18 48.9386C143.008 48.6867 141.935 48.1009 141.09 47.2519C140.88 46.9926 140.684 46.7226 140.503 46.443C140.18 45.9893 139.909 45.5009 139.694 44.9869C138.303 41.2819 139.86 34.1794 141.381 30.3773C141.559 29.9324 141.785 29.3742 142.016 28.901C142.307 28.3064 142.554 27.639 142.784 27.2831C142.942 27.0404 143.136 26.8786 143.302 26.6521C143.49 26.3839 143.693 26.126 143.909 25.8796C144.501 25.2459 145.161 24.6802 145.878 24.1929C148.415 22.2919 153.005 20.8196 158.522 21.3616C160.601 21.576 163.736 22.3162 165.269 24.4558C165.673 25.0261 165.88 26.1546 166.11 26.9838L166.09 27.0283Z" fill="#B0D0E7"/>
<path fill-rule="evenodd" clip-rule="evenodd" d="M132.588 21.6654L139.67 21.625C139.67 21.625 135.731 40.3521 133.708 49.4891H125.562C119.867 49.4891 114.791 50.1929 112.619 46.1158C110.524 42.156 112.522 35.644 113.461 31.2191C114.124 28.0885 115.523 21.6897 115.523 21.6897L122.861 21.625C122.861 21.625 120.806 31.5791 119.956 36.5581C119.649 38.3418 119.01 40.0204 119.677 41.339C120.308 42.5929 121.194 42.6818 123.892 42.7425C124.745 42.7627 127.532 42.7425 127.532 42.7425L132.592 21.6654" fill="#B0D0E7"/>
<path fill-rule="evenodd" clip-rule="evenodd" d="M99.4252 35.1544C100.169 32.5172 101.249 29.6617 101.112 27.2874C100.962 24.7473 98.8347 22.4337 97.4716 21.9484C93.3339 20.4842 89.459 22.5268 87.918 24.1932C85.9239 26.3531 85.2485 28.8729 84.5447 32.3433C84.0189 34.9198 83.5901 37.6419 84.5447 39.6521C86.2354 43.2034 91.5097 42.4268 97.1925 42.4632C98.0338 40.2022 98.7295 37.6662 99.4374 35.1544H99.4252ZM109.262 24.7554C110.071 30.6405 106.969 37.1363 104.813 42.7827C106.993 42.9809 108.902 42.7544 109.04 42.9162C109.177 43.078 107.579 49.6588 107.017 49.675C105.286 49.7195 99.5506 49.768 97.1602 49.768C89.3539 49.768 82.0531 50.2776 78.332 46.3947C76.8193 44.8172 75.7717 42.1154 75.5209 40.2143C75.0962 37.0392 75.6261 33.5406 76.3622 30.6567C76.9646 28.1058 77.9103 25.6485 79.1733 23.3519C82.4536 17.6286 88.1566 13.3776 97.7224 14.3605C99.8855 14.6316 101.98 15.2979 103.903 16.3262C104.02 16.395 104.42 16.7307 104.513 16.7711C106.762 18.203 108.809 21.6248 109.242 24.7554H109.262Z" fill="#B0D0E7"/>
<path fill-rule="evenodd" clip-rule="evenodd" d="M74.7326 21.6974C74.2634 23.8492 73.7902 26.2841 73.2927 28.4116H65.4216C66.0324 26.0536 66.5016 23.7157 67.1083 21.665C69.6281 21.665 71.962 21.6974 74.7326 21.6974Z" fill="#B0D0E7"/>
<path fill-rule="evenodd" clip-rule="evenodd" d="M65.1417 30.3656H72.7296C71.7387 35.8584 69.7729 44.7163 68.2319 50.8805C67.2692 54.7392 66.614 57.5543 64.0173 59.5928C63.7827 59.7748 63.6492 59.6859 63.4551 59.8719C62.9738 60.333 60.7532 60.8629 59.5196 60.9964C57.5215 61.2148 55.2564 61.0247 52.8013 60.9761C53.4444 58.6221 54.1724 55.7989 54.7427 53.6956C60.737 54.4196 60.8907 48.753 62.0516 43.2966C62.723 40.1418 64.7575 31.6357 65.1417 30.3535" fill="#B0D0E7"/>
<path fill-rule="evenodd" clip-rule="evenodd" d="M47.4378 44.7079L47.276 45.1326C44.5053 50.5282 39.595 53.8247 32.5896 53.9824C29.6922 54.0223 26.8193 53.4475 24.1604 52.2958C19.8352 50.3034 16.283 46.9473 14.0486 42.7422C11.1525 37.1321 10.6227 29.3218 16.6493 23.4893C16.7424 23.4893 15.9172 24.7512 16.0103 24.7512L15.8444 25.2932C11.5044 38.8835 24.8803 50.5323 37.8841 49.2016C41.0067 48.882 44.9907 47.1792 47.4378 44.7038" fill="#B0D0E7"/>
<path fill-rule="evenodd" clip-rule="evenodd" d="M39.5681 39.0895C42.8374 39.0663 45.9665 37.7589 48.2804 35.4492C46.5129 39.9429 41.3842 42.8309 34.5284 41.9208C28.7565 41.128 23.2881 35.336 22.7097 29.5318C22.3052 25.3091 23.7694 22.7893 26.1922 19.7314C25.5639 20.8512 25.1522 22.0793 24.9788 23.3515C24.0566 32.4885 32.2593 39.041 39.5883 39.0895" fill="#B0D0E7"/>
<path fill-rule="evenodd" clip-rule="evenodd" d="M47.9606 27.74C47.451 28.9089 44.5226 31.1092 43.2324 31.3802C38.1117 32.4723 34.8315 30.0455 33.1205 27.2829C32.8033 26.6957 32.5328 26.0844 32.3116 25.4547C31.6442 23.1897 31.9516 19.7638 33.9295 17.9922C33.3665 19.5686 33.238 21.2674 33.5574 22.9106C33.8585 23.9584 34.3153 24.9551 34.9124 25.8673C35.9721 27.4083 36.6435 27.7804 38.0025 28.6015C38.4939 28.9039 39.0158 29.1533 39.5597 29.3457C40.85 29.7219 43.5721 30.725 47.9606 27.7278" fill="#B0D0E7"/>
</g>
<defs>
<clipPath id="clip0_1002_45992">
<rect width="206.346" height="46.8945" fill="white" transform="translate(11.9541 14.2188)"/>
</clipPath>
</defs>
</svg>
