<svg width="164" height="53" viewBox="0 0 164 53" fill="none" xmlns="http://www.w3.org/2000/svg">
<g clip-path="url(#clip0_1309_47167)">
<path opacity="0.1" d="M27.4452 39.452C39.1714 55.4368 50.6472 34.9904 50.6327 22.6948C50.6099 8.15711 35.8755 0.0332031 27.4369 0.0332031C13.8908 0.0332031 0.990723 11.2274 0.990723 26.5456C0.990723 43.5698 15.7769 53.0001 27.4369 53.0001C24.7993 52.6212 16.0067 50.7372 15.897 30.4854C15.8162 16.7903 20.3647 11.3185 27.4245 13.7159C27.5839 13.7759 35.2151 16.7862 35.2151 26.6202C35.2151 36.4107 27.4535 39.4437 27.4535 39.4437L27.4452 39.452Z" fill="#B0D0E7"/>
<path d="M27.4328 13.7138C19.6837 11.0431 10.1934 17.4403 10.1934 30.2204C10.1934 51.1036 25.6689 52.9938 27.5446 52.9938C41.0907 53 53.9908 41.8058 53.9908 26.4876C53.9908 9.46341 39.2046 0.0331354 27.5446 0.0331354C30.7743 -0.414052 44.9498 3.51954 44.9498 22.9018C44.9498 35.5307 34.3643 42.4145 27.4805 39.4643C27.3231 39.4063 19.692 36.3961 19.692 26.5621C19.692 16.7695 27.4328 13.7034 27.4328 13.7034V13.7138Z" fill="#B0D0E7"/>
</g>
<path d="M69.5605 14.2607V13.5548H83.3164V14.2607H82.4769C81.7138 14.2607 81.1032 14.3943 80.6453 14.6614C80.3274 14.8395 80.073 15.1447 79.8822 15.5772C79.7423 15.8825 79.6723 16.6838 79.6723 17.9811V30.6496C79.6723 33.1299 79.4243 34.936 78.9282 36.068C78.4322 37.1873 77.5482 38.1285 76.2763 38.8917C75.0171 39.6421 73.4971 40.0174 71.7164 40.0174C69.5414 40.0174 67.7798 39.445 66.4315 38.3003C65.096 37.1555 64.4282 35.8899 64.4282 34.5035C64.4282 33.6132 64.7017 32.8945 65.2486 32.3476C65.7955 31.788 66.4633 31.5081 67.2519 31.5081C68.0278 31.5081 68.6765 31.7562 69.198 32.2522C69.7322 32.7483 69.9993 33.3588 69.9993 34.0838C69.9993 34.4399 69.9548 34.7516 69.8657 35.0187C69.8149 35.1459 69.6113 35.4702 69.2552 35.9917C68.9118 36.5005 68.7401 36.863 68.7401 37.0792C68.7401 37.4099 68.9054 37.6961 69.2361 37.9378C69.7195 38.2939 70.3491 38.472 71.1249 38.472C71.6719 38.472 72.1234 38.3321 72.4795 38.0522C72.8357 37.7724 73.0837 37.3399 73.2236 36.7549C73.3763 36.157 73.4526 34.5099 73.4526 31.8134V17.9811C73.4526 16.6583 73.3763 15.8316 73.2236 15.5009C73.0837 15.1702 72.7975 14.884 72.3651 14.6423C71.9453 14.3879 71.373 14.2607 70.648 14.2607H69.5605Z" fill="#B0D0E7"/>
<path d="M101.899 12.9634L102.109 21.5871H101.327C100.958 19.4248 100.049 17.6886 98.5987 16.3785C97.1614 15.0557 95.6033 14.3943 93.9243 14.3943C92.6269 14.3943 91.5967 14.7441 90.8335 15.4436C90.0831 16.1305 89.7079 16.9254 89.7079 17.8285C89.7079 18.4009 89.8414 18.9097 90.1085 19.3548C90.4774 19.9526 91.0688 20.5441 91.8829 21.1292C92.4807 21.5489 93.8607 22.293 96.023 23.3614C99.0502 24.8496 101.092 26.2551 102.147 27.5779C103.19 28.9007 103.712 30.4143 103.712 32.1187C103.712 34.2809 102.866 36.1443 101.174 37.7088C99.4954 39.2606 97.3585 40.0364 94.7638 40.0364C93.9498 40.0364 93.1802 39.9538 92.4552 39.7884C91.7302 39.6231 90.8208 39.3114 89.7269 38.8535C89.1164 38.5992 88.614 38.472 88.2197 38.472C87.889 38.472 87.5392 38.5992 87.1704 38.8535C86.8015 39.1079 86.5026 39.4959 86.2736 40.0174H85.5677V30.2489H86.2736C86.8333 32.9963 87.9081 35.095 89.498 36.545C91.1006 37.9823 92.8241 38.7009 94.6684 38.7009C96.093 38.7009 97.225 38.313 98.0644 37.5371C98.9166 36.7612 99.3427 35.8581 99.3427 34.8279C99.3427 34.2174 99.1774 33.6259 98.8467 33.0535C98.5287 32.4812 98.039 31.9406 97.3776 31.4318C96.7162 30.9103 95.546 30.2362 93.8671 29.4095C91.514 28.252 89.8223 27.2662 88.7921 26.4522C87.7618 25.6382 86.9668 24.7287 86.4072 23.7239C85.8603 22.7191 85.5868 21.6125 85.5868 20.4042C85.5868 18.3436 86.3436 16.5884 87.8572 15.1384C89.3708 13.6884 91.2787 12.9634 93.5809 12.9634C94.4204 12.9634 95.2344 13.0651 96.023 13.2686C96.6208 13.4213 97.3458 13.7075 98.198 14.1272C99.0629 14.5342 99.6671 14.7377 100.011 14.7377C100.341 14.7377 100.602 14.636 100.793 14.4325C100.984 14.229 101.162 13.7393 101.327 12.9634H101.899Z" fill="#B0D0E7"/>
<path d="M120.387 13.1923C124.508 13.0397 127.853 14.2417 130.422 16.7983C133.004 19.3548 134.295 22.5537 134.295 26.395C134.295 29.6766 133.335 32.5638 131.414 35.0568C128.871 38.3638 125.277 40.0174 120.635 40.0174C115.98 40.0174 112.38 38.4402 109.836 35.2858C107.827 32.7928 106.822 29.8355 106.822 26.4141C106.822 22.5728 108.125 19.3739 110.733 16.8173C113.353 14.248 116.571 13.0397 120.387 13.1923ZM120.616 14.4134C118.25 14.4134 116.45 15.6217 115.216 18.0384C114.212 20.0226 113.709 22.8717 113.709 26.5858C113.709 30.9994 114.485 34.2619 116.037 36.3733C117.118 37.8487 118.632 38.5864 120.578 38.5864C121.888 38.5864 122.982 38.2685 123.859 37.6325C124.979 36.8185 125.85 35.5211 126.473 33.7404C127.096 31.947 127.408 29.613 127.408 26.7384C127.408 23.3169 127.09 20.7603 126.454 19.0686C125.818 17.3643 125.004 16.1623 124.012 15.4627C123.032 14.7632 121.9 14.4134 120.616 14.4134Z" fill="#B0D0E7"/>
<path d="M145.438 13.5548L158.201 29.6002V18.4772C158.201 16.9254 157.979 15.8761 157.534 15.3292C156.923 14.5915 155.899 14.2353 154.462 14.2607V13.5548H163.009V14.2607C161.915 14.4007 161.178 14.5851 160.796 14.814C160.427 15.0303 160.135 15.3928 159.918 15.9015C159.715 16.3976 159.613 17.2561 159.613 18.4772V40.0174H158.965L141.469 18.4772V34.9233C141.469 36.4114 141.806 37.4163 142.48 37.9378C143.167 38.4592 143.949 38.72 144.827 38.72H145.438V39.4259H136.261V38.72C137.685 38.7073 138.677 38.4147 139.237 37.8424C139.797 37.27 140.076 36.297 140.076 34.9233V16.6647L139.523 15.9779C138.976 15.291 138.493 14.8395 138.073 14.6232C137.653 14.407 137.049 14.2862 136.261 14.2607V13.5548H145.438Z" fill="#B0D0E7"/>
<defs>
<clipPath id="clip0_1309_47167">
<rect width="53" height="53" fill="white" transform="translate(0.990723)"/>
</clipPath>
</defs>
</svg>
