<svg width="122" height="40" viewBox="0 0 122 40" fill="none" xmlns="http://www.w3.org/2000/svg">
<path fill-rule="evenodd" clip-rule="evenodd" d="M101.556 19.4091C101.283 18.7062 100.869 18.0671 100.34 17.5317C99.8162 17.0115 99.1914 16.6056 98.5045 16.3394C97.7938 16.056 97.0354 15.9134 96.2708 15.9195C95.4922 15.9135 94.7194 16.056 93.9936 16.3394C93.3151 16.6095 92.6981 17.0151 92.1801 17.5317C91.6792 18.0469 91.2813 18.6801 90.9863 19.4311C90.6914 20.1671 90.5439 20.999 90.5439 21.9269C90.5439 22.81 90.5826 23.2584 90.8363 23.9836C90.904 24.1771 91.0393 24.5542 91.0584 24.591C90.881 25.0344 90.2143 25.6725 89.4762 25.8879C89.2074 25.947 88.933 25.9766 88.6578 25.9762C88.068 25.9762 87.5781 25.8868 87.2393 25.5042C86.9147 25.1205 86.7674 24.6655 86.7674 23.8701V13.4418C86.7674 12.8968 86.3277 12.4551 85.7853 12.4551H85.7591C85.2167 12.4551 84.7771 12.8968 84.7771 13.4418V24.0686C84.7771 24.7603 84.8656 25.3493 85.0428 25.8353C85.058 25.8737 85.0739 25.9115 85.0897 25.9488C84.9975 25.923 84.9014 25.9141 84.806 25.9225L84.7254 25.9295C83.894 26.0027 81.965 26.1724 81.4305 25.6873C81.3809 25.6407 81.3349 25.5903 81.293 25.5366C80.9656 25.1227 80.9656 24.2089 80.9656 23.6837V17.3414C80.9655 16.9091 80.6631 16.5364 80.2417 16.449H80.2378H80.2324C80.1358 16.4359 79.3971 16.3504 79.1248 16.8519C79.121 16.8585 79.1172 16.8651 79.1139 16.8722C79.0668 16.9499 78.9907 17.0054 78.9026 17.0265C78.8145 17.0476 78.7217 17.0325 78.6447 16.9846C78.3571 16.8023 78.0534 16.6469 77.7374 16.5203C77.2064 16.2846 76.6094 16.1667 75.9463 16.1667C74.4438 16.1436 73.0063 16.7809 72.0105 17.9115C71.5229 18.4835 71.1477 19.143 70.9046 19.8553C70.6344 20.6209 70.4998 21.4282 70.5068 22.2404C70.5068 23.154 70.6394 23.9785 70.9046 24.7138C71.0685 25.1445 71.3055 25.5435 71.6051 25.8929L63.2882 25.86C62.7472 25.8582 62.3095 25.4169 62.3095 24.8733V13.4418C62.3095 12.8968 61.8698 12.4551 61.3274 12.4551H61.191C60.6487 12.4551 60.209 12.8968 60.209 13.4418V26.8993C60.209 27.443 60.6467 27.8842 61.1878 27.886L75.6495 27.9326C76.0601 27.9367 76.4694 27.8847 76.8661 27.778C77.2344 27.675 77.6807 27.516 77.9759 27.3395C78.0875 27.2726 78.1819 27.2183 78.2697 27.1678L78.3523 27.1202C78.4641 27.0555 78.5705 26.9865 78.6933 26.8966C78.9661 26.697 79.432 26.793 79.6317 27.0687C80.0682 27.6717 80.8134 27.9331 81.8609 27.9331H88.385C88.8161 27.9375 89.2464 27.8932 89.6677 27.801C90.4811 27.6136 91.7251 26.8275 92.2221 26.0233C92.5172 26.5112 93.5189 27.2529 94.064 27.4847C94.7617 27.7855 95.5138 27.9382 96.273 27.9331C97.0449 27.9405 97.8109 27.7981 98.529 27.5138C99.9336 26.9443 101.034 25.8054 101.558 24.3777C101.853 23.6267 102.001 22.7948 102.001 21.8819C102 20.969 101.852 20.1448 101.556 19.4091ZM78.973 24.3666C78.9775 24.5902 78.8971 24.8071 78.7482 24.9734C78.4529 25.2904 78.1068 25.5554 77.7242 25.7573C77.2233 26.0226 76.7258 26.1876 76.1655 26.1876C75.6493 26.1876 75.0743 26.1065 74.6313 25.9003C74.2035 25.6942 73.8418 25.4832 73.5178 25.1148C73.1931 24.7311 72.9804 24.4104 72.8036 23.8952C72.6223 23.3392 72.5326 22.7573 72.5379 22.1723C72.5315 21.58 72.6212 20.9907 72.8036 20.4274C72.9592 19.9358 73.2068 19.4785 73.533 19.08C73.8475 18.7046 74.2401 18.403 74.6831 18.1964C75.1411 17.9868 75.6394 17.8813 76.1425 17.8872C76.6555 17.8841 77.1648 17.9738 77.6462 18.152C77.9552 18.2544 78.2542 18.3853 78.5393 18.5428C78.8154 18.7061 78.9815 19.0071 78.973 19.3289V24.3666ZM98.9707 24.9948C99.3016 24.5995 99.5497 24.1412 99.7001 23.6474C99.8839 23.0922 99.9743 22.5101 99.9675 21.925C99.9703 21.3672 99.8729 20.8134 99.68 20.2904C99.5132 19.7945 99.2494 19.3371 98.9041 18.9452C98.5813 18.5635 98.1818 18.2549 97.7317 18.0396C97.2824 17.8009 96.781 17.6783 96.2728 17.6827C95.1082 17.6846 94.2016 18.0683 93.5531 18.8339C92.9046 19.5995 92.5803 20.6154 92.5803 21.8817C92.5785 22.4447 92.668 23.0042 92.8454 23.5383C93.0263 24.035 93.2879 24.498 93.6196 24.9087C93.9517 25.286 94.3487 25.6002 94.7915 25.8362C95.254 26.0574 95.7606 26.1699 96.2728 26.1651C96.8049 26.1738 97.3328 26.0684 97.8212 25.8559C98.2643 25.66 98.6573 25.3655 98.9707 24.9948Z" fill="#003D9F"/>
<g clip-path="url(#clip0_5824_71871)">
<path d="M42.2623 35.4016C42.2472 33.6477 42.2269 32.2342 42.2012 31.1612C42.2002 31.117 42.2128 31.0929 42.2389 31.0889" stroke="#49264C" stroke-width="0.431717"/>
<path d="M42.2402 31.0888C42.3141 31.0677 42.3679 31.0657 42.4016 31.0828" stroke="#4D2B5A" stroke-width="0.431717"/>
<path d="M42.4007 31.0829C43.3968 30.9216 44.1182 30.4373 44.565 29.6302C45.0565 28.7437 45.0135 27.8142 44.3946 27.0129C44.3913 27.0086 44.3889 27.0038 44.3876 26.9985C44.3863 26.9933 44.386 26.9879 44.3869 26.9826C44.3877 26.9773 44.3897 26.9723 44.3925 26.9677C44.3954 26.9632 44.3992 26.9593 44.4037 26.9563C44.6585 26.7804 44.8185 26.6648 44.8839 26.6096C46.2182 25.481 45.502 23.8731 44.2597 23.0906C44.2381 23.0765 44.2283 23.0567 44.2303 23.031C44.4775 19.9667 43.8458 16.6844 41.4802 14.5412C41.4612 14.5236 41.4561 14.5025 41.4652 14.4779C41.9333 13.17 42.0984 11.6887 42.124 10.2609C42.1401 9.34069 42.023 8.46498 41.7727 7.63374C41.5323 6.8324 40.7264 6.42834 40.1565 7.25455C39.9615 7.53749 39.812 7.84381 39.708 8.17349C39.1979 9.78572 38.9941 11.4324 39.0966 13.1134C39.0969 13.1195 39.0958 13.1255 39.0932 13.131C39.0907 13.1365 39.0868 13.1413 39.0819 13.145C39.0771 13.1486 39.0714 13.151 39.0654 13.152C39.0594 13.1529 39.0533 13.1524 39.0476 13.1504C38.4304 12.9338 37.7975 12.7845 37.1487 12.7026C37.1235 12.6996 37.1074 12.686 37.1004 12.6619C36.7499 11.4467 35.6606 9.69777 34.1679 9.82743C32.5577 9.96689 31.5657 11.4346 32.1235 13.0041C32.131 13.0257 32.1238 13.0393 32.1016 13.0448L31.0191 13.3177C30.998 13.3228 30.9875 13.3145 30.9875 13.2929C30.99 11.6605 30.7291 10.0734 30.205 8.53157C30.0188 7.98427 29.6268 7.05554 29.0146 6.86632C28.113 6.58815 27.7633 7.92774 27.7067 8.52704C27.5117 10.6056 27.7856 12.6649 28.5284 14.7048C28.5375 14.7294 28.5327 14.751 28.5141 14.7696C26.0362 17.2053 25.4376 20.8366 25.8643 24.152C25.8659 24.1638 25.8643 24.1758 25.8597 24.1867C25.855 24.1976 25.8475 24.207 25.8379 24.2138C24.3838 25.2549 24.6069 27.2156 26.3023 27.8602C26.3077 27.8623 26.3127 27.8654 26.3169 27.8694C26.3211 27.8735 26.3244 27.8783 26.3266 27.8837C26.3289 27.889 26.33 27.8948 26.33 27.9006C26.33 27.9064 26.3287 27.9121 26.3264 27.9175C25.7671 29.2066 25.7482 31.2691 27.62 31.4387C27.7595 31.4508 27.9578 31.4387 28.1289 31.4455C28.156 31.4465 28.1703 31.4606 28.1718 31.4877L28.3256 35.4017" stroke="#49264C" stroke-width="0.431717"/>
<path d="M42.4009 31.0832L42.3904 31.0357C42.3843 31.0086 42.3944 30.9905 42.4205 30.9814C43.2083 30.71 43.9192 30.3098 44.0948 29.4617C44.0981 29.4455 44.0969 29.4286 44.0912 29.4131C44.0855 29.3975 44.0757 29.3839 44.0627 29.3736C44.0498 29.3633 44.0342 29.3568 44.0178 29.3547C44.0014 29.3527 43.9847 29.3553 43.9697 29.3622C43.8898 29.3994 43.8533 29.3838 43.8604 29.3154" stroke="#05050F" stroke-width="0.431717"/>
<path d="M43.8595 29.3151C44.4912 28.2333 43.8904 27.4614 43.0732 26.7859C43.0305 26.7508 43.0189 26.7221 43.0385 26.7C43.0576 26.6784 43.0978 26.6606 43.1592 26.6465" stroke="#535E6F" stroke-width="0.431717"/>
<path d="M43.1602 26.6461L43.2793 26.6084" stroke="#475068" stroke-width="0.431717"/>
<path d="M43.2793 26.6092C43.3615 26.6371 43.4037 26.9085 43.611 27.0035C43.6316 27.013 43.653 27.0143 43.6751 27.0072C44.3309 26.7833 44.9687 26.3552 45.1458 25.6405C45.1725 25.5325 45.1604 25.4463 45.1096 25.3819C45.1004 25.3704 45.0877 25.3622 45.0735 25.3585C45.0592 25.3548 45.0441 25.3559 45.0305 25.3616C44.8948 25.4159 44.8197 25.4128 44.8051 25.3525" stroke="#05050F" stroke-width="0.431717"/>
<path d="M44.8038 25.3521C44.9546 24.4882 44.105 23.8987 43.474 23.5195C43.4514 23.5059 43.4414 23.4861 43.4439 23.46C43.9052 18.5373 42.1526 13.7926 36.4912 13.4165C36.4655 13.4145 36.4507 13.4006 36.4467 13.375C36.2522 12.0407 35.0008 9.68191 33.2813 10.9959C32.8782 11.3039 32.6903 11.7414 32.7174 12.3083" stroke="#535E6F" stroke-width="0.431717"/>
<path d="M32.7188 12.308C32.6911 12.3317 32.666 12.3457 32.6434 12.3503C32.6353 12.3517 32.6271 12.3513 32.6192 12.3493C32.6112 12.3472 32.6039 12.3435 32.5975 12.3384C32.5911 12.3332 32.586 12.3268 32.5823 12.3195C32.5786 12.3122 32.5766 12.3041 32.5763 12.296C32.5723 12.1914 32.5356 12.1 32.4662 12.0216C32.4619 12.0166 32.4562 12.013 32.4499 12.0112C32.4436 12.0093 32.4369 12.0093 32.4306 12.0111C32.4242 12.0129 32.4186 12.0165 32.4142 12.0214C32.4098 12.0264 32.407 12.0324 32.4059 12.0389C32.3019 12.688 32.6841 13.2775 33.1341 13.7306C33.2492 13.8466 33.395 13.8826 33.5714 13.8384" stroke="#05050F" stroke-width="0.431717"/>
<path d="M33.572 13.8389L33.4069 14.206C33.3742 14.2784 33.3227 14.2963 33.2523 14.2596C33.0171 14.1364 32.8093 13.9759 32.6289 13.7779C32.6123 13.7598 32.5927 13.7552 32.5701 13.7643C31.915 14.0168 31.3692 14.7571 31.8675 15.4333C32.2882 16.0047 33.1197 15.8788 33.4853 15.3217C33.4904 15.3137 33.497 15.3068 33.5048 15.3014C33.5126 15.296 33.5214 15.2922 33.5308 15.2903C33.5401 15.2883 33.5497 15.2882 33.5591 15.29C33.5685 15.2918 33.5775 15.2954 33.5855 15.3006L34.0981 15.6338" stroke="#535E6F" stroke-width="0.431717"/>
<path d="M34.0975 15.6332C34.099 15.6533 34.1048 15.6696 34.1148 15.6822C34.1203 15.6892 34.1232 15.698 34.123 15.7069C34.1228 15.7158 34.1196 15.7244 34.1139 15.7312C34.1082 15.7381 34.1003 15.7428 34.0916 15.7446C34.0829 15.7463 34.0738 15.7451 34.0658 15.741L33.8329 15.6219C33.8123 15.6113 33.7919 15.6118 33.7718 15.6234C33.5623 15.747 33.3874 15.9483 33.1522 15.992C32.4006 16.1337 31.5985 15.8541 31.4764 15.009C31.4755 15.0036 31.4733 14.9984 31.4699 14.9941C31.4666 14.9897 31.4622 14.9863 31.4572 14.9841C31.4523 14.9819 31.4468 14.9811 31.4415 14.9816C31.4361 14.9821 31.431 14.984 31.4266 14.9871C31.3261 15.056 31.2764 15.158 31.2774 15.2932C31.2789 15.5701 31.2849 15.7897 31.2955 15.9521" stroke="#05050F" stroke-width="0.431717"/>
<path d="M31.2951 15.9528C30.8815 15.3894 30.7981 14.8064 31.0449 14.2039C31.0474 14.1974 31.048 14.1903 31.0466 14.1835C31.0453 14.1767 31.042 14.1705 31.0371 14.1656C31.0323 14.1607 31.0262 14.1573 31.0195 14.156C31.0129 14.1546 31.0059 14.1553 30.9996 14.1579C26.7969 15.8073 26.1916 20.6967 26.6801 24.5496C26.6816 24.5615 26.6795 24.5735 26.674 24.5841C26.6684 24.5947 26.6598 24.6035 26.6492 24.6092C25.9813 24.9643 25.4325 25.5998 25.7438 26.4011" stroke="#535E6F" stroke-width="0.431717"/>
<path d="M25.7441 26.4004C26.0788 27.063 26.6834 27.2387 27.3792 27.2372" stroke="#475068" stroke-width="0.431717"/>
<path d="M27.3795 27.2379C27.4494 27.2339 27.4992 27.2376 27.5288 27.2492C27.5615 27.2618 27.5605 27.2954 27.5258 27.3502C27.0041 28.1681 26.5646 29.0328 26.8413 30.0354" stroke="#535E6F" stroke-width="0.431717"/>
<path d="M26.8398 30.0352C27.1519 30.8192 27.9864 30.7445 28.6619 30.5063" stroke="#475068" stroke-width="0.431717"/>
<path d="M28.6621 30.5061L28.84 30.4722C28.8712 30.4661 28.8875 30.4789 28.889 30.5106L29.0843 35.4016" stroke="#535E6F" stroke-width="0.431717"/>
<path d="M40.2253 9.17268C39.8821 10.5773 39.774 12.0061 39.9012 13.459C39.9037 13.4852 39.9162 13.5045 39.9389 13.5171L40.7824 13.9973C40.801 14.0073 40.8138 14.0026 40.8209 13.983C41.1933 12.9351 41.3086 11.6174 41.3312 10.4866C41.3508 9.50739 41.3176 8.452 40.9234 7.62654C40.92 7.61966 40.9148 7.61376 40.9085 7.60941C40.9022 7.60507 40.8948 7.60242 40.8872 7.60174C40.8796 7.60106 40.872 7.60236 40.8652 7.60551C40.8583 7.60867 40.8524 7.61358 40.848 7.61975C40.508 8.09619 40.3814 8.53643 40.2253 9.17268Z" stroke="#806F68" stroke-width="0.431717"/>
<path d="M28.447 8.95509C28.3233 10.6648 28.6015 12.5826 29.1556 14.2049C29.1582 14.2121 29.1624 14.2186 29.1679 14.2239C29.1734 14.2293 29.18 14.2332 29.1873 14.2355C29.1946 14.2377 29.2022 14.2383 29.2097 14.237C29.2171 14.2358 29.2242 14.2328 29.2302 14.2282C29.5197 14.0142 29.8283 13.8332 30.1559 13.6855C30.1801 13.6744 30.1926 13.6556 30.1936 13.6289C30.2474 11.9866 30.0157 10.3877 29.4986 8.83222C29.3528 8.39348 29.1405 7.99721 28.8616 7.6434C28.855 7.63509 28.8465 7.62863 28.8367 7.62463C28.8269 7.62064 28.8162 7.61926 28.8057 7.62063C28.7952 7.622 28.7853 7.62607 28.7768 7.63244C28.7684 7.63881 28.7618 7.64726 28.7576 7.65697C28.5837 8.06706 28.4801 8.49977 28.447 8.95509Z" stroke="#806F68" stroke-width="0.431717"/>
<path d="M44.8055 25.3525L44.7324 25.5538" stroke="#58637E" stroke-width="0.431717"/>
<path d="M44.7315 25.5531C44.6147 25.5237 44.5272 25.5086 44.4111 25.5614C43.9467 25.774 43.4628 25.9473 42.9592 26.0815C42.9398 26.0867 42.923 26.0991 42.9124 26.1162C42.9017 26.1333 42.898 26.1538 42.9019 26.1735C42.9311 26.3192 43.017 26.4768 43.1597 26.6462" stroke="#9AADD7" stroke-width="0.431717"/>
<path d="M43.8597 29.3154L43.7969 29.3858" stroke="#58637E" stroke-width="0.431717"/>
<path d="M43.7983 29.3848L42.1836 29.9305" stroke="#9AADD7" stroke-width="0.431717"/>
<path d="M42.1823 29.9312L42.1793 29.733C42.1788 29.6948 42.165 29.689 42.1378 29.7156L41.0938 30.7514" stroke="#58637E" stroke-width="0.431717"/>
<path d="M41.095 30.7508C41.0317 30.7061 40.9797 30.691 40.939 30.7056C37.8015 31.8499 34.6512 31.6388 31.4217 31.3825C31.2191 31.3664 31.0149 31.3669 30.8088 31.384C30.7893 31.3857 30.7707 31.3926 30.7548 31.404C30.7389 31.4153 30.7263 31.4307 30.7184 31.4486C30.7105 31.4664 30.7075 31.4861 30.7097 31.5055C30.712 31.5249 30.7194 31.5433 30.7312 31.5589C31.035 31.9577 31.5061 32.3316 31.8928 32.6505C32.9417 33.5149 34.0031 34.3632 35.0771 35.1955C35.1349 35.2402 35.1997 35.2716 35.2716 35.2897C35.2932 35.2952 35.3045 35.3093 35.3055 35.3319C35.3065 35.3596 35.2985 35.3827 35.2814 35.4013" stroke="#9AADD7" stroke-width="0.431717"/>
<path d="M28.6619 30.5065C27.9477 30.2486 27.4082 30.0604 27.0434 29.9418C26.9931 29.9252 26.9253 29.9564 26.8398 30.0353" stroke="#9AADD7" stroke-width="0.431717"/>
<path d="M27.3792 27.2375C27.4978 27.0722 27.5418 26.9282 27.5112 26.8055C27.5061 26.7864 27.4941 26.7741 27.475 26.7686L25.9243 26.3299C25.9141 26.3269 25.9034 26.3277 25.8942 26.3321L25.7441 26.4007" stroke="#9AADD7" stroke-width="0.431717"/>
<path d="M31.2944 15.9525C31.2515 15.8995 31.2641 15.9111 31.3323 15.9874" stroke="#58637E" stroke-width="0.431717"/>
<path d="M31.3328 15.9874C31.3208 16.0768 31.3482 16.1409 31.415 16.1796C31.4236 16.1852 31.4263 16.1927 31.4233 16.2022L31.4165 16.2218C31.409 16.2465 31.413 16.2688 31.4286 16.2889C32.0188 17.0496 33.1556 17.0775 33.862 16.4955C34.0686 16.3251 34.1372 16.1374 34.0052 15.8984" stroke="#9AADD7" stroke-width="0.431717"/>
<path d="M34.0059 15.8984C34.0913 15.8391 34.141 15.7755 34.1551 15.7077C34.1617 15.675 34.1426 15.6504 34.0978 15.6338" stroke="#58637E" stroke-width="0.431717"/>
<path d="M33.5703 13.8382L33.6962 13.6211" stroke="#58637E" stroke-width="0.431717"/>
<path d="M33.6977 13.6216C33.7751 13.5763 33.8183 13.5213 33.8273 13.4565C33.8309 13.4308 33.8226 13.41 33.8025 13.3939C33.3939 13.0773 32.9959 12.7961 32.7637 12.4365" stroke="#9AADD7" stroke-width="0.431717"/>
<path d="M32.7632 12.4367L32.7188 12.3086" stroke="#58637E" stroke-width="0.431717"/>
<path d="M40.3042 18.9139C41.147 19.2215 41.1968 21.826 41.1832 22.6251C41.1827 22.6533 41.1965 22.6676 41.2246 22.6681L41.9174 22.6892C41.9411 22.6897 41.9531 22.6781 41.9536 22.6545C41.9883 21.5366 41.9197 18.8973 40.7294 18.2536C39.6551 17.6716 38.9714 18.7398 38.7724 19.6467C38.5739 20.5528 38.496 21.5305 38.5387 22.5799C38.5397 22.6005 38.5505 22.6103 38.5711 22.6093L39.2254 22.5821C39.2772 22.5801 39.3023 22.5533 39.3008 22.5015C39.2895 22.0477 39.3129 18.5521 40.3042 18.9139Z" stroke="#535E6F" stroke-width="0.431717"/>
<path d="M30.6151 18.5115C30.1577 18.1662 29.7042 18.1391 29.2544 18.4301C28.2427 19.0837 28.2103 21.6709 28.2412 22.7172C28.2417 22.7368 28.2518 22.7464 28.2714 22.7459L28.9747 22.7338C28.9802 22.7337 28.9856 22.7325 28.9907 22.7303C28.9957 22.7281 29.0003 22.725 29.0041 22.7211C29.0079 22.7171 29.0108 22.7125 29.0128 22.7074C29.0147 22.7024 29.0156 22.697 29.0154 22.6916C28.9905 22.136 29.0275 19.092 29.8386 19.0286C30.8473 18.951 30.9068 22.1232 30.8925 22.7444C30.8915 22.7851 30.9111 22.8062 30.9513 22.8077L31.6245 22.8356C31.6481 22.8366 31.6604 22.8253 31.6614 22.8016C31.6938 21.7161 31.6343 19.2804 30.6151 18.5115Z" stroke="#535E6F" stroke-width="0.431717"/>
<path d="M35.2349 29.2929C36.1032 29.2929 36.9359 28.7835 37.5499 27.8769C38.1639 26.9703 38.5088 25.7406 38.5088 24.4584C38.5088 23.8236 38.4242 23.1949 38.2596 22.6084C38.0951 22.0219 37.8539 21.4889 37.5499 21.04C37.2459 20.5911 36.885 20.235 36.4878 19.992C36.0906 19.7491 35.6648 19.624 35.2349 19.624C34.805 19.624 34.3792 19.7491 33.982 19.992C33.5848 20.235 33.2239 20.5911 32.9199 21.04C32.6158 21.4889 32.3747 22.0219 32.2102 22.6084C32.0456 23.1949 31.9609 23.8236 31.9609 24.4584C31.9609 25.0933 32.0456 25.722 32.2102 26.3085C32.3747 26.895 32.6158 27.428 32.9199 27.8769C33.2239 28.3258 33.5848 28.6819 33.982 28.9249C34.3792 29.1678 34.805 29.2929 35.2349 29.2929Z" stroke="#535E6F" stroke-width="0.431717"/>
<path d="M32.7637 12.4365C32.8953 12.9828 33.2067 13.3778 33.6977 13.6216" stroke="#4C5576" stroke-width="0.431717"/>
<path d="M34.0044 15.8984C33.8755 16.0228 33.7647 16.163 33.6177 16.2603C32.9488 16.7005 32.2763 16.7051 31.6004 16.2739C31.4918 16.2037 31.421 16.0831 31.332 15.9874" stroke="#4C5576" stroke-width="0.431717"/>
<path d="M37.1202 23.1038C36.9116 23.6933 36.5111 24.0996 35.9186 24.3227C35.8552 24.3469 35.7886 24.376 35.7188 24.4102C35.6937 24.4227 35.6811 24.4428 35.6811 24.4705V26.129C35.6811 26.1351 35.6824 26.1412 35.6851 26.1468C35.6877 26.1523 35.6915 26.1572 35.6963 26.1611C35.7011 26.165 35.7066 26.1678 35.7126 26.1693C35.7186 26.1708 35.7248 26.1709 35.7309 26.1697C36.5028 26.0272 37.7165 25.311 37.721 24.3959C37.726 23.3953 37.4908 22.4788 37.0154 21.6466C36.2533 20.313 34.7599 19.8818 33.7286 21.2365C32.9303 22.2843 32.6589 23.688 32.7577 24.9658C32.7591 24.9898 32.7678 25.0132 32.7826 25.0329C33.3027 25.7309 33.9998 26.1254 34.8737 26.2164C34.8968 26.2184 34.9084 26.2079 34.9084 26.1847V24.4705C34.9084 24.4434 34.8951 24.4268 34.8685 24.4207C34.1327 24.2529 33.6369 23.8156 33.3811 23.109C33.3794 23.1043 33.3787 23.0992 33.379 23.0941C33.3793 23.089 33.3807 23.084 33.383 23.0794C33.3853 23.0749 33.3886 23.0708 33.3925 23.0675C33.3965 23.0641 33.401 23.0616 33.406 23.06L34.0611 22.852C34.0832 22.8449 34.0988 22.8522 34.1078 22.8738C34.5556 23.9616 35.9472 23.9503 36.3882 22.858C36.3968 22.8359 36.4123 22.8284 36.4349 22.8354L37.0908 23.045C37.1209 23.0545 37.1307 23.0741 37.1202 23.1038Z" stroke="#806F68" stroke-width="0.431717"/>
<path d="M33.9081 27.865C34.9378 28.9898 36.2382 28.5344 36.9468 27.3773C37.1589 27.0305 37.3343 26.6644 37.473 26.2789C37.4846 26.2468 37.4758 26.2397 37.4466 26.2578C37.283 26.3573 37.1044 26.484 36.9536 26.5594C35.6434 27.2162 34.3513 27.1622 33.0773 26.3973C33.0567 26.3847 33.0502 26.39 33.0577 26.4131C33.2341 26.9544 33.5176 27.4383 33.9081 27.865Z" stroke="#806F68" stroke-width="0.431717"/>
<path d="M43.2793 26.6091C43.8696 26.4063 44.4297 26.1304 44.732 25.5537" stroke="#4C5576" stroke-width="0.431717"/>
<path d="M42.2401 31.089C42.2536 30.9074 41.9981 30.731 41.882 30.6186C41.8733 30.6104 41.8622 30.6052 41.8504 30.6039C41.8385 30.6025 41.8265 30.605 41.8162 30.6111C41.8059 30.6171 41.7979 30.6264 41.7933 30.6374C41.7887 30.6484 41.7878 30.6606 41.7908 30.6722C41.9498 31.2639 41.9468 32.0231 41.9461 32.6359C41.9461 32.7558 41.9762 32.8726 41.977 32.982C41.984 33.7901 41.9777 34.5967 41.9581 35.4018" stroke="#05050F" stroke-width="0.431717"/>
<path d="M41.491 35.4015L41.4209 30.947C41.4205 30.9233 41.4128 30.9003 41.3988 30.881C41.3847 30.8618 41.3651 30.8472 41.3425 30.8392L41.0938 30.751" stroke="#4C5576" stroke-width="0.431717"/>
<path d="M42.1836 29.9305L42.2062 30.254C42.2077 30.2776 42.2205 30.2889 42.2447 30.2879C42.907 30.2557 43.4249 29.9547 43.7983 29.3848" stroke="#4C5576" stroke-width="0.431717"/>
<path d="M24.9988 5.54883H44.8814C47.6119 5.8172 49.6902 7.77871 49.8523 10.5672V30.4114C49.6616 33.1509 47.6028 35.1833 44.8694 35.4011H42.2618C42.2468 33.6472 42.2264 32.2337 42.2008 31.1608C42.1998 31.1165 42.2123 31.0924 42.2385 31.0884C42.3123 31.0673 42.3661 31.0653 42.3998 31.0824C43.3959 30.921 44.1173 30.4368 44.5641 29.6297C45.0556 28.7432 45.0126 27.8137 44.3937 27.0123C44.3904 27.0081 44.388 27.0032 44.3867 26.998C44.3854 26.9928 44.3851 26.9874 44.386 26.9821C44.3868 26.9768 44.3887 26.9717 44.3916 26.9672C44.3945 26.9627 44.3983 26.9588 44.4028 26.9558C44.6576 26.7799 44.8176 26.6643 44.883 26.609C46.2173 25.4805 45.5011 23.8726 44.2588 23.0901C44.2372 23.076 44.2274 23.0562 44.2294 23.0305C44.4766 19.9661 43.8449 16.6839 41.4793 14.5407C41.4602 14.5231 41.4552 14.502 41.4643 14.4774C41.9324 13.1695 42.0975 11.6882 42.1231 10.2604C42.1392 9.34017 42.0221 8.46445 41.7718 7.63321C41.5314 6.83187 40.7255 6.42781 40.1556 7.25403C39.9606 7.53697 39.8111 7.84328 39.707 8.17297C39.1969 9.78519 38.9932 11.4318 39.0957 13.1129C39.096 13.119 39.0949 13.125 39.0923 13.1305C39.0897 13.136 39.0859 13.1408 39.081 13.1445C39.0762 13.1481 39.0705 13.1505 39.0645 13.1515C39.0585 13.1524 39.0524 13.1518 39.0467 13.1499C38.4295 12.9333 37.7966 12.784 37.1477 12.7021C37.1226 12.6991 37.1065 12.6855 37.0995 12.6614C36.749 11.4462 35.6596 9.69724 34.167 9.82691C32.5568 9.96637 31.5648 11.4341 32.1226 13.0036C32.1301 13.0252 32.1229 13.0388 32.1007 13.0443L31.0182 13.3172C30.9971 13.3222 30.9866 13.3139 30.9866 13.2923C30.9891 11.66 30.7282 10.0729 30.2041 8.53104C30.0179 7.98375 29.6259 7.05501 29.0137 6.8658C28.1121 6.58763 27.7624 7.92721 27.7058 8.52652C27.5108 10.6051 27.7847 12.6644 28.5275 14.7043C28.5366 14.7289 28.5318 14.7505 28.5132 14.7691C26.0353 17.2048 25.4367 20.8361 25.8634 24.1515C25.865 24.1633 25.8634 24.1753 25.8588 24.1862C25.8541 24.197 25.8466 24.2064 25.837 24.2133C24.3829 25.2544 24.606 27.2151 26.3014 27.8597C26.3068 27.8617 26.3118 27.8649 26.316 27.8689C26.3201 27.8729 26.3235 27.8778 26.3257 27.8831C26.328 27.8885 26.3291 27.8943 26.3291 27.9001C26.3291 27.9059 26.3278 27.9116 26.3255 27.917C25.7662 29.206 25.7473 31.2686 27.6191 31.4382C27.7586 31.4502 27.9568 31.4382 28.128 31.445C28.1551 31.446 28.1694 31.46 28.1709 31.4872L28.3247 35.4011H24.992C22.2502 35.1931 20.1847 33.1456 20 30.4024V10.5574C20.1741 7.80358 22.257 5.75538 24.9988 5.54883Z" fill="#914C97"/>
<path d="M42.3987 31.0829L42.3882 31.0354C42.3822 31.0082 42.3922 30.9902 42.4183 30.9811C43.2061 30.7097 43.917 30.3094 44.0926 29.4614C44.0959 29.4451 44.0947 29.4283 44.089 29.4128C44.0834 29.3972 44.0735 29.3835 44.0606 29.3732C44.0476 29.3629 44.0321 29.3564 44.0156 29.3544C43.9992 29.3524 43.9826 29.355 43.9675 29.3618C43.8876 29.399 43.8512 29.3835 43.8582 29.3151C44.4899 28.2333 43.8891 27.4614 43.0719 26.786C43.0292 26.7508 43.0177 26.7221 43.0373 26.7C43.0563 26.6784 43.0966 26.6606 43.1579 26.6465L43.277 26.6088C43.3591 26.6367 43.4014 26.9081 43.6087 27.0031C43.6293 27.0126 43.6506 27.0139 43.6727 27.0068C44.3286 26.7829 44.9663 26.3548 45.1435 25.6401C45.1701 25.5321 45.1581 25.4459 45.1073 25.3815C45.0981 25.37 45.0854 25.3618 45.0711 25.3581C45.0569 25.3544 45.0418 25.3555 45.0282 25.3612C44.8925 25.4155 44.8173 25.4124 44.8028 25.3521C44.9535 24.4882 44.1039 23.8987 43.473 23.5195C43.4504 23.506 43.4403 23.4861 43.4428 23.46C43.9042 18.5374 42.1515 13.7927 36.4901 13.4165C36.4645 13.4145 36.4496 13.4007 36.4456 13.375C36.2511 12.0407 34.9997 9.68194 33.2802 10.9959C32.8772 11.304 32.6892 11.7414 32.7163 12.3083C32.6887 12.332 32.6636 12.346 32.641 12.3506C32.6329 12.352 32.6246 12.3516 32.6167 12.3496C32.6088 12.3475 32.6014 12.3438 32.5951 12.3387C32.5887 12.3335 32.5835 12.3271 32.5799 12.3198C32.5762 12.3125 32.5742 12.3044 32.5739 12.2963C32.5698 12.1917 32.5332 12.1003 32.4638 12.0219C32.4595 12.0169 32.4538 12.0133 32.4475 12.0115C32.4412 12.0096 32.4345 12.0096 32.4281 12.0114C32.4218 12.0132 32.4161 12.0168 32.4118 12.0217C32.4074 12.0267 32.4045 12.0327 32.4035 12.0392C32.2995 12.6883 32.6817 13.2778 33.1317 13.7308C33.2468 13.8469 33.3925 13.8829 33.5689 13.8386L33.4039 14.2058C33.3712 14.2781 33.3197 14.296 33.2493 14.2593C33.0141 14.1362 32.8063 13.9756 32.6259 13.7776C32.6093 13.7595 32.5897 13.755 32.5671 13.764C31.912 14.0166 31.3662 14.7568 31.8645 15.433C32.2851 16.0044 33.1166 15.8786 33.4822 15.3215C33.4873 15.3135 33.494 15.3066 33.5018 15.3012C33.5096 15.2958 33.5184 15.292 33.5278 15.29C33.5371 15.288 33.5467 15.2879 33.5561 15.2897C33.5655 15.2915 33.5745 15.2951 33.5825 15.3004L34.0951 15.6336C34.0966 15.6537 34.1024 15.67 34.1125 15.6826C34.1179 15.6896 34.1208 15.6983 34.1206 15.7072C34.1205 15.7162 34.1173 15.7248 34.1116 15.7316C34.1058 15.7385 34.098 15.7432 34.0892 15.7449C34.0805 15.7467 34.0714 15.7454 34.0635 15.7414L33.8305 15.6222C33.8099 15.6117 33.7896 15.6122 33.7695 15.6238C33.5599 15.7474 33.385 15.9487 33.1498 15.9924C32.3982 16.1341 31.5961 15.8544 31.474 15.0094C31.4731 15.0039 31.4709 14.9988 31.4676 14.9945C31.4642 14.9901 31.4598 14.9867 31.4549 14.9845C31.4499 14.9823 31.4445 14.9814 31.4391 14.982C31.4338 14.9825 31.4286 14.9844 31.4242 14.9875C31.3237 15.0564 31.274 15.1584 31.275 15.2936C31.2765 15.5705 31.2825 15.7901 31.2931 15.9524C30.8795 15.3891 30.796 14.8061 31.0428 14.2035C31.0453 14.1971 31.0459 14.19 31.0446 14.1832C31.0432 14.1764 31.0399 14.1701 31.0351 14.1652C31.0302 14.1603 31.0241 14.157 31.0175 14.1556C31.0108 14.1542 31.0039 14.1549 30.9976 14.1575C26.7949 15.8069 26.1895 20.6964 26.678 24.5493C26.6796 24.5611 26.6774 24.5731 26.6719 24.5838C26.6664 24.5944 26.6577 24.6031 26.6471 24.6088C25.9792 24.9639 25.4304 25.5994 25.7418 26.4007C26.0765 27.0634 26.681 27.239 27.3768 27.2375C27.4467 27.2335 27.4965 27.2373 27.5261 27.2488C27.5588 27.2614 27.5578 27.2951 27.5231 27.3498C27.0014 28.1678 26.5619 29.0324 26.8386 30.035C27.1507 30.819 27.9852 30.7444 28.6606 30.5062L28.8386 30.4723C28.8697 30.4662 28.886 30.479 28.8876 30.5107L29.0828 35.4017H28.3237L28.1699 31.4877C28.1684 31.4606 28.1541 31.4465 28.1269 31.4455C27.9558 31.4387 27.7575 31.4508 27.6181 31.4387C25.7463 31.2691 25.7651 29.2066 26.3245 27.9175C26.3268 27.9121 26.328 27.9064 26.328 27.9006C26.3281 27.8948 26.3269 27.889 26.3247 27.8837C26.3224 27.8783 26.3191 27.8735 26.3149 27.8694C26.3107 27.8654 26.3058 27.8623 26.3004 27.8602C24.605 27.2156 24.3818 25.2549 25.836 24.2138C25.8456 24.207 25.8531 24.1976 25.8577 24.1867C25.8624 24.1758 25.864 24.1638 25.8624 24.152C25.4357 20.8366 26.0342 17.2053 28.5121 14.7696C28.5307 14.751 28.5355 14.7294 28.5265 14.7048C27.7837 12.6649 27.5098 10.6056 27.7048 8.52704C27.7613 7.92774 28.1111 6.58815 29.0127 6.86632C29.6248 7.05554 30.0168 7.98427 30.203 8.53157C30.7272 10.0734 30.988 11.6605 30.9855 13.2929C30.9855 13.3145 30.9961 13.3228 31.0172 13.3177L32.0997 13.0448C32.1218 13.0393 32.1291 13.0257 32.1216 13.0041C31.5637 11.4346 32.5558 9.96689 34.166 9.82743C35.6586 9.69777 36.7479 11.4467 37.0985 12.6619C37.1055 12.686 37.1216 12.6996 37.1467 12.7026C37.7955 12.7845 38.4285 12.9338 39.0456 13.1504C39.0514 13.1524 39.0575 13.1529 39.0635 13.152C39.0695 13.151 39.0751 13.1486 39.08 13.145C39.0848 13.1413 39.0887 13.1365 39.0913 13.131C39.0938 13.1255 39.095 13.1195 39.0946 13.1134C38.9921 11.4324 39.1959 9.78572 39.706 8.17349C39.81 7.84381 39.9595 7.53749 40.1545 7.25455C40.7245 6.42834 41.5303 6.8324 41.7708 7.63374C42.0211 8.46498 42.1382 9.34069 42.1221 10.2609C42.0965 11.6887 41.9314 13.17 41.4632 14.4779C41.4542 14.5025 41.4592 14.5236 41.4783 14.5412C43.8439 16.6844 44.4756 19.9667 44.2283 23.031C44.2263 23.0567 44.2361 23.0765 44.2577 23.0906C45.5001 23.8731 46.2162 25.481 44.8819 26.6096C44.8166 26.6648 44.6565 26.7804 44.4017 26.9563C44.3973 26.9593 44.3935 26.9632 44.3906 26.9677C44.3877 26.9723 44.3858 26.9773 44.3849 26.9826C44.3841 26.9879 44.3843 26.9933 44.3857 26.9985C44.387 27.0038 44.3894 27.0086 44.3927 27.0129C45.0116 27.8142 45.0545 28.7437 44.563 29.6302C44.1163 30.4373 43.3948 30.9216 42.3987 31.0829ZM40.2231 9.17309C39.8799 10.5778 39.7718 12.0065 39.899 13.4595C39.9015 13.4856 39.9141 13.5049 39.9367 13.5175L40.7802 13.9977C40.7988 14.0078 40.8116 14.003 40.8187 13.9834C41.1911 12.9355 41.3064 11.6178 41.329 10.487C41.3486 9.5078 41.3155 8.45241 40.9212 7.62695C40.9178 7.62007 40.9127 7.61417 40.9063 7.60983C40.9 7.60548 40.8927 7.60283 40.8851 7.60215C40.8775 7.60147 40.8699 7.60277 40.863 7.60593C40.8561 7.60908 40.8502 7.61399 40.8458 7.62017C40.5058 8.0966 40.3792 8.53684 40.2231 9.17309ZM28.445 8.95523C28.3214 10.665 28.5996 12.5827 29.1537 14.205C29.1562 14.2122 29.1605 14.2188 29.166 14.2241C29.1715 14.2294 29.1781 14.2333 29.1854 14.2356C29.1926 14.2379 29.2003 14.2384 29.2078 14.2372C29.2152 14.2359 29.2222 14.2329 29.2283 14.2284C29.5178 14.0143 29.8263 13.8334 30.154 13.6856C30.1781 13.6746 30.1907 13.6557 30.1917 13.6291C30.2455 11.9867 30.0138 10.3878 29.4967 8.83235C29.3509 8.39361 29.1386 7.99734 28.8597 7.64354C28.8531 7.63523 28.8445 7.62876 28.8347 7.62477C28.8249 7.62078 28.8143 7.6194 28.8038 7.62076C28.7933 7.62213 28.7834 7.6262 28.7749 7.63257C28.7665 7.63894 28.7598 7.6474 28.7556 7.65711C28.5817 8.0672 28.4782 8.49991 28.445 8.95523Z" fill="black"/>
<path d="M40.2234 9.17268C40.3794 8.53643 40.5061 8.09619 40.846 7.61975C40.8504 7.61358 40.8563 7.60867 40.8632 7.60551C40.8701 7.60236 40.8777 7.60106 40.8853 7.60174C40.8929 7.60242 40.9002 7.60507 40.9065 7.60941C40.9129 7.61376 40.918 7.61966 40.9214 7.62654C41.3157 8.452 41.3489 9.50739 41.3293 10.4866C41.3066 11.6174 41.1913 12.9351 40.8189 13.983C40.8119 14.0026 40.7991 14.0073 40.7805 13.9973L39.9369 13.5171C39.9143 13.5045 39.9017 13.4852 39.8992 13.459C39.7721 12.0061 39.8801 10.5773 40.2234 9.17268Z" fill="#FFDDD0"/>
<path d="M28.445 8.95509C28.4782 8.49977 28.5817 8.06706 28.7556 7.65697C28.7598 7.64726 28.7664 7.63881 28.7749 7.63244C28.7833 7.62607 28.7933 7.622 28.8038 7.62063C28.8143 7.61926 28.8249 7.62064 28.8347 7.62463C28.8445 7.62863 28.8531 7.63509 28.8596 7.6434C29.1386 7.99721 29.3509 8.39348 29.4966 8.83222C30.0138 10.3877 30.2455 11.9866 30.1917 13.6289C30.1907 13.6556 30.1781 13.6744 30.154 13.6855C29.8263 13.8332 29.5177 14.0142 29.2283 14.2282C29.2222 14.2328 29.2152 14.2358 29.2077 14.237C29.2003 14.2383 29.1926 14.2377 29.1854 14.2355C29.1781 14.2332 29.1714 14.2293 29.1659 14.2239C29.1604 14.2186 29.1562 14.2121 29.1536 14.2049C28.5996 12.5826 28.3214 10.6648 28.445 8.95509Z" fill="#FFDDD0"/>
<path d="M44.8029 25.3521L44.7297 25.5534C44.6129 25.524 44.5255 25.5089 44.4094 25.5617C43.945 25.7743 43.461 25.9477 42.9575 26.0818C42.938 26.087 42.9212 26.0994 42.9106 26.1165C42.9 26.1336 42.8962 26.1541 42.9002 26.1738C42.9293 26.3196 43.0152 26.4771 43.158 26.6465C43.0967 26.6605 43.0565 26.6784 43.0374 26.7C43.0178 26.7221 43.0293 26.7508 43.072 26.7859C43.8892 27.4614 44.49 28.2333 43.8583 29.3151L43.7957 29.3852L42.181 29.931L42.178 29.7327C42.1775 29.6945 42.1637 29.6887 42.1365 29.7154L41.0924 30.7512C41.0291 30.7064 40.9771 30.6914 40.9364 30.7059C37.7989 31.8503 34.6486 31.6392 31.4191 31.3829C31.2166 31.3668 31.0123 31.3673 30.8062 31.3844C30.7867 31.3861 30.7681 31.393 30.7522 31.4043C30.7363 31.4157 30.7237 31.4311 30.7158 31.4489C30.7079 31.4668 30.7049 31.4864 30.7071 31.5059C30.7094 31.5253 30.7168 31.5437 30.7286 31.5593C31.0324 31.9581 31.5035 32.332 31.8902 32.6509C32.9391 33.5153 34.0005 34.3636 35.0745 35.1958C35.1323 35.2406 35.1971 35.272 35.269 35.2901C35.2906 35.2956 35.3019 35.3097 35.3029 35.3323C35.3039 35.3599 35.2959 35.383 35.2788 35.4016H29.0829L28.8877 30.5107C28.8862 30.479 28.8698 30.4662 28.8387 30.4722L28.6608 30.5062C27.9466 30.2483 27.4071 30.0601 27.0423 29.9415C26.992 29.9249 26.9242 29.9561 26.8387 30.035C26.5621 29.0324 27.0015 28.1677 27.5232 27.3498C27.5579 27.295 27.5589 27.2614 27.5262 27.2488C27.4966 27.2372 27.4468 27.2335 27.377 27.2375C27.4956 27.0721 27.5395 26.9282 27.5089 26.8055C27.5039 26.7864 27.4918 26.7741 27.4727 26.7686L25.922 26.3299C25.9119 26.3269 25.9011 26.3277 25.8919 26.3321L25.7419 26.4007C25.4305 25.5994 25.9793 24.9639 26.6472 24.6088C26.6579 24.6031 26.6665 24.5944 26.672 24.5837C26.6775 24.5731 26.6797 24.5611 26.6781 24.5493C26.1897 20.6964 26.795 15.8069 30.9977 14.1575C31.004 14.1549 31.0109 14.1542 31.0176 14.1556C31.0242 14.157 31.0304 14.1603 31.0352 14.1652C31.04 14.1701 31.0433 14.1764 31.0447 14.1832C31.0461 14.19 31.0454 14.197 31.0429 14.2035C30.7962 14.8061 30.8796 15.389 31.2932 15.9524C31.2505 15.8996 31.263 15.9112 31.3309 15.9871C31.3188 16.0765 31.3462 16.1406 31.4131 16.1793C31.4216 16.1848 31.4244 16.1924 31.4213 16.2019L31.4146 16.2215C31.407 16.2462 31.411 16.2685 31.4266 16.2886C32.0169 17.0493 33.1537 17.0771 33.86 16.4952C34.0666 16.3248 34.1352 16.1371 34.0033 15.8981C34.0887 15.8388 34.1385 15.7753 34.1525 15.7074C34.1591 15.6747 34.14 15.6501 34.0952 15.6335L33.5826 15.3003C33.5746 15.2951 33.5656 15.2915 33.5562 15.2897C33.5468 15.2879 33.5372 15.288 33.5279 15.29C33.5185 15.2919 33.5097 15.2957 33.5019 15.3011C33.4941 15.3065 33.4874 15.3134 33.4824 15.3214C33.1167 15.8785 32.2853 16.0044 31.8646 15.433C31.3663 14.7568 31.9121 14.0165 32.5672 13.764C32.5898 13.7549 32.6094 13.7595 32.626 13.7776C32.8064 13.9756 33.0142 14.1361 33.2494 14.2593C33.3198 14.296 33.3713 14.2781 33.404 14.2057L33.5691 13.8386L33.6949 13.6215C33.7723 13.5763 33.8156 13.5213 33.8246 13.4564C33.8281 13.4308 33.8198 13.4099 33.7997 13.3939C33.3911 13.0772 32.9931 12.7961 32.7609 12.4365L32.7165 12.3083C32.6893 11.7414 32.8773 11.3039 33.2803 10.9959C34.9999 9.68191 36.2512 12.0407 36.4457 13.375C36.4498 13.4006 36.4646 13.4145 36.4902 13.4165C42.1516 13.7926 43.9043 18.5373 43.4429 23.46C43.4404 23.4861 43.4505 23.5059 43.4731 23.5195C44.1041 23.8987 44.9536 24.4882 44.8029 25.3521ZM40.3017 18.9143C41.1445 19.2218 41.1942 21.8264 41.1806 22.6255C41.1801 22.6536 41.194 22.6679 41.2221 22.6684L41.9149 22.6895C41.9385 22.69 41.9506 22.6785 41.9511 22.6549C41.9857 21.5369 41.9171 18.8977 40.7268 18.2539C39.6526 17.6719 38.9689 18.7401 38.7698 19.647C38.5713 20.5531 38.4934 21.5309 38.5361 22.5802C38.5372 22.6008 38.548 22.6106 38.5686 22.6096L39.2229 22.5825C39.2747 22.5805 39.2998 22.5536 39.2983 22.5018C39.287 22.048 39.3103 18.5524 40.3017 18.9143ZM30.614 18.511C30.1566 18.1657 29.7031 18.1386 29.2533 18.4295C28.2416 19.0831 28.2092 21.6703 28.2401 22.7167C28.2406 22.7363 28.2507 22.7458 28.2703 22.7453L28.9736 22.7333C28.9791 22.7332 28.9846 22.732 28.9896 22.7298C28.9946 22.7276 28.9992 22.7245 29.003 22.7205C29.0068 22.7166 29.0097 22.712 29.0117 22.7069C29.0136 22.7018 29.0145 22.6964 29.0143 22.691C28.9894 22.1355 29.0264 19.0914 29.8375 19.0281C30.8462 18.9505 30.9057 22.1226 30.8914 22.7438C30.8904 22.7845 30.91 22.8056 30.9502 22.8071L31.6234 22.835C31.647 22.836 31.6593 22.8247 31.6603 22.8011C31.6927 21.7156 31.6332 19.2799 30.614 18.511ZM35.232 29.2925C36.1003 29.2925 36.9331 28.7831 37.5471 27.8765C38.1611 26.9699 38.506 25.7402 38.506 24.4581C38.506 23.8232 38.4213 23.1945 38.2568 22.608C38.0922 22.0215 37.8511 21.4885 37.5471 21.0396C37.2431 20.5907 36.8821 20.2346 36.4849 19.9916C36.0877 19.7487 35.662 19.6236 35.232 19.6236C34.8021 19.6236 34.3764 19.7487 33.9792 19.9916C33.5819 20.2346 33.221 20.5907 32.917 21.0396C32.613 21.4885 32.3718 22.0215 32.2073 22.608C32.0428 23.1945 31.9581 23.8232 31.9581 24.4581C31.9581 25.0929 32.0428 25.7216 32.2073 26.3081C32.3718 26.8946 32.613 27.4276 32.917 27.8765C33.221 28.3254 33.5819 28.6815 33.9792 28.9245C34.3764 29.1674 34.8021 29.2925 35.232 29.2925Z" fill="#A6BBDE"/>
<path d="M32.7168 12.308L32.7613 12.4362C32.893 12.9825 33.2043 13.3775 33.6953 13.6212L33.5694 13.8384C33.393 13.8826 33.2473 13.8466 33.1322 13.7306C32.6821 13.2775 32.2999 12.688 32.404 12.0389C32.405 12.0324 32.4079 12.0264 32.4123 12.0214C32.4166 12.0165 32.4223 12.0129 32.4286 12.0111C32.4349 12.0093 32.4417 12.0093 32.448 12.0112C32.4543 12.013 32.4599 12.0166 32.4643 12.0216C32.5336 12.1 32.5703 12.1914 32.5743 12.296C32.5746 12.3041 32.5767 12.3122 32.5804 12.3195C32.584 12.3268 32.5892 12.3332 32.5956 12.3384C32.6019 12.3435 32.6093 12.3472 32.6172 12.3493C32.6251 12.3513 32.6334 12.3517 32.6414 12.3503C32.664 12.3457 32.6892 12.3317 32.7168 12.308Z" fill="#090A1D"/>
<path d="M32.7617 12.4355C32.9939 12.7951 33.3919 13.0763 33.8005 13.3929C33.8206 13.409 33.8289 13.4299 33.8254 13.4555C33.8163 13.5203 33.7731 13.5754 33.6957 13.6206C33.2047 13.3768 32.8934 12.9818 32.7617 12.4355Z" fill="#8E9FCF"/>
<path d="M34.0963 15.6332C34.1411 15.6498 34.1602 15.6744 34.1536 15.7071C34.1396 15.7749 34.0898 15.8385 34.0044 15.8978C33.8755 16.0222 33.7646 16.1624 33.6176 16.2596C32.9487 16.6999 32.2763 16.7044 31.6003 16.2732C31.4918 16.2031 31.4209 16.0825 31.332 15.9867C31.2641 15.9108 31.2516 15.8993 31.2943 15.9521C31.2837 15.7897 31.2777 15.5701 31.2762 15.2932C31.2752 15.158 31.3249 15.056 31.4255 14.9871C31.4298 14.984 31.435 14.9821 31.4403 14.9816C31.4457 14.9811 31.4511 14.9819 31.4561 14.9841C31.461 14.9863 31.4654 14.9897 31.4688 14.9941C31.4721 14.9984 31.4743 15.0036 31.4752 15.009C31.5973 15.8541 32.3994 16.1337 33.151 15.992C33.3862 15.9483 33.5611 15.747 33.7707 15.6234C33.7908 15.6118 33.8111 15.6113 33.8317 15.6219L34.0647 15.741C34.0726 15.7451 34.0817 15.7463 34.0904 15.7446C34.0992 15.7428 34.1071 15.7381 34.1128 15.7312C34.1185 15.7244 34.1217 15.7158 34.1218 15.7069C34.122 15.698 34.1191 15.6892 34.1137 15.6822C34.1036 15.6696 34.0978 15.6533 34.0963 15.6332Z" fill="#090A1D"/>
<path d="M34.0033 15.8975C34.1352 16.1364 34.0666 16.3241 33.86 16.4945C33.1537 17.0765 32.0169 17.0486 31.4266 16.288C31.411 16.2679 31.407 16.2455 31.4146 16.2209L31.4214 16.2013C31.4244 16.1917 31.4216 16.1842 31.4131 16.1786C31.3462 16.1399 31.3188 16.0759 31.3309 15.9864C31.4198 16.0822 31.4907 16.2028 31.5993 16.2729C32.2752 16.7041 32.9476 16.6996 33.6166 16.2593C33.7636 16.1621 33.8744 16.0218 34.0033 15.8975Z" fill="#8E9FCF"/>
<path d="M40.3022 18.9139C39.3109 18.5521 39.2876 22.0477 39.2989 22.5015C39.3004 22.5533 39.2753 22.5801 39.2235 22.5821L38.5692 22.6093C38.5485 22.6103 38.5377 22.6005 38.5367 22.5799C38.494 21.5305 38.5719 20.5528 38.7704 19.6467C38.9694 18.7398 39.6532 17.6716 40.7274 18.2536C41.9177 18.8973 41.9863 21.5366 41.9517 22.6545C41.9512 22.6781 41.9391 22.6897 41.9155 22.6892L41.2227 22.6681C41.1945 22.6676 41.1807 22.6533 41.1812 22.6251C41.1948 21.826 41.145 19.2215 40.3022 18.9139Z" fill="black"/>
<path d="M30.6151 18.5105C31.6343 19.2795 31.6938 21.7151 31.6614 22.8007C31.6604 22.8243 31.6481 22.8356 31.6245 22.8346L30.9513 22.8067C30.9111 22.8052 30.8915 22.7841 30.8925 22.7434C30.9068 22.1222 30.8473 18.95 29.8386 19.0277C29.0275 19.091 28.9905 22.135 29.0154 22.6906C29.0156 22.696 29.0147 22.7014 29.0128 22.7065C29.0108 22.7115 29.0079 22.7162 29.0041 22.7201C29.0003 22.724 28.9957 22.7272 28.9907 22.7294C28.9856 22.7315 28.9802 22.7327 28.9747 22.7328L28.2714 22.7449C28.2518 22.7454 28.2417 22.7358 28.2412 22.7162C28.2103 21.6699 28.2427 19.0827 29.2544 18.4291C29.7042 18.1381 30.1577 18.1653 30.6151 18.5105Z" fill="black"/>
<path d="M35.2329 29.2919C34.803 29.2919 34.3773 29.1668 33.9801 28.9239C33.5828 28.6809 33.2219 28.3248 32.9179 27.8759C32.6139 27.427 32.3727 26.8941 32.2082 26.3075C32.0437 25.721 31.959 25.0923 31.959 24.4575C31.959 23.8226 32.0437 23.194 32.2082 22.6074C32.3727 22.0209 32.6139 21.4879 32.9179 21.039C33.2219 20.5901 33.5828 20.234 33.9801 19.991C34.3773 19.7481 34.803 19.623 35.2329 19.623C35.6629 19.623 36.0886 19.7481 36.4858 19.991C36.883 20.234 37.244 20.5901 37.548 21.039C37.852 21.4879 38.0931 22.0209 38.2577 22.6074C38.4222 23.194 38.5069 23.8226 38.5069 24.4575C38.5069 25.7396 38.162 26.9693 37.548 27.8759C36.934 28.7825 36.1012 29.2919 35.2329 29.2919ZM37.1191 23.1036C36.9105 23.6931 36.51 24.0994 35.9174 24.3225C35.8541 24.3466 35.7875 24.3758 35.7177 24.41C35.6925 24.4225 35.68 24.4426 35.68 24.4703V26.1287C35.68 26.1349 35.6813 26.141 35.6839 26.1465C35.6866 26.1521 35.6904 26.157 35.6952 26.1609C35.6999 26.1648 35.7055 26.1676 35.7115 26.1691C35.7175 26.1706 35.7237 26.1707 35.7297 26.1694C36.5017 26.027 37.7154 25.3108 37.7199 24.3956C37.7249 23.395 37.4897 22.4786 37.0143 21.6464C36.2521 20.3128 34.7588 19.8816 33.7275 21.2363C32.9292 22.2841 32.6578 23.6878 32.7566 24.9656C32.758 24.9896 32.7667 25.013 32.7814 25.0326C33.3016 25.7307 33.9986 26.1252 34.8726 26.2162C34.8957 26.2182 34.9073 26.2076 34.9073 26.1845V24.4703C34.9073 24.4431 34.894 24.4266 34.8673 24.4205C34.1316 24.2527 33.6358 23.8154 33.38 23.1088C33.3783 23.1041 33.3775 23.099 33.3779 23.0939C33.3782 23.0888 33.3795 23.0838 33.3819 23.0792C33.3842 23.0747 33.3874 23.0706 33.3914 23.0672C33.3953 23.0639 33.3999 23.0614 33.4049 23.0598L34.06 22.8518C34.0821 22.8447 34.0976 22.852 34.1067 22.8736C34.5545 23.9614 35.9461 23.9501 36.3871 22.8578C36.3956 22.8357 36.4112 22.8281 36.4338 22.8352L37.0897 23.0448C37.1198 23.0543 37.1296 23.0739 37.1191 23.1036ZM33.9069 27.8641C34.9367 28.9888 36.2371 28.5335 36.9457 27.3764C37.1578 27.0296 37.3332 26.6635 37.4719 26.278C37.4834 26.2458 37.4746 26.2388 37.4455 26.2569C37.2819 26.3564 37.1032 26.483 36.9525 26.5584C35.6423 27.2153 34.3502 27.1613 33.0762 26.3964C33.0556 26.3838 33.049 26.3891 33.0566 26.4122C33.233 26.9534 33.5164 27.4374 33.9069 27.8641Z" fill="black"/>
<path d="M37.0888 23.045L36.433 22.8354C36.4104 22.8284 36.3948 22.8359 36.3863 22.858C35.9453 23.9503 34.5537 23.9616 34.1059 22.8738C34.0968 22.8522 34.0812 22.8449 34.0591 22.852L33.404 23.06C33.3991 23.0616 33.3945 23.0641 33.3906 23.0675C33.3866 23.0708 33.3834 23.0749 33.3811 23.0794C33.3787 23.084 33.3774 23.089 33.377 23.0941C33.3767 23.0992 33.3774 23.1043 33.3792 23.109C33.635 23.8156 34.1307 24.2529 34.8665 24.4207C34.8931 24.4268 34.9065 24.4434 34.9065 24.4705V26.1847C34.9065 26.2079 34.8949 26.2184 34.8718 26.2164C33.9978 26.1254 33.3008 25.7309 32.7806 25.0329C32.7658 25.0132 32.7572 24.9898 32.7557 24.9658C32.657 23.688 32.9284 22.2843 33.7267 21.2365C34.7579 19.8818 36.2513 20.313 37.0135 21.6466C37.4889 22.4788 37.7241 23.3953 37.7191 24.3959C37.7145 25.311 36.5008 26.0272 35.7289 26.1697C35.7229 26.1709 35.7166 26.1708 35.7107 26.1693C35.7047 26.1678 35.6991 26.165 35.6944 26.1611C35.6896 26.1572 35.6858 26.1523 35.6831 26.1468C35.6805 26.1412 35.6791 26.1351 35.6791 26.129V24.4705C35.6791 24.4428 35.6917 24.4227 35.7168 24.4102C35.7867 24.376 35.8533 24.3469 35.9166 24.3227C36.5091 24.0996 36.9097 23.6933 37.1182 23.1038C37.1288 23.0741 37.119 23.0545 37.0888 23.045Z" fill="#FFDDD0"/>
<path d="M43.2773 26.6082C43.8676 26.4054 44.4277 26.1295 44.73 25.5528L44.8031 25.3516C44.8177 25.4119 44.8928 25.4149 45.0285 25.3606C45.0421 25.3549 45.0572 25.3539 45.0715 25.3575C45.0858 25.3612 45.0985 25.3694 45.1077 25.381C45.1584 25.4453 45.1705 25.5315 45.1439 25.6395C44.9667 26.3542 44.329 26.7824 43.6731 27.0063C43.651 27.0133 43.6296 27.012 43.609 27.0025C43.4017 26.9075 43.3595 26.6361 43.2773 26.6082Z" fill="#090A1D"/>
<path d="M44.7295 25.5531C44.4273 26.1298 43.8671 26.4057 43.2769 26.6085L43.1578 26.6462C43.0151 26.4768 42.9291 26.3192 42.9 26.1735C42.896 26.1538 42.8998 26.1333 42.9104 26.1162C42.9211 26.0991 42.9378 26.0867 42.9573 26.0815C43.4608 25.9473 43.9448 25.774 44.4092 25.5614C44.5253 25.5086 44.6127 25.5237 44.7295 25.5531Z" fill="#8E9FCF"/>
<path d="M33.9061 27.864C33.5156 27.4374 33.2322 26.9534 33.0558 26.4121C33.0482 26.389 33.0548 26.3837 33.0754 26.3963C34.3494 27.1612 35.6415 27.2152 36.9516 26.5584C37.1024 26.483 37.2811 26.3563 37.4447 26.2568C37.4738 26.2387 37.4826 26.2458 37.471 26.2779C37.3323 26.6634 37.1569 27.0295 36.9449 27.3763C36.2362 28.5335 34.9359 28.9888 33.9061 27.864Z" fill="#FFDDD0"/>
<path d="M27.3773 27.2375C26.6815 27.239 26.0769 27.0634 25.7422 26.4007L25.8922 26.3321C25.9014 26.3277 25.9122 26.3269 25.9224 26.3299L27.473 26.7686C27.4921 26.7741 27.5042 26.7864 27.5092 26.8055C27.5399 26.9282 27.4959 27.0722 27.3773 27.2375Z" fill="#8E9FCF"/>
<path d="M43.8577 29.3145C43.8506 29.3828 43.8871 29.3984 43.967 29.3612C43.982 29.3543 43.9987 29.3518 44.0151 29.3538C44.0315 29.3558 44.0471 29.3623 44.06 29.3726C44.073 29.3829 44.0828 29.3966 44.0885 29.4121C44.0942 29.4277 44.0954 29.4445 44.0921 29.4607C43.9165 30.3088 43.2056 30.7091 42.4178 30.9805C42.3917 30.9895 42.3816 31.0076 42.3877 31.0347L42.3982 31.0822C42.3645 31.0651 42.3108 31.0671 42.2369 31.0883C42.2505 30.9066 41.9949 30.7302 41.8788 30.6179C41.8702 30.6096 41.8591 30.6044 41.8472 30.6031C41.8353 30.6017 41.8234 30.6043 41.8131 30.6103C41.8028 30.6163 41.7947 30.6256 41.7901 30.6366C41.7855 30.6476 41.7846 30.6598 41.7876 30.6714C41.9467 31.2631 41.9436 32.0223 41.9429 32.6351C41.9429 32.755 41.973 32.8719 41.9738 32.9812C41.9808 33.7893 41.9746 34.5959 41.955 35.401H41.4891L41.419 30.9465C41.4185 30.9229 41.4108 30.8998 41.3968 30.8806C41.3828 30.8613 41.3632 30.8467 41.3406 30.8387L41.0918 30.7505L42.1359 29.7147C42.163 29.6881 42.1768 29.6939 42.1773 29.7321L42.1804 29.9303L42.203 30.2537C42.2045 30.2774 42.2173 30.2887 42.2414 30.2877C42.9038 30.2555 43.4217 29.9545 43.7951 29.3846L43.8577 29.3145Z" fill="#090A1D"/>
<path d="M43.7964 29.3848C43.423 29.9547 42.9051 30.2557 42.2427 30.2879C42.2186 30.2889 42.2058 30.2776 42.2043 30.254L42.1816 29.9305L43.7964 29.3848Z" fill="#8E9FCF"/>
<path d="M28.6619 30.5055C27.9864 30.7437 27.1519 30.8183 26.8398 30.0343C26.9253 29.9554 26.9931 29.9243 27.0434 29.9408C27.4082 30.0594 27.9477 30.2477 28.6619 30.5055Z" fill="#8E9FCF"/>
<path d="M42.2381 31.0881C42.212 31.0921 42.1994 31.1162 42.2004 31.1604C42.2261 32.2334 42.2464 33.6469 42.2615 35.4008H41.9562C41.9758 34.5957 41.9821 33.7891 41.975 32.981C41.9743 32.8717 41.9441 32.7548 41.9441 32.635C41.9449 32.0221 41.9479 31.263 41.7888 30.6712C41.7859 30.6596 41.7868 30.6474 41.7913 30.6364C41.7959 30.6254 41.804 30.6161 41.8143 30.6101C41.8246 30.6041 41.8366 30.6015 41.8484 30.6029C41.8603 30.6043 41.8714 30.6094 41.88 30.6177C41.9961 30.73 42.2517 30.9064 42.2381 31.0881Z" fill="black"/>
<path d="M41.0931 30.7508L41.3419 30.839C41.3645 30.847 41.3841 30.8616 41.3981 30.8808C41.4121 30.9001 41.4198 30.9231 41.4203 30.9468L41.4904 35.4013H35.2794C35.2965 35.3827 35.3045 35.3596 35.3035 35.3319C35.3025 35.3093 35.2912 35.2952 35.2696 35.2897C35.1978 35.2716 35.1329 35.2402 35.0751 35.1955C34.0011 34.3632 32.9397 33.5149 31.8909 32.6505C31.5042 32.3316 31.033 31.9577 30.7292 31.5589C30.7174 31.5433 30.71 31.5249 30.7078 31.5055C30.7055 31.4861 30.7085 31.4664 30.7164 31.4486C30.7244 31.4307 30.7369 31.4153 30.7528 31.404C30.7687 31.3926 30.7874 31.3857 30.8068 31.384C31.0129 31.3669 31.2172 31.3664 31.4197 31.3825C34.6492 31.6388 37.7995 31.8499 40.937 30.7056C40.9777 30.691 41.0298 30.7061 41.0931 30.7508Z" fill="#8E9FCF"/>
</g>
<defs>
<clipPath id="clip0_5824_71871">
<rect width="29.8523" height="29.8523" fill="white" transform="translate(20 5.54883)"/>
</clipPath>
</defs>
</svg>
