<svg width="53" height="54" viewBox="0 0 53 54" fill="none" xmlns="http://www.w3.org/2000/svg">
<g id="Layer_1" clip-path="url(#clip0_4801_7253)">
<path id="Vector" d="M52.1212 12.6695C52.1398 12.7407 52.1493 12.8141 52.1495 12.8877V24.3201C52.1494 24.4665 52.1106 24.6103 52.0372 24.7369C51.9637 24.8636 51.8582 24.9687 51.7312 25.0415L42.1359 30.5667V41.516C42.1359 41.6625 42.0974 41.8064 42.0244 41.9334C41.9513 42.0604 41.8462 42.1659 41.7196 42.2395L21.6903 53.7709C21.6434 53.7948 21.5948 53.8151 21.5448 53.8315C21.5245 53.8315 21.5084 53.8497 21.4882 53.8537C21.348 53.8922 21.2 53.8922 21.0597 53.8537C21.0375 53.8537 21.0173 53.8355 20.9951 53.8274C20.9478 53.8124 20.9018 53.7935 20.8576 53.7709L0.832392 42.2395C0.705225 42.1663 0.599596 42.0609 0.526153 41.9339C0.452709 41.8069 0.414047 41.6627 0.414063 41.516V7.22108C0.414121 7.14675 0.423629 7.07273 0.442355 7.0008C0.442355 6.97655 0.464585 6.95634 0.472669 6.93209C0.486851 6.8877 0.504417 6.84446 0.525213 6.80275C0.542984 6.77649 0.562567 6.75151 0.583819 6.72798C0.605608 6.69387 0.629927 6.66144 0.656572 6.63098C0.682947 6.6085 0.710614 6.58758 0.73943 6.56833C0.767963 6.54255 0.79836 6.5189 0.830371 6.49759L10.844 0.731923C10.9712 0.65945 11.115 0.621338 11.2613 0.621338C11.4077 0.621338 11.5515 0.65945 11.6786 0.731923L21.6903 6.49759C21.7229 6.5189 21.754 6.54254 21.7832 6.56833C21.8115 6.58744 21.8385 6.60836 21.8641 6.63098C21.8907 6.66193 21.9157 6.69431 21.9388 6.72798C21.9594 6.75153 21.9784 6.77652 21.9954 6.80275C22.0177 6.84401 22.036 6.88733 22.05 6.93209C22.0606 6.95517 22.0701 6.97878 22.0783 7.00282C22.0985 7.0738 22.1087 7.14727 22.1086 7.22108V28.6428L30.4509 23.8391V12.8857C30.4509 12.8126 30.4611 12.7398 30.4812 12.6695C30.4812 12.6452 30.5015 12.623 30.5095 12.5987C30.5244 12.5543 30.5426 12.5111 30.5641 12.4694C30.5803 12.4431 30.6025 12.4209 30.6207 12.3946C30.6438 12.361 30.6688 12.3286 30.6955 12.2976C30.7197 12.2754 30.75 12.2572 30.7763 12.235C30.8059 12.2096 30.837 12.186 30.8693 12.1642L40.8829 6.39857C41.01 6.3261 41.1539 6.28799 41.3002 6.28799C41.4466 6.28799 41.5904 6.3261 41.7175 6.39857L51.7292 12.1642C51.7625 12.1855 51.7942 12.2092 51.8241 12.235C51.8504 12.2552 51.8787 12.2754 51.903 12.2976C51.9302 12.3281 51.9552 12.3605 51.9777 12.3946C51.9985 12.4181 52.0174 12.4431 52.0343 12.4694C52.0566 12.5107 52.0749 12.554 52.0889 12.5987C52.101 12.623 52.1131 12.6452 52.1212 12.6695ZM50.4802 23.8371V14.3387L46.976 16.3597L42.1258 19.1465V28.6448L50.4721 23.8411L50.4802 23.8371ZM40.4666 41.0391V31.5206L35.7053 34.2407L22.1086 42.001V51.6024L40.4666 41.0391ZM2.08334 8.66402V41.0391L20.4393 51.6085V42.001L10.8501 36.5749C10.8177 36.5547 10.7915 36.5284 10.7612 36.5062C10.7308 36.4839 10.7046 36.4678 10.6823 36.4455C10.6571 36.4185 10.6341 36.3894 10.6136 36.3586C10.5909 36.3332 10.5699 36.3062 10.551 36.2778C10.5332 36.2444 10.519 36.2091 10.5085 36.1727C10.4918 36.1433 10.4783 36.1121 10.4681 36.0798C10.4598 36.0391 10.4544 35.9979 10.452 35.9565C10.4459 35.9258 10.4419 35.8947 10.4398 35.8635V13.4677L5.58761 10.6789L2.08334 8.66402ZM11.2623 2.41737L2.92 7.22108L11.2603 12.0228L19.6128 7.21906L11.2603 2.41737H11.2623ZM15.6012 32.3875L20.4413 29.6007V8.66402L16.9371 10.6849L12.0869 13.4718V34.4064L15.6012 32.3875ZM41.3012 8.08401L32.9609 12.8877L41.3012 17.6894L49.6436 12.8857L41.3012 8.08401ZM40.4666 19.1344L35.6265 16.3475L32.1222 14.3266V23.8249L36.9623 26.6098L40.4666 28.6307V19.1344ZM21.2679 40.5561L33.5025 33.5698L39.6198 30.0817L31.2896 25.2759L21.6923 30.8011L12.9437 35.8433L21.2679 40.5561Z" fill="#B0D0E7"/>
</g>
<defs>
<clipPath id="clip0_4801_7253">
<rect width="51.7354" height="53.2592" fill="white" transform="translate(0.414062 0.620361)"/>
</clipPath>
</defs>
</svg>
