<svg width="231" height="75" viewBox="0 0 231 75" fill="none" xmlns="http://www.w3.org/2000/svg">
<g clip-path="url(#clip0_4756_7251)">
<path d="M68.1212 22.6695C68.1398 22.7407 68.1493 22.8141 68.1495 22.8877V34.3201C68.1494 34.4665 68.1106 34.6103 68.0372 34.7369C67.9637 34.8636 67.8582 34.9687 67.7312 35.0415L58.1359 40.5667V51.516C58.1359 51.6625 58.0974 51.8064 58.0244 51.9334C57.9513 52.0604 57.8462 52.1659 57.7196 52.2395L37.6903 63.7709C37.6434 63.7948 37.5948 63.8151 37.5448 63.8315C37.5245 63.8315 37.5084 63.8497 37.4882 63.8537C37.348 63.8922 37.2 63.8922 37.0597 63.8537C37.0375 63.8537 37.0173 63.8355 36.9951 63.8274C36.9478 63.8124 36.9018 63.7935 36.8576 63.7709L16.8324 52.2395C16.7052 52.1663 16.5996 52.0609 16.5262 51.9339C16.4527 51.8069 16.414 51.6627 16.4141 51.516V17.2211C16.4141 17.1468 16.4236 17.0727 16.4424 17.0008C16.4424 16.9766 16.4646 16.9563 16.4727 16.9321C16.4869 16.8877 16.5044 16.8445 16.5252 16.8028C16.543 16.7765 16.5626 16.7515 16.5838 16.728C16.6056 16.6939 16.6299 16.6614 16.6566 16.631C16.6829 16.6085 16.7106 16.5876 16.7394 16.5683C16.768 16.5425 16.7984 16.5189 16.8304 16.4976L26.844 10.7319C26.9712 10.6595 27.115 10.6213 27.2613 10.6213C27.4077 10.6213 27.5515 10.6595 27.6786 10.7319L37.6903 16.4976C37.7229 16.5189 37.754 16.5425 37.7832 16.5683C37.8115 16.5874 37.8385 16.6084 37.8641 16.631C37.8907 16.6619 37.9157 16.6943 37.9388 16.728C37.9594 16.7515 37.9784 16.7765 37.9954 16.8028C38.0177 16.844 38.036 16.8873 38.05 16.9321C38.0606 16.9552 38.0701 16.9788 38.0783 17.0028C38.0985 17.0738 38.1087 17.1473 38.1086 17.2211V38.6428L46.4509 33.8391V22.8857C46.4509 22.8126 46.4611 22.7398 46.4812 22.6695C46.4812 22.6452 46.5015 22.623 46.5095 22.5987C46.5244 22.5543 46.5426 22.5111 46.5641 22.4694C46.5803 22.4431 46.6025 22.4209 46.6207 22.3946C46.6438 22.361 46.6688 22.3286 46.6955 22.2976C46.7197 22.2754 46.75 22.2572 46.7763 22.235C46.8059 22.2096 46.837 22.186 46.8693 22.1642L56.8829 16.3986C57.01 16.3261 57.1539 16.288 57.3002 16.288C57.4466 16.288 57.5904 16.3261 57.7175 16.3986L67.7292 22.1642C67.7625 22.1855 67.7942 22.2092 67.8241 22.235C67.8504 22.2552 67.8787 22.2754 67.903 22.2976C67.9302 22.3281 67.9552 22.3605 67.9777 22.3946C67.9985 22.4181 68.0174 22.4431 68.0343 22.4694C68.0566 22.5107 68.0749 22.554 68.0889 22.5987C68.101 22.623 68.1131 22.6452 68.1212 22.6695ZM66.4802 33.8371V24.3387L62.976 26.3597L58.1258 29.1465V38.6448L66.4721 33.8411L66.4802 33.8371ZM56.4666 51.0391V41.5206L51.7053 44.2407L38.1086 52.001V61.6024L56.4666 51.0391ZM18.0833 18.664V51.0391L36.4393 61.6085V52.001L26.8501 46.5749C26.8177 46.5547 26.7915 46.5284 26.7612 46.5062C26.7308 46.4839 26.7046 46.4678 26.6823 46.4455C26.6571 46.4185 26.6341 46.3894 26.6136 46.3586C26.5909 46.3332 26.5699 46.3062 26.551 46.2778C26.5332 46.2444 26.519 46.2091 26.5085 46.1727C26.4918 46.1433 26.4783 46.1121 26.4681 46.0798C26.4598 46.0391 26.4544 45.9979 26.452 45.9565C26.4459 45.9258 26.4419 45.8947 26.4398 45.8635V23.4677L21.5876 20.6789L18.0833 18.664ZM27.2623 12.4174L18.92 17.2211L27.2603 22.0228L35.6128 17.2191L27.2603 12.4174H27.2623ZM31.6012 42.3875L36.4413 39.6007V18.664L32.9371 20.6849L28.0869 23.4718V44.4064L31.6012 42.3875ZM57.3012 18.084L48.9609 22.8877L57.3012 27.6894L65.6436 22.8857L57.3012 18.084ZM56.4666 29.1344L51.6265 26.3475L48.1222 24.3266V33.8249L52.9623 36.6098L56.4666 38.6307V29.1344ZM37.2679 50.5561L49.5025 43.5698L55.6198 40.0817L47.2896 35.2759L37.6923 40.8011L28.9437 45.8433L37.2679 50.5561Z" fill="#B0D0E7"/>
</g>
<g clip-path="url(#clip1_4756_7251)">
<path d="M87.3427 21.1783V48.1378H97.0979V52.7811H82.1494V21.1783H87.3427ZM115.415 34.5832V31.7405H120.352V52.7949H115.439V49.9394C114.761 50.9933 113.824 51.8124 112.608 52.3972C111.392 53.0175 110.152 53.3099 108.924 53.3099C107.321 53.3099 105.859 53.0175 104.537 52.4327C103.245 51.8728 102.083 51.0525 101.122 50.0229C100.17 49.0016 99.4166 47.8116 98.901 46.5139C97.8519 43.7878 97.8559 40.7686 98.9122 38.0453C99.4215 36.7305 100.175 35.5241 101.133 34.4897C102.085 33.4549 103.24 32.627 104.525 32.0572C105.858 31.4724 107.332 31.1799 108.912 31.1799C110.139 31.1799 111.368 31.484 112.584 32.0789C113.8 32.687 114.736 33.5066 115.391 34.5584L115.415 34.5832ZM114.971 44.8418C115.279 44.0187 115.437 43.1471 115.439 42.2682C115.439 41.3893 115.281 40.5175 114.971 39.6951C114.691 38.9073 114.262 38.1806 113.708 37.5545C113.155 36.9523 112.486 36.4668 111.743 36.1268C110.943 35.7602 110.072 35.5727 109.192 35.5774C108.318 35.5693 107.454 35.7614 106.666 36.139C105.917 36.4778 105.248 36.969 104.7 37.5812C104.152 38.1934 103.738 38.9132 103.485 39.6946C103.194 40.5214 103.048 41.3919 103.052 42.2682C103.046 43.1447 103.192 44.0155 103.485 44.8418C103.747 45.6223 104.169 46.3394 104.725 46.947C105.268 47.5583 105.928 48.0553 106.666 48.4091C107.415 48.7602 108.257 48.9474 109.192 48.9474C110.128 48.9474 110.982 48.7718 111.743 48.4091C112.489 48.0628 113.157 47.5694 113.708 46.9586C114.258 46.3427 114.687 45.6283 114.971 44.8529V44.8418ZM124.235 52.7949V31.7405H137.593V36.5831H129.147V52.7832H124.235V52.7949ZM155.431 34.5832V31.7405H160.343V52.7949H155.431V49.9394C154.775 50.9922 153.828 51.8108 152.623 52.3956C151.395 53.0159 150.167 53.3083 148.927 53.3083C147.325 53.3083 145.863 53.0159 144.541 52.4311C143.249 51.8711 142.086 51.0508 141.125 50.0214C140.173 48.9999 139.42 47.8099 138.904 46.5123C137.871 43.7833 137.875 40.7698 138.916 38.0437C139.426 36.7292 140.179 35.5228 141.137 34.4881C142.089 33.4533 143.244 32.6254 144.529 32.0556C145.863 31.4708 147.336 31.1783 148.915 31.1783C150.143 31.1783 151.372 31.4824 152.588 32.0773C153.805 32.6854 154.752 33.505 155.395 34.5568L155.431 34.5832ZM154.986 44.8418C155.286 44.0172 155.437 43.1457 155.431 42.2682C155.433 41.3911 155.283 40.5203 154.986 39.6951C154.709 38.9081 154.284 38.1815 153.734 37.5545C153.174 36.9497 152.498 36.4641 151.746 36.1268C150.95 35.7614 150.084 35.5739 149.208 35.5774C148.33 35.5707 147.462 35.7627 146.67 36.139C145.921 36.4778 145.252 36.969 144.704 37.5813C144.157 38.1935 143.743 38.9133 143.489 39.6946C143.203 40.5219 143.06 41.3921 143.066 42.2677C143.063 43.1431 143.206 44.013 143.489 44.8413C143.782 45.6599 144.191 46.3616 144.729 46.9464C145.273 47.5577 145.933 48.0547 146.671 48.4085C147.468 48.7717 148.334 48.9555 149.209 48.9469C150.145 48.9469 150.987 48.7713 151.759 48.4085C152.514 48.0655 153.191 47.5721 153.748 46.9586C154.295 46.3422 154.719 45.6277 155 44.8529L154.986 44.8418ZM180.088 31.741H185.082L177.011 52.7949H170.812L162.741 31.7405H167.712L173.911 47.8591L180.087 31.7526L180.088 31.741ZM195.808 31.2032C202.511 31.2032 207.084 37.1453 206.219 44.0931H189.879C189.879 45.8947 191.727 49.4037 196.078 49.4037C199.821 49.4037 202.336 46.1284 202.336 46.1284L205.658 48.7015C202.674 51.8594 200.241 53.32 196.416 53.32C189.609 53.32 185 48.9934 185 42.2444C185 36.1268 189.772 31.1794 195.796 31.1794L195.808 31.2032ZM189.901 40.4433H201.715C201.668 40.034 201.013 35.1094 195.773 35.1094C190.509 35.1094 189.948 40.0473 189.901 40.4433ZM209.435 52.76V21.1783H214.348V52.7832H209.435V52.76Z" fill="#B0D0E7"/>
</g>
<defs>
<clipPath id="clip0_4756_7251">
<rect width="51.7354" height="53.2592" fill="white" transform="translate(16.4141 10.6204)"/>
</clipPath>
<clipPath id="clip1_4756_7251">
<rect width="132.198" height="32.1432" fill="white" transform="translate(82.1494 21.1783)"/>
</clipPath>
</defs>
</svg>
