<svg width="18" height="18" viewBox="0 0 18 18" fill="none" xmlns="http://www.w3.org/2000/svg">
<path d="M7.65288 10.347C8.04457 10.7196 8.04457 11.331 7.65288 11.7036C7.28029 12.0761 6.66887 12.0761 6.29628 11.7036C5.40148 10.8074 4.8989 9.59279 4.8989 8.3264C4.8989 7.06001 5.40148 5.84539 6.29628 4.94924L9.67822 1.5673C10.5744 0.672503 11.789 0.169922 13.0554 0.169922C14.3218 0.169922 15.5364 0.672503 16.4325 1.5673C17.3273 2.46345 17.8299 3.67807 17.8299 4.94446C17.8299 6.21085 17.3273 7.42548 16.4325 8.32162L15.0091 9.7451C15.0186 8.96171 14.8944 8.17832 14.6269 7.43315L15.0759 6.97458C15.3438 6.70965 15.5564 6.39423 15.7015 6.04658C15.8466 5.69893 15.9213 5.32596 15.9213 4.94924C15.9213 4.57252 15.8466 4.19955 15.7015 3.8519C15.5564 3.50425 15.3438 3.18883 15.0759 2.9239C14.811 2.65608 14.4956 2.44346 14.1479 2.29836C13.8003 2.15325 13.4273 2.07853 13.0506 2.07853C12.6739 2.07853 12.3009 2.15325 11.9533 2.29836C11.6056 2.44346 11.2902 2.65608 11.0253 2.9239L7.65288 6.29628C7.38506 6.56121 7.17244 6.87663 7.02734 7.22428C6.88223 7.57193 6.80751 7.94491 6.80751 8.32162C6.80751 8.69834 6.88223 9.07132 7.02734 9.41897C7.17244 9.76662 7.38506 10.082 7.65288 10.347ZM10.347 6.29628C10.7196 5.9237 11.331 5.9237 11.7036 6.29628C12.5984 7.19243 13.1009 8.40705 13.1009 9.67344C13.1009 10.9398 12.5984 12.1545 11.7036 13.0506L8.32162 16.4325C7.42548 17.3273 6.21085 17.8299 4.94446 17.8299C3.67807 17.8299 2.46345 17.3273 1.5673 16.4325C0.672503 15.5364 0.169922 14.3218 0.169922 13.0554C0.169922 11.789 0.672503 10.5744 1.5673 9.67822L2.99077 8.25475C2.98122 9.03814 3.10542 9.82152 3.37291 10.5762L2.9239 11.0253C2.65608 11.2902 2.44346 11.6056 2.29836 11.9533C2.15325 12.3009 2.07853 12.6739 2.07853 13.0506C2.07853 13.4273 2.15325 13.8003 2.29836 14.1479C2.44346 14.4956 2.65608 14.811 2.9239 15.0759C3.18883 15.3438 3.50425 15.5564 3.8519 15.7015C4.19955 15.8466 4.57252 15.9213 4.94924 15.9213C5.32596 15.9213 5.69893 15.8466 6.04658 15.7015C6.39423 15.5564 6.70965 15.3438 6.97458 15.0759L10.347 11.7036C10.6148 11.4386 10.8274 11.1232 10.9725 10.7756C11.1176 10.4279 11.1923 10.0549 11.1923 9.67822C11.1923 9.3015 11.1176 8.92853 10.9725 8.58088C10.8274 8.23323 10.6148 7.91781 10.347 7.65288C10.2542 7.56594 10.1802 7.46088 10.1297 7.34421C10.0791 7.22754 10.053 7.10174 10.053 6.97458C10.053 6.84743 10.0791 6.72162 10.1297 6.60495C10.1802 6.48828 10.2542 6.38323 10.347 6.29628Z" fill="#232323"/>
</svg>
