<svg width="122" height="40" viewBox="0 0 122 40" fill="none" xmlns="http://www.w3.org/2000/svg">
<g clip-path="url(#clip0_5824_71872)">
<path d="M10.1917 25.8117L17.5509 25.8156C17.5587 25.8156 17.5661 25.8188 17.5715 25.8243C17.577 25.8298 17.5801 25.8374 17.5801 25.8452V28.1589C17.5801 28.1668 17.577 28.1743 17.5715 28.1798C17.5661 28.1854 17.5587 28.1885 17.5509 28.1885L6.74204 28.176C6.73431 28.176 6.7269 28.1729 6.72143 28.1674C6.71596 28.1618 6.71289 28.1543 6.71289 28.1464V11.5227C6.71289 11.5149 6.71596 11.5074 6.72143 11.5018C6.7269 11.4963 6.73431 11.4932 6.74204 11.4932H10.134C10.1418 11.4932 10.1492 11.4963 10.1546 11.5018C10.1601 11.5074 10.1632 11.5149 10.1632 11.5227L10.1625 25.7821C10.1625 25.786 10.1633 25.7899 10.1648 25.7935C10.1662 25.797 10.1684 25.8003 10.1711 25.803C10.1738 25.8058 10.177 25.808 10.1805 25.8095C10.1841 25.8109 10.1879 25.8117 10.1917 25.8117Z" fill="white"/>
<path d="M30.5358 28.5091C28.3488 28.2496 26.2246 26.9613 25.5929 24.6982C25.39 23.9699 25.2869 23.1224 25.2839 22.1559C25.2736 18.6124 25.2697 15.0691 25.2723 11.526C25.2723 11.5173 25.2757 11.5089 25.2819 11.5028C25.2881 11.4966 25.2965 11.4932 25.3053 11.4932H28.6727C28.7159 11.4932 28.7375 11.5151 28.7375 11.5589C28.7383 14.9289 28.7385 18.2793 28.7381 21.61C28.7375 23.364 28.9001 25.6567 30.9906 26.1559C32.6458 26.5514 34.4143 26.1165 34.9261 24.2692C35.1092 23.607 35.2016 22.9107 35.2034 22.1802C35.2133 18.6292 35.218 15.0778 35.2176 11.526C35.2176 11.5041 35.2284 11.4932 35.25 11.4932H38.1781C38.2023 11.4932 38.2144 11.5054 38.2144 11.53C38.2127 15.1054 38.2092 18.6787 38.2041 22.2498C38.2015 23.8067 38.0162 25.4228 36.9939 26.6145C35.3504 28.5308 32.8971 28.7889 30.5358 28.5091Z" fill="white"/>
<path d="M52.6935 22.2892L48.9212 28.1694C48.9189 28.1732 48.9156 28.1763 48.9118 28.1785C48.9079 28.1807 48.9036 28.1819 48.8992 28.1819L46.1479 28.1859C46.1431 28.1859 46.1384 28.1847 46.1343 28.1822C46.1302 28.1798 46.1268 28.1763 46.1244 28.172C46.1221 28.1678 46.121 28.163 46.1211 28.1581C46.1212 28.1533 46.1227 28.1486 46.1252 28.1445L51.3635 19.9742C51.3663 19.9699 51.3679 19.9649 51.368 19.9598C51.3681 19.9547 51.3668 19.9497 51.3642 19.9453L46.3604 11.5339C46.358 11.5298 46.3567 11.5252 46.3567 11.5204C46.3566 11.5157 46.3578 11.511 46.3601 11.5069C46.3624 11.5027 46.3657 11.4993 46.3698 11.4969C46.3738 11.4945 46.3784 11.4932 46.3831 11.4932H50.3581C50.3627 11.4932 50.3672 11.4944 50.3711 11.4967C50.3751 11.499 50.3784 11.5023 50.3808 11.5063L53.6724 17.0377C53.6747 17.0417 53.678 17.045 53.6819 17.0473C53.6858 17.0496 53.6903 17.0509 53.6949 17.0509C53.6994 17.051 53.7039 17.0499 53.7079 17.0477C53.7119 17.0455 53.7153 17.0423 53.7177 17.0383L57.2911 11.5056C57.2934 11.5019 57.2967 11.4988 57.3005 11.4966C57.3044 11.4944 57.3087 11.4932 57.3131 11.4932H60.0631C60.0679 11.4931 60.0726 11.4944 60.0767 11.4968C60.0809 11.4993 60.0843 11.5028 60.0866 11.507C60.0889 11.5113 60.0901 11.5161 60.0899 11.5209C60.0898 11.5257 60.0884 11.5305 60.0858 11.5346L55.0717 19.3481C55.069 19.3523 55.0675 19.3572 55.0674 19.3622C55.0673 19.3671 55.0685 19.3721 55.071 19.3764L60.275 28.1589C60.2773 28.163 60.2786 28.1677 60.2787 28.1724C60.2788 28.1772 60.2776 28.1818 60.2753 28.186C60.273 28.1901 60.2696 28.1935 60.2656 28.196C60.2615 28.1984 60.257 28.1996 60.2523 28.1997L56.2811 28.1793C56.2766 28.1793 56.2721 28.178 56.2681 28.1757C56.2641 28.1734 56.2608 28.1701 56.2585 28.1662L52.7388 22.2899C52.7365 22.2859 52.7332 22.2826 52.7293 22.2803C52.7254 22.278 52.7209 22.2767 52.7164 22.2766C52.7118 22.2766 52.7073 22.2777 52.7033 22.2799C52.6993 22.2821 52.6959 22.2853 52.6935 22.2892Z" fill="white"/>
<path d="M72.7672 28.404C70.6508 27.9638 68.7857 26.533 68.3562 24.2856C68.2124 23.5308 68.145 22.8056 68.1444 21.9778C68.1422 18.4935 68.142 15.0095 68.1437 11.526C68.1437 11.5173 68.1471 11.5089 68.1532 11.5028C68.1593 11.4966 68.1675 11.4932 68.1761 11.4932H71.5435C71.5523 11.4932 71.5607 11.4967 71.5669 11.503C71.5731 11.5093 71.5765 11.5178 71.5765 11.5267C71.5765 14.8665 71.5765 18.2112 71.5765 21.5607C71.5765 22.4843 71.653 23.4717 71.9464 24.3684C72.4647 25.9536 73.978 26.4509 75.4907 26.2407C77.8695 25.9096 78.0664 23.7043 78.0683 21.7604C78.0718 18.368 78.0722 14.9572 78.0696 11.528C78.0696 11.5187 78.0733 11.5099 78.0797 11.5034C78.0861 11.4968 78.0949 11.4932 78.104 11.4932H81.0496C81.0712 11.4932 81.082 11.5041 81.082 11.526C81.0846 14.8413 81.0844 18.1562 81.0814 21.4707C81.0801 22.9521 81.0639 24.7619 80.2606 26.064C78.7052 28.5846 75.3598 28.9433 72.7672 28.404Z" fill="white"/>
<path d="M98.527 20.4239L103.858 28.1428C103.862 28.1484 103.864 28.1549 103.864 28.1617C103.865 28.1685 103.863 28.1752 103.86 28.1812C103.857 28.1872 103.852 28.1922 103.847 28.1956C103.841 28.199 103.834 28.2008 103.828 28.2007C102.553 28.1805 101.273 28.1737 99.9853 28.1803C99.846 28.1809 99.71 28.248 99.6167 28.0929C98.286 25.8677 96.9576 23.6466 95.6313 21.4296C95.6224 21.4144 95.6097 21.4018 95.5945 21.393C95.5792 21.3843 95.562 21.3797 95.5445 21.3797H93.8277C93.7522 21.3797 93.7144 21.4178 93.7144 21.494L93.7157 28.1356C93.7157 28.1437 93.7141 28.1517 93.7111 28.1591C93.708 28.1666 93.7036 28.1734 93.698 28.1791C93.6924 28.1847 93.6857 28.1892 93.6784 28.1923C93.6711 28.1953 93.6633 28.1968 93.6554 28.1967L90.5239 28.1763C90.4932 28.1763 90.4779 28.1608 90.4779 28.1297L90.4766 11.5677C90.4766 11.5477 90.4844 11.5285 90.4984 11.5143C90.5124 11.5001 90.5313 11.4922 90.5511 11.4922C92.5921 11.4926 94.6343 11.4937 96.6775 11.4955C99.1936 11.4981 101.433 12.249 101.666 15.1855C101.849 17.4867 100.575 19.4326 98.5393 20.3792C98.5173 20.3893 98.5132 20.4042 98.527 20.4239ZM93.715 13.8269L93.7131 18.9924C93.7131 19.0042 93.7175 19.0155 93.7254 19.024C93.7334 19.0326 93.7443 19.0377 93.7558 19.0384C95.4006 19.1264 97.5974 18.9747 98.1021 16.9789C98.2429 16.4205 98.264 15.928 98.1655 15.5015C97.727 13.6062 95.1545 13.7829 93.7474 13.7934C93.7258 13.7934 93.715 13.8046 93.715 13.8269Z" fill="white"/>
<path d="M115.077 11.4932H111.676C111.666 11.4932 111.658 11.5011 111.658 11.5109V28.1655C111.658 28.1753 111.666 28.1832 111.676 28.1832H115.077C115.086 28.1832 115.094 28.1753 115.094 28.1655V11.5109C115.094 11.5011 115.086 11.4932 115.077 11.4932Z" fill="white"/>
</g>
<defs>
<clipPath id="clip0_5824_71872">
<rect width="110" height="18" fill="white" transform="translate(6 11)"/>
</clipPath>
</defs>
</svg>
