<svg width="82" height="69" viewBox="0 0 82 69" fill="none" xmlns="http://www.w3.org/2000/svg">
<g clip-path="url(#clip0_3046_18722)" filter="url(#filter0_d_3046_18722)">
<path d="M46.1172 30.5393L53.214 38.6513L62.7577 44.7494L64.4178 30.5905L62.7577 16.751L53.0311 22.108L46.1172 30.5393Z" fill="#00832D"/>
<path d="M4.93555 43.432V55.4974C4.93555 58.2523 7.17176 60.489 9.92721 60.489H21.9926L24.491 51.3727L21.9926 43.432L13.7149 40.9336L4.93583 43.432H4.93555Z" fill="#0066DA"/>
<path d="M21.9926 0.589844L4.93555 17.6469L13.7155 20.1393L21.9926 17.6469L24.4455 9.8142L21.9926 0.589844Z" fill="#E94235"/>
<path d="M4.93555 43.4368H21.9923V17.6465H4.93555V43.4368Z" fill="#2684FC"/>
<path d="M73.6542 7.81166L62.7578 16.7508V44.7489L73.6991 53.7227C75.3371 55.0058 77.7331 53.8365 77.7331 51.7544V9.74019C77.7331 7.63507 75.2799 6.47147 73.6539 7.81194" fill="#00AC47"/>
<path d="M46.1167 30.5393V43.4316H21.9922V60.4887H57.7658C60.5213 60.4887 62.7572 58.2519 62.7572 55.497V44.7494L46.1167 30.5393Z" fill="#00AC47"/>
<path d="M57.7658 0.589844H21.9922V17.6469H46.1167V30.5392L62.7575 16.7506V5.58179C62.7575 2.82634 60.5213 0.590128 57.7658 0.590128" fill="#FFBA00"/>
</g>
<defs>
<filter id="filter0_d_3046_18722" x="0.935547" y="0.589844" width="80.7959" height="68" filterUnits="userSpaceOnUse" color-interpolation-filters="sRGB">
<feFlood flood-opacity="0" result="BackgroundImageFix"/>
<feColorMatrix in="SourceAlpha" type="matrix" values="0 0 0 0 0 0 0 0 0 0 0 0 0 0 0 0 0 0 127 0" result="hardAlpha"/>
<feOffset dy="4"/>
<feGaussianBlur stdDeviation="2"/>
<feComposite in2="hardAlpha" operator="out"/>
<feColorMatrix type="matrix" values="0 0 0 0 0 0 0 0 0 0 0 0 0 0 0 0 0 0 0.25 0"/>
<feBlend mode="normal" in2="BackgroundImageFix" result="effect1_dropShadow_3046_18722"/>
<feBlend mode="normal" in="SourceGraphic" in2="effect1_dropShadow_3046_18722" result="shape"/>
</filter>
<clipPath id="clip0_3046_18722">
<rect width="72.7962" height="60" fill="white" transform="translate(4.93555 0.589844)"/>
</clipPath>
</defs>
</svg>
