<svg width="65" height="61" viewBox="0 0 65 61" fill="none" xmlns="http://www.w3.org/2000/svg">
<g clip-path="url(#clip0_3046_18730)">
<path d="M45.5594 23.0088H62.1598C63.7283 23.0088 64.9996 24.2803 64.9996 25.8486V40.9694C64.9996 46.7334 60.3269 51.4064 54.5629 51.4064H54.5134C48.7494 51.4071 44.0759 46.7351 44.0752 40.9709V24.4932C44.0752 24.2983 44.1135 24.1053 44.1881 23.9252C44.2627 23.7451 44.372 23.5814 44.5098 23.4436C44.6476 23.3057 44.8113 23.1964 44.9913 23.1218C45.1714 23.0472 45.3645 23.0088 45.5594 23.0088Z" fill="#5059C9"/>
<path d="M56.7795 20.0199C60.494 20.0199 63.5053 17.0087 63.5053 13.2941C63.5053 9.57959 60.494 6.56836 56.7795 6.56836C53.0649 6.56836 50.0537 9.57959 50.0537 13.2941C50.0537 17.0087 53.0649 20.0199 56.7795 20.0199Z" fill="#5059C9"/>
<path d="M35.8546 20.0198C41.2201 20.0198 45.5696 15.6703 45.5696 10.3048C45.5696 4.93939 41.2201 0.589844 35.8546 0.589844C30.4892 0.589844 26.1396 4.93939 26.1396 10.3048C26.1396 15.6703 30.4892 20.0198 35.8546 20.0198Z" fill="#7B83EB"/>
<path d="M48.8074 23.0088H21.4055C19.8557 23.0472 18.6299 24.3333 18.6658 25.883V43.1291C18.4494 52.4289 25.8068 60.1463 35.1063 60.374C44.4058 60.1463 51.7632 52.4289 51.547 43.1291V25.883C51.5829 24.3333 50.3571 23.0472 48.8074 23.0088Z" fill="#7B83EB"/>
<path opacity="0.1" d="M36.6013 23.0088V47.1765C36.5977 47.7186 36.4341 48.2475 36.1309 48.6969C35.8278 49.1463 35.3987 49.4961 34.8974 49.7025C34.5711 49.8406 34.2204 49.9116 33.8661 49.9116H19.981C19.7867 49.4183 19.6075 48.925 19.4579 48.4172C18.9347 46.7021 18.6678 44.9192 18.6658 43.1261V25.8785C18.6299 24.3313 19.8538 23.0472 21.401 23.009H36.601L36.6013 23.0088Z" fill="black"/>
<path opacity="0.2" d="M35.108 23.0088V48.6712C35.108 49.0254 35.037 49.3762 34.8989 49.7025C34.6925 50.2038 34.3427 50.6329 33.8933 50.936C33.4439 51.2391 32.9149 51.4028 32.3729 51.4064H20.6854C20.4314 50.9131 20.1921 50.4198 19.983 49.9116C19.7821 49.4232 19.6075 48.9243 19.4598 48.4172C18.9366 46.7021 18.6697 44.9192 18.6678 43.1261V25.8785C18.6319 24.3313 19.8557 23.0472 21.4029 23.009H35.1083L35.108 23.0088Z" fill="black"/>
<path opacity="0.2" d="M35.1063 23.0088V45.682C35.095 47.1878 33.8772 48.4059 32.3712 48.4172H19.4579C18.9347 46.7021 18.6678 44.9192 18.6658 43.1261V25.8785C18.6299 24.3313 19.8538 23.0472 21.401 23.009L35.1063 23.0088Z" fill="black"/>
<path opacity="0.2" d="M33.6118 23.0088V45.682C33.6003 47.1878 32.3825 48.4059 30.8767 48.4172H19.4579C18.9347 46.7021 18.6678 44.9192 18.6658 43.1261V25.8785C18.6299 24.3313 19.8538 23.0472 21.401 23.009L33.6118 23.0088Z" fill="black"/>
<path opacity="0.1" d="M36.6024 15.2818V19.9896C36.3483 20.0047 36.1091 20.0198 35.855 20.0198C35.601 20.0198 35.3617 20.0047 35.1077 19.9896C34.6032 19.9562 34.1029 19.8762 33.6132 19.7506C32.1211 19.3973 30.7338 18.6958 29.5649 17.7035C28.3959 16.7112 27.4784 15.4563 26.8874 14.0414C26.6812 13.5593 26.5211 13.0589 26.4092 12.5466H33.8673C35.3753 12.5524 36.5966 13.7735 36.6024 15.2818Z" fill="black"/>
<path opacity="0.2" d="M35.1077 16.7759V19.9893C34.6032 19.9559 34.103 19.8759 33.6132 19.7503C32.1212 19.3969 30.734 18.6954 29.565 17.7031C28.3961 16.7108 27.4786 15.4559 26.8877 14.041H32.3726C33.8808 14.0465 35.1019 15.2679 35.1077 16.7759Z" fill="black"/>
<path opacity="0.2" d="M35.1077 16.7759V19.9893C34.6032 19.9559 34.103 19.8759 33.6132 19.7503C32.1212 19.3969 30.734 18.6954 29.565 17.7031C28.3961 16.7108 27.4786 15.4559 26.8877 14.041H32.3726C33.8808 14.0465 35.1019 15.2679 35.1077 16.7759Z" fill="black"/>
<path opacity="0.2" d="M33.6135 16.7762V19.7506C32.1214 19.3972 30.7341 18.6956 29.5651 17.7033C28.3961 16.7109 27.4786 15.456 26.8877 14.041H30.8783C32.3866 14.0468 33.6077 15.2681 33.6135 16.7762Z" fill="black"/>
<path d="M3.47111 14.041H30.8728C32.3861 14.041 33.6127 15.2676 33.6127 16.7807V44.1826C33.6127 45.6957 32.3861 46.9223 30.873 46.9223H3.47111C1.95806 46.9223 0.731445 45.6957 0.731445 44.1826V16.7809C0.731445 15.2674 1.95806 14.041 3.47111 14.041Z" fill="url(#paint0_linear_3046_18730)"/>
<path d="M24.3817 24.4707H18.9039V39.3869H15.4141V24.4707H9.96191V21.5771H24.3817V24.4707Z" fill="white"/>
</g>
<defs>
<linearGradient id="paint0_linear_3046_18730" x1="571.945" y1="-200.018" x2="2717.67" y2="3516.24" gradientUnits="userSpaceOnUse">
<stop stop-color="#5A62C3"/>
<stop offset="0.5" stop-color="#4D55BD"/>
<stop offset="1" stop-color="#3940AB"/>
</linearGradient>
<clipPath id="clip0_3046_18730">
<rect width="64.2678" height="60" fill="white" transform="translate(0.731445 0.589844)"/>
</clipPath>
</defs>
</svg>
