<svg width="122" height="40" viewBox="0 0 122 40" fill="none" xmlns="http://www.w3.org/2000/svg">
<g clip-path="url(#clip0_5843_72162)">
<path d="M90.436 6.7572C90.3997 6.73399 90.3691 6.73993 90.3442 6.77504C90.3357 6.78722 90.3241 6.79175 90.3094 6.78863C89.8459 6.69689 89.3783 6.63616 88.9063 6.60643C88.8936 6.60558 88.8824 6.60954 88.8728 6.61832C88.8521 6.63673 88.8266 6.64989 88.7963 6.65782C88.4702 6.18724 88.1653 5.70732 87.8815 5.21805C87.8799 5.21521 87.8775 5.21284 87.8747 5.21118C87.8719 5.20951 87.8687 5.20861 87.8654 5.20857C87.8622 5.20853 87.859 5.20934 87.8561 5.21093C87.8533 5.21252 87.8509 5.21483 87.8492 5.21763C87.4523 5.88895 87.025 6.53749 86.5673 7.16323C86.5531 7.16776 86.5459 7.1577 86.5456 7.13307C86.5456 7.12259 86.5419 7.12104 86.5345 7.1284L86.526 7.13732C86.5195 7.14383 86.5124 7.14454 86.5048 7.13944C86.4372 7.09655 86.3752 7.07149 86.2906 7.08508C86.0031 7.13123 85.5966 7.18489 85.0712 7.24604C85.0046 7.25369 84.9574 7.23868 84.9297 7.20103C85.7262 6.22844 86.4564 5.20772 87.12 4.13886C87.3673 3.74048 87.6134 3.33828 87.8581 2.93226C87.8675 2.91697 87.8764 2.91711 87.8849 2.93269C88.6335 4.27845 89.4839 5.55329 90.436 6.7572Z" fill="#A87837"/>
<path d="M90.4346 6.75733C91.0156 7.48443 91.6325 8.17827 92.2855 8.83884C92.2818 8.86828 92.2879 8.88867 92.3038 8.89999C92.3081 8.90299 92.3112 8.90742 92.3126 8.9125C92.314 8.91757 92.3136 8.92298 92.3115 8.92778C92.3093 8.93258 92.3055 8.93647 92.3007 8.93877C92.296 8.94106 92.2906 8.94162 92.2855 8.94034C91.7116 8.80302 91.1357 8.67348 90.5578 8.55173C90.489 8.53729 90.4221 8.54267 90.3573 8.56787C90.3442 8.57325 90.3382 8.58302 90.339 8.59718C90.3399 8.61162 90.3366 8.62209 90.3292 8.6286C89.7774 8.00371 89.266 7.34683 88.7949 6.65795C88.8252 6.65002 88.8507 6.63685 88.8714 6.61845C88.881 6.60967 88.8922 6.60571 88.905 6.60656C89.3769 6.63629 89.8446 6.69702 90.308 6.78876C90.3227 6.79187 90.3343 6.78734 90.3428 6.77517C90.3678 6.74006 90.3984 6.73411 90.4346 6.75733Z" fill="#C5974D"/>
<path d="M86.5671 7.16291C86.1567 7.72975 85.719 8.27183 85.2542 8.78912C85.1933 8.77808 85.1362 8.78261 85.083 8.80271C85.0699 8.80753 85.0576 8.8064 85.046 8.79932C85.0299 8.78997 85.0171 8.78629 85.0078 8.78827C84.522 8.89643 84.0396 9.01634 83.5605 9.148C83.5492 9.15112 83.5385 9.1497 83.5283 9.14376C83.4858 9.11828 83.4436 9.12196 83.4016 9.1548C83.3918 9.16234 83.3805 9.16757 83.3685 9.17009C83.2677 9.19019 83.2138 9.16797 83.207 9.10341C83.8127 8.49437 84.3868 7.86014 84.9296 7.20071C84.9573 7.23836 85.0045 7.25337 85.0711 7.24573C85.5965 7.18457 86.003 7.13091 86.2905 7.08476C86.3751 7.07117 86.4371 7.09623 86.5047 7.13912C86.5123 7.14422 86.5194 7.14351 86.5259 7.137L86.5344 7.12808C86.5418 7.12072 86.5455 7.12228 86.5455 7.13275C86.5458 7.15739 86.553 7.16744 86.5671 7.16291Z" fill="#C5974D"/>
<path d="M92.2863 8.83894C94.6925 11.2691 97.6091 13.222 100.857 14.361C100.922 14.384 100.951 14.4201 100.951 14.4931C100.951 15.4759 100.948 16.4587 100.941 17.4415C100.94 17.4845 100.911 17.4978 100.852 17.4814C100.836 17.4768 100.827 17.4664 100.825 17.4499L100.492 14.6838C100.491 14.6695 100.485 14.6558 100.477 14.6441C100.468 14.6324 100.457 14.623 100.444 14.6167C100.227 14.5122 99.997 14.4236 99.7531 14.3508C99.0166 14.1314 98.2883 13.8873 97.5683 13.6186C94.7353 12.5625 92.3226 10.8992 90.3301 8.62871C90.3374 8.6222 90.3407 8.61172 90.3399 8.59728C90.339 8.58312 90.3451 8.57335 90.3581 8.56797C90.423 8.54278 90.4898 8.5374 90.5587 8.55184C91.1365 8.67359 91.7124 8.80312 92.2863 8.94045C92.2914 8.94172 92.2968 8.94116 92.3016 8.93887C92.3063 8.93657 92.3101 8.93269 92.3123 8.92789C92.3145 8.92309 92.3149 8.91768 92.3135 8.9126C92.3121 8.90752 92.3089 8.9031 92.3046 8.9001C92.2887 8.88877 92.2826 8.86839 92.2863 8.83894Z" fill="#EEC571"/>
<path d="M85.2534 8.78908C83.1694 11.1527 80.6395 12.852 77.6638 13.8869C77.1565 14.0633 76.6483 14.2366 76.1392 14.4067C75.9656 14.4648 75.8023 14.5365 75.6493 14.622C75.6389 14.6278 75.63 14.636 75.6233 14.6459C75.6166 14.6558 75.6122 14.6671 75.6107 14.679C75.4934 15.5799 75.3748 16.484 75.255 17.3912C75.2547 17.3931 75.254 17.4049 75.2529 17.4264C75.2503 17.4717 75.2251 17.4945 75.1773 17.4948C75.1704 17.4948 75.1635 17.4934 75.1572 17.4907C75.1508 17.4881 75.145 17.4842 75.1402 17.4792C75.1353 17.4743 75.1315 17.4684 75.1289 17.462C75.1263 17.4555 75.1249 17.4487 75.125 17.4417L75.1556 14.4577C75.1559 14.4381 75.1621 14.419 75.1734 14.4031C75.1847 14.3871 75.2006 14.3751 75.2189 14.3685C78.2493 13.2757 80.9364 11.3632 83.2062 9.10336C83.213 9.16792 83.2668 9.19014 83.3677 9.17004C83.3797 9.16752 83.391 9.1623 83.4008 9.15475C83.4427 9.12191 83.4849 9.11823 83.5274 9.14371C83.5376 9.14966 83.5484 9.15107 83.5597 9.14796C84.0387 9.0163 84.5211 8.89639 85.0069 8.78823C85.0163 8.78624 85.029 8.78993 85.0452 8.79927C85.0568 8.80635 85.0691 8.80748 85.0821 8.80267C85.1354 8.78256 85.1925 8.77803 85.2534 8.78908Z" fill="#EEC571"/>
<path d="M88.1738 16.1757C88.1692 16.2003 88.1579 16.2153 88.1398 16.2207C87.448 16.4237 86.7546 16.6175 86.0594 16.8021C86.0558 16.803 86.0526 16.8052 86.0503 16.8083C86.048 16.8114 86.0467 16.8152 86.0467 16.8191L86.0441 18.5455L86.0127 17.8737C86.0124 17.8655 86.0093 17.8575 86.0039 17.851C85.9985 17.8446 85.9912 17.8401 85.9833 17.8385C85.9754 17.8369 85.9675 17.8381 85.9608 17.8421C85.9542 17.846 85.9494 17.8524 85.9473 17.8601C85.9453 17.8674 85.9416 17.8722 85.9362 17.8745C85.9229 17.8807 85.914 17.8768 85.9095 17.8626L85.8963 17.821C85.8909 17.804 85.8794 17.7971 85.8619 17.8002C85.7862 17.8135 85.7182 17.7993 85.6579 17.7577C85.6459 17.7492 85.6312 17.7453 85.6167 17.7467C85.4425 17.7614 85.2694 17.757 85.0975 17.7335C84.9398 17.7123 84.7117 17.6961 84.517 17.6435C84.3637 17.6023 84.2001 17.6418 84.0684 17.6252C83.8369 17.5966 83.6158 17.5308 83.4051 17.4277C83.3603 17.4059 83.3013 17.4002 83.2279 17.4107C83.2137 17.4127 83.2003 17.4106 83.1875 17.4043C83.0773 17.35 82.9621 17.3154 82.8417 17.3007C82.6602 17.2791 82.5022 17.1979 82.3267 17.155C82.113 17.1032 81.9175 17.0102 81.7038 16.9605C81.5011 16.913 81.3847 16.8425 81.2457 16.7108C81.2381 16.7037 81.2299 16.7029 81.2211 16.7082L81.1837 16.7312C81.1656 16.7419 81.163 16.739 81.1761 16.7223C81.1862 16.709 81.1912 16.6937 81.1909 16.6764C81.1906 16.6679 81.1797 16.6634 81.1582 16.6628C81.4361 16.3952 81.6532 16.2157 81.8096 16.1243C82.8009 15.5454 83.8321 15.0183 84.5812 14.1604C84.6956 14.0293 84.7905 13.8863 84.8659 13.7314C84.8738 13.7152 84.8769 13.6969 84.8746 13.6789C84.8724 13.6608 84.8649 13.6438 84.8531 13.6299C84.7469 13.5045 84.7587 13.3904 84.8884 13.2876C84.9 13.2783 84.9061 13.2661 84.9067 13.2511L84.9122 13.1033C84.9128 13.0872 84.9074 13.0731 84.8961 13.0613C84.7873 12.9474 84.7964 12.8444 84.9233 12.7521C84.9292 12.7479 84.934 12.7423 84.9373 12.7358C84.9406 12.7293 84.9424 12.722 84.9424 12.7147V12.5682C84.9424 12.552 84.9359 12.5393 84.9228 12.5299C84.8446 12.4736 84.8274 12.4018 84.871 12.3146C84.8754 12.3055 84.8824 12.2978 84.891 12.2925L84.9551 12.2518C84.961 12.2481 84.9658 12.2431 84.9692 12.237C84.9725 12.231 84.9743 12.2242 84.9742 12.2174V12.0008C84.9742 11.9985 84.9754 11.9968 84.9776 11.9957C84.9816 11.9942 84.9851 11.9938 84.9883 11.9944C84.9894 11.9944 84.99 11.9949 84.99 11.9961L85.0155 12.2356C85.0161 12.2411 85.0182 12.2463 85.0217 12.2507C85.0251 12.255 85.0298 12.2583 85.035 12.2603C85.1684 12.3078 85.185 12.4492 85.0694 12.5312C85.0584 12.5391 85.0509 12.5498 85.0469 12.5631C84.9908 12.7589 85.1255 12.7419 85.1633 12.8663C85.186 12.9399 85.1647 13.0036 85.0996 13.0574C85.0868 13.0679 85.0805 13.0815 85.0805 13.0982V13.2469C85.0805 13.2536 85.082 13.2603 85.085 13.2664C85.0881 13.2725 85.0925 13.2779 85.0979 13.2821C85.2364 13.3903 85.2467 13.5114 85.1289 13.6457C85.1184 13.6576 85.1128 13.673 85.1131 13.6889C85.1135 13.7048 85.1197 13.7199 85.1306 13.7314C86.0335 14.6832 87.0584 15.4868 88.1738 16.1757Z" fill="#38783F"/>
<path d="M94.1006 15.9841C94.057 16.011 94.0103 16.0133 93.9604 15.9909C93.9463 15.9844 93.9382 15.9888 93.9362 16.0041C93.9196 16.1281 93.889 16.2411 93.8873 16.3634C93.8814 16.8238 93.8849 17.2858 93.898 17.7496L91.4131 17.1423L91.4004 15.2842L94.1006 15.9841Z" fill="#626365"/>
<path d="M91.4012 15.2842L91.414 17.1423L86.0551 18.6623L86.0449 18.5455L86.0475 16.8191C86.0475 16.8152 86.0488 16.8114 86.0511 16.8083C86.0534 16.8052 86.0566 16.803 86.0602 16.8021C86.7554 16.6175 87.4488 16.4237 88.1405 16.2207C88.1587 16.2153 88.17 16.2003 88.1745 16.1756C88.1881 16.1898 88.2051 16.1939 88.2255 16.188C89.2725 15.8901 90.331 15.5888 91.4012 15.2842Z" fill="#4B4B4D"/>
<path d="M24.4265 19.8191C24.4282 19.9692 24.4272 20.1173 24.4235 20.2634C24.4057 20.965 23.8779 21.2249 23.247 21.157C23.2334 21.1555 23.2266 21.148 23.2266 21.1345V20.7216C23.2265 20.7171 23.2275 20.7125 23.2293 20.7083C23.2311 20.7041 23.2338 20.7004 23.2372 20.6973C23.2405 20.6942 23.2445 20.6918 23.2488 20.6903C23.2531 20.6888 23.2577 20.6882 23.2623 20.6885C23.6285 20.7136 23.883 20.6299 23.9073 20.2154C23.9289 19.8446 23.9094 19.3953 23.9128 19.1039C23.9184 18.5713 23.9194 18.0387 23.9158 17.5062C23.9155 17.4863 23.9252 17.4764 23.9451 17.4764L24.3993 17.4802C24.4174 17.4805 24.4265 17.4897 24.4265 17.5079C24.4276 17.996 24.4276 18.4836 24.4265 18.9706C24.4256 19.4335 24.6835 19.4772 25.0898 19.4781C25.8112 19.4801 26.5333 19.4806 27.2559 19.4798C27.7768 19.4789 27.745 19.0177 27.7352 18.6406C27.7186 18.009 27.9935 17.4471 28.6848 17.3851C29.7577 17.2887 30.1197 17.9678 30.0373 18.9132C30.008 19.2513 30.1444 19.4806 30.5051 19.4802C30.93 19.4794 31.4301 19.5278 31.841 19.4212C31.8549 19.4175 31.8606 19.4086 31.858 19.3944C31.756 18.8516 31.4454 18.5824 31.0112 18.2643C30.9953 18.2527 30.9823 18.2375 30.9734 18.2199C30.9644 18.2024 30.9598 18.1829 30.9598 18.1632V17.7822C30.9598 17.7616 30.9653 17.7414 30.9758 17.7237C30.9862 17.706 31.0012 17.6914 31.0192 17.6816C31.5886 17.3677 32.5395 17.2135 33.1132 17.5796C33.8546 18.0536 33.4046 19.0721 32.8272 19.4551C32.8248 19.4568 32.823 19.4592 32.822 19.4619C32.821 19.4647 32.8209 19.4677 32.8217 19.4705C32.8225 19.4732 32.8242 19.4756 32.8265 19.4773C32.8288 19.479 32.8316 19.4799 32.8344 19.4798C33.763 19.4801 34.6925 19.4801 35.6231 19.4798C35.8427 19.4794 35.8771 19.3197 35.8771 19.1281C35.8783 18.0431 35.8784 16.9605 35.8776 15.8804C35.8776 15.8691 35.882 15.8583 35.89 15.8503C35.898 15.8424 35.9088 15.8379 35.9201 15.8379H36.3343C36.3512 15.8379 36.3675 15.8446 36.3794 15.8567C36.3914 15.8687 36.3981 15.885 36.3981 15.902C36.3986 16.9663 36.3988 18.0315 36.3985 19.0975C36.3985 19.5138 36.3169 19.9533 35.8007 19.955C34.8424 19.9584 33.8838 19.9591 32.9249 19.9572C32.6887 19.9569 32.4638 19.9018 32.2502 19.7919C32.2408 19.7872 32.2305 19.7846 32.22 19.7845C32.2095 19.7843 32.1992 19.7866 32.1899 19.7911C31.6719 20.0345 30.9381 19.9618 30.3437 19.961C30.1063 19.9604 29.9125 19.8722 29.7624 19.6964C29.7609 19.6946 29.759 19.6931 29.7569 19.692C29.7547 19.6909 29.7524 19.6903 29.7501 19.6901C29.7477 19.6899 29.7454 19.6903 29.7432 19.6911C29.741 19.6918 29.739 19.6931 29.7373 19.6947C29.281 20.1215 28.4958 20.1084 28.0241 19.6947C28.0131 19.6848 28.0026 19.6855 27.9927 19.6968C27.8423 19.8667 27.6584 19.9529 27.4412 19.9555C27.0823 19.9591 26.2084 19.9597 24.8195 19.9572C24.7178 19.9569 24.596 19.9061 24.4541 19.8047C24.4354 19.7914 24.4262 19.7962 24.4265 19.8191ZM29.5244 18.8087C29.5623 18.314 29.3872 17.7465 28.7567 17.8612C28.3169 17.9411 28.2302 18.3624 28.2408 18.7378C28.2531 19.1668 28.3657 19.4985 28.8463 19.5218C29.343 19.546 29.4909 19.2483 29.5244 18.8087ZM31.5007 18.0052C31.9349 18.2937 32.2156 18.6929 32.3428 19.2029C32.3437 19.2066 32.3455 19.2101 32.3481 19.213C32.3506 19.2158 32.3538 19.2181 32.3574 19.2195C32.361 19.2208 32.3649 19.2213 32.3687 19.2209C32.3725 19.2204 32.3762 19.2191 32.3794 19.2169C32.6602 19.0296 32.936 18.7221 32.9466 18.3683C32.9674 17.6531 31.8805 17.8383 31.5019 17.9924C31.5007 17.9929 31.4996 17.9938 31.4988 17.9948C31.4981 17.9959 31.4976 17.9971 31.4974 17.9984C31.4973 17.9997 31.4975 18.0011 31.4981 18.0023C31.4987 18.0035 31.4996 18.0045 31.5007 18.0052Z" fill="#286636"/>
<path d="M37.725 15.8387L37.2797 15.8379C37.2633 15.8379 37.25 15.8512 37.2499 15.8676L37.2429 19.927C37.2428 19.9434 37.2561 19.9567 37.2726 19.9568L37.7178 19.9576C37.7343 19.9576 37.7476 19.9443 37.7476 19.9279L37.7547 15.8685C37.7548 15.8521 37.7415 15.8387 37.725 15.8387Z" fill="#286636"/>
<path d="M45.6225 19.6361C45.4885 19.8414 45.2932 19.9467 45.0366 19.9521C44.689 19.9591 44.3399 19.9607 43.9892 19.9567C43.6145 19.9525 43.3085 19.9962 43.422 20.4698C43.4823 20.7208 43.9106 20.697 44.16 20.6872C44.1633 20.6871 44.1665 20.6876 44.1695 20.6887C44.1726 20.6898 44.1753 20.6916 44.1777 20.6939C44.18 20.6961 44.1819 20.6989 44.1832 20.7019C44.1844 20.7049 44.1851 20.7082 44.1851 20.7114V21.1255C44.1851 21.1351 44.1815 21.1444 44.1749 21.1514C44.1684 21.1584 44.1594 21.1627 44.1498 21.1633C43.4458 21.2147 42.7188 21.0215 42.8989 20.1092C42.9758 19.7197 43.3013 19.4968 43.6952 19.4866C44.0275 19.4781 44.3609 19.4764 44.6954 19.4815C44.9291 19.4853 45.1666 19.442 45.2006 19.1621C45.2405 18.8342 45.2104 18.3505 45.0005 18.0978C44.7464 17.792 44.2531 17.7865 43.9302 17.9797C43.8439 18.0311 43.7636 18.1114 43.6829 18.1844C43.6695 18.1963 43.6559 18.1967 43.6421 18.1857L43.3332 17.9338C43.3244 17.9268 43.3188 17.9165 43.3174 17.9054C43.3161 17.8942 43.3191 17.8829 43.3259 17.874C43.5438 17.5891 43.8328 17.427 44.1932 17.3877C45.2512 17.2717 45.8027 17.9317 45.7585 18.9442C45.7415 19.3328 45.9068 19.4781 46.2926 19.4789C47.5976 19.4809 48.9028 19.4811 50.2081 19.4794C50.4528 19.4788 50.5844 19.3587 50.6028 19.1192C50.6402 18.6261 50.5994 17.9534 49.9671 17.8582C49.5954 17.8022 49.3481 17.9419 49.0855 18.1831C49.0736 18.1939 49.0615 18.1942 49.0494 18.184L48.7464 17.9411C48.7361 17.9328 48.7295 17.9209 48.7278 17.9078C48.7262 17.8947 48.7296 17.8815 48.7375 17.871C48.9652 17.5683 49.2747 17.4037 49.6659 17.377C50.7553 17.3027 51.1819 17.9878 51.1654 18.9969C51.1556 19.5983 51.7607 19.4828 52.1907 19.4777C52.3549 19.476 52.4372 19.3872 52.4375 19.2114C52.4392 18.1006 52.4395 16.9869 52.4384 15.8702C52.4384 15.8616 52.4418 15.8534 52.4478 15.8473C52.4539 15.8413 52.4621 15.8379 52.4707 15.8379H52.9266C52.9413 15.8379 52.9487 15.8453 52.9487 15.86C52.9495 16.9823 52.9487 18.1039 52.9461 19.2245C52.944 20.1045 52.2472 19.9699 51.6421 19.9555C51.369 19.9489 51.1703 19.8473 51.046 19.6505C51.0389 19.6392 51.0315 19.6389 51.0239 19.6497C50.8754 19.853 50.6735 19.9549 50.418 19.9555C49.0062 19.9586 47.5944 19.9564 46.1826 19.9491C45.937 19.948 45.7558 19.8438 45.6391 19.6365C45.6383 19.6351 45.6371 19.6339 45.6356 19.633C45.6342 19.6322 45.6326 19.6317 45.6309 19.6317C45.6293 19.6317 45.6276 19.632 45.6262 19.6328C45.6247 19.6336 45.6234 19.6347 45.6225 19.6361Z" fill="#286636"/>
<path d="M54.2738 15.8379H53.8285C53.8099 15.8379 53.7949 15.8529 53.7949 15.8714V19.9232C53.7949 19.9417 53.8099 19.9567 53.8285 19.9567H54.2738C54.2923 19.9567 54.3074 19.9417 54.3074 19.9232V15.8714C54.3074 15.8529 54.2923 15.8379 54.2738 15.8379Z" fill="#286636"/>
<path d="M61.585 15.8379H61.1694C61.1406 15.8379 61.1172 15.8613 61.1172 15.8901V19.9053C61.1172 19.9342 61.1406 19.9576 61.1694 19.9576H61.585C61.6139 19.9576 61.6373 19.9342 61.6373 19.9053V15.8901C61.6373 15.8613 61.6139 15.8379 61.585 15.8379Z" fill="#286636"/>
<path d="M94.1009 15.9844L96.7578 16.6762C96.7699 16.6793 96.776 16.6871 96.776 16.6996V18.4282C96.776 18.4429 96.7688 18.4485 96.7544 18.4451L93.8982 17.7499C93.8852 17.2861 93.8816 16.824 93.8876 16.3636C93.8893 16.2413 93.9199 16.1284 93.9364 16.0043C93.9384 15.989 93.9465 15.9847 93.9606 15.9912C94.0105 16.0135 94.0572 16.0113 94.1009 15.9844Z" fill="#4B4B4D"/>
<path d="M21.5902 16.3163L21.1347 16.3155C21.111 16.3155 21.0918 16.3346 21.0917 16.3583L21.0909 16.8425C21.0908 16.8662 21.11 16.8854 21.1337 16.8855L21.5892 16.8863C21.6129 16.8863 21.6322 16.8671 21.6322 16.8434L21.633 16.3593C21.6331 16.3356 21.6139 16.3163 21.5902 16.3163Z" fill="#38783F"/>
<path d="M22.3219 16.314L21.88 16.317C21.8535 16.3172 21.8322 16.3389 21.8324 16.3654L21.8357 16.841C21.8359 16.8675 21.8575 16.8889 21.884 16.8887L22.3259 16.8856C22.3524 16.8854 22.3738 16.8638 22.3736 16.8373L22.3703 16.3616C22.3701 16.3351 22.3484 16.3138 22.3219 16.314Z" fill="#38783F"/>
<path d="M57.4677 16.3138L57.0173 16.3162C56.9926 16.3163 56.9728 16.3364 56.9729 16.361L56.9754 16.8409C56.9755 16.8655 56.9956 16.8854 57.0203 16.8853L57.4706 16.8829C57.4953 16.8828 57.5151 16.8627 57.515 16.8381L57.5125 16.3582C57.5124 16.3335 57.4923 16.3137 57.4677 16.3138Z" fill="#38783F"/>
<path d="M58.2125 16.3153L57.7561 16.3145C57.7355 16.3145 57.7187 16.3312 57.7187 16.3518L57.7178 16.8487C57.7178 16.8694 57.7345 16.8861 57.7551 16.8862L58.2115 16.887C58.2321 16.887 58.2489 16.8703 58.2489 16.8497L58.2498 16.3528C58.2498 16.3321 58.2331 16.3154 58.2125 16.3153Z" fill="#38783F"/>
<path d="M63.2387 16.3163L62.7798 16.3155C62.7601 16.3155 62.7441 16.3314 62.7441 16.3511L62.7432 16.8497C62.7432 16.8694 62.7591 16.8854 62.7788 16.8855L63.2377 16.8863C63.2574 16.8863 63.2734 16.8703 63.2735 16.8506L63.2744 16.352C63.2744 16.3323 63.2584 16.3163 63.2387 16.3163Z" fill="#38783F"/>
<path d="M81.1592 16.6631C81.1808 16.6637 81.1917 16.6682 81.1919 16.6767C81.1922 16.6939 81.1873 16.7092 81.1771 16.7225C81.164 16.7393 81.1666 16.7422 81.1847 16.7315L81.2221 16.7085C81.2309 16.7032 81.2391 16.704 81.2468 16.7111C81.3857 16.8427 81.5021 16.9132 81.7048 16.9608C81.9185 17.0105 82.114 17.1035 82.3277 17.1553C82.5032 17.1982 82.6613 17.2793 82.8427 17.301C82.9631 17.3157 83.0784 17.3503 83.1886 17.4046C83.2013 17.4109 83.2148 17.413 83.2289 17.411C83.3023 17.4005 83.3614 17.4062 83.4061 17.428C83.6169 17.5311 83.838 17.5969 84.0694 17.6255C84.2011 17.642 84.3647 17.6025 84.5181 17.6437C84.7127 17.6964 84.9409 17.7125 85.0985 17.7338C85.2704 17.7573 85.4435 17.7617 85.6177 17.7469C85.6323 17.7456 85.6469 17.7495 85.6589 17.758C85.7193 17.7996 85.7873 17.8138 85.8629 17.8005C85.8805 17.7973 85.8919 17.8043 85.8973 17.8213L85.9105 17.8629C85.915 17.877 85.9239 17.881 85.9372 17.8748C85.9426 17.8725 85.9463 17.8677 85.9483 17.8603C85.9504 17.8527 85.9553 17.8463 85.9619 17.8424C85.9685 17.8384 85.9764 17.8371 85.9843 17.8388C85.9922 17.8404 85.9995 17.8449 86.0049 17.8513C86.0103 17.8578 86.0134 17.8658 86.0137 17.8739L86.0452 18.5458L86.0554 18.6626L86.0558 19.2237L86.0354 19.6794L79.9988 19.6734C79.9827 19.6734 79.9746 19.6654 79.9746 19.6492C79.9851 18.4861 80.38 17.4907 81.1592 16.6631Z" fill="#286636"/>
<path d="M22.2198 19.9256C21.585 20.1503 20.8253 19.9507 20.6426 19.2274C20.4692 18.5398 20.5742 17.5392 21.4418 17.3965C22.1076 17.2869 22.7033 17.5107 22.8478 18.2251C22.9685 18.8209 22.906 19.6823 22.2198 19.9256ZM21.3339 19.4083C21.6695 19.6423 22.2313 19.5476 22.3349 19.0766C22.4314 18.6379 22.4148 17.9074 21.8144 17.8564C21.4445 17.825 21.2183 17.9867 21.1359 18.3414C21.0726 18.615 21.0437 19.2066 21.3339 19.4083Z" fill="#286636"/>
<path d="M56.8755 19.7906C56.3953 19.4432 56.3983 18.6278 56.5262 18.1359C56.6347 17.7189 56.8968 17.4727 57.3127 17.3974C57.9492 17.2823 58.5644 17.4997 58.717 18.1848C58.8521 18.7917 58.7939 19.6874 58.0843 19.9295C57.7087 20.0573 57.2086 20.0319 56.8755 19.7906ZM57.226 19.419C57.5434 19.6237 58.0783 19.5507 58.1956 19.1319C58.3286 18.6562 58.3027 17.876 57.6458 17.8544C57.3254 17.8437 57.0875 17.9941 57.0148 18.3118C56.9456 18.6125 56.9179 19.2207 57.226 19.419Z" fill="#286636"/>
<path d="M65.7525 19.9567C65.0425 19.9618 64.2288 20.0616 64.027 19.2045C63.8523 18.463 64.0822 17.5023 64.9609 17.3842C65.608 17.2976 66.1604 17.5834 66.2619 18.2735C66.3257 18.7072 66.2836 19.1841 66.2968 19.5919C66.3231 20.3996 66.3167 21.0996 65.3051 21.1582C65.0309 21.1743 64.7541 21.1753 64.4748 21.1612C64.4521 21.16 64.4408 21.148 64.4408 21.1251V20.733C64.4408 20.7019 64.4564 20.6868 64.4875 20.6876C64.7292 20.693 64.9555 20.6926 65.1665 20.6863C65.6658 20.6715 65.8132 20.471 65.7754 19.9775C65.7743 19.9633 65.7666 19.9564 65.7525 19.9567ZM64.4982 18.8032C64.556 19.6258 65.1568 19.4874 65.7584 19.478C65.7732 19.4777 65.7805 19.4702 65.7805 19.4555C65.7808 19.1831 65.78 18.9109 65.778 18.6388C65.7754 18.2774 65.6662 17.9049 65.2473 17.8573C64.6762 17.7928 64.4655 18.3402 64.4982 18.8032Z" fill="#286636"/>
<path d="M40.2733 19.9546C39.5867 19.9724 38.7764 20.057 38.5686 19.2402C38.3783 18.4915 38.5835 17.4896 39.5123 17.3817C39.8467 17.3431 40.2363 17.4046 40.4921 17.654C40.8078 17.9614 40.8146 18.418 40.824 18.8325C40.8339 19.2671 40.8321 19.7016 40.8185 20.136C40.7815 21.3031 39.8497 21.185 39.002 21.1655C38.9748 21.1649 38.9611 21.1509 38.9608 21.1234L38.9565 20.756C38.956 20.7099 38.9786 20.6874 39.0245 20.6885C39.562 20.7004 40.4369 20.8588 40.3001 19.9767C40.2975 19.9614 40.2886 19.954 40.2733 19.9546ZM39.0479 18.4588C38.9616 18.8805 39.0318 19.4658 39.6032 19.4781C39.8299 19.4829 40.0566 19.4829 40.2835 19.4781C40.2974 19.4778 40.3045 19.4707 40.3048 19.4568C40.3107 19.159 40.3091 18.8617 40.3001 18.565C40.2716 17.6467 39.2251 17.5949 39.0479 18.4588Z" fill="#286636"/>
<path d="M59.1491 21.1659C59.1351 21.1649 59.122 21.1586 59.1125 21.1484C59.1029 21.1381 59.0976 21.1246 59.0977 21.1106L59.1002 20.7356C59.1003 20.7293 59.1016 20.723 59.1041 20.7172C59.1066 20.7114 59.1103 20.7062 59.1149 20.7018C59.1195 20.6974 59.125 20.694 59.1309 20.6918C59.1368 20.6896 59.1432 20.6886 59.1495 20.6889C59.4486 20.7025 59.7877 20.6294 59.7919 20.2646C59.8019 19.347 59.8036 18.4286 59.797 17.5095C59.797 17.4908 59.8064 17.4814 59.8251 17.4811L60.2525 17.4785C60.2902 17.4782 60.3091 17.4969 60.3091 17.5346C60.3093 18.3854 60.3095 19.2319 60.3095 20.0739C60.3095 20.8635 59.939 21.2143 59.1491 21.1659Z" fill="#286636"/>
<path d="M62.1012 21.1656C62.0689 21.1645 62.0527 21.1478 62.0527 21.1155V20.7214C62.0527 20.7133 62.056 20.7055 62.0617 20.6998C62.0674 20.694 62.0752 20.6908 62.0833 20.6908C62.3633 20.69 62.6888 20.6738 62.7313 20.329C62.7483 20.1916 62.7533 19.981 62.7462 19.697C62.7283 18.9737 62.7466 18.2487 62.7415 17.5276C62.7414 17.5218 62.7425 17.5161 62.7447 17.5107C62.7469 17.5053 62.7501 17.5005 62.7542 17.4964C62.7582 17.4923 62.7631 17.489 62.7684 17.4868C62.7738 17.4845 62.7795 17.4834 62.7853 17.4834H63.1991C63.2459 17.4834 63.2688 17.5069 63.268 17.5539C63.2527 18.3504 63.2484 19.1082 63.2552 19.8274C63.2603 20.3392 63.2845 20.8531 62.7377 21.0845C62.5499 21.1639 62.309 21.1737 62.1012 21.1656Z" fill="#286636"/>
<path d="M91.4041 17.709L91.4032 25.0212C90.8763 25.0617 90.4827 25.1081 90.2224 25.1605C89.3386 25.3381 88.5593 26.0291 88.0567 26.7838C88.0411 26.8073 88.0257 26.8071 88.0104 26.7833C87.5549 26.0715 86.8606 25.4689 86.0444 25.206L86.0452 22.5379L86.0469 22.3783L86.0473 21.24C86.0473 21.2295 86.0433 21.2193 86.036 21.2116C86.0287 21.204 86.0188 21.1994 86.0082 21.1988L85.6543 21.1793L86.0257 21.1789C86.0404 21.1789 86.0478 21.1715 86.0478 21.1568V21.0404C86.0478 21.0257 86.0404 21.0188 86.0257 21.0196C86.0002 21.021 85.9791 21.0175 85.9624 21.009L86.024 21.0081C86.0376 21.0081 86.0444 21.0012 86.0444 20.9873L86.0405 19.8092C86.0555 19.7619 86.0537 19.7186 86.035 19.6792L86.0554 19.2235L91.4041 17.709Z" fill="#4B4B4D"/>
<path d="M91.4051 17.709L93.0733 18.1061C93.0778 18.1372 93.0633 18.1643 93.0295 18.1872C93.0171 18.1957 93.0108 18.2073 93.0108 18.222C93.0057 20.3413 93.0048 22.4605 93.0079 24.5795C93.0079 24.6135 93.027 24.6428 93.03 24.6789C93.0314 24.6933 93.0295 24.7072 93.0244 24.7205C93.0066 24.7681 93.012 24.812 93.0406 24.8522C93.044 24.857 93.0427 24.8598 93.0368 24.8607L93.0193 24.8628C92.9998 24.8656 92.9968 24.8741 93.0104 24.8883L93.0291 24.9083L91.4043 25.0212L91.4051 17.709Z" fill="#626365"/>
<path d="M93.0732 18.1064L96.7512 18.9932C96.7664 18.9969 96.7741 19.0067 96.7741 19.0225L96.7754 23.8116C96.2085 24.2104 95.5585 24.5531 94.8722 24.6924C94.2727 24.8139 93.5831 24.8729 93.029 24.9086L93.0103 24.8886C92.9967 24.8745 92.9997 24.866 93.0192 24.8632L93.0367 24.861C93.0426 24.8602 93.0439 24.8574 93.0405 24.8525C93.0119 24.8123 93.0065 24.7685 93.0243 24.7209C93.0294 24.7076 93.0313 24.6937 93.0299 24.6793C93.0269 24.6432 93.0078 24.6139 93.0078 24.5799C93.0047 22.4609 93.0056 20.3417 93.0107 18.2224C93.0107 18.2077 93.017 18.1961 93.0294 18.1876C93.0632 18.1646 93.0777 18.1376 93.0732 18.1064Z" fill="#4B4B4D"/>
<path d="M86.0403 19.8096L86.0442 20.9877C86.0442 21.0016 86.0374 21.0085 86.0238 21.0085L85.9622 21.0094H79.7391C79.7358 21.0094 79.7327 21.0081 79.7303 21.0058C79.728 21.0035 79.7267 21.0003 79.7267 20.9971L79.7246 19.8278C79.7246 19.8157 79.7307 19.8096 79.7429 19.8096H86.0403Z" fill="#286636"/>
<path d="M44.9234 20.5207L44.4552 20.5223C44.4357 20.5224 44.42 20.5382 44.42 20.5577L44.4218 21.0487C44.4218 21.0681 44.4377 21.0839 44.4571 21.0838L44.9254 21.0822C44.9449 21.0821 44.9606 21.0663 44.9605 21.0468L44.9588 20.5558C44.9587 20.5364 44.9429 20.5206 44.9234 20.5207Z" fill="#286636"/>
<path d="M85.6543 21.1791L86.0082 21.1987C86.0188 21.1992 86.0287 21.2038 86.036 21.2115C86.0433 21.2191 86.0474 21.2293 86.0473 21.2399L86.0469 22.3781L79.4728 22.3777C79.4584 22.3777 79.4512 22.3706 79.4512 22.3564V21.2004C79.4512 21.1859 79.4583 21.1787 79.4724 21.1787L85.6543 21.1791Z" fill="#0B4725"/>
<path d="M79.2003 23.7462C79.7713 24.154 80.4601 24.546 81.154 24.6798C82.3055 24.9019 83.5653 24.9414 84.7741 25.0335C85.2446 25.0695 85.6684 25.1271 86.0454 25.2064C86.8617 25.4693 87.556 26.072 88.0115 26.7838C88.0267 26.8076 88.0422 26.8077 88.0578 26.7842C88.5604 26.0295 89.3397 25.3385 90.2235 25.161C90.4838 25.1086 90.8774 25.0621 91.4043 25.0216L93.0291 24.9087C93.5832 24.873 94.2728 24.814 94.8723 24.6925C95.5585 24.5532 96.2086 24.2104 96.7755 23.8116C97.2497 23.4877 97.6986 23.1403 98.1224 22.7694C98.1691 22.7284 98.2218 22.7009 98.2805 22.687C99.0903 22.4933 100.078 22.323 100.903 22.4747C100.921 22.4781 100.923 22.486 100.909 22.4984C100.696 22.6847 100.511 22.8354 100.356 22.9503C98.3592 24.4246 96.2962 25.7986 94.1666 27.0721L94.1644 26.9766C94.1644 26.9733 94.1635 26.9701 94.1619 26.9672C94.1604 26.9644 94.1582 26.9619 94.1555 26.96C94.1528 26.9582 94.1497 26.957 94.1465 26.9565C94.1432 26.9561 94.1399 26.9564 94.1368 26.9575C93.9439 27.0195 93.7565 27.0581 93.5683 27.1384C93.1743 27.3063 92.7701 27.4425 92.3556 27.547C91.7225 27.7067 91.0045 27.8766 90.3399 27.9296C89.805 27.9721 89.2849 28.0375 88.7584 28.0537C86.8663 28.1118 84.9177 27.9118 83.0949 27.3329C82.9526 27.2879 82.7074 27.1787 82.4937 27.1422C82.4121 27.1282 82.353 27.059 82.2685 27.0331C82.1618 27.0008 81.9511 26.8942 81.8508 26.9074C81.7833 26.9159 81.7488 26.9061 81.6898 26.8857C81.6787 26.882 81.679 26.8803 81.6906 26.8806C81.6943 26.8806 81.698 26.8807 81.7017 26.881C81.713 26.8816 81.7153 26.8773 81.7085 26.8683C81.6732 26.8194 81.5717 26.7481 81.51 26.7867C81.4942 26.7964 81.4841 26.806 81.4799 26.8156C79.7007 25.7357 77.928 24.5567 76.1618 23.2786C75.7686 22.9941 75.4293 22.7356 75.1437 22.5031C75.1302 22.4918 75.132 22.4843 75.1493 22.4806C75.943 22.3082 77.0095 22.4925 77.7913 22.6891C77.8525 22.7047 77.9079 22.7339 77.9574 22.7766C78.3557 23.1212 78.77 23.4444 79.2003 23.7462Z" fill="#C5974D"/>
<path d="M86.0445 22.5381L86.0437 25.2061C85.6667 25.1268 85.2429 25.0692 84.7724 25.0333C83.5635 24.9411 82.3037 24.9016 81.1522 24.6795C80.4584 24.5457 79.7696 24.1537 79.1985 23.746L79.1973 22.5589C79.1973 22.545 79.2042 22.5381 79.2181 22.5381H86.0445Z" fill="#0B4725"/>
<path d="M28.2231 24.7183C28.0757 24.2375 27.0551 24.6211 26.979 23.8931C26.8839 22.9779 27.8853 22.9613 28.4258 23.3087C28.4331 23.3133 28.4383 23.3206 28.4403 23.3291C28.4423 23.3375 28.4409 23.3463 28.4364 23.3537L28.3136 23.558C28.3114 23.5618 28.3084 23.565 28.3048 23.5676C28.3012 23.5702 28.2971 23.5719 28.2927 23.5729C28.2884 23.5738 28.2839 23.5738 28.2795 23.5729C28.2752 23.572 28.271 23.5703 28.2673 23.5678C28.0098 23.3885 27.3852 23.2373 27.2841 23.6548C27.1724 24.1195 27.8271 24.1275 28.1173 24.1997C28.6327 24.328 28.6842 25.0284 28.3132 25.3108C27.9087 25.6191 27.2837 25.5079 26.8868 25.2012C26.8836 25.1986 26.8809 25.1955 26.8789 25.1918C26.8769 25.1882 26.8756 25.1842 26.8752 25.1801C26.8747 25.176 26.8751 25.1718 26.8763 25.1679C26.8775 25.1639 26.8795 25.1602 26.8822 25.157L27.0419 24.9651C27.0469 24.9591 27.0541 24.9553 27.0618 24.9545C27.0695 24.9537 27.0772 24.956 27.0831 24.9608C27.3205 25.1502 27.5824 25.2278 27.8688 25.1936C28.1046 25.1651 28.2975 24.9608 28.2231 24.7183Z" fill="#C5974D"/>
<path d="M37.0063 24.7001C37.0063 24.9082 36.9236 25.1077 36.7765 25.2548C36.6293 25.4019 36.4297 25.4846 36.2215 25.4846H36.1051C35.897 25.4846 35.6973 25.4019 35.5502 25.2548C35.403 25.1077 35.3203 24.9082 35.3203 24.7001V23.8889C35.3203 23.6809 35.403 23.4814 35.5502 23.3343C35.6973 23.1871 35.897 23.1045 36.1051 23.1045H36.2215C36.4297 23.1045 36.6293 23.1871 36.7765 23.3343C36.9236 23.4814 37.0063 23.6809 37.0063 23.8889V24.7001ZM35.8429 25.0989C36.0036 25.2196 36.1739 25.2445 36.3541 25.1737C36.6061 25.0747 36.6702 24.8734 36.6842 24.6186C36.7012 24.303 36.7518 23.7738 36.5462 23.5415C36.349 23.3185 35.9203 23.336 35.7503 23.5785C35.6101 23.7781 35.6139 24.1841 35.6267 24.4432C35.6398 24.7163 35.6471 24.9524 35.8429 25.0989Z" fill="#C5974D"/>
<path d="M20.832 23.8418C20.8311 23.8397 20.8294 23.8379 20.8273 23.8368C20.8252 23.8358 20.8228 23.8354 20.8205 23.8359C20.8182 23.8364 20.8161 23.8377 20.8147 23.8396C20.8132 23.8414 20.8124 23.8437 20.8125 23.8461L20.815 25.4222C20.815 25.4414 20.8054 25.4511 20.7861 25.4511L20.5567 25.4523C20.5371 25.4523 20.5273 25.4426 20.5273 25.423V23.1593C20.5273 23.1555 20.5281 23.1517 20.5296 23.1482C20.5311 23.1447 20.5332 23.1416 20.536 23.1389C20.5387 23.1362 20.542 23.1342 20.5455 23.1328C20.5491 23.1314 20.5529 23.1308 20.5567 23.1309L20.7989 23.1377C20.8074 23.1379 20.8157 23.1405 20.8227 23.1452C20.8298 23.1498 20.8354 23.1563 20.8388 23.164L21.5271 24.7129C21.5279 24.7146 21.5292 24.7161 21.5307 24.7171C21.5323 24.7182 21.5342 24.7187 21.5361 24.7187C21.5379 24.7187 21.5398 24.7182 21.5414 24.7171C21.543 24.7161 21.5442 24.7146 21.545 24.7129L22.2189 23.164C22.2265 23.1464 22.24 23.1375 22.2592 23.1372L22.4938 23.1343C22.5147 23.134 22.5252 23.1445 22.5252 23.1657L22.5308 25.4043C22.5308 25.4298 22.5181 25.4434 22.4929 25.4451L22.306 25.4566C22.2592 25.4594 22.2362 25.4375 22.2367 25.3908L22.2495 23.8227C22.2498 23.8208 22.2493 23.8189 22.2482 23.8173C22.2471 23.8157 22.2455 23.8146 22.2436 23.8141C22.2417 23.8137 22.2398 23.814 22.2381 23.815C22.2364 23.8159 22.2352 23.8175 22.2346 23.8193L21.6801 25.0455C21.667 25.0745 21.6458 25.0992 21.619 25.1165C21.5922 25.1338 21.5609 25.143 21.529 25.143C21.4972 25.143 21.4659 25.1338 21.4391 25.1165C21.4123 25.0992 21.3911 25.0745 21.378 25.0455L20.832 23.8418Z" fill="#C5974D"/>
<path d="M23.3471 23.1338H23.1168C23.0954 23.1338 23.0781 23.1511 23.0781 23.1724V25.409C23.0781 25.4303 23.0954 25.4476 23.1168 25.4476H23.3471C23.3684 25.4476 23.3858 25.4303 23.3858 25.409V23.1724C23.3858 23.1511 23.3684 23.1338 23.3471 23.1338Z" fill="#C5974D"/>
<path d="M24.212 25.4472L23.9515 25.4514C23.9497 25.4515 23.9479 25.4512 23.9462 25.4505C23.9445 25.4499 23.9429 25.4489 23.9416 25.4476C23.9403 25.4463 23.9393 25.4448 23.9386 25.4431C23.9379 25.4415 23.9375 25.4397 23.9375 25.4378V23.1516C23.9375 23.1481 23.9389 23.1447 23.9413 23.1421C23.9438 23.1396 23.9471 23.1381 23.9507 23.138L24.2188 23.13C24.2212 23.1298 24.2237 23.1303 24.2258 23.1314C24.228 23.1326 24.2298 23.1343 24.2311 23.1363L25.2827 24.8764C25.2843 24.8788 25.2866 24.8807 25.2894 24.8818C25.2921 24.8828 25.2952 24.8829 25.298 24.8821C25.3008 24.8813 25.3033 24.8796 25.3051 24.8773C25.3068 24.8749 25.3078 24.8721 25.3078 24.8691V23.1406C25.3078 23.1387 25.3082 23.1369 25.3089 23.1352C25.3097 23.1335 25.3107 23.1319 25.3121 23.1306C25.3134 23.1294 25.315 23.1284 25.3168 23.1278C25.3185 23.1271 25.3204 23.1269 25.3223 23.127L25.5819 23.1427C25.5853 23.1429 25.5886 23.1444 25.5909 23.147C25.5933 23.1495 25.5946 23.1528 25.5946 23.1563V25.4349C25.5946 25.4384 25.5932 25.4418 25.5908 25.4443C25.5883 25.4469 25.585 25.4483 25.5814 25.4484L25.3082 25.4535C25.3058 25.4536 25.3035 25.4529 25.3014 25.4518C25.2993 25.4506 25.2975 25.4488 25.2963 25.4467L24.2477 23.725C24.2461 23.7225 24.2438 23.7206 24.2411 23.7196C24.2384 23.7185 24.2354 23.7184 24.2326 23.7191C24.2298 23.7199 24.2274 23.7215 24.2255 23.7238C24.2237 23.7261 24.2227 23.7289 24.2226 23.7318L24.2252 25.4336C24.2252 25.4371 24.2238 25.4405 24.2213 25.443C24.2189 25.4456 24.2155 25.4471 24.212 25.4472Z" fill="#C5974D"/>
<path d="M26.417 23.1338H26.1875C26.1659 23.1338 26.1484 23.1513 26.1484 23.1729V25.4119C26.1484 25.4335 26.1659 25.451 26.1875 25.451H26.417C26.4386 25.451 26.4561 25.4335 26.4561 25.4119V23.1729C26.4561 23.1513 26.4386 23.1338 26.417 23.1338Z" fill="#C5974D"/>
<path d="M29.4434 23.4228L28.8082 23.4164C28.8043 23.4163 28.8004 23.4155 28.7968 23.4139C28.7932 23.4123 28.79 23.4101 28.7873 23.4072C28.7846 23.4044 28.7825 23.401 28.7811 23.3973C28.7798 23.3936 28.7792 23.3897 28.7793 23.3858L28.7882 23.1599C28.7886 23.1523 28.7918 23.1452 28.7973 23.14C28.8027 23.1347 28.81 23.1318 28.8176 23.1318H30.4309C30.4348 23.1318 30.4386 23.1326 30.4421 23.1341C30.4457 23.1355 30.4489 23.1377 30.4516 23.1404C30.4544 23.1431 30.4565 23.1464 30.458 23.1499C30.4595 23.1535 30.4602 23.1573 30.4602 23.1611V23.3892C30.4602 23.3931 30.4595 23.3969 30.458 23.4004C30.4565 23.404 30.4544 23.4072 30.4516 23.4099C30.4489 23.4127 30.4457 23.4148 30.4421 23.4163C30.4386 23.4178 30.4348 23.4185 30.4309 23.4185H29.8097C29.8059 23.4185 29.802 23.4193 29.7985 23.4207C29.7949 23.4222 29.7917 23.4244 29.789 23.4271C29.7863 23.4298 29.7841 23.4331 29.7826 23.4366C29.7812 23.4402 29.7804 23.444 29.7804 23.4478V25.4172C29.7804 25.425 29.7773 25.4324 29.7718 25.4379C29.7663 25.4434 29.7588 25.4465 29.7511 25.4465H29.5017C29.4939 25.4465 29.4864 25.4434 29.4809 25.4379C29.4754 25.4324 29.4723 25.425 29.4723 25.4172V23.4521C29.4723 23.4444 29.4693 23.437 29.4639 23.4315C29.4585 23.426 29.4511 23.4229 29.4434 23.4228Z" fill="#C5974D"/>
<path d="M31.1188 24.491L31.1158 25.4164C31.1158 25.4368 31.1055 25.447 31.0848 25.447H30.8256C30.8078 25.447 30.7988 25.4381 30.7988 25.4202L30.8001 23.1964C30.8001 23.1545 30.8211 23.1334 30.863 23.1332C31.1298 23.1303 31.4091 23.132 31.7009 23.1383C32.4844 23.1548 32.6871 24.1342 31.9758 24.4311C31.9611 24.4373 31.9574 24.4476 31.9648 24.4621L32.4517 25.4202C32.4619 25.4403 32.4558 25.4504 32.4334 25.4504L32.1407 25.4521C32.1335 25.4521 32.1265 25.45 32.1204 25.4462C32.1143 25.4424 32.1094 25.4369 32.1062 25.4304L31.6542 24.5092C31.6484 24.4975 31.6395 24.4876 31.6285 24.4807C31.6174 24.4738 31.6047 24.4701 31.5917 24.4702H31.1396C31.126 24.4702 31.1191 24.4771 31.1188 24.491ZM31.1154 23.4491L31.1179 24.1593C31.1179 24.1664 31.1207 24.1732 31.1258 24.1782C31.1308 24.1832 31.1376 24.186 31.1447 24.186L31.7145 24.1839C31.8159 24.1835 31.913 24.1453 31.9845 24.0775C32.056 24.0097 32.0959 23.918 32.0956 23.8225V23.7791C32.0955 23.7318 32.0854 23.685 32.0661 23.6414C32.0467 23.5978 32.0184 23.5582 31.9827 23.5248C31.9471 23.4915 31.9049 23.4651 31.8584 23.4472C31.8119 23.4292 31.7622 23.4201 31.7119 23.4203L31.1421 23.4224C31.135 23.4224 31.1282 23.4252 31.1232 23.4302C31.1182 23.4352 31.1154 23.4421 31.1154 23.4491Z" fill="#C5974D"/>
<path d="M32.6934 23.1332L32.9419 23.1354C32.9504 23.1355 32.9587 23.1379 32.9659 23.1423C32.973 23.1467 32.9789 23.153 32.9827 23.1604L33.4888 24.1262C33.4903 24.1292 33.4925 24.1316 33.4954 24.1334C33.4982 24.1351 33.5014 24.136 33.5047 24.136C33.508 24.136 33.5113 24.1351 33.5141 24.1334C33.5169 24.1316 33.5192 24.1292 33.5206 24.1262L34.028 23.1579C34.0362 23.1423 34.0489 23.1345 34.0662 23.1345L34.3161 23.1328C34.3202 23.1328 34.3242 23.1337 34.3278 23.1357C34.3314 23.1376 34.3344 23.1405 34.3366 23.1439C34.3388 23.1474 34.34 23.1513 34.3402 23.1554C34.3404 23.1595 34.3396 23.1636 34.3377 23.1672C34.127 23.5846 33.9137 24.0023 33.6978 24.4205C33.6022 24.6057 33.6592 25.1944 33.6562 25.4258C33.6561 25.4324 33.6534 25.4387 33.6487 25.4434C33.6441 25.4481 33.6377 25.4508 33.6311 25.4509L33.3766 25.4526C33.3593 25.4526 33.3507 25.4439 33.3507 25.4267C33.3494 25.1978 33.4047 24.6176 33.3086 24.4333C33.0877 24.0077 32.8732 23.5894 32.6653 23.1783C32.65 23.1477 32.6594 23.1327 32.6934 23.1332Z" fill="#C5974D"/>
<path d="M37.7889 24.4853V25.4179C37.7889 25.4257 37.7859 25.4332 37.7804 25.4386C37.7749 25.4441 37.7674 25.4472 37.7596 25.4472H37.5098C37.502 25.4472 37.4946 25.4441 37.4891 25.4386C37.4836 25.4332 37.4805 25.4257 37.4805 25.4179L37.4817 23.1653C37.4817 23.1575 37.4848 23.15 37.4903 23.1445C37.4958 23.139 37.5033 23.136 37.5111 23.136L38.912 23.1309C38.9196 23.1309 38.9269 23.1338 38.9324 23.1391C38.9379 23.1445 38.9411 23.1517 38.9413 23.1593L38.9485 23.3891C38.9486 23.393 38.9479 23.3969 38.9465 23.4006C38.9451 23.4042 38.943 23.4075 38.9402 23.4104C38.9375 23.4132 38.9342 23.4154 38.9306 23.4169C38.927 23.4185 38.9231 23.4192 38.9192 23.4192H37.8183C37.8144 23.4192 37.8106 23.42 37.807 23.4215C37.8035 23.4229 37.8003 23.4251 37.7975 23.4278C37.7948 23.4305 37.7927 23.4338 37.7912 23.4373C37.7897 23.4409 37.7889 23.4447 37.7889 23.4485V24.1332C37.7889 24.137 37.7897 24.1408 37.7912 24.1444C37.7927 24.1479 37.7948 24.1512 37.7975 24.1539C37.8003 24.1566 37.8035 24.1588 37.807 24.1602C37.8106 24.1617 37.8144 24.1625 37.8183 24.1625H38.7479C38.7557 24.1625 38.7632 24.1656 38.7687 24.1711C38.7742 24.1766 38.7773 24.184 38.7773 24.1918L38.7764 24.4173C38.7764 24.425 38.7734 24.4324 38.768 24.4379C38.7626 24.4434 38.7552 24.4465 38.7475 24.4466L37.8178 24.456C37.8101 24.4561 37.8028 24.4592 37.7974 24.4647C37.792 24.4702 37.7889 24.4776 37.7889 24.4853Z" fill="#C5974D"/>
<path d="M40.5 24.1412H41.4768C41.4851 24.1412 41.493 24.1379 41.4988 24.1321C41.5046 24.1263 41.5079 24.1184 41.5079 24.1102V23.1609C41.5079 23.1567 41.5087 23.1525 41.5104 23.1487C41.512 23.1448 41.5145 23.1413 41.5175 23.1384C41.5206 23.1355 41.5242 23.1332 41.5282 23.1318C41.5322 23.1303 41.5364 23.1297 41.5406 23.1299L41.7858 23.1418C41.7937 23.1423 41.8011 23.1457 41.8066 23.1515C41.812 23.1572 41.8151 23.1649 41.8151 23.1728L41.8163 25.4161C41.8163 25.4244 41.8131 25.4323 41.8073 25.4381C41.8014 25.4439 41.7936 25.4471 41.7853 25.4471H41.5389C41.5307 25.4471 41.5228 25.4439 41.517 25.4381C41.5111 25.4323 41.5079 25.4244 41.5079 25.4161V24.4588C41.5079 24.4548 41.5071 24.4507 41.5055 24.447C41.5039 24.4432 41.5017 24.4398 41.4988 24.4369C41.4959 24.434 41.4925 24.4318 41.4887 24.4302C41.485 24.4286 41.4809 24.4278 41.4768 24.4278H40.4979C40.4938 24.4278 40.4898 24.4286 40.486 24.4302C40.4822 24.4318 40.4788 24.434 40.4759 24.4369C40.4731 24.4398 40.4708 24.4432 40.4692 24.447C40.4677 24.4507 40.4669 24.4548 40.4669 24.4588V25.4161C40.4669 25.4244 40.4636 25.4323 40.4578 25.4381C40.452 25.4439 40.4441 25.4471 40.4358 25.4471H40.1775C40.1734 25.4471 40.1694 25.4463 40.1656 25.4448C40.1619 25.4432 40.1584 25.4409 40.1556 25.4381C40.1527 25.4352 40.1504 25.4318 40.1488 25.428C40.1473 25.4242 40.1465 25.4202 40.1465 25.4161L40.1524 23.1609C40.1524 23.1567 40.1533 23.1525 40.1549 23.1487C40.1566 23.1448 40.159 23.1413 40.1621 23.1384C40.1652 23.1355 40.1688 23.1332 40.1728 23.1318C40.1767 23.1303 40.1809 23.1297 40.1851 23.1299L40.4333 23.1435C40.4412 23.144 40.4487 23.1474 40.4541 23.1532C40.4596 23.1589 40.4626 23.1666 40.4626 23.1745L40.469 24.1102C40.469 24.1184 40.4723 24.1263 40.4781 24.1321C40.4839 24.1379 40.4918 24.1412 40.5 24.1412Z" fill="#C5974D"/>
<path d="M42.4464 25.4357C42.3763 25.4671 42.2395 25.4501 42.1736 25.4459C42.1701 25.4456 42.1667 25.4446 42.1636 25.4428C42.1606 25.441 42.158 25.4385 42.1561 25.4356C42.1541 25.4326 42.1529 25.4292 42.1525 25.4257C42.1521 25.4222 42.1525 25.4187 42.1537 25.4153L42.9614 23.1571C42.964 23.1502 42.9685 23.1442 42.9745 23.1399C42.9805 23.1356 42.9876 23.1332 42.995 23.1329C43.1411 23.1291 43.2393 23.0849 43.2996 23.2552C43.55 23.9588 43.8037 24.676 44.0606 25.4068C44.0621 25.4108 44.0626 25.4151 44.0621 25.4194C44.0616 25.4236 44.0601 25.4277 44.0578 25.4312C44.0554 25.4348 44.0523 25.4377 44.0485 25.4398C44.0448 25.4419 44.0407 25.4431 44.0364 25.4433L43.7959 25.4574C43.7873 25.4578 43.7788 25.4555 43.7716 25.4507C43.7644 25.4458 43.7589 25.4388 43.756 25.4306L43.5869 24.9545C43.5829 24.9432 43.5755 24.9334 43.5657 24.9265C43.5559 24.9196 43.5441 24.9159 43.5321 24.9159H42.6636C42.6502 24.9159 42.6413 24.9221 42.6368 24.9345L42.4651 25.4153C42.4619 25.4243 42.4551 25.4316 42.4464 25.4357ZM42.7532 24.6113C42.7525 24.6133 42.7523 24.6153 42.7526 24.6173C42.7529 24.6193 42.7536 24.6212 42.7548 24.6229C42.756 24.6246 42.7575 24.6259 42.7593 24.6269C42.7611 24.6278 42.7631 24.6283 42.7651 24.6283L43.4539 24.6296C43.4559 24.6296 43.4579 24.6291 43.4597 24.6281C43.4615 24.6272 43.463 24.6258 43.4642 24.6242C43.4654 24.6225 43.4661 24.6206 43.4664 24.6186C43.4667 24.6166 43.4664 24.6145 43.4658 24.6126L43.1233 23.6205C43.1225 23.6179 43.1208 23.6157 43.1187 23.6141C43.1165 23.6126 43.1139 23.6117 43.1112 23.6117C43.1085 23.6117 43.1059 23.6126 43.1037 23.6141C43.1015 23.6157 43.0999 23.6179 43.0991 23.6205L42.7532 24.6113Z" fill="#C5974D"/>
<path d="M44.2526 25.2882C44.2447 25.2821 44.2382 25.2744 44.2337 25.2655C44.2292 25.2566 44.2268 25.2468 44.2266 25.2369C44.2264 25.2269 44.2284 25.217 44.2326 25.208C44.2367 25.1989 44.2428 25.1909 44.2505 25.1845L44.4064 25.055C44.4189 25.0451 44.4312 25.0451 44.4434 25.055C44.782 25.3277 45.2214 25.2181 45.2244 24.7267C45.2278 24.2049 45.2272 23.6842 45.2227 23.1646C45.2226 23.1598 45.2235 23.155 45.2254 23.1506C45.2273 23.1462 45.2301 23.1421 45.2336 23.1388C45.2371 23.1355 45.2412 23.1329 45.2458 23.1312C45.2503 23.1295 45.2552 23.1287 45.2601 23.1289L45.4984 23.1408C45.5143 23.1414 45.5225 23.1496 45.5231 23.1655C45.5364 23.6295 45.5385 24.0935 45.5294 24.5572C45.5241 24.8364 45.4952 25.0287 45.4428 25.134C45.2218 25.5787 44.6265 25.5766 44.2526 25.2882Z" fill="#C5974D"/>
<path d="M46.5603 25.4782C46.3373 25.5113 46.0313 25.448 45.8818 25.245C45.8765 25.2381 45.8742 25.2295 45.8752 25.2208C45.8763 25.2122 45.8806 25.2043 45.8873 25.1987L46.0598 25.0543C46.066 25.049 46.074 25.0461 46.0822 25.0462C46.0904 25.0462 46.0983 25.0493 46.1044 25.0547C46.2214 25.1564 46.3358 25.2069 46.4477 25.2063C46.8365 25.2055 46.8697 24.9082 46.8709 24.5773C46.8724 24.1076 46.8725 23.6399 46.8714 23.1741C46.8714 23.1692 46.8723 23.1643 46.8742 23.1597C46.8762 23.1551 46.8789 23.151 46.8825 23.1475C46.886 23.144 46.8902 23.1413 46.8947 23.1394C46.8993 23.1376 46.9042 23.1367 46.9092 23.1367L47.1518 23.1376C47.1716 23.1379 47.1815 23.1478 47.1815 23.1673C47.1832 23.7041 47.1793 24.2404 47.1696 24.7761C47.1623 25.1844 46.9592 25.4184 46.5603 25.4782Z" fill="#C5974D"/>
<path d="M49.7083 24.9159H48.8139C48.8087 24.9158 48.8037 24.9174 48.7994 24.9204C48.7951 24.9233 48.7919 24.9276 48.7901 24.9324L48.6155 25.4302C48.6137 25.4351 48.6105 25.4393 48.6062 25.4423C48.602 25.4452 48.5969 25.4468 48.5917 25.4468H48.33C48.3259 25.4468 48.3219 25.4459 48.3183 25.444C48.3147 25.4422 48.3116 25.4395 48.3093 25.4362C48.307 25.4329 48.3055 25.4291 48.3049 25.4251C48.3044 25.4211 48.3048 25.417 48.3062 25.4132L49.1182 23.1504C49.1199 23.1455 49.1232 23.1413 49.1274 23.1383C49.1317 23.1353 49.1368 23.1337 49.142 23.1338H49.3926C49.3978 23.1337 49.4029 23.1353 49.4072 23.1383C49.4114 23.1413 49.4147 23.1455 49.4164 23.1504L50.2182 25.4132C50.2196 25.417 50.22 25.421 50.2195 25.425C50.219 25.429 50.2175 25.4327 50.2152 25.436C50.2129 25.4393 50.2099 25.442 50.2063 25.4439C50.2028 25.4457 50.1989 25.4467 50.1949 25.4468H49.9344C49.9292 25.4468 49.9241 25.4452 49.9199 25.4423C49.9156 25.4393 49.9124 25.4351 49.9106 25.4302L49.7321 24.9324C49.7304 24.9276 49.7271 24.9233 49.7229 24.9204C49.7186 24.9174 49.7135 24.9158 49.7083 24.9159ZM48.9061 24.6114C48.9055 24.6133 48.9052 24.6153 48.9055 24.6173C48.9058 24.6193 48.9065 24.6213 48.9077 24.6229C48.9089 24.6246 48.9104 24.6259 48.9122 24.6269C48.914 24.6278 48.916 24.6283 48.918 24.6283L49.6068 24.6296C49.6088 24.6296 49.6108 24.6291 49.6126 24.6282C49.6144 24.6272 49.616 24.6258 49.6171 24.6242C49.6183 24.6225 49.619 24.6206 49.6193 24.6186C49.6196 24.6166 49.6194 24.6145 49.6187 24.6126L49.2762 23.6218C49.2754 23.6192 49.2738 23.617 49.2716 23.6154C49.2694 23.6139 49.2668 23.613 49.2641 23.613C49.2614 23.613 49.2588 23.6139 49.2566 23.6154C49.2545 23.617 49.2528 23.6192 49.252 23.6218L48.9061 24.6114Z" fill="#C5974D"/>
<path d="M50.8318 25.452L50.5718 25.4461C50.5682 25.446 50.5649 25.4445 50.5624 25.442C50.56 25.4394 50.5586 25.436 50.5586 25.4325L50.5696 23.1484C50.5696 23.1448 50.5711 23.1413 50.5736 23.1388C50.5762 23.1362 50.5796 23.1348 50.5832 23.1348L50.8488 23.1327C50.8511 23.1327 50.8534 23.1334 50.8554 23.1346C50.8574 23.1358 50.8591 23.1375 50.8603 23.1395L51.903 24.8638C51.9045 24.8663 51.9068 24.8681 51.9095 24.8692C51.9122 24.8702 51.9152 24.8704 51.918 24.8696C51.9208 24.8689 51.9233 24.8672 51.9251 24.865C51.9269 24.8627 51.9279 24.8599 51.928 24.857L51.9323 23.1454C51.9323 23.1436 51.9327 23.1419 51.9333 23.1402C51.934 23.1386 51.935 23.1371 51.9363 23.1358C51.9375 23.1346 51.939 23.1336 51.9407 23.1329C51.9423 23.1322 51.9441 23.1318 51.9459 23.1318L52.2127 23.1348C52.2163 23.1348 52.2198 23.1362 52.2224 23.1388C52.2249 23.1413 52.2263 23.1448 52.2263 23.1484L52.2268 25.4329C52.2268 25.4347 52.2264 25.4365 52.2257 25.4381C52.225 25.4398 52.224 25.4413 52.2228 25.4425C52.2215 25.4438 52.22 25.4448 52.2184 25.4455C52.2167 25.4462 52.2149 25.4465 52.2132 25.4465H51.931C51.9287 25.4465 51.9265 25.4459 51.9245 25.4448C51.9225 25.4437 51.9208 25.4421 51.9196 25.4401L50.8709 23.7201C50.8693 23.7176 50.867 23.7157 50.8642 23.7146C50.8615 23.7136 50.8585 23.7135 50.8557 23.7143C50.8528 23.7151 50.8504 23.7168 50.8486 23.7192C50.8468 23.7215 50.8458 23.7243 50.8458 23.7273V25.4384C50.8458 25.4403 50.8455 25.4421 50.8448 25.4437C50.844 25.4454 50.843 25.4469 50.8417 25.4482C50.8404 25.4495 50.8388 25.4505 50.8371 25.4511C50.8354 25.4518 50.8336 25.4521 50.8318 25.452Z" fill="#C5974D"/>
<path d="M52.7699 23.1851C52.7699 23.1705 52.7757 23.1564 52.7861 23.1461C52.7964 23.1357 52.8105 23.1299 52.8251 23.1299L53.6371 23.1312C53.738 23.1313 53.838 23.1518 53.9312 23.1914C54.0244 23.2311 54.109 23.2891 54.1802 23.3622C54.2515 23.4353 54.308 23.522 54.3465 23.6174C54.3849 23.7128 54.4046 23.815 54.4045 23.9181L54.4028 24.6733C54.4024 24.8817 54.3211 25.0814 54.1767 25.2285C54.0323 25.3756 53.8367 25.4581 53.6328 25.4577L52.8209 25.4564C52.8136 25.4564 52.8064 25.455 52.7997 25.4522C52.793 25.4495 52.7869 25.4454 52.7818 25.4403C52.7767 25.4351 52.7726 25.4291 52.7698 25.4224C52.7671 25.4157 52.7656 25.4085 52.7656 25.4012L52.7699 23.1851ZM53.0771 23.4641L53.0745 25.123C53.0745 25.134 53.0789 25.1445 53.0866 25.1523C53.0943 25.1601 53.1048 25.1646 53.1157 25.1647L53.5814 25.1655C53.6485 25.1657 53.715 25.1517 53.7771 25.1244C53.8391 25.0971 53.8955 25.057 53.9431 25.0064C53.9906 24.9558 54.0284 24.8957 54.0542 24.8295C54.08 24.7633 54.0933 24.6923 54.0934 24.6206L54.0943 23.97C54.0945 23.8253 54.041 23.6864 53.9455 23.5839C53.8499 23.4814 53.7202 23.4237 53.5848 23.4234L53.1191 23.4225C53.1136 23.4225 53.1082 23.4235 53.1031 23.4256C53.098 23.4276 53.0933 23.4307 53.0894 23.4345C53.0855 23.4384 53.0824 23.443 53.0803 23.4481C53.0782 23.4532 53.0771 23.4586 53.0771 23.4641Z" fill="#C5974D"/>
<path d="M56.2177 25.4613C55.7634 25.3602 55.6615 24.9958 55.6589 24.5804C55.6555 24.1096 55.6554 23.6373 55.6585 23.1636C55.6586 23.1557 55.6618 23.1482 55.6673 23.1427C55.6729 23.1371 55.6804 23.134 55.6882 23.1339L55.9317 23.1317C55.9484 23.1317 55.9569 23.1401 55.9572 23.1568C55.9654 23.6112 55.9684 24.0652 55.9661 24.5188C55.9653 24.7168 55.9847 24.8586 56.0243 24.9444C56.1735 25.2676 56.7267 25.3007 56.9132 24.9788C56.9566 24.904 56.9805 24.7871 56.985 24.628C56.9995 24.1382 57.0017 23.648 56.9918 23.1576C56.9915 23.1392 57.0006 23.1303 57.019 23.1309L57.2599 23.1368C57.2809 23.1374 57.2914 23.1482 57.2914 23.1691C57.2951 23.9792 57.2951 24.5013 57.2914 24.7354C57.2816 25.3445 56.7509 25.5793 56.2177 25.4613Z" fill="#C5974D"/>
<path d="M58.1261 23.8682C58.1091 24.3808 58.1622 24.9249 58.1074 25.4311C58.106 25.445 58.0982 25.4518 58.084 25.4515L57.8444 25.4485C57.8296 25.4482 57.8223 25.4407 57.8223 25.426L57.8248 23.161C57.8248 23.157 57.8256 23.1529 57.8272 23.1492C57.8288 23.1455 57.8312 23.1421 57.8341 23.1393C57.837 23.1364 57.8405 23.1342 57.8443 23.1328C57.8481 23.1314 57.8522 23.1307 57.8563 23.1309L58.1035 23.1407C58.1205 23.1415 58.1326 23.1497 58.1397 23.1653L58.8204 24.6942C58.8218 24.6973 58.8241 24.6999 58.8269 24.7017C58.8298 24.7035 58.8331 24.7045 58.8365 24.7045C58.8399 24.7045 58.8432 24.7035 58.8461 24.7017C58.8489 24.6999 58.8512 24.6973 58.8527 24.6942L59.5253 23.1517C59.528 23.1453 59.5326 23.1399 59.5385 23.1362C59.5443 23.1325 59.5511 23.1306 59.558 23.1309L59.7964 23.1368C59.8056 23.1371 59.8143 23.1409 59.8207 23.1475C59.8272 23.154 59.8308 23.1629 59.8308 23.1721V25.426C59.8308 25.4402 59.8237 25.4473 59.8095 25.4473H59.5648C59.5503 25.4473 59.5431 25.44 59.5431 25.4256L59.5457 23.844C59.5457 23.8419 59.545 23.84 59.5437 23.8384C59.5425 23.8368 59.5407 23.8357 59.5387 23.8352C59.5367 23.8348 59.5346 23.835 59.5328 23.8359C59.531 23.8368 59.5295 23.8383 59.5287 23.8402L58.9797 25.0434C58.9664 25.0725 58.9449 25.0973 58.9179 25.1146C58.8909 25.1319 58.8594 25.1411 58.8273 25.141C58.7952 25.1409 58.7638 25.1316 58.7369 25.1141C58.71 25.0966 58.6886 25.0718 58.6755 25.0425L58.1456 23.8644C58.1334 23.8377 58.1269 23.839 58.1261 23.8682Z" fill="#C5974D"/>
<path d="M61.5624 24.4211C61.558 24.4227 61.554 24.4252 61.5506 24.4284C61.5473 24.4316 61.5446 24.4355 61.5429 24.4398C61.5412 24.4441 61.5404 24.4487 61.5406 24.4534C61.5408 24.458 61.542 24.4625 61.5442 24.4666L62.026 25.4145C62.037 25.436 62.0305 25.4468 62.0064 25.4468H61.7179C61.7021 25.4468 61.6906 25.4397 61.6835 25.4256L61.2306 24.5099C61.2247 24.4979 61.2156 24.4878 61.2044 24.4808C61.1931 24.4737 61.1801 24.47 61.1668 24.47H60.7237C60.7024 24.47 60.6918 24.4806 60.6918 24.5018V25.4149C60.6918 25.4362 60.6812 25.4468 60.6599 25.4468H60.4386C60.3972 25.4468 60.3767 25.4261 60.377 25.3848L60.3863 23.1623C60.3864 23.1542 60.3896 23.1466 60.3953 23.1409C60.4009 23.1353 60.4085 23.1321 60.4165 23.1321C60.9281 23.1317 61.9495 22.9631 61.9805 23.7696C61.992 24.0686 61.8492 24.3213 61.5624 24.4211ZM60.6901 23.4481L60.691 24.1591C60.691 24.1626 60.6917 24.1661 60.693 24.1694C60.6944 24.1727 60.6964 24.1757 60.6989 24.1781C60.7015 24.1806 60.7045 24.1826 60.7078 24.1839C60.7111 24.1852 60.7146 24.1859 60.7182 24.1858L61.2858 24.185C61.3878 24.1847 61.4855 24.1477 61.5575 24.082C61.6294 24.0163 61.6697 23.9273 61.6695 23.8346V23.7692C61.6694 23.7233 61.6593 23.6778 61.6399 23.6355C61.6205 23.5931 61.5921 23.5546 61.5563 23.5223C61.5205 23.4899 61.478 23.4642 61.4313 23.4468C61.3846 23.4293 61.3346 23.4204 61.2841 23.4205L60.7165 23.4213C60.7094 23.4215 60.7027 23.4243 60.6978 23.4293C60.6929 23.4343 60.6901 23.4411 60.6901 23.4481Z" fill="#C5974D"/>
<path d="M63.6611 24.9162H62.768C62.7627 24.9162 62.7576 24.9178 62.7532 24.9209C62.7489 24.9239 62.7456 24.9282 62.7438 24.9332L62.5653 25.4301C62.5635 25.435 62.5602 25.4393 62.5559 25.4424C62.5515 25.4454 62.5464 25.447 62.5411 25.4471H62.284C62.2798 25.4471 62.2757 25.4462 62.272 25.4442C62.2682 25.4423 62.265 25.4396 62.2626 25.4361C62.2601 25.4327 62.2586 25.4287 62.258 25.4246C62.2575 25.4204 62.258 25.4162 62.2594 25.4122L63.0705 23.1498C63.0724 23.1447 63.0758 23.1403 63.0803 23.1373C63.0848 23.1342 63.0902 23.1327 63.0956 23.1328L63.3454 23.1379C63.3507 23.1381 63.3558 23.1398 63.3601 23.1429C63.3643 23.146 63.3675 23.1504 63.3692 23.1553L64.1685 25.4127C64.1698 25.4166 64.1702 25.4207 64.1697 25.4248C64.1691 25.4288 64.1676 25.4327 64.1652 25.4361C64.1628 25.4394 64.1597 25.4422 64.1561 25.4441C64.1524 25.446 64.1484 25.447 64.1443 25.4471H63.8855C63.8802 25.447 63.875 25.4453 63.8706 25.4422C63.8663 25.4391 63.863 25.4347 63.8613 25.4297L63.6854 24.9336C63.6836 24.9286 63.6803 24.9242 63.676 24.9211C63.6717 24.9179 63.6665 24.9162 63.6611 24.9162ZM62.8568 24.6112C62.8561 24.6132 62.8559 24.6152 62.8562 24.6172C62.8565 24.6192 62.8572 24.6211 62.8584 24.6228C62.8595 24.6245 62.8611 24.6258 62.8629 24.6268C62.8647 24.6277 62.8667 24.6282 62.8687 24.6282L63.557 24.6304C63.559 24.6303 63.561 24.6298 63.5627 24.6289C63.5645 24.628 63.566 24.6267 63.5671 24.625C63.5683 24.6234 63.5691 24.6216 63.5694 24.6196C63.5697 24.6177 63.5695 24.6157 63.5689 24.6138L63.2286 23.6187C63.2278 23.6161 63.2261 23.6139 63.224 23.6123C63.2218 23.6108 63.2192 23.6099 63.2165 23.6099C63.2138 23.6099 63.2112 23.6108 63.209 23.6123C63.2068 23.6139 63.2052 23.6161 63.2044 23.6187L62.8568 24.6112Z" fill="#C5974D"/>
<path d="M64.8411 24.1405H65.8362C65.8395 24.1405 65.8428 24.1399 65.8458 24.1386C65.8489 24.1374 65.8516 24.1355 65.8539 24.1332C65.8563 24.1309 65.8581 24.1281 65.8594 24.1251C65.8606 24.122 65.8613 24.1188 65.8613 24.1155L65.8664 23.1569C65.8664 23.1536 65.867 23.1503 65.8683 23.1473C65.8696 23.1443 65.8714 23.1415 65.8737 23.1392C65.8761 23.1368 65.8788 23.135 65.8819 23.1337C65.8849 23.1325 65.8882 23.1318 65.8915 23.1318H66.137C66.1403 23.1318 66.1436 23.1325 66.1466 23.1337C66.1497 23.135 66.1524 23.1368 66.1548 23.1392C66.1571 23.1415 66.1589 23.1443 66.1602 23.1473C66.1615 23.1503 66.1621 23.1536 66.1621 23.1569V25.4248C66.1621 25.4315 66.1595 25.4379 66.1548 25.4426C66.1501 25.4473 66.1437 25.4499 66.137 25.4499L65.8898 25.452C65.8831 25.452 65.8767 25.4494 65.872 25.4447C65.8673 25.44 65.8647 25.4336 65.8647 25.427V24.4523C65.8647 24.4456 65.862 24.4392 65.8573 24.4345C65.8526 24.4298 65.8463 24.4272 65.8396 24.4272H64.847C64.8405 24.4272 64.8342 24.4298 64.8295 24.4344C64.8248 24.439 64.8221 24.4453 64.822 24.4518L64.8101 25.4219C64.81 25.4284 64.8073 25.4347 64.8026 25.4393C64.7979 25.4439 64.7916 25.4465 64.785 25.4465H64.5407C64.534 25.4465 64.5277 25.4439 64.523 25.4392C64.5183 25.4345 64.5156 25.4281 64.5156 25.4214V23.1573C64.5156 23.154 64.5163 23.1508 64.5175 23.1477C64.5188 23.1447 64.5206 23.1419 64.523 23.1396C64.5253 23.1373 64.5281 23.1354 64.5311 23.1342C64.5341 23.1329 64.5374 23.1323 64.5407 23.1323L64.7863 23.1318C64.7896 23.1318 64.7928 23.1325 64.7959 23.1337C64.7989 23.135 64.8017 23.1368 64.804 23.1392C64.8063 23.1415 64.8082 23.1443 64.8094 23.1473C64.8107 23.1503 64.8114 23.1536 64.8114 23.1569L64.816 24.1155C64.816 24.1188 64.8167 24.122 64.8179 24.1251C64.8192 24.1281 64.821 24.1309 64.8234 24.1332C64.8257 24.1355 64.8285 24.1374 64.8315 24.1386C64.8345 24.1399 64.8378 24.1405 64.8411 24.1405Z" fill="#C5974D"/>
<path d="M85.6703 33.2329C82.0399 31.1777 78.6717 28.5267 75.8848 25.4161C75.8837 25.4151 75.883 25.4137 75.8828 25.4123C75.8827 25.4108 75.8832 25.4093 75.8841 25.4082C75.8851 25.4071 75.8865 25.4064 75.8879 25.4063C75.8894 25.4061 75.8909 25.4066 75.892 25.4076C79.5874 28.0867 83.4982 30.5117 87.6669 32.389C87.6697 32.3903 87.6722 32.3925 87.6739 32.3952C87.6755 32.3979 87.6764 32.401 87.6764 32.4042C87.6763 32.4074 87.6754 32.4105 87.6736 32.4131C87.6718 32.4158 87.6694 32.4178 87.6664 32.4191L85.717 33.2354C85.7011 33.2422 85.6855 33.2414 85.6703 33.2329Z" fill="#EEC571"/>
<path d="M92.0218 32.1935C92.0195 32.1879 92.0182 32.1824 92.0179 32.177C92.0177 32.1682 92.0134 32.162 92.0052 32.1583C91.9381 32.1298 91.8705 32.1086 91.7945 32.123C91.0922 32.2581 90.3845 32.3472 89.6712 32.3902C89.443 32.4038 89.1074 32.4492 88.821 32.4446C88.626 32.4416 88.4832 32.5176 88.2716 32.4649C88.2818 32.4511 88.27 32.4386 88.2363 32.4276C92.38 30.5678 96.3039 28.1448 99.9645 25.4657C99.9666 25.4643 99.9692 25.4636 99.9717 25.4639C99.9743 25.4643 99.9766 25.4655 99.9784 25.4674C99.9801 25.4693 99.981 25.4718 99.9811 25.4744C99.9811 25.477 99.9802 25.4795 99.9785 25.4814C97.6268 28.0671 94.9746 30.3044 92.0218 32.1935Z" fill="#EEC571"/>
<path d="M94.1652 27.0718C92.2008 28.2491 90.1704 29.3079 88.0743 30.2483C88.062 30.2537 88.0486 30.2566 88.0352 30.2566C88.0217 30.2566 88.0084 30.2537 87.9961 30.2483C85.7574 29.2454 83.5849 28.1011 81.4785 26.8153C81.4828 26.8057 81.4928 26.7961 81.5087 26.7864C81.5703 26.7478 81.6718 26.8191 81.7071 26.868C81.7139 26.877 81.7116 26.8813 81.7003 26.8807C81.6966 26.8804 81.693 26.8803 81.6893 26.8803C81.6777 26.88 81.6774 26.8817 81.6884 26.8854C81.7475 26.9058 81.7819 26.9156 81.8495 26.9071C81.9497 26.8939 82.1605 27.0005 82.2671 27.0328C82.3517 27.0587 82.4107 27.1279 82.4923 27.1419C82.7061 27.1784 82.9512 27.2876 83.0936 27.3326C84.9164 27.9115 86.865 28.1115 88.7571 28.0534C89.2835 28.0372 89.8036 27.9718 90.3386 27.9293C91.0031 27.8762 91.7212 27.7064 92.3543 27.5467C92.7687 27.4422 93.1729 27.306 93.567 27.1381C93.7552 27.0578 93.9426 27.0192 94.1355 26.9572C94.1386 26.9561 94.1419 26.9558 94.1451 26.9562C94.1483 26.9567 94.1514 26.9579 94.1541 26.9597C94.1568 26.9616 94.159 26.9641 94.1606 26.9669C94.1621 26.9698 94.163 26.973 94.1631 26.9763L94.1652 27.0718Z" fill="#A87837"/>
<path d="M92.0216 32.1933C89.8388 33.5912 87.543 34.7773 85.1344 35.7515C85.0222 35.5553 84.7745 35.5893 84.5965 35.5604C84.3279 35.5167 84.1661 35.5005 83.9515 35.464C83.8164 35.4407 83.6659 35.374 83.5185 35.357C83.3545 35.3377 83.2025 35.31 83.0626 35.2737C82.9266 35.2385 82.8042 35.2359 82.6678 35.2181C82.6544 35.2165 82.6421 35.21 82.633 35.1998C82.5476 35.1073 82.3245 35.0656 82.2026 35.038C82.1895 35.0352 82.1782 35.0382 82.1686 35.0469C82.1306 35.0829 82.0822 35.0847 82.0233 35.0525C81.9536 35.0142 81.8668 34.9871 81.7628 34.9709C81.7567 34.97 81.751 34.9677 81.746 34.9641C81.7409 34.9606 81.7368 34.9559 81.7339 34.9505C81.6982 34.8864 81.5491 34.8941 81.4501 34.8363C81.4419 34.8315 81.4393 34.8245 81.4424 34.8155C81.447 34.8022 81.4427 34.7899 81.4297 34.7785C83.7703 34.2162 86.0392 33.4325 88.2362 32.4273C88.2699 32.4384 88.2816 32.4508 88.2714 32.4647C88.483 32.5174 88.6258 32.4414 88.8208 32.4443C89.1072 32.449 89.4429 32.4036 89.6711 32.39C90.3843 32.3469 91.0921 32.2579 91.7943 32.1228C91.8704 32.1084 91.9379 32.1296 92.005 32.1581C92.0133 32.1618 92.0175 32.168 92.0178 32.1768C92.0181 32.1821 92.0194 32.1877 92.0216 32.1933Z" fill="#C5974D"/>
<path d="M94.6518 34.7621C94.5426 34.836 94.4742 34.904 94.3412 34.9375C93.9706 35.0309 93.584 35.1023 93.2245 35.2289C93.0614 35.2866 92.8476 35.2862 92.7083 35.3134C92.4729 35.3597 92.2302 35.3728 92.0029 35.42C91.735 35.4755 91.4649 35.5172 91.1926 35.5453C91.0605 35.5584 90.9016 35.5457 90.7537 35.5631C90.7396 35.5648 90.7277 35.5709 90.718 35.5814C90.6951 35.6063 90.6825 35.6364 90.6802 35.6718C89.9015 35.3553 89.1314 35.0144 88.37 34.6491C88.3508 34.6398 88.3506 34.6303 88.3696 34.6207C89.0545 34.2741 89.7269 33.9046 90.3866 33.5122C90.3985 33.5051 90.411 33.504 90.424 33.5088C91.8066 34.0199 93.2159 34.4376 94.6518 34.7621Z" fill="#C5974D"/>
<path d="M94.6512 34.7627C95.2699 34.8963 95.8911 35.013 96.5149 35.1127C96.5646 35.1207 96.6007 35.1326 96.6402 35.1683C97.8107 36.236 98.9801 37.3033 100.149 38.3702C100.15 38.3714 100.151 38.3729 100.151 38.3746C100.151 38.3762 100.151 38.3779 100.15 38.3794C100.149 38.3809 100.148 38.3821 100.147 38.3829C100.145 38.3837 100.143 38.384 100.142 38.3838C96.891 37.8121 93.737 36.9083 90.6797 35.6724C90.682 35.637 90.6946 35.6069 90.7175 35.582C90.7271 35.5715 90.739 35.5654 90.7532 35.5637C90.9011 35.5463 91.06 35.559 91.1921 35.5459C91.4643 35.5178 91.7344 35.4761 92.0024 35.4206C92.2297 35.3734 92.4723 35.3603 92.7077 35.314C92.8471 35.2868 93.0608 35.2872 93.224 35.2295C93.5835 35.1029 93.9701 35.0315 94.3406 34.9381C94.4736 34.9045 94.542 34.8366 94.6512 34.7627Z" fill="#A87837"/>
<path d="M81.4287 34.7783C81.4417 34.7896 81.4459 34.802 81.4414 34.8153C81.4383 34.8243 81.4408 34.8313 81.4491 34.8361C81.5481 34.8938 81.6972 34.8862 81.7329 34.9503C81.7358 34.9557 81.7399 34.9604 81.7449 34.9639C81.7499 34.9675 81.7557 34.9698 81.7618 34.9707C81.8657 34.9869 81.9526 35.014 82.0222 35.0523C82.0812 35.0845 82.1296 35.0827 82.1676 35.0467C82.1772 35.038 82.1885 35.035 82.2016 35.0378C82.3235 35.0654 82.5466 35.107 82.632 35.1996C82.641 35.2098 82.6534 35.2162 82.6668 35.2179C82.8032 35.2357 82.9256 35.2383 83.0616 35.2735C83.2015 35.3098 83.3535 35.3375 83.5175 35.3568C83.6649 35.3738 83.8153 35.4404 83.9504 35.4638C84.165 35.5003 84.3269 35.5165 84.5954 35.5602C84.7735 35.5891 85.0212 35.5551 85.1334 35.7513C82.1043 36.9809 78.9417 37.8706 75.7256 38.4474C75.723 38.4479 75.7202 38.4476 75.7178 38.4464C75.7154 38.4452 75.7134 38.4432 75.7122 38.4408C75.711 38.4384 75.7107 38.4357 75.7112 38.433C75.7117 38.4304 75.713 38.428 75.715 38.4262L79.243 35.2077C79.2543 35.1972 79.2676 35.1906 79.2829 35.1877L81.4287 34.7783Z" fill="#A87837"/>
</g>
<defs>
<clipPath id="clip0_5843_72162">
<rect width="122" height="40" fill="white"/>
</clipPath>
</defs>
</svg>
