<svg width="51" height="41" viewBox="0 0 51 41" fill="none" xmlns="http://www.w3.org/2000/svg">
<path d="M47.1746 2.17215C46.967 1.9646 46.6855 1.848 46.392 1.848H3.12285C2.82932 1.848 2.54779 1.9646 2.34024 2.17215C2.13268 2.37971 2.01609 2.66121 2.01609 2.95474V31.2904C2.01609 31.5839 2.13268 31.8655 2.34024 32.073C2.54779 32.2806 2.82932 32.3972 3.12285 32.3972H34.7469V33.9133H3.12285C2.42846 33.9093 1.76363 33.6317 1.27262 33.1406C0.781602 32.6496 0.503979 31.9848 0.5 31.2904V2.95474C0.5 2.25912 0.776346 1.592 1.26822 1.10012C1.7601 0.608242 2.42723 0.331909 3.12285 0.331909H46.392C47.0876 0.331909 47.7547 0.608242 48.2466 1.10012C48.7385 1.592 49.0148 2.25912 49.0148 2.95474V9.00193H47.4987V2.95474C47.4987 2.66121 47.3821 2.37971 47.1746 2.17215Z" fill="#012842"/>
<path d="M34.7503 26.6366H1.25586V28.1527H34.7503V26.6366Z" fill="#012842"/>
<path d="M30.1841 33.5645H28.668V39.6288H30.1841V33.5645Z" fill="#012842"/>
<path d="M20.8442 33.5645H19.3281V39.6288H20.8442V33.5645Z" fill="#012842"/>
<path d="M36.2478 40.3871H13.2639C13.0629 40.3871 12.87 40.3072 12.7279 40.165C12.5857 40.0229 12.5059 39.8301 12.5059 39.629C12.5059 39.428 12.5857 39.2352 12.7279 39.093C12.87 38.9508 13.0629 38.871 13.2639 38.871H36.2478C36.4488 38.871 36.6416 38.9508 36.7838 39.093C36.926 39.2352 37.0058 39.428 37.0058 39.629C37.0058 39.8301 36.926 40.0229 36.7838 40.165C36.6416 40.3072 36.4488 40.3871 36.2478 40.3871Z" fill="#012842"/>
<g clip-path="url(#clip0_2901_18)">
<path d="M19.0312 11.9217C18.9751 11.8186 18.8983 11.7283 18.8055 11.6564C18.7127 11.5845 18.6061 11.5326 18.4923 11.504L17.7916 11.3288C17.7655 10.9331 17.6838 10.543 17.549 10.1701L18.1285 9.73889C18.3129 9.59577 18.4377 9.38933 18.4788 9.1595C18.5063 8.92712 18.4488 8.69264 18.3171 8.49926L17.1448 6.9632C17.0787 6.86701 16.9928 6.78602 16.8929 6.72561C16.793 6.6652 16.6814 6.62677 16.5655 6.61288C16.4502 6.59447 16.3324 6.59929 16.219 6.62706C16.1056 6.65482 15.9989 6.70497 15.9052 6.77457L15.3258 7.21921C14.9539 6.9547 14.5454 6.74589 14.1131 6.5994V5.88527C14.1132 5.65173 14.0213 5.42755 13.8575 5.26116C13.6936 5.09476 13.4708 4.99951 13.2373 4.99597H11.297C11.0612 4.99597 10.835 5.08967 10.6682 5.25644C10.5014 5.42322 10.4077 5.64941 10.4077 5.88527V6.5994C10.0329 6.7307 9.67543 6.90716 9.34326 7.12489L8.77737 6.6533C8.68875 6.58348 8.58708 6.53203 8.47834 6.50196C8.36961 6.47188 8.25598 6.46378 8.14408 6.47813C8.02655 6.48258 7.91141 6.51261 7.80669 6.56613C7.70197 6.61966 7.61017 6.69539 7.53772 6.78804L6.32506 8.29715C6.25142 8.38921 6.19682 8.49498 6.16444 8.60833C6.13206 8.72167 6.12251 8.84033 6.1364 8.95739C6.14838 9.07269 6.18315 9.18447 6.23866 9.28624C6.29417 9.38801 6.36935 9.47775 6.45981 9.55025L7.0257 10.0084C6.88733 10.3779 6.79239 10.7622 6.74275 11.1537L6.04211 11.3019C5.81606 11.3566 5.61982 11.4964 5.49431 11.6922C5.3688 11.888 5.3237 12.1246 5.3684 12.3529L5.7861 14.2527C5.80995 14.3632 5.85561 14.4677 5.92039 14.5603C5.98518 14.6528 6.06779 14.7315 6.16337 14.7917C6.26144 14.8568 6.37182 14.9012 6.48768 14.9221C6.60355 14.9429 6.72245 14.9398 6.83708 14.913L7.53772 14.7648C7.73954 15.1086 7.98402 15.4255 8.26534 15.708L7.95542 16.3412C7.90633 16.4444 7.88087 16.5571 7.88087 16.6714C7.88087 16.7856 7.90633 16.8984 7.95542 17.0015C7.98542 17.1168 8.04096 17.2239 8.11793 17.3149C8.19489 17.4058 8.29133 17.4783 8.40009 17.527L10.1248 18.3893C10.2302 18.4387 10.3452 18.4642 10.4616 18.4642C10.5781 18.4642 10.6931 18.4387 10.7985 18.3893C10.9102 18.3551 11.0134 18.2979 11.1016 18.2213C11.1898 18.1447 11.261 18.0505 11.3105 17.9447L11.6339 17.2979C11.8627 17.3142 12.0923 17.3142 12.3211 17.2979C12.487 17.3113 12.6537 17.3113 12.8196 17.2979L13.1161 17.9582C13.1646 18.0676 13.2351 18.1659 13.3232 18.247C13.4113 18.3281 13.515 18.3903 13.6281 18.4297C13.7264 18.4438 13.8262 18.4438 13.9245 18.4297C14.0515 18.4273 14.1761 18.395 14.2883 18.3354L16.0534 17.527C16.2601 17.4265 16.423 17.254 16.5115 17.0419C16.5999 16.826 16.5999 16.5841 16.5115 16.3682L16.1343 15.8831C16.4146 15.6111 16.6632 15.3083 16.8753 14.9804L17.576 15.1555C17.6882 15.1916 17.807 15.2018 17.9236 15.1855C18.0403 15.1692 18.1518 15.1267 18.2497 15.0612C18.3503 15.0004 18.4377 14.9202 18.5071 14.8254C18.5765 14.7306 18.6264 14.623 18.6539 14.5088L19.139 12.6358C19.1696 12.5156 19.1758 12.3905 19.1573 12.2679C19.1388 12.1452 19.0959 12.0275 19.0312 11.9217ZM17.6838 14.0776L16.4038 13.7407L16.3364 13.862C16.2373 14.0724 16.1153 14.2713 15.9726 14.4549C15.8413 14.6677 15.6828 14.8625 15.501 15.0342C15.3497 15.1943 15.1826 15.3388 15.0024 15.4654L14.8946 15.5463L15.4336 16.8128L13.9245 17.4596L13.3721 16.2469H13.2373L12.5501 16.3412H12.2941H11.8091C11.5893 16.3383 11.3712 16.3019 11.1623 16.2335H11.0275L10.3942 17.4327L8.92557 16.6781L9.51843 15.4924L9.41066 15.3981C9.23577 15.255 9.07346 15.0972 8.92557 14.9265C8.75559 14.756 8.60636 14.566 8.48094 14.3605C8.35623 14.1726 8.24801 13.9743 8.15753 13.7677V13.6464L6.81011 13.8889L6.50023 12.2855L7.84765 12.0026V11.8409C7.8254 11.6168 7.8254 11.3912 7.84765 11.1672C7.88052 10.9236 7.93925 10.6842 8.02282 10.453C8.08239 10.2324 8.16835 10.0198 8.27883 9.81973V9.69847L7.24129 8.80917L8.30576 7.54259L9.32982 8.378L9.43759 8.29715C9.59928 8.17588 9.80141 8.04114 10.0035 7.91987C10.2128 7.78277 10.4394 7.67403 10.6772 7.59649C10.8869 7.51149 11.1032 7.44389 11.324 7.39438H11.4587V6.04696H13.1026V7.39438H13.2373C13.4618 7.45197 13.6823 7.52398 13.8975 7.60997C14.1729 7.69818 14.4322 7.83011 14.6656 8.00072C14.8666 8.11728 15.056 8.25263 15.2315 8.40494L15.3258 8.48579L16.4307 7.69081L17.3874 9.03823L16.3364 9.84668V9.98143C16.4448 10.1809 16.5263 10.3938 16.5789 10.6147C16.652 10.8466 16.6973 11.0863 16.7137 11.3288C16.7265 11.5038 16.7265 11.6794 16.7137 11.8543C16.7222 11.8898 16.7222 11.9267 16.7137 11.9621V12.1238L18.0611 12.5011L17.6838 14.0776Z" fill="#0066B3"/>
<path d="M12.2671 9.14636C11.7341 9.14636 11.2131 9.30441 10.7699 9.60052C10.3268 9.89664 9.98135 10.3175 9.77739 10.8099C9.57342 11.3023 9.52007 11.8442 9.62405 12.3669C9.72803 12.8897 9.9847 13.3699 10.3616 13.7467C10.7385 14.1236 11.2186 14.3803 11.7414 14.4843C12.2641 14.5882 12.806 14.5349 13.2984 14.3309C13.7908 14.1269 14.2117 13.7815 14.5078 13.3384C14.8039 12.8952 14.962 12.3742 14.962 11.8412C14.962 11.1265 14.678 10.441 14.1727 9.93566C13.6673 9.43028 12.9818 9.14636 12.2671 9.14636ZM12.2671 13.7006C11.8988 13.7033 11.538 13.5965 11.2304 13.3938C10.9229 13.1912 10.6824 12.9017 10.5396 12.5622C10.3968 12.2226 10.3581 11.8484 10.4283 11.4868C10.4985 11.1252 10.6745 10.7926 10.9341 10.5312C11.1936 10.2698 11.5248 10.0914 11.8859 10.0185C12.247 9.94569 12.6215 9.98172 12.9621 10.1221C13.3026 10.2624 13.5938 10.5007 13.7988 10.8068C14.0037 11.1128 14.1131 11.4729 14.1131 11.8412C14.1131 12.332 13.919 12.803 13.5732 13.1513C13.2274 13.4996 12.7579 13.6971 12.2671 13.7006Z" fill="#0066B3"/>
</g>
<g clip-path="url(#clip1_2901_18)">
<path d="M27.7185 19.5423C27.678 19.4678 27.6224 19.4025 27.5553 19.3505C27.4883 19.2985 27.4112 19.261 27.3289 19.2404L26.8223 19.1137C26.8034 18.8276 26.7443 18.5456 26.6469 18.2759L27.0658 17.9642C27.1992 17.8607 27.2894 17.7114 27.3191 17.5453C27.339 17.3773 27.2975 17.2077 27.2022 17.0679L26.3547 15.9573C26.3068 15.8878 26.2447 15.8292 26.1725 15.7856C26.1003 15.7419 26.0196 15.7141 25.9358 15.7041C25.8524 15.6907 25.7673 15.6942 25.6853 15.7143C25.6033 15.7344 25.5262 15.7706 25.4584 15.821L25.0395 16.1424C24.7706 15.9512 24.4753 15.8002 24.1628 15.6943V15.178C24.1628 15.0091 24.0964 14.8471 23.9779 14.7268C23.8594 14.6065 23.6984 14.5376 23.5295 14.535H22.1267C21.9562 14.535 21.7926 14.6028 21.6721 14.7234C21.5515 14.8439 21.4837 15.0075 21.4837 15.178V15.6943C21.2127 15.7892 20.9543 15.9168 20.7141 16.0742L20.305 15.7333C20.2409 15.6828 20.1674 15.6456 20.0888 15.6239C20.0102 15.6021 19.928 15.5963 19.8471 15.6066C19.7621 15.6099 19.6789 15.6316 19.6032 15.6703C19.5275 15.709 19.4611 15.7637 19.4087 15.8307L18.532 16.9218C18.4787 16.9883 18.4393 17.0648 18.4158 17.1468C18.3924 17.2287 18.3855 17.3145 18.3956 17.3991C18.4042 17.4825 18.4294 17.5633 18.4695 17.6369C18.5096 17.7105 18.564 17.7754 18.6294 17.8278L19.0385 18.159C18.9385 18.4262 18.8698 18.7041 18.834 18.9871L18.3274 19.0942C18.164 19.1338 18.0221 19.2348 17.9313 19.3764C17.8406 19.518 17.808 19.6891 17.8403 19.8541L18.1423 21.2277C18.1595 21.3075 18.1926 21.3831 18.2394 21.45C18.2862 21.5169 18.346 21.5738 18.4151 21.6174C18.486 21.6645 18.5658 21.6965 18.6495 21.7116C18.7333 21.7267 18.8193 21.7244 18.9022 21.705L19.4087 21.5979C19.5546 21.8465 19.7314 22.0756 19.9348 22.2798L19.7107 22.7377C19.6752 22.8122 19.6568 22.8938 19.6568 22.9764C19.6568 23.0589 19.6752 23.1405 19.7107 23.215C19.7324 23.2984 19.7726 23.3758 19.8282 23.4416C19.8839 23.5074 19.9536 23.5598 20.0322 23.595L21.2792 24.2184C21.3554 24.2541 21.4386 24.2726 21.5227 24.2726C21.6069 24.2726 21.69 24.2541 21.7663 24.2184C21.847 24.1937 21.9217 24.1523 21.9854 24.0969C22.0492 24.0416 22.1007 23.9734 22.1365 23.897L22.3703 23.4293C22.5357 23.4412 22.7017 23.4412 22.8671 23.4293C22.9871 23.439 23.1076 23.439 23.2275 23.4293L23.4419 23.9067C23.477 23.9858 23.5279 24.0569 23.5916 24.1155C23.6553 24.1742 23.7303 24.2192 23.8121 24.2477C23.8831 24.2578 23.9553 24.2578 24.0264 24.2477C24.1182 24.2459 24.2083 24.2225 24.2894 24.1795L25.5656 23.595C25.715 23.5223 25.8328 23.3976 25.8968 23.2443C25.9607 23.0882 25.9607 22.9132 25.8968 22.7572L25.624 22.4065C25.8267 22.2098 26.0064 21.9908 26.1598 21.7537L26.6664 21.8804C26.7475 21.9065 26.8334 21.9139 26.9178 21.9021C27.0021 21.8903 27.0827 21.8595 27.1535 21.8122C27.2262 21.7682 27.2894 21.7103 27.3396 21.6417C27.3898 21.5732 27.4258 21.4954 27.4458 21.4128L27.7965 20.0587C27.8186 19.9718 27.8231 19.8813 27.8097 19.7926C27.7963 19.704 27.7653 19.6189 27.7185 19.5423ZM26.7443 21.101L25.8189 20.8575L25.7702 20.9452C25.6986 21.0973 25.6104 21.2411 25.5071 21.3738C25.4122 21.5277 25.2976 21.6685 25.1662 21.7927C25.0568 21.9084 24.936 22.0129 24.8057 22.1045L24.7278 22.1629L25.1175 23.0786L24.0264 23.5463L23.627 22.6695H23.5295L23.0327 22.7377H22.8476H22.4969C22.338 22.7355 22.1803 22.7093 22.0293 22.6597H21.9319L21.474 23.5268L20.4121 22.9812L20.8408 22.1239L20.7629 22.0557C20.6364 21.9523 20.5191 21.8383 20.4121 21.7148C20.2892 21.5915 20.1813 21.4542 20.0907 21.3056C20.0005 21.1698 19.9223 21.0263 19.8568 20.877V20.7893L18.8827 20.9647L18.6586 19.8054L19.6328 19.6008V19.4839C19.6167 19.3219 19.6167 19.1588 19.6328 18.9968C19.6566 18.8207 19.699 18.6476 19.7594 18.4805C19.8025 18.321 19.8647 18.1672 19.9445 18.0226V17.9349L19.1944 17.292L19.964 16.3762L20.7044 16.9802L20.7823 16.9218C20.8992 16.8341 21.0454 16.7367 21.1915 16.649C21.3428 16.5499 21.5066 16.4713 21.6786 16.4152C21.8302 16.3538 21.9866 16.3049 22.1462 16.2691H22.2436V15.2949H23.4321V16.2691H23.5295C23.6918 16.3107 23.8513 16.3628 24.0069 16.425C24.2059 16.4887 24.3934 16.5841 24.5622 16.7075C24.7075 16.7917 24.8445 16.8896 24.9713 16.9997L25.0395 17.0582L25.8384 16.4834L26.53 17.4576L25.7702 18.0421V18.1395C25.8485 18.2837 25.9075 18.4377 25.9455 18.5974C25.9984 18.765 26.0311 18.9383 26.0429 19.1137C26.0522 19.2402 26.0522 19.3672 26.0429 19.4936C26.0491 19.5192 26.0491 19.546 26.0429 19.5716V19.6885L27.0171 19.9612L26.7443 21.101Z" fill="#0066B3"/>
<path d="M22.8292 17.535C22.4439 17.535 22.0672 17.6493 21.7468 17.8634C21.4264 18.0775 21.1766 18.3818 21.0292 18.7378C20.8817 19.0938 20.8431 19.4856 20.9183 19.8635C20.9935 20.2415 21.179 20.5886 21.4515 20.8611C21.724 21.1336 22.0712 21.3192 22.4491 21.3943C22.8271 21.4695 23.2188 21.4309 23.5748 21.2835C23.9309 21.136 24.2352 20.8863 24.4492 20.5659C24.6633 20.2455 24.7776 19.8688 24.7776 19.4834C24.7776 18.9667 24.5723 18.4711 24.2069 18.1057C23.8416 17.7403 23.346 17.535 22.8292 17.535ZM22.8292 20.8278C22.5629 20.8297 22.3021 20.7525 22.0797 20.606C21.8573 20.4594 21.6835 20.2501 21.5803 20.0047C21.477 19.7592 21.449 19.4886 21.4998 19.2272C21.5506 18.9657 21.6778 18.7253 21.8654 18.5363C22.0531 18.3473 22.2926 18.2183 22.5536 18.1656C22.8147 18.113 23.0855 18.139 23.3317 18.2405C23.5779 18.3419 23.7885 18.5142 23.9366 18.7355C24.0848 18.9568 24.1639 19.2171 24.1639 19.4834C24.1639 19.8383 24.0236 20.1788 23.7735 20.4306C23.5235 20.6824 23.1841 20.8252 22.8292 20.8278Z" fill="#0066B3"/>
</g>
<path d="M48.7257 8.36511H35.8524C35.6161 8.36644 35.3824 8.41464 35.1648 8.50693C34.9473 8.59923 34.7502 8.73377 34.585 8.90278C34.4198 9.07179 34.2898 9.27189 34.2025 9.4915C34.1152 9.71112 34.0724 9.94587 34.0764 10.1822V34.8201C34.0791 35.2902 34.2671 35.7404 34.5996 36.0729C34.9321 36.4054 35.3822 36.5933 35.8524 36.596H48.7257C49.1959 36.5933 49.6461 36.4054 49.9785 36.0729C50.311 35.7404 50.499 35.2902 50.5017 34.8201V10.1822C50.5058 9.94587 50.4629 9.71112 50.3756 9.4915C50.2883 9.27189 50.1583 9.07179 49.9931 8.90278C49.828 8.73377 49.6309 8.59923 49.4133 8.50693C49.1958 8.41464 48.962 8.36644 48.7257 8.36511ZM49.4751 34.8201C49.4751 35.0188 49.3962 35.2094 49.2556 35.35C49.1151 35.4905 48.9245 35.5695 48.7257 35.5695H35.8524C35.6537 35.5695 35.463 35.4905 35.3225 35.35C35.182 35.2094 35.103 35.0188 35.103 34.8201V10.1822C35.103 9.9834 35.182 9.79279 35.3225 9.65225C35.463 9.51171 35.6537 9.43276 35.8524 9.43276H48.7257C48.9245 9.43276 49.1151 9.51171 49.2556 9.65225C49.3962 9.79279 49.4751 9.9834 49.4751 10.1822V34.8201Z" fill="#012842"/>
<path d="M49.9881 12.2343H34.0762V13.2608H49.9881V12.2343Z" fill="#012842"/>
<path d="M49.9881 32.7675H34.0762V33.794H49.9881V32.7675Z" fill="#012842"/>
<path d="M44.909 11.4483H39.6734C39.5373 11.4483 39.4067 11.3943 39.3105 11.298C39.2142 11.2017 39.1602 11.0712 39.1602 10.935C39.1602 10.7989 39.2142 10.6684 39.3105 10.5721C39.4067 10.4758 39.5373 10.4218 39.6734 10.4218H44.909C45.0451 10.4218 45.1757 10.4758 45.2719 10.5721C45.3682 10.6684 45.4223 10.7989 45.4223 10.935C45.4223 11.0712 45.3682 11.2017 45.2719 11.298C45.1757 11.3943 45.0451 11.4483 44.909 11.4483Z" fill="#012842"/>
<path d="M43.8294 35.2374H40.7496C40.6135 35.2374 40.4829 35.1833 40.3867 35.0871C40.2904 34.9908 40.2363 34.8602 40.2363 34.7241C40.2363 34.588 40.2904 34.4574 40.3867 34.3612C40.4829 34.2649 40.6135 34.2108 40.7496 34.2108H43.8294C43.9655 34.2108 44.096 34.2649 44.1923 34.3612C44.2886 34.4574 44.3426 34.588 44.3426 34.7241C44.3426 34.8602 44.2886 34.9908 44.1923 35.0871C44.096 35.1833 43.9655 35.2374 43.8294 35.2374Z" fill="#012842"/>
<path d="M44.1839 19.6244C44.2242 19.5699 44.2769 19.5257 44.3375 19.4954C44.3981 19.4651 44.4651 19.4495 44.5329 19.4499C44.6372 19.4528 44.7378 19.4888 44.8203 19.5526L47.9719 22.1293C48.0269 22.1739 48.0711 22.2302 48.1013 22.2942C48.1315 22.3582 48.1469 22.4281 48.1465 22.4989C48.145 22.5703 48.1276 22.6405 48.0956 22.7044C48.0637 22.7683 48.0179 22.8243 47.9617 22.8684L44.7998 25.2296C44.7057 25.3002 44.5885 25.3332 44.4713 25.3219C44.3487 25.3023 44.2384 25.2361 44.1633 25.1372C44.0955 25.039 44.0673 24.9188 44.0844 24.8008C44.1016 24.6827 44.1628 24.5755 44.2557 24.5007L46.9659 22.4475L44.2455 20.2198C44.1623 20.1465 44.1098 20.0445 44.0983 19.9342C44.0869 19.8238 44.1174 19.7133 44.1839 19.6244Z" fill="#0066B3"/>
<g clip-path="url(#clip2_2901_18)">
<path d="M40.5777 25.0791C40.538 25.1328 40.4862 25.1763 40.4265 25.2061C40.3667 25.236 40.3008 25.2513 40.2341 25.2509C40.1314 25.2481 40.0323 25.2127 39.951 25.1499L36.8477 22.6126C36.7936 22.5687 36.7501 22.5132 36.7203 22.4502C36.6906 22.3872 36.6753 22.3183 36.6758 22.2487C36.6773 22.1783 36.6944 22.1092 36.7259 22.0463C36.7573 21.9833 36.8024 21.9282 36.8578 21.8848L39.9712 19.5598C40.0639 19.4902 40.1793 19.4577 40.2947 19.4688C40.4154 19.4882 40.5241 19.5533 40.598 19.6507C40.6648 19.7474 40.6925 19.8657 40.6757 19.982C40.6588 20.0983 40.5985 20.2038 40.507 20.2775L37.8383 22.2992L40.5171 24.4928C40.599 24.565 40.6507 24.6655 40.662 24.7741C40.6732 24.8827 40.6431 24.9916 40.5777 25.0791Z" fill="#0066B3"/>
</g>
<g clip-path="url(#clip3_2901_18)">
<path d="M43.7804 18.4773L41.4453 26.7058C41.4191 26.7984 41.3635 26.88 41.287 26.9383C41.2104 26.9966 41.117 27.0285 41.0208 27.0293H40.8995C40.7847 26.9963 40.6875 26.9195 40.6289 26.8155C40.5703 26.7115 40.5549 26.5886 40.5861 26.4733L42.9212 18.2448C42.9552 18.1304 43.0309 18.033 43.1335 17.9719C43.1879 17.9491 43.2463 17.9374 43.3053 17.9374C43.3643 17.9374 43.4227 17.9491 43.4772 17.9719C43.5795 18.0065 43.6662 18.0763 43.7217 18.1689C43.7773 18.2615 43.7981 18.3708 43.7804 18.4773Z" fill="#0066B3"/>
</g>
<defs>
<clipPath id="clip0_2901_18">
<rect width="13.8161" height="13.4682" fill="white" transform="translate(5.35156 4.99597)"/>
</clipPath>
<clipPath id="clip1_2901_18">
<rect width="9.98909" height="9.73755" fill="white" transform="translate(17.8281 14.535)"/>
</clipPath>
<clipPath id="clip2_2901_18">
<rect width="4.00471" height="5.78428" fill="white" transform="translate(36.6758 19.4667)"/>
</clipPath>
<clipPath id="clip3_2901_18">
<rect width="3.21624" height="9.0919" fill="white" transform="translate(40.5703 17.9374)"/>
</clipPath>
</defs>
</svg>
