<svg width="61" height="60" viewBox="0 0 61 60" fill="none" xmlns="http://www.w3.org/2000/svg">
<g clip-path="url(#clip0_1309_5230)">
<path d="M57.1744 6.23202C57.3529 6.23202 57.5295 6.26711 57.6944 6.3354C57.8592 6.40368 58.009 6.5038 58.1351 6.62996C58.2613 6.75613 58.3614 6.90589 58.4297 7.07073C58.498 7.23558 58.5331 7.41226 58.5331 7.59069V52.3349C58.5331 52.6952 58.39 53.0408 58.1351 53.2956C57.8803 53.5504 57.5348 53.6936 57.1744 53.6936H4.12916C3.76708 53.6936 3.41956 53.551 3.16179 53.2968C2.90402 53.0425 2.75676 52.6969 2.75186 52.3349V7.66515C2.75676 7.3031 2.90402 6.95752 3.16179 6.70324C3.41956 6.44895 3.76708 6.30639 4.12916 6.30643H57.1744M57.1744 4.44519H4.12916C3.27346 4.44518 2.45254 4.78384 1.84572 5.38717C1.23891 5.9905 0.895543 6.80946 0.890625 7.66515V52.3349C0.895543 53.1905 1.23891 54.0095 1.84572 54.6128C2.45254 55.2162 3.27346 55.5548 4.12916 55.5548H57.1744C58.0284 55.5548 58.8474 55.2156 59.4513 54.6117C60.0551 54.0078 60.3944 53.1888 60.3944 52.3349V7.66515C60.3944 7.2423 60.3111 6.82358 60.1492 6.43292C59.9874 6.04226 59.7503 5.6873 59.4513 5.38831C59.1523 5.08931 58.7973 4.85216 58.4067 4.69034C58.016 4.52852 57.5973 4.44519 57.1744 4.44519Z" fill="white"/>
<path d="M6.06527 11.2386C6.73343 11.2386 7.27508 10.6969 7.27508 10.0288C7.27508 9.36062 6.73343 8.81897 6.06527 8.81897C5.39712 8.81897 4.85547 9.36062 4.85547 10.0288C4.85547 10.6969 5.39712 11.2386 6.06527 11.2386Z" fill="white"/>
<path d="M9.78793 11.2386C10.4561 11.2386 10.9977 10.6969 10.9977 10.0288C10.9977 9.36062 10.4561 8.81897 9.78793 8.81897C9.11977 8.81897 8.57812 9.36062 8.57812 10.0288C8.57812 10.6969 9.11977 11.2386 9.78793 11.2386Z" fill="white"/>
<path d="M13.5106 11.2386C14.1787 11.2386 14.7204 10.6969 14.7204 10.0288C14.7204 9.36062 14.1787 8.81897 13.5106 8.81897C12.8424 8.81897 12.3008 9.36062 12.3008 10.0288C12.3008 10.6969 12.8424 11.2386 13.5106 11.2386Z" fill="white"/>
<path d="M59.5206 12.616H1.82227V14.4772H59.5206V12.616Z" fill="white"/>
<path d="M54.8501 18.8324H25.0703V20.6936H54.8501V18.8324Z" fill="white"/>
<path d="M22.1276 39.306H5.5625V18.8324H22.1276V39.306ZM7.42374 37.4448H20.2663V20.6936H7.42374V37.4448Z" fill="white"/>
<path d="M54.8283 38.3569H40.9062V23.8392H54.8283V38.3569ZM42.7675 36.4956H52.967V25.7005H42.7675V36.4956Z" fill="white"/>
<path d="M39.1193 38.3568H25.1973V23.8392H39.1193V38.3568ZM27.0585 36.4956H37.258V25.7004H27.0585V36.4956Z" fill="white"/>
<path d="M54.8281 50.1571H25.1973V42.7122H54.8281V50.1571ZM27.0585 48.2959H52.9669V44.5734H27.0585V48.2959Z" fill="white"/>
<path d="M22.1276 50.157H5.5625V42.712H22.1276V50.157ZM7.42374 48.2957H20.2663V44.5733H7.42374V48.2957Z" fill="white"/>
</g>
<defs>
<clipPath id="clip0_1309_5230">
<rect width="60" height="60" fill="white" transform="translate(0.890625)"/>
</clipPath>
</defs>
</svg>
