<svg width="231" height="75" viewBox="0 0 231 75" fill="none" xmlns="http://www.w3.org/2000/svg">
<path d="M184.023 63.8401C183.562 63.8352 183.109 63.7178 182.704 63.4982L178.567 61.0228C177.949 60.6809 178.258 60.5506 178.437 60.4854C179.098 60.2934 179.729 60.0082 180.31 59.6386C180.356 59.6078 180.409 59.5913 180.465 59.5913C180.52 59.5913 180.574 59.6078 180.619 59.6386L183.811 61.5928C183.868 61.6257 183.933 61.643 183.998 61.643C184.064 61.643 184.129 61.6257 184.186 61.5928L196.628 54.3622C196.684 54.334 196.732 54.2927 196.769 54.2416C196.806 54.1906 196.83 54.1314 196.839 54.0691V39.6243C196.845 39.5561 196.831 39.4877 196.8 39.4271C196.768 39.3665 196.719 39.3162 196.66 39.2823L184.218 32.068C184.161 32.0367 184.096 32.0202 184.031 32.0202C183.966 32.0202 183.901 32.0367 183.844 32.068L171.418 39.2823C171.358 39.3169 171.309 39.3668 171.274 39.4269C171.24 39.4869 171.222 39.5551 171.223 39.6243V54.0691C171.221 54.1407 171.238 54.2116 171.272 54.2745C171.307 54.3374 171.357 54.3902 171.418 54.4274L174.806 56.3979C176.646 57.3424 177.802 56.235 177.802 55.1439V40.8782C177.802 40.7789 177.841 40.6836 177.912 40.6134C177.982 40.5431 178.077 40.5037 178.177 40.5037H179.805C179.903 40.5077 179.996 40.5484 180.065 40.6178C180.135 40.6872 180.176 40.7802 180.18 40.8782V55.1439C180.229 55.6524 180.166 56.1656 179.996 56.6471C179.825 57.1286 179.55 57.5667 179.191 57.9303C178.832 58.2939 178.398 58.5741 177.918 58.7511C177.439 58.9282 176.927 58.9976 176.418 58.9546C175.405 58.9719 174.41 58.6946 173.552 58.1567L170.295 56.2839C169.895 56.0493 169.564 55.7136 169.335 55.3105C169.107 54.9074 168.988 54.4511 168.992 53.9877V39.5428C168.988 39.0794 169.107 38.6232 169.335 38.2201C169.564 37.817 169.895 37.4812 170.295 37.2466L182.72 30.0161C183.123 29.7994 183.573 29.686 184.031 29.686C184.489 29.686 184.939 29.7994 185.342 30.0161L197.767 37.2466C198.169 37.4804 198.502 37.8156 198.734 38.2185C198.965 38.6215 199.087 39.0781 199.087 39.5428V54.0691C199.087 54.5338 198.965 54.9905 198.734 55.3934C198.502 55.7964 198.169 56.1315 197.767 56.3653L185.342 63.6122C184.92 63.7674 184.473 63.8447 184.023 63.8401Z" fill="#B0D0E7"/>
<path d="M187.884 53.9225C182.429 53.9225 181.37 51.4146 181.37 49.2813C181.37 49.1819 181.41 49.0867 181.48 49.0164C181.55 48.9462 181.645 48.9067 181.745 48.9067H183.373C183.416 48.9021 183.46 48.9067 183.502 48.9202C183.543 48.9337 183.581 48.9558 183.613 48.985C183.646 49.0142 183.671 49.0498 183.689 49.0897C183.706 49.1295 183.715 49.1726 183.715 49.2161C183.959 50.8446 184.676 51.6914 187.982 51.6914C190.604 51.6914 191.711 51.0889 191.711 49.6884C191.711 48.8741 191.402 48.2716 187.33 47.8645C183.927 47.5225 181.81 46.7734 181.81 44.0375C181.81 41.3016 183.927 39.9988 187.477 39.9988C191.467 39.9988 193.437 41.383 193.682 44.3795C193.679 44.4848 193.645 44.587 193.584 44.6726C193.553 44.7071 193.515 44.7351 193.473 44.7547C193.431 44.7743 193.386 44.7851 193.34 44.7866H191.711C191.631 44.785 191.555 44.757 191.493 44.7068C191.431 44.6567 191.387 44.5874 191.369 44.5097C190.995 42.7835 190.034 42.2298 187.477 42.2298C184.611 42.2298 184.22 43.2232 184.22 43.9723C184.22 44.7214 184.627 45.1774 188.487 45.6008C192.346 46.0243 194.138 46.8222 194.138 49.5255C194.138 52.2289 191.809 53.9225 187.884 53.9225Z" fill="#B0D0E7"/>
<path d="M205.828 38.7448C205.824 39.3799 205.571 39.988 205.123 40.4387C204.676 40.8893 204.069 41.1465 203.434 41.155C202.795 41.155 202.182 40.901 201.73 40.449C201.278 39.997 201.024 39.384 201.024 38.7448C201.024 38.1056 201.278 37.4925 201.73 37.0405C202.182 36.5885 202.795 36.3346 203.434 36.3346C204.069 36.3431 204.676 36.6003 205.123 37.0509C205.571 37.5015 205.824 38.1097 205.828 38.7448ZM201.398 38.7448C201.398 39.2708 201.601 39.7767 201.966 40.1562C202.33 40.5356 202.827 40.7594 203.353 40.7804C203.89 40.7761 204.403 40.5598 204.782 40.1785C205.16 39.7972 205.372 39.2818 205.372 38.7448C205.372 38.4804 205.32 38.2185 205.218 37.9745C205.116 37.7304 204.967 37.5088 204.78 37.3226C204.592 37.1364 204.369 36.9892 204.124 36.8895C203.879 36.7898 203.617 36.7396 203.353 36.7417C202.831 36.7585 202.337 36.9765 201.972 37.3499C201.608 37.7232 201.402 38.2231 201.398 38.7448ZM202.522 37.3931H203.467C203.776 37.3931 204.395 37.3931 204.395 38.1097C204.41 38.264 204.366 38.4182 204.273 38.5418C204.179 38.6654 204.043 38.7495 203.89 38.7774C204.265 38.7774 204.297 39.0542 204.33 39.3962C204.349 39.6442 204.392 39.8897 204.46 40.129H203.89C203.89 39.9987 203.89 39.3148 203.89 39.2822C203.89 39.2496 203.792 39.0542 203.597 39.0542H203.141V40.1616H202.604L202.522 37.3931ZM203.027 38.5819H203.434C203.486 38.5892 203.54 38.5848 203.59 38.5691C203.641 38.5533 203.687 38.5266 203.726 38.4907C203.765 38.4549 203.796 38.411 203.815 38.362C203.835 38.313 203.844 38.2602 203.841 38.2074C203.841 37.8328 203.581 37.8328 203.434 37.8328H202.994V38.5819H203.027Z" fill="#B0D0E7"/>
<path fill-rule="evenodd" clip-rule="evenodd" d="M54.4917 38.9401C54.4888 38.6602 54.4139 38.3858 54.2741 38.1434C54.1343 37.9009 53.9344 37.6986 53.6937 37.5559L40.5028 29.8856C40.2832 29.7588 40.0387 29.681 39.7863 29.6576H39.6723C39.4169 29.666 39.169 29.7449 38.9557 29.8856L25.7323 37.5233C25.4868 37.6688 25.2838 37.8763 25.1438 38.125C25.0037 38.3736 24.9315 38.6547 24.9343 38.9401V59.5081C24.931 59.6488 24.9675 59.7877 25.0395 59.9086C25.1115 60.0296 25.2161 60.1278 25.3414 60.1921C25.4536 60.2705 25.5872 60.3126 25.7241 60.3126C25.861 60.3126 25.9946 60.2705 26.1068 60.1921L33.9888 55.6974C34.2325 55.5567 34.4357 55.3552 34.5784 55.1126C34.7211 54.87 34.7985 54.5946 34.803 54.3132V44.6887C34.8103 44.4101 34.889 44.138 35.0316 43.8985C35.1742 43.659 35.3758 43.46 35.6173 43.3208L38.9557 41.3666C39.1991 41.2286 39.4739 41.1557 39.7537 41.1549C40.0296 41.1449 40.3021 41.2187 40.5354 41.3666L43.8738 43.3208C44.1152 43.46 44.3169 43.659 44.4595 43.8985C44.602 44.138 44.6807 44.4101 44.6881 44.6887V54.3132C44.6909 54.593 44.7658 54.8674 44.9056 55.1099C45.0454 55.3523 45.2453 55.5547 45.486 55.6974L53.2866 60.2084C53.4071 60.2889 53.5488 60.3319 53.6937 60.3319C53.8386 60.3319 53.9803 60.2889 54.1008 60.2084C54.2218 60.1405 54.3221 60.041 54.391 59.9205C54.4598 59.8 54.4946 59.6631 54.4917 59.5244V38.9401Z" fill="#B0D0E7"/>
<path fill-rule="evenodd" clip-rule="evenodd" d="M118.003 10.6369C117.882 10.5727 117.748 10.5392 117.612 10.5392C117.475 10.5392 117.341 10.5727 117.221 10.6369C117.098 10.704 116.995 10.8029 116.924 10.9232C116.852 11.0435 116.814 11.1808 116.814 11.3209V31.6935C116.812 31.7937 116.786 31.8921 116.738 31.98C116.689 32.068 116.621 32.1429 116.537 32.1983C116.45 32.2468 116.352 32.2722 116.252 32.2722C116.152 32.2722 116.054 32.2468 115.967 32.1983L112.71 30.2929C112.466 30.1397 112.184 30.0584 111.896 30.0584C111.608 30.0584 111.325 30.1397 111.081 30.2929L97.8743 37.9632C97.6305 38.1039 97.4274 38.3054 97.2847 38.548C97.142 38.7906 97.0646 39.066 97.0601 39.3475V54.6717C97.0646 54.9531 97.142 55.2285 97.2847 55.4711C97.4274 55.7137 97.6305 55.9152 97.8743 56.0559L111.081 63.7425C111.329 63.8854 111.61 63.9606 111.896 63.9606C112.182 63.9606 112.462 63.8854 112.71 63.7425L125.933 56.0559C126.174 55.9132 126.374 55.7108 126.514 55.4684C126.654 55.2259 126.729 54.9515 126.731 54.6717V16.4669C126.734 16.1816 126.662 15.9005 126.522 15.6518C126.382 15.4032 126.179 15.1957 125.933 15.0501L118.003 10.6369ZM116.781 49.6396C116.786 49.7095 116.769 49.7791 116.735 49.8399C116.7 49.9006 116.648 49.9499 116.586 49.9816L112.156 52.6035C112.093 52.635 112.023 52.6514 111.953 52.6514C111.882 52.6514 111.812 52.635 111.749 52.6035L107.238 49.9816C107.179 49.9458 107.131 49.8956 107.096 49.8358C107.062 49.776 107.044 49.7085 107.043 49.6396V44.2981C107.038 44.2282 107.055 44.1586 107.089 44.0978C107.124 44.0371 107.176 43.9878 107.238 43.9561L111.749 41.3179C111.812 41.2864 111.882 41.27 111.953 41.27C112.023 41.27 112.093 41.2864 112.156 41.3179L116.667 43.9561C116.727 43.9907 116.777 44.0406 116.811 44.1007C116.846 44.1608 116.863 44.2289 116.863 44.2981L116.781 49.6396Z" fill="#B0D0E7"/>
<path fill-rule="evenodd" clip-rule="evenodd" d="M161.956 44.298C162.192 44.1547 162.387 43.954 162.524 43.7148C162.66 43.4755 162.734 43.2055 162.738 42.93V39.2007C162.737 38.9224 162.664 38.6491 162.528 38.4067C162.391 38.1644 162.194 37.9612 161.956 37.8165L148.928 30.1625C148.681 30.0196 148.4 29.9443 148.114 29.9443C147.828 29.9443 147.547 30.0196 147.3 30.1625L134.044 37.7839C133.8 37.9246 133.597 38.1261 133.454 38.3687C133.311 38.6113 133.234 38.8867 133.229 39.1682V54.4924C133.234 54.7738 133.311 55.0493 133.454 55.2919C133.597 55.5345 133.8 55.7359 134.044 55.8766L147.153 63.4003C147.401 63.5432 147.682 63.6185 147.967 63.6185C148.253 63.6185 148.534 63.5432 148.782 63.4003L156.664 58.9545C156.787 58.8874 156.889 58.7885 156.961 58.6682C157.032 58.5479 157.07 58.4106 157.071 58.2705C157.07 58.1305 157.032 57.9932 156.961 57.8728C156.889 57.7525 156.787 57.6537 156.664 57.5866L143.391 49.9C143.27 49.8316 143.168 49.7324 143.096 49.6124C143.025 49.4924 142.986 49.3557 142.984 49.216V44.412C142.981 44.2712 143.017 44.1324 143.089 44.0114C143.161 43.8904 143.266 43.7922 143.391 43.728L147.528 41.3341C147.652 41.2626 147.792 41.225 147.935 41.225C148.078 41.225 148.218 41.2626 148.342 41.3341L152.478 43.728C152.601 43.7951 152.704 43.8939 152.776 44.0142C152.847 44.1346 152.885 44.2719 152.886 44.412V48.1738C152.886 48.3138 152.924 48.4512 152.996 48.5715C153.067 48.6918 153.17 48.7907 153.293 48.8578C153.413 48.9383 153.555 48.9813 153.7 48.9813C153.845 48.9813 153.986 48.9383 154.107 48.8578L161.956 44.298Z" fill="#B0D0E7"/>
<path fill-rule="evenodd" clip-rule="evenodd" d="M147.837 43.5164C147.885 43.4842 147.942 43.467 148 43.467C148.058 43.467 148.115 43.4842 148.163 43.5164L150.671 44.9984C150.722 45.0237 150.764 45.0633 150.793 45.1125C150.822 45.1617 150.836 45.2182 150.834 45.2752V48.2228C150.834 48.2795 150.82 48.3352 150.791 48.384C150.762 48.4328 150.721 48.4728 150.671 48.4997L148.163 49.9816C148.115 50.0138 148.058 50.031 148 50.031C147.942 50.031 147.885 50.0138 147.837 49.9816L145.313 48.4997C145.268 48.4685 145.232 48.4272 145.206 48.379C145.181 48.3308 145.167 48.2773 145.166 48.2228V45.2752C145.164 45.2202 145.176 45.1655 145.202 45.1169C145.228 45.0682 145.266 45.0273 145.313 44.9984L147.837 43.5164Z" fill="#B0D0E7"/>
<path d="M76.592 30.1625C76.3445 30.0196 76.0636 29.9443 75.7778 29.9443C75.4919 29.9443 75.2111 30.0196 74.9635 30.1625L61.9355 37.7839C61.6978 37.9286 61.5011 38.1319 61.3643 38.3742C61.2274 38.6165 61.155 38.8899 61.1538 39.1682V54.4273C61.155 54.7055 61.2274 54.9789 61.3643 55.2212C61.5011 55.4636 61.6978 55.6668 61.9355 55.8115L74.9635 63.4329C75.2111 63.5758 75.4919 63.6511 75.7778 63.6511C76.0636 63.6511 76.3445 63.5758 76.592 63.4329L89.7015 55.8115C89.9392 55.6668 90.1359 55.4636 90.2727 55.2212C90.4096 54.9789 90.482 54.7055 90.4832 54.4273V39.1682C90.482 38.8899 90.4096 38.6165 90.2727 38.3742C90.1359 38.1319 89.9392 37.9286 89.7015 37.7839L76.592 30.1625Z" fill="#B0D0E7"/>
<path d="M89.7317 37.7839L76.5571 30.1625C76.4274 30.0943 76.2909 30.0397 76.1499 29.9996L61.3794 55.4369C61.5063 55.5832 61.6545 55.7095 61.8191 55.8115L74.9937 63.4328C75.1761 63.5404 75.3788 63.609 75.589 63.6342C75.7993 63.6595 76.0124 63.6408 76.2151 63.5794L90.0737 38.0607C89.984 37.9419 89.8666 37.8469 89.7317 37.7839Z" fill="#B0D0E7"/>
<path d="M89.7322 55.8116C90.1039 55.578 90.3809 55.2203 90.5139 54.8019L76.0853 29.9672C75.6994 29.8947 75.3004 29.9641 74.9616 30.1626L61.9336 37.7514L76.0364 63.6447C76.2434 63.6076 76.4455 63.5475 76.639 63.4655L89.7322 55.8116Z" fill="#B0D0E7"/>
</svg>
