<svg width="50" height="50" viewBox="0 0 50 50" fill="none" xmlns="http://www.w3.org/2000/svg">
<path d="M0 6.25C0 2.80273 2.89315 0 6.45161 0H22.5806V12.5C22.5806 14.2285 24.0222 15.625 25.8065 15.625H38.7097V29.6875H17.7419C14.1835 29.6875 11.2903 32.4902 11.2903 35.9375V50H6.45161C2.89315 50 0 47.1973 0 43.75V6.25ZM38.7097 12.5H25.8065V0L38.7097 12.5ZM17.7419 34.375H20.9677C24.0827 34.375 26.6129 36.8262 26.6129 39.8438C26.6129 42.8613 24.0827 45.3125 20.9677 45.3125H19.3548V48.4375C19.3548 49.2969 18.629 50 17.7419 50C16.8548 50 16.129 49.2969 16.129 48.4375V43.75V35.9375C16.129 35.0781 16.8548 34.375 17.7419 34.375ZM20.9677 42.1875C22.3085 42.1875 23.3871 41.1426 23.3871 39.8438C23.3871 38.5449 22.3085 37.5 20.9677 37.5H19.3548V42.1875H20.9677ZM30.6452 34.375H33.871C36.5423 34.375 38.7097 36.4746 38.7097 39.0625V45.3125C38.7097 47.9004 36.5423 50 33.871 50H30.6452C29.7581 50 29.0323 49.2969 29.0323 48.4375V35.9375C29.0323 35.0781 29.7581 34.375 30.6452 34.375ZM33.871 46.875C34.7581 46.875 35.4839 46.1719 35.4839 45.3125V39.0625C35.4839 38.2031 34.7581 37.5 33.871 37.5H32.2581V46.875H33.871ZM41.9355 35.9375C41.9355 35.0781 42.6613 34.375 43.5484 34.375H48.3871C49.2742 34.375 50 35.0781 50 35.9375C50 36.7969 49.2742 37.5 48.3871 37.5H45.1613V40.625H48.3871C49.2742 40.625 50 41.3281 50 42.1875C50 43.0469 49.2742 43.75 48.3871 43.75H45.1613V48.4375C45.1613 49.2969 44.4355 50 43.5484 50C42.6613 50 41.9355 49.2969 41.9355 48.4375V42.1875V35.9375Z" fill="black"/>
</svg>
