<svg width="191" height="47" viewBox="0 0 191 47" fill="none" xmlns="http://www.w3.org/2000/svg">
<g clip-path="url(#clip0_4801_7282)">
<path d="M71.9801 23.6154C71.9801 17.7782 70.3151 14.7781 66.9849 14.6151C65.6621 14.5507 64.3407 14.768 63.1081 15.2525C62.3635 15.469 61.6707 15.8346 61.0716 16.3269V30.2623C63.2097 31.5987 65.0993 32.2188 66.7404 32.1225C70.2336 31.89 71.9801 29.0543 71.9801 23.6154ZM76.0854 23.8559C76.0854 26.8226 75.3878 29.2841 73.9927 31.2405C73.2803 32.3032 72.3149 33.1721 71.1833 33.7691C70.0517 34.366 68.7894 34.6723 67.5101 34.6603C65.4254 34.7297 63.2792 34.0789 61.0716 32.7079V45.3724L57.4995 44.0975V15.9862C58.1326 15.2341 58.8975 14.6038 59.7566 14.126C61.8948 12.8858 64.4779 12.2511 67.5061 12.2217L67.5542 12.2698C68.832 12.2106 70.1022 12.497 71.231 13.0988C72.3598 13.7006 73.3056 14.5956 73.9687 15.6895C75.3798 17.8116 76.0854 20.5338 76.0854 23.8559Z" fill="#B0D0E7"/>
<path d="M97.9147 32.1666C97.9147 36.1463 97.5138 38.9018 96.712 40.4333C95.9102 41.9647 94.3841 43.1861 92.1337 44.0975C90.2439 44.8284 88.242 45.2272 86.2164 45.2762L85.627 43.0231C87.1705 42.8555 88.6977 42.5618 90.1933 42.1451C91.9252 41.5598 93.1119 40.6618 93.7654 39.4551C94.2999 38.4769 94.5605 36.606 94.5472 33.8424V32.9123C92.1365 34.0135 89.5161 34.5798 86.8658 34.5721C85.1679 34.5953 83.5183 34.0061 82.2194 32.9123C81.5096 32.3764 80.9361 31.6808 80.5454 30.8819C80.1546 30.083 79.9576 29.2032 79.9703 28.314V13.4444L83.5424 12.2217V27.1834C83.5424 28.787 84.0582 30.0178 85.0898 30.8757C86.2269 31.7711 87.6546 32.2151 89.0989 32.1225C90.7346 32.0865 92.4905 31.453 94.3547 30.2142V12.7589H97.9268L97.9147 32.1666Z" fill="#B0D0E7"/>
<path d="M111.842 34.4678C111.413 34.4999 111.041 34.5159 110.664 34.5159C108.643 34.5159 107.07 34.0348 105.945 33.0727C104.82 32.1105 104.259 30.7742 104.261 29.0636V15.0039H101.82V12.7589H104.269V6.79345L107.837 5.52258V12.7589H111.846V15.0039H107.837V28.9754C107.837 30.3118 108.196 31.2606 108.912 31.8219C109.532 32.2789 110.511 32.5462 111.85 32.6237L111.842 34.4678Z" fill="#B0D0E7"/>
<path d="M133.491 34.1712H129.919V20.3881C129.951 19.1153 129.609 17.861 128.937 16.78C128.61 16.2422 128.147 15.8006 127.594 15.4999C127.041 15.1992 126.419 15.0502 125.79 15.0681C124.154 15.0681 122.107 15.9314 119.648 17.658V34.1832H116.076V1.22091L119.648 0.0943604V15.1042C121.806 13.4837 124.433 12.6085 127.133 12.6106C127.991 12.579 128.845 12.7332 129.638 13.0626C130.431 13.3919 131.144 13.8887 131.727 14.5189C132.911 15.8093 133.544 17.5111 133.491 19.2616V34.1712Z" fill="#B0D0E7"/>
<path d="M152.466 23.0503C152.466 20.8079 152.041 18.9544 151.191 17.4898C150.735 16.6417 150.057 15.9329 149.231 15.4388C148.404 14.9447 147.459 14.6837 146.496 14.6834C142.584 14.908 140.627 17.7143 140.627 23.1024C140.627 25.5666 141.036 27.626 141.854 29.2803C142.904 31.3891 144.476 32.4261 146.569 32.3914C150.497 32.3459 152.463 29.2322 152.466 23.0503ZM156.375 23.0744C156.375 26.2816 155.559 28.9396 153.929 31.0483C152.138 33.4217 149.661 34.611 146.496 34.6164C143.332 34.6217 140.886 33.4324 139.16 31.0483C137.556 28.9235 136.754 26.2655 136.754 23.0744C136.754 20.0756 137.619 17.5486 139.348 15.4933C140.215 14.4325 141.314 13.5856 142.56 13.0183C143.807 12.451 145.168 12.1785 146.536 12.2219C147.912 12.1819 149.279 12.4557 150.534 13.0225C151.788 13.5893 152.897 14.4342 153.777 15.4933C155.511 17.5512 156.377 20.0783 156.375 23.0744Z" fill="#B0D0E7"/>
<path d="M176.853 34.171H173.281V19.6062C173.281 18.0026 172.8 16.7545 171.838 15.8618C170.879 14.9678 169.596 14.5308 167.997 14.5669C166.252 14.6151 164.564 15.1956 163.158 16.2306V34.171H159.586V15.7856C161.639 14.2889 163.53 13.312 165.259 12.855C166.662 12.4637 168.108 12.2508 169.564 12.2216C170.373 12.216 171.179 12.298 171.97 12.4661C173.259 12.7298 174.446 13.3572 175.39 14.2742C175.863 14.7287 176.238 15.2757 176.491 15.8813C176.744 16.4868 176.87 17.1379 176.861 17.7941L176.853 34.171Z" fill="#B0D0E7"/>
<path d="M22.2242 1.35319C20.5031 1.35467 18.7852 1.50084 17.0886 1.79018C12.5384 2.59198 11.7125 4.27578 11.7125 7.37877V11.476H22.4648V12.8391H7.67944C4.5564 12.8391 1.82224 14.7193 0.964302 18.2914C-0.0219202 22.3846 -0.0660196 24.9384 0.964302 29.216C1.73003 32.3952 3.55414 34.6643 6.67718 34.6643H10.3735V29.7532C10.4086 27.9866 11.1285 26.3027 12.3813 25.0566C13.6341 23.8106 15.3219 23.0998 17.0886 23.0741H27.8248C28.5366 23.0694 29.2404 22.9244 29.8961 22.6473C30.5517 22.3701 31.1462 21.9664 31.6456 21.4592C32.1449 20.952 32.5394 20.3513 32.8063 19.6915C33.0732 19.0316 33.2073 18.3256 33.2009 17.6138V7.37877C33.2009 4.4642 30.7434 2.27527 27.8248 1.79018C25.9738 1.48554 24.1001 1.33935 22.2242 1.35319ZM16.4271 4.66065C16.8337 4.6519 17.2337 4.76436 17.5762 4.98373C17.9187 5.20309 18.1881 5.51942 18.3502 5.89243C18.5122 6.26543 18.5596 6.67824 18.4862 7.07827C18.4129 7.47829 18.2221 7.84743 17.9382 8.13868C17.6544 8.42992 17.2903 8.63008 16.8923 8.71367C16.4943 8.79726 16.0804 8.7605 15.7033 8.60806C15.3263 8.45562 15.0031 8.1944 14.7751 7.85768C14.547 7.52096 14.4243 7.12397 14.4226 6.71728C14.4183 6.17951 14.6265 5.66177 15.0018 5.27665C15.3772 4.89152 15.8894 4.67014 16.4271 4.66065Z" fill="#B0D0E7"/>
<path d="M34.5399 12.8391V17.6139C34.5399 21.3142 31.4048 24.4292 27.8247 24.4292H17.0885C15.657 24.4575 14.2932 25.0445 13.2887 26.0647C12.2841 27.085 11.7184 28.4577 11.7124 29.8895V40.1286C11.7124 43.0392 14.2461 44.7551 17.0885 45.5889C20.5835 46.6838 24.3298 46.6838 27.8247 45.5889C30.5308 44.7871 33.2008 43.2276 33.2008 40.1286V36.0314H22.4647V34.6643H38.5729C41.7 34.6643 42.8626 32.4834 43.9491 29.216C45.0716 25.8484 45.0235 22.6091 43.9491 18.2914C43.1753 15.1804 41.704 12.8391 38.5729 12.8391H34.5399ZM28.5022 38.7615C28.9095 38.7528 29.3102 38.8656 29.653 39.0857C29.9958 39.3058 30.2652 39.623 30.4268 39.997C30.5885 40.3709 30.6349 40.7846 30.5603 41.1851C30.4856 41.5855 30.2933 41.9547 30.0078 42.2453C29.7223 42.5359 29.3567 42.7348 28.9576 42.8166C28.5585 42.8984 28.1441 42.8593 27.7673 42.7044C27.3906 42.5495 27.0685 42.2858 26.8424 41.9469C26.6162 41.6081 26.4962 41.2095 26.4977 40.8021C26.4945 40.2662 26.7035 39.7507 27.0791 39.3684C27.4547 38.9861 27.9663 38.7679 28.5022 38.7615Z" fill="#B0D0E7"/>
<path d="M183.808 9.57583H184.434V5.64697H185.917V5.17792H182.309V5.64697H183.792V9.57583M186.454 9.57583H186.992V5.98774L188.15 9.57583H188.748L189.95 5.99977V9.57583H190.536V5.16589H189.762L188.439 8.93438L187.312 5.16589H186.446V9.57583" fill="#B0D0E7"/>
</g>
<defs>
<clipPath id="clip0_4801_7282">
<rect width="190.349" height="46.3124" fill="white" transform="translate(0.206543 0.09375)"/>
</clipPath>
</defs>
</svg>
