<svg width="40" height="58" viewBox="0 0 40 58" fill="none" xmlns="http://www.w3.org/2000/svg">
<path d="M23.8965 20.7565H32.7183" stroke="white" stroke-width="1.3" stroke-miterlimit="10" stroke-linecap="round"/>
<path d="M23.8965 29.6561H32.7183" stroke="white" stroke-width="1.3" stroke-miterlimit="10" stroke-linecap="round"/>
<path d="M23.8965 37.4113H32.7183" stroke="white" stroke-width="1.3" stroke-miterlimit="10" stroke-linecap="round"/>
<path d="M23.8965 45.1669H32.7183" stroke="white" stroke-width="1.3" stroke-miterlimit="10" stroke-linecap="round"/>
<path d="M7.39453 20.7371L9.35278 22.6759L13.2305 18.7982" stroke="white" stroke-width="1.3" stroke-linecap="round" stroke-linejoin="round"/>
<path d="M7.39453 29.656L9.35278 31.5949L13.2305 27.7172" stroke="white" stroke-width="1.3" stroke-linecap="round" stroke-linejoin="round"/>
<path d="M7.39453 37.4114L9.35278 39.3503L13.2305 35.4725" stroke="white" stroke-width="1.3" stroke-linecap="round" stroke-linejoin="round"/>
<path d="M7.39453 45.167L9.35278 47.1059L13.2305 43.2281" stroke="white" stroke-width="1.3" stroke-linecap="round" stroke-linejoin="round"/>
<path d="M7.4227 6.80512H4.10214C3.16761 6.80512 2.27136 7.17637 1.61055 7.83718C0.949742 8.49799 0.578516 9.3942 0.578516 10.3287V54.0114C0.578508 54.4733 0.669813 54.9305 0.847181 55.357C1.02455 55.7835 1.28447 56.1707 1.61202 56.4964C1.93956 56.822 2.32826 57.0798 2.75576 57.2547C3.18306 57.4296 3.64069 57.5182 4.10233 57.5156H4.10214V57.3656L4.103 57.5156L7.4227 6.80512ZM7.4227 6.80512V4.53154V4.38154H7.5727H8.96869H8.98484L9.00061 4.38497C9.60784 4.51722 10.2411 4.45179 10.808 4.1988C10.9393 4.0024 11.0036 3.76825 10.9904 3.53162L10.99 3.52329H10.9902V0.634399V0.484399H11.1402H28.9002H29.0502V0.634399V3.213V3.22663L29.0496 3.22657C29.022 3.53012 29.105 3.83323 29.2828 4.08031C29.4306 4.20446 29.7022 4.28159 30.0934 4.32167C30.4864 4.36194 30.9627 4.36213 31.4789 4.36213H32.6228H32.7728V4.51213V6.80512H36.1516C36.6134 6.80511 37.0708 6.89627 37.4973 7.07365C37.9238 7.25103 38.311 7.51115 38.6366 7.83867C38.9623 8.1662 39.22 8.55475 39.3949 8.98226C39.5697 9.40955 39.6584 9.86726 39.6558 10.3289V10.3287H39.5058L39.6558 10.3296L7.4227 6.80512ZM36.1514 57.5156H36.1516V57.3656L36.1507 57.5156L36.1514 57.5156ZM36.1514 57.5156C36.6122 57.5182 37.069 57.4293 37.4952 57.2542C37.9217 57.079 38.3091 56.8209 38.6352 56.4949C38.9612 56.1689 39.2193 55.7814 39.3945 55.355C39.5696 54.9287 39.6584 54.472 39.6558 54.0112V54.0114H39.5058M36.1514 57.5156L39.5058 54.0114M39.5058 54.0114L39.6558 54.0105L39.5058 54.0114ZM32.7728 6.95512H32.6228V6.80512L32.7728 6.95512ZM11.6113 5.16037L11.6246 5.15152L11.6357 5.14007C11.8385 4.93086 11.9953 4.68139 12.096 4.40801C12.1962 4.13614 12.2387 3.84655 12.2209 3.55739V1.77324H27.742V3.22707C27.7198 3.5437 27.7611 3.86156 27.8636 4.162C27.9667 4.46418 28.1296 4.7425 28.3425 4.98042L28.3549 4.9943L28.3703 5.00472C29.28 5.61893 30.3945 5.85099 31.4734 5.65097H31.5034V8.0072H8.7503V5.67038H8.97229C9.42127 5.76483 9.8846 5.76912 10.3354 5.6831C10.7914 5.59607 11.2253 5.41836 11.6113 5.16037ZM4.10274 8.07455H7.48087V9.12663V9.27663H7.63087H32.6228H32.7728V9.12663V8.07455H36.1509C36.7454 8.0795 37.3139 8.31908 37.7326 8.74116C38.1514 9.16339 38.3864 9.73401 38.3864 10.3287V53.992C38.3864 54.5847 38.1509 55.1531 37.7318 55.5723C37.3127 55.9913 36.7443 56.2267 36.1516 56.2267H4.10214C3.50741 56.2268 2.93678 55.9918 2.51456 55.573C2.09248 55.1543 1.8529 54.5858 1.84795 53.9914V10.3293C1.85286 9.73285 2.09198 9.16222 2.51378 8.74041C2.93559 8.31861 3.50626 8.07946 4.10274 8.07455Z" fill="white" stroke="white" stroke-width="0.3"/>
</svg>
