<svg width="59" height="60" viewBox="0 0 59 60" fill="none" xmlns="http://www.w3.org/2000/svg">
<path d="M57.5784 2.29505V1.93215H57.238C51.4749 0.826332 45.516 1.38514 40.059 3.54331H39.832C38.2536 4.16096 36.7345 4.92053 35.2933 5.81267C31.9877 7.85853 29.0749 10.4794 26.6924 13.5513C23.1749 14.2775 14.3244 17.4544 7.40282 30.7075C7.36968 30.7826 7.35254 30.8637 7.35254 30.9458C7.35254 31.0278 7.36968 31.1092 7.40282 31.1843C7.44723 31.2526 7.50767 31.3087 7.57887 31.3483C7.65007 31.3878 7.72985 31.4095 7.81129 31.4112L17.7511 31.5699C17.2745 33.2038 16.8434 34.9285 16.4349 36.676V36.9483L22.5621 43.0757H22.8118C24.5648 42.6521 26.2923 42.1291 27.986 41.5097V50.2694C27.9821 50.3488 28.0015 50.4278 28.0418 50.4963C28.0822 50.5648 28.1416 50.6201 28.2129 50.6553C28.2938 50.683 28.3816 50.683 28.4625 50.6553C28.5364 50.6781 28.6155 50.6781 28.6895 50.6553C43.4176 43.3026 44.8927 33.1585 45.0288 31.8649C49.3073 28.3249 52.7092 23.8433 54.9687 18.7706C55.0121 18.653 55.0653 18.5393 55.1275 18.4305C57.1771 13.3128 58.0159 7.79045 57.5784 2.29505ZM8.5375 30.4806C14.4605 19.5423 21.8587 15.9794 25.6485 14.8447C22.2146 19.6697 19.6212 25.0406 17.9781 30.7302L8.5375 30.4806ZM28.8029 49.4525V41.1241C34.1881 39.1369 39.233 36.3273 43.758 32.7954C43.1226 35.6321 40.3086 43.4614 28.8029 49.4525ZM22.7437 42.0543L17.3426 36.676C18.9551 28.6532 22.2839 21.0743 27.1009 14.4591C27.3919 14.0728 27.7024 13.7017 28.0313 13.3471C30.201 10.6674 32.8008 8.36676 35.7245 6.53902C37.0644 5.71637 38.4683 5.00285 39.9228 4.40568L53.8794 18.385C46.2316 35.9272 25.2627 41.4417 22.7437 42.1452V42.0543ZM54.2879 17.5454L40.8986 4.13336C45.9264 2.29446 51.3458 1.79393 56.6253 2.68094C56.945 7.74715 56.147 12.8218 54.2879 17.5454Z" fill="white" stroke="white" stroke-linejoin="round"/>
<path d="M10.557 58.621C10.4304 58.6204 10.3086 58.5716 10.2165 58.4847C10.1304 58.3923 10.0825 58.2708 10.0825 58.1445C10.0825 58.0182 10.1304 57.8965 10.2165 57.804L19.816 48.4543C19.9084 48.3681 20.03 48.3202 20.1564 48.3202C20.2827 48.3202 20.4043 48.3681 20.4967 48.4543C20.542 48.4986 20.578 48.5515 20.6026 48.61C20.6271 48.6684 20.6398 48.7313 20.6398 48.7947C20.6398 48.8581 20.6271 48.9208 20.6026 48.9792C20.578 49.0377 20.542 49.0905 20.4967 49.1349L10.8066 58.4847C10.7383 58.5533 10.6516 58.6007 10.557 58.621Z" fill="white" stroke="white" stroke-linejoin="round"/>
<path d="M1.00174 50.9959C0.875114 50.9954 0.753447 50.9465 0.661353 50.8596C0.575212 50.7672 0.527344 50.6455 0.527344 50.5192C0.527344 50.3928 0.575212 50.2714 0.661353 50.179L10.1927 40.7611C10.2353 40.7128 10.2876 40.674 10.3463 40.6475C10.405 40.621 10.4687 40.6073 10.5331 40.6073C10.5975 40.6073 10.6611 40.621 10.7198 40.6475C10.7785 40.674 10.8309 40.7128 10.8735 40.7611C10.9596 40.8535 11.0075 40.9752 11.0075 41.1015C11.0075 41.2279 10.9596 41.3493 10.8735 41.4417L1.34213 50.8596C1.29798 50.9048 1.24492 50.9403 1.18631 50.9638C1.1277 50.9872 1.06483 50.9982 1.00174 50.9959Z" fill="white" stroke="white" stroke-linejoin="round"/>
<path d="M2.45683 57.4408C2.39152 57.4435 2.32651 57.4305 2.26728 57.4029C2.20804 57.3752 2.15633 57.3339 2.11644 57.2821C2.06864 57.2416 2.03017 57.191 2.00383 57.1342C1.97748 57.0773 1.96387 57.0156 1.96387 56.953C1.96387 56.8904 1.97748 56.8284 2.00383 56.7716C2.03017 56.7147 2.06864 56.6644 2.11644 56.6239L14.0532 44.6189C14.0979 44.5742 14.151 44.5389 14.2094 44.5147C14.2678 44.4905 14.3304 44.4779 14.3936 44.4779C14.4569 44.4779 14.5195 44.4905 14.5779 44.5147C14.6363 44.5389 14.6894 44.5742 14.7341 44.6189C14.7788 44.6636 14.8142 44.7167 14.8384 44.7751C14.8626 44.8335 14.8751 44.8961 14.8751 44.9593C14.8751 45.0226 14.8626 45.0852 14.8384 45.1436C14.8142 45.202 14.7788 45.2551 14.7341 45.2998L2.79722 57.2821C2.7542 57.3303 2.70185 57.3692 2.64333 57.3965C2.58482 57.4238 2.52137 57.4388 2.45683 57.4408Z" fill="white" stroke="white" stroke-linejoin="round"/>
<path d="M38.0428 15.2533C37.19 15.2533 36.3563 15.5061 35.6473 15.9799C34.9382 16.4537 34.3855 17.127 34.0592 17.9149C33.7328 18.7028 33.6474 19.5697 33.8138 20.4061C33.9802 21.2425 34.3908 22.011 34.9939 22.614C35.5969 23.217 36.3652 23.6275 37.2016 23.7938C38.038 23.9602 38.905 23.875 39.6928 23.5487C40.4807 23.2223 41.1541 22.6696 41.6279 21.9605C42.1017 21.2514 42.3545 20.4179 42.3545 19.5651C42.3545 18.4215 41.9003 17.3248 41.0917 16.5162C40.283 15.7076 39.1863 15.2533 38.0428 15.2533ZM38.0428 22.9237C37.3785 22.9237 36.7291 22.7265 36.1768 22.3575C35.6245 21.9884 35.194 21.4639 34.9398 20.8502C34.6856 20.2365 34.619 19.5612 34.7486 18.9097C34.8782 18.2581 35.1981 17.6599 35.6678 17.1902C36.1376 16.7205 36.736 16.4003 37.3875 16.2708C38.039 16.1412 38.7144 16.2077 39.3281 16.4619C39.9418 16.7161 40.4663 17.1467 40.8353 17.6991C41.2044 18.2514 41.4014 18.9008 41.4014 19.5651C41.3955 20.454 41.0397 21.3048 40.4111 21.9334C39.7825 22.5619 38.9317 22.9178 38.0428 22.9237Z" fill="white" stroke="white" stroke-linejoin="round"/>
</svg>
