<svg width="50" height="49" viewBox="0 0 50 49" fill="none" xmlns="http://www.w3.org/2000/svg">
<g clip-path="url(#clip0_2901_4231)">
<path d="M30.8223 27.3375C30.8298 27.399 30.8298 27.4611 30.8223 27.5226V26.9365C30.8306 27.0701 30.8306 27.204 30.8223 27.3375Z" fill="#0066B3"/>
<path d="M32.9815 27.5985C32.8815 27.4069 32.7095 27.2627 32.5034 27.1975L31.6089 26.9353C31.5781 26.412 31.4849 25.8943 31.3313 25.3931L32.1179 24.8533C32.2954 24.7286 32.4173 24.5396 32.4576 24.3265C32.4979 24.1133 32.4535 23.8929 32.3338 23.712L31.0537 21.8921C30.9236 21.7143 30.7305 21.5929 30.5139 21.5528C30.3031 21.5203 30.0877 21.57 29.9124 21.6916L29.1258 22.2468C28.6588 21.882 28.1387 21.5908 27.5836 21.3832V20.4269C27.5877 20.3183 27.5702 20.21 27.5319 20.1082C27.4936 20.0065 27.4354 19.9134 27.3608 19.8344C27.2861 19.7554 27.1963 19.6921 27.0969 19.6482C26.9975 19.6043 26.8902 19.5807 26.7816 19.5787L24.5761 19.5016C24.4688 19.4975 24.3616 19.5145 24.2609 19.5518C24.1601 19.5891 24.0677 19.646 23.9889 19.719C23.9101 19.7921 23.8466 19.8799 23.8018 19.9776C23.757 20.0752 23.7319 20.1808 23.7279 20.2881V21.2443C23.2154 21.3876 22.7268 21.6059 22.2782 21.8921L21.5533 21.2443C21.3887 21.1102 21.1791 21.044 20.9673 21.0593C20.7437 21.0737 20.534 21.173 20.3812 21.3369L18.9469 23.018C18.8731 23.0954 18.817 23.1878 18.7823 23.289C18.7477 23.3902 18.7355 23.4977 18.7464 23.604C18.7482 23.7131 18.7756 23.8202 18.8265 23.9167C18.8774 24.0131 18.9504 24.0962 19.0394 24.1592L19.7642 24.7916C19.5575 25.2849 19.4175 25.8035 19.3479 26.3338L18.3763 26.5035C18.1687 26.5482 17.9861 26.6705 17.8657 26.8453C17.7453 27.0202 17.6961 27.2345 17.7284 27.4443L18.1294 29.6343C18.1369 29.7414 18.1704 29.8451 18.2268 29.9364C18.2832 30.0277 18.361 30.104 18.4533 30.1587C18.5831 30.2548 18.7392 30.3086 18.9006 30.3129H19.0702L20.0418 30.1433C20.2845 30.61 20.5908 31.0408 20.9518 31.4233L20.4737 32.2716C20.3978 32.4702 20.3978 32.6899 20.4737 32.8885C20.5034 32.9938 20.5542 33.0918 20.6232 33.1767C20.6922 33.2616 20.7778 33.3315 20.8747 33.382L22.8333 34.4308C22.9268 34.5009 23.0405 34.5387 23.1573 34.5387C23.3121 34.5497 23.4668 34.5163 23.6034 34.4426C23.7399 34.3689 23.8526 34.2578 23.9284 34.1223L24.3911 33.2586C24.6846 33.3258 24.9845 33.362 25.2856 33.3666H25.9642L26.3343 34.2457C26.424 34.4443 26.583 34.6033 26.7816 34.693C26.8786 34.7091 26.9776 34.7091 27.0746 34.693C27.1805 34.7226 27.2926 34.7226 27.3985 34.693L29.4343 33.8447C29.5348 33.8056 29.6266 33.7469 29.7043 33.6721C29.782 33.5973 29.8443 33.5079 29.8873 33.409C29.9303 33.31 29.9533 33.2036 29.955 33.0957C29.9566 32.9879 29.9369 32.8808 29.897 32.7805L29.5269 31.886C29.9371 31.5449 30.3002 31.1508 30.6065 30.7139L31.4856 30.9915H31.5472C31.7334 31.0006 31.9173 30.9481 32.0706 30.8421C32.2239 30.7362 32.3381 30.5827 32.3955 30.4054L32.997 28.2771C33.0592 28.1742 33.0907 28.0558 33.088 27.9356C33.0853 27.8154 33.0483 27.6985 32.9815 27.5985ZM31.6398 30.1433L30.9303 29.9273L30.1746 29.7114C30.0346 29.9507 29.8747 30.1777 29.6965 30.39C29.5423 30.6306 29.3555 30.8486 29.1413 31.0378C28.9484 31.2285 28.7366 31.3991 28.509 31.5467L28.8019 32.287L29.0796 33.0427L26.9667 33.8601L26.689 33.1661L26.3807 32.4412C26.1109 32.4906 25.8374 32.5164 25.5632 32.5184H25.2393C25.0542 32.5184 24.8846 32.5184 24.6995 32.5184C24.4415 32.4938 24.1876 32.4368 23.9438 32.3487L23.5274 33.0273L23.111 33.7368L21.1523 32.5955L21.5225 31.9323L21.908 31.2229C21.6934 31.0699 21.5058 30.8822 21.3528 30.6676C21.1612 30.4533 20.9907 30.2208 20.8439 29.9736C20.6933 29.7469 20.5691 29.5037 20.4737 29.2487L19.6717 29.3567L18.8851 29.4801L18.5304 27.2438L19.3016 27.1204L20.0573 26.997C20.0669 26.7284 20.0927 26.4606 20.1344 26.195C20.1344 25.902 20.2732 25.6244 20.3658 25.3468C20.4521 25.086 20.5713 24.8372 20.7204 24.6065L20.1036 24.0667L19.533 23.5269L21.0752 21.8458L21.6304 22.3394L22.2627 22.8792C22.4687 22.7162 22.6852 22.5668 22.9105 22.4319C23.172 22.2938 23.4456 22.1803 23.7279 22.0926C23.9818 21.9933 24.2455 21.921 24.5145 21.8767V21.0901V20.2881L26.7816 20.4115V21.9538C27.0473 22.0133 27.3058 22.1012 27.5527 22.216C27.8672 22.3553 28.1669 22.5258 28.4472 22.7249C28.6849 22.8649 28.9028 23.036 29.095 23.2339L29.7736 22.7866L30.4368 22.3548L31.6861 24.2364L31.0691 24.6528L30.4368 25.1155C30.5413 25.3635 30.6188 25.622 30.6681 25.8866C30.7542 26.1667 30.8009 26.4573 30.807 26.7503V26.9662C30.8145 27.0018 30.8145 27.0385 30.807 27.0741C30.8153 27.1459 30.8153 27.2183 30.807 27.2901C30.807 27.2901 30.807 27.4134 30.807 27.4751L32.3492 27.9687L31.6398 30.1433Z" fill="#0066B3"/>
<path d="M25.5481 24.0526C25.1354 24.0297 24.7223 24.0901 24.3334 24.23C23.9445 24.3699 23.5877 24.5866 23.2841 24.8671C22.9806 25.1476 22.7365 25.4863 22.5664 25.863C22.3963 26.2397 22.3036 26.6468 22.2939 27.06C22.2836 27.4715 22.3558 27.8809 22.5062 28.2641C22.6566 28.6473 22.8822 28.9965 23.1697 29.2911C23.4571 29.5858 23.8006 29.8199 24.18 29.9797C24.5593 30.1395 24.9668 30.2218 25.3785 30.2217C26.1756 30.2223 26.942 29.9143 27.5171 29.3623C28.0921 28.8102 28.4311 28.057 28.463 27.2605C28.4967 26.4499 28.2096 25.6587 27.664 25.0582C27.1184 24.4578 26.3582 24.0965 25.5481 24.0526ZM25.3476 29.4505C25.0438 29.4427 24.7446 29.3742 24.4676 29.2491C24.1905 29.1241 23.9413 28.945 23.7344 28.7223C23.5276 28.4996 23.3673 28.2379 23.2629 27.9525C23.1586 27.667 23.1122 27.3636 23.1267 27.06C23.1347 26.7555 23.203 26.4556 23.3279 26.1778C23.4528 25.9 23.6317 25.6497 23.8541 25.4416C24.0765 25.2336 24.3381 25.0718 24.6236 24.9657C24.9092 24.8596 25.213 24.8113 25.5173 24.8237C26.1324 24.8478 26.7128 25.1144 27.1319 25.5653C27.5509 26.0161 27.7744 26.6145 27.7535 27.2297C27.7255 27.8365 27.4615 28.4083 27.0178 28.8232C26.5741 29.2381 25.9858 29.4632 25.3785 29.4505H25.3476Z" fill="#0066B3"/>
<path d="M5.44982 26.8897C5.29845 26.878 5.15707 26.8095 5.05409 26.698C4.95111 26.5864 4.89408 26.44 4.89453 26.2882C5.02985 22.2798 6.37728 18.4066 8.75897 15.1796C11.1407 11.9526 14.4447 9.52349 18.2352 8.21278C18.3081 8.19175 18.3846 8.18547 18.4599 8.19432C18.5353 8.20316 18.6081 8.22696 18.6742 8.2643C18.7402 8.30163 18.7982 8.35178 18.8446 8.41178C18.8911 8.47179 18.9251 8.54046 18.9447 8.61378C18.9682 8.68562 18.9768 8.76152 18.9699 8.83681C18.9631 8.91209 18.9409 8.98519 18.9048 9.05162C18.8687 9.11804 18.8195 9.17639 18.76 9.2231C18.7006 9.2698 18.6322 9.30387 18.5591 9.32322C14.985 10.5252 11.8675 12.7981 9.62979 15.8332C7.3921 18.8683 6.14264 22.5185 6.05124 26.2882C6.0557 26.3684 6.04327 26.4486 6.01462 26.5236C5.98597 26.5986 5.94177 26.6667 5.885 26.7234C5.82823 26.7802 5.76015 26.8244 5.68516 26.853C5.61016 26.8817 5.52998 26.8942 5.44982 26.8897Z" fill="#232323"/>
<path d="M45.4268 28.3399C45.3505 28.3379 45.2754 28.3207 45.2058 28.2892C45.1363 28.2577 45.0738 28.2125 45.022 28.1565C44.9702 28.1004 44.9303 28.0345 44.9044 27.9627C44.8786 27.8908 44.8674 27.8146 44.8716 27.7384C45.072 23.9647 44.0986 20.2217 42.0853 17.0236C40.0721 13.8256 37.1177 11.3297 33.6283 9.87886C33.4869 9.8235 33.3724 9.71537 33.3091 9.57727C33.2458 9.43916 33.2387 9.28187 33.2891 9.13857C33.313 9.06594 33.3516 8.99904 33.4025 8.94204C33.4535 8.88504 33.5156 8.83918 33.5851 8.80732C33.6546 8.77547 33.73 8.75831 33.8064 8.75693C33.8829 8.75554 33.9587 8.76995 34.0294 8.79926C37.7153 10.3784 40.8355 13.0385 42.9778 16.4282C45.1201 19.8179 46.1838 23.7777 46.0283 27.7846C46.0203 27.9374 45.9529 28.0809 45.8405 28.1847C45.7281 28.2884 45.5796 28.3441 45.4268 28.3399Z" fill="#232323"/>
<path d="M25.3784 48.467C20.0129 48.4739 14.842 46.4584 10.8964 42.8223C10.79 42.7129 10.7305 42.5663 10.7305 42.4136C10.7305 42.2609 10.79 42.1143 10.8964 42.0049C11.0058 41.8984 11.1525 41.8389 11.3051 41.8389C11.4578 41.8389 11.6045 41.8984 11.7139 42.0049C13.6714 43.8058 15.9649 45.2029 18.4632 46.1159C20.9615 47.029 23.6155 47.4401 26.2729 47.3257C30.5489 47.1516 34.6589 45.6232 38.0096 42.9611C38.1307 42.8661 38.2843 42.8225 38.4372 42.8399C38.5902 42.8572 38.7302 42.934 38.827 43.0536C38.922 43.1747 38.9655 43.3284 38.9482 43.4813C38.9309 43.6342 38.8541 43.7742 38.7344 43.871C35.1899 46.6884 30.843 48.3084 26.3191 48.4979L25.3784 48.467Z" fill="#232323"/>
<path d="M26.0249 13.7652C24.236 13.7611 22.5218 13.0476 21.2583 11.7812C19.9948 10.5148 19.2852 8.79895 19.2852 7.01004C19.2852 5.22113 19.9948 3.50526 21.2583 2.23887C22.5218 0.972473 24.236 0.258967 26.0249 0.254883C27.8152 0.258956 29.5311 0.971965 30.797 2.23792C32.063 3.50388 32.776 5.21971 32.78 7.01004C32.776 8.80036 32.063 10.5162 30.797 11.7822C29.5311 13.0481 27.8152 13.7611 26.0249 13.7652ZM26.0249 1.42701C25.2917 1.42701 24.5657 1.57142 23.8883 1.85199C23.211 2.13257 22.5956 2.54381 22.0771 3.06224C21.5587 3.58067 21.1474 4.19614 20.8669 4.8735C20.5863 5.55087 20.4419 6.27686 20.4419 7.01004C20.4419 8.49075 21.0301 9.91081 22.0771 10.9578C23.1242 12.0049 24.5442 12.5931 26.0249 12.5931C27.507 12.5931 28.9287 12.0054 29.9782 10.9588C31.0276 9.91219 31.6193 8.49216 31.6233 7.01004C31.6193 5.52791 31.0276 4.10788 29.9782 3.0613C28.9287 2.01472 27.507 1.42701 26.0249 1.42701Z" fill="#232323"/>
<path d="M23.7094 8.16595C23.4039 8.16195 23.112 8.0388 22.8959 7.82274C22.6799 7.60667 22.5567 7.31478 22.5527 7.00924C22.5567 6.70371 22.6799 6.41181 22.8959 6.19575C23.112 5.97968 23.4039 5.85653 23.7094 5.85254C24.0162 5.85254 24.3104 5.9744 24.5274 6.19133C24.7443 6.40825 24.8661 6.70247 24.8661 7.00924C24.8661 7.31602 24.7443 7.61023 24.5274 7.82716C24.3104 8.04408 24.0162 8.16595 23.7094 8.16595ZM23.7094 6.62368C23.6072 6.62368 23.5091 6.6643 23.4368 6.73661C23.3645 6.80891 23.3239 6.90698 23.3239 7.00924C23.3239 7.1115 23.3645 7.20957 23.4368 7.28188C23.5091 7.35419 23.6072 7.39481 23.7094 7.39481C23.8117 7.39481 23.9098 7.35419 23.9821 7.28188C24.0544 7.20957 24.095 7.1115 24.095 7.00924C24.095 6.90698 24.0544 6.80891 23.9821 6.73661C23.9098 6.6643 23.8117 6.62368 23.7094 6.62368Z" fill="#232323"/>
<path d="M28.3364 8.16595C28.0309 8.16195 27.739 8.0388 27.5229 7.82274C27.3068 7.60667 27.1837 7.31478 27.1797 7.00924C27.1837 6.70371 27.3068 6.41181 27.5229 6.19575C27.739 5.97968 28.0309 5.85653 28.3364 5.85254C28.6432 5.85254 28.9374 5.9744 29.1543 6.19133C29.3712 6.40825 29.4931 6.70247 29.4931 7.00924C29.4931 7.31602 29.3712 7.61023 29.1543 7.82716C28.9374 8.04408 28.6432 8.16595 28.3364 8.16595ZM28.3364 6.62368C28.2341 6.62368 28.1361 6.6643 28.0638 6.73661C27.9915 6.80891 27.9508 6.90698 27.9508 7.00924C27.9508 7.1115 27.9915 7.20957 28.0638 7.28188C28.1361 7.35419 28.2341 7.39481 28.3364 7.39481C28.4387 7.39481 28.5368 7.35419 28.6091 7.28188C28.6814 7.20957 28.722 7.1115 28.722 7.00924C28.722 6.90698 28.6814 6.80891 28.6091 6.73661C28.5368 6.6643 28.4387 6.62368 28.3364 6.62368Z" fill="#232323"/>
<path d="M6.87235 41.5269C5.08202 41.5228 3.36614 40.8098 2.10019 39.5439C0.834235 38.2779 0.121261 36.5621 0.117188 34.7718C0.121261 32.9814 0.834235 31.2656 2.10019 29.9996C3.36614 28.7337 5.08202 28.0207 6.87235 28.0166C8.66267 28.0207 10.3786 28.7337 11.6445 29.9996C12.9105 31.2656 13.6234 32.9814 13.6275 34.7718C13.6234 36.5621 12.9105 38.2779 11.6445 39.5439C10.3786 40.8098 8.66267 41.5228 6.87235 41.5269ZM6.87235 29.1887C5.39164 29.1887 3.97153 29.7769 2.92451 30.824C1.87749 31.871 1.28933 33.291 1.28933 34.7718C1.28933 36.2525 1.87749 37.6725 2.92451 38.7195C3.97153 39.7666 5.39164 40.3548 6.87235 40.3548C8.35306 40.3548 9.77316 39.7666 10.8202 38.7195C11.8672 37.6725 12.4554 36.2525 12.4554 34.7718C12.4554 33.291 11.8672 31.871 10.8202 30.824C9.77316 29.7769 8.35306 29.1887 6.87235 29.1887Z" fill="#232323"/>
<path d="M6.87155 35.9277C6.56601 35.9237 6.27412 35.8005 6.05805 35.5845C5.84199 35.3684 5.71884 35.0765 5.71484 34.771C5.71884 34.4654 5.84199 34.1735 6.05805 33.9575C6.27412 33.7414 6.56601 33.6183 6.87155 33.6143C7.17708 33.6183 7.46898 33.7414 7.68504 33.9575C7.90111 34.1735 8.02426 34.4654 8.02825 34.771C8.02426 35.0765 7.90111 35.3684 7.68504 35.5845C7.46898 35.8005 7.17708 35.9237 6.87155 35.9277ZM6.87155 34.3854C6.76929 34.3854 6.67125 34.426 6.59894 34.4983C6.52663 34.5706 6.48598 34.6687 6.48598 34.771C6.48598 34.8732 6.52663 34.9713 6.59894 35.0436C6.67125 35.1159 6.76929 35.1565 6.87155 35.1565C6.97381 35.1565 7.07185 35.1159 7.14416 35.0436C7.21646 34.9713 7.25712 34.8732 7.25712 34.771C7.25712 34.6687 7.21646 34.5706 7.14416 34.4983C7.07185 34.426 6.97381 34.3854 6.87155 34.3854Z" fill="#232323"/>
<path d="M43.1145 43.0269C41.3242 43.0228 39.6083 42.3098 38.3424 41.0439C37.0764 39.7779 36.3634 38.0621 36.3594 36.2718C36.3634 34.4814 37.0764 32.7656 38.3424 31.4996C39.6083 30.2337 41.3242 29.5207 43.1145 29.5166C44.9049 29.5207 46.6207 30.2337 47.8867 31.4996C49.1526 32.7656 49.8656 34.4814 49.8697 36.2718C49.8656 38.0621 49.1526 39.7779 47.8867 41.0439C46.6207 42.3098 44.9049 43.0228 43.1145 43.0269ZM43.1145 30.6887C41.6338 30.6887 40.2137 31.2769 39.1667 32.324C38.1197 33.371 37.5315 34.791 37.5315 36.2718C37.5315 37.7525 38.1197 39.1725 39.1667 40.2195C40.2137 41.2666 41.6338 41.8548 43.1145 41.8548C44.5952 41.8548 46.0154 41.2666 47.0624 40.2195C48.1094 39.1725 48.6976 37.7525 48.6976 36.2718C48.6976 34.791 48.1094 33.371 47.0624 32.324C46.0154 31.2769 44.5952 30.6887 43.1145 30.6887Z" fill="#232323"/>
<path d="M40.8012 38.9706C40.4957 38.9666 40.2038 38.8435 39.9877 38.6274C39.7717 38.4114 39.6485 38.1195 39.6445 37.8139C39.6485 37.5084 39.7717 37.2165 39.9877 37.0004C40.2038 36.7844 40.4957 36.6612 40.8012 36.6572C41.1068 36.6612 41.3987 36.7844 41.6147 37.0004C41.8308 37.2165 41.9539 37.5084 41.9579 37.8139C41.9539 38.1195 41.8308 38.4114 41.6147 38.6274C41.3987 38.8435 41.1068 38.9666 40.8012 38.9706ZM40.8012 37.4284C40.699 37.4284 40.6009 37.469 40.5286 37.5413C40.4563 37.6136 40.4157 37.7117 40.4157 37.8139C40.4157 37.9162 40.4563 38.0143 40.5286 38.0866C40.6009 38.1589 40.699 38.1995 40.8012 38.1995C40.9035 38.1995 41.0015 38.1589 41.0738 38.0866C41.1462 38.0143 41.1868 37.9162 41.1868 37.8139C41.1868 37.7117 41.1462 37.6136 41.0738 37.5413C41.0015 37.469 40.9035 37.4284 40.8012 37.4284Z" fill="#232323"/>
<path d="M45.4262 38.9706C45.1207 38.9666 44.8288 38.8435 44.6127 38.6274C44.3967 38.4114 44.2735 38.1195 44.2695 37.8139C44.2735 37.5084 44.3967 37.2165 44.6127 37.0004C44.8288 36.7844 45.1207 36.6612 45.4262 36.6572C45.7318 36.6612 46.0237 36.7844 46.2397 37.0004C46.4558 37.2165 46.5789 37.5084 46.5829 37.8139C46.5789 38.1195 46.4558 38.4114 46.2397 38.6274C46.0237 38.8435 45.7318 38.9666 45.4262 38.9706ZM45.4262 37.4284C45.324 37.4284 45.2259 37.469 45.1536 37.5413C45.0813 37.6136 45.0407 37.7117 45.0407 37.8139C45.0407 37.9162 45.0813 38.0143 45.1536 38.0866C45.2259 38.1589 45.324 38.1995 45.4262 38.1995C45.5285 38.1995 45.6265 38.1589 45.6988 38.0866C45.7712 38.0143 45.8118 37.9162 45.8118 37.8139C45.8118 37.7117 45.7712 37.6136 45.6988 37.5413C45.6265 37.469 45.5285 37.4284 45.4262 37.4284Z" fill="#232323"/>
<path d="M43.1157 35.8867C42.8102 35.8827 42.5183 35.7595 42.3022 35.5434C42.0861 35.3274 41.963 35.0355 41.959 34.7299C41.963 34.4244 42.0861 34.1325 42.3022 33.9165C42.5183 33.7004 42.8102 33.5772 43.1157 33.5732C43.4212 33.5772 43.7131 33.7004 43.9292 33.9165C44.1452 34.1325 44.2684 34.4244 44.2724 34.7299C44.2684 35.0355 44.1452 35.3274 43.9292 35.5434C43.7131 35.7595 43.4212 35.8827 43.1157 35.8867ZM43.1157 34.3444C43.0134 34.3444 42.9154 34.385 42.8431 34.4573C42.7708 34.5296 42.7301 34.6277 42.7301 34.7299C42.7301 34.8322 42.7708 34.9303 42.8431 35.0026C42.9154 35.0749 43.0134 35.1155 43.1157 35.1155C43.2179 35.1155 43.316 35.0749 43.3883 35.0026C43.4606 34.9303 43.5013 34.8322 43.5013 34.7299C43.5013 34.6277 43.4606 34.5296 43.3883 34.4573C43.316 34.385 43.2179 34.3444 43.1157 34.3444Z" fill="#232323"/>
</g>
<defs>
<clipPath id="clip0_2901_4231">
<rect width="49.7383" height="48.2114" fill="white" transform="translate(0.130859 0.254883)"/>
</clipPath>
</defs>
</svg>
