<svg width="69" height="64" viewBox="0 0 69 64" fill="none" xmlns="http://www.w3.org/2000/svg">
<g filter="url(#filter0_d_1309_54361)">
<g clip-path="url(#clip0_1309_54361)">
<path d="M60.8171 6.06266C60.9968 6.06266 61.1747 6.098 61.3408 6.16677C61.5068 6.23554 61.6576 6.33637 61.7847 6.46343C61.9117 6.5905 62.0126 6.74132 62.0813 6.90734C62.1501 7.07336 62.1854 7.2513 62.1854 7.43099V52.4935C62.1854 52.8565 62.0413 53.2045 61.7847 53.4611C61.528 53.7177 61.18 53.8619 60.8171 53.8619H7.39439C7.02973 53.862 6.67968 53.7184 6.42008 53.4623C6.16048 53.2062 6.01222 52.8582 6.00729 52.4935V7.50599C6.01222 7.14136 6.16048 6.79332 6.42008 6.53723C6.67968 6.28113 7.02973 6.13756 7.39439 6.1376H60.8171M60.8171 4.26311H7.39439C6.5326 4.2631 5.70578 4.60418 5.09465 5.2118C4.48352 5.81942 4.13777 6.64421 4.13281 7.50599V52.4935C4.13777 53.3553 4.48352 54.1801 5.09465 54.7877C5.70578 55.3954 6.5326 55.7364 7.39439 55.7364H60.8171C61.6772 55.7364 62.5019 55.3947 63.1101 54.7866C63.7183 54.1784 64.0599 53.3536 64.0599 52.4935V7.50599C64.0599 7.08013 63.9761 6.65843 63.8131 6.26499C63.6502 5.87155 63.4112 5.51407 63.1101 5.21294C62.809 4.91181 62.4515 4.67298 62.0581 4.51001C61.6647 4.34704 61.243 4.26311 60.8171 4.26311Z" fill="white"/>
<path d="M9.34341 11.1049C10.0163 11.1049 10.5618 10.5594 10.5618 9.88644C10.5618 9.21353 10.0163 8.66803 9.34341 8.66803C8.6705 8.66803 8.125 9.21353 8.125 9.88644C8.125 10.5594 8.6705 11.1049 9.34341 11.1049Z" fill="white"/>
<path d="M13.0934 11.1049C13.7663 11.1049 14.3118 10.5594 14.3118 9.88644C14.3118 9.21353 13.7663 8.66803 13.0934 8.66803C12.4205 8.66803 11.875 9.21353 11.875 9.88644C11.875 10.5594 12.4205 11.1049 13.0934 11.1049Z" fill="white"/>
<path d="M16.8412 11.1049C17.5141 11.1049 18.0596 10.5594 18.0596 9.88644C18.0596 9.21353 17.5141 8.66803 16.8412 8.66803C16.1683 8.66803 15.6228 9.21353 15.6228 9.88644C15.6228 10.5594 16.1683 11.1049 16.8412 11.1049Z" fill="white"/>
<path d="M63.1773 12.4922H5.06836V14.3667H63.1773V12.4922Z" fill="white"/>
<path d="M22.1472 21.0775V28.5754H11.144V21.0775H22.1097M22.1097 19.203H11.144C10.6469 19.203 10.1701 19.4005 9.81858 19.7521C9.46705 20.1036 9.26953 20.5803 9.26953 21.0775V28.5754C9.26953 29.0726 9.46705 29.5494 9.81858 29.9009C10.1701 30.2524 10.6469 30.4499 11.144 30.4499H22.1097C22.6068 30.4499 23.0837 30.2524 23.4352 29.9009C23.7868 29.5494 23.9842 29.0726 23.9842 28.5754V21.0775C23.9842 20.5803 23.7868 20.1036 23.4352 19.7521C23.0837 19.4005 22.6068 19.203 22.1097 19.203Z" fill="white"/>
<path d="M55.1938 21.0773V43.1212H31.8003V21.1148H55.1938M55.1938 19.2404H31.8003C31.3031 19.2404 30.8263 19.4378 30.4747 19.7893C30.1232 20.1409 29.9258 20.6177 29.9258 21.1148V43.1212C29.9258 43.6184 30.1232 44.0951 30.4747 44.4467C30.8263 44.7982 31.3031 44.9957 31.8003 44.9957H55.1938C55.6909 44.9957 56.1676 44.7982 56.5192 44.4467C56.8707 44.0951 57.0682 43.6184 57.0682 43.1212V21.1148C57.0682 20.6177 56.8707 20.1409 56.5192 19.7893C56.1676 19.4378 55.6909 19.2404 55.1938 19.2404Z" fill="white"/>
<path d="M22.1472 36.0733V43.5713H11.144V36.0733H22.1097M22.1097 34.1989H11.144C10.6469 34.1989 10.1701 34.3964 9.81858 34.7479C9.46705 35.0994 9.26953 35.5762 9.26953 36.0733V43.5713C9.26953 44.0684 9.46705 44.5452 9.81858 44.8967C10.1701 45.2483 10.6469 45.4457 11.144 45.4457H22.1097C22.6068 45.4457 23.0837 45.2483 23.4352 44.8967C23.7868 44.5452 23.9842 44.0684 23.9842 43.5713V36.0733C23.9842 35.5762 23.7868 35.0994 23.4352 34.7479C23.0837 34.3964 22.6068 34.1989 22.1097 34.1989Z" fill="white"/>
<path d="M33.7129 44.2086L32.1758 43.1402L37.4432 35.4923C37.7012 35.1143 38.048 34.8055 38.4533 34.5931C38.8586 34.3806 39.3099 34.271 39.7675 34.2739C40.2332 34.2916 40.6873 34.4241 41.0895 34.6595C41.4917 34.895 41.8296 35.2261 42.0731 35.6235L43.1603 37.498L41.567 38.4727L40.4611 36.5982C40.3891 36.4683 40.2866 36.3579 40.1626 36.2762C40.0385 36.1946 39.8965 36.1443 39.7488 36.1296C39.5997 36.1176 39.4503 36.1504 39.3201 36.2239C39.1898 36.2974 39.0845 36.4082 39.0177 36.542L33.7129 44.2086Z" fill="white"/>
<path d="M39.0919 44.2275L37.5549 43.1403L44.0781 33.9928C44.3156 33.6152 44.6488 33.307 45.0438 33.0996C45.4388 32.8922 45.8817 32.793 46.3275 32.8119C46.7711 32.8145 47.2071 32.9273 47.5964 33.1399C47.9857 33.3526 48.3162 33.6585 48.5581 34.0303L54.7814 43.159L53.2256 44.2087L47.0023 35.0988C46.9317 34.9764 46.8308 34.8742 46.7094 34.802C46.5879 34.7298 46.45 34.6899 46.3087 34.6864C46.1668 34.6883 46.0274 34.7252 45.9031 34.7939C45.7789 34.8625 45.6736 34.9608 45.5964 35.08L39.0919 44.2275Z" fill="white"/>
<path d="M49.5712 31.8743C48.8297 31.8743 48.1049 31.6544 47.4884 31.2424C46.8719 30.8305 46.3913 30.245 46.1076 29.56C45.8238 28.875 45.7497 28.1212 45.8943 27.394C46.039 26.6667 46.396 25.9987 46.9203 25.4744C47.4446 24.9501 48.1126 24.593 48.8398 24.4484C49.567 24.3037 50.3209 24.378 51.0059 24.6617C51.6909 24.9455 52.2765 25.426 52.6884 26.0425C53.1003 26.659 53.3202 27.3838 53.3202 28.1253C53.3202 29.1196 52.9251 30.0732 52.2221 30.7762C51.519 31.4793 50.5655 31.8743 49.5712 31.8743ZM49.5712 26.2508C49.2005 26.2508 48.8381 26.3607 48.5299 26.5667C48.2216 26.7727 47.9813 27.0654 47.8394 27.408C47.6975 27.7505 47.6604 28.1274 47.7328 28.491C47.8051 28.8546 47.9836 29.1886 48.2458 29.4507C48.5079 29.7129 48.8419 29.8914 49.2056 29.9638C49.5692 30.0361 49.946 29.999 50.2886 29.8571C50.6311 29.7153 50.9238 29.475 51.1298 29.1667C51.3358 28.8585 51.4457 28.496 51.4457 28.1253C51.4457 27.6282 51.2482 27.1514 50.8966 26.7999C50.5451 26.4483 50.0684 26.2508 49.5712 26.2508Z" fill="white"/>
<path d="M48.1624 11.0305C47.8354 11.0343 47.5147 10.9407 47.241 10.7617C46.9672 10.5827 46.7528 10.3264 46.6251 10.0253C46.4974 9.72427 46.4621 9.39203 46.5236 9.07083C46.5851 8.74962 46.7407 8.45397 46.9706 8.2214C47.2005 7.98882 47.4945 7.82986 47.8149 7.76467C48.1354 7.69949 48.468 7.73101 48.7705 7.85529C49.073 7.97957 49.3317 8.19097 49.5138 8.46263C49.6959 8.73428 49.7932 9.05395 49.7932 9.38099C49.7932 9.81525 49.622 10.232 49.3167 10.5408C49.0114 10.8496 48.5966 11.0256 48.1624 11.0305ZM48.1624 8.21882C47.9334 8.22252 47.7106 8.2938 47.5219 8.42373C47.3333 8.55365 47.1873 8.73644 47.1022 8.9491C47.0171 9.16175 46.9967 9.39483 47.0436 9.61902C47.0905 9.84321 47.2027 10.0485 47.366 10.2092C47.5293 10.3699 47.7364 10.4786 47.9613 10.522C48.1862 10.5653 48.4188 10.5413 48.6301 10.4528C48.8414 10.3643 49.0218 10.2153 49.1487 10.0247C49.2756 9.83396 49.3433 9.61004 49.3433 9.38099C49.3384 9.07105 49.2118 8.77547 48.9908 8.55804C48.7699 8.34062 48.4724 8.21878 48.1624 8.21882Z" fill="white"/>
<path d="M26.4022 22.1083H25.9336C28.108 6.77504 46.5529 9.19313 46.7966 9.23062V9.68048C46.5529 9.58675 28.5204 7.22491 26.4022 22.1083Z" fill="white"/>
<path d="M24.6016 20.1963L24.9952 19.9338L26.2324 21.902L28.0881 20.5337L28.3693 20.9086L26.1011 22.5769L24.6016 20.1963Z" fill="white"/>
<path d="M16.2604 41.5658C16.0302 41.5904 15.7975 41.5663 15.5773 41.4951C15.3571 41.4239 15.1543 41.3071 14.9822 41.1525C14.81 40.9978 14.6724 40.8086 14.5782 40.5972C14.484 40.3858 14.4353 40.157 14.4353 39.9256C14.4353 39.6942 14.484 39.4653 14.5782 39.2539C14.6724 39.0425 14.81 38.8534 14.9822 38.6987C15.1543 38.544 15.3571 38.4272 15.5773 38.356C15.7975 38.2848 16.0302 38.2608 16.2604 38.2854C16.6651 38.3287 17.0396 38.5202 17.3117 38.823C17.5838 39.1258 17.7343 39.5185 17.7343 39.9256C17.7343 40.3327 17.5838 40.7254 17.3117 41.0281C17.0396 41.3309 16.6651 41.5224 16.2604 41.5658ZM16.2604 38.754C15.9504 38.754 15.6529 38.8758 15.4319 39.0933C15.211 39.3107 15.0843 39.6063 15.0794 39.9162C15.0584 40.0825 15.073 40.2514 15.1222 40.4116C15.1715 40.5718 15.2542 40.7197 15.365 40.8454C15.4758 40.9712 15.6122 41.0719 15.765 41.1409C15.9177 41.2099 16.0834 41.2456 16.251 41.2456C16.4186 41.2456 16.5843 41.2099 16.7371 41.1409C16.8899 41.0719 17.0261 40.9712 17.137 40.8454C17.2478 40.7197 17.3306 40.5718 17.3799 40.4116C17.4291 40.2514 17.4436 40.0825 17.4225 39.9162C17.4225 39.608 17.3001 39.3124 17.0822 39.0944C16.8642 38.8765 16.5686 38.754 16.2604 38.754Z" fill="white"/>
<path d="M20.5343 40.3095C19.563 40.3239 18.592 40.2675 17.6289 40.1408V39.6909C17.7976 39.6909 35.8301 42.0715 37.9482 27.1881H38.4168C36.8423 38.8661 25.8579 40.3095 20.5343 40.3095Z" fill="white"/>
<path d="M39.8029 29.1002L39.4092 29.3626L38.1908 27.3944L36.3163 28.7628L36.0352 28.3691L38.322 26.7196L39.8029 29.1002Z" fill="white"/>
</g>
</g>
<defs>
<filter id="filter0_d_1309_54361" x="0.109375" y="0" width="68.0068" height="68" filterUnits="userSpaceOnUse" color-interpolation-filters="sRGB">
<feFlood flood-opacity="0" result="BackgroundImageFix"/>
<feColorMatrix in="SourceAlpha" type="matrix" values="0 0 0 0 0 0 0 0 0 0 0 0 0 0 0 0 0 0 127 0" result="hardAlpha"/>
<feOffset dy="4"/>
<feGaussianBlur stdDeviation="2"/>
<feComposite in2="hardAlpha" operator="out"/>
<feColorMatrix type="matrix" values="0 0 0 0 0 0 0 0 0 0 0 0 0 0 0 0 0 0 0.25 0"/>
<feBlend mode="normal" in2="BackgroundImageFix" result="effect1_dropShadow_1309_54361"/>
<feBlend mode="normal" in="SourceGraphic" in2="effect1_dropShadow_1309_54361" result="shape"/>
</filter>
<clipPath id="clip0_1309_54361">
<rect width="59.9834" height="51.6232" fill="white" transform="translate(4.13281 4.18835)"/>
</clipPath>
</defs>
</svg>
