<svg width="56" height="55" viewBox="0 0 56 55" fill="none" xmlns="http://www.w3.org/2000/svg">
<path fill-rule="evenodd" clip-rule="evenodd" d="M9.80384 0.50684H45.3524C46.6328 0.505634 47.9008 0.756929 49.0839 1.24634C50.2671 1.73576 51.3421 2.45368 52.2474 3.35904C53.1528 4.26439 53.8707 5.33939 54.3601 6.52252C54.8495 7.70565 55.1008 8.97367 55.0996 10.254V44.4265C55.1008 45.7069 54.8495 46.9749 54.3601 48.1581C53.8707 49.3412 53.1528 50.4162 52.2474 51.3215C51.3421 52.2269 50.2671 52.9448 49.0839 53.4342C47.9008 53.9236 46.6328 54.1749 45.3524 54.1737H9.80384C8.52348 54.1749 7.25545 53.9236 6.07232 53.4342C4.88919 52.9448 3.81419 52.2269 2.90884 51.3215C2.00349 50.4162 1.28556 49.3412 0.796148 48.1581C0.306733 46.9749 0.0554382 45.7069 0.056645 44.4265V10.254C0.0554382 8.97367 0.306733 7.70565 0.796148 6.52252C1.28556 5.33939 2.00349 4.26439 2.90884 3.35904C3.81419 2.45368 4.88919 1.73576 6.07232 1.24634C7.25545 0.756929 8.52348 0.505634 9.80384 0.50684ZM12.4399 38.1426V14.5429C12.4399 14.3824 12.5087 14.2906 12.6692 14.2906H12.6693C13.0592 14.2906 13.4261 14.2906 13.9536 14.2677C14.2275 14.2558 14.5199 14.2501 14.8244 14.2441L14.8245 14.2441C15.1065 14.2386 15.3989 14.2329 15.6966 14.2218C16.0169 14.21 16.3494 14.2042 16.6942 14.1983H16.6943C17.0161 14.1928 17.3487 14.187 17.6919 14.176C18.4029 14.153 19.0909 14.153 19.779 14.153C21.6596 14.153 23.2192 14.3824 24.5035 14.864C25.6548 15.255 26.7046 15.8974 27.5767 16.7446C28.3157 17.4861 28.8867 18.3777 29.2509 19.3592C29.5981 20.315 29.7766 21.3238 29.7784 22.3407C29.7784 24.313 29.3197 25.9414 28.4024 27.2257C27.4807 28.5083 26.194 29.4834 24.7099 30.0238C23.1503 30.5971 21.4303 30.8035 19.5496 30.8035C18.9992 30.8035 18.6322 30.8035 18.4029 30.7806C18.1735 30.7577 17.8525 30.7577 17.4167 30.7577V38.1197C17.4218 38.1574 17.4193 38.1958 17.4093 38.2325C17.3993 38.2693 17.382 38.3036 17.3585 38.3336C17.335 38.3635 17.3057 38.3884 17.2723 38.4069C17.239 38.4253 17.2023 38.4368 17.1644 38.4407H12.7151C12.5316 38.4407 12.4399 38.349 12.4399 38.1426ZM17.4396 18.717V26.423L17.5084 26.428C17.8034 26.4491 18.0786 26.4689 18.3341 26.4689H19.5496C20.445 26.47 21.3349 26.3307 22.1871 26.0561C22.9182 25.8411 23.5714 25.4189 24.0677 24.8405C24.5494 24.2672 24.7787 23.4874 24.7787 22.4783C24.8003 21.7616 24.6173 21.0536 24.2512 20.4371C23.8688 19.8416 23.3064 19.3837 22.6458 19.1298C21.7848 18.7926 20.8635 18.6365 19.9395 18.6711C19.3432 18.6711 18.8157 18.6711 18.38 18.6941C18.0665 18.6736 17.7518 18.6813 17.4396 18.717ZM41.8875 24.2442C42.6552 24.3966 43.3967 24.6592 44.0892 25.0239C44.2226 25.0719 44.3686 25.0719 44.502 25.0239C44.5379 24.9975 44.567 24.9629 44.5869 24.923C44.6069 24.8832 44.6171 24.8392 44.6167 24.7946V21.0563C44.6127 20.963 44.5973 20.8706 44.5708 20.781C44.5247 20.6846 44.4423 20.6103 44.3415 20.5746C43.709 20.316 43.0463 20.1388 42.3691 20.0471C41.4274 19.91 40.4769 19.841 39.5252 19.8407C37.8969 19.8407 36.5437 20.093 35.4658 20.6434C34.4766 21.1 33.6403 21.8327 33.0577 22.7534C32.5508 23.5906 32.2813 24.5499 32.2779 25.5285C32.2582 26.3398 32.4394 27.1435 32.8054 27.8678C33.2343 28.6391 33.8298 29.3051 34.5484 29.8173C35.5574 30.5072 36.6523 31.0623 37.8051 31.4686C38.9289 31.9043 39.6858 32.2483 40.0527 32.5465C40.4197 32.8446 40.6032 33.1428 40.6032 33.4639C40.6022 33.6667 40.5435 33.865 40.4338 34.0356C40.3241 34.2063 40.1681 34.3421 39.9839 34.4271C39.5711 34.6335 38.9519 34.7482 38.0804 34.7482C37.1673 34.7497 36.2577 34.6341 35.3741 34.4042C34.3732 34.1804 33.4136 33.8012 32.5302 33.2804C32.5028 33.2549 32.4679 33.2389 32.4308 33.2348C32.3936 33.2307 32.3561 33.2386 32.3238 33.2575C32.2934 33.2822 32.2692 33.3138 32.2533 33.3497C32.2373 33.3856 32.2301 33.4247 32.232 33.4639V37.4545C32.227 37.5438 32.2482 37.6326 32.293 37.7101C32.3379 37.7875 32.4044 37.8501 32.4843 37.8902C33.2281 38.2376 34.0148 38.4844 34.8237 38.6241C35.8509 38.8266 36.8957 38.9265 37.9427 38.9223C39.594 38.9223 40.9701 38.67 42.0939 38.1884C43.1303 37.772 44.0229 37.0627 44.6626 36.1472C45.2636 35.2449 45.5756 34.1809 45.557 33.0969C45.5793 32.278 45.3981 31.4663 45.0295 30.7346C44.5937 29.959 43.9709 29.3047 43.2177 28.8311C42.1104 28.136 40.9249 27.574 39.6858 27.1569C39.1353 26.9275 38.5849 26.6752 38.0574 26.4C37.7598 26.246 37.495 26.0357 37.2776 25.7808C37.1394 25.6117 37.059 25.4027 37.0483 25.1845C37.0525 24.9653 37.1159 24.7513 37.2318 24.5652C37.4037 24.3295 37.6571 24.166 37.9427 24.1066C38.3908 23.9841 38.8547 23.93 39.3188 23.946C40.1832 23.9533 41.0444 24.0532 41.8875 24.2442Z" fill="#B0D0E7"/>
</svg>
