<svg width="231" height="75" viewBox="0 0 231 75" fill="none" xmlns="http://www.w3.org/2000/svg">
<g clip-path="url(#clip0_4756_7281)">
<path d="M91.9801 37.6154C91.9801 31.7782 90.3151 28.7781 86.9849 28.6151C85.6621 28.5507 84.3407 28.768 83.1081 29.2525C82.3635 29.469 81.6707 29.8346 81.0716 30.3269V44.2623C83.2097 45.5987 85.0993 46.2188 86.7404 46.1225C90.2336 45.89 91.9801 43.0543 91.9801 37.6154ZM96.0854 37.8559C96.0854 40.8226 95.3878 43.2841 93.9927 45.2405C93.2803 46.3032 92.3149 47.1721 91.1833 47.7691C90.0517 48.366 88.7894 48.6723 87.5101 48.6603C85.4254 48.7297 83.2792 48.0789 81.0716 46.7079V59.3724L77.4995 58.0975V29.9862C78.1326 29.2341 78.8975 28.6038 79.7566 28.126C81.8948 26.8858 84.4779 26.2511 87.5061 26.2217L87.5542 26.2698C88.832 26.2106 90.1022 26.497 91.231 27.0988C92.3598 27.7006 93.3056 28.5956 93.9687 29.6895C95.3798 31.8116 96.0854 34.5338 96.0854 37.8559Z" fill="#B0D0E7"/>
<path d="M117.915 46.1666C117.915 50.1463 117.514 52.9018 116.712 54.4333C115.91 55.9647 114.384 57.1861 112.134 58.0975C110.244 58.8284 108.242 59.2272 106.216 59.2762L105.627 57.0231C107.171 56.8555 108.698 56.5618 110.193 56.1451C111.925 55.5598 113.112 54.6618 113.765 53.4551C114.3 52.4769 114.561 50.606 114.547 47.8424V46.9123C112.137 48.0135 109.516 48.5798 106.866 48.5721C105.168 48.5953 103.518 48.0061 102.219 46.9123C101.51 46.3764 100.936 45.6808 100.545 44.8819C100.155 44.083 99.9576 43.2032 99.9703 42.314V27.4444L103.542 26.2217V41.1834C103.542 42.787 104.058 44.0178 105.09 44.8757C106.227 45.7711 107.655 46.2151 109.099 46.1225C110.735 46.0865 112.491 45.453 114.355 44.2142V26.7589H117.927L117.915 46.1666Z" fill="#B0D0E7"/>
<path d="M131.842 48.4678C131.413 48.4999 131.041 48.5159 130.664 48.5159C128.643 48.5159 127.07 48.0348 125.945 47.0727C124.82 46.1105 124.259 44.7742 124.261 43.0636V29.0039H121.82V26.7589H124.269V20.7935L127.837 19.5226V26.7589H131.846V29.0039H127.837V42.9754C127.837 44.3118 128.196 45.2606 128.912 45.8219C129.532 46.2789 130.511 46.5462 131.85 46.6237L131.842 48.4678Z" fill="#B0D0E7"/>
<path d="M153.491 48.1712H149.919V34.3881C149.951 33.1153 149.609 31.861 148.937 30.78C148.61 30.2422 148.147 29.8006 147.594 29.4999C147.041 29.1992 146.419 29.0502 145.79 29.0681C144.154 29.0681 142.107 29.9314 139.648 31.658V48.1832H136.076V15.2209L139.648 14.0944V29.1042C141.806 27.4837 144.433 26.6085 147.133 26.6106C147.991 26.579 148.845 26.7332 149.638 27.0626C150.431 27.3919 151.144 27.8887 151.727 28.5189C152.911 29.8093 153.544 31.5111 153.491 33.2616V48.1712Z" fill="#B0D0E7"/>
<path d="M172.466 37.0503C172.466 34.8079 172.041 32.9544 171.191 31.4898C170.735 30.6417 170.057 29.9329 169.231 29.4388C168.404 28.9447 167.459 28.6837 166.496 28.6834C162.584 28.908 160.627 31.7143 160.627 37.1024C160.627 39.5666 161.036 41.626 161.854 43.2803C162.904 45.3891 164.476 46.4261 166.569 46.3914C170.497 46.3459 172.463 43.2322 172.466 37.0503ZM176.375 37.0744C176.375 40.2816 175.559 42.9396 173.929 45.0483C172.138 47.4217 169.661 48.611 166.496 48.6164C163.332 48.6217 160.886 47.4324 159.16 45.0483C157.556 42.9235 156.754 40.2655 156.754 37.0744C156.754 34.0756 157.619 31.5486 159.348 29.4933C160.215 28.4325 161.314 27.5856 162.56 27.0183C163.807 26.451 165.168 26.1785 166.536 26.2219C167.912 26.1819 169.279 26.4557 170.534 27.0225C171.788 27.5893 172.897 28.4342 173.777 29.4933C175.511 31.5512 176.377 34.0783 176.375 37.0744Z" fill="#B0D0E7"/>
<path d="M196.853 48.171H193.281V33.6062C193.281 32.0026 192.8 30.7545 191.838 29.8618C190.879 28.9678 189.596 28.5308 187.997 28.5669C186.252 28.6151 184.564 29.1956 183.158 30.2306V48.171H179.586V29.7856C181.639 28.2889 183.53 27.312 185.259 26.855C186.662 26.4637 188.108 26.2508 189.564 26.2216C190.373 26.216 191.179 26.298 191.97 26.4661C193.259 26.7298 194.446 27.3572 195.39 28.2742C195.863 28.7287 196.238 29.2757 196.491 29.8813C196.744 30.4868 196.87 31.1379 196.861 31.7941L196.853 48.171Z" fill="#B0D0E7"/>
<path d="M42.2242 15.3532C40.5031 15.3547 38.7852 15.5008 37.0886 15.7902C32.5384 16.592 31.7125 18.2758 31.7125 21.3788V25.476H42.4648V26.8391H27.6794C24.5564 26.8391 21.8222 28.7193 20.9643 32.2914C19.9781 36.3846 19.934 38.9384 20.9643 43.216C21.73 46.3952 23.5541 48.6643 26.6772 48.6643H30.3735V43.7532C30.4086 41.9866 31.1285 40.3027 32.3813 39.0566C33.6341 37.8106 35.3219 37.0998 37.0886 37.0741H47.8248C48.5366 37.0694 49.2404 36.9244 49.8961 36.6473C50.5517 36.3701 51.1462 35.9664 51.6456 35.4592C52.1449 34.952 52.5394 34.3513 52.8063 33.6915C53.0732 33.0316 53.2073 32.3256 53.2009 31.6138V21.3788C53.2009 18.4642 50.7434 16.2753 47.8248 15.7902C45.9738 15.4855 44.1001 15.3394 42.2242 15.3532ZM36.4271 18.6606C36.8337 18.6519 37.2337 18.7644 37.5762 18.9837C37.9187 19.2031 38.1881 19.5194 38.3502 19.8924C38.5122 20.2654 38.5596 20.6782 38.4862 21.0783C38.4129 21.4783 38.2221 21.8474 37.9382 22.1387C37.6544 22.4299 37.2903 22.6301 36.8923 22.7137C36.4943 22.7973 36.0804 22.7605 35.7033 22.6081C35.3263 22.4556 35.0031 22.1944 34.7751 21.8577C34.547 21.521 34.4243 21.124 34.4226 20.7173C34.4183 20.1795 34.6265 19.6618 35.0018 19.2766C35.3772 18.8915 35.8894 18.6701 36.4271 18.6606Z" fill="#B0D0E7"/>
<path d="M54.5399 26.8391V31.6139C54.5399 35.3142 51.4048 38.4292 47.8247 38.4292H37.0885C35.657 38.4575 34.2932 39.0445 33.2887 40.0647C32.2841 41.085 31.7184 42.4577 31.7124 43.8895V54.1286C31.7124 57.0392 34.2461 58.7551 37.0885 59.5889C40.5835 60.6838 44.3298 60.6838 47.8247 59.5889C50.5308 58.7871 53.2008 57.2276 53.2008 54.1286V50.0314H42.4647V48.6643H58.5729C61.7 48.6643 62.8626 46.4834 63.9491 43.216C65.0716 39.8484 65.0235 36.6091 63.9491 32.2914C63.1753 29.1804 61.704 26.8391 58.5729 26.8391H54.5399ZM48.5022 52.7615C48.9095 52.7528 49.3102 52.8656 49.653 53.0857C49.9958 53.3058 50.2652 53.623 50.4268 53.997C50.5885 54.3709 50.6349 54.7846 50.5603 55.1851C50.4856 55.5855 50.2933 55.9547 50.0078 56.2453C49.7223 56.5359 49.3567 56.7348 48.9576 56.8166C48.5585 56.8984 48.1441 56.8593 47.7673 56.7044C47.3906 56.5495 47.0685 56.2858 46.8424 55.9469C46.6162 55.6081 46.4962 55.2095 46.4977 54.8021C46.4945 54.2662 46.7035 53.7507 47.0791 53.3684C47.4547 52.9861 47.9663 52.7679 48.5022 52.7615Z" fill="#B0D0E7"/>
<path d="M203.808 23.5758H204.434V19.647H205.917V19.1779H202.309V19.647H203.792V23.5758M206.454 23.5758H206.992V19.9877L208.15 23.5758H208.748L209.95 19.9998V23.5758H210.536V19.1659H209.762L208.439 22.9344L207.312 19.1659H206.446V23.5758" fill="#B0D0E7"/>
</g>
<defs>
<clipPath id="clip0_4756_7281">
<rect width="190.349" height="46.3124" fill="white" transform="translate(20.2065 14.0938)"/>
</clipPath>
</defs>
</svg>
