<svg width="60" height="60" viewBox="0 0 60 60" fill="none" xmlns="http://www.w3.org/2000/svg">
<path d="M52.0848 19.4479C48.8788 19.4479 46.2707 16.8397 46.2707 13.6342C46.2707 10.4283 48.8788 7.82013 52.0848 7.82013C55.2903 7.82013 57.8984 10.4283 57.8984 13.6342C57.8984 16.8397 55.2903 19.4479 52.0848 19.4479ZM52.0848 10.1459C50.1613 10.1459 48.5965 11.7108 48.5965 13.6342C48.5965 15.5571 50.1613 17.1225 52.0848 17.1225C54.0077 17.1225 55.5731 15.5571 55.5731 13.6342C55.5731 11.7108 54.0077 10.1459 52.0848 10.1459ZM56.7355 42.7029C56.5828 42.7031 56.4316 42.6731 56.2905 42.6148C56.1494 42.5564 56.0212 42.4708 55.9132 42.3628C55.8052 42.2548 55.7196 42.1266 55.6612 41.9855C55.6029 41.8444 55.5729 41.6932 55.5731 41.5405V26.4244C55.5731 25.1418 54.5298 24.0991 53.2472 24.0991H52.0848C51.2685 24.0991 50.5254 24.6387 49.5244 25.9642C48.401 27.4477 44.992 31.6334 44.8476 31.8101C44.7383 31.9439 44.6007 32.0517 44.4446 32.1257C44.2886 32.1997 44.118 32.2381 43.9453 32.2381H38.1317C37.4896 32.2381 36.9688 32.7593 36.9688 33.401V34.5639H46.8524L49.9915 30.3778C50.3764 29.8638 51.1054 29.7603 51.6185 30.1452C52.1324 30.5301 52.2367 31.2592 51.851 31.7719L48.3627 36.423C48.2548 36.5678 48.1147 36.6853 47.9534 36.7663C47.7921 36.8472 47.6141 36.8893 47.4336 36.8893H35.8058C35.6531 36.8894 35.5019 36.8594 35.3608 36.801C35.2196 36.7426 35.0914 36.6569 34.9834 36.5489C34.8755 36.4409 34.7899 36.3126 34.7315 36.1715C34.6732 36.0304 34.6432 35.8791 34.6434 35.7264V33.401C34.6434 31.4775 36.2082 29.9127 38.1317 29.9127H43.3918C44.3081 28.7847 46.7778 25.7384 47.6686 24.5606C48.651 23.2627 50.0391 21.7733 52.0848 21.7733H53.2472C55.8123 21.7733 57.8984 23.8594 57.8984 26.4244V41.5405C57.8984 42.1834 57.3785 42.7029 56.7355 42.7029ZM7.89959 19.4479C4.69408 19.4479 2.08594 16.8397 2.08594 13.6342C2.08594 10.4283 4.69408 7.82013 7.89959 7.82013C11.1055 7.82013 13.7137 10.4283 13.7137 13.6342C13.7137 16.8397 11.1055 19.4479 7.89959 19.4479ZM7.89959 10.1459C5.97668 10.1459 4.41131 11.7108 4.41131 13.6342C4.41131 15.5571 5.97668 17.1225 7.89959 17.1225C9.82305 17.1225 11.3879 15.5571 11.3879 13.6342C11.3879 11.7108 9.82305 10.1459 7.89959 10.1459ZM3.24884 42.7029C2.60678 42.7029 2.08594 42.1834 2.08594 41.5405V26.4244C2.08594 23.8594 4.17204 21.7733 6.73712 21.7733H7.89959C9.94525 21.7733 11.3347 23.2627 12.3149 24.5606C13.2066 25.7384 15.675 28.7847 16.5913 29.9127H21.8527C23.7762 29.9127 25.341 31.4775 25.341 33.401V35.7264C25.341 36.3693 24.8203 36.8893 24.1785 36.8893H12.5508C12.3702 36.8893 12.1922 36.8473 12.0307 36.7666C11.8692 36.6858 11.7287 36.5687 11.6204 36.4243L8.13211 31.7731C7.74622 31.2604 7.85109 30.5315 8.36506 30.1465C8.88111 29.7615 9.60885 29.8651 9.99289 30.379L13.132 34.5639H23.0156V33.401C23.0156 32.7593 22.4935 32.2381 21.8527 32.2381H16.0391C15.6891 32.2381 15.3591 32.0814 15.138 31.8101C14.9937 31.6335 11.5833 27.4476 10.4613 25.9629C9.45897 24.6385 8.71716 24.0991 7.89959 24.0991H6.73712C5.45453 24.0991 4.41131 25.1418 4.41131 26.4244V41.5405C4.41131 42.1834 3.89058 42.7029 3.24884 42.7029ZM29.9922 11.3084C27.4271 11.3084 25.341 9.22274 25.341 6.65766C25.341 4.09257 27.4271 2.00647 29.9922 2.00647C32.5573 2.00647 34.6434 4.09257 34.6434 6.65766C34.6434 9.22274 32.5573 11.3084 29.9922 11.3084ZM29.9922 4.33185C28.7096 4.33185 27.6668 5.37506 27.6668 6.65766C27.6668 7.94025 28.7096 8.98303 29.9922 8.98303C31.2748 8.98303 32.3176 7.94025 32.3176 6.65766C32.3176 5.37506 31.2748 4.33185 29.9922 4.33185ZM36.9688 22.9362C36.3258 22.9362 35.8058 22.4154 35.8058 21.7733V19.4479C35.8058 18.5166 35.4422 17.6412 34.7839 16.9816C34.126 16.3224 33.2501 15.9596 32.3176 15.9596H27.6668C26.7351 15.9596 25.8597 16.3224 25.2005 16.9816C24.5413 17.6411 24.1785 18.5166 24.1785 19.4479V21.7733C24.1785 22.4153 23.6574 22.9362 23.0156 22.9362C22.3739 22.9362 21.8527 22.4154 21.8527 21.7733V19.4479C21.8527 17.8967 22.4574 16.4365 23.5551 15.3375C24.655 14.2389 26.1156 13.6342 27.6668 13.6342H32.3176C33.8714 13.6342 35.3314 14.2398 36.428 15.3375C37.5257 16.4352 38.1317 17.8958 38.1317 19.4479V21.7733C38.1317 22.4153 37.6117 22.9362 36.9688 22.9362ZM28.8293 40.3776H31.1551V42.7029H28.8293V40.3776ZM24.1785 40.3776H26.5039V42.7029H24.1785V40.3776ZM33.4805 40.3776H35.8058V42.7029H33.4805V40.3776Z" fill="white"/>
<path d="M54.41 50.8425H5.57404C4.9323 50.8425 4.41113 50.3225 4.41113 49.6796V47.3542C4.41113 47.152 4.46346 46.953 4.56484 46.7775L9.21559 38.6382C9.53455 38.0811 10.246 37.8871 10.8018 38.2055C11.3588 38.524 11.5528 39.2348 11.2344 39.7917L6.73694 47.6632V48.5171H53.2471V47.6505L46.7845 35.795C46.4766 35.2325 46.6844 34.5256 47.2486 34.2186C47.8136 33.9103 48.5171 34.1186 48.8255 34.6823L55.4298 46.7985C55.5238 46.9686 55.5731 47.1598 55.5729 47.3542V49.6796C55.573 49.8323 55.543 49.9836 55.4846 50.1247C55.4262 50.2659 55.3405 50.3941 55.2325 50.5021C55.1245 50.6101 54.9963 50.6958 54.8551 50.7542C54.714 50.8126 54.5627 50.8426 54.41 50.8425ZM44.8985 31.0697C44.4195 31.0697 44.0068 30.7827 43.8289 30.3684L39.7675 22.9362H36.9686C36.3256 22.9362 35.8057 22.4155 35.8057 21.7733C35.8057 21.1316 36.3256 20.6108 36.9686 20.6108H40.4569C40.6657 20.6111 40.8706 20.6675 41.0502 20.774C41.2298 20.8805 41.3775 21.0333 41.4779 21.2164L45.9196 29.3443C46.0125 29.5153 46.0613 29.7067 46.0614 29.9013C46.0614 30.5443 45.5415 31.0697 44.8985 31.0697ZM15.0842 31.0757C14.896 31.0757 14.7053 31.0301 14.5286 30.934C13.9643 30.6256 13.7566 29.9196 14.0644 29.3559L18.5061 21.2164C18.6063 21.0331 18.7539 20.8802 18.9336 20.7736C19.1133 20.6671 19.3183 20.6109 19.5272 20.6108H32.3174C32.9603 20.6108 33.4803 21.1316 33.4803 21.7733C33.4803 22.4154 32.9603 22.9362 32.3174 22.9362H20.2178L16.1061 30.4698C16.006 30.6533 15.8582 30.8065 15.6784 30.9131C15.4985 31.0197 15.2933 31.0759 15.0842 31.0757Z" fill="white"/>
<path d="M48.5967 55.4937C48.4439 55.4938 48.2927 55.4638 48.1515 55.4054C48.0104 55.347 47.8821 55.2613 47.7741 55.1533C47.6661 55.0453 47.5805 54.917 47.5221 54.7759C47.4637 54.6348 47.4337 54.4835 47.4338 54.3307V49.6796C47.4338 49.0366 47.9537 48.5171 48.5967 48.5171C48.7494 48.5169 48.9006 48.5469 49.0417 48.6053C49.1828 48.6636 49.311 48.7492 49.419 48.8572C49.527 48.9652 49.6126 49.0934 49.671 49.2345C49.7293 49.3756 49.7593 49.5269 49.7591 49.6796V54.3307C49.7593 54.4835 49.7294 54.6347 49.671 54.7759C49.6127 54.917 49.5271 55.0453 49.4191 55.1533C49.3111 55.2613 49.1829 55.3469 49.0418 55.4054C48.9007 55.4638 48.7494 55.4938 48.5967 55.4937ZM11.3881 55.4937C10.7463 55.4937 10.2256 54.9737 10.2256 54.3307V49.6796C10.2256 49.0366 10.7463 48.5171 11.3881 48.5171C12.0301 48.5171 12.551 49.0366 12.551 49.6796V54.3307C12.551 54.9737 12.0302 55.4937 11.3881 55.4937Z" fill="white"/>
</svg>
