<svg width="230" height="76" viewBox="0 0 230 76" fill="none" xmlns="http://www.w3.org/2000/svg">
<path d="M176.398 45.5732H176.253L170.088 24.4235H160.142V51.0865H166.73L166.359 29.2062H166.504L173.124 51.0865H182.667V24.4222H176.035L176.398 45.5732ZM49.8708 24.4222L44.9095 51.3673H52.1493L55.8177 26.9093H55.9707L59.5421 51.3686H66.7393L61.8006 24.4222H49.8708ZM90.3674 24.4248L87.0581 45.0262H86.9078L83.6144 24.4248H72.6849L72.0917 51.3673H78.7928L78.9604 27.1375H79.112L83.5878 51.3673H90.3847L94.8618 27.1454L95.0108 27.1375L95.1851 51.3673H101.889L101.297 24.4248H90.3674ZM28.307 31.3536C28.1807 30.8026 28.2113 30.2517 28.2791 29.9474C28.472 29.0816 29.0519 28.1332 30.7292 28.1332C32.3014 28.1332 33.2165 29.1118 33.2165 30.5731V32.2377H39.9083V30.3566C39.9083 24.4786 34.665 23.5616 30.8688 23.5616C26.1057 23.5616 22.2165 25.1528 21.4995 29.5486C21.304 30.7292 21.2801 31.8114 21.5647 33.1756C22.7286 38.6824 32.2482 40.2776 33.6302 43.7603C33.8895 44.4096 33.8057 45.2518 33.678 45.7608C33.4612 46.6423 32.8587 47.5592 31.0697 47.5592C29.3964 47.5592 28.3749 46.595 28.3749 45.1245L28.3709 42.5102H21.1856L21.1816 44.5933C21.1816 50.6038 25.8849 52.4101 30.922 52.4101C35.777 52.4101 39.7566 50.7599 40.4004 46.2619C40.7276 43.9295 40.4869 42.4 40.3712 41.8294C39.2366 36.1848 29.0719 34.5163 28.307 31.3536ZM115.496 31.4165C115.364 30.8787 115.401 30.333 115.464 30.0352C115.651 29.1747 116.226 28.2368 117.889 28.2368C119.442 28.2368 120.355 29.201 120.355 30.6426V32.2954H126.975V30.4314C126.975 24.6255 121.779 23.7112 118.032 23.7112C113.31 23.7112 109.455 25.2669 108.754 29.6351C108.558 30.8105 108.527 31.8848 108.815 33.2294C109.968 38.6785 119.393 40.2618 120.764 43.7065C121.014 44.3559 120.939 45.1836 120.816 45.6886C120.598 46.5767 119.996 47.4661 118.232 47.4661C116.567 47.4661 115.564 46.5163 115.564 45.0616L115.558 42.4669H108.437V44.5316C108.437 50.4805 113.099 52.2658 118.087 52.2658C122.882 52.2658 126.828 50.6301 127.46 46.1792C127.785 43.8771 127.545 42.3606 127.432 41.7927C126.308 36.2084 116.241 34.549 115.496 31.4165ZM145.888 44.3493C145.893 44.6917 145.882 45.0878 145.825 45.3764C145.692 46.0467 145.119 47.3152 143.255 47.3152C141.398 47.3152 140.819 46.0467 140.686 45.3764C140.628 45.0878 140.615 44.6917 140.618 44.3493V24.4195H133.845V43.7314C133.834 44.2312 133.883 45.2426 133.907 45.5115C134.367 50.5343 138.326 52.157 143.254 52.157C148.177 52.157 152.134 50.5343 152.609 45.5115C152.633 45.2426 152.684 44.2299 152.676 43.7314V24.4195H145.886L145.888 44.3493ZM199.212 36.2189V40.1647H201.956V44.0725C201.964 44.4123 201.95 44.7874 201.893 45.0957C201.774 45.8211 201.09 47.045 199.157 47.045C197.219 47.045 196.538 45.8198 196.413 45.0957C196.361 44.7874 196.345 44.4123 196.353 44.0725V31.7445C196.353 31.3063 196.381 30.8275 196.462 30.4799C196.605 29.8162 197.182 28.5241 199.131 28.5241C201.18 28.5241 201.687 29.8883 201.809 30.4799C201.888 30.8538 201.893 31.4979 201.893 31.4952V33.013H208.648V32.1131C208.645 32.1131 208.672 31.1922 208.593 30.3514C208.097 25.284 203.932 23.6889 199.186 23.6889C194.438 23.6889 190.372 25.2971 189.783 30.3514C189.725 30.7869 189.666 31.6343 189.666 32.1131L189.663 43.4494C189.666 43.9571 189.682 44.3322 189.756 45.2295C190.198 50.1355 194.438 51.8933 199.181 51.8933C203.927 51.8933 208.167 50.1355 208.612 45.2295C208.685 44.3309 208.695 43.9558 208.697 43.4494V36.2189H199.212Z" fill="#B0D0E7"/>
</svg>
