<svg width="122" height="40" viewBox="0 0 122 40" fill="none" xmlns="http://www.w3.org/2000/svg">
<path d="M21.558 15.6926H22.8653C22.8904 15.6927 22.9144 15.7028 22.9321 15.7205L27.1758 19.9348C27.1935 19.9526 27.2034 19.9765 27.2034 20.0016C27.2034 20.0266 27.1935 20.0505 27.1758 20.0683L22.9041 24.2764C22.8864 24.2941 22.8624 24.3042 22.8373 24.3043L21.558 24.3058C21.5455 24.3058 21.5332 24.3083 21.5217 24.313C21.5102 24.3178 21.4997 24.3248 21.4909 24.3336C21.4821 24.3424 21.4751 24.3528 21.4704 24.3643C21.4656 24.3758 21.4632 24.3881 21.4632 24.4005L21.4616 25.6961C21.4615 25.7212 21.4514 25.7452 21.4336 25.7628L17.1588 29.9725C17.1411 29.9901 17.117 30 17.092 30C17.0669 30 17.0429 29.9901 17.0251 29.9725L12.7472 25.7116C12.7382 25.7027 12.7311 25.6921 12.7263 25.6803C12.7215 25.6686 12.7191 25.656 12.7193 25.6434L12.7364 24.3881C12.7364 24.3752 12.7338 24.3625 12.7287 24.3507C12.7237 24.339 12.7163 24.3283 12.707 24.3194C12.6977 24.3106 12.6866 24.3037 12.6746 24.2993C12.6625 24.2948 12.6497 24.2928 12.6369 24.2934L11.4026 24.3601C11.3894 24.3607 11.3762 24.3585 11.3639 24.3537C11.3516 24.3489 11.3404 24.3416 11.3311 24.3322L7.0268 20.0419C7.00935 20.024 6.99972 19.9999 7.00001 19.9749C7.0003 19.9499 7.01049 19.926 7.02835 19.9085L11.2658 15.7329C11.2828 15.7159 11.3055 15.7059 11.3296 15.705L12.6664 15.6647C12.691 15.6639 12.7143 15.6535 12.7315 15.6359C12.7486 15.6182 12.7581 15.5946 12.7581 15.57V14.2884C12.7582 14.2633 12.7683 14.2393 12.7861 14.2216L17.0251 10.0275C17.0429 10.0099 17.0669 10 17.092 10C17.117 10 17.1411 10.0099 17.1588 10.0275L21.4352 14.2387C21.4442 14.2476 21.4513 14.2583 21.4561 14.27C21.4609 14.2817 21.4633 14.2943 21.4632 14.307V15.598C21.4632 15.6231 21.4731 15.6471 21.4909 15.6649C21.5087 15.6826 21.5328 15.6926 21.558 15.6926ZM20.7512 14.5258L17.1977 11.0376C17.1722 11.012 17.1374 10.9975 17.101 10.9975C17.0646 10.9975 17.0295 11.012 17.0034 11.0376L13.4732 14.5351C13.455 14.5532 13.4408 14.5748 13.4315 14.5986C13.4221 14.6223 13.4178 14.6477 13.4188 14.6732L13.453 15.5762C13.455 15.6466 13.4918 15.6828 13.5633 15.6848L13.9784 15.6957C13.9915 15.6961 14.0046 15.6939 14.0168 15.6892C14.0291 15.6845 14.0402 15.6773 14.0496 15.6682C14.0591 15.6591 14.0666 15.6482 14.0717 15.6361C14.0768 15.624 14.0794 15.6111 14.0794 15.598V14.9059C14.0794 14.8397 14.1027 14.7839 14.1494 14.7383L17.0453 11.905C17.0623 11.8882 17.0852 11.8787 17.1091 11.8787C17.133 11.8787 17.1559 11.8882 17.1728 11.905L20.0703 14.7523C20.1161 14.798 20.1418 14.8599 20.1419 14.9245V18.6733C20.1419 18.7157 20.1569 18.752 20.1869 18.782L21.3155 19.91C21.3337 19.9279 21.3441 19.9523 21.3447 19.978C21.3453 20.0037 21.3359 20.0288 21.3186 20.0481C20.6921 20.7526 19.8589 21.0722 20.1729 22.2173C20.1854 22.2639 20.2154 22.2871 20.2631 22.2871H20.7232C20.7366 22.2871 20.7498 22.2841 20.762 22.2785C20.7741 22.2729 20.7849 22.2647 20.7936 22.2545C20.8023 22.2444 20.8087 22.2325 20.8124 22.2196C20.8161 22.2068 20.8169 22.1933 20.8149 22.1801C20.7481 21.7642 20.759 21.4911 21.0761 21.1762C21.4564 20.7965 21.8352 20.4241 22.2124 20.059C22.2221 20.0494 22.2298 20.0381 22.235 20.0256C22.2403 20.013 22.243 19.9996 22.243 19.986C22.243 19.9725 22.2403 19.959 22.235 19.9465C22.2298 19.934 22.2221 19.9226 22.2124 19.9131L20.8709 18.5725C20.8253 18.528 20.8025 18.4732 20.8025 18.408V14.6452C20.8025 14.5987 20.7854 14.5589 20.7512 14.5258ZM17.1666 12.8872C17.1476 12.8687 17.122 12.8584 17.0952 12.8587C17.0685 12.859 17.0427 12.8698 17.0236 12.8888L14.8302 15.0813C14.7811 15.1304 14.7483 15.1935 14.7363 15.2621C14.7244 15.3307 14.7338 15.4013 14.7634 15.4645C14.9126 15.7769 15.1163 15.8043 15.3743 15.5468C15.9173 15.0037 16.479 14.4715 17.0593 13.9501C17.0987 13.9149 17.1376 13.916 17.1759 13.9532C17.721 14.4839 18.262 15.0187 18.7988 15.5576C18.9491 15.7086 19.1304 15.7423 19.3429 15.6585C19.3843 15.6419 19.4102 15.6119 19.4206 15.5685C19.4848 15.3057 19.4486 15.1066 19.3118 14.9711C18.6807 14.3494 17.9656 13.6548 17.1666 12.8872ZM11.6374 22.7542C10.77 21.8185 9.82329 20.962 8.91548 20.059C8.86988 20.0134 8.86988 19.9684 8.91548 19.924L11.8332 17.0674C11.851 17.0497 11.8721 17.0356 11.8953 17.026C11.9185 17.0164 11.9433 17.0115 11.9685 17.0115H15.7505C15.8123 17.0115 15.8716 16.9869 15.9153 16.9432L17.0034 15.8571C17.0319 15.8288 17.0705 15.813 17.1106 15.813C17.1508 15.813 17.1894 15.8288 17.2179 15.8571L18.32 16.9588C18.3549 16.9926 18.4012 17.0115 18.449 17.0115H19.3258C19.4035 17.0115 19.4423 16.9727 19.4423 16.8951V16.4358C19.4423 16.4137 19.437 16.3918 19.4269 16.3721C19.4167 16.3525 19.402 16.3355 19.384 16.3227C19.366 16.3099 19.3453 16.3017 19.3235 16.2987C19.3017 16.2957 19.2796 16.298 19.2589 16.3055C18.8936 16.4312 18.6278 16.3769 18.348 16.0945C17.9583 15.7024 17.5806 15.3259 17.2148 14.9649C17.1454 14.8956 17.0754 14.8956 17.0049 14.9649L15.6696 16.2946C15.6303 16.3329 15.5831 16.3521 15.5282 16.3521H11.7757C11.6831 16.352 11.5943 16.3883 11.5285 16.4529L8.06363 19.8883C7.98798 19.9628 7.9885 20.0367 8.06518 20.1102C9.22896 21.2232 10.2736 22.2546 11.199 23.2042C11.6482 23.6666 12.071 23.7038 12.6695 23.5766C12.7255 23.5652 12.7535 23.531 12.7535 23.4742V23.0304C12.7534 23.0177 12.7504 23.0052 12.7448 22.9939C12.7391 22.9825 12.7309 22.9726 12.7207 22.9648C12.7105 22.957 12.6987 22.9517 12.686 22.949C12.6734 22.9464 12.6603 22.9466 12.6478 22.9497C12.2032 23.0645 11.8664 22.9993 11.6374 22.7542ZM25.2871 19.9364C25.2941 19.9433 25.2996 19.9515 25.3034 19.9606C25.3071 19.9696 25.3091 19.9793 25.3091 19.9891C25.3091 19.9989 25.3071 20.0086 25.3034 20.0177C25.2996 20.0268 25.2941 20.035 25.2871 20.0419L22.3601 22.9637C22.3531 22.9706 22.3449 22.976 22.3358 22.9798C22.3267 22.9835 22.317 22.9854 22.3072 22.9854H18.3962C18.3864 22.9854 18.3767 22.9873 18.3676 22.991C18.3585 22.9947 18.3503 23.0002 18.3433 23.0071L17.1635 24.1941C17.1566 24.2011 17.1483 24.2066 17.1393 24.2103C17.1302 24.2141 17.1205 24.216 17.1106 24.216C17.1008 24.216 17.0911 24.2141 17.082 24.2103C17.073 24.2066 17.0647 24.2011 17.0578 24.1941L15.8717 23.0087C15.8648 23.0017 15.8565 22.9963 15.8475 22.9925C15.8384 22.9888 15.8287 22.9869 15.8189 22.9869L14.852 22.9838C14.8419 22.9836 14.8319 22.9854 14.8226 22.9892C14.8133 22.9929 14.8048 22.9985 14.7977 23.0056C14.7905 23.0127 14.7849 23.0212 14.7812 23.0305C14.7774 23.0398 14.7756 23.0498 14.7758 23.0599L14.782 23.5316C14.782 23.5513 14.7899 23.5703 14.8039 23.5842C14.8179 23.5982 14.8369 23.606 14.8567 23.606H15.5375C15.5473 23.606 15.557 23.6079 15.5661 23.6117C15.5752 23.6154 15.5834 23.6209 15.5904 23.6278L17.0391 25.0553C17.0461 25.0622 17.0543 25.0677 17.0634 25.0715C17.0724 25.0753 17.0822 25.0772 17.092 25.0772C17.1018 25.0772 17.1115 25.0753 17.1206 25.0715C17.1297 25.0677 17.1379 25.0622 17.1448 25.0553L18.6091 23.6278C18.6161 23.6209 18.6243 23.6154 18.6334 23.6117C18.6425 23.6079 18.6522 23.606 18.662 23.606H22.5761C22.586 23.6061 22.5957 23.6042 22.6047 23.6004C22.6138 23.5967 22.6221 23.5912 22.629 23.5843L26.1872 20.0388C26.1941 20.0319 26.1997 20.0236 26.2034 20.0146C26.2072 20.0055 26.2091 19.9958 26.2091 19.986C26.2091 19.9762 26.2072 19.9665 26.2034 19.9575C26.1997 19.9484 26.1941 19.9402 26.1872 19.9333L22.5808 16.3738C22.5739 16.3669 22.5656 16.3614 22.5566 16.3577C22.5475 16.3539 22.5378 16.352 22.528 16.3521H21.5378C21.518 16.3521 21.499 16.3599 21.485 16.3739C21.471 16.3878 21.4632 16.4068 21.4632 16.4265V16.937C21.4632 16.9568 21.471 16.9757 21.485 16.9897C21.499 17.0037 21.518 17.0115 21.5378 17.0115H22.2979C22.3077 17.0115 22.3174 17.0134 22.3265 17.0171C22.3356 17.0209 22.3438 17.0263 22.3508 17.0332L25.2871 19.9364ZM14.8333 17.7067C14.8188 17.7071 14.8049 17.7131 14.7948 17.7236C14.7846 17.734 14.7789 17.748 14.7789 17.7625V18.9728C14.7789 19.0205 14.76 19.0667 14.7261 19.1016L13.8944 19.9302C13.8499 19.9757 13.8499 20.0212 13.8944 20.0667L14.7245 20.8938C14.7584 20.9286 14.7773 20.9748 14.7774 21.0225L14.7789 22.2065C14.7789 22.2561 14.8038 22.2814 14.8535 22.2825L16.0987 22.2996C16.1271 22.2996 16.1552 22.3055 16.1811 22.317C16.2071 22.3285 16.2304 22.3453 16.2495 22.3663L16.9972 23.1623C17.01 23.1757 17.0253 23.1864 17.0424 23.1938C17.0594 23.2012 17.0777 23.205 17.0963 23.2052C17.1149 23.2053 17.1333 23.2017 17.1504 23.1946C17.1676 23.1875 17.1831 23.177 17.1961 23.1638L17.9982 22.3477C18.0366 22.3073 18.0843 22.2871 18.1412 22.2871H19.3646C19.4164 22.2871 19.4423 22.2613 19.4423 22.2096L19.4439 21.0241C19.4439 20.9947 19.4498 20.9655 19.4612 20.9383C19.4727 20.9111 19.4896 20.8865 19.5107 20.8658L20.3393 20.0574C20.3797 20.0171 20.3797 19.9772 20.3393 19.9379L19.4999 19.1218C19.4816 19.104 19.4671 19.0829 19.4573 19.0597C19.4474 19.0366 19.4423 19.0117 19.4423 18.9868V17.8261C19.4423 17.6958 19.3776 17.641 19.248 17.6617C18.0931 17.8416 17.8754 17.5686 17.1495 16.7927C17.1424 16.7853 17.1339 16.7794 17.1246 16.7752C17.1152 16.7711 17.1051 16.7689 17.0949 16.7688C17.0848 16.7686 17.0747 16.7705 17.0654 16.7744C17.0561 16.7782 17.0477 16.784 17.0407 16.7912L16.2168 17.6136C16.1723 17.657 16.1194 17.6792 16.0583 17.6803L14.8333 17.7067ZM12.5763 18.3661C13.0846 17.8866 12.4752 17.4056 12.1301 17.7439C11.3923 18.4659 10.6591 19.1968 9.93055 19.9364C9.89531 19.9726 9.89531 20.0093 9.93055 20.0465C10.9285 21.0913 11.6679 21.8211 12.1488 22.2359C12.2731 22.3435 12.442 22.357 12.6555 22.2763C12.6949 22.2608 12.7213 22.2323 12.7348 22.1909C12.8011 21.983 12.7794 21.8242 12.6695 21.7146C12.113 21.1591 11.57 20.616 11.0404 20.0853C11.0265 20.0717 11.0153 20.0555 11.0077 20.0376C11.0001 20.0197 10.996 20.0004 10.9959 19.9809C10.9958 19.9614 10.9995 19.9421 11.0069 19.9241C11.0142 19.9061 11.0251 19.8897 11.0389 19.8759C11.5384 19.3649 12.0508 18.8616 12.5763 18.3661ZM17.0174 28.0577L14.1245 25.2198C14.1103 25.206 14.0989 25.1894 14.0912 25.1707C14.0835 25.152 14.0795 25.1318 14.0794 25.1111V21.4803C14.0794 21.3948 14.0622 21.3101 14.0288 21.2313C13.9955 21.1524 13.9466 21.0809 13.8851 21.021L12.8949 20.0528C12.8586 20.0166 12.8576 19.9793 12.8918 19.941C13.5556 19.1916 14.3204 18.9744 14.0514 17.7439C14.0411 17.6953 14.011 17.671 13.9613 17.671H13.6131C13.589 17.6709 13.5651 17.676 13.5432 17.6861C13.5212 17.6961 13.5018 17.7108 13.4861 17.7291C13.4704 17.7474 13.4589 17.7689 13.4524 17.7921C13.4459 17.8153 13.4445 17.8396 13.4483 17.8634C13.5043 18.2156 13.4747 18.453 13.2058 18.7183C12.811 19.1083 12.4218 19.4973 12.0384 19.8852C12.0238 19.9 12.0123 19.9176 12.0045 19.9369C11.9968 19.9563 11.993 19.977 11.9932 19.9979C11.9935 20.0188 11.9979 20.0394 12.0062 20.0587C12.0145 20.078 12.0265 20.0955 12.0415 20.1102L13.3768 21.4167C13.4214 21.4601 13.4436 21.5129 13.4436 21.5749L13.4639 25.2291C13.4648 25.3593 13.5173 25.4842 13.61 25.5766L17.0283 28.967C17.051 28.9896 17.0817 29.0022 17.1137 29.0022C17.1458 29.0022 17.1765 28.9896 17.1992 28.967L20.7574 25.4199C20.7863 25.3911 20.8025 25.3521 20.8025 25.3113V24.4098C20.8025 24.3239 20.7595 24.2852 20.6735 24.2934L20.1636 24.3384C20.1488 24.34 20.1345 24.3448 20.1218 24.3526C20.1091 24.3604 20.0984 24.371 20.0903 24.3835C20.0823 24.396 20.0771 24.4102 20.0753 24.4249C20.0734 24.4397 20.0749 24.4547 20.0797 24.4688C20.2071 24.835 20.1854 25.1122 20.0144 25.3005C19.633 25.7194 18.6864 26.639 17.1744 28.0593C17.153 28.0793 17.1248 28.0903 17.0956 28.09C17.0663 28.0897 17.0383 28.0782 17.0174 28.0577ZM22.6943 21.6556C23.2301 21.1312 23.7632 20.5964 24.2938 20.0512C24.3311 20.0129 24.3311 19.9752 24.2938 19.9379C23.5643 19.2014 22.8311 18.469 22.0943 17.7408C21.9751 17.6239 21.7922 17.6208 21.5455 17.7315C21.5041 17.7501 21.4787 17.7817 21.4694 17.8261C21.4279 18.0175 21.4782 18.1866 21.6202 18.3335C22.1311 18.8663 22.6637 19.3974 23.2181 19.9271C23.2606 19.9674 23.2606 20.0083 23.2181 20.0497L21.5502 21.7146C21.5074 21.7574 21.4749 21.8095 21.4555 21.8666C21.436 21.9236 21.4302 21.9841 21.4384 22.0428C21.4466 22.1015 21.4686 22.1569 21.5027 22.2042C21.5367 22.2516 21.5818 22.2896 21.6341 22.3151C21.686 22.3409 21.774 22.3378 21.8984 22.3058C22.1238 22.2468 22.5186 21.8278 22.6943 21.6556ZM19.3195 24.326C19.0978 24.267 18.9221 24.3022 18.7926 24.4315C18.2516 24.9694 17.7257 25.4934 17.2148 26.0033C17.1886 26.0292 17.1533 26.0439 17.1164 26.0442C17.0795 26.0445 17.044 26.0304 17.0174 26.0049L15.3292 24.3524C15.2923 24.3165 15.2466 24.2909 15.1967 24.2781C15.1468 24.2653 15.0944 24.2658 15.0447 24.2795C14.5908 24.4051 14.7525 24.8427 14.9872 25.0755C15.6681 25.752 16.3619 26.4326 17.0687 27.1174C17.0811 27.1296 17.0979 27.1364 17.1153 27.1364C17.1327 27.1364 17.1495 27.1296 17.1619 27.1174C17.8946 26.4078 18.6257 25.6868 19.3553 24.9544C19.4931 24.8169 19.5113 24.6332 19.4097 24.4036C19.3921 24.3633 19.362 24.3374 19.3195 24.326Z" fill="#1AA489"/>
<path d="M31.5731 18.3499C32.3829 18.6012 34.4317 19.1102 34.7115 17.8037C35.0737 16.1077 31.1673 16.6539 31.2093 13.9649C31.2482 11.521 34.0338 11.2324 35.8385 11.6452C35.8841 11.6555 35.9049 11.684 35.9007 11.7305L35.7717 12.9765C35.7655 13.0365 35.7328 13.0593 35.6738 13.0448C34.9261 12.8586 33.5488 12.5653 33.0778 13.3629C32.6876 14.0223 33.1788 14.4785 33.7773 14.7423C35.0255 15.2916 36.2769 15.6624 36.5054 16.972C36.5821 17.4106 36.5432 17.8399 36.3888 18.2599C35.6504 20.2662 33.0902 20.2755 31.4005 19.8876C31.3549 19.8762 31.3347 19.8472 31.3399 19.8007L31.4876 18.4057C31.4938 18.353 31.5223 18.3344 31.5731 18.3499Z" fill="#58575C"/>
<path d="M39.0591 18.2897L38.5197 19.922C38.5161 19.9328 38.5092 19.9422 38.5 19.9489C38.4908 19.9556 38.4798 19.9592 38.4684 19.9593H36.9062C36.8974 19.9593 36.8887 19.9572 36.881 19.9532C36.8732 19.9492 36.8665 19.9433 36.8614 19.9362C36.8564 19.929 36.8532 19.9208 36.852 19.9121C36.8509 19.9034 36.8519 19.8946 36.8549 19.8864L39.726 11.6548C39.7298 11.6443 39.7368 11.6353 39.746 11.6289C39.7551 11.6225 39.7661 11.6191 39.7773 11.6191H41.6333C41.6445 11.6191 41.6554 11.6225 41.6646 11.6289C41.6738 11.6353 41.6808 11.6443 41.6846 11.6548L44.6054 19.8864C44.6084 19.8946 44.6094 19.9034 44.6083 19.9121C44.6071 19.9208 44.6039 19.929 44.5989 19.9362C44.5938 19.9433 44.5871 19.9492 44.5793 19.9532C44.5716 19.9572 44.5629 19.9593 44.5541 19.9593H42.8567C42.8453 19.9592 42.8342 19.9556 42.825 19.9489C42.8158 19.9422 42.8089 19.9328 42.8054 19.922L42.2582 18.2897C42.2546 18.2789 42.2477 18.2695 42.2385 18.2629C42.2293 18.2562 42.2183 18.2525 42.2069 18.2525H39.1104C39.099 18.2525 39.0879 18.2562 39.0787 18.2629C39.0695 18.2695 39.0627 18.2789 39.0591 18.2897ZM41.7654 16.9367C41.7693 16.9366 41.7732 16.9356 41.7766 16.9338C41.7801 16.932 41.7831 16.9294 41.7854 16.9263C41.7876 16.9231 41.7891 16.9194 41.7897 16.9156C41.7903 16.9117 41.79 16.9078 41.7887 16.9041L40.6586 13.5385C40.6586 13.5369 40.658 13.5353 40.6568 13.5341C40.6557 13.533 40.6541 13.5323 40.6524 13.5323C40.6508 13.5323 40.6492 13.533 40.648 13.5341C40.6469 13.5353 40.6462 13.5369 40.6462 13.5385L39.5192 16.8793C39.5165 16.8871 39.5158 16.8955 39.5171 16.9038C39.5184 16.912 39.5217 16.9199 39.5267 16.9267C39.5317 16.9335 39.5383 16.9391 39.5459 16.943C39.5535 16.9469 39.5619 16.949 39.5705 16.9491L41.7654 16.9367Z" fill="#58575C"/>
<path d="M88.1921 14.4139C89.1979 10.9692 94.5701 10.4743 95.6101 14.1051C96.3966 16.8578 95.1095 20.0185 91.926 20.1395C88.5123 20.2699 87.3667 17.2426 88.1921 14.4139ZM92.3317 13.1183C89.1419 12.4324 88.6787 18.4823 91.7208 18.6561C94.71 18.8253 94.8732 13.666 92.3317 13.1183Z" fill="#58575C"/>
<path d="M109.491 13.291C109.956 11.5454 112.62 11.4461 113.979 11.772C114.024 11.7834 114.043 11.8113 114.038 11.8558L113.892 13.1033C113.891 13.1131 113.888 13.1226 113.883 13.131C113.878 13.1395 113.871 13.1468 113.863 13.1524C113.855 13.158 113.845 13.1618 113.836 13.1635C113.826 13.1652 113.816 13.1648 113.806 13.1623C113.084 12.9683 111.563 12.6859 111.165 13.5952C110.41 15.3268 115.355 14.9017 114.59 18.0174C114.029 20.3045 111.396 20.3557 109.585 19.9632C109.523 19.9507 109.496 19.9135 109.502 19.8514L109.639 18.486C109.645 18.4312 109.674 18.412 109.726 18.4286C110.494 18.666 112.215 19.0865 112.745 18.1524C113.402 16.9886 111.528 16.4843 110.82 16.1756C109.568 15.6263 109.125 14.6648 109.491 13.291Z" fill="#58575C"/>
<path d="M60.3452 14.378C61.0463 17.4224 59.4794 20.0385 56.1699 20.0462C55.0849 20.0493 54.2631 20.0437 53.7046 20.0292C53.6372 20.0281 53.6035 19.994 53.6035 19.9268V11.8535C53.6035 11.8007 53.6299 11.7728 53.6828 11.7697C56.1124 11.644 59.6131 11.2003 60.3452 14.378ZM55.2248 13.1538V18.5598C55.2248 18.5832 55.2342 18.6057 55.2508 18.6223C55.2674 18.6389 55.2899 18.6482 55.3134 18.6482H56.386C56.6973 18.6482 57.0056 18.5847 57.2932 18.4615C57.5808 18.3382 57.8421 18.1575 58.0623 17.9297C58.2824 17.7019 58.457 17.4314 58.5761 17.1338C58.6953 16.8362 58.7566 16.5172 58.7566 16.195V15.5185C58.7566 15.1964 58.6953 14.8774 58.5761 14.5797C58.457 14.2821 58.2824 14.0117 58.0623 13.7839C57.8421 13.5561 57.5808 13.3754 57.2932 13.2521C57.0056 13.1288 56.6973 13.0653 56.386 13.0653H55.3134C55.2899 13.0653 55.2674 13.0747 55.2508 13.0912C55.2342 13.1078 55.2248 13.1303 55.2248 13.1538Z" fill="#58575C"/>
<path d="M83.483 17.2767L83.4892 19.9191C83.4892 19.9423 83.4801 19.9646 83.4638 19.9811C83.4475 19.9977 83.4254 20.0072 83.4022 20.0076L81.9534 20.0371C81.9406 20.0373 81.9279 20.0349 81.916 20.0302C81.9042 20.0254 81.8934 20.0184 81.8842 20.0094C81.8751 20.0005 81.8679 19.9898 81.863 19.978C81.858 19.9663 81.8555 19.9536 81.8555 19.9408V11.8536C81.8555 11.8029 81.8809 11.776 81.9316 11.7729C83.7006 11.6504 86.9603 11.2655 87.321 13.8025C87.6583 16.1843 85.7479 17.3434 83.6167 17.1541C83.5276 17.1468 83.483 17.1877 83.483 17.2767ZM83.4768 13.1803L83.4799 15.6785C83.4799 15.6959 83.4834 15.7132 83.4901 15.7293C83.4968 15.7454 83.5067 15.76 83.5191 15.7723C83.5316 15.7845 83.5463 15.7942 83.5625 15.8008C83.5787 15.8073 83.5961 15.8105 83.6136 15.8103L84.369 15.8088C84.713 15.808 85.0426 15.6714 85.2854 15.429C85.5282 15.1867 85.6643 14.8584 85.6639 14.5163V14.3363C85.6637 14.1666 85.6299 13.9986 85.5644 13.842C85.4989 13.6853 85.4029 13.5431 85.2821 13.4233C85.1613 13.3036 85.0179 13.2087 84.8601 13.1441C84.7024 13.0795 84.5334 13.0464 84.3628 13.0468L83.6074 13.0484C83.5726 13.0488 83.5394 13.0629 83.5149 13.0876C83.4905 13.1123 83.4768 13.1456 83.4768 13.1803Z" fill="#58575C"/>
<path d="M98.8211 16.5977C98.8154 16.5887 98.8068 16.5817 98.7968 16.5779C98.7867 16.5741 98.7757 16.5737 98.7654 16.5767C98.7551 16.5796 98.746 16.5859 98.7395 16.5944C98.733 16.603 98.7295 16.6134 98.7294 16.6241L98.6719 19.954C98.6709 19.9933 98.6506 20.0129 98.6113 20.0129L97.1625 19.9927C97.1128 19.9917 97.0879 19.9669 97.0879 19.9183V11.8171C97.0879 11.786 97.1034 11.769 97.1345 11.7659C98.7792 11.6262 102.291 11.2259 102.491 13.7349C102.597 15.0476 101.863 16.0438 100.57 16.3138C100.518 16.3241 100.507 16.3505 100.537 16.3929L103.006 19.9028C103.045 19.9576 103.031 19.986 102.962 19.9881L101.192 20.0284C101.153 20.0294 101.114 20.0203 101.08 20.0021C101.045 19.9839 101.016 19.9572 100.994 19.9245L98.8211 16.5977ZM98.7123 13.1375L98.7061 15.3347C98.7061 15.3579 98.7152 15.3801 98.7315 15.3967C98.7478 15.4132 98.7699 15.4227 98.7931 15.4231L99.5517 15.4262C99.713 15.4269 99.8728 15.3995 100.022 15.3455C100.171 15.2916 100.307 15.2122 100.421 15.1119C100.535 15.0116 100.626 14.8923 100.688 14.761C100.75 14.6296 100.783 14.4887 100.783 14.3463V14.1384C100.784 13.8514 100.655 13.5759 100.426 13.3723C100.197 13.1687 99.8859 13.0535 99.561 13.0522L98.8025 13.0491C98.7907 13.0489 98.779 13.051 98.7681 13.0554C98.7572 13.0597 98.7472 13.0662 98.7388 13.0744C98.7304 13.0827 98.7238 13.0925 98.7192 13.1033C98.7147 13.1142 98.7123 13.1258 98.7123 13.1375Z" fill="#58575C"/>
<path d="M45.0031 12.2313C45.0021 12.0441 44.9974 11.9091 44.9892 11.8263C44.9829 11.7674 45.0099 11.7379 45.07 11.7379L46.5188 11.7363C46.5809 11.7363 46.6115 11.7674 46.6105 11.8294C46.597 13.5704 46.6001 15.3067 46.6198 17.0383C46.6338 18.2207 47.1359 18.86 48.4028 18.7979C50.1407 18.711 50.0754 17.6419 50.094 16.157C50.1116 14.7088 50.1127 13.2637 50.0971 11.8217C50.0969 11.8092 50.0992 11.7969 50.1039 11.7854C50.1087 11.7739 50.1157 11.7635 50.1245 11.7548C50.1334 11.7461 50.144 11.7393 50.1555 11.7348C50.1671 11.7303 50.1795 11.7281 50.192 11.7286L51.605 11.7565C51.6568 11.7575 51.6832 11.7839 51.6843 11.8356C51.7185 14.2148 51.7096 15.9915 51.6578 17.1656C51.5428 19.7677 49.3479 20.4458 47.1639 20.0423C45.2301 19.687 45.0202 18.4286 45.0171 16.6101C45.014 15.1495 45.0094 13.6899 45.0031 12.2313Z" fill="#58575C"/>
<path d="M63.3743 11.7441H61.8634C61.8299 11.7441 61.8027 11.7712 61.8027 11.8047V19.9384C61.8027 19.9718 61.8299 19.9989 61.8634 19.9989H63.3743C63.4078 19.9989 63.4349 19.9718 63.4349 19.9384V11.8047C63.4349 11.7712 63.4078 11.7441 63.3743 11.7441Z" fill="#58575C"/>
<path d="M69.8565 18.6446L72.6717 18.6307C72.6849 18.6307 72.6975 18.6359 72.7068 18.6452C72.7162 18.6545 72.7214 18.6672 72.7214 18.6803V19.948C72.7214 19.9612 72.7162 19.9738 72.7068 19.9831C72.6975 19.9925 72.6849 19.9977 72.6717 19.9977L68.2228 20.0023C68.2096 20.0023 68.1969 19.9971 68.1876 19.9878C68.1783 19.9785 68.173 19.9659 68.173 19.9527L68.1699 11.7941C68.1699 11.7809 68.1752 11.7683 68.1845 11.759C68.1938 11.7497 68.2065 11.7444 68.2197 11.7444L72.6717 11.7305C72.6849 11.7305 72.6975 11.7357 72.7068 11.745C72.7162 11.7543 72.7214 11.767 72.7214 11.7801V13.0432C72.7214 13.0563 72.7162 13.069 72.7068 13.0783C72.6975 13.0876 72.6849 13.0928 72.6717 13.0928H69.8565C69.8433 13.0928 69.8307 13.0981 69.8213 13.1074C69.812 13.1167 69.8068 13.1293 69.8068 13.1425V15.0262C69.8068 15.0327 69.8081 15.0392 69.8106 15.0452C69.8131 15.0512 69.8167 15.0567 69.8213 15.0613C69.826 15.0659 69.8314 15.0696 69.8375 15.0721C69.8435 15.0746 69.85 15.0758 69.8565 15.0758L72.5162 15.0696C72.5294 15.0696 72.5421 15.0749 72.5514 15.0842C72.5607 15.0935 72.566 15.1061 72.566 15.1193V16.3792C72.566 16.3924 72.5607 16.405 72.5514 16.4143C72.5421 16.4236 72.5294 16.4289 72.5162 16.4289H69.855C69.8418 16.4289 69.8291 16.4341 69.8198 16.4434C69.8105 16.4527 69.8052 16.4654 69.8052 16.4785L69.8068 18.595C69.8068 18.6082 69.812 18.6208 69.8213 18.6301C69.8307 18.6394 69.8433 18.6446 69.8565 18.6446Z" fill="#58575C"/>
<path d="M77.1404 14.5295L78.7617 11.7613C78.7659 11.7539 78.772 11.7478 78.7794 11.7434C78.7867 11.7391 78.7951 11.7367 78.8036 11.7365H80.5493C80.5582 11.7365 80.5669 11.7389 80.5745 11.7434C80.5821 11.748 80.5884 11.7544 80.5927 11.7622C80.597 11.7699 80.5991 11.7787 80.5989 11.7876C80.5986 11.7964 80.596 11.805 80.5913 11.8125L78.1787 15.7568C78.174 15.7649 78.1716 15.7741 78.1719 15.7834C78.1722 15.7928 78.1751 15.8018 78.1803 15.8096L80.8462 19.9137C80.8509 19.9211 80.8535 19.9296 80.8538 19.9383C80.8541 19.947 80.8521 19.9557 80.848 19.9634C80.8439 19.9711 80.8379 19.9776 80.8304 19.9822C80.823 19.9869 80.8145 19.9895 80.8058 19.9898L78.8876 20.0301C78.8785 20.0305 78.8695 20.0283 78.8616 20.024C78.8536 20.0196 78.847 20.0131 78.8425 20.0053L77.1155 17.0711C77.1112 17.0633 77.1049 17.0569 77.0972 17.0524C77.0896 17.0479 77.0808 17.0455 77.072 17.0455C77.0631 17.0455 77.0543 17.0479 77.0467 17.0524C77.039 17.0569 77.0327 17.0633 77.0284 17.0711L75.3232 19.9898C75.3188 19.9974 75.3124 20.0037 75.3048 20.008C75.2971 20.0124 75.2885 20.0147 75.2797 20.0146L73.4656 19.9929C73.4567 19.9928 73.448 19.9904 73.4404 19.9859C73.4328 19.9814 73.4265 19.9749 73.4222 19.9672C73.4179 19.9594 73.4158 19.9507 73.416 19.9418C73.4163 19.933 73.4189 19.9243 73.4236 19.9168L76.0071 15.8158C76.0123 15.808 76.0153 15.799 76.0155 15.7896C76.0158 15.7803 76.0134 15.7711 76.0087 15.763L73.5666 11.8187C73.5623 11.8113 73.56 11.8028 73.56 11.7942C73.5599 11.7856 73.5621 11.7771 73.5663 11.7696C73.5706 11.762 73.5767 11.7558 73.5841 11.7513C73.5915 11.7469 73.6 11.7445 73.6086 11.7443L75.3885 11.7334C75.397 11.7336 75.4054 11.736 75.4127 11.7403C75.4201 11.7447 75.4262 11.7508 75.4304 11.7582L77.0533 14.5295C77.0576 14.5372 77.0639 14.5437 77.0716 14.5482C77.0792 14.5527 77.0879 14.5551 77.0968 14.5551C77.1057 14.5551 77.1144 14.5527 77.1221 14.5482C77.1297 14.5437 77.136 14.5372 77.1404 14.5295Z" fill="#58575C"/>
<path d="M106.805 13.2059V19.9137C106.805 19.9325 106.797 19.9506 106.784 19.9642C106.771 19.9778 106.754 19.9858 106.735 19.9866L105.246 20.0394C105.236 20.0398 105.226 20.0382 105.217 20.0348C105.207 20.0313 105.199 20.026 105.192 20.0192C105.185 20.0124 105.179 20.0042 105.175 19.9951C105.171 19.9861 105.169 19.9763 105.169 19.9665L105.225 13.2059C105.225 13.1866 105.218 13.168 105.204 13.1544C105.19 13.1407 105.172 13.133 105.152 13.133H103.108C103.089 13.133 103.07 13.1253 103.057 13.1116C103.043 13.098 103.035 13.0794 103.035 13.0601V11.8172C103.035 11.7978 103.043 11.7793 103.057 11.7656C103.07 11.7519 103.089 11.7443 103.108 11.7443L108.908 11.7334C108.918 11.7334 108.927 11.7353 108.936 11.7389C108.945 11.7426 108.953 11.748 108.96 11.7548C108.966 11.7615 108.972 11.7696 108.975 11.7784C108.979 11.7873 108.981 11.7967 108.981 11.8063V13.0601C108.981 13.0794 108.973 13.098 108.96 13.1116C108.946 13.1253 108.927 13.133 108.908 13.133H106.878C106.858 13.133 106.84 13.1407 106.826 13.1544C106.812 13.168 106.805 13.1866 106.805 13.2059Z" fill="#58575C"/>
<path d="M41.1557 27.0548C39.6074 28.4932 38.4229 24.7134 41.1495 24.6746C41.2199 24.6736 41.2541 24.6384 41.2521 24.5691L41.2303 23.6195C41.2293 23.5605 41.2583 23.5305 41.3173 23.5295L41.8148 23.5264C41.8759 23.5264 41.9065 23.5569 41.9065 23.6179C41.9075 24.8044 41.9075 25.9883 41.9065 27.1697C41.9065 27.24 41.8889 27.2876 41.8536 27.3124C41.8215 27.3362 41.7826 27.3398 41.737 27.3233C41.6977 27.3098 41.6578 27.3083 41.6174 27.3186C41.4008 27.3765 41.2785 27.3 41.2505 27.089C41.2412 27.0166 41.2096 27.0052 41.1557 27.0548ZM41.1852 25.3108L40.4422 25.2409C40.4318 25.2399 40.4212 25.2409 40.4112 25.2439C40.4012 25.2469 40.3918 25.2519 40.3837 25.2585C40.3756 25.2652 40.3689 25.2733 40.364 25.2826C40.3591 25.2918 40.3561 25.3019 40.3551 25.3123L40.2852 26.0571C40.2762 26.1513 40.2789 26.2457 40.2933 26.335C40.3076 26.4242 40.3333 26.5065 40.3688 26.5771C40.4043 26.6477 40.449 26.7053 40.5002 26.7465C40.5515 26.7877 40.6084 26.8118 40.6676 26.8174C40.787 26.8284 40.9086 26.7635 41.0057 26.6369C41.1027 26.5104 41.1673 26.3325 41.1852 26.1425L41.2567 25.3961C41.2584 25.3754 41.2519 25.3548 41.2385 25.3388C41.2251 25.3228 41.206 25.3127 41.1852 25.3108Z" fill="#58575C"/>
<path d="M73.3483 23.5311L72.7918 23.5321C72.7515 23.5322 72.7188 23.5649 72.7189 23.6052L72.7253 27.2546C72.7253 27.2949 72.7581 27.3275 72.7984 27.3274L73.3549 27.3265C73.3953 27.3264 73.4279 27.2937 73.4279 27.2534L73.4215 23.6039C73.4214 23.5637 73.3887 23.5311 73.3483 23.5311Z" fill="#58575C"/>
<path d="M102.134 24.977C102.574 24.6527 103.272 24.4727 103.552 25.0577C103.773 25.5247 103.65 26.6481 103.667 27.2284C103.668 27.2688 103.648 27.2895 103.608 27.2905L103.067 27.3138C102.993 27.3169 102.957 27.2817 102.957 27.2083V25.5263C102.957 25.4685 102.936 25.4124 102.899 25.3679C102.861 25.3234 102.809 25.2932 102.751 25.2827C101.887 25.1259 102.061 26.7273 102.111 27.1865C102.119 27.2579 102.088 27.2957 102.016 27.2998L101.469 27.3386C101.399 27.3438 101.363 27.3112 101.363 27.2409V23.6457C101.363 23.5681 101.402 23.5293 101.48 23.5293H102.016C102.027 23.5293 102.037 23.5314 102.047 23.5355C102.056 23.5396 102.065 23.5456 102.072 23.5531C102.08 23.5606 102.085 23.5696 102.089 23.5793C102.093 23.5891 102.094 23.5995 102.094 23.61L102.043 24.9289C102.039 25.0096 102.07 25.0256 102.134 24.977Z" fill="#58575C"/>
<path d="M42.9538 24.3563C43.1753 24.3563 43.3548 24.1771 43.3548 23.956C43.3548 23.7349 43.1753 23.5557 42.9538 23.5557C42.7323 23.5557 42.5527 23.7349 42.5527 23.956C42.5527 24.1771 42.7323 24.3563 42.9538 24.3563Z" fill="#58575C"/>
<path d="M109.428 24.3586C109.651 24.3586 109.832 24.178 109.832 23.9552C109.832 23.7324 109.651 23.5518 109.428 23.5518C109.204 23.5518 109.023 23.7324 109.023 23.9552C109.023 24.178 109.204 24.3586 109.428 24.3586Z" fill="#58575C"/>
<path d="M31.4388 26.6641C31.8445 26.6998 32.4041 26.9123 32.6606 26.5058C32.687 26.4639 32.7044 26.4169 32.7116 26.368C32.7188 26.319 32.7158 26.2691 32.7026 26.2215C32.6894 26.1739 32.6664 26.1296 32.6351 26.0914C32.6038 26.0533 32.5648 26.0221 32.5207 26C31.8833 25.6803 30.7983 25.3203 31.3626 24.3382C31.7046 23.7454 32.4989 23.6663 33.1191 23.8075C33.1782 23.8209 33.2067 23.8577 33.2046 23.9177L33.1906 24.2932C33.1886 24.3552 33.157 24.3842 33.0958 24.38L32.4056 24.3319C32.3288 24.3265 32.2522 24.3455 32.1866 24.3862C32.121 24.4268 32.0698 24.4871 32.0403 24.5585C31.7046 25.3778 34.2663 25.2583 33.301 26.8146C32.9342 27.4073 32.0543 27.3887 31.3579 27.2909C31.3123 27.2847 31.2921 27.2584 31.2973 27.2118L31.347 26.7386C31.3522 26.6837 31.3828 26.6589 31.4388 26.6641Z" fill="#58575C"/>
<path d="M58.2169 25.2714C58.106 25.2859 58.0309 25.2828 57.9915 25.2621C57.9555 25.2453 57.9214 25.2211 57.891 25.1907C57.8606 25.1603 57.8345 25.1244 57.8142 25.0851C57.7939 25.0457 57.7798 25.0036 57.7728 24.9613C57.7657 24.9189 57.7658 24.8771 57.7731 24.8382C57.7803 24.7992 57.7946 24.764 57.815 24.7345C57.8355 24.7049 57.8617 24.6816 57.8922 24.666C57.9228 24.6503 57.957 24.6425 57.993 24.6431C58.0289 24.6437 58.0659 24.6526 58.1018 24.6693C58.1547 24.6921 58.2024 24.7009 58.2449 24.6957C58.2977 24.6885 58.3231 24.658 58.321 24.6042L58.2977 24.0735C58.2936 23.9959 58.3288 23.9457 58.4034 23.923L58.8931 23.7787C58.9666 23.757 59.0034 23.7844 59.0034 23.8609V24.6988C59.0034 24.7093 59.0057 24.7197 59.0103 24.7292C59.0148 24.7386 59.0215 24.747 59.0297 24.7535C59.0379 24.7601 59.0475 24.7647 59.0578 24.7671C59.068 24.7694 59.0787 24.7694 59.0889 24.7671L59.462 24.6817C59.5335 24.6652 59.5739 24.6931 59.5833 24.7655L59.6377 25.1721C59.648 25.2528 59.6128 25.2895 59.532 25.2822L59.1014 25.2466C59.0423 25.2424 59.0117 25.2693 59.0097 25.3272C58.9972 25.681 58.7749 27.0201 59.4822 26.7656C59.4939 26.7616 59.5063 26.7602 59.5185 26.7616C59.5308 26.763 59.5426 26.7671 59.553 26.7737C59.5635 26.7803 59.5723 26.7891 59.5789 26.7995C59.5855 26.8099 59.5896 26.8217 59.591 26.8339L59.6345 27.2032C59.6428 27.2694 59.6133 27.3066 59.5459 27.3149C59.0687 27.3677 58.4112 27.4732 58.3474 26.8091C58.3019 26.326 58.2889 25.8408 58.3086 25.3536C58.3117 25.2895 58.2811 25.2621 58.2169 25.2714Z" fill="#58575C"/>
<path d="M111.361 24.738L111.764 24.6822C111.826 24.6739 111.859 24.7013 111.862 24.7644L111.882 25.1756C111.883 25.1914 111.88 25.2073 111.874 25.222C111.868 25.2366 111.859 25.2498 111.847 25.2605C111.835 25.2712 111.821 25.2791 111.805 25.2838C111.79 25.2884 111.774 25.2896 111.758 25.2873L111.382 25.2361C111.316 25.2268 111.283 25.2552 111.28 25.3214C111.268 25.6768 111.043 27.0252 111.758 26.7645C111.77 26.7602 111.783 26.7587 111.796 26.7603C111.809 26.7618 111.821 26.7662 111.832 26.7733C111.843 26.7803 111.852 26.7897 111.859 26.8008C111.866 26.812 111.87 26.8245 111.871 26.8374L111.904 27.2346C111.909 27.2884 111.885 27.3179 111.831 27.3231C111.313 27.3743 110.593 27.4581 110.586 26.6714C110.583 26.238 110.594 25.804 110.62 25.3695C110.62 25.3573 110.619 25.3451 110.614 25.3337C110.61 25.3222 110.604 25.3117 110.596 25.3029C110.587 25.294 110.577 25.2869 110.566 25.2821C110.555 25.2773 110.543 25.2749 110.531 25.2749H110.405C110.36 25.275 110.316 25.2645 110.275 25.2442C110.235 25.2239 110.2 25.1945 110.173 25.1582C110.147 25.122 110.129 25.0799 110.121 25.0355C110.114 24.9911 110.117 24.9455 110.13 24.9025C110.188 24.7153 110.32 24.647 110.525 24.6977C110.591 24.7142 110.621 24.6884 110.615 24.6201L110.564 24.0724C110.561 24.0444 110.568 24.0163 110.584 23.9928C110.599 23.9694 110.622 23.952 110.649 23.9436L111.156 23.7791C111.235 23.7543 111.274 23.7832 111.274 23.866V24.662C111.274 24.721 111.303 24.7463 111.361 24.738Z" fill="#58575C"/>
<path d="M46.0352 25.235H47.0798C47.0924 25.235 47.1046 25.2398 47.1139 25.2485C47.1231 25.2571 47.1287 25.269 47.1295 25.2816L47.1606 25.7254C47.161 25.7321 47.1601 25.7389 47.1577 25.7453C47.1554 25.7517 47.1518 25.7575 47.1472 25.7625C47.1425 25.7674 47.1369 25.7714 47.1306 25.7741C47.1244 25.7767 47.1177 25.7781 47.1109 25.7781H46.0461C46.0331 25.7781 46.0207 25.7831 46.0114 25.7921C46.0021 25.8011 45.9967 25.8133 45.9963 25.8262L45.9621 26.6579C45.9619 26.6645 45.963 26.6712 45.9654 26.6774C45.9678 26.6836 45.9715 26.6892 45.9761 26.694C45.9808 26.6988 45.9863 26.7026 45.9924 26.7052C45.9986 26.7078 46.0052 26.7091 46.0119 26.7091H47.1808C47.1875 26.7091 47.1941 26.7104 47.2002 26.713C47.2064 26.7156 47.2119 26.7194 47.2165 26.7242C47.2212 26.729 47.2248 26.7346 47.2272 26.7408C47.2296 26.747 47.2308 26.7537 47.2306 26.7603L47.2088 27.2413C47.208 27.2539 47.2024 27.2658 47.1932 27.2744C47.1839 27.2831 47.1717 27.2879 47.159 27.2879L45.3325 27.2972C45.3194 27.2972 45.3067 27.292 45.2974 27.2826C45.288 27.2733 45.2828 27.2607 45.2828 27.2475L45.2812 23.8634C45.2812 23.8502 45.2865 23.8376 45.2958 23.8283C45.3051 23.8189 45.3178 23.8137 45.331 23.8137L47.1964 23.792C47.2034 23.7919 47.2105 23.7934 47.2169 23.7963C47.2234 23.7991 47.2292 23.8034 47.2339 23.8087C47.2386 23.8139 47.2422 23.8202 47.2443 23.8269C47.2464 23.8337 47.247 23.8408 47.2461 23.8479L47.1793 24.3832C47.1777 24.3958 47.1713 24.4073 47.1615 24.4154C47.1517 24.4235 47.1391 24.4275 47.1264 24.4266L46.0383 24.3677C46.0315 24.3672 46.0247 24.3682 46.0183 24.3705C46.0119 24.3728 46.006 24.3764 46.0011 24.3811C45.9961 24.3857 45.9922 24.3913 45.9895 24.3976C45.9868 24.4038 45.9854 24.4105 45.9854 24.4173V25.1854C45.9854 25.1985 45.9907 25.2112 46 25.2205C46.0093 25.2298 46.022 25.235 46.0352 25.235Z" fill="#58575C"/>
<path d="M61.4141 23.8168C61.4141 23.8125 61.4149 23.8082 61.4165 23.8043C61.4182 23.8003 61.4206 23.7967 61.4236 23.7937C61.4267 23.7907 61.4303 23.7883 61.4342 23.7867C61.4382 23.785 61.4424 23.7842 61.4467 23.7842H62.7089C63.1389 23.7842 63.5513 23.9475 63.8554 24.2382C64.1594 24.5289 64.3302 24.9232 64.3302 25.3343V25.7563C64.3302 26.1674 64.1594 26.5617 63.8554 26.8524C63.5513 27.1431 63.1389 27.3064 62.7089 27.3064H61.4467C61.438 27.3064 61.4297 27.303 61.4236 27.2969C61.4175 27.2908 61.4141 27.2825 61.4141 27.2739V23.8168ZM62.1555 24.4157L62.1462 26.6625C62.1462 26.668 62.1473 26.6735 62.1494 26.6785C62.1515 26.6836 62.1546 26.6882 62.1585 26.6921C62.1624 26.696 62.167 26.6991 62.1721 26.7012C62.1772 26.7033 62.1827 26.7044 62.1882 26.7044L62.5675 26.7059C62.8367 26.7072 63.0954 26.6005 63.2866 26.4093C63.4778 26.2181 63.586 25.9581 63.5872 25.6865V25.4041C63.5878 25.2696 63.5622 25.1363 63.5117 25.0118C63.4613 24.8874 63.387 24.7741 63.2932 24.6786C63.1994 24.5831 63.0878 24.5071 62.9649 24.4551C62.842 24.4031 62.7101 24.376 62.5768 24.3754L62.1975 24.3738C62.1864 24.3738 62.1757 24.3782 62.1678 24.3861C62.16 24.3939 62.1555 24.4046 62.1555 24.4157Z" fill="#58575C"/>
<path d="M90.1699 24.6304L90.173 24.0175C90.173 23.9555 90.203 23.9172 90.2631 23.9027L90.7435 23.7879C90.8129 23.7713 90.8445 23.7987 90.8383 23.8701L90.7823 24.5916C90.781 24.6063 90.7827 24.6211 90.7872 24.6351C90.7916 24.6492 90.7989 24.6622 90.8084 24.6735C90.8179 24.6847 90.8296 24.694 90.8427 24.7007C90.8559 24.7074 90.8702 24.7115 90.8849 24.7127L91.2502 24.7421C91.3694 24.7515 91.4368 24.8156 91.4523 24.9345C91.4917 25.2501 91.359 25.3525 91.0544 25.2418C90.8917 25.1838 90.815 25.2407 90.8243 25.4125C90.8445 25.8174 90.6828 26.2969 90.9222 26.7236C90.9461 26.766 90.9818 26.7872 91.0295 26.7872H91.2782C91.352 26.7854 91.4235 26.8129 91.477 26.8636C91.5305 26.9144 91.5616 26.9843 91.5634 27.058C91.5653 27.1317 91.5378 27.203 91.4869 27.2564C91.436 27.3098 91.366 27.3409 91.2922 27.3427C90.9471 27.3613 90.6201 27.3241 90.3113 27.231C90.2795 27.221 90.2516 27.2014 90.2315 27.175C90.2114 27.1485 90.2002 27.1166 90.1994 27.0836L90.159 25.324C90.1579 25.264 90.1274 25.2382 90.0673 25.2464L89.8357 25.2821C89.8194 25.2843 89.8029 25.2831 89.7872 25.2784C89.7715 25.2737 89.757 25.2657 89.7447 25.255C89.7323 25.2443 89.7224 25.2311 89.7155 25.2162C89.7087 25.2013 89.7051 25.1852 89.7051 25.1689V24.8275C89.7051 24.7633 89.7372 24.7313 89.8015 24.7313H90.0688C90.0954 24.7313 90.1208 24.7207 90.1397 24.7018C90.1586 24.683 90.1695 24.6573 90.1699 24.6304Z" fill="#58575C"/>
<path d="M93.8174 26.6656L93.6557 27.1963C93.636 27.2594 93.5936 27.291 93.5283 27.291H92.9795C92.9111 27.291 92.8894 27.2594 92.9142 27.1963C93.3029 26.1784 93.6588 25.145 93.9822 24.0961C94.0156 23.9866 94.0827 23.8905 94.1741 23.8213C94.2654 23.7522 94.3764 23.7137 94.4911 23.7111C94.6059 23.7085 94.7186 23.7421 94.8134 23.807C94.9081 23.8719 94.9801 23.9649 95.019 24.0728L96.1382 27.1885C96.161 27.2506 96.1393 27.2842 96.0729 27.2894L95.4698 27.3406C95.4438 27.3427 95.4178 27.3353 95.3964 27.3197C95.3751 27.3041 95.3598 27.2812 95.3532 27.2553L95.2102 26.6936C95.2032 26.6648 95.1868 26.6392 95.1637 26.6209C95.1406 26.6026 95.1121 26.5927 95.0827 26.5927H93.9153C93.8645 26.5927 93.8319 26.617 93.8174 26.6656ZM94.5433 24.7525C94.54 24.7428 94.5338 24.7345 94.5254 24.7286C94.5171 24.7228 94.5071 24.7197 94.4969 24.7199C94.4867 24.7201 94.4768 24.7235 94.4687 24.7296C94.4606 24.7357 94.4546 24.7443 94.4516 24.754L94.0397 25.986C94.0372 25.9932 94.0365 26.0009 94.0376 26.0084C94.0387 26.0159 94.0416 26.0231 94.046 26.0293C94.0504 26.0355 94.0562 26.0406 94.0629 26.0441C94.0697 26.0477 94.0771 26.0496 94.0848 26.0496H94.9148C94.9225 26.0496 94.93 26.0477 94.9367 26.0441C94.9434 26.0406 94.9493 26.0355 94.9537 26.0293C94.9581 26.0231 94.9609 26.0159 94.962 26.0084C94.9631 26.0009 94.9624 25.9932 94.9599 25.986L94.5433 24.7525Z" fill="#58575C"/>
<path d="M100.364 26.7836L100.762 26.7882C100.787 26.7886 100.812 26.7989 100.83 26.8169C100.848 26.8349 100.858 26.8592 100.858 26.8844V27.1792C100.858 27.2506 100.823 27.292 100.752 27.3034C100.376 27.3608 99.6332 27.4694 99.6053 26.8922C99.5814 26.3946 99.5711 25.8955 99.5742 25.3948C99.5742 25.3338 99.5436 25.2981 99.4825 25.2878L99.2011 25.2428C99.14 25.2324 99.1094 25.1962 99.1094 25.1342V24.8595C99.1094 24.7881 99.1446 24.7483 99.2151 24.74L99.4778 24.7106C99.5431 24.7023 99.5757 24.665 99.5757 24.5988V24.017C99.5757 23.9549 99.6058 23.9166 99.6659 23.9021L100.149 23.7873C100.221 23.7697 100.254 23.7977 100.249 23.8711L100.194 24.6283C100.194 24.6415 100.195 24.6546 100.2 24.667C100.204 24.6794 100.211 24.6908 100.22 24.7004C100.229 24.71 100.24 24.7176 100.252 24.7229C100.265 24.7281 100.278 24.7308 100.291 24.7307H100.762C100.827 24.7307 100.86 24.7633 100.86 24.8285L100.855 25.1745C100.855 25.2008 100.844 25.2261 100.825 25.2447C100.806 25.2633 100.781 25.2738 100.754 25.2738H100.305C100.248 25.2738 100.22 25.3023 100.221 25.3591L100.252 26.6734C100.253 26.7026 100.265 26.7304 100.286 26.751C100.307 26.7715 100.335 26.7832 100.364 26.7836Z" fill="#58575C"/>
<path d="M56.8694 25.0217C56.8679 25.033 56.8703 25.0445 56.8763 25.0542C56.8822 25.0639 56.8913 25.0713 56.9021 25.0751C56.9128 25.079 56.9245 25.079 56.9353 25.0752C56.9461 25.0714 56.9552 25.064 56.9612 25.0543C57.0928 24.8236 57.2907 24.6897 57.555 24.6524C57.571 24.6502 57.5873 24.6515 57.6027 24.6562C57.6182 24.6608 57.6326 24.6688 57.6448 24.6795C57.657 24.6902 57.6668 24.7035 57.6736 24.7183C57.6803 24.7332 57.6839 24.7493 57.684 24.7657V25.2374C57.684 25.2491 57.6817 25.2608 57.6772 25.2716C57.6727 25.2824 57.6662 25.2923 57.6579 25.3005C57.6497 25.3087 57.6399 25.3152 57.6292 25.3196C57.6184 25.3239 57.6069 25.326 57.5954 25.3258C56.7389 25.3134 56.9285 26.6789 56.986 27.2049C56.9922 27.2597 56.9674 27.2876 56.9114 27.2887L56.3425 27.2995C56.2782 27.3006 56.2461 27.269 56.2461 27.2049V25.0403C56.2461 24.85 56.3404 24.7372 56.529 24.7021C56.7995 24.6524 56.913 24.759 56.8694 25.0217Z" fill="#58575C"/>
<path d="M107.93 25.043L108.325 24.697C108.353 24.6721 108.388 24.6561 108.426 24.6511C108.463 24.6461 108.501 24.6523 108.535 24.6689C108.569 24.6855 108.597 24.7118 108.616 24.7444C108.635 24.777 108.644 24.8145 108.642 24.8521L108.623 25.2152C108.62 25.2711 108.591 25.3026 108.535 25.3099C107.698 25.4092 107.928 26.6257 107.928 27.22C107.928 27.2862 107.896 27.3187 107.83 27.3177L107.299 27.3115C107.253 27.3115 107.23 27.2887 107.23 27.2432V25.0088C107.23 24.9504 107.249 24.8933 107.283 24.8455C107.317 24.7977 107.365 24.7615 107.42 24.742C107.769 24.6199 107.921 24.7099 107.874 25.0119C107.865 25.073 107.883 25.0833 107.93 25.043Z" fill="#58575C"/>
<path d="M35.3722 25.629C35.3101 24.9851 34.5935 25.238 34.1909 25.3187C34.1651 25.3237 34.1384 25.3184 34.1166 25.3038C34.0947 25.2893 34.0795 25.2668 34.0743 25.2411L34.0136 24.9323C34.0033 24.8785 34.024 24.8428 34.0758 24.8253C34.6898 24.6173 36.0034 24.4684 35.994 25.4568C35.9899 26.0381 36.0028 26.62 36.0329 27.2024C36.036 27.2541 36.0127 27.2893 35.9629 27.3079C35.6676 27.4165 35.4743 27.3477 35.3831 27.1015C35.3614 27.0436 35.3277 27.0353 35.2821 27.0767C33.9934 28.2699 32.8804 25.643 35.2774 25.7283C35.2904 25.7288 35.3034 25.7265 35.3154 25.7216C35.3274 25.7168 35.3383 25.7094 35.3473 25.7C35.3562 25.6906 35.3631 25.6794 35.3674 25.6672C35.3717 25.6549 35.3734 25.6419 35.3722 25.629ZM34.4971 26.4219L34.6572 26.8362C34.6601 26.8441 34.6646 26.8513 34.6703 26.8574C34.6761 26.8635 34.683 26.8685 34.6906 26.8719C34.6983 26.8754 34.7065 26.8773 34.715 26.8776C34.7234 26.8778 34.7317 26.8764 34.7396 26.8734L34.8593 26.8269C35.0141 26.7672 35.1522 26.683 35.2431 26.5928C35.334 26.5026 35.3704 26.4138 35.3443 26.3459L35.3365 26.3257C35.3235 26.292 35.2955 26.2645 35.2541 26.2447C35.2127 26.2249 35.1587 26.2132 35.0951 26.2104C35.0316 26.2075 34.9598 26.2134 34.8839 26.2279C34.8079 26.2424 34.7293 26.2651 34.6525 26.2947L34.5344 26.3397C34.5265 26.3426 34.5193 26.3471 34.5131 26.3528C34.507 26.3585 34.5021 26.3654 34.4986 26.373C34.4951 26.3807 34.4932 26.3889 34.4929 26.3973C34.4927 26.4057 34.4941 26.4141 34.4971 26.4219Z" fill="#58575C"/>
<path d="M38.4083 27.0174C38.4086 27.0072 38.4057 26.9972 38.4001 26.9887C38.3944 26.9802 38.3863 26.9736 38.3768 26.9699C38.3673 26.9662 38.3568 26.9655 38.3469 26.9679C38.337 26.9703 38.328 26.9756 38.3213 26.9833C37.9617 27.3681 37.5285 27.4478 37.0217 27.2223C36.9709 27.2005 36.9321 27.1654 36.9051 27.1167C36.6269 26.6202 36.7279 25.6256 36.7435 24.8343C36.7445 24.7794 36.7725 24.7489 36.8274 24.7427L37.3311 24.6869C37.4015 24.6786 37.4368 24.7096 37.4368 24.78L37.4383 26.4945C37.4383 26.6673 37.5243 26.7614 37.6964 26.7769C38.4876 26.8499 38.3524 25.2299 38.3182 24.7862C38.3175 24.7754 38.3191 24.7646 38.3229 24.7545C38.3267 24.7444 38.3327 24.7352 38.3403 24.7276C38.348 24.72 38.3571 24.714 38.3673 24.7102C38.3774 24.7064 38.3882 24.7048 38.399 24.7055L38.8762 24.7396C38.9508 24.7448 38.9881 24.7846 38.9881 24.8591L38.999 27.2455C38.9991 27.2616 38.993 27.2771 38.982 27.2889C38.9711 27.3008 38.956 27.308 38.9399 27.3091L38.5311 27.334C38.4492 27.3391 38.4083 27.3009 38.4083 27.2192V27.0174Z" fill="#58575C"/>
<path d="M43.2275 24.7051H42.7207C42.6786 24.7051 42.6445 24.7391 42.6445 24.7811V27.2451C42.6445 27.2871 42.6786 27.3212 42.7207 27.3212H43.2275C43.2695 27.3212 43.3036 27.2871 43.3036 27.2451V24.7811C43.3036 24.7391 43.2695 24.7051 43.2275 24.7051Z" fill="#58575C"/>
<path d="M48.2263 27.2737L47.5236 27.3326C47.5092 27.3338 47.4948 27.3308 47.482 27.3241C47.4692 27.3173 47.4586 27.3071 47.4514 27.2946C47.4443 27.282 47.4408 27.2677 47.4415 27.2533C47.4422 27.2389 47.4469 27.225 47.4552 27.2132L48.2682 26.051C48.277 26.0385 48.2819 26.0238 48.2821 26.0085C48.2824 25.9933 48.2781 25.9784 48.2698 25.9656L47.5221 24.8221C47.5141 24.8101 47.5097 24.7962 47.5093 24.7819C47.5089 24.7676 47.5126 24.7535 47.5199 24.7411C47.5272 24.7288 47.5379 24.7188 47.5506 24.7123C47.5634 24.7057 47.5777 24.7029 47.592 24.7041L48.2527 24.746C48.2656 24.7469 48.2781 24.7511 48.289 24.7581C48.2999 24.7652 48.3088 24.7749 48.3149 24.7864L48.6833 25.4613C48.6898 25.4728 48.6991 25.4823 48.7104 25.489C48.7217 25.4958 48.7345 25.4995 48.7477 25.4998C48.7608 25.5001 48.7738 25.497 48.7854 25.4908C48.797 25.4846 48.8068 25.4755 48.8138 25.4644L49.246 24.7616C49.2523 24.7514 49.261 24.7428 49.2712 24.7366C49.2815 24.7304 49.2931 24.7267 49.3051 24.7259L49.9066 24.6809C49.9207 24.6798 49.9347 24.6827 49.9473 24.6892C49.9598 24.6957 49.9702 24.7055 49.9775 24.7176C49.9847 24.7296 49.9885 24.7435 49.9883 24.7575C49.9882 24.7716 49.9841 24.7853 49.9766 24.7972L49.2382 25.9625C49.2305 25.9749 49.2266 25.9893 49.2269 26.0039C49.2272 26.0185 49.2316 26.0327 49.2398 26.0448L50.0139 27.2116C50.0216 27.2232 50.0259 27.2367 50.0265 27.2505C50.027 27.2644 50.0237 27.2782 50.017 27.2903C50.0103 27.3025 50.0004 27.3125 49.9883 27.3195C49.9762 27.3264 49.9625 27.3299 49.9486 27.3295L49.2538 27.3078C49.2408 27.3075 49.2282 27.3039 49.2171 27.2974C49.2059 27.2909 49.1966 27.2817 49.19 27.2706L48.761 26.5491C48.754 26.5373 48.744 26.5276 48.732 26.5211C48.72 26.5145 48.7064 26.5113 48.6928 26.5118C48.6791 26.5122 48.6658 26.5164 48.6543 26.5238C48.6427 26.5311 48.6334 26.5415 48.6273 26.5537L48.2869 27.2318C48.2812 27.2433 48.2726 27.2532 48.262 27.2605C48.2514 27.2679 48.2391 27.2724 48.2263 27.2737Z" fill="#58575C"/>
<path d="M51.1608 25.0005C51.7515 24.2836 52.7168 24.7584 52.8194 25.5823C52.9686 26.7895 52.4386 27.3735 51.2292 27.3342C51.1794 27.3321 51.1546 27.3564 51.1546 27.4071V28.4514C51.1546 28.5072 51.1266 28.5351 51.0706 28.5351L50.5468 28.5305C50.4794 28.5305 50.4463 28.4969 50.4473 28.4296L50.4737 25.0129C50.4747 24.8753 50.5406 24.7822 50.6711 24.7336C50.9665 24.6229 51.1017 24.7005 51.0768 24.9663C51.0675 25.0687 51.0955 25.0801 51.1608 25.0005ZM51.4525 26.8581C51.5148 26.8709 51.5809 26.8628 51.6469 26.8342C51.7128 26.8056 51.7774 26.7571 51.8368 26.6914C51.8963 26.6258 51.9495 26.5443 51.9935 26.4517C52.0374 26.359 52.0712 26.257 52.0929 26.1514C52.1146 26.0458 52.1238 25.9387 52.12 25.8363C52.1162 25.7338 52.0994 25.638 52.0707 25.5543C52.0419 25.4706 52.0017 25.4007 51.9524 25.3484C51.903 25.2962 51.8455 25.2628 51.7832 25.25C51.7208 25.2372 51.6547 25.2453 51.5888 25.2739C51.5228 25.3025 51.4583 25.351 51.3988 25.4166C51.3393 25.4823 51.2861 25.5637 51.2422 25.6564C51.1982 25.7491 51.1644 25.8511 51.1427 25.9567C51.121 26.0623 51.1118 26.1694 51.1156 26.2718C51.1194 26.3743 51.1362 26.4701 51.1649 26.5538C51.1937 26.6375 51.2339 26.7074 51.2832 26.7597C51.3326 26.8119 51.3901 26.8453 51.4525 26.8581Z" fill="#58575C"/>
<path d="M53.8493 27.2504C53.5445 27.1007 53.3164 26.8267 53.2153 26.4887C53.1142 26.1507 53.1483 25.7765 53.3101 25.4482C53.4719 25.1199 53.7482 24.8646 54.0782 24.7383C54.4081 24.6121 54.7647 24.6253 55.0695 24.775C55.3743 24.9247 55.6024 25.1987 55.7035 25.5367C55.8046 25.8746 55.7705 26.2489 55.6087 26.5772C55.4469 26.9054 55.1706 27.1608 54.8406 27.287C54.5107 27.4133 54.1541 27.4001 53.8493 27.2504ZM54.4307 26.7739C54.5835 26.7803 54.7334 26.7065 54.8474 26.5689C54.9615 26.4312 55.0303 26.241 55.0387 26.0399C55.0471 25.8388 54.9945 25.6435 54.8924 25.4968C54.7904 25.3501 54.6472 25.2641 54.4943 25.2577C54.3415 25.2513 54.1916 25.325 54.0776 25.4627C53.9636 25.6003 53.8948 25.7906 53.8863 25.9917C53.8779 26.1927 53.9305 26.3881 54.0326 26.5348C54.1346 26.6815 54.2779 26.7675 54.4307 26.7739Z" fill="#58575C"/>
<path d="M65.4115 26.2281C65.5017 26.9853 66.2416 26.8643 66.7732 26.7107C66.8364 26.6921 66.8732 26.7153 66.8836 26.7805L66.9349 27.097C66.9432 27.1498 66.9219 27.1844 66.8712 27.201C66.0566 27.4617 64.8892 27.4663 64.7415 26.4143C64.4166 24.0822 67.4074 24.2451 66.9769 25.9985C66.964 26.0498 66.934 26.0951 66.8918 26.1267C66.8496 26.1584 66.7978 26.1745 66.7452 26.1722L65.5125 26.1179C65.4983 26.1174 65.4841 26.1199 65.471 26.1254C65.4578 26.1309 65.446 26.1391 65.4364 26.1496C65.4268 26.1601 65.4196 26.1726 65.4153 26.1861C65.411 26.1997 65.4097 26.214 65.4115 26.2281ZM65.4597 25.7068L66.3209 25.6943C66.3254 25.6941 66.3298 25.6931 66.3338 25.6912C66.3379 25.6893 66.3416 25.6866 66.3446 25.6833C66.3476 25.6799 66.35 25.6761 66.3515 25.6718C66.353 25.6676 66.3537 25.6631 66.3535 25.6587V25.6416C66.3525 25.5823 66.3399 25.5238 66.3164 25.4694C66.2928 25.415 66.2589 25.3658 66.2164 25.3246C66.174 25.2834 66.1239 25.251 66.069 25.2292C66.0141 25.2075 65.9555 25.1968 65.8965 25.1978H65.8654C65.8064 25.1988 65.7482 25.2115 65.6941 25.2351C65.6399 25.2587 65.591 25.2929 65.55 25.3355C65.509 25.3782 65.4768 25.4285 65.4551 25.4837C65.4335 25.5389 65.4229 25.5978 65.4239 25.6571V25.6742C65.4241 25.6787 65.4252 25.6831 65.4271 25.6871C65.429 25.6912 65.4317 25.6948 65.435 25.6979C65.4384 25.7009 65.4423 25.7032 65.4465 25.7048C65.4507 25.7063 65.4552 25.707 65.4597 25.7068Z" fill="#58575C"/>
<path d="M68.4684 26.4628C68.4701 26.4672 68.4731 26.471 68.477 26.4737C68.4809 26.4763 68.4855 26.4778 68.4902 26.4778C68.4949 26.4778 68.4995 26.4763 68.5034 26.4737C68.5073 26.471 68.5102 26.4672 68.5119 26.4628L69.0296 24.8088C69.0472 24.7519 69.086 24.7224 69.1462 24.7203L69.6591 24.711C69.742 24.7089 69.77 24.7472 69.7431 24.8258L68.9114 27.2076C68.9037 27.2308 68.8891 27.251 68.8696 27.2654C68.8502 27.2799 68.8267 27.2879 68.8026 27.2883L68.1793 27.2992C68.1088 27.3002 68.0622 27.2676 68.0394 27.2014L67.2326 24.8755C67.2269 24.8591 67.2252 24.8417 67.2276 24.8245C67.2301 24.8074 67.2366 24.7911 67.2466 24.7769C67.2567 24.7628 67.2699 24.7513 67.2854 24.7433C67.3008 24.7354 67.3179 24.7312 67.3352 24.7312H67.8451C67.8716 24.7313 67.8974 24.7398 67.9187 24.7554C67.94 24.7711 67.9556 24.793 67.9632 24.8181L68.4684 26.4628Z" fill="#58575C"/>
<path d="M69.9484 26.5212C69.4276 24.293 72.493 24.02 72.1992 26.0449C72.1959 26.0677 72.1843 26.0885 72.1666 26.1036C72.1489 26.1187 72.1263 26.127 72.1029 26.1271H70.6992C70.6308 26.1271 70.5966 26.1612 70.5966 26.2295C70.5966 26.951 71.4702 26.8998 71.9474 26.6919C72.0148 26.6629 72.0536 26.6847 72.064 26.7571L72.1122 27.0984C72.1205 27.1605 72.0946 27.2003 72.0345 27.2179C71.2619 27.4398 70.1707 27.4724 69.9484 26.5212ZM70.623 25.7035H71.4842C71.489 25.7035 71.4938 25.7025 71.4982 25.7006C71.5027 25.6988 71.5067 25.696 71.51 25.6925C71.5134 25.689 71.516 25.6849 71.5177 25.6804C71.5194 25.6759 71.5202 25.6711 71.5199 25.6663V25.6461C71.5195 25.5262 71.4725 25.4114 71.3892 25.3267C71.3058 25.2421 71.193 25.1946 71.0754 25.1946H71.0318C70.9733 25.1946 70.9154 25.2063 70.8613 25.2292C70.8073 25.252 70.7582 25.2856 70.7169 25.3278C70.6756 25.37 70.6429 25.4202 70.6207 25.4753C70.5984 25.5305 70.5871 25.5896 70.5873 25.6492V25.6694C70.5877 25.6786 70.5916 25.6872 70.5983 25.6936C70.6049 25.7 70.6138 25.7035 70.623 25.7035Z" fill="#58575C"/>
<path d="M74.6561 27.2778C74.5023 27.2098 74.3645 27.1098 74.2506 26.9836C74.1366 26.8574 74.0488 26.7074 73.992 26.5422C73.9353 26.377 73.9107 26.1998 73.9198 26.0207C73.9289 25.8417 73.9714 25.6643 74.0449 25.4987C74.1184 25.3331 74.2215 25.1825 74.3483 25.0555C74.4751 24.9285 74.6231 24.8277 74.7838 24.7587C74.9445 24.6896 75.1149 24.6539 75.2851 24.6533C75.4553 24.6528 75.6221 24.6875 75.7759 24.7556C75.9296 24.8236 76.0674 24.9236 76.1814 25.0498C76.2953 25.176 76.3832 25.326 76.4399 25.4912C76.4967 25.6564 76.5212 25.8336 76.5122 26.0127C76.5031 26.1917 76.4606 26.3691 76.387 26.5347C76.3135 26.7003 76.2104 26.8509 76.0836 26.9779C75.9569 27.1049 75.8089 27.2057 75.6482 27.2747C75.4874 27.3438 75.3171 27.3795 75.1469 27.3801C74.9767 27.3806 74.8099 27.3459 74.6561 27.2778ZM75.1887 26.7732C75.2636 26.7764 75.3385 26.7598 75.4093 26.7245C75.4801 26.6893 75.5452 26.6359 75.6011 26.5676C75.657 26.4993 75.7025 26.4173 75.735 26.3263C75.7676 26.2354 75.7864 26.1372 75.7906 26.0374C75.7948 25.9377 75.7842 25.8383 75.7595 25.7449C75.7347 25.6516 75.6962 25.5661 75.6462 25.4933C75.5963 25.4206 75.5358 25.362 75.4682 25.3209C75.4007 25.2798 75.3274 25.2571 75.2525 25.254C75.1777 25.2508 75.1027 25.2674 75.032 25.3027C74.9612 25.3379 74.896 25.3913 74.8402 25.4596C74.7843 25.5279 74.7388 25.6099 74.7062 25.7009C74.6737 25.7918 74.6548 25.89 74.6507 25.9897C74.6465 26.0895 74.6571 26.1889 74.6818 26.2823C74.7066 26.3756 74.7451 26.4611 74.795 26.5339C74.845 26.6066 74.9055 26.6652 74.973 26.7063C75.0406 26.7474 75.1139 26.7701 75.1887 26.7732Z" fill="#58575C"/>
<path d="M77.8141 24.9042C79.4634 23.6846 80.379 27.4194 77.7722 27.3372C77.7224 27.3351 77.6976 27.3589 77.6976 27.4085V28.4543C77.6976 28.5061 77.6717 28.5319 77.6198 28.5319H77.0758C77.024 28.5319 76.998 28.5061 76.998 28.4543V24.8483C76.998 24.826 77.0046 24.8042 77.0171 24.7856C77.0295 24.7671 77.0473 24.7527 77.068 24.7443C77.325 24.6357 77.5343 24.6838 77.696 24.8886C77.7302 24.9311 77.7696 24.9362 77.8141 24.9042ZM78.4717 25.3185C77.6696 24.9647 77.6416 26.2805 77.7271 26.7274C77.7364 26.7718 77.7639 26.7972 77.8095 26.8034C78.6878 26.9089 78.809 26.0291 78.5634 25.4131C78.555 25.3919 78.5426 25.3727 78.5269 25.3564C78.5111 25.3402 78.4924 25.3273 78.4717 25.3185Z" fill="#58575C"/>
<path d="M80.5712 25.0041C80.5701 25.0122 80.5716 25.0204 80.5755 25.0275C80.5795 25.0346 80.5857 25.0403 80.5932 25.0437C80.6008 25.0471 80.6094 25.0482 80.6177 25.0466C80.626 25.0451 80.6337 25.041 80.6396 25.0351C81.1132 24.5396 81.5904 24.5391 82.0713 25.0335C82.1055 25.0687 82.1402 25.0703 82.1754 25.0382C82.7288 24.5324 83.6211 24.4672 83.6926 25.4168C83.7392 26.0302 83.7434 26.6416 83.705 27.2509C83.7009 27.316 83.6661 27.3455 83.6009 27.3393L83.1081 27.2865C83.0708 27.2824 83.0521 27.2612 83.0521 27.2229L83.0568 25.4804C83.0567 25.4331 83.0441 25.3866 83.0203 25.3456C82.9965 25.3047 82.9623 25.2708 82.9213 25.2473C82.8803 25.2238 82.8338 25.2116 82.7866 25.212C82.7394 25.2123 82.6932 25.2252 82.6526 25.2492C81.9593 25.6573 82.1443 26.5573 82.1816 27.2152C82.1837 27.2555 82.1645 27.2778 82.1241 27.2819L81.6143 27.3378C81.5376 27.345 81.4997 27.3103 81.5008 27.2338C81.5101 26.6721 81.5894 25.8792 81.437 25.3547C81.4215 25.2978 81.3837 25.2689 81.3236 25.2678C80.4204 25.2523 80.5448 26.6131 80.6023 27.2214C80.6095 27.2938 80.5769 27.33 80.5044 27.33H80.0287C79.951 27.33 79.9121 27.2912 79.9121 27.2136V25.0522C79.9121 24.896 79.9857 24.7899 80.1328 24.7341C80.4562 24.613 80.6023 24.703 80.5712 25.0041Z" fill="#58575C"/>
<path d="M84.4884 25.187C85.1242 24.1583 86.8077 24.6765 86.5294 26.0994C86.5191 26.149 86.4885 26.1728 86.4377 26.1708L85.1568 26.1164C84.9765 26.1082 84.9138 26.1894 84.9687 26.3601C85.1739 26.9978 85.833 26.8706 86.3165 26.6937C86.3859 26.6688 86.4248 26.6931 86.433 26.7666L86.4688 27.0862C86.4781 27.1638 86.445 27.2119 86.3693 27.2305C85.8361 27.3671 85.0651 27.4478 84.6485 27.0847C84.1386 26.6425 84.1697 25.7006 84.4884 25.187ZM85.0231 25.7192L85.8315 25.6851C85.8371 25.6849 85.8427 25.6836 85.8478 25.6812C85.8529 25.6788 85.8575 25.6754 85.8613 25.6712C85.8651 25.667 85.8679 25.6621 85.8698 25.6567C85.8716 25.6514 85.8723 25.6457 85.8719 25.6401L85.8703 25.6168C85.8649 25.5003 85.8149 25.3906 85.7313 25.3118C85.6477 25.2329 85.5372 25.1914 85.4242 25.1963L85.3869 25.1979C85.2739 25.203 85.1676 25.254 85.0913 25.3398C85.015 25.4256 84.9748 25.5391 84.9796 25.6556V25.6789C84.9798 25.6844 84.9811 25.6898 84.9834 25.6948C84.9857 25.6998 84.989 25.7043 84.993 25.7081C84.997 25.7118 85.0018 25.7147 85.007 25.7166C85.0121 25.7186 85.0176 25.7194 85.0231 25.7192Z" fill="#58575C"/>
<path d="M87.8042 24.999C88.3016 24.5615 89.2949 24.4653 89.354 25.359C89.3944 25.9797 89.4063 26.6024 89.3897 27.2272C89.3887 27.2955 89.3535 27.3296 89.284 27.3296H88.8037C88.7322 27.3296 88.6964 27.2939 88.6964 27.2226C88.6944 26.7095 88.6939 26.1995 88.6949 25.6926C88.6949 25.3249 88.5426 25.1356 88.1586 25.3218C87.6891 25.5499 87.7265 26.5848 87.7995 27.2365C87.8068 27.2986 87.7788 27.3296 87.7156 27.3296H87.2181C87.1404 27.3296 87.1016 27.2908 87.1016 27.2133V24.8315C87.1016 24.7694 87.1326 24.7347 87.1948 24.7275L87.6161 24.6841C87.6876 24.6768 87.7234 24.7089 87.7234 24.7803V24.9634C87.7234 25.0347 87.7503 25.0466 87.8042 24.999Z" fill="#58575C"/>
<path d="M97.3371 26.7799C98.1796 26.8963 98.0848 25.4486 98.049 24.8217C98.0449 24.7607 98.0739 24.7302 98.1361 24.7302H98.6242C98.6895 24.7302 98.7221 24.7623 98.7221 24.8264V27.1368C98.7221 27.2216 98.6817 27.278 98.6009 27.3059C98.3055 27.4073 98.135 27.3303 98.0895 27.0747C98.0781 27.0085 98.048 26.9982 97.9993 27.0437C97.6651 27.3494 96.9454 27.5185 96.6205 27.1011C96.3687 26.7737 96.4619 25.6503 96.4744 24.7938C96.4754 24.7255 96.5101 24.6914 96.5785 24.6914H97.02C97.0904 24.6914 97.1257 24.7261 97.1257 24.7954C97.1303 25.3291 97.0231 26.2353 97.2376 26.707C97.2461 26.7265 97.2598 26.7434 97.2772 26.7562C97.2947 26.769 97.3153 26.7772 97.3371 26.7799Z" fill="#58575C"/>
<path d="M104.849 27.2569C104.542 27.1116 104.311 26.8412 104.205 26.505C104.1 26.1689 104.128 25.7946 104.285 25.4645C104.442 25.1344 104.715 24.8755 105.043 24.7448C105.37 24.6141 105.727 24.6223 106.033 24.7675C106.34 24.9128 106.571 25.1833 106.677 25.5194C106.783 25.8556 106.754 26.2299 106.597 26.56C106.44 26.8901 106.167 27.1489 105.84 27.2796C105.512 27.4103 105.155 27.4022 104.849 27.2569ZM105.415 26.7766C105.566 26.7826 105.715 26.7082 105.827 26.5697C105.94 26.4313 106.008 26.2401 106.016 26.0382C106.024 25.8363 105.972 25.6402 105.87 25.4932C105.769 25.3461 105.628 25.2601 105.476 25.2541C105.325 25.248 105.177 25.3224 105.064 25.4609C104.952 25.5994 104.884 25.7906 104.876 25.9925C104.868 26.1944 104.92 26.3904 105.021 26.5374C105.122 26.6845 105.264 26.7705 105.415 26.7766Z" fill="#58575C"/>
<path d="M109.717 24.7118L109.136 24.7128C109.113 24.7129 109.094 24.7316 109.094 24.7548L109.098 27.2592C109.098 27.2823 109.117 27.301 109.14 27.301L109.722 27.3C109.745 27.2999 109.764 27.2811 109.764 27.258L109.759 24.7536C109.759 24.7305 109.74 24.7118 109.717 24.7118Z" fill="#58575C"/>
<path d="M113.442 26.2437L113.914 24.7805C113.923 24.7534 113.94 24.7299 113.964 24.7136C113.987 24.6973 114.015 24.6892 114.043 24.6905L114.563 24.7216C114.652 24.7267 114.68 24.7707 114.648 24.8534C114.375 25.5631 114.099 26.2696 113.821 26.973C113.423 27.9831 113.266 28.6317 112.136 28.6147C112.103 28.6142 112.071 28.601 112.048 28.5778C112.025 28.5545 112.012 28.5232 112.012 28.4905V28.098C112.012 28.0421 112.04 28.0121 112.096 28.008L112.536 27.9785C112.592 27.9743 112.641 27.9536 112.685 27.9164C112.958 27.6852 113.072 27.4106 112.941 27.0428C112.686 26.3311 112.425 25.6169 112.156 24.9C112.095 24.7366 112.151 24.6657 112.324 24.6874L112.781 24.7433C112.837 24.7505 112.874 24.7805 112.893 24.8333L113.377 26.2453C113.379 26.2522 113.383 26.2582 113.389 26.2623C113.395 26.2665 113.402 26.2687 113.41 26.2685C113.417 26.2683 113.424 26.2658 113.43 26.2614C113.436 26.2569 113.44 26.2507 113.442 26.2437Z" fill="#58575C"/>
</svg>
