<svg width="19" height="19" viewBox="0 0 19 19" fill="none" xmlns="http://www.w3.org/2000/svg">
<path d="M9.50365 6.91314C8.83329 6.91314 8.20553 7.15947 7.73022 7.60966C7.25716 8.05985 6.99485 8.65443 6.99485 9.28937C6.99485 9.9243 7.25716 10.5189 7.73022 10.9691C8.20553 11.4171 8.83329 11.6656 9.50365 11.6656C10.174 11.6656 10.8018 11.4171 11.2771 10.9691C11.7501 10.5189 12.0124 9.9243 12.0124 9.28937C12.0124 8.65443 11.7501 8.05985 11.2771 7.60966C11.0449 7.38808 10.7686 7.21241 10.4642 7.09284C10.1597 6.97327 9.83322 6.91219 9.50365 6.91314ZM18.7474 11.914L17.2812 10.727C17.3507 10.3235 17.3865 9.91156 17.3865 9.50172C17.3865 9.09188 17.3507 8.67779 17.2812 8.27645L18.7474 7.08939C18.8582 6.99958 18.9375 6.87996 18.9747 6.74644C19.012 6.61292 19.0054 6.47182 18.9559 6.34191L18.9357 6.2867C18.5322 5.21791 17.9276 4.22721 17.1511 3.3626L17.1108 3.31801C17.0165 3.21301 16.8908 3.13752 16.7503 3.10151C16.6098 3.0655 16.4611 3.07065 16.3238 3.11628L14.5033 3.72997C13.8307 3.20759 13.0819 2.79562 12.2703 2.50895L11.9183 0.706073C11.8917 0.570257 11.8222 0.445309 11.7188 0.347829C11.6155 0.250349 11.4833 0.184952 11.3398 0.160326L11.2793 0.149709C10.1135 -0.0499029 8.88485 -0.0499029 7.71901 0.149709L7.65848 0.160326C7.51498 0.184952 7.3828 0.250349 7.27948 0.347829C7.17616 0.445309 7.1066 0.570257 7.08004 0.706073L6.72581 2.51744C5.92189 2.8064 5.17298 3.21737 4.50847 3.73422L2.67451 3.11628C2.53722 3.07028 2.38841 3.06495 2.24784 3.10099C2.10728 3.13702 1.98162 3.21271 1.88757 3.31801L1.84721 3.3626C1.07213 4.22813 0.467642 5.21858 0.0625767 6.2867L0.0423987 6.34191C-0.0584914 6.60735 0.0244627 6.90465 0.250905 7.08939L1.73511 8.28919C1.66561 8.68841 1.63198 9.09613 1.63198 9.4996C1.63198 9.90732 1.66561 10.315 1.73511 10.71L0.255389 11.9098C0.144624 11.9996 0.0653488 12.1192 0.0281036 12.2528C-0.00914159 12.3863 -0.00259167 12.5274 0.0468826 12.6573L0.0670607 12.7125C0.472863 13.7806 1.07148 14.7681 1.85169 15.6366L1.89205 15.6812C1.98634 15.7862 2.112 15.8617 2.25248 15.8977C2.39296 15.9337 2.54166 15.9285 2.67899 15.8829L4.51295 15.265C5.18107 15.7852 5.92541 16.1972 6.73029 16.4818L7.08453 18.2931C7.11108 18.4289 7.18064 18.5539 7.28396 18.6514C7.38728 18.7488 7.51947 18.8142 7.66296 18.8389L7.7235 18.8495C8.90081 19.0502 10.1065 19.0502 11.2838 18.8495L11.3443 18.8389C11.4878 18.8142 11.62 18.7488 11.7233 18.6514C11.8267 18.5539 11.8962 18.4289 11.9228 18.2931L12.2748 16.4902C13.0864 16.2014 13.8352 15.7916 14.5078 15.2692L16.3283 15.8829C16.4656 15.9289 16.6144 15.9342 16.755 15.8982C16.8955 15.8622 17.0212 15.7865 17.1152 15.6812L17.1556 15.6366C17.9358 14.7638 18.5344 13.7806 18.9402 12.7125L18.9604 12.6573C19.0568 12.394 18.9739 12.0988 18.7474 11.914ZM9.50365 13.0225C7.32666 13.0225 5.56221 11.3513 5.56221 9.28937C5.56221 7.22742 7.32666 5.55621 9.50365 5.55621C11.6806 5.55621 13.4451 7.22742 13.4451 9.28937C13.4451 11.3513 11.6806 13.0225 9.50365 13.0225Z" fill="white"/>
</svg>
