<svg width="55" height="54" viewBox="0 0 55 54" fill="none" xmlns="http://www.w3.org/2000/svg">
<circle cx="27.5" cy="27" r="27" fill="#0D9F16"/>
<path d="M37.8892 17.0567C36.5708 15.725 35.0005 14.6692 33.2698 13.9507C31.5391 13.2323 29.6827 12.8656 27.8089 12.8722C19.9574 12.8722 13.5584 19.2712 13.5584 27.1226C13.5584 29.6391 14.2199 32.0837 15.4565 34.2407L13.4434 41.6319L20.9928 39.6475C23.0779 40.7835 25.4218 41.3875 27.8089 41.3875C35.6603 41.3875 42.0593 34.9884 42.0593 27.137C42.0593 23.3263 40.5782 19.7457 37.8892 17.0567ZM27.8089 38.9716C25.6806 38.9716 23.5956 38.3964 21.7693 37.318L21.3379 37.0591L16.8514 38.2383L18.0449 33.8668L17.7573 33.421C16.5749 31.5329 15.9471 29.3504 15.9455 27.1226C15.9455 20.5942 21.266 15.2736 27.7945 15.2736C30.9581 15.2736 33.9347 16.5103 36.1636 18.7535C37.2672 19.8521 38.1418 21.1588 38.7367 22.5979C39.3316 24.037 39.6349 25.5798 39.6291 27.137C39.6579 33.6655 34.3373 38.9716 27.8089 38.9716ZM34.3086 30.1136C33.9491 29.9411 32.1947 29.0783 31.8784 28.9489C31.5476 28.8338 31.3176 28.7763 31.0731 29.1214C30.8286 29.4809 30.1528 30.2862 29.9515 30.5163C29.7501 30.7607 29.5344 30.7895 29.175 30.6026C28.8155 30.43 27.6651 30.0417 26.3134 28.8338C25.2492 27.8848 24.5446 26.72 24.3289 26.3605C24.1276 26.001 24.3002 25.814 24.4871 25.6271C24.6453 25.4689 24.8466 25.2101 25.0192 25.0088C25.1917 24.8075 25.2636 24.6493 25.3787 24.4192C25.4937 24.1747 25.4362 23.9734 25.3499 23.8009C25.2636 23.6283 24.5446 21.874 24.257 21.155C23.9694 20.4647 23.6675 20.551 23.4518 20.5366H22.7615C22.5171 20.5366 22.1432 20.6229 21.8125 20.9824C21.4961 21.3419 20.5758 22.2047 20.5758 23.959C20.5758 25.7134 21.8556 27.4102 22.0281 27.6403C22.2007 27.8848 24.5446 31.4797 28.1108 33.0184C28.9593 33.3922 29.6207 33.6079 30.1384 33.7661C30.9868 34.0393 31.7633 33.9962 32.3817 33.9099C33.0719 33.8093 34.4955 33.0471 34.7831 32.2131C35.0851 31.3791 35.0851 30.6745 34.9844 30.5163C34.8838 30.3581 34.6681 30.2862 34.3086 30.1136Z" fill="white"/>
</svg>
