<svg width="54" height="54" viewBox="0 0 54 54" fill="none" xmlns="http://www.w3.org/2000/svg">
<circle cx="27" cy="27" r="27" fill="#0677B5"/>
<path d="M20.1108 17.5567C20.1105 18.2344 19.8409 18.8843 19.3615 19.3633C18.882 19.8423 18.2319 20.1112 17.5541 20.1108C16.8764 20.1105 16.2266 19.8409 15.7476 19.3615C15.2686 18.882 14.9997 18.2319 15 17.5541C15.0003 16.8764 15.2699 16.2266 15.7494 15.7476C16.2288 15.2686 16.879 14.9997 17.5567 15C18.2344 15.0003 18.8843 15.2699 19.3633 15.7494C19.8423 16.2288 20.1112 16.879 20.1108 17.5567ZM20.1875 22.0031H15.0767V38H20.1875V22.0031ZM28.2626 22.0031H23.1773V38H28.2115V29.6055C28.2115 24.9291 34.3062 24.4946 34.3062 29.6055V38H39.3531V27.8678C39.3531 19.9843 30.3325 20.2782 28.2115 24.1497L28.2626 22.0031Z" fill="white"/>
</svg>
