<svg width="13" height="14" viewBox="0 0 13 14" fill="none" xmlns="http://www.w3.org/2000/svg">
<path d="M10.5585 9.93096C10.0471 9.93096 9.58568 10.1321 9.2385 10.4547L4.65951 7.78943C4.69196 7.64017 4.71792 7.49091 4.71792 7.33517C4.71792 7.17942 4.69196 7.03016 4.65951 6.8809L9.2346 4.21372C9.58504 4.53819 10.0458 4.73937 10.5585 4.73937C11.6357 4.73937 12.5053 3.86978 12.5053 2.79252C12.5053 1.71526 11.6357 0.845673 10.5585 0.845673C9.4812 0.845673 8.61161 1.71526 8.61161 2.79252C8.61161 2.94827 8.63757 3.09753 8.67002 3.24679L4.09492 5.91397C3.74449 5.58949 3.28374 5.38832 2.77107 5.38832C1.69381 5.38832 0.824219 6.25791 0.824219 7.33517C0.824219 8.41242 1.69381 9.28202 2.77107 9.28202C3.28374 9.28202 3.74449 9.08084 4.09492 8.75637L8.66872 11.4287C8.63217 11.5757 8.61301 11.7264 8.61161 11.8778C8.61161 12.2629 8.72579 12.6393 8.93972 12.9594C9.15364 13.2796 9.45769 13.5291 9.81343 13.6765C10.1692 13.8238 10.5606 13.8624 10.9383 13.7873C11.3159 13.7121 11.6628 13.5267 11.9351 13.2544C12.2074 12.9822 12.3928 12.6353 12.4679 12.2576C12.543 11.88 12.5045 11.4885 12.3571 11.1328C12.2098 10.777 11.9602 10.473 11.6401 10.2591C11.3199 10.0451 10.9435 9.93096 10.5585 9.93096Z" fill="#005BAA"/>
</svg>
