<svg width="54" height="54" viewBox="0 0 54 54" fill="none" xmlns="http://www.w3.org/2000/svg">
<circle cx="27" cy="27" r="27" fill="url(#paint0_radial_2428_78612)"/>
<circle cx="27" cy="27" r="27" fill="url(#paint1_radial_2428_78612)"/>
<path d="M27.0012 13.7188C23.3943 13.7188 22.9415 13.7346 21.5249 13.799C20.111 13.8638 19.1459 14.0876 18.3014 14.416C17.4278 14.7552 16.6868 15.209 15.9487 15.9475C15.2098 16.6858 14.756 17.4267 14.4158 18.3C14.0864 19.1447 13.8623 20.1102 13.7987 21.5235C13.7354 22.9402 13.7188 23.3931 13.7188 27.0001C13.7188 30.6072 13.7347 31.0585 13.799 32.4751C13.864 33.889 14.0878 34.8541 14.416 35.6986C14.7555 36.5722 15.2093 37.3132 15.9477 38.0513C16.6858 38.7902 17.4267 39.245 18.2997 39.5842C19.1448 39.9127 20.1101 40.1365 21.5237 40.2013C22.9405 40.2657 23.3928 40.2815 26.9996 40.2815C30.6069 40.2815 31.0582 40.2657 32.4748 40.2013C33.8887 40.1365 34.8549 39.9127 35.7 39.5842C36.5733 39.245 37.3132 38.7902 38.0511 38.0513C38.7899 37.3132 39.2436 36.5722 39.584 35.699C39.9104 34.8541 40.1346 33.8887 40.201 32.4753C40.2646 31.0587 40.2812 30.6072 40.2812 27.0001C40.2812 23.3931 40.2646 22.9405 40.201 21.5237C40.1346 20.1098 39.9104 19.1448 39.584 18.3004C39.2436 17.4267 38.7899 16.6858 38.0511 15.9475C37.3124 15.2088 36.5735 14.755 35.6992 14.4161C34.8525 14.0876 33.8869 13.8636 32.4729 13.799C31.0562 13.7346 30.6052 13.7188 26.9971 13.7188H27.0012ZM25.8097 16.1122C26.1634 16.1116 26.558 16.1122 27.0012 16.1122C30.5474 16.1122 30.9676 16.1249 32.368 16.1885C33.6629 16.2478 34.3658 16.4641 34.8339 16.6459C35.4538 16.8866 35.8956 17.1744 36.3602 17.6394C36.8251 18.1042 37.1127 18.5469 37.3541 19.1667C37.5359 19.6342 37.7525 20.3371 37.8115 21.632C37.8751 23.0321 37.8889 23.4526 37.8889 26.9971C37.8889 30.5416 37.8751 30.9622 37.8115 32.3622C37.7522 33.6571 37.5359 34.3599 37.3541 34.8276C37.1134 35.4474 36.8251 35.8887 36.3602 36.3533C35.8954 36.8182 35.454 37.1058 34.8339 37.3466C34.3663 37.5292 33.6629 37.7451 32.368 37.8043C30.9679 37.8679 30.5474 37.8817 27.0012 37.8817C23.4548 37.8817 23.0345 37.8679 21.6345 37.8043C20.3396 37.7445 19.6367 37.5282 19.1682 37.3464C18.5485 37.1056 18.1057 36.8179 17.6408 36.3531C17.176 35.8882 16.8883 35.4466 16.647 34.8265C16.4652 34.3589 16.2486 33.656 16.1896 32.3611C16.126 30.961 16.1132 30.5405 16.1132 26.9938C16.1132 23.4471 16.126 23.0288 16.1896 21.6287C16.2488 20.3337 16.4652 19.6309 16.647 19.1627C16.8878 18.5429 17.176 18.1002 17.641 17.6354C18.1058 17.1705 18.5485 16.8827 19.1683 16.6416C19.6365 16.4589 20.3396 16.2431 21.6345 16.1836C22.8597 16.1282 23.3345 16.1116 25.8097 16.1088V16.1122ZM34.0907 18.3174C33.2108 18.3174 32.497 19.0306 32.497 19.9106C32.497 20.7905 33.2108 21.5044 34.0907 21.5044C34.9706 21.5044 35.6845 20.7905 35.6845 19.9106C35.6845 19.0307 34.9706 18.3169 34.0907 18.3169V18.3174ZM27.0012 20.1795C23.2346 20.1795 20.1807 23.2334 20.1807 27.0001C20.1807 30.7668 23.2346 33.8193 27.0012 33.8193C30.7679 33.8193 33.8207 30.7668 33.8207 27.0001C33.8207 23.2336 30.7676 20.1795 27.0009 20.1795H27.0012ZM27.0012 22.573C29.4461 22.573 31.4284 24.5549 31.4284 27.0001C31.4284 29.4451 29.4461 31.4273 27.0012 31.4273C24.5561 31.4273 22.5742 29.4451 22.5742 27.0001C22.5742 24.5549 24.5561 22.573 27.0012 22.573Z" fill="white"/>
<defs>
<radialGradient id="paint0_radial_2428_78612" cx="0" cy="0" r="1" gradientUnits="userSpaceOnUse" gradientTransform="translate(14.3437 58.1591) rotate(-90) scale(53.518 49.776)">
<stop stop-color="#FFDD55"/>
<stop offset="0.1" stop-color="#FFDD55"/>
<stop offset="0.5" stop-color="#FF543E"/>
<stop offset="1" stop-color="#C837AB"/>
</radialGradient>
<radialGradient id="paint1_radial_2428_78612" cx="0" cy="0" r="1" gradientUnits="userSpaceOnUse" gradientTransform="translate(-9.04521 3.8899) rotate(78.681) scale(23.9228 98.6107)">
<stop stop-color="#3771C8"/>
<stop offset="0.128" stop-color="#3771C8"/>
<stop offset="1" stop-color="#6600FF" stop-opacity="0"/>
</radialGradient>
</defs>
</svg>
