<svg width="54" height="54" viewBox="0 0 54 54" fill="none" xmlns="http://www.w3.org/2000/svg">
<circle cx="27" cy="27" r="27" fill="#60A9DD"/>
<path d="M42.6896 18C41.5346 18.525 40.2896 18.87 38.9996 19.035C40.3196 18.24 41.3396 16.98 41.8196 15.465C40.5746 16.215 39.1946 16.74 37.7396 17.04C36.5546 15.75 34.8896 15 32.9996 15C29.4746 15 26.5946 17.88 26.5946 21.435C26.5946 21.945 26.6546 22.44 26.7596 22.905C21.4196 22.635 16.6646 20.07 13.4996 16.185C12.9446 17.13 12.6296 18.24 12.6296 19.41C12.6296 21.645 13.7546 23.625 15.4946 24.75C14.4296 24.75 13.4396 24.45 12.5696 24V24.045C12.5696 27.165 14.7896 29.775 17.7296 30.36C16.7857 30.6183 15.7947 30.6543 14.8346 30.465C15.242 31.7437 16.0399 32.8626 17.1161 33.6644C18.1923 34.4662 19.4927 34.9105 20.8346 34.935C18.56 36.7357 15.7406 37.709 12.8396 37.695C12.3296 37.695 11.8196 37.665 11.3096 37.605C14.1596 39.435 17.5496 40.5 21.1796 40.5C32.9996 40.5 39.4946 30.69 39.4946 22.185C39.4946 21.9 39.4946 21.63 39.4796 21.345C40.7396 20.445 41.8196 19.305 42.6896 18Z" fill="white"/>
</svg>
