<svg width="54" height="54" viewBox="0 0 54 54" fill="none" xmlns="http://www.w3.org/2000/svg">
<circle cx="27" cy="27" r="26.5" stroke="#DFDFDF"/>
<path d="M25.1203 28.8801C25.667 29.4001 25.667 30.2534 25.1203 30.7734C24.6003 31.2934 23.747 31.2934 23.227 30.7734C21.9782 29.5227 21.2768 27.8275 21.2768 26.0601C21.2768 24.2927 21.9782 22.5975 23.227 21.3468L27.947 16.6268C29.1977 15.3779 30.8929 14.6765 32.6603 14.6765C34.4278 14.6765 36.123 15.3779 37.3737 16.6268C38.6225 17.8775 39.3239 19.5727 39.3239 21.3401C39.3239 23.1075 38.6225 24.8027 37.3737 26.0534L35.387 28.0401C35.4003 26.9468 35.227 25.8534 34.8537 24.8134L35.4803 24.1734C35.8541 23.8037 36.1509 23.3635 36.3534 22.8783C36.5559 22.3931 36.6602 21.8725 36.6602 21.3468C36.6602 20.821 36.5559 20.3005 36.3534 19.8153C36.1509 19.3301 35.8541 18.8899 35.4803 18.5201C35.1106 18.1463 34.6704 17.8496 34.1852 17.6471C33.7 17.4445 33.1794 17.3403 32.6537 17.3403C32.1279 17.3403 31.6074 17.4445 31.1222 17.6471C30.637 17.8496 30.1968 18.1463 29.827 18.5201L25.1203 23.2268C24.7466 23.5965 24.4498 24.0367 24.2473 24.5219C24.0448 25.0071 23.9405 25.5277 23.9405 26.0534C23.9405 26.5792 24.0448 27.0997 24.2473 27.5849C24.4498 28.0701 24.7466 28.5104 25.1203 28.8801ZM28.8803 23.2268C29.4003 22.7068 30.2537 22.7068 30.7737 23.2268C32.0225 24.4775 32.7239 26.1727 32.7239 27.9401C32.7239 29.7075 32.0225 31.4027 30.7737 32.6534L26.0537 37.3734C24.803 38.6223 23.1078 39.3237 21.3403 39.3237C19.5729 39.3237 17.8777 38.6223 16.627 37.3734C15.3782 36.1227 14.6768 34.4275 14.6768 32.6601C14.6768 30.8927 15.3782 29.1975 16.627 27.9468L18.6137 25.9601C18.6003 27.0534 18.7737 28.1468 19.147 29.2001L18.5203 29.8268C18.1466 30.1965 17.8498 30.6367 17.6473 31.1219C17.4448 31.6071 17.3405 32.1277 17.3405 32.6534C17.3405 33.1792 17.4448 33.6997 17.6473 34.1849C17.8498 34.6701 18.1466 35.1104 18.5203 35.4801C18.8901 35.8539 19.3303 36.1506 19.8155 36.3531C20.3007 36.5557 20.8212 36.6599 21.347 36.6599C21.8728 36.6599 22.3933 36.5557 22.8785 36.3531C23.3637 36.1506 23.8039 35.8539 24.1737 35.4801L28.8803 30.7734C29.2541 30.4037 29.5509 29.9635 29.7534 29.4783C29.9559 28.9931 30.0602 28.4725 30.0602 27.9468C30.0602 27.421 29.9559 26.9005 29.7534 26.4153C29.5509 25.9301 29.2541 25.4899 28.8803 25.1201C28.7509 24.9988 28.6476 24.8521 28.5771 24.6893C28.5065 24.5265 28.4701 24.3509 28.4701 24.1734C28.4701 23.996 28.5065 23.8204 28.5771 23.6576C28.6476 23.4947 28.7509 23.3481 28.8803 23.2268Z" fill="#636363"/>
</svg>
