<svg width="60" height="61" viewBox="0 0 60 61" fill="none" xmlns="http://www.w3.org/2000/svg">
<g filter="url(#filter0_d_3046_18749)">
<path d="M29.5557 56.3556C43.7086 56.3556 55.1818 44.8824 55.1818 30.7296C55.1818 16.5767 43.7086 5.10352 29.5557 5.10352C15.4029 5.10352 3.92969 16.5767 3.92969 30.7296C3.92969 44.8824 15.4029 56.3556 29.5557 56.3556Z" fill="url(#paint0_linear_3046_18749)"/>
</g>
<path d="M20.21 27.5839C19.6073 26.4538 19.307 25.1872 19.3381 23.9068C19.2994 22.2885 19.852 20.7117 20.8924 19.4716C21.987 18.2366 23.3852 17.3088 24.9485 16.78C26.6468 16.1808 28.4358 15.8794 30.2367 15.8892C31.4171 15.881 32.5962 15.9697 33.762 16.1545C34.5933 16.2938 35.4113 16.5031 36.2073 16.78C36.9303 17.0297 37.581 17.4527 38.1027 18.0121C38.501 18.4609 38.7173 19.0422 38.7092 19.6422C38.7238 19.9567 38.6761 20.2711 38.5687 20.5671C38.4614 20.8631 38.2965 21.135 38.0837 21.367C37.8851 21.5784 37.6438 21.7452 37.3759 21.8563C37.1079 21.9673 36.8194 22.0202 36.5295 22.0114C36.1236 22.0051 35.7235 21.9147 35.3543 21.7461C34.4615 21.3506 33.5433 21.0149 32.6059 20.7413C31.7338 20.5132 30.8348 20.4049 29.9336 20.4193C28.7655 20.3801 27.6097 20.6689 26.5974 21.2531C26.1714 21.512 25.8232 21.8811 25.5897 22.3216C25.3562 22.762 25.2459 23.2573 25.2707 23.7552C25.2639 24.4028 25.5085 25.0279 25.9531 25.4989C26.497 26.0599 27.1395 26.5161 27.8485 26.8446C28.6256 27.2237 29.7439 27.7355 31.336 28.38L31.8288 28.5695C33.3323 29.1424 34.7739 29.8664 36.1314 30.7302C37.2131 31.4312 38.1258 32.3634 38.8039 33.4596C39.4707 34.6094 39.8053 35.9217 39.7707 37.2504C39.8243 38.8781 39.3525 40.4798 38.4249 41.8184C37.4732 43.106 36.1504 44.0717 34.6341 44.5858C32.8407 45.2253 30.9461 45.5335 29.0425 45.4955C26.4398 45.5819 23.8504 45.0899 21.4608 44.055C20.8487 43.7795 20.3098 43.364 19.8878 42.842C19.5556 42.35 19.3835 41.7675 19.395 41.174C19.3742 40.8613 19.4229 40.5479 19.5376 40.2563C19.6523 39.9647 19.8302 39.702 20.0584 39.4873C20.5322 39.0678 21.1511 38.8501 21.7832 38.8805C22.4899 38.8906 23.1844 39.0659 23.8112 39.3923C24.5883 39.7714 25.1948 40.0747 25.7066 40.2642C26.214 40.4785 26.7408 40.6435 27.2798 40.7569C27.945 40.9082 28.626 40.9783 29.308 40.9656C30.5152 41.0545 31.717 40.7339 32.7196 40.0557C33.0983 39.7658 33.4012 39.3886 33.6025 38.9562C33.8038 38.5239 33.8976 38.0492 33.8758 37.5728C33.894 36.8709 33.6353 36.1901 33.1555 35.6774C32.5374 35.047 31.8203 34.522 31.0326 34.1232C30.1039 33.6302 28.7772 33.0427 27.0904 32.3225C25.5747 31.7188 24.121 30.9698 22.7497 30.0858C21.7244 29.4039 20.8306 28.6477 20.21 27.5839Z" fill="white"/>
<defs>
<filter id="filter0_d_3046_18749" x="-6.07031" y="-4.89648" width="71.252" height="71.252" filterUnits="userSpaceOnUse" color-interpolation-filters="sRGB">
<feFlood flood-opacity="0" result="BackgroundImageFix"/>
<feColorMatrix in="SourceAlpha" type="matrix" values="0 0 0 0 0 0 0 0 0 0 0 0 0 0 0 0 0 0 127 0" result="hardAlpha"/>
<feOffset/>
<feGaussianBlur stdDeviation="5"/>
<feComposite in2="hardAlpha" operator="out"/>
<feColorMatrix type="matrix" values="0 0 0 0 0 0 0 0 0 0 0 0 0 0 0 0 0 0 0.15 0"/>
<feBlend mode="normal" in2="BackgroundImageFix" result="effect1_dropShadow_3046_18749"/>
<feBlend mode="normal" in="SourceGraphic" in2="effect1_dropShadow_3046_18749" result="shape"/>
</filter>
<linearGradient id="paint0_linear_3046_18749" x1="8.01087" y1="5.10352" x2="45.5321" y2="68.8977" gradientUnits="userSpaceOnUse">
<stop stop-color="#01B1EC"/>
<stop offset="1" stop-color="#016DC1"/>
</linearGradient>
</defs>
</svg>
