<svg width="60" height="61" viewBox="0 0 60 61" fill="none" xmlns="http://www.w3.org/2000/svg">
<path d="M14.7003 37.4486C14.7003 40.5068 12.2287 42.9786 9.17046 42.9786C6.11223 42.9786 3.64062 40.5068 3.64062 37.4486C3.64062 34.3906 6.11223 31.9189 9.17066 31.9189H14.7001V37.4488L14.7003 37.4486ZM17.4653 37.4486C17.4653 34.3906 19.9369 31.9189 22.9951 31.9189C26.0534 31.9189 28.525 34.3906 28.525 37.4488V51.2733C28.525 54.3315 26.0534 56.8033 22.9949 56.8033C19.9371 56.8033 17.4653 54.3315 17.4653 51.2733V37.4486Z" fill="#E01E5A"/>
<path d="M22.996 15.2452C19.9378 15.2452 17.4659 12.7736 17.4659 9.71538C17.4659 6.65716 19.938 4.18555 22.996 4.18555C26.054 4.18555 28.5258 6.65716 28.5258 9.71538V15.2454H22.9958L22.996 15.2452ZM22.996 18.0521C26.0542 18.0521 28.5258 20.5237 28.5258 23.5819C28.5258 26.6401 26.0542 29.1118 22.9958 29.1118H9.12965C6.07122 29.1118 3.59961 26.6401 3.59961 23.5817C3.59961 20.5239 6.07122 18.0521 9.12944 18.0521H22.996Z" fill="#36C5F0"/>
<path d="M45.1567 23.5819C45.1567 20.5237 47.6283 18.0519 50.6863 18.0519C53.7446 18.0519 56.2164 20.5237 56.2164 23.5819C56.2164 26.6401 53.7446 29.1118 50.6863 29.1118H45.1567V23.5819ZM42.3917 23.5819C42.3917 26.6401 39.9199 29.1118 36.8617 29.1118C33.8036 29.1118 31.332 26.6401 31.332 23.5817V9.71559C31.332 6.65716 33.8036 4.18555 36.8617 4.18555C39.9197 4.18555 42.3915 6.65716 42.3915 9.71538V23.5817L42.3917 23.5819Z" fill="#2EB67D"/>
<path d="M36.8617 45.7436C39.9199 45.7436 42.3917 48.2152 42.3917 51.2733C42.3917 54.3315 39.9199 56.8033 36.8617 56.8033C33.8036 56.8033 31.332 54.3315 31.332 51.2733V45.7436H36.8617ZM36.8617 42.9786C33.8036 42.9786 31.332 40.5068 31.332 37.4486C31.332 34.3906 33.8036 31.9189 36.8619 31.9189H50.7282C53.7864 31.9189 56.2582 34.3906 56.2582 37.4488C56.2582 40.5068 53.7864 42.9786 50.7282 42.9786H36.8617Z" fill="#ECB22E"/>
</svg>
