<svg width="50" height="51" viewBox="0 0 50 51" fill="none" xmlns="http://www.w3.org/2000/svg">
<g clip-path="url(#clip0_2901_79)">
<path d="M4.68957 11.1904C4.52498 11.2767 4.42188 11.4472 4.42188 11.6331V41.0727C4.42188 41.3489 4.64573 41.5727 4.92188 41.5727H22.8463C23.1224 41.5727 23.3463 41.3489 23.3463 41.0727V2.22836C23.3463 1.85238 22.9469 1.61092 22.614 1.7856L4.68957 11.1904Z" stroke="#232323" stroke-width="1.261" stroke-miterlimit="10"/>
<path d="M7.99805 37.4068H12.2081C12.4842 37.4068 12.7081 37.183 12.7081 36.9068V32.2281C12.7081 31.9519 12.4842 31.7281 12.2081 31.7281H7.99805C7.7219 31.7281 7.49805 31.9519 7.49805 32.2281V36.9068C7.49805 37.183 7.72191 37.4068 7.99805 37.4068Z" stroke="#005BAA" stroke-miterlimit="10"/>
<path d="M7.99805 29.3591H12.2081C12.4842 29.3591 12.7081 29.1352 12.7081 28.8591V24.1803C12.7081 23.9042 12.4842 23.6803 12.2081 23.6803H7.99805C7.7219 23.6803 7.49805 23.9042 7.49805 24.1803V28.8591C7.49805 29.1352 7.72191 29.3591 7.99805 29.3591Z" stroke="#005BAA" stroke-miterlimit="10"/>
<path d="M7.99805 21.3282H12.2081C12.4842 21.3282 12.7081 21.1043 12.7081 20.8282V16.1494C12.7081 15.8733 12.4842 15.6494 12.2081 15.6494H7.99805C7.7219 15.6494 7.49805 15.8733 7.49805 16.1494V20.8282C7.49805 21.1043 7.72191 21.3282 7.99805 21.3282Z" stroke="#005BAA" stroke-miterlimit="10"/>
<path d="M15.5779 37.4068H19.7711C20.0473 37.4068 20.2711 37.183 20.2711 36.9068V32.2281C20.2711 31.9519 20.0473 31.7281 19.7711 31.7281H15.5779C15.3018 31.7281 15.0779 31.9519 15.0779 32.2281V36.9068C15.0779 37.183 15.3018 37.4068 15.5779 37.4068Z" stroke="#005BAA" stroke-miterlimit="10"/>
<path d="M15.5779 29.3591H19.7711C20.0473 29.3591 20.2711 29.1352 20.2711 28.8591V24.1803C20.2711 23.9042 20.0473 23.6803 19.7711 23.6803H15.5779C15.3018 23.6803 15.0779 23.9042 15.0779 24.1803V28.8591C15.0779 29.1352 15.3018 29.3591 15.5779 29.3591Z" stroke="#005BAA" stroke-miterlimit="10"/>
<path d="M15.5779 21.3282H19.7711C20.0473 21.3282 20.2711 21.1043 20.2711 20.8282V16.1494C20.2711 15.8733 20.0473 15.6494 19.7711 15.6494H15.5779C15.3018 15.6494 15.0779 15.8733 15.0779 16.1494V20.8282C15.0779 21.1043 15.3018 21.3282 15.5779 21.3282Z" stroke="#005BAA" stroke-miterlimit="10"/>
<path d="M27.4022 6.99459C27.0693 6.8199 26.6699 7.06137 26.6699 7.43734V41.1238C26.6699 41.4 26.8938 41.6238 27.1699 41.6238H45.0943C45.3705 41.6238 45.5943 41.4 45.5943 41.1238V16.8421C45.5943 16.6562 45.4912 16.4857 45.3266 16.3993L27.4022 6.99459Z" stroke="#232323" stroke-width="1.261" stroke-miterlimit="10"/>
<path d="M30.2461 37.4067H34.4393C34.7155 37.4067 34.9393 37.1828 34.9393 36.9067V32.2279C34.9393 31.9518 34.7155 31.7279 34.4393 31.7279H30.2461C29.97 31.7279 29.7461 31.9518 29.7461 32.2279V36.9067C29.7461 37.1828 29.97 37.4067 30.2461 37.4067Z" stroke="#005BAA" stroke-miterlimit="10"/>
<path d="M30.2461 29.359H34.4393C34.7155 29.359 34.9393 29.1351 34.9393 28.859V24.1802C34.9393 23.9041 34.7155 23.6802 34.4393 23.6802H30.2461C29.97 23.6802 29.7461 23.9041 29.7461 24.1802V28.859C29.7461 29.1351 29.97 29.359 30.2461 29.359Z" stroke="#005BAA" stroke-miterlimit="10"/>
<path d="M30.2461 21.3281H34.4393C34.7155 21.3281 34.9393 21.1042 34.9393 20.8281V16.1493C34.9393 15.8731 34.7155 15.6493 34.4393 15.6493H30.2461C29.97 15.6493 29.7461 15.8731 29.7461 16.1493V20.8281C29.7461 21.1042 29.97 21.3281 30.2461 21.3281Z" stroke="#005BAA" stroke-miterlimit="10"/>
<path d="M37.8091 37.4067H42.0192C42.2953 37.4067 42.5192 37.1828 42.5192 36.9067V32.2279C42.5192 31.9518 42.2953 31.7279 42.0192 31.7279H37.8091C37.533 31.7279 37.3091 31.9518 37.3091 32.2279V36.9067C37.3091 37.1828 37.533 37.4067 37.8091 37.4067Z" stroke="#005BAA" stroke-miterlimit="10"/>
<path d="M37.8091 29.359H42.0192C42.2953 29.359 42.5192 29.1351 42.5192 28.859V24.1802C42.5192 23.9041 42.2953 23.6802 42.0192 23.6802H37.8091C37.533 23.6802 37.3091 23.9041 37.3091 24.1802V28.859C37.3091 29.1351 37.533 29.359 37.8091 29.359Z" stroke="#005BAA" stroke-miterlimit="10"/>
<path d="M50.0192 49.879C50.0179 50.1542 49.7944 50.3766 49.5192 50.3766H0.500001C0.223858 50.3766 0 50.1528 0 49.8766V47.3316C0 47.0554 0.223858 46.8316 0.5 46.8316H3.79834V45.0635C3.79834 44.7873 4.02219 44.5635 4.29834 44.5635H46.5756C46.8518 44.5635 47.0756 44.7873 47.0756 45.0635V46.8148H49.5313C49.8083 46.8148 50.0326 47.0401 50.0313 47.3172L50.0192 49.879ZM1.27733 49.0997H48.7731V48.0581H45.8151V45.8067H5.05884V48.0581H1.24368L1.27733 49.0997Z" fill="#232323"/>
</g>
<defs>
<clipPath id="clip0_2901_79">
<rect width="50" height="50" fill="white" transform="translate(0 0.360352)"/>
</clipPath>
</defs>
</svg>
