<svg width="18" height="15" viewBox="0 0 18 15" fill="none" xmlns="http://www.w3.org/2000/svg">
<path d="M17.7662 2.09915C17.1268 2.37996 16.4455 2.56608 15.7352 2.65646C16.4659 2.21965 17.0237 1.53323 17.2859 0.705876C16.6046 1.11256 15.8524 1.39982 15.0507 1.56013C14.4038 0.870487 13.4819 0.443359 12.4761 0.443359C10.5246 0.443359 8.9536 2.02922 8.9536 3.97335C8.9536 4.25308 8.97724 4.52205 9.03527 4.77811C6.10491 4.63502 3.51196 3.22883 1.77007 1.08674C1.46597 1.615 1.28759 2.21965 1.28759 2.87056C1.28759 4.09277 1.91622 5.17619 2.85324 5.80343C2.28694 5.79267 1.73139 5.62806 1.26073 5.36877C1.26073 5.37953 1.26073 5.39352 1.26073 5.4075C1.26073 7.12247 2.48252 8.54694 4.08471 8.87509C3.79779 8.95363 3.48509 8.99128 3.16057 8.99128C2.93491 8.99128 2.7071 8.97837 2.49326 8.93103C2.94996 10.3286 4.24589 11.3561 5.78683 11.3894C4.58761 12.3287 3.06494 12.8946 1.41654 12.8946C1.12748 12.8946 0.850238 12.8817 0.572998 12.8462C2.13435 13.8543 3.98477 14.4299 5.98026 14.4299C12.4664 14.4299 16.0125 9.05046 16.0125 4.38756C16.0125 4.23156 16.0071 4.08093 15.9996 3.93139C16.6991 3.43433 17.2869 2.81354 17.7662 2.09915Z" fill="#005BAA"/>
</svg>
