<svg width="60" height="61" viewBox="0 0 60 61" fill="none" xmlns="http://www.w3.org/2000/svg">
<path d="M56.7562 7.98291C57.1193 7.98291 57.4674 8.12712 57.7241 8.38381C57.9808 8.6405 58.125 8.98864 58.125 9.35166V44.3954C58.125 44.7584 57.9808 45.1066 57.7241 45.3633C57.4674 45.62 57.1193 45.7642 56.7562 45.7642H3.24375C2.88073 45.7642 2.53259 45.62 2.2759 45.3633C2.01921 45.1066 1.875 44.7584 1.875 44.3954V9.35166C1.875 8.98864 2.01921 8.6405 2.2759 8.38381C2.53259 8.12712 2.88073 7.98291 3.24375 7.98291H56.7562ZM56.7562 6.10791H3.24375C2.38345 6.10791 1.5584 6.44966 0.950074 7.05798C0.341753 7.66631 0 8.49136 0 9.35166V44.3954C0.00492148 45.2542 0.348253 46.0764 0.95551 46.6837C1.56277 47.2909 2.38497 47.6342 3.24375 47.6392H56.7562C57.615 47.6342 58.4372 47.2909 59.0445 46.6837C59.6517 46.0764 59.9951 45.2542 60 44.3954V9.35166C60 8.49136 59.6582 7.66631 59.0499 7.05798C58.4416 6.44966 57.6165 6.10791 56.7562 6.10791Z" fill="#0A2540"/>
<path d="M60 38.6392H0.9375V40.5142H60V38.6392Z" fill="#0A2540"/>
<path d="M36.7125 47.208H34.8375V54.708H36.7125V47.208Z" fill="#0A2540"/>
<path d="M25.1625 47.208H23.2875V54.708H25.1625V47.208Z" fill="#0A2540"/>
<path d="M44.2125 55.6455H15.7875C15.5388 55.6455 15.3004 55.5467 15.1246 55.3709C14.9487 55.1951 14.85 54.9566 14.85 54.708C14.85 54.4594 14.9487 54.2209 15.1246 54.0451C15.3004 53.8693 15.5388 53.7705 15.7875 53.7705H44.2125C44.4611 53.7705 44.6996 53.8693 44.8754 54.0451C45.0512 54.2209 45.15 54.4594 45.15 54.708C45.15 54.9566 45.0512 55.1951 44.8754 55.3709C44.6996 55.5467 44.4611 55.6455 44.2125 55.6455Z" fill="#0A2540"/>
<g clip-path="url(#clip0_903_41428)">
<path d="M49.8503 33.9339H40.3298C40.0773 33.9339 39.8351 33.8336 39.6566 33.655C39.478 33.4765 39.3777 33.2343 39.3777 32.9818C39.3777 32.7293 39.478 32.4872 39.6566 32.3086C39.8351 32.1301 40.0773 32.0298 40.3298 32.0298H49.8503C50.1028 32.0298 50.3449 32.1301 50.5235 32.3086C50.702 32.4872 50.8023 32.7293 50.8023 32.9818C50.8023 33.2343 50.702 33.4765 50.5235 33.655C50.3449 33.8336 50.1028 33.9339 49.8503 33.9339Z" fill="#0066B3"/>
</g>
<g clip-path="url(#clip1_903_41428)">
<path d="M40.6533 18.4156H33.9889C33.7364 18.4156 33.4943 18.3153 33.3157 18.1367C33.1372 17.9582 33.0369 17.716 33.0369 17.4635C33.0418 17.2126 33.1436 16.9732 33.3211 16.7957C33.4986 16.6182 33.738 16.5163 33.9889 16.5115H40.6533C40.9058 16.5115 41.148 16.6118 41.3265 16.7903C41.5051 16.9689 41.6054 17.211 41.6054 17.4635C41.6054 17.716 41.5051 17.9582 41.3265 18.1367C41.148 18.3153 40.9058 18.4156 40.6533 18.4156Z" fill="#0066B3"/>
</g>
<g clip-path="url(#clip2_903_41428)">
<path d="M49.7169 14.8929H33.9889C33.7364 14.8929 33.4943 14.7926 33.3157 14.614C33.1372 14.4355 33.0369 14.1933 33.0369 13.9408C33.0369 13.6883 33.1372 13.4462 33.3157 13.2676C33.4943 13.0891 33.7364 12.9888 33.9889 12.9888H49.812C50.0645 12.9888 50.3067 13.0891 50.4853 13.2676C50.6638 13.4462 50.7641 13.6883 50.7641 13.9408C50.7648 14.0743 50.7374 14.2064 50.6837 14.3286C50.63 14.4507 50.5512 14.5603 50.4525 14.6501C50.3537 14.7398 50.2372 14.8078 50.1105 14.8497C49.9837 14.8915 49.8496 14.9062 49.7169 14.8929Z" fill="#0066B3"/>
</g>
<g clip-path="url(#clip3_903_41428)">
<path d="M20.1269 33.9339H10.6064C10.3539 33.9339 10.1118 33.8336 9.93321 33.655C9.75466 33.4765 9.65436 33.2343 9.65436 32.9818C9.65436 32.7293 9.75466 32.4872 9.93321 32.3086C10.1118 32.1301 10.3539 32.0298 10.6064 32.0298H20.1269C20.3794 32.0298 20.6216 32.1301 20.8001 32.3086C20.9787 32.4872 21.079 32.7293 21.079 32.9818C21.079 33.2343 20.9787 33.4765 20.8001 33.655C20.6216 33.8336 20.3794 33.9339 20.1269 33.9339Z" fill="#0066B3"/>
</g>
<g clip-path="url(#clip4_903_41428)">
<path d="M20.1269 30.1258H10.6064C10.3539 30.1258 10.1118 30.0255 9.93321 29.8469C9.75466 29.6684 9.65436 29.4262 9.65436 29.1737C9.65436 28.9212 9.75466 28.6791 9.93321 28.5005C10.1118 28.322 10.3539 28.2217 10.6064 28.2217H20.1269C20.3794 28.2217 20.6216 28.322 20.8001 28.5005C20.9787 28.6791 21.079 28.9212 21.079 29.1737C21.079 29.4262 20.9787 29.6684 20.8001 29.8469C20.6216 30.0255 20.3794 30.1258 20.1269 30.1258Z" fill="#0066B3"/>
</g>
<g clip-path="url(#clip5_903_41428)">
<path d="M25.7631 21.5572H11.33C10.8603 21.5572 10.4099 21.3707 10.0778 21.0386C9.74571 20.7065 9.55914 20.2561 9.55914 19.7864V14.8548C9.55914 14.3852 9.74571 13.9347 10.0778 13.6026C10.4099 13.2706 10.8603 13.084 11.33 13.084H25.7631C25.9956 13.084 26.2259 13.1298 26.4407 13.2188C26.6556 13.3078 26.8508 13.4382 27.0152 13.6026C27.1797 13.7671 27.3101 13.9623 27.3991 14.1771C27.4881 14.392 27.5339 14.6223 27.5339 14.8548V19.6531C27.5552 19.8973 27.5251 20.1432 27.4455 20.3749C27.3658 20.6067 27.2384 20.8192 27.0715 20.9986C26.9046 21.1781 26.702 21.3205 26.4766 21.4168C26.2512 21.513 26.0081 21.5608 25.7631 21.5572ZM11.4632 19.6531H25.6298V14.8929H11.4632V19.6531Z" fill="#0066B3"/>
</g>
<defs>
<clipPath id="clip0_903_41428">
<rect x="39.3777" y="32.0298" width="11.4246" height="1.9041" rx="0.952052" fill="white"/>
</clipPath>
<clipPath id="clip1_903_41428">
<rect x="33.0369" y="16.5115" width="8.56847" height="1.9041" rx="0.952052" fill="white"/>
</clipPath>
<clipPath id="clip2_903_41428">
<rect x="33.0369" y="12.9888" width="17.7272" height="1.90888" rx="0.954439" fill="white"/>
</clipPath>
<clipPath id="clip3_903_41428">
<rect x="9.65436" y="32.0298" width="11.4246" height="1.9041" rx="0.952052" fill="white"/>
</clipPath>
<clipPath id="clip4_903_41428">
<rect x="9.65436" y="28.2217" width="11.4246" height="1.9041" rx="0.952052" fill="white"/>
</clipPath>
<clipPath id="clip5_903_41428">
<rect width="17.9814" height="8.47345" fill="white" transform="translate(9.55914 13.084)"/>
</clipPath>
</defs>
</svg>
