<svg width="61" height="60" viewBox="0 0 61 60" fill="none" xmlns="http://www.w3.org/2000/svg">
<g clip-path="url(#clip0_1309_47019)">
<path d="M10.1586 23.1968C8.17264 23.1968 6.23122 22.6078 4.57992 21.5045C2.92861 20.4011 1.64156 18.8329 0.881551 16.998C0.121537 15.1632 -0.0773157 13.1442 0.310136 11.1963C0.697588 9.24847 1.65394 7.45928 3.05826 6.05495C4.46259 4.65063 6.2518 3.69429 8.19965 3.30684C10.1475 2.91939 12.1665 3.11824 14.0013 3.87826C15.8362 4.63827 17.4044 5.92531 18.5078 7.57662C19.6112 9.22793 20.2001 11.1693 20.2001 13.1553C20.1952 15.817 19.1356 18.3682 17.2536 20.2503C15.3715 22.1324 12.8203 23.1919 10.1586 23.1968ZM10.1586 4.9803C8.54178 4.9803 6.96123 5.45975 5.61686 6.35803C4.27249 7.25632 3.22467 8.53311 2.60592 10.0269C1.98717 11.5207 1.82529 13.1644 2.14072 14.7502C2.45616 16.336 3.23474 17.7927 4.37804 18.9359C5.52133 20.0792 6.97798 20.8578 8.56377 21.1732C10.1496 21.4887 11.7933 21.3268 13.2871 20.7081C14.7809 20.0893 16.0576 19.0415 16.9559 17.6971C17.8542 16.3528 18.3337 14.7722 18.3337 13.1553C18.3287 10.9887 17.4658 8.91221 15.9338 7.38017C14.4018 5.84812 12.3253 4.98523 10.1586 4.9803Z" fill="white"/>
<path d="M47.4868 59.014C45.5008 59.014 43.5593 58.4251 41.908 57.3217C40.2567 56.2184 38.9697 54.6501 38.2097 52.8153C37.4497 50.9804 37.2508 48.9614 37.6383 47.0136C38.0257 45.0657 38.9821 43.2765 40.3864 41.8722C41.7907 40.4679 43.5799 39.5116 45.5278 39.1241C47.4756 38.7366 49.4946 38.9355 51.3295 39.6955C53.1643 40.4555 54.7326 41.7426 55.8359 43.3939C56.9393 45.0452 57.5282 46.9866 57.5282 48.9726C57.5282 51.6357 56.4703 54.1898 54.5871 56.073C52.704 57.9561 50.1499 59.014 47.4868 59.014ZM47.4868 40.7976C45.8699 40.7976 44.2894 41.277 42.945 42.1753C41.6006 43.0736 40.5528 44.3504 39.934 45.8442C39.3153 47.3379 39.1534 48.9816 39.4688 50.5674C39.7843 52.1532 40.5629 53.6099 41.7062 54.7532C42.8495 55.8965 44.3061 56.6751 45.8919 56.9905C47.4777 57.3059 49.1214 57.1441 50.6152 56.5253C52.109 55.9066 53.3858 54.8588 54.284 53.5144C55.1823 52.17 55.6618 50.5894 55.6618 48.9726C55.6568 46.806 54.794 44.7295 53.2619 43.1974C51.7299 41.6654 49.6534 40.8025 47.4868 40.7976Z" fill="white"/>
<path d="M47.4876 25.3245L35.3184 13.1553L47.4876 0.986084L59.6568 13.1553L47.4876 25.3245ZM37.9687 13.1553L47.4876 22.6928L57.0251 13.1553L47.4876 3.6364L37.9687 13.1553Z" fill="white"/>
<path d="M18.7446 57.6515H1.55469V40.4429H18.7446V57.6515ZM3.42113 55.785H16.8782V42.3093H3.42113V55.785Z" fill="white"/>
<path d="M14.544 31.7078L13.2375 33.0703L12.0056 31.7078L11.0724 30.7186V37.2698H9.20596V30.7186L8.27274 31.7078L7.02222 33.0703L5.73438 31.7078L7.02222 30.3453L10.1392 26.967L13.2375 30.3453L14.544 31.7078Z" fill="white"/>
<path d="M51.8936 32.529L50.6244 33.8915L47.4888 37.2698L44.3718 33.8915L43.084 32.529L44.3718 31.1665L45.641 32.529L46.5556 33.5182V26.967H48.422V33.5182L49.3552 32.529L50.6244 31.1665L51.8936 32.529Z" fill="white"/>
<path d="M32.8926 13.1553L29.5143 16.2722L28.1518 17.5601L26.7893 16.2722L28.1518 15.0031L29.1411 14.0885H22.5898V12.2221H29.1411L28.1518 11.2888L26.7893 10.0197L28.1518 8.75049L29.5143 10.0197L32.8926 13.1553Z" fill="white"/>
</g>
<defs>
<clipPath id="clip0_1309_47019">
<rect width="60" height="60" fill="white" transform="translate(0.117188)"/>
</clipPath>
</defs>
</svg>
