<svg width="60" height="60" viewBox="0 0 60 60" fill="none" xmlns="http://www.w3.org/2000/svg">
<g clip-path="url(#clip0_1309_5351)">
<path d="M56.7 6.06353C56.8797 6.06353 57.0577 6.09889 57.2238 6.16767C57.3898 6.23646 57.5407 6.33732 57.6678 6.46442C57.7949 6.59152 57.8958 6.74238 57.9646 6.90845C58.0333 7.07451 58.0687 7.2525 58.0687 7.43224V52.5073C58.0687 52.8703 57.9245 53.2184 57.6678 53.4751C57.4111 53.7318 57.063 53.876 56.7 53.876H3.26248C2.89772 53.8761 2.54758 53.7325 2.2879 53.4763C2.02823 53.2201 1.87993 52.872 1.875 52.5073V7.50726C1.87993 7.14253 2.02823 6.7944 2.2879 6.53823C2.54758 6.28207 2.89772 6.13846 3.26248 6.13849H56.7M56.7 4.26349H3.26248C2.40045 4.26347 1.57341 4.60464 0.962105 5.21243C0.350803 5.82022 0.0049542 6.64524 0 7.50726V52.5073C0.0049542 53.3693 0.350803 54.1943 0.962105 54.8021C1.57341 55.4099 2.40045 55.751 3.26248 55.751H56.7C57.5603 55.751 58.3853 55.4093 58.9936 54.8009C59.6019 54.1926 59.9437 53.3676 59.9437 52.5073V7.50726C59.9437 7.08128 59.8599 6.65947 59.6968 6.26592C59.5338 5.87237 59.2948 5.51479 58.9936 5.21358C58.6924 4.91237 58.3349 4.67347 57.9413 4.51045C57.5478 4.34744 57.126 4.26349 56.7 4.26349Z" fill="white"/>
<path d="M5.21289 11.1069C5.88599 11.1069 6.43164 10.5613 6.43164 9.88818C6.43164 9.21509 5.88599 8.66943 5.21289 8.66943C4.53979 8.66943 3.99414 9.21509 3.99414 9.88818C3.99414 10.5613 4.53979 11.1069 5.21289 11.1069Z" fill="white"/>
<path d="M8.96289 11.1071C9.63599 11.1071 10.1816 10.5614 10.1816 9.88831C10.1816 9.21521 9.63599 8.66956 8.96289 8.66956C8.28979 8.66956 7.74414 9.21521 7.74414 9.88831C7.74414 10.5614 8.28979 11.1071 8.96289 11.1071Z" fill="white"/>
<path d="M12.7109 11.1069C13.384 11.1069 13.9297 10.5613 13.9297 9.88818C13.9297 9.21509 13.384 8.66943 12.7109 8.66943C12.0378 8.66943 11.4922 9.21509 11.4922 9.88818C11.4922 10.5613 12.0378 11.1069 12.7109 11.1069Z" fill="white"/>
<path d="M59.0625 12.4947H0.9375V14.3697H59.0625V12.4947Z" fill="white"/>
<path d="M22.4452 34.1321H6.22656C5.97792 34.1321 5.73942 34.0334 5.56361 33.8575C5.38779 33.6817 5.28906 33.4433 5.28906 33.1946V19.0571C5.28906 18.8085 5.38779 18.57 5.56361 18.3942C5.73942 18.2184 5.97792 18.1196 6.22656 18.1196H52.9515C53.2002 18.1196 53.4387 18.2184 53.6145 18.3942C53.7903 18.57 53.889 18.8085 53.889 19.0571V26.4633C53.889 26.712 53.7903 26.9505 53.6145 27.1263C53.4387 27.3021 53.2002 27.4008 52.9515 27.4008C52.7044 27.396 52.4687 27.2958 52.294 27.121C52.1192 26.9462 52.0188 26.7105 52.014 26.4633V19.9946H7.16406V32.2571H22.4452C22.6939 32.2571 22.9324 32.3559 23.1082 32.5317C23.284 32.7075 23.3827 32.946 23.3827 33.1946C23.3827 33.4433 23.284 33.6817 23.1082 33.8575C22.9324 34.0334 22.6939 34.1321 22.4452 34.1321Z" fill="white"/>
<path d="M44.9452 51.0071H6.22656C5.97792 51.0071 5.73942 50.9083 5.56361 50.7325C5.38779 50.5567 5.28906 50.3182 5.28906 50.0696V40.6946C5.28906 40.4459 5.38779 40.2074 5.56361 40.0316C5.73942 39.8558 5.97792 39.7571 6.22656 39.7571H27.1327C27.3814 39.7571 27.6199 39.8558 27.7957 40.0316C27.9715 40.2074 28.0702 40.4459 28.0702 40.6946C28.0702 40.9432 27.9715 41.1817 27.7957 41.3575C27.6199 41.5333 27.3814 41.6321 27.1327 41.6321H7.16406V49.1321H44.9452C45.1939 49.1321 45.4324 49.2308 45.6082 49.4066C45.784 49.5824 45.8827 49.8209 45.8827 50.0696C45.8827 50.3182 45.784 50.5567 45.6082 50.7325C45.4324 50.9083 45.1939 51.0071 44.9452 51.0071Z" fill="white"/>
<path d="M37.6309 42.9445C35.5542 42.9445 33.5241 42.3288 31.7974 41.175C30.0707 40.0213 28.7248 38.3814 27.9301 36.4627C27.1354 34.5441 26.9275 32.4329 27.3326 30.3961C27.7378 28.3593 28.7378 26.4884 30.2062 25.02C31.6747 23.5515 33.5456 22.5515 35.5824 22.1463C37.6192 21.7412 39.7304 21.9491 41.6491 22.7438C43.5677 23.5386 45.2075 24.8844 46.3613 26.6111C47.515 28.3378 48.1309 30.3678 48.1309 32.4445C48.1309 33.8234 47.8593 35.1888 47.3316 36.4627C46.804 37.7366 46.0305 38.8942 45.0555 39.8692C44.0805 40.8442 42.923 41.6176 41.6491 42.1453C40.3751 42.673 39.0098 42.9445 37.6309 42.9445ZM37.6309 23.8196C35.9251 23.8196 34.2574 24.3254 32.8391 25.2732C31.4207 26.2209 30.3152 27.5679 29.6624 29.1439C29.0096 30.7199 28.8388 32.4541 29.1716 34.1272C29.5044 35.8003 30.3259 37.3372 31.5321 38.5434C32.7384 39.7496 34.2751 40.571 35.9482 40.9038C37.6213 41.2366 39.3555 41.0658 40.9315 40.413C42.5075 39.7602 43.8546 38.6547 44.8024 37.2364C45.7501 35.818 46.2559 34.1504 46.2559 32.4445C46.2509 30.1586 45.3407 27.9677 43.7242 26.3512C42.1078 24.7348 39.9169 23.8245 37.6309 23.8196Z" fill="white"/>
<path d="M36.4293 35.7822C36.2006 35.7776 35.981 35.6912 35.8105 35.5385L33.1856 33.1385C33.0977 33.0514 33.0279 32.9477 32.9803 32.8334C32.9327 32.7192 32.9082 32.5966 32.9082 32.4729C32.9082 32.3491 32.9327 32.2266 32.9803 32.1123C33.0279 31.9981 33.0977 31.8944 33.1856 31.8072C33.364 31.6343 33.6027 31.5376 33.8512 31.5376C34.0997 31.5376 34.3384 31.6343 34.5168 31.8072L36.3918 33.5885L40.5356 29.4448C40.7108 29.273 40.9464 29.1768 41.1918 29.1768C41.4372 29.1768 41.6729 29.273 41.8481 29.4448C41.936 29.5319 42.0057 29.6356 42.0533 29.7498C42.1009 29.8641 42.1254 29.9866 42.1254 30.1104C42.1254 30.2341 42.1009 30.3567 42.0533 30.4709C42.0057 30.5852 41.936 30.6889 41.8481 30.776L37.0855 35.5572C36.9027 35.7117 36.6685 35.792 36.4293 35.7822Z" fill="white"/>
<path d="M44.4092 38.9239L43.1367 40.301L45.6154 42.5915L46.888 41.2145L44.4092 38.9239Z" fill="white"/>
<path d="M51.0742 50.3884C50.8273 50.3829 50.5922 50.2821 50.418 50.1071L44.5117 44.2009C44.4238 44.1138 44.3541 44.0101 44.3065 43.8958C44.2589 43.7816 44.2344 43.659 44.2344 43.5353C44.2344 43.4115 44.2589 43.289 44.3065 43.1747C44.3541 43.0605 44.4238 42.9568 44.5117 42.8696L46.8366 40.5259C47.0177 40.3497 47.2591 40.2492 47.5116 40.2446C47.7585 40.2501 47.9937 40.3509 48.1679 40.5259L54.0741 46.4509C54.1638 46.535 54.2354 46.6367 54.2842 46.7496C54.3331 46.8624 54.3583 46.9841 54.3583 47.1071C54.3583 47.2301 54.3331 47.3518 54.2842 47.4647C54.2354 47.5776 54.1638 47.6792 54.0741 47.7634L51.7491 50.1071C51.5681 50.2833 51.3267 50.3838 51.0742 50.3884ZM46.4992 43.5259L51.0742 48.1197L52.0866 47.1071L47.5116 42.5134L46.4992 43.5259Z" fill="white"/>
</g>
<defs>
<clipPath id="clip0_1309_5351">
<rect width="60" height="51.6375" fill="white" transform="translate(0 4.18848)"/>
</clipPath>
</defs>
</svg>
