<svg width="60" height="61" viewBox="0 0 60 61" fill="none" xmlns="http://www.w3.org/2000/svg">
<g clip-path="url(#clip0_1309_4078)">
<path d="M56.7 6.91051C56.8797 6.91051 57.0577 6.94587 57.2238 7.01466C57.3898 7.08344 57.5407 7.1843 57.6678 7.3114C57.7949 7.4385 57.8958 7.58937 57.9646 7.75543C58.0333 7.9215 58.0688 8.09948 58.0688 8.27923V53.3542C58.0688 53.7173 57.9245 54.0654 57.6678 54.3221C57.4111 54.5788 57.063 54.723 56.7 54.723H3.26248C2.89772 54.7231 2.54763 54.5794 2.28796 54.3233C2.02829 54.0671 1.87993 53.719 1.875 53.3542V8.35424C1.87993 7.98952 2.02829 7.64138 2.28796 7.38522C2.54763 7.12905 2.89772 6.98544 3.26248 6.98547H56.7M56.7 5.11047H3.26248C2.40045 5.11046 1.57346 5.45163 0.962162 6.05942C0.350861 6.66721 0.0049542 7.49223 0 8.35424V53.3542C0.0049542 54.2163 0.350861 55.0413 0.962162 55.6491C1.57346 56.2569 2.40045 56.598 3.26248 56.598H56.7C57.5603 56.598 58.3853 56.2563 58.9937 55.6479C59.602 55.0396 59.9438 54.2145 59.9438 53.3542V8.35424C59.9438 7.92827 59.8598 7.50645 59.6968 7.1129C59.5338 6.71935 59.2949 6.36177 58.9937 6.06056C58.6925 5.75935 58.3349 5.52045 57.9413 5.35744C57.5478 5.19442 57.126 5.11047 56.7 5.11047Z" fill="white"/>
<path d="M5.21094 11.9542C5.88403 11.9542 6.42969 11.4086 6.42969 10.7355C6.42969 10.0624 5.88403 9.51672 5.21094 9.51672C4.53784 9.51672 3.99219 10.0624 3.99219 10.7355C3.99219 11.4086 4.53784 11.9542 5.21094 11.9542Z" fill="white"/>
<path d="M8.96314 11.9542C9.63623 11.9542 10.1819 11.4086 10.1819 10.7355C10.1819 10.0624 9.63623 9.51672 8.96314 9.51672C8.29004 9.51672 7.74438 10.0624 7.74438 10.7355C7.74438 11.4086 8.29004 11.9542 8.96314 11.9542Z" fill="white"/>
<path d="M12.7109 11.9542C13.384 11.9542 13.9297 11.4086 13.9297 10.7355C13.9297 10.0624 13.384 9.51672 12.7109 9.51672C12.0378 9.51672 11.4922 10.0624 11.4922 10.7355C11.4922 11.4086 12.0378 11.9542 12.7109 11.9542Z" fill="white"/>
<path d="M59.0625 13.3419H0.9375V15.2169H59.0625V13.3419Z" fill="white"/>
<path d="M6.01961 18.8208L5.45703 20.6094L52.7121 35.4726L53.2747 33.684L6.01961 18.8208Z" fill="white"/>
<path d="M52.9501 20.3356V34.7543H5.7001V20.3356H52.9501ZM53.5501 18.4606H5.02513C4.85699 18.4581 4.69007 18.4893 4.53423 18.5525C4.3784 18.6157 4.23686 18.7094 4.11796 18.8283C3.99905 18.9472 3.90522 19.0889 3.84204 19.2447C3.77886 19.4005 3.74761 19.5674 3.75014 19.7356V35.3543C3.75014 35.6925 3.88445 36.0168 4.12356 36.2559C4.36267 36.495 4.68698 36.6293 5.02513 36.6293H53.4751C53.8133 36.6293 54.1376 36.495 54.3767 36.2559C54.6158 36.0168 54.7501 35.6925 54.7501 35.3543V19.7356C54.7526 19.5674 54.7214 19.4005 54.6582 19.2447C54.595 19.0889 54.5012 18.9472 54.3823 18.8283C54.2634 18.7094 54.1218 18.6157 53.966 18.5525C53.8102 18.4893 53.6433 18.4581 53.4751 18.4606H53.5501Z" fill="white"/>
<path d="M16.65 42.1042V49.6042H5.625V42.1042H16.6312M16.6312 40.2292H5.625C5.12772 40.2292 4.65078 40.4268 4.29914 40.7785C3.94751 41.1301 3.75 41.607 3.75 42.1042V49.6042C3.75 50.1015 3.94751 50.5784 4.29914 50.93C4.65078 51.2817 5.12772 51.4792 5.625 51.4792H16.6312C17.1285 51.4792 17.6054 51.2817 17.957 50.93C18.3087 50.5784 18.5062 50.1015 18.5062 49.6042V42.1042C18.5062 41.607 18.3087 41.1301 17.957 40.7785C17.6054 40.4268 17.1285 40.2292 16.6312 40.2292Z" fill="white"/>
<path d="M52.8375 42.1042V49.6042H41.8125V42.1042H52.7813M52.7813 40.2292H41.8125C41.3152 40.2292 40.8383 40.4268 40.4867 40.7785C40.1351 41.1301 39.9375 41.607 39.9375 42.1042V49.6042C39.9375 50.1015 40.1351 50.5784 40.4867 50.93C40.8383 51.2817 41.3152 51.4792 41.8125 51.4792H52.7813C53.2785 51.4792 53.7554 51.2817 54.1071 50.93C54.4587 50.5784 54.6563 50.1015 54.6563 49.6042V42.1042C54.6563 41.607 54.4587 41.1301 54.1071 40.7785C53.7554 40.4268 53.2785 40.2292 52.7813 40.2292Z" fill="white"/>
<path d="M34.7516 42.1042V49.6042H23.7266V42.1042H34.6953M34.6953 40.2292H23.7266C23.2293 40.2292 22.7524 40.4268 22.4008 40.7785C22.0491 41.1301 21.8516 41.607 21.8516 42.1042V49.6042C21.8516 50.1015 22.0491 50.5784 22.4008 50.93C22.7524 51.2817 23.2293 51.4792 23.7266 51.4792H34.6953C35.1926 51.4792 35.6695 51.2817 36.0211 50.93C36.3728 50.5784 36.5703 50.1015 36.5703 49.6042V42.1042C36.5703 41.607 36.3728 41.1301 36.0211 40.7785C35.6695 40.4268 35.1926 40.2292 34.6953 40.2292Z" fill="white"/>
<path d="M52.6332 18.7294L4.60938 33.9166L5.17694 35.7037L53.2008 20.5164L52.6332 18.7294Z" fill="white"/>
<path d="M42.1622 41.2887L41.1289 42.8533L52.3785 50.2823L53.4118 48.7177L42.1622 41.2887Z" fill="white"/>
<path d="M52.428 41.326L41.1797 48.8248L42.2197 50.3849L53.468 42.8861L52.428 41.326Z" fill="white"/>
<path d="M24.1036 41.2778L23.0703 42.8424L34.3199 50.2714L35.3532 48.7068L24.1036 41.2778Z" fill="white"/>
<path d="M34.3518 41.3211L23.1035 48.8199L24.1436 50.38L35.3919 42.8812L34.3518 41.3211Z" fill="white"/>
<path d="M5.99418 41.2827L4.96094 42.8473L16.2106 50.2763L17.2438 48.7117L5.99418 41.2827Z" fill="white"/>
<path d="M16.2405 41.3178L4.99219 48.8167L6.03225 50.3767L17.2805 42.8779L16.2405 41.3178Z" fill="white"/>
</g>
<defs>
<clipPath id="clip0_1309_4078">
<rect width="60" height="51.6375" fill="white" transform="translate(0 5.03564)"/>
</clipPath>
</defs>
</svg>
