<svg width="56" height="55" viewBox="0 0 56 55" fill="none" xmlns="http://www.w3.org/2000/svg">
<path fill-rule="evenodd" clip-rule="evenodd" d="M9.80386 0.50684H45.3525C46.6329 0.505634 47.9009 0.756929 49.084 1.24634C50.2672 1.73576 51.3422 2.45369 52.2475 3.35904C53.1529 4.26439 53.8708 5.3394 54.3602 6.52253C54.8496 7.70566 55.1009 8.97369 55.0997 10.2541V44.4266C55.1009 45.707 54.8496 46.975 54.3602 48.1581C53.8708 49.3413 53.1529 50.4163 52.2475 51.3216C51.3422 52.227 50.2672 52.9449 49.084 53.4343C47.9009 53.9237 46.6329 54.175 45.3525 54.1738H9.80386C8.5235 54.175 7.25547 53.9237 6.07233 53.4343C4.8892 52.9449 3.8142 52.227 2.90885 51.3216C2.0035 50.4163 1.28556 49.3413 0.796149 48.1581C0.306733 46.975 0.0554393 45.707 0.0566449 44.4266V10.2541C0.0554393 8.97369 0.306733 7.70566 0.796149 6.52253C1.28556 5.3394 2.0035 4.26439 2.90885 3.35904C3.8142 2.45369 4.8892 1.73576 6.07233 1.24634C7.25547 0.756929 8.5235 0.505634 9.80386 0.50684ZM29.0003 14.6119L22.1199 25.9645L29.459 38.0052C29.5073 38.0882 29.5236 38.1861 29.5049 38.2804C29.4908 38.3367 29.4508 38.3325 29.3902 38.3262C29.3521 38.3222 29.3057 38.3174 29.2526 38.3262H24.0006C23.6336 38.3262 23.3813 38.3033 23.2208 38.074C22.98 37.5923 22.7334 37.1165 22.4869 36.6406L22.4867 36.6403C22.2402 36.1645 21.9937 35.6887 21.753 35.2071C21.2923 34.2859 20.7897 33.3856 20.2652 32.446L20.1934 32.3174C19.643 31.3312 19.0926 30.345 18.5421 29.3359H18.4963C18.0146 30.3221 17.4871 31.3082 16.9596 32.2944C16.4321 33.2806 15.9047 34.2668 15.4001 35.2301C14.8955 36.1933 14.3451 37.1795 13.8176 38.1198C13.7259 38.3492 13.5424 38.3721 13.2901 38.3721H8.24449C8.22214 38.3721 8.20115 38.3748 8.18218 38.3773C8.12331 38.3849 8.08395 38.39 8.08395 38.3033C8.07372 38.2604 8.07251 38.2158 8.0804 38.1723C8.0883 38.1289 8.10513 38.0876 8.12982 38.051L15.2625 26.3544L8.3133 14.5889C8.24449 14.4972 8.22156 14.4054 8.26743 14.3596C8.29539 14.3269 8.33086 14.3014 8.37081 14.2855C8.41075 14.2695 8.45398 14.2634 8.49677 14.2678H13.7029C13.8114 14.2702 13.9192 14.2856 14.024 14.3137C14.1159 14.3631 14.1945 14.4339 14.2534 14.5201C14.6891 15.5063 15.1937 16.4925 15.7212 17.4787C16.2487 18.4649 16.7991 19.4281 17.3725 20.3914C17.9458 21.3546 18.4275 22.3179 18.9091 23.3041H18.955C19.4366 22.2949 19.9411 21.3088 20.4457 20.3455C20.9503 19.3822 21.4778 18.419 22.0053 17.4557C22.3175 16.8856 22.6217 16.3074 22.9226 15.7355L22.9228 15.7351C23.1302 15.3409 23.336 14.9496 23.5419 14.566C23.5593 14.4757 23.608 14.3945 23.6795 14.3366C23.7703 14.2865 23.876 14.2703 23.9776 14.2908H28.8168C28.8439 14.2847 28.872 14.284 28.8994 14.2888C28.9267 14.2936 28.9529 14.3037 28.9763 14.3186C28.9998 14.3335 29.02 14.3529 29.036 14.3757C29.0519 14.3985 29.0632 14.4242 29.0691 14.4513C29.0921 14.4742 29.0462 14.566 29.0003 14.6119ZM34.6658 37.7757C36.2119 38.483 37.8967 38.8356 39.5967 38.8077C40.7812 38.8043 41.963 38.6969 43.1287 38.4867C44.4118 38.2599 45.6657 37.8907 46.867 37.3858C46.9388 37.3562 46.9995 37.305 47.0406 37.2392C47.0817 37.1733 47.1012 37.0963 47.0963 37.0188C47.0871 36.8609 47.074 36.6954 47.0602 36.5209C47.04 36.2646 47.0182 35.9888 47.0046 35.6886C47.0025 35.6423 47.0004 35.5964 46.9983 35.5508C46.9777 35.1002 46.9587 34.6875 46.9587 34.3126V12.4329C46.9477 12.3822 46.9179 12.3376 46.8754 12.3078C46.8329 12.2781 46.7808 12.2654 46.7294 12.2724H42.0737C41.9131 12.2724 41.8443 12.3641 41.8443 12.5247V19.772C41.717 19.7614 41.5994 19.7557 41.4895 19.7504C41.3618 19.7442 41.2442 19.7385 41.1333 19.7261C40.9734 19.709 40.8126 19.7014 40.6517 19.7032C38.3812 19.7032 36.4547 20.139 34.8493 21.0334C33.3336 21.8654 32.073 23.0943 31.2027 24.5883C30.3538 26.0582 29.918 27.7302 29.9412 29.4275C29.9412 31.5145 30.3541 33.2576 31.2027 34.6566C32.0216 36.0171 33.2272 37.103 34.6658 37.7757ZM41.8443 24.1296V34.2208C41.5802 34.3164 41.2989 34.3555 41.0187 34.3355C40.7205 34.3584 40.3994 34.3814 40.0554 34.3814C39.409 34.3851 38.7662 34.2844 38.1518 34.0832C37.5682 33.9018 37.0344 33.5878 36.5923 33.1658C36.1342 32.7043 35.782 32.1487 35.5602 31.5375C35.2826 30.7816 35.1504 29.9802 35.1703 29.1752C35.1703 27.9826 35.4226 26.9964 35.9272 26.2625C36.4219 25.54 37.0929 24.9558 37.8766 24.5653C38.6808 24.1633 39.5692 23.9589 40.4682 23.969C40.7205 23.969 40.9728 23.992 41.2251 24.0149C41.4334 24.042 41.6401 24.0803 41.8443 24.1296Z" fill="#B0D0E7"/>
</svg>
