<svg width="230" height="76" viewBox="0 0 230 76" fill="none" xmlns="http://www.w3.org/2000/svg">
<path d="M78.8317 25.6855V28.0641C77.5078 26.3022 74.9482 25.0688 72.0356 25.0688C65.0629 25.0688 59.9437 31.1475 59.9437 38.3714C59.9437 45.7715 65.0629 51.674 72.0356 51.674C74.9482 51.674 77.5078 50.5288 78.8317 48.6787V51.0573H87.4814V25.6855H78.8317ZM90.4823 14.4972V50.9692H99.3968V37.4904C99.3968 34.8475 100.632 33.3499 102.662 33.3499C104.604 33.3499 105.752 34.6713 105.752 37.2262V50.9692H114.666V35.1118C114.666 28.9451 111.312 25.1569 105.928 25.1569C103.016 25.1569 100.809 26.3022 99.2203 28.2403V14.4972H90.4823ZM172.213 38.3714C172.213 45.9477 166.388 51.674 158.709 51.674C151.03 51.674 145.205 45.9477 145.205 38.3714C145.205 30.7951 150.942 25.0688 158.709 25.0688C166.476 25.0688 172.213 30.7951 172.213 38.3714ZM143.704 38.3714C143.704 45.9477 137.879 51.674 130.2 51.674C122.521 51.674 116.696 45.9477 116.696 38.3714C116.696 30.7951 122.345 25.0688 130.112 25.0688C137.879 25.0688 143.704 30.7951 143.704 38.3714ZM31.082 25.6855L41.9383 51.1454L38.0547 60.3075H47.587L61.9737 25.6855H52.4414L46.6161 40.4857L40.7908 25.6855H31.082ZM73.8891 43.481C70.8882 43.481 68.6816 41.1905 68.6816 38.2833C68.6816 35.3761 70.9764 33.0856 73.8891 33.0856C76.8017 33.0856 79.0965 35.3761 79.0965 38.2833C79.0965 41.2786 76.8017 43.481 73.8891 43.481ZM135.143 38.3714C135.143 35.5523 133.025 33.2618 130.112 33.2618C127.199 33.2618 125.081 35.5523 125.081 38.3714C125.081 41.1905 127.199 43.481 130.112 43.481C133.025 43.481 135.143 41.1905 135.143 38.3714ZM163.74 38.3714C163.74 35.5523 161.621 33.2618 158.709 33.2618C155.796 33.2618 153.678 35.5523 153.678 38.3714C153.678 41.1905 155.796 43.481 158.709 43.481C161.621 43.481 163.74 41.1905 163.74 38.3714ZM173.36 45.5953C173.36 48.7668 175.832 51.4097 179.186 51.4097C182.628 51.4097 185.187 48.6787 185.187 45.4191C185.187 42.1596 182.716 39.6048 179.362 39.6048C175.92 39.6048 173.36 42.3358 173.36 45.5953ZM186.07 14.4972L176.538 37.4023H187.129L196.661 14.4972H186.07Z" fill="#B0D0E7"/>
</svg>
