<svg width="20" height="14" viewBox="0 0 20 14" fill="none" xmlns="http://www.w3.org/2000/svg">
<path d="M19.12 2.93766C19.0136 2.5426 18.8054 2.1824 18.5161 1.89311C18.2268 1.60382 17.8666 1.39559 17.4716 1.28926C16.0167 0.895508 10.1706 0.895508 10.1706 0.895508C10.1706 0.895508 4.32442 0.895508 2.86955 1.28926C2.4745 1.39559 2.1143 1.60382 1.82501 1.89311C1.53572 2.1824 1.32749 2.5426 1.22115 2.93766C0.949498 4.42139 0.817672 5.92735 0.827406 7.43572C0.817672 8.94409 0.949498 10.45 1.22115 11.9338C1.32749 12.3288 1.53572 12.689 1.82501 12.9783C2.1143 13.2676 2.4745 13.4758 2.86955 13.5822C4.32442 13.9759 10.1706 13.9759 10.1706 13.9759C10.1706 13.9759 16.0167 13.9759 17.4716 13.5822C17.8666 13.4758 18.2268 13.2676 18.5161 12.9783C18.8054 12.689 19.0136 12.3288 19.12 11.9338C19.3916 10.45 19.5235 8.94409 19.5137 7.43572C19.5235 5.92735 19.3916 4.42139 19.12 2.93766ZM8.30193 10.2387V4.63277L13.1537 7.43572L8.30193 10.2387Z" fill="#005BAA"/>
<path d="M8.31012 4.62988V10.2472L13.1588 7.4386L8.31012 4.62988Z" fill="white"/>
</svg>
