<?xml version="1.0" encoding="utf-8"?>
<!-- Generator: Adobe Illustrator 26.0.0, SVG Export Plug-In . SVG Version: 6.00 Build 0)  -->
<svg version="1.1" id="Layer_1" xmlns="http://www.w3.org/2000/svg" xmlns:xlink="http://www.w3.org/1999/xlink" x="0px" y="0px"
	 viewBox="0 0 32 32" style="enable-background:new 0 0 32 32;" xml:space="preserve">
<style type="text/css">
	.st0{fill:#005BAA;}
	.st1{fill:#FFFFFF;}
</style>
<circle class="st0" cx="16" cy="16" r="16"/>
<g>
	<g>
		<path class="st1" d="M9.9,22v0.7H6.6v-0.6l2.1-2.5H6.6v-0.7h3.2v0.6L7.7,22H9.9L9.9,22z M13,21.9h-1.8l-0.3,0.8H10l1.7-3.9h0.9
			l1.7,3.9h-0.9C13.4,22.7,13.1,21.9,13,21.9z M12.8,21.2l-0.6-1.5l-0.6,1.5C11.6,21.2,12.8,21.2,12.8,21.2z M16.4,18.9
			c0.3,0,0.6,0.1,0.9,0.2s0.5,0.3,0.6,0.5c0.1,0.2,0.2,0.5,0.2,0.7S18,20.8,17.9,21c-0.1,0.2-0.3,0.4-0.6,0.5
			c-0.2,0.1-0.5,0.2-0.9,0.2h-0.8v1.1h-0.9v-3.9L16.4,18.9L16.4,18.9z M16.4,20.9c0.3,0,0.5-0.1,0.6-0.2c0.1-0.1,0.2-0.3,0.2-0.5
			s-0.1-0.4-0.2-0.5s-0.3-0.2-0.6-0.2h-0.7v1.3L16.4,20.9L16.4,20.9z M19.4,19.6h-1.2v-0.7h3.4v0.7h-1.2v3.1h-0.9L19.4,19.6
			L19.4,19.6z M24.3,21.9h-1.8l-0.3,0.8h-0.9l1.7-3.9h0.9l1.7,3.9h-0.9C24.7,22.7,24.3,21.9,24.3,21.9z M24.1,21.2l-0.6-1.5
			l-0.6,1.5C22.8,21.2,24.1,21.2,24.1,21.2z"/>
		<path class="st1" d="M6.8,23.7H6.4v-0.2h1.1v0.2H7.1v1H6.8L6.8,23.7L6.8,23.7z M9,24.5v0.2H8v-1.2h0.9v0.2H8.3V24h0.6v0.2H8.3v0.3
			C8.3,24.5,8.9,24.5,9,24.5z M10.2,24.7c-0.1,0-0.2,0-0.3-0.1s-0.2-0.1-0.2-0.2c-0.1-0.1-0.1-0.2-0.1-0.3s0-0.2,0.1-0.3
			c0.1-0.1,0.1-0.2,0.2-0.2c0.1,0,0.2-0.1,0.3-0.1c0.1,0,0.2,0,0.3,0c0.1,0,0.2,0.1,0.2,0.2l-0.2,0.2c-0.1-0.1-0.2-0.1-0.3-0.1
			c-0.1,0-0.1,0-0.2,0c-0.1,0-0.1,0.1-0.1,0.1c0,0.1-0.1,0.1-0.1,0.2s0,0.1,0.1,0.2c0,0.1,0.1,0.1,0.1,0.1c0.1,0,0.1,0,0.2,0
			c0.1,0,0.2,0,0.3-0.1l0.2,0.2c-0.1,0.1-0.1,0.1-0.2,0.2C10.4,24.7,10.3,24.7,10.2,24.7z M12.4,23.5v1.2h-0.3v-0.5h-0.6v0.5h-0.3
			v-1.2h0.3v0.5h0.6v-0.5H12.4z M14.2,23.5v1.2H14L13.4,24v0.7h-0.3v-1.2h0.2l0.6,0.7v-0.7H14.2z M15.6,24.7c-0.1,0-0.2,0-0.3-0.1
			S15,24.5,15,24.4c-0.1-0.1-0.1-0.2-0.1-0.3s0-0.2,0.1-0.3c0.1-0.1,0.1-0.2,0.2-0.2c0.1,0,0.2-0.1,0.3-0.1s0.2,0,0.3,0.1
			s0.2,0.1,0.2,0.2c0.1,0.1,0.1,0.2,0.1,0.3s0,0.2-0.1,0.3c-0.1,0.1-0.1,0.2-0.2,0.2C15.8,24.7,15.7,24.7,15.6,24.7z M15.6,24.5
			c0.1,0,0.1,0,0.2,0c0.1,0,0.1-0.1,0.1-0.1s0.1-0.1,0.1-0.2s0-0.1-0.1-0.2c0-0.1-0.1-0.1-0.1-0.1c-0.1,0-0.1,0-0.2,0s-0.1,0-0.2,0
			c-0.1,0-0.1,0.1-0.1,0.1c0,0.1-0.1,0.1-0.1,0.2s0,0.1,0.1,0.2c0,0.1,0.1,0.1,0.1,0.1C15.4,24.4,15.5,24.5,15.6,24.5z M16.9,23.5
			h0.3v1h0.6v0.2h-0.9C16.9,24.7,16.9,23.5,16.9,23.5z M18.9,24.7c-0.1,0-0.2,0-0.3-0.1s-0.2-0.1-0.2-0.2s-0.1-0.2-0.1-0.3
			s0-0.2,0.1-0.3c0.1-0.1,0.1-0.2,0.2-0.2s0.2-0.1,0.3-0.1s0.2,0,0.3,0.1s0.2,0.1,0.2,0.2c0.1,0.1,0.1,0.2,0.1,0.3s0,0.2-0.1,0.3
			c-0.1,0.1-0.1,0.2-0.2,0.2C19.1,24.7,19,24.7,18.9,24.7z M18.9,24.5c0.1,0,0.1,0,0.2,0c0.1,0,0.1-0.1,0.1-0.1c0-0.1,0-0.1,0-0.2
			s0-0.1,0-0.2c0-0.1-0.1-0.1-0.1-0.1c-0.1,0-0.1,0-0.2,0s-0.1,0-0.2,0c-0.1,0-0.1,0.1-0.1,0.1c0,0.1,0,0.1,0,0.2s0,0.1,0,0.2
			c0,0.1,0.1,0.1,0.1,0.1C18.8,24.4,18.8,24.5,18.9,24.5z M21,24.1h0.2v0.5c-0.1,0-0.1,0.1-0.2,0.1c-0.1,0-0.2,0-0.3,0
			c-0.1,0-0.2,0-0.3-0.1s-0.2-0.1-0.2-0.2s-0.1-0.2-0.1-0.3s0-0.2,0.1-0.3c0.1-0.1,0.1-0.2,0.2-0.2s0.2-0.1,0.3-0.1
			c0.1,0,0.2,0,0.3,0s0.2,0.1,0.2,0.1l-0.2,0.2c-0.1-0.1-0.2-0.1-0.3-0.1c-0.1,0-0.1,0-0.2,0c-0.1,0-0.1,0.1-0.1,0.1
			c0,0.1,0,0.1,0,0.2s0,0.1,0,0.2c0,0.1,0.1,0.1,0.1,0.1c0.1,0,0.1,0,0.2,0c0.1,0,0.1,0,0.2,0C21,24.4,21,24.1,21,24.1z M22,23.5
			h0.3v1.2H22V23.5z M23.9,24.5v0.2H23v-1.2h0.9v0.2h-0.6V24h0.6v0.2h-0.6v0.3C23.3,24.5,23.9,24.5,23.9,24.5z M25,24.7
			c-0.1,0-0.2,0-0.3,0s-0.2-0.1-0.2-0.1l0.1-0.2c0,0,0.1,0.1,0.2,0.1s0.1,0,0.2,0c0.1,0,0.1,0,0.2,0c0,0,0.1-0.1,0.1-0.1s0,0,0-0.1
			s0,0-0.1,0c0,0-0.1,0-0.1,0c-0.1,0-0.2,0-0.2-0.1c-0.1,0-0.1-0.1-0.1-0.1c0,0-0.1-0.1-0.1-0.2c0-0.1,0-0.1,0.1-0.2
			c0-0.1,0.1-0.1,0.2-0.1c0.1,0,0.2,0,0.3,0c0.1,0,0.1,0,0.2,0c0.1,0,0.1,0,0.2,0.1l-0.1,0.2c-0.1-0.1-0.2-0.1-0.3-0.1
			c-0.1,0-0.1,0-0.2,0c0,0-0.1,0.1-0.1,0.1s0,0.1,0.1,0.1c0,0,0.1,0,0.2,0.1c0.1,0,0.2,0,0.2,0.1s0.1,0.1,0.1,0.1
			c0,0,0.1,0.1,0.1,0.2c0,0.1,0,0.1-0.1,0.2c0,0.1-0.1,0.1-0.2,0.1C25.2,24.7,25.1,24.7,25,24.7L25,24.7z"/>
	</g>
	<g>
		<path class="st1" d="M19.8,10.9c0,0.5-0.4,0.9-0.7,0.9c-0.2,0-0.5,0-0.7,0.1c-0.3,0.1-0.6,0.2-0.8,0.5c-0.3,0.3-0.4,0.6-0.4,1.1
			c0,0.4-0.2,0.8-0.6,1c-0.7,0.2-1.4-0.1-1.4-0.9c0-0.3,0.2-0.7,0.6-0.8c0.2-0.1,0.4-0.1,0.6-0.1c0.6-0.1,1.1-0.4,1.4-0.9
			c0.1-0.3,0.2-0.6,0.2-0.9c0-0.3-0.1-0.6-0.3-0.8c-0.3-0.4-0.5-0.6-1-0.7c-0.4-0.1-0.7-0.1-1.1,0c-0.3,0.1-0.5,0.3-0.8,0.5
			c-0.2,0.2-0.4,0.5-0.4,0.9c0,0.3-0.1,0.6-0.3,0.9s-0.5,0.3-0.9,0.3c-0.3,0-0.5-0.2-0.7-0.4c-0.3-0.4-0.2-0.9,0.1-1.2
			c0.2-0.2,0.5-0.3,0.8-0.3c0.6-0.1,1.4-0.5,1.6-1.2C15,8.6,15,8.4,15,8.3c0-0.4,0.3-0.8,0.7-0.9c0.6-0.2,1.1,0.1,1.3,0.7
			c0,0.1,0.1,0.2,0.1,0.3c0,0.6,0.3,1,0.8,1.2c0.3,0.2,0.6,0.2,1,0.3C19.3,10,19.8,10.3,19.8,10.9L19.8,10.9z"/>
		<path class="st1" d="M12.2,13.5c0-0.5,0.4-0.9,0.8-0.9c0.2,0,0.5,0,0.7-0.1c0.3-0.1,0.6-0.2,0.8-0.5c0.3-0.3,0.4-0.6,0.4-1
			c0-0.4,0.2-0.8,0.6-0.9C16.3,9.8,17,10.1,17,11c0,0.3-0.2,0.7-0.6,0.8c-0.2,0.1-0.4,0.1-0.6,0.1c-0.6,0.1-1.1,0.4-1.4,0.9
			c-0.1,0.3-0.2,0.5-0.2,0.9c0,0.3,0.1,0.5,0.2,0.8c0.2,0.4,0.6,0.6,1,0.8c0.4,0.1,0.7,0.1,1.1,0c0.3-0.1,0.5-0.3,0.8-0.5
			c0.2-0.2,0.4-0.5,0.4-0.9c0-0.3,0.1-0.6,0.3-0.9c0.2-0.2,0.5-0.3,0.9-0.3c0.3,0,0.5,0.2,0.7,0.4c0.3,0.4,0.2,0.9-0.1,1.2
			c-0.2,0.2-0.5,0.3-0.8,0.3c-0.6,0.1-1.4,0.5-1.6,1.2c0,0.1-0.1,0.3-0.1,0.4c0,0.4-0.3,0.8-0.7,0.9c-0.6,0.2-1.1-0.1-1.3-0.7
			c0-0.1-0.1-0.2-0.1-0.3c0-0.6-0.3-1-0.8-1.3c-0.3-0.2-0.6-0.2-1-0.3C12.7,14.5,12.2,14.1,12.2,13.5L12.2,13.5z"/>
	</g>
</g>
</svg>
