<svg width="25" height="25" viewBox="0 0 25 25" fill="none" xmlns="http://www.w3.org/2000/svg">
<path d="M16.9717 9.34473V10.5931L17.9465 9.81325L21.3218 7.113C21.5837 6.90348 21.9717 7.08995 21.9717 7.42535V17.2641C21.9717 17.5995 21.5837 17.786 21.3218 17.5764L17.9465 14.8762L16.9717 14.0964V15.3447V17.3447C16.9717 17.716 16.8242 18.0721 16.5616 18.3347C16.2991 18.5972 15.943 18.7447 15.5717 18.7447H4.57166C4.20035 18.7447 3.84426 18.5972 3.58171 18.3347C3.31915 18.0721 3.17166 17.716 3.17166 17.3447V7.34473C3.17166 6.97342 3.31915 6.61733 3.58171 6.35478C3.84426 6.09223 4.20035 5.94473 4.57166 5.94473H15.5717C15.943 5.94473 16.2991 6.09223 16.5616 6.35478C16.8242 6.61733 16.9717 6.97342 16.9717 7.34473V9.34473Z" stroke="#005BAA" stroke-width="1.2"/>
</svg>
