<svg width="231" height="75" viewBox="0 0 231 75" fill="none" xmlns="http://www.w3.org/2000/svg">
<g clip-path="url(#clip0_4901_27165)">
<path d="M127.902 12.6496C127.456 12.3868 127.005 12.124 126.538 11.8878C126.072 11.6517 125.577 11.4327 125.087 11.2347L124.617 11.0442C124.184 10.8843 123.746 10.7034 123.301 10.5739C120.827 9.75805 118.237 9.34463 115.632 9.34941C102.018 9.34941 91 20.3944 91 34.0502C91.0031 39.7717 92.9918 45.3148 96.6266 49.7335C100.261 54.1521 105.317 57.1723 110.93 58.2787V65.3494C125.674 63.1214 138.733 51.387 139.701 35.9831C140.287 26.711 135.677 17.2447 127.902 12.6496ZM102.365 25.8921C102.521 25.8788 102.679 25.8788 102.835 25.8921C103.567 25.9034 104.288 26.0641 104.955 26.3644C107.065 27.2709 108.602 29.0761 109.053 31.0414C108.125 31.6585 107.06 32.0374 105.95 32.1443C104.841 32.2513 103.723 32.0831 102.694 31.6546C102.065 31.3486 101.466 30.9846 100.904 30.5672C100.478 30.2436 100.161 29.7962 99.9977 29.2861C99.8345 28.7759 99.8327 28.2278 99.9924 27.7166C100.152 27.2054 100.466 26.7558 100.89 26.4293C101.315 26.1028 101.83 25.9152 102.365 25.8921ZM104.955 41.0066C104.293 41.3225 103.568 41.484 102.835 41.4789C100.122 41.6312 98.8039 38.4663 100.763 36.8038C101.279 36.3219 101.888 35.9517 102.553 35.7165C103.328 35.3861 104.16 35.2095 105.002 35.1966C106.376 35.174 107.724 35.5728 108.864 36.3392C108.563 38.2949 107.065 40.1002 104.955 41.0066ZM113.246 45.8721C112.957 46.501 112.61 47.1015 112.21 47.666C110.702 49.6312 107.208 48.2525 107.358 45.6836C107.37 45.0113 107.531 44.35 107.828 43.7469C108.248 42.7501 108.906 41.8711 109.743 41.1864C110.581 40.5017 111.573 40.032 112.633 39.8183C113.838 41.6389 114.151 43.9069 113.246 45.8721ZM117.344 21.2152C117.632 20.5855 117.978 19.9849 118.38 19.4213C118.664 19.0806 119.027 18.8153 119.438 18.6492C119.849 18.4831 120.295 18.4212 120.736 18.4691C122.143 18.6139 123.467 19.7431 123.373 21.3504C123.361 22.0375 123.2 22.7138 122.901 23.3327C122.481 24.3287 121.823 25.2067 120.986 25.8901C120.148 26.5735 119.156 27.0417 118.096 27.2537C116.741 25.5989 116.44 23.3327 117.344 21.2152ZM127.894 41.3418C127.163 41.3292 126.442 41.1685 125.775 40.8695C123.665 39.9612 122.13 38.1578 121.677 36.1925C122.835 35.4285 124.198 35.0329 125.586 35.0576C126.429 35.0696 127.262 35.2462 128.037 35.5774C128.665 35.866 129.264 36.2135 129.827 36.6153C131.943 38.1254 130.61 41.4884 127.894 41.3418Z" fill="#B0D0E7"/>
<path d="M123.655 45.8724C123.642 45.1847 123.481 44.5079 123.183 43.8881C122.278 41.7724 120.347 40.4223 118.232 39.9671C117.613 40.8348 117.231 41.8487 117.124 42.909C117.016 43.9692 117.187 45.0391 117.618 46.0133C117.919 46.6189 118.203 47.213 118.654 47.6663C120.326 49.4811 123.805 48.1385 123.655 45.8724ZM113.105 21.2154C112.802 20.6118 112.521 20.0157 112.067 19.5625C111.791 19.226 111.435 18.9631 111.033 18.7969C110.63 18.6308 110.193 18.5667 109.759 18.6103C108.384 18.7417 107.074 19.8386 107.074 21.3506C107.087 22.0378 107.248 22.714 107.546 23.333C108.451 25.4506 110.382 26.8008 112.498 27.254C113.113 26.3863 113.493 25.3735 113.599 24.315C113.706 23.2564 113.536 22.1883 113.105 21.2154Z" fill="white"/>
<path d="M123.373 21.3583C123.36 22.0454 123.199 22.7217 122.901 23.3406C122.48 24.3366 121.823 25.2146 120.985 25.898C120.148 26.5815 119.156 27.0496 118.096 27.2616C116.74 25.5992 116.439 23.333 117.334 21.2154C117.622 20.5858 117.968 19.9851 118.37 19.4216C118.654 19.0809 119.017 18.8156 119.428 18.6495C119.839 18.4834 120.285 18.4215 120.726 18.4694C122.143 18.6218 123.466 19.751 123.373 21.3583Z" fill="white"/>
<path d="M109.053 31.0416C108.125 31.6587 107.06 32.0376 105.95 32.1445C104.841 32.2515 103.723 32.0833 102.694 31.6548C102.065 31.3488 101.466 30.9848 100.904 30.5674C100.478 30.2438 100.161 29.7964 99.9978 29.2863C99.8346 28.7761 99.8327 28.228 99.9925 27.7168C100.152 27.2056 100.466 26.756 100.89 26.4295C101.315 26.103 101.83 25.9154 102.365 25.8923C102.521 25.879 102.679 25.879 102.835 25.8923C103.567 25.9036 104.288 26.0643 104.955 26.3646C107.065 27.271 108.602 29.0763 109.053 31.0416Z" fill="white"/>
<path d="M108.864 36.3318C108.563 38.2951 107.064 40.1004 104.954 41.0069C104.293 41.3228 103.568 41.4843 102.835 41.4792C100.121 41.6315 98.8035 38.4665 100.763 36.8041C101.278 36.3222 101.888 35.952 102.553 35.7167C103.328 35.3863 104.16 35.2097 105.002 35.1968C106.375 35.1721 107.723 35.5681 108.864 36.3318Z" fill="white"/>
<path d="M113.246 45.8723C112.958 46.5012 112.611 47.1017 112.21 47.6662C110.702 49.6314 107.208 48.2527 107.358 45.6838C107.371 45.0115 107.531 44.3502 107.829 43.7471C108.249 42.7503 108.906 41.8713 109.743 41.1866C110.581 40.5019 111.573 40.0322 112.633 39.8185C113.839 41.6391 114.151 43.9071 113.246 45.8723Z" fill="white"/>
<path d="M127.894 41.3419C127.163 41.3293 126.442 41.1687 125.775 40.8697C123.665 39.9613 122.13 38.1579 121.677 36.1927C122.836 35.4287 124.198 35.033 125.586 35.0577C126.429 35.0698 127.262 35.2464 128.037 35.5776C128.665 35.8661 129.265 36.2136 129.827 36.6155C131.943 38.1256 130.61 41.4886 127.894 41.3419Z" fill="white"/>
</g>
<defs>
<clipPath id="clip0_4901_27165">
<rect width="48.7503" height="56" fill="white" transform="translate(91 9.34961)"/>
</clipPath>
</defs>
</svg>
