<svg width="231" height="75" viewBox="0 0 231 75" fill="none" xmlns="http://www.w3.org/2000/svg">
<g clip-path="url(#clip0_4901_27157)">
<path d="M107.052 31.7211C109.317 31.7211 111.159 32.9299 112.107 35.0368L112.18 35.1999L115.981 33.9073L115.901 33.7127C114.429 30.1239 111.039 27.8947 107.052 27.8947C104.248 27.8947 101.969 28.7929 100.086 30.64C98.2159 32.4738 97.2676 34.7828 97.2676 37.5025C97.2676 40.199 98.2159 42.4952 100.086 44.3295C101.969 46.1767 104.247 47.0749 107.052 47.0749C111.039 47.0749 114.429 44.8451 115.901 41.2568L115.981 41.0623L112.175 39.7679L112.104 39.9392C111.255 42.0117 109.366 43.2484 107.052 43.2484C105.476 43.2484 104.139 42.6974 103.091 41.6104C102.025 40.5094 101.484 39.1277 101.484 37.5025C101.484 35.8657 102.009 34.5096 103.091 33.3592C104.142 32.2722 105.476 31.7211 107.052 31.7211Z" fill="#B0D0E7"/>
<path d="M138.321 29.9633C138.207 29.6208 138.086 29.2804 137.958 28.9422C138.087 29.2785 138.208 29.6189 138.321 29.9633Z" fill="#B0D0E7"/>
<path d="M89.1292 47.3746C89.1117 47.3298 89.0954 47.2844 89.0791 47.2395C89.0948 47.2849 89.1111 47.3298 89.1292 47.3746Z" fill="#B0D0E7"/>
<path d="M143.429 37.4999C143.429 49.9132 135.445 60.6797 123.562 64.2906L122.426 60.555C132.653 57.4473 139.525 48.182 139.525 37.4999C139.527 35.1069 139.173 32.7268 138.471 30.4388C138.447 30.359 138.422 30.2797 138.397 30.2005C138.371 30.1213 138.346 30.0427 138.321 29.9634C138.207 29.619 138.086 29.2784 137.959 28.9417C134.421 19.5849 125.54 13.4027 115.385 13.4027C113.936 13.4024 112.49 13.5311 111.064 13.7872C99.635 15.826 91.2388 25.7007 91.2388 37.5011C91.2358 39.7674 91.5537 42.0227 92.183 44.1999C92.2086 44.2897 92.2348 44.3788 92.2622 44.4679C92.2943 44.5751 92.3269 44.6817 92.3613 44.7883C92.3776 44.8419 92.395 44.8955 92.4125 44.9485C92.4463 45.0556 92.4824 45.1622 92.5191 45.2683C92.5372 45.3213 92.5552 45.3743 92.5739 45.4273C92.6108 45.5333 92.6496 45.6391 92.6904 45.7448C92.7212 45.8298 92.7527 45.9149 92.7842 45.9993C96.2891 55.2746 105.317 61.5995 115.38 61.6C115.717 61.6 116.053 61.5931 116.387 61.5791C116.627 61.5675 116.859 61.4875 117.055 61.3484C117.251 61.2094 117.404 61.0172 117.494 60.7944L117.614 60.5032L118.313 58.8017L123.184 46.9837L115.532 28.248H119.993L125.447 41.9713L130.864 28.248H135.079L122.211 59.5741L121.512 61.2762L121.101 62.2752C120.726 63.1882 120.098 63.9749 119.29 64.5426C118.483 65.1103 117.53 65.4352 116.544 65.479C116.156 65.4945 115.767 65.5025 115.379 65.5028H115.372C103.687 65.4999 93.203 58.1522 89.1307 47.3769C89.1126 47.3321 89.0963 47.2872 89.08 47.2418C88.9786 46.9698 88.8808 46.6954 88.7887 46.4193C88.7701 46.3645 88.752 46.3092 88.734 46.2544C88.6221 45.9162 88.5167 45.5745 88.4177 45.2292C87.6974 42.7171 87.3333 40.1162 87.336 37.5029C87.336 23.0368 98.1945 11.057 112.594 9.63915C113.52 9.54712 114.454 9.5011 115.39 9.5011C127.506 9.5011 138.062 17.0795 141.936 28.4513C142.001 28.6408 142.064 28.8311 142.124 29.0221L142.198 29.2551C142.201 29.2679 142.205 29.2807 142.209 29.2936C143.022 31.953 143.433 34.719 143.429 37.4999Z" fill="#B0D0E7"/>
<path d="M118.311 58.798L117.61 60.4995H117.609L118.311 58.798Z" fill="#B0D0E7"/>
<path d="M122.213 59.5746L121.512 61.2761L122.211 59.574L122.213 59.5746Z" fill="#B0D0E7"/>
</g>
<defs>
<clipPath id="clip0_4901_27157">
<rect width="56.0944" height="56" fill="white" transform="translate(87.334 9.5)"/>
</clipPath>
</defs>
</svg>
