<svg width="37" height="55" viewBox="0 0 37 55" fill="none" xmlns="http://www.w3.org/2000/svg">
<g clip-path="url(#clip0_1309_48312)">
<path d="M18.5684 27.7169C18.5682 25.947 19.0929 24.2168 20.0761 22.7451C21.0593 21.2735 22.4568 20.1264 24.0919 19.449C25.727 18.7716 27.5263 18.5942 29.2622 18.9394C30.9981 19.2846 32.5926 20.1368 33.8442 21.3883C35.0957 22.6397 35.9481 24.2342 36.2934 25.9701C36.6388 27.7059 36.4616 29.5052 35.7843 31.1404C35.1071 32.7756 33.9601 34.1732 32.4885 35.1565C31.0169 36.1398 29.2868 36.6646 27.5169 36.6646C22.5858 36.6646 18.5684 32.6472 18.5684 27.7169Z" fill="#B0D0E7"/>
<path d="M0.693359 45.5923C0.693773 43.2193 1.63661 40.9437 3.31455 39.2657C4.99249 37.5878 7.26814 36.6449 9.64111 36.6445H18.5889V45.5923C18.5889 47.9654 17.6461 50.2413 15.9681 51.9193C14.2901 53.5973 12.0142 54.54 9.64111 54.54C7.26802 54.54 4.99212 53.5973 3.31409 51.9193C1.63607 50.2413 0.693359 47.9654 0.693359 45.5923Z" fill="#B0D0E7"/>
<path d="M18.5684 0.893317V18.7693H27.5169C29.8756 18.7473 32.1302 17.7949 33.7904 16.1191C35.4505 14.4434 36.3819 12.18 36.3819 9.82118C36.3819 7.46235 35.4505 5.19893 33.7904 3.52322C32.1302 1.84751 29.8756 0.895064 27.5169 0.873047H18.5684V0.893317Z" fill="#B0D0E7"/>
<path d="M0.693367 9.84209C0.69378 12.2151 1.63662 14.4907 3.31456 16.1686C4.9925 17.8466 7.26815 18.7894 9.64111 18.7898H18.5889V0.893561H9.64111C8.46561 0.892125 7.30137 1.12261 6.21508 1.57182C5.12879 2.02102 4.14179 2.68012 3.31062 3.51137C2.47945 4.34261 1.82044 5.32967 1.37132 6.41599C0.922212 7.50232 0.691828 8.66658 0.693367 9.84209Z" fill="#B0D0E7"/>
<path d="M0.693359 27.7173C0.693773 30.0902 1.63661 32.3659 3.31455 34.0438C4.99249 35.7218 7.26814 36.6646 9.64111 36.665H18.5889V18.7695H9.64111C7.26814 18.7699 4.99249 19.7128 3.31455 21.3907C1.63661 23.0687 0.693773 25.3443 0.693359 27.7173Z" fill="#B0D0E7"/>
</g>
<defs>
<clipPath id="clip0_1309_48312">
<rect width="35.7715" height="53.667" fill="white" transform="translate(0.693359 0.873047)"/>
</clipPath>
</defs>
</svg>
