<svg width="231" height="75" viewBox="0 0 231 75" fill="none" xmlns="http://www.w3.org/2000/svg">
<g clip-path="url(#clip0_4603_78709)">
<path d="M57.703 10.5564C56.8339 11.0753 55.3897 12.5195 53.6829 14.6077L55.2584 17.59C56.2791 16.1024 57.4053 14.6899 58.6282 13.3636L58.7596 13.2198C58.722 13.2698 58.672 13.3136 58.6282 13.3636C57.4636 14.7086 56.4058 16.1426 55.4647 17.6525C57.5211 17.5058 59.5683 17.2512 61.598 16.8897C62.2232 13.5074 61.0103 11.9631 61.0103 11.9631C61.0103 11.9631 59.4848 9.49977 57.703 10.5564Z" fill="#B0D0E7"/>
<mask id="mask0_4603_78709" style="mask-type:luminance" maskUnits="userSpaceOnUse" x="53" y="10" width="9" height="8">
<path d="M57.7028 10.5574C56.8338 11.0763 55.3895 12.5205 53.6827 14.6087L55.2582 17.591C56.2789 16.1033 57.4051 14.6909 58.6281 13.3645L58.7594 13.2207C58.7219 13.2708 58.6719 13.3145 58.6281 13.3645C57.4634 14.7096 56.4057 16.1436 55.4645 17.6535C57.5209 17.5068 59.5682 17.2522 61.5978 16.8907C62.2231 13.5083 61.0102 11.9641 61.0102 11.9641C61.0102 11.9641 59.4846 9.50075 57.7028 10.5574Z" fill="white"/>
</mask>
<g mask="url(#mask0_4603_78709)">
<path d="M53.6765 10.901L53.8766 10.8447L55.771 17.6533H53.6765V10.901Z" fill="#B0D0E7"/>
<path d="M53.8767 10.8449L55.6835 10.3447L57.7155 17.6534H55.7711L53.8767 10.8449Z" fill="#B0D0E7"/>
<path d="M55.6834 10.3449L57.484 9.84473L59.6535 17.6473L59.6223 17.6536H57.7154L55.6834 10.3449Z" fill="#B0D0E7"/>
<path d="M57.6668 9.78275L57.4861 9.83301L59.6552 17.6335L59.836 17.5832L57.6668 9.78275Z" fill="#B0D0E7"/>
<path d="M57.8408 9.731L57.6601 9.78125L59.8293 17.5817L60.01 17.5315L57.8408 9.731Z" fill="#B0D0E7"/>
<path d="M58.0208 9.67924L57.8401 9.72949L60.0093 17.53L60.19 17.4797L58.0208 9.67924Z" fill="#B0D0E7"/>
<path d="M58.1949 9.63334L58.0142 9.68359L60.1833 17.4841L60.364 17.4338L58.1949 9.63334Z" fill="#B0D0E7"/>
<path d="M58.3813 9.58061L58.2006 9.63086L60.3698 17.4313L60.5505 17.3811L58.3813 9.58061Z" fill="#B0D0E7"/>
<path d="M58.5611 9.53276L58.3804 9.58301L60.5495 17.3835L60.7302 17.3332L58.5611 9.53276Z" fill="#B0D0E7"/>
<path d="M58.5594 9.54474L58.7095 9.50098H58.7408L60.904 17.2973L60.7289 17.3474L58.5594 9.54474Z" fill="#B0D0E7"/>
<path d="M58.9344 9.50098L61.0852 17.2473L60.9039 17.2973L58.7406 9.50098H58.9344Z" fill="#B0D0E7"/>
<path d="M59.1221 9.50098L61.2666 17.1973L61.0853 17.2473L58.9345 9.50098H59.1221Z" fill="#B0D0E7"/>
<path d="M59.3158 9.50098L61.4415 17.1473L61.2664 17.1973L59.122 9.50098H59.3158Z" fill="#B0D0E7"/>
<path d="M59.5097 9.50098L61.6229 17.0973L61.4416 17.1473L59.3159 9.50098H59.5097Z" fill="#B0D0E7"/>
<path d="M59.7036 9.50098L61.7981 17.0473L61.623 17.0973L59.5098 9.50098H59.7036Z" fill="#B0D0E7"/>
<path d="M59.8973 9.50098L61.9792 16.9972L61.7979 17.0473L59.7035 9.50098H59.8973Z" fill="#B0D0E7"/>
<path d="M60.0912 9.50098L62.1606 16.9472L61.9793 16.9972L59.8974 9.50098H60.0912Z" fill="#B0D0E7"/>
<path d="M60.2786 9.50098L62.2042 16.4158V16.9347L62.1605 16.9472L60.091 9.50098H60.2786Z" fill="#B0D0E7"/>
<path d="M60.4725 9.50098L62.2044 15.7218V16.4158L60.2787 9.50098H60.4725Z" fill="#B0D0E7"/>
<path d="M60.6664 9.50098L62.2045 15.0278V15.7218L60.4726 9.50098H60.6664Z" fill="#B0D0E7"/>
<path d="M60.8601 9.50098L62.2043 14.3338V15.0278L60.6663 9.50098H60.8601Z" fill="#B0D0E7"/>
<path d="M61.054 9.50098L62.2044 13.6461V14.3338L60.8602 9.50098H61.054Z" fill="#B0D0E7"/>
<path d="M61.2417 9.50098L62.2045 12.9521V13.6461L61.0541 9.50098H61.2417Z" fill="#B0D0E7"/>
<path d="M61.4354 9.50098L62.2044 12.2581V12.9521L61.2415 9.50098H61.4354Z" fill="#B0D0E7"/>
<path d="M61.629 9.50098L62.2042 11.5642V12.2581L61.4352 9.50098H61.629Z" fill="#B0D0E7"/>
<path d="M61.8229 9.50098L62.2043 10.8702V11.5642L61.6291 9.50098H61.8229Z" fill="#B0D0E7"/>
</g>
<path d="M55.052 27.5371H55.0207C54.95 27.5436 54.8788 27.5436 54.8081 27.5371H55.052Z" fill="#B0D0E7"/>
<path d="M42.4791 44.8432C42.4791 44.7994 42.4791 44.7494 42.5291 44.7056L43.5607 42.0297C43.9421 41.0607 44.3235 40.1103 44.6924 39.1913C45.0612 38.2722 45.4801 37.3157 45.8615 36.4029C46.2429 35.49 46.6555 34.5272 47.0431 33.6707C47.362 32.958 47.6684 32.2702 47.981 31.595C48.0872 31.3699 48.1873 31.1511 48.2936 30.9698C48.4999 30.5384 48.6937 30.1132 48.9188 29.7194C49.1439 29.3255 49.2814 28.9691 49.4565 28.594C49.519 28.4752 49.5815 28.3502 49.6315 28.2376L49.6628 28.1751H49.469L49.3127 27.875L49.2689 27.9688C48.9938 28.5127 48.7125 29.0754 48.4436 29.6381C48.2936 29.9569 48.1373 30.2633 47.9747 30.6197C47.5371 31.5262 47.1182 32.4328 46.7243 33.3581C46.3304 34.2834 45.8865 35.2337 45.4739 36.1528C45.0612 37.0718 44.6924 37.9909 44.311 38.9037C43.9296 39.8165 43.5545 40.7293 43.1981 41.6359C42.8417 42.5424 42.4416 43.5115 42.0915 44.4493C42.0102 44.6556 41.9289 44.8744 41.8539 45.0745C41.5663 45.8248 41.2912 46.5563 41.0224 47.2877L41.2662 47.7754H41.485C41.4898 47.7548 41.4898 47.7335 41.485 47.7129C41.7726 46.6875 42.1228 45.7497 42.4791 44.8432Z" fill="#B0D0E7"/>
<path d="M52.3886 35.5645C52.1885 35.6082 51.9822 35.6395 51.7634 35.6707L52.0822 35.6145C52.1855 35.6055 52.2879 35.5888 52.3886 35.5645Z" fill="#B0D0E7"/>
<g opacity="0.35">
<path d="M52.3886 35.5645C52.1885 35.6082 51.9822 35.6395 51.7634 35.6707L52.0822 35.6145C52.1855 35.6055 52.2879 35.5888 52.3886 35.5645Z" fill="#B0D0E7"/>
</g>
<path d="M52.9262 32.9574H53.02C53.1523 32.9411 53.2838 32.9182 53.4139 32.8887L52.9262 32.9699V32.9574Z" fill="#B0D0E7"/>
<g opacity="0.35">
<path d="M52.9262 32.9574H53.02C53.1523 32.9411 53.2838 32.9182 53.4139 32.8887L52.9262 32.9699V32.9574Z" fill="#B0D0E7"/>
</g>
<path d="M50.6069 25.2995C51.0883 24.3992 51.576 23.5239 52.0574 22.6673C52.5388 21.8108 53.0765 20.9293 53.6016 20.0915L53.6954 19.9477C54.2143 19.1349 54.727 18.3534 55.2522 17.5969L53.6704 14.6084L53.3078 15.0523C52.8576 15.6212 52.3825 16.2277 51.8948 16.8779C51.4072 17.5281 50.7945 18.3847 50.2193 19.1974C49.6441 20.0102 49.1564 20.7417 48.6187 21.5607C48.1686 22.261 47.7122 22.9674 47.2558 23.7052C47.2558 23.7052 47.2558 23.7552 47.2057 23.7865L49.2564 27.8378C49.7128 26.9813 50.1567 26.1248 50.6069 25.2995Z" fill="#B0D0E7"/>
<mask id="mask1_4603_78709" style="mask-type:luminance" maskUnits="userSpaceOnUse" x="47" y="14" width="9" height="14">
<path d="M50.6064 25.2975C51.0878 24.3972 51.5754 23.5219 52.0569 22.6654C52.5383 21.8089 53.076 20.9273 53.6011 20.0895L53.6949 19.9457C54.2138 19.133 54.7265 18.3514 55.2517 17.5949L53.6699 14.6064L53.3073 15.0503C52.8571 15.6193 52.382 16.2257 51.8943 16.876C51.4066 17.5262 50.7939 18.3827 50.2187 19.1955C49.6436 20.0083 49.1559 20.7397 48.6182 21.5588C48.1681 22.259 47.7117 22.9655 47.2553 23.7032C47.2553 23.7032 47.2552 23.7533 47.2052 23.7845L49.2559 27.8359C49.7123 26.9793 50.1562 26.1228 50.6064 25.2975Z" fill="white"/>
</mask>
<g mask="url(#mask1_4603_78709)">
<path d="M47.2052 27.7988L47.2816 27.837H47.2052V27.7988Z" fill="#B0D0E7"/>
<path d="M47.2052 27.6182L47.6679 27.837H47.2803L47.2052 27.7995V27.6182Z" fill="#B0D0E7"/>
<path d="M47.2052 27.4424L48.0555 27.8363H47.6679L47.2052 27.6174V27.4424Z" fill="#B0D0E7"/>
<path d="M47.2052 27.2617L48.4369 27.8369H48.0555L47.2052 27.443V27.2617Z" fill="#B0D0E7"/>
<path d="M47.2052 27.0801L48.8245 27.8366H48.4369L47.2052 27.2614V27.0801Z" fill="#B0D0E7"/>
<path d="M47.2052 26.9053L49.2059 27.8368H48.8245L47.2052 27.0803V26.9053Z" fill="#B0D0E7"/>
<path d="M47.2052 26.7246L49.5935 27.8375H49.2059L47.2052 26.9059V26.7246Z" fill="#B0D0E7"/>
<path d="M47.2052 26.542L49.9812 27.8362H49.5935L47.2052 26.7233V26.542Z" fill="#B0D0E7"/>
<path d="M47.2052 26.3604L50.3625 27.8358H49.9812L47.2052 26.5417V26.3604Z" fill="#B0D0E7"/>
<path d="M47.2052 26.1855L50.7001 27.8111L50.6876 27.8361H50.3625L47.2052 26.3606V26.1855Z" fill="#B0D0E7"/>
<path d="M47.2052 26.0039L50.7689 27.667L50.7001 27.8108L47.2052 26.1852V26.0039Z" fill="#B0D0E7"/>
<path d="M47.2052 25.8232L50.8377 27.5176L50.7689 27.6676L47.2052 26.0046V25.8232Z" fill="#B0D0E7"/>
<path d="M47.2052 25.6484L50.9065 27.374L50.8377 27.5178L47.2052 25.8235V25.6484Z" fill="#B0D0E7"/>
<path d="M47.2052 25.4668L50.9752 27.2236L50.9065 27.3737L47.2052 25.6481V25.4668Z" fill="#B0D0E7"/>
<path d="M47.2052 25.2861L51.044 27.0742L50.9752 27.2243L47.2052 25.4674V25.2861Z" fill="#B0D0E7"/>
<path d="M47.2052 25.1045L51.1128 26.9301L51.044 27.0739L47.2052 25.2858V25.1045Z" fill="#B0D0E7"/>
<path d="M47.2052 24.9297L51.1816 26.7803L51.1128 26.9304L47.2052 25.1047V24.9297Z" fill="#B0D0E7"/>
<path d="M47.2052 24.748L51.2503 26.6362L51.1816 26.78L47.2052 24.9294V24.748Z" fill="#B0D0E7"/>
<path d="M47.2052 24.5674L51.3191 26.4868L51.2503 26.6368L47.2052 24.7487V24.5674Z" fill="#B0D0E7"/>
<path d="M47.2052 24.3916L51.3879 26.3423L51.3191 26.4861L47.2052 24.5667V24.3916Z" fill="#B0D0E7"/>
<path d="M47.2052 24.21L51.4567 26.1919L51.3879 26.3419L47.2052 24.3913V24.21Z" fill="#B0D0E7"/>
<path d="M47.2052 24.0293L51.5254 26.0425L51.4567 26.1925L47.2052 24.2106V24.0293Z" fill="#B0D0E7"/>
<path d="M47.2052 23.8467L51.5942 25.8974L51.5254 26.0412L47.2052 24.028V23.8467Z" fill="#B0D0E7"/>
<path d="M47.2052 23.6729L51.663 25.7485L51.5942 25.8986L47.2052 23.8479V23.6729Z" fill="#B0D0E7"/>
<path d="M47.2052 23.4912L51.7317 25.6044L51.663 25.7482L47.2052 23.6725V23.4912Z" fill="#B0D0E7"/>
<path d="M47.2052 23.3096L51.8005 25.454L51.7317 25.6041L47.2052 23.4909V23.3096Z" fill="#B0D0E7"/>
<path d="M47.2052 23.2967L47.2678 23.1592L51.8693 25.3099L51.8005 25.4537L47.2052 23.3092V23.2967Z" fill="#B0D0E7"/>
<path d="M47.3403 23.0148L47.2716 23.1621L51.8727 25.3076L51.9414 25.1603L47.3403 23.0148Z" fill="#B0D0E7"/>
<path d="M47.4084 22.8644L47.3397 23.0117L51.9407 25.1572L52.0094 25.0099L47.4084 22.8644Z" fill="#B0D0E7"/>
<path d="M47.4822 22.7228L47.4135 22.8701L52.0146 25.0156L52.0833 24.8683L47.4822 22.7228Z" fill="#B0D0E7"/>
<path d="M47.5441 22.5724L47.4754 22.7197L52.0764 24.8652L52.1451 24.7179L47.5441 22.5724Z" fill="#B0D0E7"/>
<path d="M47.6124 22.4269L47.5437 22.5742L52.1447 24.7197L52.2134 24.5724L47.6124 22.4269Z" fill="#B0D0E7"/>
<path d="M47.6859 22.2794L47.6172 22.4268L52.2183 24.5723L52.287 24.425L47.6859 22.2794Z" fill="#B0D0E7"/>
<path d="M47.7543 22.1281L47.6856 22.2754L52.2866 24.4209L52.3553 24.2736L47.7543 22.1281Z" fill="#B0D0E7"/>
<path d="M47.8216 21.9865L47.7529 22.1338L52.354 24.2793L52.4227 24.132L47.8216 21.9865Z" fill="#B0D0E7"/>
<path d="M47.8899 21.8361L47.8212 21.9834L52.4223 24.1289L52.491 23.9816L47.8899 21.8361Z" fill="#B0D0E7"/>
<path d="M47.9637 21.6876L47.8951 21.835L52.4961 23.9805L52.5648 23.8332L47.9637 21.6876Z" fill="#B0D0E7"/>
<path d="M48.0318 21.5431L47.9631 21.6904L52.5642 23.8359L52.6329 23.6886L48.0318 21.5431Z" fill="#B0D0E7"/>
<path d="M48.0937 21.3917L48.025 21.5391L52.626 23.6846L52.6947 23.5373L48.0937 21.3917Z" fill="#B0D0E7"/>
<path d="M48.1675 21.2443L48.0988 21.3916L52.6998 23.5371L52.7685 23.3898L48.1675 21.2443Z" fill="#B0D0E7"/>
<path d="M48.2355 21.0998L48.1668 21.2471L52.7679 23.3926L52.8366 23.2453L48.2355 21.0998Z" fill="#B0D0E7"/>
<path d="M48.3031 20.9513L48.2344 21.0986L52.8355 23.2441L52.9042 23.0968L48.3031 20.9513Z" fill="#B0D0E7"/>
<path d="M48.3712 20.8009L48.3025 20.9482L52.9036 23.0937L52.9723 22.9464L48.3712 20.8009Z" fill="#B0D0E7"/>
<path d="M48.4395 20.6564L48.3708 20.8037L52.9719 22.9492L53.0406 22.8019L48.4395 20.6564Z" fill="#B0D0E7"/>
<path d="M48.5131 20.508L48.4444 20.6553L53.0454 22.8008L53.1141 22.6535L48.5131 20.508Z" fill="#B0D0E7"/>
<path d="M48.5752 20.3576L48.5065 20.5049L53.1076 22.6504L53.1763 22.5031L48.5752 20.3576Z" fill="#B0D0E7"/>
<path d="M48.6488 20.216L48.5801 20.3633L53.1811 22.5088L53.2498 22.3615L48.6488 20.216Z" fill="#B0D0E7"/>
<path d="M48.7171 20.0646L48.6484 20.2119L53.2494 22.3574L53.3181 22.2101L48.7171 20.0646Z" fill="#B0D0E7"/>
<path d="M48.7907 19.9171L48.722 20.0645L53.323 22.21L53.3917 22.0626L48.7907 19.9171Z" fill="#B0D0E7"/>
<path d="M48.8525 19.7726L48.7838 19.9199L53.3849 22.0654L53.4536 21.9181L48.8525 19.7726Z" fill="#B0D0E7"/>
<path d="M48.9208 19.6212L48.8521 19.7686L53.4532 21.9141L53.5219 21.7667L48.9208 19.6212Z" fill="#B0D0E7"/>
<path d="M48.9946 19.4806L48.9259 19.6279L53.527 21.7734L53.5957 21.6261L48.9946 19.4806Z" fill="#B0D0E7"/>
<path d="M49.0565 19.3283L48.9878 19.4756L53.5888 21.6211L53.6575 21.4738L49.0565 19.3283Z" fill="#B0D0E7"/>
<path d="M49.1303 19.1808L49.0616 19.3281L53.6627 21.4736L53.7314 21.3263L49.1303 19.1808Z" fill="#B0D0E7"/>
<path d="M49.1984 19.0363L49.1297 19.1836L53.7307 21.3291L53.7994 21.1818L49.1984 19.0363Z" fill="#B0D0E7"/>
<path d="M49.2664 18.8859L49.1978 19.0332L53.7988 21.1787L53.8675 21.0314L49.2664 18.8859Z" fill="#B0D0E7"/>
<path d="M49.3341 18.7374L49.2654 18.8848L53.8664 21.0303L53.9351 20.8829L49.3341 18.7374Z" fill="#B0D0E7"/>
<path d="M49.4023 18.5919L49.3336 18.7393L53.9347 20.8848L54.0034 20.7375L49.4023 18.5919Z" fill="#B0D0E7"/>
<path d="M49.4759 18.4445L49.4072 18.5918L54.0083 20.7373L54.077 20.59L49.4759 18.4445Z" fill="#B0D0E7"/>
<path d="M49.538 18.2941L49.4693 18.4414L54.0704 20.5869L54.139 20.4396L49.538 18.2941Z" fill="#B0D0E7"/>
<path d="M49.6116 18.1525L49.5429 18.2998L54.144 20.4453L54.2127 20.298L49.6116 18.1525Z" fill="#B0D0E7"/>
<path d="M49.6799 18.0021L49.6112 18.1494L54.2123 20.2949L54.281 20.1476L49.6799 18.0021Z" fill="#B0D0E7"/>
<path d="M49.748 17.8517L49.6793 17.999L54.2803 20.1445L54.349 19.9972L49.748 17.8517Z" fill="#B0D0E7"/>
<path d="M49.8155 17.7082L49.7469 17.8555L54.3479 20.001L54.4166 19.8537L49.8155 17.7082Z" fill="#B0D0E7"/>
<path d="M49.8836 17.5577L49.8149 17.7051L54.416 19.8506L54.4847 19.7033L49.8836 17.5577Z" fill="#B0D0E7"/>
<path d="M49.9575 17.4103L49.8888 17.5576L54.4898 19.7031L54.5585 19.5558L49.9575 17.4103Z" fill="#B0D0E7"/>
<path d="M50.0255 17.2658L49.9568 17.4131L54.5579 19.5586L54.6266 19.4113L50.0255 17.2658Z" fill="#B0D0E7"/>
<path d="M50.0874 17.1154L50.0187 17.2627L54.6197 19.4082L54.6884 19.2609L50.0874 17.1154Z" fill="#B0D0E7"/>
<path d="M50.1612 16.9669L50.0925 17.1143L54.6936 19.2598L54.7623 19.1124L50.1612 16.9669Z" fill="#B0D0E7"/>
<path d="M50.2295 16.8224L50.1608 16.9697L54.7618 19.1152L54.8305 18.9679L50.2295 16.8224Z" fill="#B0D0E7"/>
<path d="M50.2969 16.674L50.2281 16.8213L54.8292 18.9668L54.8979 18.8195L50.2969 16.674Z" fill="#B0D0E7"/>
<path d="M50.3652 16.5304L50.2965 16.6777L54.8975 18.8232L54.9662 18.6759L50.3652 16.5304Z" fill="#B0D0E7"/>
<path d="M50.4388 16.382L50.3701 16.5293L54.9711 18.6748L55.0398 18.5275L50.4388 16.382Z" fill="#B0D0E7"/>
<path d="M50.5068 16.2296L50.4381 16.377L55.0392 18.5225L55.1079 18.3751L50.5068 16.2296Z" fill="#B0D0E7"/>
<path d="M50.5689 16.0861L50.5002 16.2334L55.1013 18.3789L55.17 18.2316L50.5689 16.0861Z" fill="#B0D0E7"/>
<path d="M50.6425 15.9376L50.5738 16.085L55.1748 18.2305L55.2435 18.0831L50.6425 15.9376Z" fill="#B0D0E7"/>
<path d="M50.6375 15.9391L50.7063 15.7891L55.2453 17.9085V18.0711L55.2391 18.0836L50.6375 15.9391Z" fill="#B0D0E7"/>
<path d="M50.7063 15.7877L50.7751 15.6377L55.2454 17.7259V17.9072L50.7063 15.7877Z" fill="#B0D0E7"/>
<path d="M50.7751 15.6389L50.8439 15.4951L55.2454 17.5458V17.7271L50.7751 15.6389Z" fill="#B0D0E7"/>
<path d="M50.8439 15.4948L50.9127 15.3447L55.2454 17.3704V17.5455L50.8439 15.4948Z" fill="#B0D0E7"/>
<path d="M50.9127 15.3448L51.2566 14.6133H55.2454V17.3705L50.9127 15.3448Z" fill="#B0D0E7"/>
</g>
<path d="M41.2287 48.1311C40.9598 48.8751 40.6848 49.6379 40.4159 50.4194C40.3784 50.5319 40.3346 50.632 40.3034 50.7508L39.5969 52.8202C40.2896 53.2709 40.8301 53.9203 41.1474 54.6833C41.1045 53.8105 40.7179 52.99 40.072 52.4013C43.0543 52.5389 45.6301 51.7761 46.9493 49.6004C47.0619 49.4066 47.1744 49.2003 47.2807 48.9752C46.6555 49.7379 45.9303 50.0693 44.5173 49.988C46.5867 49.0565 47.6433 48.1624 48.5499 46.6869C48.7624 46.3368 48.9813 45.9554 49.1751 45.5303C48.4153 46.3685 47.4496 46.9935 46.3737 47.3433C45.2979 47.6932 44.1493 47.7557 43.0418 47.5247L41.385 47.706C41.3537 47.8498 41.3037 47.9873 41.2287 48.1311Z" fill="#B0D0E7"/>
<mask id="mask2_4603_78709" style="mask-type:luminance" maskUnits="userSpaceOnUse" x="39" y="45" width="11" height="10">
<path d="M41.2288 48.1311C40.9599 48.8751 40.6848 49.6379 40.416 50.4194C40.3785 50.5319 40.3347 50.632 40.3035 50.7508L39.597 52.8202C40.2897 53.2709 40.8302 53.9203 41.1475 54.6833C41.1046 53.8105 40.718 52.99 40.0721 52.4013C43.0544 52.5389 45.6302 51.7761 46.9494 49.6004C47.062 49.4066 47.1745 49.2003 47.2808 48.9752C46.6556 49.7379 45.9304 50.0693 44.5174 49.988C46.5868 49.0565 47.6434 48.1624 48.55 46.6869C48.7625 46.3368 48.9814 45.9554 49.1752 45.5303C48.4154 46.3685 47.4497 46.9935 46.3738 47.3433C45.298 47.6932 44.1493 47.7557 43.0419 47.5247L41.3851 47.706C41.3538 47.8498 41.3038 47.9873 41.2288 48.1311Z" fill="white"/>
</mask>
<g mask="url(#mask2_4603_78709)">
<path d="M39.5968 54.3271L40.3533 54.6773H39.5968V54.3271Z" fill="#B0D0E7"/>
<path d="M39.5968 53.877L41.3099 54.6772H40.3533L39.5968 54.3271V53.877Z" fill="#B0D0E7"/>
<path d="M39.5968 53.4336L42.2602 54.6778H41.3099L39.5968 53.8775V53.4336Z" fill="#B0D0E7"/>
<path d="M39.5968 52.9893L43.2168 54.6773H42.2602L39.5968 53.4332V52.9893Z" fill="#B0D0E7"/>
<path d="M39.5968 52.5459L44.1671 54.6779H43.2168L39.5968 52.9898V52.5459Z" fill="#B0D0E7"/>
<path d="M39.5968 52.1016L45.1237 54.6774H44.1671L39.5968 52.5455V52.1016Z" fill="#B0D0E7"/>
<path d="M39.5968 51.6572L45.3237 54.3269L45.1612 54.677H45.1237L39.5968 52.1011V51.6572Z" fill="#B0D0E7"/>
<path d="M39.5968 51.2139L45.4925 53.9648L45.3237 54.3274L39.5968 51.6578V51.2139Z" fill="#B0D0E7"/>
<path d="M39.5968 51.0888L39.7218 50.8262L45.6613 53.5958L45.4925 53.9647L39.5968 51.2138V51.0888Z" fill="#B0D0E7"/>
<path d="M39.8944 50.4635L39.7253 50.8262L45.6693 53.5979L45.8384 53.2353L39.8944 50.4635Z" fill="#B0D0E7"/>
<path d="M40.0629 50.0983L39.8938 50.4609L45.8377 53.2327L46.0068 52.87L40.0629 50.0983Z" fill="#B0D0E7"/>
<path d="M40.2307 49.736L40.0616 50.0986L46.0055 52.8704L46.1746 52.5077L40.2307 49.736Z" fill="#B0D0E7"/>
<path d="M40.4049 49.3737L40.2358 49.7363L46.1798 52.508L46.3489 52.1454L40.4049 49.3737Z" fill="#B0D0E7"/>
<path d="M40.5761 49.0036L40.407 49.3662L46.3509 52.1379L46.52 51.7753L40.5761 49.0036Z" fill="#B0D0E7"/>
<path d="M40.7438 48.6403L40.5747 49.0029L46.5187 51.7746L46.6878 51.412L40.7438 48.6403Z" fill="#B0D0E7"/>
<path d="M40.9123 48.2751L40.7432 48.6377L46.6872 51.4094L46.8563 51.0468L40.9123 48.2751Z" fill="#B0D0E7"/>
<path d="M41.0863 47.9127L40.9172 48.2754L46.8612 51.0471L47.0303 50.6845L41.0863 47.9127Z" fill="#B0D0E7"/>
<path d="M41.2568 47.5446L41.0876 47.9072L47.0316 50.6789L47.2007 50.3163L41.2568 47.5446Z" fill="#B0D0E7"/>
<path d="M41.425 47.1793L41.2559 47.542L47.1999 50.3137L47.369 49.9511L41.425 47.1793Z" fill="#B0D0E7"/>
<path d="M41.5993 46.8171L41.4302 47.1797L47.3741 49.9514L47.5432 49.5888L41.5993 46.8171Z" fill="#B0D0E7"/>
<path d="M41.7613 46.4518L41.5922 46.8145L47.5362 49.5862L47.7053 49.2235L41.7613 46.4518Z" fill="#B0D0E7"/>
<path d="M41.9382 46.0836L41.7691 46.4463L47.713 49.218L47.8822 48.8554L41.9382 46.0836Z" fill="#B0D0E7"/>
<path d="M42.1122 45.7204L41.9431 46.083L47.8871 48.8547L48.0562 48.4921L42.1122 45.7204Z" fill="#B0D0E7"/>
<path d="M42.1039 45.7122L42.1914 45.5371H42.6729L48.2185 48.1192L48.0497 48.4881L42.1039 45.7122Z" fill="#B0D0E7"/>
<path d="M43.623 45.5371L48.3871 47.7566L48.2183 48.1192L42.6727 45.5371H43.623Z" fill="#B0D0E7"/>
<path d="M44.5796 45.5371L48.5559 47.3877L48.3871 47.7566L43.623 45.5371H44.5796Z" fill="#B0D0E7"/>
<path d="M45.53 45.5371L48.7248 47.0251L48.556 47.3877L44.5797 45.5371H45.53Z" fill="#B0D0E7"/>
<path d="M46.4866 45.5371L48.8999 46.6625L48.7248 47.0251L45.53 45.5371H46.4866Z" fill="#B0D0E7"/>
<path d="M47.4369 45.5371L49.0687 46.2936L48.8999 46.6625L46.4866 45.5371H47.4369Z" fill="#B0D0E7"/>
<path d="M48.3935 45.5371L49.1938 45.9122V46.0248L49.0687 46.2936L47.437 45.5371H48.3935Z" fill="#B0D0E7"/>
<path d="M49.1938 45.9122L48.3935 45.5371H49.1938V45.9122Z" fill="#B0D0E7"/>
</g>
<path d="M42.0232 44.4124L43.1235 41.5989C43.4862 40.6861 43.855 39.7796 44.2364 38.8668C44.6178 37.954 45.0117 37.0286 45.4055 36.1096C45.7994 35.1905 46.2183 34.234 46.656 33.3212C47.0936 32.4084 47.5 31.483 47.9064 30.5765C48.0627 30.2451 48.219 29.9513 48.3815 29.6012C48.6504 29.0447 48.9317 28.482 49.2068 27.9256C49.2068 27.9256 49.2381 27.8693 49.2506 27.8381L47.2186 23.793C47.1878 23.852 47.1522 23.9084 47.1124 23.9618C46.6435 24.7433 46.1558 25.5373 45.6932 26.3501C45.2305 27.1628 44.7553 28.0131 44.2989 28.8509C43.9176 29.5762 43.5487 30.2951 43.1798 31.0266C43.1048 31.1704 43.036 31.3267 42.961 31.4705C42.5171 32.3896 42.1044 33.2836 41.7418 34.1402C41.3292 35.1093 40.9728 36.0158 40.6539 36.9161C40.4476 37.4913 40.2476 38.0477 40.0725 38.5854C39.8975 39.1231 39.7974 39.5045 39.6599 39.9546C39.3535 41.03 39.0972 42.0991 38.8784 43.1682L40.9416 47.2446C41.2104 46.5131 41.498 45.7816 41.7731 45.0251C41.8544 44.8313 41.9419 44.6249 42.0232 44.4124Z" fill="#B0D0E7"/>
<mask id="mask3_4603_78709" style="mask-type:luminance" maskUnits="userSpaceOnUse" x="38" y="23" width="12" height="25">
<path d="M42.0228 44.4133L43.1231 41.5999C43.4858 40.6871 43.8546 39.7805 44.236 38.8677C44.6174 37.9549 45.0113 37.0296 45.4051 36.1106C45.799 35.1915 46.2179 34.2349 46.6556 33.3221C47.0932 32.4093 47.4996 31.484 47.906 30.5775C48.0623 30.2461 48.2186 29.9523 48.3811 29.6021C48.65 29.0457 48.9313 28.483 49.2064 27.9266C49.2064 27.9266 49.2377 27.8703 49.2502 27.839L47.2182 23.7939C47.1874 23.853 47.1518 23.9094 47.112 23.9628C46.6431 24.7443 46.1554 25.5383 45.6928 26.3511C45.2301 27.1638 44.7549 28.0141 44.2985 28.8519C43.9172 29.5771 43.5483 30.2961 43.1794 31.0276C43.1044 31.1714 43.0356 31.3277 42.9606 31.4715C42.5167 32.3906 42.1041 33.2846 41.7414 34.1412C41.3288 35.1102 40.9724 36.0168 40.6536 36.9171C40.4472 37.4923 40.2472 38.0487 40.0721 38.5864C39.8971 39.1241 39.797 39.5055 39.6595 39.9556C39.3531 41.031 39.0968 42.1001 38.878 43.1692L40.9412 47.2455C41.21 46.514 41.4976 45.7826 41.7727 45.0261C41.854 44.8322 41.9415 44.6259 42.0228 44.4133Z" fill="white"/>
</mask>
<g mask="url(#mask3_4603_78709)">
<path d="M38.878 46.9883L39.4595 47.2571H38.878V46.9883Z" fill="#B0D0E7"/>
<path d="M38.878 46.5693L40.3535 47.2571H39.4595L38.878 46.9882V46.5693Z" fill="#B0D0E7"/>
<path d="M38.878 46.1504L41.1788 47.2258L41.1663 47.257H40.3535L38.878 46.5693V46.1504Z" fill="#B0D0E7"/>
<path d="M38.878 45.7314L41.3413 46.8818L41.1788 47.2257L38.878 46.1503V45.7314Z" fill="#B0D0E7"/>
<path d="M38.878 45.3125L41.5039 46.5379L41.3413 46.8818L38.878 45.7314V45.3125Z" fill="#B0D0E7"/>
<path d="M38.878 44.8936L41.6602 46.194L41.5039 46.5379L38.878 45.3124V44.8936Z" fill="#B0D0E7"/>
<path d="M38.878 44.4746L41.8228 45.8501L41.6602 46.1939L38.878 44.8935V44.4746Z" fill="#B0D0E7"/>
<path d="M38.878 44.0557L41.9853 45.5061L41.8228 45.85L38.878 44.4746V44.0557Z" fill="#B0D0E7"/>
<path d="M38.878 43.6367L42.1416 45.1622L41.9853 45.5061L38.878 44.0556V43.6367Z" fill="#B0D0E7"/>
<path d="M38.878 43.2168L42.3042 44.8173L42.1416 45.1612L38.878 43.6357V43.2168Z" fill="#B0D0E7"/>
<path d="M38.878 42.7979L42.4667 44.4734L42.3042 44.8173L38.878 43.2167V42.7979Z" fill="#B0D0E7"/>
<path d="M38.878 42.3789L42.623 44.1295L42.4667 44.4734L38.878 42.7978V42.3789Z" fill="#B0D0E7"/>
<path d="M38.878 41.9609L42.7856 43.7866L42.623 44.1304L38.878 42.3798V41.9609Z" fill="#B0D0E7"/>
<path d="M38.878 41.542L42.9419 43.4426L42.7856 43.7865L38.878 41.9609V41.542Z" fill="#B0D0E7"/>
<path d="M38.878 41.123L43.1044 43.0987L42.9419 43.4426L38.878 41.5419V41.123Z" fill="#B0D0E7"/>
<path d="M38.878 40.7041L43.267 42.7548L43.1044 43.0987L38.878 41.123V40.7041Z" fill="#B0D0E7"/>
<path d="M38.878 40.2852L43.4233 42.4109L43.267 42.7547L38.878 40.704V40.2852Z" fill="#B0D0E7"/>
<path d="M38.878 39.8662L43.5858 42.0669L43.4233 42.4108L38.878 40.2851V39.8662Z" fill="#B0D0E7"/>
<path d="M38.878 39.7169L38.9781 39.498L43.7484 41.7238L43.5858 42.0677L38.878 39.8669V39.7169Z" fill="#B0D0E7"/>
<path d="M39.1394 39.1524L38.9782 39.498L43.7436 41.7202L43.9048 41.3745L39.1394 39.1524Z" fill="#B0D0E7"/>
<path d="M39.3028 38.8106L39.1417 39.1562L43.907 41.3784L44.0682 41.0327L39.3028 38.8106Z" fill="#B0D0E7"/>
<path d="M39.4663 38.461L39.3051 38.8066L44.0705 41.0288L44.2317 40.6831L39.4663 38.461Z" fill="#B0D0E7"/>
<path d="M39.6207 38.125L39.4595 38.4707L44.2249 40.6928L44.3861 40.3472L39.6207 38.125Z" fill="#B0D0E7"/>
<path d="M39.7841 37.7755L39.623 38.1211L44.3883 40.3432L44.5495 39.9976L39.7841 37.7755Z" fill="#B0D0E7"/>
<path d="M39.9452 37.4385L39.784 37.7842L44.5494 40.0063L44.7106 39.6607L39.9452 37.4385Z" fill="#B0D0E7"/>
<path d="M40.1022 37.0889L39.941 37.4346L44.7064 39.6567L44.8676 39.311L40.1022 37.0889Z" fill="#B0D0E7"/>
<path d="M40.2657 36.7471L40.1045 37.0928L44.8699 39.3149L45.031 38.9692L40.2657 36.7471Z" fill="#B0D0E7"/>
<path d="M40.4203 36.4043L40.2591 36.75L45.0245 38.9721L45.1857 38.6265L40.4203 36.4043Z" fill="#B0D0E7"/>
<path d="M40.5835 36.0606L40.4223 36.4062L45.1877 38.6284L45.3489 38.2827L40.5835 36.0606Z" fill="#B0D0E7"/>
<path d="M40.747 35.7129L40.5858 36.0586L45.3512 38.2807L45.5123 37.9351L40.747 35.7129Z" fill="#B0D0E7"/>
<path d="M40.9073 35.378L40.7461 35.7236L45.5115 37.9458L45.6727 37.6001L40.9073 35.378Z" fill="#B0D0E7"/>
<path d="M41.0708 35.0293L40.9096 35.375L45.675 37.5971L45.8362 37.2515L41.0708 35.0293Z" fill="#B0D0E7"/>
<path d="M41.2342 34.6856L41.0731 35.0312L45.8384 37.2534L45.9996 36.9077L41.2342 34.6856Z" fill="#B0D0E7"/>
<path d="M41.3888 34.3428L41.2277 34.6885L45.993 36.9106L46.1542 36.565L41.3888 34.3428Z" fill="#B0D0E7"/>
<path d="M41.5521 34.0001L41.3909 34.3457L46.1563 36.5678L46.3174 36.2222L41.5521 34.0001Z" fill="#B0D0E7"/>
<path d="M41.7155 33.6514L41.5544 33.9971L46.3197 36.2192L46.4809 35.8735L41.7155 33.6514Z" fill="#B0D0E7"/>
<path d="M41.8701 33.3135L41.709 33.6592L46.4743 35.8813L46.6355 35.5357L41.8701 33.3135Z" fill="#B0D0E7"/>
<path d="M42.0336 32.9659L41.8724 33.3115L46.6378 35.5337L46.799 35.188L42.0336 32.9659Z" fill="#B0D0E7"/>
<path d="M42.1944 32.628L42.0333 32.9736L46.7986 35.1958L46.9598 34.8501L42.1944 32.628Z" fill="#B0D0E7"/>
<path d="M42.3517 32.2794L42.1905 32.625L46.9559 34.8471L47.117 34.5015L42.3517 32.2794Z" fill="#B0D0E7"/>
<path d="M42.5149 31.9375L42.3537 32.2832L47.1191 34.5053L47.2803 34.1597L42.5149 31.9375Z" fill="#B0D0E7"/>
<path d="M42.6757 31.5938L42.5146 31.9395L47.2799 34.1616L47.4411 33.8159L42.6757 31.5938Z" fill="#B0D0E7"/>
<path d="M42.833 31.251L42.6718 31.5967L47.4372 33.8188L47.5983 33.4732L42.833 31.251Z" fill="#B0D0E7"/>
<path d="M42.9964 30.9014L42.8352 31.2471L47.6006 33.4692L47.7618 33.1236L42.9964 30.9014Z" fill="#B0D0E7"/>
<path d="M43.7066 29.3764L42.9932 30.9062L47.7586 33.1284L48.472 31.5985L43.7066 29.3764Z" fill="#B0D0E7"/>
<path d="M44.4197 27.848L43.7063 29.3779L48.4716 31.6001L49.1851 30.0701L44.4197 27.848Z" fill="#B0D0E7"/>
<path d="M44.4112 27.8501L45.1239 26.3184L49.2441 28.244V29.9258L49.1815 30.0696L44.4112 27.8501Z" fill="#B0D0E7"/>
<path d="M45.1238 26.3185L45.8365 24.793L49.2439 26.381V28.2441L45.1238 26.3185Z" fill="#B0D0E7"/>
<path d="M45.8366 24.7926L45.9054 24.6426L49.244 26.1993V26.3807L45.8366 24.7926Z" fill="#B0D0E7"/>
<path d="M45.9054 24.6428L45.9742 24.499L49.244 26.0245V26.1996L45.9054 24.6428Z" fill="#B0D0E7"/>
<path d="M45.9742 24.4987L46.043 24.3486L49.244 25.8429V26.0242L45.9742 24.4987Z" fill="#B0D0E7"/>
<path d="M46.043 24.3489L46.1117 24.2051L49.244 25.6618V25.8431L46.043 24.3489Z" fill="#B0D0E7"/>
<path d="M46.1118 24.2047L46.1805 24.0547L49.2441 25.4864V25.6615L46.1118 24.2047Z" fill="#B0D0E7"/>
<path d="M46.1803 24.0553L46.2491 23.9053L49.2438 25.3057V25.4871L46.1803 24.0553Z" fill="#B0D0E7"/>
<path d="M46.2493 23.9051L46.2993 23.7988H46.3994L49.2441 25.1243V25.3056L46.2493 23.9051Z" fill="#B0D0E7"/>
<path d="M46.7808 23.7988L49.2441 24.943V25.1243L46.3994 23.7988H46.7808Z" fill="#B0D0E7"/>
<path d="M47.1681 23.7988L49.2438 24.7679V24.943L46.7805 23.7988H47.1681Z" fill="#B0D0E7"/>
<path d="M47.5497 23.7988L49.244 24.5866V24.7679L47.1683 23.7988H47.5497Z" fill="#B0D0E7"/>
<path d="M47.9373 23.7988L49.244 24.4053V24.5866L47.5497 23.7988H47.9373Z" fill="#B0D0E7"/>
<path d="M48.3186 23.7988L49.2439 24.2302V24.4053L47.9372 23.7988H48.3186Z" fill="#B0D0E7"/>
<path d="M48.7064 23.7988L49.2441 24.0489V24.2302L48.3188 23.7988H48.7064Z" fill="#B0D0E7"/>
<path d="M49.0877 23.7988L49.244 23.8676V24.0489L48.7064 23.7988H49.0877Z" fill="#B0D0E7"/>
<path d="M49.2449 23.868L49.0877 23.7988H49.2449V23.868Z" fill="#B0D0E7"/>
</g>
<path d="M38.8467 43.3295C38.5875 44.6156 38.4079 45.9164 38.309 47.2246C38.309 47.2621 38.309 47.3184 38.309 47.3559C37.6582 46.5265 36.8537 45.8303 35.9395 45.3052C37.1899 47.0996 38.1152 48.8752 38.2527 50.6132C37.3585 50.6948 36.4583 50.5441 35.6394 50.1756C36.2561 50.8156 37.0235 51.2906 37.8714 51.5573C36.871 51.6136 35.8269 52.3076 34.7766 53.1016C36.3146 52.4764 37.5588 52.2263 38.4466 52.4326C37.0336 56.4214 35.6206 60.8292 34.2076 65.512C34.4029 65.4549 34.5812 65.351 34.7272 65.2093C34.8732 65.0677 34.9824 64.8926 35.0454 64.6992C35.2893 63.8489 36.9711 58.2846 39.5907 50.9446C39.6595 50.7383 39.747 50.532 39.8158 50.3194C39.8158 50.2569 39.8595 50.2006 39.8783 50.1443C40.1596 49.3816 40.4472 48.5938 40.7473 47.7935L40.9474 47.2434L38.8905 43.167C38.8702 43.2152 38.8555 43.2655 38.8467 43.317V43.3295Z" fill="#B0D0E7"/>
<mask id="mask4_4603_78709" style="mask-type:luminance" maskUnits="userSpaceOnUse" x="34" y="43" width="7" height="23">
<path d="M38.8467 43.3286C38.5875 44.6146 38.4079 45.9154 38.309 47.2236C38.309 47.2611 38.309 47.3174 38.309 47.3549C37.6582 46.5255 36.8537 45.8293 35.9395 45.3042C37.1899 47.0986 38.1152 48.8742 38.2527 50.6123C37.3585 50.6938 36.4583 50.5431 35.6394 50.1746C36.2561 50.8146 37.0235 51.2896 37.8714 51.5563C36.871 51.6126 35.8269 52.3066 34.7766 53.1006C36.3146 52.4754 37.5588 52.2253 38.4466 52.4316C37.0336 56.4205 35.6206 60.8282 34.2076 65.511C34.4029 65.4539 34.5812 65.35 34.7272 65.2084C34.8732 65.0667 34.9824 64.8916 35.0454 64.6982C35.2893 63.8479 36.9711 58.2836 39.5907 50.9436C39.6595 50.7373 39.747 50.531 39.8158 50.3184C39.8158 50.2559 39.8595 50.1996 39.8783 50.1434C40.1596 49.3806 40.4472 48.5928 40.7473 47.7926L40.9474 47.2424L38.8905 43.166C38.8702 43.2142 38.8555 43.2645 38.8467 43.3161V43.3286Z" fill="white"/>
</mask>
<g mask="url(#mask4_4603_78709)">
<path d="M34.2076 61.0098L36.5209 62.0914L34.9266 65.4988H34.2076V61.0098Z" fill="#B0D0E7"/>
<path d="M34.2076 60.959L36.5397 62.0469L36.5209 62.0906L34.2076 61.009V60.959Z" fill="#B0D0E7"/>
<path d="M34.2076 60.9092L36.5584 62.0033L36.5397 62.0471L34.2076 60.9592V60.9092Z" fill="#B0D0E7"/>
<path d="M34.2076 60.8594L36.5772 61.966L36.5584 62.0035L34.2076 60.9094V60.8594Z" fill="#B0D0E7"/>
<path d="M34.2076 60.8096L36.5959 61.9287L36.5772 61.9662L34.2076 60.8596V60.8096Z" fill="#B0D0E7"/>
<path d="M34.2076 60.7588L36.6147 61.8842L36.5959 61.9279L34.2076 60.8088V60.7588Z" fill="#B0D0E7"/>
<path d="M34.2076 60.7148L36.6335 61.8402L36.6147 61.884L34.2076 60.7586V60.7148Z" fill="#B0D0E7"/>
<path d="M34.2076 60.6592L36.6522 61.8033L36.6335 61.8408L34.2076 60.7154V60.6592Z" fill="#B0D0E7"/>
<path d="M34.2076 60.6152L36.671 61.7594L36.6522 61.8031L34.2076 60.659V60.6152Z" fill="#B0D0E7"/>
<path d="M34.2076 60.5654L36.6897 61.7221L36.671 61.7596L34.2076 60.6154V60.5654Z" fill="#B0D0E7"/>
<path d="M34.2076 60.5146L36.7085 61.6775L36.6897 61.7213L34.2076 60.5647V60.5146Z" fill="#B0D0E7"/>
<path d="M34.2076 60.4648L36.7272 61.6402L36.7085 61.6778L34.2076 60.5149V60.4648Z" fill="#B0D0E7"/>
<path d="M34.2076 60.415L36.746 61.5967L36.7272 61.6404L34.2076 60.4651V60.415Z" fill="#B0D0E7"/>
<path d="M34.2076 60.3652L36.7647 61.5594L36.746 61.5969L34.2076 60.4153V60.3652Z" fill="#B0D0E7"/>
<path d="M34.2076 60.3154L36.7835 61.5158L36.7647 61.5596L34.2076 60.3654V60.3154Z" fill="#B0D0E7"/>
<path d="M34.2076 60.2656L36.8023 61.4785L36.7835 61.516L34.2076 60.3156V60.2656Z" fill="#B0D0E7"/>
<path d="M34.2076 60.2158L36.821 61.435L36.8023 61.4787L34.2076 60.2658V60.2158Z" fill="#B0D0E7"/>
<path d="M34.2076 60.165L36.8398 61.3967L36.821 61.4342L34.2076 60.2151V60.165Z" fill="#B0D0E7"/>
<path d="M34.2076 60.1152L36.8648 61.3532L36.8398 61.3969L34.2076 60.1653V60.1152Z" fill="#B0D0E7"/>
<path d="M34.2076 60.0654L36.8835 61.3158L36.8648 61.3534L34.2076 60.1154V60.0654Z" fill="#B0D0E7"/>
<path d="M34.2076 60.0156L36.9023 61.2723L36.8835 61.3161L34.2076 60.0656V60.0156Z" fill="#B0D0E7"/>
<path d="M34.2076 59.9658L36.9211 61.235L36.9023 61.2725L34.2076 60.0158V59.9658Z" fill="#B0D0E7"/>
<path d="M34.2076 59.915L36.9398 61.1905L36.9211 61.2342L34.2076 59.9651V59.915Z" fill="#B0D0E7"/>
<path d="M34.2076 59.8643L36.9586 61.1459L36.9398 61.1897L34.2076 59.9143V59.8643Z" fill="#B0D0E7"/>
<path d="M34.2076 59.8145L36.9773 61.1086L36.9586 61.1461L34.2076 59.8645V59.8145Z" fill="#B0D0E7"/>
<path d="M34.2076 59.7715L36.9961 61.0657L36.9773 61.1094L34.2076 59.8152V59.7715Z" fill="#B0D0E7"/>
<path d="M34.2076 59.7207L37.0148 61.0274L36.9961 61.0649L34.2076 59.7707V59.7207Z" fill="#B0D0E7"/>
<path d="M34.2076 59.6709L37.0336 60.9838L37.0148 61.0276L34.2076 59.7209V59.6709Z" fill="#B0D0E7"/>
<path d="M34.2076 59.6211L37.0523 60.9465L37.0336 60.9841L34.2076 59.6711V59.6211Z" fill="#B0D0E7"/>
<path d="M34.2076 59.5713L37.0711 60.903L37.0523 60.9468L34.2076 59.6213V59.5713Z" fill="#B0D0E7"/>
<path d="M34.2076 59.5215L37.0899 60.8657L37.0711 60.9032L34.2076 59.5715V59.5215Z" fill="#B0D0E7"/>
<path d="M34.2076 59.4707L37.1086 60.8212L37.0899 60.8649L34.2076 59.5207V59.4707Z" fill="#B0D0E7"/>
<path d="M34.2076 59.4209L37.1274 60.7839L37.1086 60.8214L34.2076 59.4709V59.4209Z" fill="#B0D0E7"/>
<path d="M34.2076 59.3711L37.1461 60.7403L37.1274 60.7841L34.2076 59.4211V59.3711Z" fill="#B0D0E7"/>
<path d="M34.2076 59.3213L37.1649 60.703L37.1461 60.7405L34.2076 59.3713V59.3213Z" fill="#B0D0E7"/>
<path d="M34.2076 59.2715L37.1836 60.6594L37.1649 60.7032L34.2076 59.3215V59.2715Z" fill="#B0D0E7"/>
<path d="M34.2076 59.2217L37.2024 60.6221L37.1836 60.6597L34.2076 59.2717V59.2217Z" fill="#B0D0E7"/>
<path d="M34.2076 59.1719L37.2212 60.5786L37.2024 60.6224L34.2076 59.2219V59.1719Z" fill="#B0D0E7"/>
<path d="M34.2076 59.1211L37.2399 60.5403L37.2212 60.5778L34.2076 59.1711V59.1211Z" fill="#B0D0E7"/>
<path d="M34.2076 59.0713L37.2587 60.4968L37.2399 60.5405L34.2076 59.1213V59.0713Z" fill="#B0D0E7"/>
<path d="M34.2076 59.0215L37.2774 60.4532L37.2587 60.497L34.2076 59.0715V59.0215Z" fill="#B0D0E7"/>
<path d="M34.2076 58.9707L37.3024 60.4149L37.2774 60.4525L34.2076 59.0207V58.9707Z" fill="#B0D0E7"/>
<path d="M34.2076 58.9268L37.3149 60.371L37.3024 60.4148L34.2076 58.9705V58.9268Z" fill="#B0D0E7"/>
<path d="M34.2076 58.8701L37.3399 60.3331L37.3149 60.3706L34.2076 58.9264V58.8701Z" fill="#B0D0E7"/>
<path d="M34.2076 58.8271L37.3587 60.2901L37.3399 60.3339L34.2076 58.8709V58.8271Z" fill="#B0D0E7"/>
<path d="M34.2076 58.7773L37.3775 60.2528L37.3587 60.2903L34.2076 58.8274V58.7773Z" fill="#B0D0E7"/>
<path d="M34.2076 58.7275L37.3962 60.2093L37.3775 60.2531L34.2076 58.7776V58.7275Z" fill="#B0D0E7"/>
<path d="M34.2076 58.6768L37.415 60.171L37.3962 60.2085L34.2076 58.7268V58.6768Z" fill="#B0D0E7"/>
<path d="M34.2076 58.627L37.4337 60.1275L37.415 60.1712L34.2076 58.677V58.627Z" fill="#B0D0E7"/>
<path d="M34.2076 58.5771L37.4525 60.0902L37.4337 60.1277L34.2076 58.6272V58.5771Z" fill="#B0D0E7"/>
<path d="M34.2076 58.5273L37.4712 60.0466L37.4525 60.0904L34.2076 58.5774V58.5273Z" fill="#B0D0E7"/>
<path d="M34.2076 58.4775L37.49 60.0093L37.4712 60.0468L34.2076 58.5276V58.4775Z" fill="#B0D0E7"/>
<path d="M34.2076 58.4268L37.5087 59.9648L37.49 60.0085L34.2076 58.4768V58.4268Z" fill="#B0D0E7"/>
<path d="M34.2076 58.377L37.5275 59.9275L37.5087 59.965L34.2076 58.427V58.377Z" fill="#B0D0E7"/>
<path d="M34.2076 58.3271L37.5463 59.8839L37.5275 59.9277L34.2076 58.3772V58.3271Z" fill="#B0D0E7"/>
<path d="M34.2076 58.2773L37.565 59.8466L37.5463 59.8841L34.2076 58.3274V58.2773Z" fill="#B0D0E7"/>
<path d="M34.2076 58.2275L37.5838 59.8031L37.565 59.8468L34.2076 58.2776V58.2275Z" fill="#B0D0E7"/>
<path d="M34.2076 58.1777L37.6025 59.7658L37.5838 59.8033L34.2076 58.2278V58.1777Z" fill="#B0D0E7"/>
<path d="M34.2076 58.1279L37.6213 59.7222L37.6025 59.766L34.2076 58.1779V58.1279Z" fill="#B0D0E7"/>
<path d="M34.2076 58.0771L37.64 59.6839L37.6213 59.7215L34.2076 58.1272V58.0771Z" fill="#B0D0E7"/>
<path d="M34.2076 58.0264L37.6588 59.6394L37.64 59.6832L34.2076 58.0764V58.0264Z" fill="#B0D0E7"/>
<path d="M34.2076 57.9824L37.6776 59.5955L37.6588 59.6392L34.2076 58.0262V57.9824Z" fill="#B0D0E7"/>
<path d="M34.2076 57.9326L37.6963 59.5582L37.6776 59.5957L34.2076 57.9826V57.9326Z" fill="#B0D0E7"/>
<path d="M34.2076 57.5391L37.8464 59.2334L37.6963 59.5585L34.2076 57.9329V57.5391Z" fill="#B0D0E7"/>
<path d="M34.2076 57.1455L37.9964 58.9149L37.8464 59.2337L34.2076 57.5394V57.1455Z" fill="#B0D0E7"/>
<path d="M34.2076 56.752L38.1465 58.5901L37.9964 58.9152L34.2076 57.1458V56.752Z" fill="#B0D0E7"/>
<path d="M34.2076 56.3643L38.2965 58.2711L38.1465 58.59L34.2076 56.7519V56.3643Z" fill="#B0D0E7"/>
<path d="M34.2076 55.9707L38.4528 57.9464L38.2965 58.2715L34.2076 56.3646V55.9707Z" fill="#B0D0E7"/>
<path d="M34.2076 55.5762L38.6029 57.6269L38.4528 57.9457L34.2076 55.9701V55.5762Z" fill="#B0D0E7"/>
<path d="M34.2076 55.1885L38.7467 57.3017L38.6029 57.6268L34.2076 55.5761V55.1885Z" fill="#B0D0E7"/>
<path d="M34.2076 54.7949L38.8967 56.9832L38.7467 57.302L34.2076 55.1888V54.7949Z" fill="#B0D0E7"/>
<path d="M34.2076 54.4004L39.053 56.6574L38.8967 56.9825L34.2076 54.7943V54.4004Z" fill="#B0D0E7"/>
<path d="M34.2076 54.0137L39.2031 56.3395L39.053 56.6583L34.2076 54.4013V54.0137Z" fill="#B0D0E7"/>
<path d="M34.2076 53.6191L39.3469 56.0137L39.2031 56.3388L34.2076 54.013V53.6191Z" fill="#B0D0E7"/>
<path d="M34.2076 53.2256L39.5032 55.6952L39.3469 56.014L34.2076 53.6195V53.2256Z" fill="#B0D0E7"/>
<path d="M34.2076 52.8311L39.6532 55.3694L39.5032 55.6945L34.2076 53.2249V52.8311Z" fill="#B0D0E7"/>
<path d="M34.2076 52.4434L39.8033 55.0505L39.6532 55.3693L34.2076 52.831V52.4434Z" fill="#B0D0E7"/>
<path d="M34.2076 52.0498L39.9533 54.7257L39.8033 55.0508L34.2076 52.4437V52.0498Z" fill="#B0D0E7"/>
<path d="M34.2076 51.6562L40.1034 54.4072L39.9533 54.726L34.2076 52.0501V51.6562Z" fill="#B0D0E7"/>
<path d="M34.2076 51.2686L40.2534 54.082L40.1034 54.4071L34.2076 51.6562V51.2686Z" fill="#B0D0E7"/>
<path d="M34.2076 50.875L40.4035 53.7635L40.2534 54.0823L34.2076 51.2689V50.875Z" fill="#B0D0E7"/>
<path d="M34.2076 50.4805L40.5535 53.4377L40.4035 53.7628L34.2076 50.8743V50.4805Z" fill="#B0D0E7"/>
<path d="M34.2076 50.0928L40.7036 53.1188L40.5535 53.4376L34.2076 50.4804V50.0928Z" fill="#B0D0E7"/>
<path d="M34.2076 49.6992L40.8536 52.794L40.7036 53.1191L34.2076 50.0931V49.6992Z" fill="#B0D0E7"/>
<path d="M34.2076 49.3047L40.9474 52.4495V52.587L40.8536 52.7934L34.2076 49.6986V49.3047Z" fill="#B0D0E7"/>
<path d="M34.2076 48.918L40.9474 52.0565V52.4504L34.2076 49.3056V48.918Z" fill="#B0D0E7"/>
<path d="M34.2076 48.5234L40.9474 51.662V52.0559L34.2076 48.9173V48.5234Z" fill="#B0D0E7"/>
<path d="M34.2076 48.5171L34.3577 48.1982L40.9474 51.2743V51.6619L34.2076 48.5233V48.5171Z" fill="#B0D0E7"/>
<path d="M34.3577 48.1987L34.5077 47.8799L40.9474 50.8809V51.2748L34.3577 48.1987Z" fill="#B0D0E7"/>
<path d="M34.5077 47.8798L34.6578 47.5547L40.9474 50.4869V50.8808L34.5077 47.8798Z" fill="#B0D0E7"/>
<path d="M34.6578 47.5552L34.8078 47.2363L40.9474 50.0998V50.4874L34.6578 47.5552Z" fill="#B0D0E7"/>
<path d="M34.8078 47.2362L34.9579 46.9111L40.9474 49.7058V50.0997L34.8078 47.2362Z" fill="#B0D0E7"/>
<path d="M34.9579 46.9107L35.1079 46.5918L40.9474 49.3115V49.7053L34.9579 46.9107Z" fill="#B0D0E7"/>
<path d="M35.1079 46.5917L35.258 46.2666L40.9474 48.9237V49.3114L35.1079 46.5917Z" fill="#B0D0E7"/>
<path d="M35.2579 46.2661L35.408 45.9473L40.9473 48.5294V48.9233L35.2579 46.2661Z" fill="#B0D0E7"/>
<path d="M35.408 45.9482L35.558 45.623L40.9473 48.1364V48.5303L35.408 45.9482Z" fill="#B0D0E7"/>
<path d="M35.558 45.6226L35.7081 45.3037L40.9473 47.7483V48.1359L35.558 45.6226Z" fill="#B0D0E7"/>
<path d="M35.7081 45.3046L35.8581 44.9795L40.9473 47.3553V47.7492L35.7081 45.3046Z" fill="#B0D0E7"/>
<path d="M35.8581 44.979L36.0082 44.6602L40.9473 46.9609V47.3548L35.8581 44.979Z" fill="#B0D0E7"/>
<path d="M36.0082 44.6601L36.1582 44.335L40.9473 46.5732V46.9608L36.0082 44.6601Z" fill="#B0D0E7"/>
<path d="M36.1584 44.3345L36.3085 44.0156L40.9476 46.1788V46.5727L36.1584 44.3345Z" fill="#B0D0E7"/>
<path d="M36.3085 44.0155L36.4586 43.6904L40.9476 45.7849V46.1788L36.3085 44.0155Z" fill="#B0D0E7"/>
<path d="M36.4585 43.6909L36.6086 43.3721L40.9475 45.3915V45.7854L36.4585 43.6909Z" fill="#B0D0E7"/>
<path d="M36.6086 43.3721L36.6961 43.1846H37.0462L40.9475 45.0039V45.3916L36.6086 43.3721Z" fill="#B0D0E7"/>
<path d="M37.8901 43.1846L40.9473 44.61V45.0039L37.046 43.1846H37.8901Z" fill="#B0D0E7"/>
<path d="M38.7277 43.1846L40.9472 44.2162V44.61L37.89 43.1846H38.7277Z" fill="#B0D0E7"/>
<path d="M39.5719 43.1846L40.9474 43.8285V44.2162L38.7279 43.1846H39.5719Z" fill="#B0D0E7"/>
<path d="M40.4098 43.1846L40.9475 43.4347V43.8285L39.5721 43.1846H40.4098Z" fill="#B0D0E7"/>
<path d="M40.9474 43.4347L40.4098 43.1846H40.9474V43.4347Z" fill="#B0D0E7"/>
</g>
<path d="M49.5877 28.1873C49.5252 28.306 49.4752 28.4248 49.4126 28.5436C49.2376 28.9188 49.05 29.2876 48.875 29.669C48.6999 30.0504 48.4873 30.5068 48.2498 30.9194C48.1435 31.132 48.0434 31.3508 47.9372 31.5446C47.6308 32.2199 47.312 32.9076 46.9993 33.6203C46.6117 34.4956 46.2178 35.4022 45.8177 36.3525C45.4176 37.3028 45.0424 38.1844 44.6486 39.1409C44.2547 40.0975 43.8983 41.0166 43.5169 41.9794C43.1793 42.8422 42.8355 43.7425 42.4853 44.6553C42.4853 44.699 42.4541 44.7491 42.4353 44.7928C42.0914 45.6994 41.7413 46.6684 41.3912 47.5938C41.3893 47.6146 41.3893 47.6355 41.3912 47.6563L43.048 47.475H42.948C44.9362 47.2311 47.5745 45.7431 49.2751 43.9113C50.1086 42.9984 50.8325 41.9912 51.4321 40.9103C51.9549 39.9754 52.4185 39.0086 52.82 38.0155C53.2014 37.084 53.5765 36.0774 53.9267 34.9833C53.4337 35.2304 52.9103 35.4112 52.3699 35.521L52.0573 35.5835L51.7384 35.6335C53.465 34.9305 54.852 33.586 55.6085 31.8822C54.929 32.3386 54.173 32.669 53.3765 32.8576C53.2577 32.8576 53.1201 32.9076 52.9888 32.9326H52.8826C53.474 32.696 54.0328 32.3851 54.5456 32.0073C54.6456 31.9323 54.7394 31.851 54.8332 31.7697C54.927 31.6884 55.1083 31.5134 55.2459 31.3758L55.4897 31.1132C55.6815 30.89 55.8551 30.6516 56.0086 30.4005C56.0586 30.3192 56.1086 30.2442 56.1524 30.1629C56.1962 30.0816 56.2774 29.9253 56.3275 29.8128C56.5838 29.2939 56.7901 28.8312 56.9527 28.4186C57.0402 28.2123 57.109 28.031 57.1715 27.8559C57.1927 27.7858 57.2178 27.7169 57.2465 27.6496C57.309 27.4495 57.3653 27.2745 57.4091 27.1244C57.4616 26.9436 57.5033 26.7599 57.5341 26.5742C57.4671 26.6306 57.3937 26.6789 57.3153 26.718C56.5965 27.0941 55.825 27.3597 55.027 27.5058C54.9471 27.516 54.8678 27.5306 54.7895 27.5495H54.8332L49.619 28.1185C49.6065 28.156 49.6002 28.1748 49.5877 28.1873Z" fill="#B0D0E7"/>
<mask id="mask5_4603_78709" style="mask-type:luminance" maskUnits="userSpaceOnUse" x="41" y="26" width="17" height="22">
<path d="M49.5876 28.1863C49.525 28.3051 49.475 28.4239 49.4125 28.5427C49.2374 28.9178 49.0499 29.2866 48.8748 29.668C48.6998 30.0494 48.4872 30.5058 48.2496 30.9184C48.1433 31.131 48.0433 31.3498 47.937 31.5437C47.6307 32.2189 47.3118 32.9066 46.9992 33.6194C46.6116 34.4946 46.2177 35.4012 45.8175 36.3515C45.4174 37.3018 45.0423 38.1834 44.6484 39.1399C44.2545 40.0965 43.8982 41.0156 43.5168 41.9784C43.1792 42.8412 42.8353 43.7415 42.4852 44.6543C42.4852 44.6981 42.4539 44.7481 42.4352 44.7918C42.0913 45.6984 41.7412 46.6675 41.3911 47.5928C41.3891 47.6136 41.3891 47.6345 41.3911 47.6553L43.0479 47.474H42.9478C44.936 47.2302 47.5744 45.7422 49.2749 43.9103C50.1084 42.9974 50.8323 41.9903 51.4319 40.9093C51.9548 39.9744 52.4183 39.0076 52.8199 38.0146C53.2013 37.083 53.5764 36.0764 53.9265 34.9823C53.4336 35.2294 52.9101 35.4102 52.3697 35.52L52.0571 35.5825L51.7383 35.6325C53.4648 34.9295 54.8519 33.585 55.6083 31.8813C54.9289 32.3377 54.1728 32.668 53.3763 32.8566C53.2575 32.8566 53.12 32.9066 52.9887 32.9316H52.8824C53.4738 32.695 54.0326 32.3841 54.5455 32.0063C54.6455 31.9313 54.7393 31.85 54.8331 31.7687C54.9268 31.6875 55.1082 31.5124 55.2457 31.3749L55.4895 31.1123C55.6814 30.889 55.8549 30.6506 56.0085 30.3995C56.0585 30.3182 56.1085 30.2432 56.1522 30.1619C56.196 30.0807 56.2773 29.9244 56.3273 29.8118C56.5836 29.2929 56.79 28.8302 56.9525 28.4176C57.04 28.2113 57.1088 28.03 57.1713 27.8549C57.1926 27.7848 57.2176 27.716 57.2464 27.6486C57.3089 27.4485 57.3652 27.2735 57.4089 27.1234C57.4614 26.9427 57.5032 26.7589 57.534 26.5732C57.467 26.6297 57.3935 26.6779 57.3151 26.717C56.5963 27.0931 55.8249 27.3587 55.0269 27.5048C54.9469 27.515 54.8676 27.5296 54.7893 27.5486H54.8331L49.6188 28.1175C49.6063 28.155 49.6001 28.1738 49.5876 28.1863Z" fill="white"/>
</mask>
<g mask="url(#mask5_4603_78709)">
<path d="M41.4036 47.3242L42.2288 47.7118H41.4036V47.3242Z" fill="#B0D0E7"/>
<path d="M41.4036 46.9053L43.1229 47.7118H42.2288L41.4036 47.3242V46.9053Z" fill="#B0D0E7"/>
<path d="M41.4036 46.4863L44.0232 47.7117H43.1229L41.4036 46.9052V46.4863Z" fill="#B0D0E7"/>
<path d="M41.4036 46.0684L44.9172 47.7127H44.0232L41.4036 46.4872V46.0684Z" fill="#B0D0E7"/>
<path d="M41.4036 45.6494L45.8175 47.7126H44.9172L41.4036 46.0683V45.6494Z" fill="#B0D0E7"/>
<path d="M41.4036 45.2295L46.7116 47.7116H45.8175L41.4036 45.6484V45.2295Z" fill="#B0D0E7"/>
<path d="M41.4036 45.1862L41.5474 44.8799L47.6119 47.7121H46.7116L41.4036 45.23V45.1862Z" fill="#B0D0E7"/>
<path d="M41.5474 44.88L41.7037 44.5361L48.5122 47.7122H47.6119L41.5474 44.88Z" fill="#B0D0E7"/>
<path d="M41.7037 44.5362L41.8662 44.1924L48.7498 47.406L48.6122 47.7123H48.5122L41.7037 44.5362Z" fill="#B0D0E7"/>
<path d="M42.024 43.8467L41.8628 44.1924L48.7474 47.4027L48.9086 47.0571L42.024 43.8467Z" fill="#B0D0E7"/>
<path d="M42.1875 43.5049L42.0263 43.8506L48.9109 47.0609L49.072 46.7153L42.1875 43.5049Z" fill="#B0D0E7"/>
<path d="M42.3509 43.1553L42.1898 43.501L49.0743 46.7113L49.2355 46.3657L42.3509 43.1553Z" fill="#B0D0E7"/>
<path d="M42.5055 42.8184L42.3444 43.1641L49.2289 46.3744L49.3901 46.0287L42.5055 42.8184Z" fill="#B0D0E7"/>
<path d="M42.6687 42.4698L42.5076 42.8154L49.3921 46.0258L49.5533 45.6801L42.6687 42.4698Z" fill="#B0D0E7"/>
<path d="M42.8322 42.127L42.6711 42.4727L49.5556 45.683L49.7168 45.3374L42.8322 42.127Z" fill="#B0D0E7"/>
<path d="M42.9868 41.7833L42.8257 42.1289L49.7102 45.3392L49.8714 44.9936L42.9868 41.7833Z" fill="#B0D0E7"/>
<path d="M43.1503 41.4405L42.9891 41.7861L49.8737 44.9965L50.0349 44.6508L43.1503 41.4405Z" fill="#B0D0E7"/>
<path d="M43.3111 41.0977L43.1499 41.4434L50.0345 44.6537L50.1957 44.308L43.3111 41.0977Z" fill="#B0D0E7"/>
<path d="M43.4683 40.7549L43.3072 41.1006L50.1917 44.3109L50.3529 43.9653L43.4683 40.7549Z" fill="#B0D0E7"/>
<path d="M43.6316 40.4053L43.4704 40.751L50.355 43.9613L50.5162 43.6157L43.6316 40.4053Z" fill="#B0D0E7"/>
<path d="M43.7924 40.0694L43.6312 40.415L50.5158 43.6254L50.677 43.2797L43.7924 40.0694Z" fill="#B0D0E7"/>
<path d="M43.9496 39.7208L43.7885 40.0664L50.673 43.2767L50.8342 42.9311L43.9496 39.7208Z" fill="#B0D0E7"/>
<path d="M44.1131 39.378L43.9519 39.7236L50.8365 42.934L50.9977 42.5883L44.1131 39.378Z" fill="#B0D0E7"/>
<path d="M44.2739 39.0342L44.1128 39.3799L50.9973 42.5902L51.1585 42.2446L44.2739 39.0342Z" fill="#B0D0E7"/>
<path d="M44.4309 38.6915L44.2697 39.0371L51.1543 42.2474L51.3155 41.9018L44.4309 38.6915Z" fill="#B0D0E7"/>
<path d="M44.5944 38.3428L44.4332 38.6885L51.3178 41.8988L51.479 41.5532L44.5944 38.3428Z" fill="#B0D0E7"/>
<path d="M44.7555 38.0059L44.5943 38.3516L51.4789 41.5619L51.6401 41.2162L44.7555 38.0059Z" fill="#B0D0E7"/>
<path d="M44.9125 37.6563L44.7513 38.002L51.6359 41.2123L51.797 40.8666L44.9125 37.6563Z" fill="#B0D0E7"/>
<path d="M45.0759 37.3135L44.9147 37.6592L51.7993 40.8695L51.9605 40.5239L45.0759 37.3135Z" fill="#B0D0E7"/>
<path d="M51.9572 40.5281L52.1198 40.1843L45.23 36.9707L45.0737 37.3146" fill="#B0D0E7"/>
<path d="M45.3938 36.628L45.2326 36.9736L52.1172 40.184L52.2783 39.8383L45.3938 36.628Z" fill="#B0D0E7"/>
<path d="M45.5548 36.2842L45.3936 36.6299L52.2782 39.8402L52.4394 39.4946L45.5548 36.2842Z" fill="#B0D0E7"/>
<path d="M45.712 35.9415L45.5509 36.2871L52.4355 39.4974L52.5966 39.1518L45.712 35.9415Z" fill="#B0D0E7"/>
<path d="M45.8753 35.5938L45.7141 35.9395L52.5987 39.1498L52.7599 38.8041L45.8753 35.5938Z" fill="#B0D0E7"/>
<path d="M46.3568 34.5655L46.1956 34.9111L53.0802 38.1215L53.2414 37.7758L46.3568 34.5655Z" fill="#B0D0E7"/>
<path d="M46.5232 34.2237L46.362 34.5693L53.2465 37.7797L53.4077 37.434L46.5232 34.2237Z" fill="#B0D0E7"/>
<path d="M46.8439 33.5323L46.6827 33.8779L53.5673 37.0883L53.7284 36.7426L46.8439 33.5323Z" fill="#B0D0E7"/>
<path d="M47.1619 32.8458L47.0007 33.1914L53.8853 36.4017L54.0465 36.0561L47.1619 32.8458Z" fill="#B0D0E7"/>
<path d="M48.5849 29.7924L47.8715 31.3223L54.7561 34.5326L55.4695 33.0027L48.5849 29.7924Z" fill="#B0D0E7"/>
<path d="M49.2985 28.2611L48.5851 29.791L55.4696 33.0013L56.183 31.4714L49.2985 28.2611Z" fill="#B0D0E7"/>
<path d="M50.0115 26.7328L49.2981 28.2627L56.1827 31.473L56.8961 29.9431L50.0115 26.7328Z" fill="#B0D0E7"/>
<path d="M50.0064 26.7366L50.0752 26.5928L56.9587 29.8001L56.89 29.9439L50.0064 26.7366Z" fill="#B0D0E7"/>
<path d="M50.4628 26.5928L57.0275 29.65L56.9587 29.8001L50.0752 26.5928H50.4628Z" fill="#B0D0E7"/>
<path d="M50.8441 26.5928L57.0962 29.5062L57.0275 29.65L50.4628 26.5928H50.8441Z" fill="#B0D0E7"/>
<path d="M51.232 26.5928L57.1652 29.3562L57.0965 29.5062L50.8444 26.5928H51.232Z" fill="#B0D0E7"/>
<path d="M51.6133 26.5928L57.2339 29.2061L57.1652 29.3562L51.2319 26.5928H51.6133Z" fill="#B0D0E7"/>
<path d="M52.0009 26.5928L57.3027 29.0624L57.2339 29.2061L51.6133 26.5928H52.0009Z" fill="#B0D0E7"/>
<path d="M52.3885 26.5928L57.3714 28.9123L57.3026 29.0624L52.0008 26.5928H52.3885Z" fill="#B0D0E7"/>
<path d="M52.77 26.5928L57.4403 28.7685L57.3716 28.9123L52.3886 26.5928H52.77Z" fill="#B0D0E7"/>
<path d="M53.1574 26.5928L57.5088 28.6185L57.4401 28.7685L52.7697 26.5928H53.1574Z" fill="#B0D0E7"/>
<path d="M53.5389 26.5928L57.5465 28.4559V28.5497L57.509 28.6185L53.1576 26.5928H53.5389Z" fill="#B0D0E7"/>
<path d="M53.9265 26.5928L57.5465 28.2746V28.4559L53.5389 26.5928H53.9265Z" fill="#B0D0E7"/>
<path d="M54.3141 26.5928L57.5464 28.0995V28.2746L53.9265 26.5928H54.3141Z" fill="#B0D0E7"/>
<path d="M54.6954 26.5928L57.5464 27.9182V28.0995L54.3141 26.5928H54.6954Z" fill="#B0D0E7"/>
<path d="M55.0833 26.5928L57.5466 27.7369V27.9182L54.6956 26.5928H55.0833Z" fill="#B0D0E7"/>
<path d="M55.4644 26.5928L57.5463 27.5556V27.7369L55.083 26.5928H55.4644Z" fill="#B0D0E7"/>
<path d="M55.8522 26.5928L57.5465 27.3805V27.5556L55.4645 26.5928H55.8522Z" fill="#B0D0E7"/>
<path d="M56.2335 26.5928L57.5464 27.1992V27.3805L55.8521 26.5928H56.2335Z" fill="#B0D0E7"/>
<path d="M56.6211 26.5928L57.5464 27.0179V27.1992L56.2335 26.5928H56.6211Z" fill="#B0D0E7"/>
<path d="M57.0089 26.5928L57.5466 26.8366V27.0179L56.6213 26.5928H57.0089Z" fill="#B0D0E7"/>
<path d="M57.3902 26.5928L57.5465 26.6615V26.8366L57.0089 26.5928H57.3902Z" fill="#B0D0E7"/>
<path d="M57.5474 26.6619L57.3902 26.5928H57.5474V26.6619Z" fill="#B0D0E7"/>
</g>
<path d="M55.4647 17.652C55.0021 18.3647 54.4957 19.1754 53.9455 20.0841L53.8642 20.2279C53.389 21.0219 52.8951 21.8847 52.37 22.8475C51.9198 23.6728 51.4446 24.5481 50.9507 25.5046C50.5131 26.3299 50.0817 27.2052 49.619 28.1305L54.8333 27.5678C55.9851 27.1128 56.9784 26.3303 57.6905 25.3171C57.8655 25.0732 58.0406 24.8044 58.2157 24.5231C58.771 23.6607 59.2802 22.7696 59.7412 21.8534C60.1724 21.0268 60.5586 20.1773 60.8978 19.3088C61.0916 18.8024 61.2479 18.3397 61.3605 17.9271C61.473 17.5145 61.523 17.2269 61.5855 16.8955C59.5596 17.2528 57.5167 17.5053 55.4647 17.652Z" fill="#B0D0E7"/>
<mask id="mask6_4603_78709" style="mask-type:luminance" maskUnits="userSpaceOnUse" x="49" y="16" width="13" height="13">
<path d="M55.4647 17.651C55.0021 18.3638 54.4956 19.1745 53.9455 20.0831L53.8642 20.2269C53.389 21.0209 52.8951 21.8837 52.3699 22.8465C51.9198 23.6718 51.4446 24.5471 50.9507 25.5037C50.5131 26.3289 50.0817 27.2042 49.619 28.1295L54.8333 27.5669C55.9851 27.1118 56.9783 26.3293 57.6905 25.3161C57.8655 25.0723 58.0406 24.8034 58.2156 24.5221C58.7709 23.6598 59.2801 22.7686 59.7411 21.8524C60.1724 21.0258 60.5585 20.1763 60.8978 19.3078C61.0916 18.8014 61.2479 18.3388 61.3604 17.9261C61.473 17.5135 61.523 17.2259 61.5855 16.8945C59.5596 17.2518 57.5166 17.5043 55.4647 17.651Z" fill="white"/>
</mask>
<g mask="url(#mask6_4603_78709)">
<path d="M49.6192 28.0293L49.8505 28.1356H49.6192V28.0293Z" fill="#B0D0E7"/>
<path d="M49.6192 27.8486L50.2319 28.1362H49.8505L49.6192 28.0299V27.8486Z" fill="#B0D0E7"/>
<path d="M49.6192 27.667L50.6195 28.1359H50.2319L49.6192 27.8483V27.667Z" fill="#B0D0E7"/>
<path d="M49.6192 27.6489L49.6755 27.5176L51.0009 28.1365H50.6195L49.6192 27.6676V27.6489Z" fill="#B0D0E7"/>
<path d="M49.6755 27.5172L49.7443 27.3672L51.3886 28.1362H51.001L49.6755 27.5172Z" fill="#B0D0E7"/>
<path d="M49.7441 27.3674L49.8129 27.2236L51.7698 28.1364H51.3884L49.7441 27.3674Z" fill="#B0D0E7"/>
<path d="M49.8131 27.2223L49.8819 27.0723L52.1576 28.1351H51.77L49.8131 27.2223Z" fill="#B0D0E7"/>
<path d="M49.8817 27.0735L49.9504 26.9297L52.5388 28.1363H52.1574L49.8817 27.0735Z" fill="#B0D0E7"/>
<path d="M49.9504 26.9293L50.0192 26.7793L52.9264 28.136H52.5388L49.9504 26.9293Z" fill="#B0D0E7"/>
<path d="M50.0192 26.7795L50.088 26.6357L53.3141 28.1362H52.9264L50.0192 26.7795Z" fill="#B0D0E7"/>
<path d="M50.088 26.6364L50.1568 26.4863L53.6955 28.1369H53.3141L50.088 26.6364Z" fill="#B0D0E7"/>
<path d="M50.1568 26.485L50.2256 26.335L54.0831 28.1356H53.6955L50.1568 26.485Z" fill="#B0D0E7"/>
<path d="M50.2256 26.3362L50.2944 26.1924L54.4645 28.1368H54.0832L50.2256 26.3362Z" fill="#B0D0E7"/>
<path d="M50.2944 26.192L50.3632 26.042L54.8522 28.1364H54.4646L50.2944 26.192Z" fill="#B0D0E7"/>
<path d="M50.3632 26.0422L50.432 25.8984L55.2336 28.1367H54.8522L50.3632 26.0422Z" fill="#B0D0E7"/>
<path d="M50.432 25.8991L50.5007 25.749L55.6212 28.1373H55.2336L50.432 25.8991Z" fill="#B0D0E7"/>
<path d="M50.5008 25.7477L50.5695 25.5977L56.0089 28.136H55.6212L50.5008 25.7477Z" fill="#B0D0E7"/>
<path d="M50.5695 25.5979L50.6383 25.4541L56.3902 28.1362H56.0089L50.5695 25.5979Z" fill="#B0D0E7"/>
<path d="M50.6381 25.4547L50.7069 25.3047L56.7776 28.1369H56.39L50.6381 25.4547Z" fill="#B0D0E7"/>
<path d="M50.7071 25.304L50.7759 25.1602L57.0968 28.1049L57.078 28.1362H56.7779L50.7071 25.304Z" fill="#B0D0E7"/>
<path d="M50.8501 25.0118L50.7814 25.1592L57.0994 28.1053L57.1681 27.958L50.8501 25.0118Z" fill="#B0D0E7"/>
<path d="M50.9182 24.8683L50.8495 25.0156L57.1675 27.9617L57.2362 27.8144L50.9182 24.8683Z" fill="#B0D0E7"/>
<path d="M50.9918 24.7189L50.9231 24.8662L57.241 27.8123L57.3097 27.665L50.9918 24.7189Z" fill="#B0D0E7"/>
<path d="M51.0539 24.5743L50.9852 24.7217L57.3031 27.6678L57.3718 27.5205L51.0539 24.5743Z" fill="#B0D0E7"/>
<path d="M51.122 24.424L51.0533 24.5713L57.3712 27.5174L57.4399 27.3701L51.122 24.424Z" fill="#B0D0E7"/>
<path d="M51.1958 24.2765L51.1271 24.4238L57.445 27.3699L57.5137 27.2226L51.1958 24.2765Z" fill="#B0D0E7"/>
<path d="M51.2638 24.132L51.1951 24.2793L57.5131 27.2254L57.5818 27.0781L51.2638 24.132Z" fill="#B0D0E7"/>
<path d="M51.3314 23.9835L51.2627 24.1309L57.5807 27.077L57.6494 26.9296L51.3314 23.9835Z" fill="#B0D0E7"/>
<path d="M51.3995 23.8322L51.3308 23.9795L57.6488 26.9256L57.7175 26.7783L51.3995 23.8322Z" fill="#B0D0E7"/>
<path d="M51.4676 23.6876L51.3989 23.835L57.7168 26.7811L57.7855 26.6337L51.4676 23.6876Z" fill="#B0D0E7"/>
<path d="M51.5352 23.5402L51.4665 23.6875L57.7844 26.6336L57.8531 26.4863L51.5352 23.5402Z" fill="#B0D0E7"/>
<path d="M51.6032 23.3898L51.5345 23.5371L57.8525 26.4832L57.9212 26.3359L51.6032 23.3898Z" fill="#B0D0E7"/>
<path d="M51.6773 23.2472L51.6086 23.3945L57.9266 26.3406L57.9953 26.1933L51.6773 23.2472Z" fill="#B0D0E7"/>
<path d="M51.7454 23.0958L51.6767 23.2432L57.9946 26.1893L58.0633 26.0419L51.7454 23.0958Z" fill="#B0D0E7"/>
<path d="M51.8127 22.9484L51.744 23.0957L58.062 26.0418L58.1307 25.8945L51.8127 22.9484Z" fill="#B0D0E7"/>
<path d="M51.881 22.8038L51.8123 22.9512L58.1303 25.8973L58.199 25.7499L51.881 22.8038Z" fill="#B0D0E7"/>
<path d="M51.9491 22.6535L51.8804 22.8008L58.1983 25.7469L58.267 25.5996L51.9491 22.6535Z" fill="#B0D0E7"/>
<path d="M52.0229 22.506L51.9542 22.6533L58.2722 25.5994L58.3409 25.4521L52.0229 22.506Z" fill="#B0D0E7"/>
<path d="M52.0847 22.3605L52.0161 22.5078L58.334 25.4539L58.4027 25.3066L52.0847 22.3605Z" fill="#B0D0E7"/>
<path d="M52.1586 22.212L52.0899 22.3594L58.4078 25.3055L58.4765 25.1582L52.1586 22.212Z" fill="#B0D0E7"/>
<path d="M52.2267 22.0617L52.158 22.209L58.4759 25.1551L58.5446 25.0078L52.2267 22.0617Z" fill="#B0D0E7"/>
<path d="M52.2885 21.9181L52.2198 22.0654L58.5377 25.0115L58.6064 24.8642L52.2885 21.9181Z" fill="#B0D0E7"/>
<path d="M52.3623 21.7697L52.2936 21.917L58.6116 24.8631L58.6802 24.7158L52.3623 21.7697Z" fill="#B0D0E7"/>
<path d="M52.4304 21.6251L52.3617 21.7725L58.6796 24.7186L58.7483 24.5712L52.4304 21.6251Z" fill="#B0D0E7"/>
<path d="M52.5045 21.4767L52.4358 21.624L58.7537 24.5701L58.8224 24.4228L52.5045 21.4767Z" fill="#B0D0E7"/>
<path d="M52.5663 21.3253L52.4976 21.4727L58.8155 24.4188L58.8842 24.2714L52.5663 21.3253Z" fill="#B0D0E7"/>
<path d="M52.6399 21.1847L52.5712 21.332L58.8891 24.2781L58.9578 24.1308L52.6399 21.1847Z" fill="#B0D0E7"/>
<path d="M52.7082 21.0333L52.6395 21.1807L58.9574 24.1268L59.0261 23.9794L52.7082 21.0333Z" fill="#B0D0E7"/>
<path d="M52.77 20.882L52.7013 21.0293L59.0193 23.9754L59.088 23.8281L52.77 20.882Z" fill="#B0D0E7"/>
<path d="M52.8438 20.7404L52.7751 20.8877L59.0931 23.8338L59.1618 23.6865L52.8438 20.7404Z" fill="#B0D0E7"/>
<path d="M52.9119 20.59L52.8432 20.7373L59.1612 23.6834L59.2299 23.5361L52.9119 20.59Z" fill="#B0D0E7"/>
<path d="M52.9858 20.4415L52.9171 20.5889L59.235 23.535L59.3037 23.3876L52.9858 20.4415Z" fill="#B0D0E7"/>
<path d="M53.0476 20.297L52.9789 20.4443L59.2968 23.3904L59.3655 23.2431L53.0476 20.297Z" fill="#B0D0E7"/>
<path d="M53.1157 20.1456L53.047 20.293L59.3649 23.2391L59.4336 23.0917L53.1157 20.1456Z" fill="#B0D0E7"/>
<path d="M53.1895 19.9982L53.1208 20.1455L59.4387 23.0916L59.5074 22.9443L53.1895 19.9982Z" fill="#B0D0E7"/>
<path d="M53.2575 19.8537L53.1888 20.001L59.5068 22.9471L59.5755 22.7998L53.2575 19.8537Z" fill="#B0D0E7"/>
<path d="M53.3254 19.7062L53.2567 19.8535L59.5746 22.7996L59.6433 22.6523L53.3254 19.7062Z" fill="#B0D0E7"/>
<path d="M53.3935 19.5558L53.3248 19.7031L59.6427 22.6492L59.7114 22.5019L53.3935 19.5558Z" fill="#B0D0E7"/>
<path d="M53.467 19.4122L53.3983 19.5596L59.7163 22.5057L59.785 22.3583L53.467 19.4122Z" fill="#B0D0E7"/>
<path d="M53.5291 19.2619L53.4604 19.4092L59.7784 22.3553L59.8471 22.208L53.5291 19.2619Z" fill="#B0D0E7"/>
<path d="M53.5972 19.1115L53.5285 19.2588L59.8464 22.2049L59.9151 22.0576L53.5972 19.1115Z" fill="#B0D0E7"/>
<path d="M53.671 18.9699L53.6023 19.1172L59.9202 22.0633L59.9889 21.916L53.671 18.9699Z" fill="#B0D0E7"/>
<path d="M53.7391 18.8195L53.6704 18.9668L59.9883 21.9129L60.057 21.7656L53.7391 18.8195Z" fill="#B0D0E7"/>
<path d="M53.8067 18.6769L53.738 18.8242L60.0559 21.7703L60.1246 21.623L53.8067 18.6769Z" fill="#B0D0E7"/>
<path d="M53.8747 18.5265L53.806 18.6738L60.124 21.6199L60.1927 21.4726L53.8747 18.5265Z" fill="#B0D0E7"/>
<path d="M53.9428 18.3751L53.8741 18.5225L60.1921 21.4686L60.2608 21.3213L53.9428 18.3751Z" fill="#B0D0E7"/>
<path d="M54.0166 18.2345L53.9479 18.3818L60.2659 21.3279L60.3346 21.1806L54.0166 18.2345Z" fill="#B0D0E7"/>
<path d="M54.0785 18.0832L54.0098 18.2305L60.3277 21.1766L60.3964 21.0293L54.0785 18.0832Z" fill="#B0D0E7"/>
<path d="M54.1525 17.9347L54.0838 18.082L60.4018 21.0281L60.4705 20.8808L54.1525 17.9347Z" fill="#B0D0E7"/>
<path d="M54.2206 17.7902L54.1519 17.9375L60.4699 20.8836L60.5386 20.7363L54.2206 17.7902Z" fill="#B0D0E7"/>
<path d="M54.2882 17.6417L54.2195 17.7891L60.5375 20.7352L60.6062 20.5878L54.2882 17.6417Z" fill="#B0D0E7"/>
<path d="M54.3563 17.4913L54.2876 17.6387L60.6055 20.5848L60.6742 20.4374L54.3563 17.4913Z" fill="#B0D0E7"/>
<path d="M54.4244 17.3468L54.3557 17.4941L60.6736 20.4402L60.7423 20.2929L54.4244 17.3468Z" fill="#B0D0E7"/>
<path d="M54.4208 17.3453L54.6272 16.9014H61.5857V18.4769L60.7417 20.29L54.4208 17.3453Z" fill="#B0D0E7"/>
</g>
<path d="M74.2334 26.0058V54.3215C74.2666 55.8599 74.0034 57.3904 73.4582 58.8293C72.9948 60.0247 72.2583 61.0953 71.3075 61.9553C70.3733 62.8229 69.2525 63.4646 68.0314 63.831C66.6845 64.2317 65.2851 64.4277 63.88 64.4124C63.0961 64.4182 62.3128 64.3701 61.5355 64.2686C60.958 64.2036 60.3856 64.0992 59.8224 63.956C59.7403 63.9352 59.6675 63.8876 59.6154 63.8208C59.5633 63.754 59.535 63.6718 59.5348 63.5871V58.3979C59.5355 58.3413 59.5487 58.2856 59.5736 58.2348C59.5985 58.1839 59.6343 58.1393 59.6786 58.104C59.7237 58.0678 59.7761 58.0418 59.8322 58.0277C59.8884 58.0137 59.9469 58.012 60.0037 58.0228C60.4789 58.129 60.9978 58.2228 61.5417 58.3041C62.6457 58.4822 63.773 58.4568 64.8678 58.2291C65.3288 58.1241 65.7577 57.9096 66.1182 57.6039C66.4885 57.2973 66.771 56.8982 66.9373 56.4472C67.1632 55.829 67.2693 55.1733 67.2499 54.5153V26.0058C67.2499 25.903 67.2907 25.8044 67.3634 25.7317C67.4361 25.659 67.5347 25.6182 67.6375 25.6182H73.8896C73.9846 25.629 74.0723 25.6745 74.1358 25.7461C74.1993 25.8176 74.2341 25.9101 74.2334 26.0058Z" fill="#B0D0E7"/>
<path d="M67.5311 21.4848L71.9076 10.9688H72.7579L77.1343 21.4848H76.0277L74.6585 18.2024H69.9882L68.644 21.4848H67.5311ZM72.364 12.1692L70.2008 17.3584H74.4709L72.364 12.1692Z" fill="#B0D0E7"/>
<path d="M78.3036 21.4848V10.9688H82.6801C83.5286 11.006 84.3294 11.3721 84.9129 11.9894C85.4963 12.6067 85.8167 13.4268 85.8061 14.2761C85.8271 14.693 85.7656 15.1099 85.6251 15.503C85.4845 15.896 85.2678 16.2574 84.9872 16.5665C84.7066 16.8755 84.3678 17.1261 83.9901 17.3039C83.6124 17.4816 83.2033 17.583 82.7863 17.6022H79.3665V21.4848H78.3036ZM79.3665 16.6832H82.7301C83.9805 16.6832 84.7745 15.539 84.7745 14.2761C84.8037 13.6779 84.5964 13.0922 84.1976 12.6454C83.7987 12.1986 83.2402 11.9265 82.6425 11.8878H79.3665V16.6832Z" fill="#B0D0E7"/>
<path d="M85.1996 21.4848L89.5761 10.9688H90.4264L94.8028 21.4848H93.7462L92.3833 18.2024H87.6567L86.3125 21.4848H85.1996ZM90.0262 12.1692L87.863 17.3584H92.1332L90.0262 12.1692Z" fill="#B0D0E7"/>
<path d="M99.8109 10.9194C100.61 10.8871 101.402 11.0864 102.091 11.4935C102.78 11.9006 103.336 12.498 103.693 13.2139L102.862 13.7141C102.581 13.1306 102.135 12.6421 101.579 12.3088C101.024 11.9755 100.383 11.812 99.7359 11.8385C97.2351 11.8385 95.8471 14.0892 95.8471 16.2149C95.8471 18.5345 97.5477 20.6414 99.7797 20.6414C100.449 20.6522 101.107 20.4744 101.68 20.1283C102.253 19.7822 102.717 19.2819 103.018 18.6845L103.881 19.1347C103.2 20.7039 101.336 21.5792 99.7171 21.5792C96.8349 21.5792 94.803 18.8221 94.803 16.1587C94.8218 13.6203 96.6411 10.9194 99.8109 10.9194Z" fill="#B0D0E7"/>
<path d="M113.634 10.9688V21.4848H112.603V16.5456H106.351V21.4848H105.332V10.9688H106.351V15.6453H112.603V10.9688H113.634Z" fill="#B0D0E7"/>
<path d="M123.069 20.5657V21.4848H116.01V10.9688H122.937V11.8878H117.029V15.6828H122.175V16.5456H117.029V20.5532L123.069 20.5657Z" fill="#B0D0E7"/>
<path d="M182.057 32.6768V38.4287C182.057 38.4869 182.044 38.5444 182.017 38.5965C181.991 38.6486 181.954 38.6939 181.907 38.7288C181.862 38.7654 181.809 38.7907 181.753 38.8026C181.696 38.8146 181.638 38.8129 181.582 38.7976L181.182 38.7288C181 38.7288 180.807 38.6788 180.6 38.6663C180.41 38.6423 180.217 38.6298 180.025 38.6288C179.806 38.6288 179.65 38.6288 179.519 38.6288C178.819 38.6248 178.122 38.7216 177.449 38.9164C176.867 39.0905 176.332 39.3964 175.886 39.8104C175.431 40.2681 175.086 40.8242 174.88 41.436C174.619 42.2561 174.496 43.1139 174.517 43.9743V55.3844C174.518 55.435 174.509 55.4853 174.49 55.5322C174.471 55.5792 174.443 55.622 174.408 55.6581C174.372 55.6942 174.33 55.7228 174.283 55.7424C174.236 55.7619 174.186 55.772 174.136 55.772H168.002C167.901 55.7704 167.804 55.7288 167.732 55.6563C167.661 55.5838 167.621 55.4861 167.621 55.3844V32.9206C167.621 32.8195 167.661 32.7225 167.733 32.6509C167.804 32.5794 167.901 32.5392 168.002 32.5392H172.648C172.732 32.539 172.813 32.5665 172.88 32.6174C172.946 32.6682 172.995 32.7396 173.017 32.8206L173.773 35.659C174.022 35.2517 174.298 34.8612 174.598 34.4899C174.975 34.011 175.419 33.5898 175.918 33.2395C176.427 32.8752 176.993 32.5983 177.593 32.4204C178.281 32.2162 178.995 32.1171 179.713 32.1266C179.881 32.1266 180.069 32.1266 180.269 32.1266C180.478 32.1239 180.687 32.1386 180.894 32.1704C181.066 32.1812 181.237 32.2021 181.407 32.2329C181.546 32.2409 181.685 32.2639 181.819 32.3017C181.892 32.333 181.954 32.3856 181.996 32.4525C182.039 32.5195 182.06 32.5976 182.057 32.6768Z" fill="#B0D0E7"/>
<path d="M166.046 38.2352C165.629 36.9837 164.942 35.8395 164.032 34.8841C163.141 33.9585 162.048 33.2522 160.838 32.8209C159.506 32.3339 158.097 32.0944 156.68 32.1144C155.204 32.0972 153.739 32.358 152.36 32.8834C151.076 33.3895 149.927 34.1855 149.002 35.2092C148.026 36.3276 147.294 37.6371 146.852 39.0543C146.315 40.7628 146.058 42.5467 146.089 44.3373C146.055 46.115 146.337 47.8846 146.92 49.564C147.434 50.961 148.247 52.2287 149.302 53.2778C150.34 54.2659 151.582 55.013 152.941 55.466C154.41 55.9655 155.953 56.2129 157.505 56.1975C158.387 56.1975 159.143 56.16 159.825 56.0975C160.5 56.0491 161.17 55.953 161.832 55.8099C162.424 55.6763 163.009 55.5093 163.582 55.3097C164.158 55.0985 164.72 54.85 165.264 54.5657C165.326 54.5342 165.379 54.486 165.415 54.4263C165.452 54.3667 165.471 54.298 165.47 54.2281V49.4577C165.47 49.3917 165.454 49.3268 165.422 49.2689C165.39 49.211 165.345 49.162 165.289 49.1264C165.232 49.0941 165.167 49.0771 165.101 49.0771C165.036 49.0771 164.971 49.0941 164.914 49.1264C164.326 49.414 163.757 49.6766 163.22 49.8954C162.673 50.1017 162.116 50.2791 161.55 50.4268C160.98 50.5722 160.402 50.6829 159.818 50.7582C159.195 50.8233 158.569 50.8546 157.943 50.852C157.243 50.8646 156.548 50.7458 155.892 50.5018C155.326 50.2804 154.814 49.9392 154.392 49.5015C153.965 49.031 153.636 48.4806 153.423 47.8822C153.225 47.2937 153.103 46.6823 153.06 46.0629H166.358C166.459 46.0629 166.556 46.0227 166.628 45.9512C166.699 45.8796 166.739 45.7826 166.739 45.6815V42.6992C166.769 41.1823 166.534 39.6718 166.046 38.2352ZM153.204 41.2112C153.243 40.1398 153.622 39.1086 154.285 38.2665C154.595 37.9317 154.973 37.667 155.394 37.4902C155.814 37.3134 156.268 37.2284 156.724 37.2412C157.246 37.23 157.765 37.3413 158.237 37.5663C158.66 37.7655 159.03 38.061 159.318 38.4291C159.609 38.8383 159.822 39.2985 159.943 39.7858C160.071 40.2429 160.148 40.7125 160.175 41.1862L153.204 41.2112Z" fill="#B0D0E7"/>
<path d="M145.526 50.2013V54.759C145.526 54.8296 145.506 54.8987 145.47 54.9592C145.434 55.0197 145.382 55.0693 145.32 55.1029C144.608 55.447 143.856 55.7031 143.082 55.8657C142.142 56.0772 141.181 56.18 140.218 56.172C139.265 56.1798 138.315 56.0621 137.392 55.8219C136.52 55.5992 135.714 55.1704 135.041 54.5715C134.337 53.8894 133.799 53.0554 133.466 52.1332C133.072 50.9229 132.888 49.6542 132.922 48.3819V37.9097H130.377C130.327 37.9097 130.277 37.8996 130.23 37.88C130.183 37.8605 130.141 37.8318 130.106 37.7957C130.07 37.7597 130.042 37.7169 130.023 37.6699C130.004 37.6229 129.995 37.5726 129.996 37.522V34.9337C129.995 34.8675 130.012 34.8024 130.044 34.7444C130.075 34.6864 130.121 34.6375 130.177 34.6023L133.435 32.6141L135.154 28.0001C135.182 27.9265 135.232 27.8632 135.296 27.8185C135.361 27.7739 135.438 27.75 135.517 27.75H139.437C139.487 27.75 139.537 27.7601 139.584 27.7796C139.631 27.7992 139.673 27.8278 139.709 27.8639C139.744 27.9 139.772 27.9428 139.791 27.9898C139.81 28.0368 139.819 28.087 139.818 28.1376V32.5141H144.901C144.952 32.5133 145.002 32.5225 145.049 32.5413C145.096 32.5601 145.139 32.5881 145.175 32.6236C145.211 32.6591 145.239 32.7014 145.259 32.7481C145.279 32.7948 145.289 32.8449 145.289 32.8955V37.497C145.289 37.5998 145.248 37.6984 145.175 37.7711C145.102 37.8438 145.004 37.8846 144.901 37.8846H139.818V48.3256C139.791 48.6219 139.824 48.9205 139.914 49.2039C140.004 49.4874 140.15 49.7499 140.343 49.9762C140.533 50.1539 140.756 50.2915 141 50.3807C141.244 50.4699 141.503 50.5088 141.762 50.4951C142.304 50.4985 142.843 50.4355 143.369 50.3076C143.901 50.1763 144.432 50.0137 145.001 49.8136C145.059 49.792 145.121 49.7852 145.182 49.7939C145.244 49.8027 145.302 49.8267 145.351 49.8637C145.407 49.8997 145.453 49.9498 145.484 50.0091C145.515 50.0683 145.529 50.1346 145.526 50.2013Z" fill="#B0D0E7"/>
<path d="M129.146 38.2352C128.729 36.9837 128.042 35.8395 127.133 34.8841C126.243 33.9563 125.149 33.2497 123.938 32.8209C122.606 32.3339 121.197 32.0944 119.78 32.1144C118.305 32.0978 116.839 32.3586 115.46 32.8834C114.176 33.3895 113.027 34.1855 112.102 35.2092C111.127 36.3283 110.395 37.6376 109.952 39.0543C109.415 40.7628 109.158 42.5467 109.189 44.3373C109.154 46.1053 109.429 47.8658 110.002 49.539C110.515 50.936 111.328 52.2036 112.384 53.2528C113.421 54.2409 114.664 54.988 116.023 55.441C117.492 55.9405 119.035 56.1879 120.587 56.1725C121.468 56.1725 122.225 56.135 122.906 56.0725C123.581 56.0241 124.252 55.928 124.913 55.7849C125.506 55.6521 126.09 55.4851 126.664 55.2847C127.239 55.0709 127.8 54.8224 128.345 54.5407C128.408 54.5092 128.46 54.461 128.497 54.4013C128.533 54.3416 128.552 54.273 128.552 54.2031V49.4577C128.552 49.3917 128.535 49.3268 128.503 49.2689C128.472 49.211 128.426 49.162 128.37 49.1264C128.313 49.0941 128.249 49.0771 128.183 49.0771C128.117 49.0771 128.053 49.0941 127.995 49.1264C127.414 49.414 126.839 49.6766 126.301 49.8954C125.754 50.1017 125.197 50.2791 124.632 50.4268C124.061 50.5698 123.483 50.6804 122.9 50.7582C122.277 50.8235 121.651 50.8548 121.024 50.852C120.325 50.8646 119.629 50.7458 118.974 50.5018C118.42 50.2742 117.919 49.9335 117.504 49.5015C117.084 49.0276 116.757 48.4781 116.542 47.8822C116.346 47.2934 116.226 46.682 116.185 46.0629H129.477C129.579 46.0629 129.676 46.0229 129.749 45.9515C129.821 45.8802 129.863 45.7832 129.865 45.6815V42.6992C129.886 41.1808 129.643 39.6701 129.146 38.2352ZM116.304 41.2112C116.343 40.1398 116.722 39.1086 117.386 38.2665C117.695 37.9317 118.073 37.667 118.494 37.4902C118.914 37.3134 119.368 37.2284 119.824 37.2412C120.347 37.2293 120.865 37.3407 121.337 37.5663C121.761 37.7639 122.132 38.0596 122.418 38.4291C122.71 38.8383 122.922 39.2985 123.044 39.7858C123.171 40.2429 123.248 40.7125 123.275 41.1862L116.304 41.2112Z" fill="#B0D0E7"/>
<path d="M107.757 26.0058V55.3906C107.757 55.4415 107.747 55.4919 107.728 55.539C107.708 55.586 107.68 55.6287 107.644 55.6647C107.608 55.7007 107.565 55.7293 107.518 55.7488C107.471 55.7682 107.42 55.7783 107.37 55.7783H101.561C101.459 55.7783 101.36 55.7374 101.287 55.6647C101.215 55.592 101.174 55.4934 101.174 55.3906V40.3043L101.255 37.3846C101.255 36.8657 101.305 36.3718 101.324 35.8904C101.324 35.5152 101.324 35.1276 101.374 34.74L95.1217 55.5094C95.0977 55.5887 95.0489 55.6581 94.9825 55.7076C94.9161 55.7571 94.8356 55.7841 94.7528 55.7845H89.0322C88.9478 55.784 88.8657 55.7564 88.7982 55.7057C88.7307 55.6551 88.6812 55.5841 88.657 55.5032L82.9364 35.0526C82.9364 35.3402 82.9677 35.6278 82.9802 35.9091C82.9802 36.4093 83.0302 36.922 83.0427 37.4471C83.0552 37.9723 83.0864 38.4787 83.0989 38.9914C83.1114 39.5041 83.1427 39.9917 83.1427 40.4669C83.1427 40.942 83.1427 41.3484 83.1427 41.7173V55.3844C83.1435 55.435 83.1343 55.4853 83.1155 55.5322C83.0967 55.5792 83.0687 55.622 83.0332 55.6581C82.9978 55.6942 82.9554 55.7228 82.9087 55.7424C82.862 55.7619 82.8119 55.772 82.7613 55.772H77.1907C77.1401 55.772 77.09 55.7619 77.0433 55.7424C76.9966 55.7228 76.9543 55.6942 76.9188 55.6581C76.8833 55.622 76.8554 55.5792 76.8366 55.5322C76.8178 55.4853 76.8085 55.435 76.8093 55.3844V25.9995C76.8093 25.8984 76.8495 25.8014 76.921 25.7299C76.9926 25.6583 77.0896 25.6182 77.1907 25.6182H85.6748C85.7587 25.618 85.8403 25.6454 85.9069 25.6963C85.9736 25.7472 86.0217 25.8186 86.0437 25.8995L92.0894 47.3004L98.5229 25.9245C98.5448 25.8453 98.5922 25.7754 98.6577 25.7257C98.7232 25.676 98.8032 25.6492 98.8855 25.6494H107.37C107.468 25.6476 107.563 25.6836 107.635 25.75C107.707 25.8163 107.751 25.908 107.757 26.0058Z" fill="#B0D0E7"/>
<path d="M187.834 32.4391H186.471V27.131H184.852V25.9932H189.447V27.131H187.834V32.4391Z" fill="#B0D0E7"/>
<mask id="mask7_4603_78709" style="mask-type:luminance" maskUnits="userSpaceOnUse" x="184" y="25" width="6" height="8">
<path d="M187.834 32.4391H186.471V27.131H184.852V25.9932H189.447V27.131H187.834V32.4391Z" fill="white"/>
</mask>
<g mask="url(#mask7_4603_78709)">
<path d="M189.447 26H184.852V32.4459H189.447V26Z" fill="#B0D0E7"/>
</g>
<path d="M193.036 32.4391L191.617 27.3874H191.579C191.579 27.6562 191.579 27.9188 191.623 28.1689C191.623 28.2752 191.623 28.3877 191.623 28.5065C191.623 28.6253 191.623 28.7316 191.623 28.8441C191.623 28.9567 191.623 29.0629 191.623 29.163V32.4391H190.372V25.9932H192.248L193.692 30.9261L195.174 25.9932H197.05V32.4391H195.799V29.1317C195.799 29.0317 195.799 28.9316 195.799 28.8191C195.799 28.7066 195.799 28.6003 195.799 28.494C195.799 28.3877 195.799 28.2689 195.799 28.1626C195.799 27.9188 195.799 27.6625 195.799 27.3936L194.274 32.4391H193.023" fill="#B0D0E7"/>
<mask id="mask8_4603_78709" style="mask-type:luminance" maskUnits="userSpaceOnUse" x="190" y="25" width="8" height="8">
<path d="M193.035 32.4391L191.616 27.3874H191.579C191.579 27.6562 191.579 27.9188 191.623 28.1689C191.623 28.2752 191.623 28.3877 191.623 28.5065C191.623 28.6253 191.623 28.7316 191.623 28.8441C191.623 28.9567 191.623 29.0629 191.623 29.163V32.4391H190.372V25.9932H192.248L193.692 30.9261L195.174 25.9932H197.049V32.4391H195.799V29.1317C195.799 29.0317 195.799 28.9316 195.799 28.8191C195.799 28.7066 195.799 28.6003 195.799 28.494C195.799 28.3877 195.799 28.2689 195.799 28.1626C195.799 27.9188 195.799 27.6625 195.799 27.3936L194.273 32.4391H193.023" fill="white"/>
</mask>
<g mask="url(#mask8_4603_78709)">
<path d="M197.062 26H190.441V32.4459H197.062V26Z" fill="#B0D0E7"/>
</g>
</g>
<defs>
<clipPath id="clip0_4603_78709">
<rect width="162.855" height="56" fill="white" transform="translate(34.2076 9.5)"/>
</clipPath>
</defs>
</svg>
