<svg width="231" height="75" viewBox="0 0 231 75" fill="none" xmlns="http://www.w3.org/2000/svg">
<g clip-path="url(#clip0_4603_79862)">
<path d="M143.254 37.5C143.254 43.0379 141.612 48.4514 138.535 53.056C135.458 57.6605 131.085 61.2494 125.969 63.3686C120.853 65.4879 115.223 66.0424 109.791 64.962C104.36 63.8816 99.3708 61.2149 95.4549 57.299C91.5391 53.3831 88.8723 48.394 87.7919 42.9625C86.7115 37.5311 87.266 31.9012 89.3853 26.7849C91.5045 21.6685 95.0934 17.2955 99.698 14.2189C104.303 11.1422 109.716 9.5 115.254 9.5C122.68 9.5 129.802 12.45 135.053 17.701C140.304 22.952 143.254 30.0739 143.254 37.5Z" fill="#B0D0E7"/>
<path d="M135.787 34.7008C135.787 48.6151 124.924 59.8974 111.525 59.8974C98.1247 59.8974 87.2582 48.6151 87.2582 34.7008C87.2582 20.7866 98.1204 9.5 111.525 9.5C124.929 9.5 135.787 20.7823 135.787 34.7008Z" fill="#D9E8F4"/>
<path d="M137.656 31.9017C137.656 44.2685 128.045 54.2991 116.188 54.2991C104.332 54.2991 94.7254 44.2685 94.7254 31.9017C94.7254 19.5349 104.336 9.5 116.188 9.5C128.041 9.5 137.656 19.5306 137.656 31.9017Z" fill="#E6F0F7"/>
<path d="M135.787 33.7661C135.787 45.1042 127.012 54.2989 116.188 54.2989C105.365 54.2989 96.5901 45.1042 96.5901 33.7661C96.5901 22.4281 105.365 13.2334 116.188 13.2334C127.012 13.2334 135.787 22.4281 135.787 33.7661Z" fill="#D9E8F4"/>
<path d="M133.922 35.6349C133.922 39.3271 132.827 42.9364 130.776 46.0063C128.725 49.0763 125.809 51.469 122.398 52.882C118.987 54.2949 115.233 54.6646 111.612 53.9443C107.991 53.224 104.664 51.446 102.054 48.8352C99.4428 46.2245 97.6648 42.8981 96.9445 39.2769C96.2242 35.6556 96.5939 31.9021 98.0068 28.4909C99.4198 25.0798 101.813 22.1642 104.882 20.113C107.952 18.0617 111.562 16.9668 115.254 16.9668C120.205 16.9668 124.953 18.9336 128.454 22.4346C131.955 25.9355 133.922 30.6838 133.922 35.6349Z" fill="#B0D0E7"/>
<path d="M126.455 31.9013C126.455 34.855 125.579 37.7425 123.938 40.1984C122.297 42.6544 119.964 44.5686 117.235 45.699C114.507 46.8293 111.504 47.125 108.607 46.5488C105.71 45.9725 103.049 44.5502 100.96 42.4616C98.8714 40.3729 97.449 37.7119 96.8728 34.8149C96.2965 31.9178 96.5923 28.915 97.7226 26.1861C98.853 23.4572 100.767 21.1248 103.223 19.4837C105.679 17.8427 108.567 16.9668 111.52 16.9668C113.48 16.9662 115.421 17.3518 117.233 18.1013C119.044 18.8509 120.689 19.9499 122.076 21.3355C123.462 22.7211 124.562 24.3662 125.313 26.1768C126.063 27.9875 126.45 29.9283 126.45 31.8884" fill="#E6F0F7"/>
<path d="M128.324 30.0323C128.325 32.6173 127.559 35.1445 126.123 37.2942C124.688 39.444 122.647 41.1199 120.259 42.1099C117.872 43.0999 115.244 43.3596 112.708 42.8561C110.173 42.3527 107.844 41.1086 106.015 39.2814C104.187 37.4541 102.941 35.1257 102.436 32.5906C101.931 30.0555 102.189 27.4275 103.177 25.039C104.166 22.6505 105.84 20.6087 107.989 19.1718C110.138 17.735 112.665 16.9676 115.25 16.9668C116.965 16.9662 118.664 17.3036 120.25 17.9597C121.835 18.6158 123.276 19.5777 124.49 20.7906C125.703 22.0034 126.666 23.4434 127.323 25.0284C127.98 26.6134 128.319 28.3123 128.319 30.028" fill="#D9E8F4"/>
<path d="M128.324 30.967C128.324 37.6669 123.308 43.098 117.123 43.098C110.937 43.098 105.905 37.6669 105.905 30.967C105.905 24.267 110.92 18.8359 117.106 18.8359C123.291 18.8359 128.307 24.267 128.307 30.967" fill="#B0D0E7"/>
<path d="M115.254 43.0978C110.11 43.0978 105.922 38.5026 105.922 32.8314C105.922 27.1603 110.101 22.5693 115.254 22.5693C120.406 22.5693 124.59 27.1646 124.59 32.8314C124.59 38.4983 120.411 43.0978 115.254 43.0978Z" fill="#012842"/>
<path d="M120.351 29.8738C119.459 31.3569 117.714 32.2185 116.45 31.7899C115.185 31.3612 114.877 29.8138 115.764 28.3263C116.651 26.8389 118.396 25.9816 119.665 26.4102C120.934 26.8389 121.234 28.3863 120.351 29.8738Z" fill="#FFFFFE"/>
</g>
<defs>
<clipPath id="clip0_4603_79862">
<rect width="56" height="56" fill="white" transform="translate(87.2539 9.5)"/>
</clipPath>
</defs>
</svg>
