<svg width="231" height="75" viewBox="0 0 231 75" fill="none" xmlns="http://www.w3.org/2000/svg">
<path d="M108.69 32.3382H106.996C105.275 32.3382 103.55 32.3382 101.828 32.3382C101.668 32.3612 101.505 32.328 101.366 32.244C101.228 32.1601 101.123 32.0308 101.069 31.878C97.2404 23.7512 101.529 13.5536 110.066 10.7097C116.425 8.60667 122.132 9.88597 126.807 14.7455C128.308 16.2797 129.463 18.1185 130.191 20.1375C130.92 22.1565 131.207 24.3085 131.032 26.4479C130.861 29.3793 129.738 31.9701 128.27 34.432C125.546 39.0661 122.873 43.7323 120.176 48.3893C120.139 48.4538 120.088 48.5136 119.992 48.6562L118.441 45.9964C117.815 44.9196 117.208 43.8289 116.559 42.7751C116.456 42.6351 116.4 42.4658 116.4 42.2919C116.4 42.1181 116.456 41.9487 116.559 41.8087C118.86 37.8098 121.248 33.8292 123.489 29.7842C126.595 24.193 123.029 17.2259 116.697 16.3055C115.476 16.1257 114.232 16.1921 113.037 16.5005C111.842 16.809 110.721 17.3535 109.74 18.1017C108.759 18.85 107.938 19.7871 107.324 20.8577C106.711 21.9283 106.317 23.1108 106.168 24.3357C105.907 26.358 106.346 28.4087 107.41 30.1478C107.829 30.838 108.225 31.5375 108.69 32.3382Z" fill="#B0D0E7"/>
<path d="M110.733 51.9138L113.264 56.2809C113.563 56.7917 113.83 57.3301 114.161 57.8179C114.273 57.9532 114.329 58.1262 114.318 58.3014C114.307 58.4767 114.23 58.6411 114.102 58.7613C111.005 62.9029 106.891 65.0519 101.727 65.2038C98.6043 65.2769 95.5308 64.4135 92.9027 62.7247C90.2746 61.0359 88.2122 58.5991 86.9811 55.7279C85.75 52.8568 85.4065 49.6829 85.9949 46.6149C86.5833 43.5469 88.0767 40.7252 90.2826 38.5133C91.7385 37.035 93.4776 35.8656 95.3958 35.0749C97.314 34.2842 99.372 33.8885 101.447 33.9115C107.153 33.9115 112.859 33.9115 118.565 33.9115H119.265C118.832 34.6708 118.45 35.3518 118.059 36.0283C117.314 37.3122 116.55 38.5823 115.837 39.88C115.763 40.036 115.642 40.1646 115.49 40.2473C115.339 40.33 115.165 40.3625 114.994 40.3402C110.494 40.3402 105.996 40.3402 101.502 40.3402C99.8715 40.3235 98.2658 40.739 96.8481 41.5443C95.4304 42.3496 94.2513 43.516 93.4307 44.9249C92.6101 46.3338 92.1773 47.9349 92.1763 49.5654C92.1754 51.1958 92.6062 52.7974 93.4251 54.2073C94.244 55.6172 95.4217 56.7851 96.8384 57.5921C98.2551 58.3991 99.8603 58.8165 101.491 58.8018C103.121 58.7871 104.718 58.3409 106.12 57.5085C107.522 56.6761 108.679 55.4872 109.472 54.0628C109.877 53.3771 110.287 52.6823 110.733 51.9138Z" fill="#B0D0E7"/>
<path d="M106.877 41.9836C109.1 41.9836 111.235 42.0113 113.37 41.9836C113.656 41.9505 113.945 42.0106 114.193 42.1549C114.442 42.2992 114.638 42.52 114.751 42.7844C116.927 46.6177 119.145 50.428 121.363 54.2383C122.129 55.5701 123.215 56.6899 124.522 57.4964C125.829 58.3029 127.317 58.7705 128.851 58.857C130.385 58.9435 131.916 58.646 133.305 57.9916C134.695 57.3372 135.9 56.3464 136.81 55.1091C137.721 53.8718 138.308 52.4269 138.519 50.9053C138.73 49.3838 138.558 47.8336 138.019 46.3951C137.48 44.9567 136.591 43.6753 135.432 42.6672C134.273 41.6591 132.881 40.9559 131.382 40.6215C130.315 40.4631 129.239 40.3801 128.16 40.373C127.728 40.3454 127.295 40.373 126.78 40.373C127.056 39.8852 127.286 39.4526 127.53 39.0385C128.45 37.4831 129.32 35.9184 130.24 34.3722C130.304 34.2768 130.388 34.197 130.487 34.1388C130.586 34.0806 130.697 34.0456 130.811 34.0363C133.484 34.2783 136.049 35.2035 138.261 36.7232C140.472 38.2429 142.256 40.3058 143.44 42.7139C144.625 45.1219 145.17 47.7941 145.023 50.4736C144.876 53.1531 144.043 55.7498 142.603 58.0143C141.163 60.2787 139.165 62.1348 136.801 63.4041C134.436 64.6733 131.785 65.3132 129.102 65.2621C126.419 65.211 123.795 64.4707 121.48 63.1123C119.166 61.754 117.24 59.8232 115.887 57.5056C112.956 52.508 110.071 47.4874 107.144 42.4714C107.043 42.3426 106.992 42.2137 106.877 41.9836Z" fill="#B0D0E7"/>
</svg>
