<svg width="212" height="55" viewBox="0 0 212 55" fill="none" xmlns="http://www.w3.org/2000/svg">
<g clip-path="url(#clip0_1309_47174)">
<path d="M16.2102 6.35701C14.145 3.90671 12.3652 1.41617 12.0012 0.898901C11.9926 0.889738 11.9822 0.882434 11.9707 0.877441C11.9591 0.872449 11.9467 0.869873 11.9341 0.869873C11.9216 0.869873 11.9091 0.872449 11.8976 0.877441C11.8861 0.882434 11.8757 0.889738 11.8671 0.898901C11.5031 1.41617 9.72522 3.90671 7.65232 6.35701C-10.0784 28.9788 10.4513 44.2458 10.4513 44.2458L10.6237 44.3607C10.7847 46.7152 11.1678 50.1062 11.1678 50.1062H12.7005C12.7005 50.1062 13.0836 46.7344 13.235 44.3588L13.4074 44.2247C13.417 44.2458 33.9467 28.9788 16.2102 6.35701ZM11.9341 43.9009C11.9341 43.9009 11.0165 43.1154 10.7674 42.7131V42.6748L11.8671 18.0415C11.8671 18.0262 11.8731 18.0116 11.8839 18.0008C11.8947 17.9901 11.9093 17.984 11.9246 17.984C11.9398 17.984 11.9544 17.9901 11.9652 18.0008C11.976 18.0116 11.982 18.0262 11.982 18.0415L13.0836 42.6748V42.7131C12.8441 43.1154 11.9341 43.9009 11.9341 43.9009Z" fill="#B0D0E7"/>
<path d="M50.346 38.874L41.792 17.9784L41.7709 17.9209H35.1154V19.3252H36.1902C36.351 19.326 36.51 19.3587 36.658 19.4216C36.806 19.4844 36.94 19.576 37.0523 19.6911C37.1649 19.805 37.2536 19.9403 37.3131 20.089C37.3727 20.2377 37.4019 20.3969 37.399 20.557L37.2075 41.5868C37.2042 41.9031 37.0787 42.2059 36.8574 42.4319C36.636 42.6579 36.3359 42.7896 36.0197 42.7995L34.9238 42.8263V44.2114H41.4069V42.8263L40.7364 42.8071C40.42 42.7973 40.1196 42.6656 39.898 42.4397C39.6763 42.2137 39.5504 41.9109 39.5467 41.5944V21.7697L48.8689 44.2037C48.9302 44.3626 49.0381 44.4991 49.1785 44.5954C49.3189 44.6917 49.4851 44.7432 49.6554 44.7432C49.8256 44.7432 49.9918 44.6917 50.1322 44.5954C50.2726 44.4991 50.3805 44.3626 50.4418 44.2037L59.5533 22.2698L59.6874 41.5868C59.6886 41.9089 59.5639 42.2188 59.3398 42.4504C59.1158 42.6819 58.8102 42.8168 58.4882 42.8263H57.7985V44.2114H65.385V42.8263H64.3486C64.0304 42.8171 63.7279 42.6862 63.5033 42.4605C63.2788 42.2349 63.1493 41.9318 63.1416 41.6136L63.0861 20.5762C63.0859 20.2567 63.2099 19.9496 63.4319 19.7197C63.6538 19.4899 63.9564 19.3553 64.2758 19.3443L65.3889 19.3252V17.9209H58.902L50.346 38.874Z" fill="#B0D0E7"/>
<path d="M109.998 42.4529C109.89 42.3407 109.804 42.2077 109.748 42.0619C109.692 41.9161 109.666 41.7604 109.671 41.6042V31.2742C109.671 29.3067 109.096 27.7664 107.947 26.6763C106.797 25.5862 105.234 25.0095 103.266 25.0095C100.517 25.0095 98.3446 26.1283 96.8234 28.3239C96.8083 28.3447 96.7879 28.3612 96.7644 28.3717C96.7408 28.3821 96.7149 28.3861 96.6893 28.3832C96.6764 28.3838 96.6635 28.3817 96.6515 28.3769C96.6395 28.3722 96.6287 28.365 96.6196 28.3558C96.6106 28.3465 96.6036 28.3355 96.5991 28.3234C96.5946 28.3113 96.5927 28.2984 96.5935 28.2855L95.8808 25.5306H94.6969L91.6316 27.2836V28.2415H92.4209C92.7411 28.224 93.0563 28.3272 93.3041 28.5308C93.4192 28.6464 93.508 28.7855 93.5646 28.9386C93.6211 29.0916 93.644 29.2551 93.6317 29.4178V41.5793C93.6393 41.7354 93.6142 41.8915 93.5581 42.0374C93.5019 42.1833 93.4159 42.3159 93.3055 42.4266C93.1951 42.5374 93.0628 42.6238 92.9171 42.6805C92.7714 42.7371 92.6154 42.7627 92.4592 42.7556H91.6929V44.1675H98.72V42.7613H97.9537C97.7974 42.7687 97.6412 42.7433 97.4953 42.6868C97.3493 42.6303 97.2168 42.5439 97.1062 42.4331C96.9956 42.3223 96.9094 42.1897 96.8531 42.0436C96.7968 41.8976 96.7717 41.7414 96.7793 41.585V33.5291C96.7909 32.48 97.0138 31.444 97.4345 30.483C97.8636 29.5096 98.5399 28.6655 99.3963 28.0346C100.298 27.3923 101.385 27.0615 102.492 27.092C103.833 27.092 104.858 27.5154 105.492 28.3641C106.127 29.2128 106.45 30.3105 106.45 31.6209V41.5659C106.458 41.7221 106.433 41.8782 106.377 42.0242C106.32 42.1702 106.234 42.3027 106.123 42.4133C106.013 42.524 105.88 42.6102 105.734 42.6665C105.588 42.7228 105.432 42.7479 105.276 42.7402H104.51V44.1484H111.556V42.7402H110.79C110.645 42.7558 110.498 42.7379 110.361 42.6881C110.224 42.6383 110.1 42.5579 109.998 42.4529Z" fill="#B0D0E7"/>
<path d="M174.308 19.4938C172.316 18.4419 170.093 17.9015 167.84 17.9209H158.685V19.3214H159.581C159.763 19.3239 159.942 19.3644 160.107 19.4403C160.272 19.5162 160.419 19.6258 160.539 19.762C160.672 19.8846 160.779 20.0324 160.855 20.1969C160.93 20.3613 160.972 20.5391 160.978 20.7199V41.3665C160.972 41.5472 160.93 41.725 160.855 41.8895C160.779 42.0539 160.672 42.2018 160.539 42.3244C160.417 42.4587 160.27 42.567 160.105 42.6428C159.941 42.7185 159.762 42.7601 159.581 42.765H158.685V44.1674H167.84C170.093 44.1868 172.316 43.6463 174.308 42.5945C176.259 41.5523 177.878 39.9831 178.981 38.0655C180.13 36.1095 180.716 33.7493 180.716 31.0633C180.716 28.3773 180.124 26.0362 178.981 24.0611C177.88 22.1325 176.261 20.5504 174.308 19.4938ZM177.034 31.025C177.034 33.481 176.595 35.552 175.737 37.2226C174.879 38.8932 173.735 40.1442 172.323 40.945C170.905 41.7503 169.3 42.1672 167.67 42.1539H165.819C165.637 42.151 165.458 42.1101 165.293 42.0339C165.128 41.9577 164.981 41.8478 164.861 41.7113C164.728 41.589 164.62 41.4412 164.545 41.2767C164.47 41.1122 164.428 40.9343 164.422 40.7534V21.2793C164.425 21.098 164.466 20.9193 164.542 20.7545C164.617 20.5896 164.726 20.4422 164.861 20.3214C164.983 20.1867 165.13 20.078 165.295 20.002C165.459 19.9259 165.638 19.884 165.819 19.8789H167.67C169.3 19.8655 170.905 20.2825 172.323 21.0877C173.735 21.8943 174.879 23.1415 175.737 24.8101C176.595 26.4788 177.034 28.5881 177.034 31.025Z" fill="#B0D0E7"/>
<path d="M202.365 32.4253C201.518 31.4463 199.874 30.6225 197.958 30.18C200.612 28.8561 201.981 26.9959 201.981 24.5973C202.004 23.3598 201.641 22.1459 200.943 21.124C200.206 20.0828 199.195 19.2664 198.021 18.7656C196.639 18.1792 195.149 17.8913 193.648 17.9208H183.283V19.3212H184.111C184.292 19.3249 184.471 19.3659 184.636 19.4417C184.8 19.5175 184.948 19.6265 185.069 19.7618C185.202 19.8841 185.31 20.0318 185.386 20.1963C185.461 20.3608 185.503 20.5388 185.509 20.7197V41.3663C185.482 41.7289 185.325 42.0697 185.068 42.3267C184.811 42.5837 184.47 42.7398 184.107 42.7668H183.207V44.1672H194.456C196.08 44.1847 197.692 43.8914 199.205 43.3032C200.562 42.797 201.748 41.9193 202.629 40.7705C203.474 39.6593 203.897 38.2953 203.897 36.7224C203.878 35.0346 203.378 33.5958 202.365 32.4253ZM189.462 41.7303C189.327 41.6089 189.218 41.4614 189.142 41.2967C189.066 41.1321 189.024 40.9537 189.019 40.7724V31.5038H194.366C196.249 31.5038 197.691 31.9834 198.692 32.9425C199.693 33.9017 200.193 35.1489 200.192 36.6841C200.187 37.606 199.963 38.5135 199.539 39.3317C199.087 40.1858 198.4 40.8921 197.558 41.3663C196.692 41.8836 195.615 42.1537 194.366 42.1537H190.418C190.237 42.1499 190.06 42.1105 189.895 42.0379C189.729 41.9652 189.58 41.8607 189.456 41.7303H189.462ZM189.038 29.5286V21.2906C189.041 21.109 189.082 20.9299 189.158 20.765C189.235 20.6 189.344 20.4528 189.481 20.3327C189.603 20.1992 189.751 20.0914 189.915 20.0157C190.08 19.94 190.258 19.898 190.439 19.8921H192.977C194.803 19.8921 196.15 20.3519 197 21.2332C197.851 22.1144 198.269 23.2869 198.269 24.7065C198.269 26.1644 197.864 27.335 197.077 28.2182C196.29 29.1014 195.096 29.5228 193.519 29.5228L189.038 29.5286Z" fill="#B0D0E7"/>
<path d="M83.202 26.2335C81.7035 25.4183 80.0225 24.9971 78.3167 25.0093C76.6095 24.9855 74.9256 25.4074 73.4314 26.2335C71.9713 27.0386 70.7625 28.2321 69.9389 29.6819C69.0597 31.2352 68.6119 32.9953 68.6419 34.7798C68.6106 36.567 69.0584 38.3299 69.9389 39.8854C70.7625 41.3352 71.9713 42.5288 73.4314 43.3339C74.9306 44.1463 76.6116 44.5649 78.3167 44.5504C80.0239 44.5742 81.7078 44.1522 83.202 43.3262C84.6621 42.5211 85.8709 41.3276 86.6945 39.8778C87.5737 38.3245 88.0215 36.5644 87.9915 34.7798C88.0228 32.9927 87.575 31.2297 86.6945 29.6742C85.8698 28.2273 84.6611 27.0365 83.202 26.2335ZM84.6139 34.7798C84.6139 37.1324 84.0392 39.0444 82.8897 40.4199C81.7402 41.7955 80.2191 42.5043 78.311 42.5043C76.4028 42.5043 74.8625 41.7974 73.7322 40.4199C72.6019 39.0425 72.008 37.1324 72.008 34.7798C72.008 32.4272 72.5827 30.5153 73.7322 29.1397C74.8817 27.7642 76.4028 27.0553 78.311 27.0553C80.2191 27.0553 81.7594 27.7623 82.8897 29.1397C84.02 30.5172 84.6139 32.4272 84.6139 34.7798Z" fill="#B0D0E7"/>
<path d="M150.83 26.2335C149.331 25.4183 147.65 24.9971 145.944 25.0093C144.237 24.9855 142.553 25.4074 141.059 26.2335C139.599 27.0386 138.39 28.2321 137.567 29.6819C136.687 31.2352 136.24 32.9953 136.27 34.7798C136.238 36.567 136.686 38.3299 137.567 39.8854C138.39 41.3352 139.599 42.5288 141.059 43.3339C142.558 44.1463 144.239 44.5649 145.944 44.5504C147.652 44.5742 149.335 44.1522 150.83 43.3262C152.29 42.5211 153.499 41.3276 154.322 39.8778C155.201 38.3245 155.649 36.5644 155.619 34.7798C155.651 32.9927 155.203 31.2297 154.322 29.6742C153.492 28.2314 152.285 27.0419 150.83 26.2335ZM152.242 34.7798C152.242 37.1324 151.667 39.0444 150.517 40.4199C149.368 41.7955 147.845 42.5043 145.937 42.5043C144.029 42.5043 142.488 41.7974 141.356 40.4199C140.224 39.0425 139.632 37.1324 139.632 34.7798C139.632 32.4272 140.207 30.5153 141.356 29.1397C142.506 27.7642 144.029 27.0553 145.937 27.0553C147.845 27.0553 149.385 27.7623 150.517 29.1397C151.65 30.5172 152.242 32.4272 152.242 34.7798Z" fill="#B0D0E7"/>
<path d="M123.556 25.0093C122.093 24.9901 120.647 25.3261 119.342 25.9883C118.123 26.5899 117.093 27.5135 116.362 28.6589C115.656 29.7588 115.283 31.0396 115.288 32.3468C115.273 33.4861 115.557 34.6092 116.113 35.6037C116.659 36.5491 117.407 37.3623 118.303 37.985L115.556 41.7113C115.39 41.9352 115.289 42.201 115.265 42.479C115.241 42.7569 115.295 43.0361 115.421 43.2851C115.546 43.5342 115.739 43.7434 115.976 43.8894C116.214 44.0354 116.488 44.1124 116.767 44.1118H117.554C116.818 44.5877 116.2 45.2252 115.747 45.9758C115.265 46.7509 115.007 47.6451 115.004 48.5583C115.004 50.2117 115.734 51.5757 117.177 52.593C118.619 53.6103 120.596 54.1256 123.116 54.1256C124.799 54.1364 126.471 53.8504 128.055 53.2808C129.587 52.7233 130.842 51.8976 131.764 50.8228C132.705 49.7516 133.213 48.3674 133.187 46.9414C133.187 45.3666 132.612 44.2593 131.271 43.1768C130.122 42.2745 128.313 41.7936 126.064 41.7936H118.366C118.352 41.7911 118.339 41.7845 118.328 41.7745C118.328 41.7745 118.309 41.7362 118.328 41.717L120.328 39.0349C120.801 39.2564 121.297 39.4241 121.807 39.5349C122.32 39.6321 122.842 39.677 123.365 39.669C124.87 39.6957 126.36 39.3599 127.708 38.69C128.933 38.0836 129.974 37.1618 130.725 36.0194C131.446 34.9252 131.827 33.6419 131.819 32.3315C131.819 30.91 131.128 28.3083 129.244 26.9922C129.244 26.9871 129.246 26.9822 129.25 26.9786C129.253 26.975 129.258 26.973 129.263 26.973L133.396 27.4328V25.5323H126.784C125.742 25.1932 124.653 25.0168 123.556 25.0093ZM125.855 37.0329C125.148 37.4146 124.36 37.619 123.556 37.6287C122.295 37.6359 121.081 37.1467 120.177 36.2666C119.219 35.3623 118.736 34.0366 118.736 32.3468C118.736 30.6571 119.219 29.3314 120.177 28.429C121.08 27.5458 122.297 27.0556 123.56 27.065C124.392 27.065 125.21 27.2831 125.932 27.6976C126.653 28.112 127.254 28.7084 127.673 29.4272C128.166 30.3198 128.411 31.3277 128.384 32.3468C128.384 33.5193 128.152 34.4983 127.673 35.2665C127.249 36.0145 126.621 36.6269 125.863 37.0329H125.855ZM120.646 44.1022H125.855C127.296 44.1022 128.219 44.3915 128.834 45.0064C129.142 45.3239 129.382 45.7002 129.54 46.1127C129.698 46.5252 129.772 46.9654 129.756 47.4069C129.771 48.0692 129.627 48.7255 129.336 49.3206C129.045 49.9157 128.616 50.4322 128.083 50.8266C126.968 51.6907 125.47 52.1313 123.625 52.1313C122.01 52.1313 120.665 51.7673 119.686 51.0757C118.707 50.3841 118.205 49.3266 118.205 47.9836C118.198 47.1566 118.439 46.3465 118.897 45.6578C119.331 44.99 119.938 44.4524 120.654 44.1022H120.646Z" fill="#B0D0E7"/>
<path d="M207.796 43.8474C207.425 43.6433 207.116 43.3427 206.902 42.9775C206.688 42.6123 206.577 42.1959 206.58 41.7726C206.579 41.3487 206.691 40.9322 206.903 40.5656C207.111 40.1964 207.421 39.8951 207.796 39.6977C208.188 39.4878 208.626 39.3779 209.07 39.3779C209.515 39.3779 209.952 39.4878 210.344 39.6977C210.715 39.9018 211.024 40.2024 211.238 40.5676C211.452 40.9329 211.564 41.3492 211.561 41.7726C211.561 42.1964 211.45 42.6129 211.237 42.9795C211.029 43.3487 210.719 43.65 210.344 43.8474C209.954 44.0607 209.515 44.1709 209.07 44.1673C208.624 44.1778 208.184 44.0673 207.796 43.8474ZM210.135 43.583C210.443 43.408 210.699 43.1541 210.877 42.8473C211.052 42.5161 211.143 42.1472 211.143 41.7726C211.143 41.3979 211.052 41.029 210.877 40.6978C210.71 40.3832 210.451 40.1267 210.135 39.9621C209.807 39.7885 209.441 39.6977 209.07 39.6977C208.699 39.6977 208.333 39.7885 208.005 39.9621C207.697 40.1371 207.441 40.3911 207.264 40.6978C207.088 41.029 206.997 41.3979 206.997 41.7726C206.997 42.1472 207.088 42.5161 207.264 42.8473C207.431 43.1619 207.689 43.4184 208.005 43.583C208.332 43.7588 208.699 43.8497 209.07 43.8474C209.441 43.8551 209.808 43.7673 210.135 43.5926V43.583ZM208.043 42.922V42.7534L208.082 42.7343H208.197C208.231 42.7332 208.265 42.7196 208.29 42.696C208.305 42.6851 208.315 42.6706 208.322 42.6542C208.329 42.6377 208.331 42.6197 208.329 42.6021V40.8491C208.328 40.8136 208.315 40.7795 208.29 40.7533C208.279 40.7401 208.264 40.7298 208.248 40.7235C208.232 40.7171 208.214 40.7149 208.197 40.717H208.082L208.043 40.6978V40.5273L208.082 40.51H209.07C209.307 40.4951 209.542 40.5628 209.735 40.7016C209.817 40.7623 209.882 40.8424 209.925 40.9347C209.969 41.027 209.988 41.1287 209.982 41.2304C209.986 41.3152 209.97 41.3998 209.937 41.4779C209.904 41.5561 209.854 41.626 209.791 41.6825C209.665 41.8127 209.496 41.893 209.315 41.9086L209.543 41.9833L209.98 42.6806C209.993 42.7049 210.012 42.7249 210.036 42.7385C210.06 42.7521 210.087 42.7586 210.114 42.7573H210.227L210.246 42.7764V42.945L210.227 42.9642H209.645L209.607 42.945L208.997 41.9277H208.846V42.6059C208.847 42.6409 208.86 42.6743 208.884 42.6998C208.895 42.7137 208.91 42.7245 208.926 42.7313C208.943 42.738 208.961 42.7403 208.978 42.7381H209.093L209.131 42.7573V42.9259L209.093 42.945H208.085L208.043 42.922ZM209.013 41.6787C209.079 41.6847 209.146 41.676 209.209 41.6531C209.271 41.6303 209.328 41.5938 209.375 41.5465C209.463 41.4483 209.51 41.3201 209.507 41.1882C209.513 41.0592 209.473 40.9323 209.394 40.83C209.354 40.7848 209.303 40.7494 209.247 40.7265C209.191 40.7036 209.131 40.6938 209.07 40.6978H208.994C208.959 40.6986 208.925 40.7122 208.9 40.7361C208.886 40.747 208.875 40.7614 208.868 40.7779C208.861 40.7944 208.859 40.8124 208.861 40.83V41.6768L209.013 41.6787Z" fill="#B0D0E7"/>
</g>
<defs>
<clipPath id="clip0_1309_47174">
<rect width="211.121" height="53.2592" fill="white" transform="translate(0.439453 0.870361)"/>
</clipPath>
</defs>
</svg>
