<svg width="231" height="75" viewBox="0 0 231 75" fill="none" xmlns="http://www.w3.org/2000/svg">
<g clip-path="url(#clip0_4756_7275)">
<path fill-rule="evenodd" clip-rule="evenodd" d="M115.381 65.4653C146.128 65.4653 171.052 52.8284 171.052 37.2494C171.052 21.6705 146.142 9.03357 115.381 9.03357C84.6201 9.03357 59.7031 21.6637 59.7031 37.2494C59.7031 52.8351 84.6134 65.4653 115.381 65.4653Z" fill="#B0D0E7"/>
<path fill-rule="evenodd" clip-rule="evenodd" d="M93.4867 27.0365C96.0181 27.0365 97.7012 27.5078 98.5428 28.4369C99.3844 29.366 99.5864 30.975 99.1487 33.2439C98.7111 35.5127 97.8022 37.2834 96.4558 38.3067C95.1093 39.33 93.1433 39.8215 90.4571 39.8215H86.4176L88.9019 27.0298L93.4867 27.0365ZM77.2749 52.7613H83.9333L85.5087 44.642H91.2111C93.3088 44.6989 95.4027 44.4309 97.4185 43.8475C99.0712 43.3021 100.582 42.396 101.842 41.1949C104.028 39.2331 105.499 36.5991 106.023 33.7084C106.732 30.0908 106.2 27.2721 104.427 25.2524C102.654 23.2327 99.8489 22.2206 96.0114 22.2161H83.2197L77.2816 52.7613H77.2749Z" fill="#012842"/>
<path fill-rule="evenodd" clip-rule="evenodd" d="M110.91 14.0966H117.508L115.933 22.216H121.81C125.513 22.216 128.067 22.8623 129.472 24.1549C130.877 25.4475 131.296 27.5391 130.731 30.4296L127.97 44.6419H121.238L123.864 31.1298C124.166 29.588 124.052 28.5445 123.534 27.9857C123.015 27.4269 121.911 27.1441 120.221 27.1441H114.95L111.55 44.6486H104.945L110.883 14.1033L110.91 14.0966Z" fill="#012842"/>
<path fill-rule="evenodd" clip-rule="evenodd" d="M145.428 27.0365C147.952 27.0365 149.642 27.5078 150.484 28.4369C151.325 29.366 151.527 30.975 151.083 33.2439C150.639 35.5127 149.736 37.2834 148.424 38.3067C147.111 39.33 145.111 39.8215 142.432 39.8215H138.392L140.877 27.0298L145.428 27.0365ZM129.216 52.7613H135.868L137.45 44.642H143.145C145.243 44.6998 147.337 44.4318 149.353 43.8475C151.008 43.3022 152.521 42.3962 153.783 41.1949C155.963 39.2283 157.433 36.5964 157.964 33.7084C158.664 30.0908 158.132 27.2721 156.368 25.2524C154.604 23.2327 151.797 22.2206 147.946 22.2161H135.154L129.216 52.7613Z" fill="#012842"/>
</g>
<defs>
<clipPath id="clip0_4756_7275">
<rect width="111.355" height="56.4317" fill="white" transform="translate(59.7031 9.03381)"/>
</clipPath>
</defs>
</svg>
