<svg width="231" height="75" viewBox="0 0 231 75" fill="none" xmlns="http://www.w3.org/2000/svg">
<g clip-path="url(#clip0_4603_78668)">
<path d="M137.795 20.3873C128.344 8.14877 110.761 5.88809 98.5222 15.3403C86.2833 24.7926 84.0229 42.3747 93.4752 54.6136C102.927 66.8524 120.51 69.1128 132.748 59.6606L132.755 59.6557C144.987 50.2026 147.244 32.6236 137.795 20.3873H137.795Z" fill="#B0D0E7"/>
<path d="M124.195 27.9133C123.728 27.9746 123.294 28.1888 122.961 28.5224L112.672 38.7663L110.653 36.7473C115.99 31.4349 119.253 28.662 121.281 27.7526C121.723 27.4737 122.242 27.3393 122.764 27.3681C123.286 27.3969 123.786 27.5874 124.195 27.9133Z" fill="white"/>
<path d="M125.819 31.7197C125.059 34.7448 121.015 38.8407 116.801 42.8241L115.098 41.1211L125.819 31.7197Z" fill="white"/>
<path d="M111.766 39.0495L107.423 39.979L110.059 37.3428L110.12 37.4028L111.766 39.0495Z" fill="white"/>
<path d="M127.207 26.0029L129.96 28.7561C129.402 28.9955 128.798 29.1078 128.191 29.0849C127.584 29.062 126.989 28.9045 126.451 28.6237C125.912 28.3429 125.443 27.946 125.076 27.4615C124.71 26.9771 124.456 26.4173 124.333 25.8225C124.209 25.2278 124.219 24.6131 124.363 24.0229C124.506 23.4327 124.779 22.8816 125.161 22.4097C125.543 21.9378 126.026 21.5568 126.574 21.2942C127.121 21.0317 127.721 20.8942 128.328 20.8916C129.24 20.8975 130.124 21.2008 130.848 21.7553L127.208 25.4187C127.187 25.436 127.168 25.4557 127.151 25.4773C127.144 25.4856 127.138 25.4942 127.132 25.5028C127.117 25.5261 127.104 25.5511 127.094 25.5774C127.065 25.6512 127.061 25.7322 127.081 25.8087C127.101 25.8852 127.146 25.9532 127.207 26.0029Z" fill="white"/>
<path d="M131.539 22.4395L128.226 25.5684L128.094 25.6996L128.565 26.1704L130.751 28.3212C130.925 28.198 131.09 28.0626 131.244 27.916C132.019 27.1429 132.456 26.0937 132.458 24.999C132.459 24.0648 132.134 23.1594 131.539 22.4395ZM131.057 26.2825C130.997 26.3062 130.93 26.3062 130.871 26.2825C130.815 26.222 130.784 26.1432 130.783 26.0611C130.782 26.0202 130.788 25.9794 130.804 25.9412C130.819 25.9031 130.841 25.8686 130.871 25.8398C130.986 25.6928 131.058 25.5168 131.078 25.3313C131.099 25.1458 131.067 24.9582 130.987 24.7896C130.946 24.7123 130.938 24.622 130.964 24.5386C130.977 24.4972 130.998 24.4589 131.026 24.4258C131.054 24.3927 131.088 24.3656 131.127 24.3461C131.205 24.311 131.294 24.3059 131.376 24.3317C131.457 24.3576 131.527 24.4125 131.571 24.4862C131.7 24.7611 131.749 25.0669 131.712 25.3684C131.674 25.6698 131.553 25.9546 131.36 26.1898C131.323 26.2315 131.275 26.2622 131.222 26.2785C131.168 26.2948 131.111 26.2962 131.057 26.2825Z" fill="white"/>
<path d="M125.784 30.0384C125.779 30.2163 125.737 30.3911 125.66 30.5518C125.584 30.7125 125.475 30.8556 125.341 30.9722L114.437 40.4616L114.4 40.4936L113.828 39.9217L113.742 39.8359L113.498 39.5922L113.405 39.4984L113.218 39.3117L123.542 29.0798C123.715 28.9072 123.933 28.7868 124.171 28.7324C124.243 28.7158 124.316 28.7055 124.389 28.7015C124.616 28.6881 124.842 28.7341 125.045 28.8347C125.092 28.858 125.137 28.8841 125.18 28.9128C125.227 28.9432 125.271 28.9766 125.313 29.0126C125.338 29.0341 125.363 29.0564 125.386 29.0798C125.422 29.1132 125.456 29.1489 125.488 29.1865C125.579 29.3199 125.657 29.4614 125.722 29.6092C125.767 29.7477 125.788 29.8928 125.784 30.0384Z" fill="white"/>
<path d="M104.482 53.7203C104.493 53.7325 104.502 53.7468 104.508 53.7624C104.514 53.7781 104.516 53.7947 104.516 53.8114C104.515 53.8281 104.511 53.8445 104.503 53.8595C104.496 53.8746 104.486 53.888 104.473 53.899C104.461 53.9101 104.446 53.9184 104.43 53.9236C104.415 53.9289 104.398 53.9308 104.381 53.9294C104.364 53.928 104.348 53.9232 104.334 53.9154C104.319 53.9076 104.306 53.8969 104.295 53.8839L101.543 51.109L110.025 42.4993L114.418 41.8184L116.031 43.4322C112.461 46.3995 108.544 48.9224 104.366 50.9454C104.23 51.0103 104.121 51.1201 104.057 51.2562C103.993 51.3922 103.979 51.5462 104.016 51.6919L104.482 53.7203Z" fill="white"/>
<path d="M103.33 54.1088L98.8121 53.8148L100.912 51.7148L101.296 52.0746L103.33 54.1088Z" fill="white"/>
<path d="M113.713 41.0561L113.559 41.075L111.297 41.3527L111.575 41.075L111.994 40.6557L112.672 39.9785L112.685 39.992L113.189 40.5067C113.194 40.5256 113.201 40.5441 113.208 40.5622L113.303 40.6549L113.713 41.0561Z" fill="white"/>
</g>
<defs>
<clipPath id="clip0_4603_78668">
<rect width="55.9991" height="56" fill="white" transform="translate(87.6353 9.5)"/>
</clipPath>
</defs>
</svg>
