<svg width="231" height="76" viewBox="0 0 231 76" fill="none" xmlns="http://www.w3.org/2000/svg">
<g clip-path="url(#clip0_1002_45870)">
<path d="M57.8362 42.9767C60.7619 42.9767 63.1337 40.6049 63.1337 37.6793C63.1337 34.7536 60.7619 32.3818 57.8362 32.3818C54.9106 32.3818 52.5388 34.7536 52.5388 37.6793C52.5388 40.6049 54.9106 42.9767 57.8362 42.9767Z" fill="#B0D0E7"/>
<path d="M87.5534 37.6788C87.5534 33.5184 82.6695 29.9265 75.0722 27.73C76.9845 19.9777 76.2867 14.0342 72.6948 11.9411C69.6714 10.2097 65.3301 11.4501 60.4203 15.4296C59.5146 16.1633 58.6518 16.9485 57.8362 17.7812C57.0203 16.9488 56.1576 16.1637 55.2521 15.4296C50.3423 11.4501 45.9752 10.2097 42.9001 11.9411C39.825 13.6724 38.7655 18.0654 39.7733 24.3189C39.9542 25.4043 40.1868 26.5671 40.4969 27.73C32.8996 29.9265 28.0415 33.5184 28.0415 37.6788C28.0415 41.8392 32.8996 45.4311 40.4969 47.6276C40.1868 48.8163 39.9542 49.9533 39.7733 51.0386C38.7655 57.2921 39.7733 61.6851 42.9001 63.4165C43.8109 63.9411 44.8468 64.209 45.8977 64.1917C49.3683 63.8334 52.6219 62.3338 55.1488 59.9279C56.0542 59.1939 56.917 58.4088 57.7329 57.5764C58.5485 58.4091 59.4113 59.1942 60.317 59.9279C62.8529 62.3357 66.1153 63.8352 69.5939 64.1917C70.6439 64.2014 71.6779 63.934 72.5915 63.4165C75.589 61.6851 76.7002 57.2921 75.6924 51.0386C75.5115 49.9533 75.2789 48.8163 74.9689 47.6276C82.6695 45.4569 87.5534 41.8392 87.5534 37.6788ZM62.0483 17.4452C64.1333 15.4646 66.7937 14.1977 69.6456 13.8275C70.2595 13.8191 70.8651 13.9705 71.4028 14.2668C73.7285 15.6105 74.2453 20.4945 72.5656 27.1873C69.9527 26.5932 67.3021 26.1788 64.6324 25.9469C63.1203 23.755 61.4536 21.6739 59.6451 19.7192C60.4043 18.9182 61.2066 18.159 62.0483 17.4452ZM47.3189 43.7514C47.9133 44.7592 48.5076 45.767 49.1278 46.7231C47.2156 46.4647 45.4325 46.1546 43.7787 45.767C44.2955 44.139 44.9157 42.4335 45.6393 40.5988C46.1819 41.71 46.7246 42.7436 47.3189 43.7514ZM43.7787 29.5905C45.4325 29.2029 47.2414 28.8928 49.1536 28.6344C48.5076 29.5905 47.9133 30.5983 47.3189 31.6061C46.7246 32.6139 46.1819 33.6476 45.6651 34.6812C44.9471 33.0187 44.3174 31.3195 43.7787 29.5905ZM47.0088 37.6788C47.7841 36.1025 48.611 34.5003 49.5929 32.8982C50.5749 31.296 51.4793 29.7714 52.4871 28.3243C54.2185 28.1951 56.0015 28.1176 57.8879 28.1176C59.7743 28.1176 61.5315 28.1176 63.2629 28.3243C64.2707 29.7714 65.2268 31.296 66.1571 32.8982C67.0873 34.5003 67.9142 36.1025 68.7412 37.6788C67.9918 39.2551 67.139 40.8314 66.1571 42.4594C65.1751 44.0874 64.2965 45.5861 63.2887 47.0332C61.5573 47.1624 59.7485 47.24 57.8879 47.24C56.0274 47.24 54.1927 47.24 52.4613 47.0332C51.4535 45.5861 50.4974 44.0357 49.5929 42.4594C48.6885 40.8831 47.7841 39.2551 47.0088 37.6788ZM68.3535 43.7514C68.9479 42.7436 69.4906 41.71 70.0074 40.7022C70.7309 42.4335 71.3511 44.139 71.8679 45.8704C70.2141 46.258 68.4311 46.5681 66.5447 46.8265C67.1649 45.767 67.7592 44.8367 68.3535 43.7514ZM68.3535 31.6061C67.7592 30.5983 67.1649 29.5905 66.5188 28.6344C68.4311 28.8928 70.2141 29.2029 71.8679 29.5905C71.3511 31.1927 70.7309 32.8982 70.0074 34.7587C69.4906 33.6217 68.9479 32.6139 68.3535 31.6061ZM61.2731 25.611C60.1619 25.611 58.9991 25.611 57.8362 25.611C56.6734 25.611 55.5105 25.611 54.3735 25.611C55.45 24.2024 56.6061 22.8564 57.8362 21.5798C59.0507 22.8633 60.1979 24.2088 61.2731 25.611ZM44.2697 14.1893C44.8045 13.9174 45.4021 13.7925 46.001 13.8275C48.8555 14.1889 51.5185 15.457 53.5983 17.4452C54.4374 18.1256 55.2396 18.8501 56.0015 19.6159C54.2092 21.5776 52.5516 23.6582 51.04 25.8436C48.3613 26.0836 45.702 26.5067 43.081 27.1098C42.8031 26.0537 42.5788 24.9843 42.4091 23.9055C41.6081 18.9957 42.2799 15.3263 44.2697 14.1893ZM41.298 45.1985C34.6827 43.3121 30.7031 40.4438 30.7031 37.7305C30.7031 35.0171 34.6827 32.1488 41.2721 30.2882C42.0756 32.8407 43.0512 35.3358 44.1922 37.7563C43.0394 40.142 42.0718 42.6128 41.298 45.1468V45.1985ZM53.5983 57.964C49.6446 61.1941 46.2336 62.3828 44.2697 61.2458C42.3058 60.1088 41.6856 56.5427 42.4091 51.5037C42.5788 50.425 42.8031 49.3555 43.081 48.2994C45.6996 48.915 48.3597 49.3382 51.04 49.5657C52.5522 51.7575 54.2189 53.8387 56.0274 55.7934C55.2555 56.5419 54.4447 57.2492 53.5983 57.9123V57.964ZM54.3735 49.7982C55.5105 49.7982 56.6475 49.7982 57.8362 49.7982C59.0249 49.7982 60.1619 49.7982 61.2731 49.7982C60.2021 51.2367 59.0548 52.6169 57.8362 53.9328C56.6001 52.6072 55.4438 51.2093 54.3735 49.7465V49.7982ZM71.3253 61.1941C69.3355 62.3311 65.9245 61.1941 61.9708 57.9123C61.1231 57.2324 60.3123 56.5078 59.5417 55.7417C61.3664 53.7942 63.0422 51.7125 64.5549 49.514C67.2245 49.2821 69.8751 48.8677 72.4881 48.2736C72.7685 49.3204 72.9928 50.3814 73.16 51.4521C74.0644 56.4911 73.3667 60.0313 71.3253 61.1941ZM74.297 45.1468C73.5139 42.5992 72.5466 40.1119 71.4028 37.7046C72.5418 35.2805 73.5005 32.7758 74.2711 30.2107C80.8865 32.0713 84.8918 34.9655 84.8918 37.6788C84.8918 40.3921 80.9898 43.2604 74.3745 45.1468H74.297Z" fill="#B0D0E7"/>
</g>
<path d="M123.903 51.9259H116.394L111.88 44.457C111.543 43.8902 111.219 43.3842 110.909 42.9389C110.598 42.4936 110.281 42.1158 109.957 41.8054C109.647 41.4816 109.316 41.2387 108.966 41.0767C108.628 40.9013 108.257 40.8136 107.852 40.8136H106.091V51.9259H99.5535V22.9004H109.917C116.961 22.9004 120.483 25.5317 120.483 30.7944C120.483 31.8064 120.327 32.7442 120.017 33.6078C119.707 34.458 119.268 35.2271 118.701 35.9153C118.135 36.6035 117.446 37.1972 116.637 37.6965C115.841 38.1958 114.95 38.5871 113.965 38.8705V38.9515C114.397 39.0864 114.815 39.309 115.22 39.6194C115.625 39.9163 116.016 40.2671 116.394 40.6719C116.772 41.0767 117.129 41.5153 117.467 41.9876C117.818 42.4464 118.135 42.8984 118.418 43.3437L123.903 51.9259ZM106.091 27.7987V35.8748H108.925C110.328 35.8748 111.455 35.47 112.305 34.6604C113.169 33.8372 113.601 32.8184 113.601 31.604C113.601 29.0671 112.083 27.7987 109.046 27.7987H106.091Z" fill="#B0D0E7"/>
<path d="M143.577 43.3842H130.057C130.272 46.3934 132.168 47.8979 135.744 47.8979C138.025 47.8979 140.029 47.3582 141.756 46.2787V50.8936C139.84 51.9191 137.35 52.4319 134.287 52.4319C130.94 52.4319 128.343 51.5076 126.494 49.6589C124.645 47.7967 123.721 45.2059 123.721 41.8864C123.721 38.4454 124.72 35.7196 126.717 33.7091C128.714 31.6985 131.17 30.6931 134.084 30.6931C137.107 30.6931 139.442 31.5905 141.088 33.3852C142.748 35.1799 143.577 37.6155 143.577 40.6922V43.3842ZM137.647 39.4575C137.647 36.4888 136.446 35.0045 134.044 35.0045C133.018 35.0045 132.128 35.4295 131.372 36.2796C130.63 37.1298 130.178 38.189 130.016 39.4575H137.647Z" fill="#B0D0E7"/>
<path d="M164.628 51.9259H158.576V48.9505H158.495C157.105 51.2714 155.047 52.4319 152.322 52.4319C150.311 52.4319 148.725 51.8652 147.565 50.7317C146.418 49.5847 145.844 48.0599 145.844 46.1572C145.844 42.136 148.226 39.8151 152.99 39.1943L158.617 38.4454C158.617 36.1784 157.389 35.045 154.933 35.045C152.463 35.045 150.115 35.7804 147.889 37.2512V32.4339C148.779 31.9751 149.994 31.5703 151.532 31.2194C153.084 30.8686 154.494 30.6931 155.763 30.6931C161.673 30.6931 164.628 33.6416 164.628 39.5384V51.9259ZM158.617 43.5057V42.109L154.852 42.5948C152.774 42.8647 151.735 43.8025 151.735 45.4083C151.735 46.137 151.984 46.7375 152.484 47.2098C152.996 47.6685 153.684 47.8979 154.548 47.8979C155.749 47.8979 156.727 47.4864 157.483 46.6632C158.239 45.8266 158.617 44.7741 158.617 43.5057Z" fill="#B0D0E7"/>
<path d="M185.395 51.177C183.951 52.0136 181.867 52.4319 179.141 52.4319C175.956 52.4319 173.379 51.4671 171.409 49.5375C169.439 47.6078 168.454 45.1182 168.454 42.0686C168.454 38.5466 169.506 35.7736 171.611 33.7495C173.73 31.7119 176.557 30.6931 180.092 30.6931C182.535 30.6931 184.302 31.017 185.395 31.6647V37.0893C184.059 36.0907 182.568 35.5915 180.922 35.5915C179.087 35.5915 177.629 36.1312 176.55 37.2107C175.484 38.2768 174.951 39.7543 174.951 41.6435C174.951 43.4787 175.464 44.9225 176.489 45.9751C177.515 47.0141 178.925 47.5336 180.72 47.5336C182.312 47.5336 183.87 47.0343 185.395 46.0358V51.177Z" fill="#B0D0E7"/>
<path d="M202.135 51.683C201.19 52.1823 199.766 52.4319 197.864 52.4319C193.357 52.4319 191.103 50.0907 191.103 45.4083V35.9153H187.743V31.1992H191.103V26.7259L197.479 24.9042V31.1992H202.135V35.9153H197.479V44.2951C197.479 46.4541 198.336 47.5336 200.05 47.5336C200.724 47.5336 201.419 47.3379 202.135 46.9466V51.683Z" fill="#B0D0E7"/>
<defs>
<clipPath id="clip0_1002_45870">
<rect width="59.4344" height="53" fill="white" transform="translate(28.1191 11.166)"/>
</clipPath>
</defs>
</svg>
