<svg width="231" height="75" viewBox="0 0 231 75" fill="none" xmlns="http://www.w3.org/2000/svg">
<g clip-path="url(#clip0_4730_186387)">
<path d="M141.125 32.034C141.125 28.6649 136.906 25.4718 130.437 23.4916C131.93 16.8984 131.266 11.653 128.343 9.97309C127.672 9.58062 126.888 9.3941 126.031 9.39256V9.38208C123.179 9.38208 119.448 11.4141 115.674 14.9388C111.9 11.4347 108.168 9.4237 105.318 9.4237V9.43387C104.447 9.43387 103.659 9.6207 102.975 10.0147C100.061 11.694 99.4081 16.9292 100.911 23.5021C94.463 25.4925 90.2646 28.6754 90.2646 32.034C90.2646 35.4037 94.484 38.5967 100.953 40.5766C99.4599 47.1702 100.123 52.4152 103.047 54.0951C103.721 54.4892 104.509 54.6757 105.38 54.6757C108.231 54.6757 111.963 52.6437 115.736 49.1189C119.51 52.623 123.242 54.6344 126.093 54.6344C126.964 54.6344 127.752 54.4494 128.436 54.0535C131.349 52.3742 132.002 47.1387 130.499 40.5664C136.926 38.5862 141.125 35.3932 141.125 32.034ZM126.02 11.694V11.7045C126.497 11.7045 126.881 11.797 127.202 11.9739C128.612 12.7826 129.224 15.8616 128.747 19.8217C128.633 20.7962 128.446 21.8225 128.218 22.8698C126.186 22.3722 123.968 21.9884 121.635 21.7396C120.236 19.8217 118.784 18.0801 117.322 16.5562C120.696 13.4199 123.864 11.6996 126.02 11.694ZM106.509 37.3419C106.997 38.1717 107.495 38.9803 108.003 39.7679C106.53 39.5503 105.11 39.2805 103.752 38.9488C104.136 37.6117 104.613 36.2327 105.151 34.854C105.577 35.6824 106.022 36.5126 106.509 37.3419ZM103.721 25.1195C105.079 24.7979 106.509 24.518 107.992 24.3003C107.484 25.0985 106.976 25.9176 106.499 26.7571C106.022 27.5868 105.577 28.4161 105.151 29.2454C104.607 27.894 104.13 26.5187 103.721 25.1195ZM106.365 32.0654C107.007 30.6762 107.733 29.2867 108.511 27.9287C109.319 26.5293 110.148 25.2024 111.008 23.9686C112.553 23.8339 114.118 23.7611 115.694 23.7611C117.26 23.7611 118.825 23.8339 120.359 23.9581C121.22 25.1913 122.056 26.5045 122.868 27.8978C123.656 29.2543 124.371 30.6346 125.024 32.0238C124.371 33.413 123.656 34.8022 122.878 36.1602C122.07 37.5599 121.24 38.8868 120.381 40.1206C118.836 40.2553 117.271 40.3278 115.695 40.3278C114.129 40.3278 112.564 40.2553 111.03 40.1308C110.169 38.8976 109.333 37.5845 108.521 36.1914C107.733 34.8333 107.018 33.4543 106.365 32.0654ZM124.88 37.3108C125.357 36.4818 125.803 35.642 126.228 34.8136C126.772 36.1645 127.249 37.5399 127.658 38.9395C126.3 39.2713 124.87 39.5512 123.387 39.7689C123.895 38.9697 124.403 38.1509 124.88 37.3108ZM124.87 26.726C124.393 25.897 123.885 25.0883 123.377 24.3003C124.849 24.518 126.269 24.7877 127.627 25.1195C127.244 26.4569 126.767 27.8353 126.228 29.2143C125.803 28.385 125.357 27.5556 124.87 26.726ZM118.546 21.5118C117.613 21.4701 116.659 21.439 115.695 21.439C114.72 21.439 113.756 21.4597 112.813 21.5118C113.703 20.3553 114.654 19.2478 115.664 18.1942C116.681 19.2498 117.643 20.3571 118.546 21.5118ZM104.125 12.0162C104.436 11.8297 104.84 11.7467 105.318 11.7467V11.7366C107.463 11.7366 110.646 13.447 114.026 16.5676C112.482 18.1918 111.051 19.9202 109.744 21.7405C107.401 21.9893 105.181 22.3728 103.151 22.8812C102.912 21.8447 102.736 20.839 102.612 19.8747C102.126 15.9134 102.726 12.8344 104.125 12.0153V12.0162ZM101.513 38.3384C100.487 38.0168 99.512 37.6644 98.61 37.2809C94.9412 35.7153 92.5673 33.6627 92.5673 32.0349C92.5673 30.4071 94.9412 28.3446 98.61 26.7895C99.5016 26.4057 100.476 26.0638 101.482 25.7413C102.072 27.7733 102.85 29.8882 103.814 32.0549C102.86 34.2112 102.093 36.3156 101.513 38.3374V38.3384ZM105.359 52.3752C104.892 52.365 104.498 52.2716 104.187 52.0952C102.778 51.2866 102.166 48.2076 102.643 44.2472C102.757 43.273 102.943 42.2466 103.172 41.1994C105.204 41.6973 107.422 42.0808 109.755 42.3296C111.154 44.2472 112.605 45.9891 114.067 47.513C110.688 50.6533 107.515 52.3742 105.359 52.3742V52.3752ZM115.716 45.8753C114.699 44.8195 113.737 43.7121 112.834 42.5574C113.767 42.5987 114.72 42.6299 115.684 42.6299C116.659 42.6299 117.623 42.6092 118.567 42.5574C117.677 43.7135 116.725 44.8208 115.716 45.8744V45.8753ZM127.264 52.053C126.954 52.238 126.549 52.3224 126.072 52.3224C123.926 52.3224 120.744 50.612 117.364 47.4914C118.908 45.8669 120.338 44.1384 121.646 42.3182C123.989 42.0694 126.208 41.6858 128.239 41.1775C128.478 42.2257 128.664 43.2304 128.778 44.1945C129.265 48.1549 128.664 51.2338 127.264 52.053ZM132.771 37.28C131.879 37.6635 130.904 38.0057 129.899 38.3282C129.308 36.2962 128.53 34.1816 127.566 32.0145C128.52 29.8583 129.287 27.7539 129.868 25.7324C130.894 26.0536 131.869 26.406 132.781 26.7898C136.45 28.355 138.824 30.4077 138.824 32.0352C138.813 33.6618 136.439 35.7249 132.771 37.28Z" fill="#B0D0E7"/>
<path d="M115.685 36.7717C116.622 36.7718 117.538 36.494 118.317 35.9734C119.096 35.4528 119.704 34.7129 120.062 33.8472C120.421 32.9814 120.515 32.0288 120.332 31.1097C120.149 30.1906 119.698 29.3464 119.036 28.6837C118.373 28.0211 117.529 27.5698 116.61 27.387C115.691 27.2041 114.738 27.2979 113.872 27.6565C113.006 28.0151 112.266 28.6224 111.746 29.4015C111.225 30.1807 110.947 31.0967 110.947 32.0338C110.947 32.656 111.07 33.2721 111.308 33.8469C111.546 34.4218 111.895 34.9441 112.335 35.384C112.775 35.824 113.297 36.173 113.872 36.4111C114.447 36.6492 115.063 36.7717 115.685 36.7717ZM92.5746 62.8328H91.0106V65.5255H90.1279V58.8662H92.332C93.0819 58.8662 93.6581 59.037 94.0606 59.3786C94.4661 59.7198 94.6689 60.2167 94.6689 60.8692C94.6689 61.2838 94.5558 61.6451 94.3297 61.9532C94.1073 62.2615 93.7965 62.4916 93.3971 62.6435L94.9608 65.4697V65.5255H94.019L92.5746 62.8328ZM91.0106 62.1151H92.3597C92.7956 62.1151 93.1416 62.002 93.3977 61.7759C93.6538 61.5499 93.7833 61.248 93.7862 60.8705C93.7862 60.4594 93.6629 60.1439 93.4162 59.924C93.1696 59.7041 92.816 59.5928 92.3554 59.5901H91.0109L91.0106 62.1151ZM97.824 65.6179C97.1531 65.6179 96.6074 65.3984 96.1869 64.9594C95.7662 64.5173 95.5558 63.9274 95.5558 63.1898V63.0356C95.5558 62.5448 95.6483 62.1074 95.8333 61.7232C96.0226 61.336 96.2848 61.0342 96.6201 60.8177C96.9454 60.6021 97.3273 60.4875 97.7176 60.4885C98.3607 60.4885 98.8607 60.7004 99.2175 61.1242C99.5743 61.548 99.7526 62.1543 99.7524 62.9432V63.2952H96.4021C96.4142 63.7832 96.5559 64.1781 96.8272 64.48C97.1016 64.7785 97.4492 64.9278 97.8699 64.928C98.1687 64.928 98.4218 64.867 98.6289 64.7452C98.8399 64.6199 99.0247 64.4553 99.1734 64.2602L99.6907 64.6622C99.2757 65.2994 98.6538 65.6179 97.8249 65.6179H97.824ZM97.7188 61.1822C97.557 61.1791 97.3964 61.211 97.248 61.2757C97.0996 61.3404 96.9669 61.4364 96.859 61.557C96.6276 61.8037 96.4843 62.1512 96.4292 62.5997H98.9076V62.535C98.8834 62.1052 98.7676 61.7729 98.5602 61.5379C98.3528 61.303 98.0724 61.1842 97.7188 61.1815V61.1822ZM103.791 65.5255C103.742 65.4276 103.702 65.2538 103.672 65.0041C103.279 65.4133 102.809 65.6179 102.264 65.6179C101.777 65.6179 101.376 65.4808 101.062 65.2064C100.751 64.9289 100.596 64.5783 100.596 64.1545C100.596 63.6392 100.791 63.2398 101.182 62.9564C101.575 62.6687 102.127 62.5248 102.837 62.5248H103.66V62.1363C103.66 61.8408 103.572 61.6061 103.395 61.4322C103.218 61.2552 102.958 61.1668 102.613 61.167C102.311 61.167 102.058 61.2432 101.854 61.3955C101.65 61.5478 101.548 61.7328 101.548 61.9504H100.697C100.697 61.7038 100.784 61.4659 100.958 61.2367C101.134 61.0051 101.372 60.8223 101.671 60.6883C101.984 60.5518 102.322 60.4832 102.663 60.4869C103.234 60.4869 103.68 60.6308 104.003 60.9186C104.326 61.202 104.494 61.5936 104.506 62.0935V64.3709C104.506 64.8253 104.564 65.1865 104.68 65.4545V65.5255H103.791ZM102.387 64.8808C102.653 64.8807 102.913 64.8096 103.142 64.6749C103.379 64.5376 103.551 64.3593 103.659 64.14V63.1247H102.995C101.959 63.1247 101.441 63.428 101.44 64.0345C101.44 64.2999 101.529 64.5073 101.706 64.6567C101.883 64.8061 102.11 64.8808 102.387 64.8808ZM107.815 64.9264C108.103 64.9312 108.383 64.834 108.606 64.6521C108.832 64.4689 108.957 64.2403 108.981 63.9661H109.783C109.765 64.2583 109.663 64.5392 109.49 64.7754C109.304 65.0368 109.056 65.2475 108.768 65.3883C108.474 65.5397 108.147 65.6181 107.817 65.617C107.143 65.617 106.606 65.3929 106.207 64.9446C105.81 64.4925 105.612 63.8767 105.612 63.0973V62.9555C105.612 62.4739 105.701 62.0456 105.877 61.6705C106.04 61.3117 106.304 61.0082 106.637 60.7971C106.969 60.5895 107.361 60.4858 107.812 60.486C108.367 60.486 108.827 60.6522 109.193 60.9845C109.563 61.3169 109.759 61.7485 109.783 62.2794H108.981C108.957 61.959 108.835 61.6967 108.615 61.4926C108.399 61.2854 108.131 61.1819 107.811 61.1819C107.381 61.1819 107.047 61.3373 106.809 61.6483C106.574 61.9566 106.457 62.4032 106.457 62.9882V63.1482C106.457 63.7183 106.574 64.1572 106.809 64.4649C107.044 64.7726 107.379 64.9267 107.815 64.9274V64.9264ZM111.881 59.3795V60.5776H112.805V61.2315H111.881V64.3C111.881 64.4979 111.922 64.6472 112.004 64.7479C112.086 64.8486 112.226 64.8975 112.425 64.8944C112.56 64.8894 112.694 64.871 112.825 64.8395V65.5255C112.614 65.5853 112.396 65.6164 112.176 65.6179C111.798 65.6179 111.513 65.5036 111.321 65.2748C111.129 65.0461 111.033 64.7214 111.033 64.3009V61.2324H110.132V60.5785H111.036V59.3805L111.881 59.3795ZM121.371 65.5255H120.488L117.136 60.3948V65.5255H116.253V58.8662H117.136L120.496 64.02V58.8681H121.37L121.371 65.5255ZM125.852 65.5255C125.803 65.4276 125.763 65.2538 125.733 65.0041C125.34 65.4133 124.87 65.6179 124.324 65.6179C123.836 65.6179 123.435 65.4808 123.121 65.2064C122.811 64.9289 122.655 64.5783 122.655 64.1545C122.655 63.6392 122.85 63.2398 123.241 62.9564C123.634 62.6687 124.186 62.5248 124.897 62.5248H125.72V62.1363C125.72 61.8408 125.631 61.6061 125.454 61.4322C125.278 61.2552 125.017 61.1668 124.672 61.167C124.37 61.167 124.117 61.2432 123.913 61.3955C123.709 61.5478 123.607 61.7328 123.607 61.9504H122.756C122.756 61.7038 122.843 61.4659 123.017 61.2367C123.194 61.0051 123.432 60.8223 123.731 60.6883C124.043 60.5518 124.381 60.4832 124.723 60.4869C125.293 60.4869 125.739 60.6308 126.063 60.9186C126.386 61.202 126.553 61.5936 126.566 62.0935V64.3709C126.566 64.8253 126.624 65.1865 126.74 65.4545V65.5255H125.852ZM124.447 64.8817C124.712 64.8816 124.973 64.8105 125.202 64.6758C125.439 64.5385 125.611 64.3602 125.718 64.1409V63.1257H125.055C124.019 63.1257 123.5 63.4289 123.5 64.0355C123.5 64.3008 123.589 64.5082 123.766 64.6576C123.943 64.807 124.17 64.8817 124.447 64.8817ZM129.041 59.3805V60.5785H129.966V61.2324H129.041V64.3009C129.041 64.4988 129.082 64.6481 129.164 64.7489C129.246 64.8496 129.386 64.8984 129.585 64.8953C129.72 64.8904 129.855 64.872 129.987 64.8404V65.5255C129.776 65.5852 129.557 65.6164 129.338 65.6179C128.96 65.6179 128.675 65.5036 128.482 65.2748C128.29 65.0461 128.194 64.7214 128.194 64.3009V61.2324H127.294V60.5785H128.194V59.3805H129.041ZM131.877 65.5264H131.031V60.5785H131.877V65.5264ZM130.96 59.267C130.956 59.1399 131 59.016 131.083 58.9196C131.168 58.8252 131.293 58.7781 131.458 58.7781C131.622 58.7781 131.748 58.8252 131.833 58.9196C131.918 59.0147 131.964 59.1391 131.961 59.267C131.965 59.3937 131.919 59.517 131.833 59.6101C131.748 59.7018 131.623 59.7475 131.458 59.7473C131.293 59.7473 131.168 59.7017 131.083 59.6101C131 59.5157 130.956 59.3929 130.96 59.267ZM134.865 64.3798L136.091 60.5797H136.954L135.181 65.5255H134.536L132.743 60.5776H133.607L134.865 64.3798ZM139.758 65.6192C139.088 65.6192 138.542 65.3997 138.121 64.9607C137.7 64.5186 137.49 63.9287 137.49 63.191V63.0369C137.49 62.5461 137.583 62.1086 137.768 61.7245C137.957 61.3372 138.219 61.0354 138.554 60.819C138.88 60.6034 139.261 60.4889 139.652 60.4897C140.295 60.4897 140.795 60.7016 141.152 61.1254C141.509 61.5492 141.687 62.1556 141.687 62.9444V63.2965H138.336C138.348 63.7844 138.49 64.1793 138.761 64.4813C139.036 64.7797 139.383 64.929 139.804 64.9292C140.103 64.9292 140.356 64.8683 140.563 64.7464C140.774 64.6211 140.959 64.4565 141.107 64.2614L141.624 64.6641C141.209 65.3012 140.587 65.6198 139.758 65.6198V65.6192ZM139.653 61.1834C139.491 61.1804 139.331 61.2123 139.182 61.277C139.034 61.3417 138.901 61.4376 138.793 61.5583C138.562 61.8049 138.418 62.1525 138.364 62.6009H140.842V62.535C140.818 62.1052 140.702 61.7729 140.494 61.5379C140.287 61.303 140.006 61.1842 139.653 61.1815V61.1834Z" fill="#B0D0E7"/>
</g>
<defs>
<clipPath id="clip0_4730_186387">
<rect width="51.5601" height="56.236" fill="white" transform="translate(90.1279 9.38196)"/>
</clipPath>
</defs>
</svg>
