<svg width="231" height="75" viewBox="0 0 231 75" fill="none" xmlns="http://www.w3.org/2000/svg">
<g clip-path="url(#clip0_4901_27149)">
<path d="M137.386 9.69418C137.452 9.69021 137.519 9.70494 137.578 9.73671C137.636 9.76848 137.685 9.81602 137.718 9.87399C137.751 9.93196 137.768 9.99805 137.765 10.0648C137.763 10.1316 137.742 10.1963 137.705 10.2518L123.961 28.9192C123.911 28.9756 123.85 29.0208 123.781 29.0519C123.713 29.083 123.638 29.0992 123.563 29.0996C123.488 29.0995 123.414 29.0833 123.345 29.0522C123.277 29.0211 123.216 28.9758 123.167 28.9192L118.32 23.517C118.262 23.4561 118.19 23.4092 118.111 23.3797C118.032 23.3502 117.947 23.339 117.863 23.3467C117.779 23.3545 117.698 23.3811 117.626 23.4246C117.553 23.4681 117.492 23.5273 117.446 23.5978L114.506 27.3292C114.461 27.4324 114.444 27.5459 114.459 27.6576C114.473 27.7693 114.517 27.8751 114.587 27.9636L123.325 37.0206C123.375 37.0767 123.436 37.1216 123.504 37.1523C123.573 37.183 123.647 37.1989 123.723 37.1988C123.797 37.1991 123.872 37.1833 123.94 37.1526C124.008 37.1218 124.069 37.0768 124.119 37.0206L141.279 17.7167C141.328 17.663 141.393 17.6253 141.464 17.6085C141.535 17.5917 141.61 17.5965 141.678 17.6224C141.747 17.6482 141.806 17.6939 141.848 17.7535C141.89 17.8132 141.914 17.8841 141.915 17.9572V64.9066C141.918 64.9597 141.91 65.0128 141.891 65.0624C141.872 65.1121 141.843 65.1572 141.805 65.1948C141.768 65.2323 141.723 65.2615 141.673 65.2805C141.623 65.2994 141.57 65.3077 141.517 65.3047H89.2443C89.1913 65.3077 89.1382 65.2994 89.0885 65.2805C89.0389 65.2615 88.9938 65.2323 88.9562 65.1948C88.9186 65.1572 88.8894 65.1121 88.8705 65.0624C88.8515 65.0128 88.8433 64.9597 88.8463 64.9066V10.0922C88.8433 10.0391 88.8515 9.98605 88.8705 9.9364C88.8894 9.88674 88.9186 9.84165 88.9562 9.80408C88.9938 9.7665 89.0389 9.73729 89.0885 9.71835C89.1382 9.69941 89.1913 9.69117 89.2443 9.69418H137.386ZM123.88 41.3925C122.71 41.372 121.547 41.5886 120.463 42.0295C119.379 42.4704 118.395 43.1264 117.571 43.9578C116.747 44.7892 116.1 45.7789 115.669 46.8672C115.238 47.9555 115.032 49.1198 115.064 50.2899C115.064 55.7709 119.036 59.266 124.199 59.266C126.591 59.3235 128.935 58.5953 130.872 57.193C130.959 57.1143 131.015 57.0069 131.03 56.8905C131.044 56.774 131.016 56.6562 130.951 56.5586L129.521 54.4131C129.444 54.3238 129.336 54.2662 129.219 54.2513C129.102 54.2363 128.984 54.2652 128.886 54.3322C127.644 55.1815 126.181 55.6511 124.676 55.6838C121.894 55.6838 120.147 53.9363 119.829 51.8716C119.832 51.8302 119.85 51.7913 119.879 51.7619C119.909 51.7326 119.948 51.7149 119.989 51.712H131.984C132.107 51.7037 132.224 51.6508 132.311 51.5631C132.399 51.4754 132.452 51.3589 132.46 51.2352V50.7584C132.46 45.2048 128.965 41.3925 123.88 41.3925ZM112.043 38.3742C109.631 36.401 106.579 35.3829 103.465 35.5135C98.0629 35.5135 94.7254 38.6914 94.7254 42.5037C94.7254 51.1647 107.914 48.3827 107.914 52.4354C107.914 53.7062 106.643 54.9769 103.942 54.9769C101.377 55.0003 98.9024 54.0352 97.0305 52.282C96.9752 52.2304 96.9095 52.1912 96.8378 52.1669C96.7661 52.1427 96.69 52.134 96.6147 52.1415C96.5394 52.1489 96.4665 52.1723 96.401 52.2102C96.3354 52.248 96.2787 52.2993 96.2345 52.3608L94.1615 55.2216C94.0966 55.3196 94.0689 55.4376 94.0834 55.5543C94.0978 55.671 94.1535 55.7787 94.2403 55.858C96.3858 57.8439 99.4041 59.1934 103.614 59.1934C109.811 59.1934 112.831 56.0155 112.989 51.8861C112.989 43.3059 99.8021 45.7686 99.8021 42.1139C99.8021 40.7623 100.994 39.8108 103.059 39.8108C105.336 39.7786 107.554 40.536 109.336 41.9543C109.387 41.9972 109.447 42.0293 109.511 42.0485C109.575 42.0677 109.643 42.0738 109.709 42.0663C109.843 42.0502 109.965 41.9816 110.049 41.8755L112.122 39.0956C112.207 38.99 112.246 38.8551 112.232 38.7204C112.226 38.6529 112.206 38.5873 112.173 38.5278C112.141 38.4682 112.097 38.416 112.043 38.3742ZM123.961 44.8876C125 44.8299 126.021 45.1792 126.807 45.8615C127.593 46.5438 128.082 47.5053 128.171 48.5423C128.168 48.5836 128.15 48.6223 128.121 48.6515C128.092 48.6808 128.053 48.6986 128.012 48.7019H119.908C119.867 48.6986 119.829 48.6806 119.8 48.6513C119.771 48.622 119.754 48.5834 119.751 48.5423C119.879 47.5214 120.379 46.5837 121.156 45.9092C121.933 45.2347 122.932 44.8709 123.961 44.8876Z" fill="#B0D0E7"/>
</g>
<defs>
<clipPath id="clip0_4901_27149">
<rect width="53.069" height="55.6105" fill="white" transform="translate(88.8467 9.69482)"/>
</clipPath>
</defs>
</svg>
