<svg width="56" height="55" viewBox="0 0 56 55" fill="none" xmlns="http://www.w3.org/2000/svg">
<path fill-rule="evenodd" clip-rule="evenodd" d="M9.80386 0.873051H45.3525C46.6329 0.871844 47.9009 1.12314 49.084 1.61256C50.2672 2.10197 51.3422 2.8199 52.2475 3.72525C53.1529 4.6306 53.8708 5.70561 54.3602 6.88874C54.8496 8.07187 55.1009 9.3399 55.0997 10.6203V44.7928C55.1009 46.0732 54.8496 47.3412 54.3602 48.5244C53.8708 49.7075 53.1529 50.7825 52.2475 51.6878C51.3422 52.5932 50.2672 53.3111 49.084 53.8005C47.9009 54.29 46.6329 54.5413 45.3525 54.54H9.80386C8.5235 54.5413 7.25547 54.29 6.07233 53.8005C4.8892 53.3111 3.8142 52.5932 2.90885 51.6878C2.0035 50.7825 1.28556 49.7075 0.796149 48.5244C0.306733 47.3412 0.0554393 46.0732 0.0566449 44.7928V10.6203C0.0554393 9.3399 0.306733 8.07187 0.796149 6.88874C1.28556 5.70561 2.0035 4.6306 2.90885 3.72525C3.8142 2.8199 4.8892 2.10197 6.07233 1.61256C7.25547 1.12314 8.5235 0.871844 9.80386 0.873051ZM29.0003 14.9781L22.1199 26.3307L29.459 38.3714C29.5073 38.4545 29.5236 38.5523 29.5049 38.6466C29.4908 38.7029 29.4508 38.6987 29.3902 38.6924C29.3521 38.6884 29.3057 38.6836 29.2526 38.6924H24.0006C23.6336 38.6924 23.3813 38.6695 23.2208 38.4402C22.98 37.9586 22.7334 37.4827 22.4869 37.0068L22.4867 37.0065C22.2402 36.5307 21.9937 36.0549 21.753 35.5733C21.2923 34.6521 20.7897 33.7518 20.2652 32.8122L20.1934 32.6836C19.643 31.6974 19.0926 30.7112 18.5421 29.7021H18.4963C18.0146 30.6883 17.4871 31.6745 16.9596 32.6606C16.4321 33.6468 15.9047 34.633 15.4001 35.5963C14.8955 36.5595 14.3451 37.5457 13.8176 38.486C13.7259 38.7154 13.5424 38.7383 13.2901 38.7383H8.24449C8.22214 38.7383 8.20115 38.741 8.18218 38.7435C8.12331 38.7511 8.08395 38.7562 8.08395 38.6695C8.07372 38.6266 8.07251 38.582 8.0804 38.5386C8.0883 38.4951 8.10513 38.4538 8.12982 38.4172L15.2625 26.7206L8.3133 14.9551C8.24449 14.8634 8.22156 14.7716 8.26743 14.7258C8.29539 14.6931 8.33086 14.6677 8.37081 14.6517C8.41075 14.6357 8.45398 14.6297 8.49677 14.634H13.7029C13.8114 14.6364 13.9192 14.6518 14.024 14.6799C14.1159 14.7294 14.1945 14.8001 14.2534 14.8863C14.6891 15.8725 15.1937 16.8587 15.7212 17.8449C16.2487 18.8311 16.7991 19.7943 17.3725 20.7576C17.9458 21.7208 18.4275 22.6841 18.9091 23.6703H18.955C19.4366 22.6612 19.9411 21.675 20.4457 20.7117C20.9503 19.7485 21.4778 18.7852 22.0053 17.822C22.3175 17.2518 22.6217 16.6736 22.9226 16.1017L22.9228 16.1013C23.1302 15.7071 23.336 15.3158 23.5419 14.9322C23.5593 14.8419 23.608 14.7607 23.6795 14.7028C23.7703 14.6527 23.876 14.6365 23.9776 14.657H28.8168C28.8439 14.6509 28.872 14.6502 28.8994 14.655C28.9267 14.6598 28.9529 14.6699 28.9763 14.6848C28.9998 14.6998 29.02 14.7192 29.036 14.7419C29.0519 14.7647 29.0632 14.7904 29.0691 14.8175C29.0921 14.8405 29.0462 14.9322 29.0003 14.9781ZM34.6658 38.1419C36.2119 38.8492 37.8967 39.2018 39.5967 39.174C40.7812 39.1705 41.963 39.0631 43.1287 38.8529C44.4118 38.6261 45.6657 38.2569 46.867 37.752C46.9388 37.7225 46.9995 37.6712 47.0406 37.6054C47.0817 37.5395 47.1012 37.4625 47.0963 37.385C47.0871 37.2271 47.074 37.0617 47.0602 36.8871C47.04 36.6308 47.0182 36.355 47.0046 36.0548C47.0025 36.0085 47.0004 35.9626 46.9983 35.917C46.9777 35.4664 46.9587 35.0537 46.9587 34.6788V12.7991C46.9477 12.7485 46.9179 12.7038 46.8754 12.674C46.8329 12.6443 46.7808 12.6316 46.7294 12.6386H42.0737C41.9131 12.6386 41.8443 12.7303 41.8443 12.8909V20.1382C41.717 20.1276 41.5994 20.1219 41.4895 20.1166C41.3618 20.1104 41.2442 20.1047 41.1333 20.0924C40.9734 20.0753 40.8126 20.0676 40.6517 20.0694C38.3812 20.0694 36.4547 20.5052 34.8493 21.3996C33.3336 22.2316 32.073 23.4605 31.2027 24.9545C30.3538 26.4244 29.918 28.0964 29.9412 29.7937C29.9412 31.8807 30.3541 33.6238 31.2027 35.0228C32.0216 36.3834 33.2272 37.4692 34.6658 38.1419ZM41.8443 24.4958V34.587C41.5802 34.6826 41.2989 34.7217 41.0187 34.7017C40.7205 34.7246 40.3994 34.7476 40.0554 34.7476C39.409 34.7513 38.7662 34.6506 38.1518 34.4494C37.5682 34.268 37.0344 33.954 36.5923 33.532C36.1342 33.0705 35.782 32.5149 35.5602 31.9037C35.2826 31.1478 35.1504 30.3464 35.1703 29.5414C35.1703 28.3488 35.4226 27.3626 35.9272 26.6287C36.4219 25.9062 37.0929 25.3221 37.8766 24.9316C38.6808 24.5295 39.5692 24.3251 40.4682 24.3353C40.7205 24.3353 40.9728 24.3582 41.2251 24.3811C41.4334 24.4082 41.6401 24.4465 41.8443 24.4958Z" fill="#B0D0E7"/>
</svg>
